<?xml version="1.0" encoding="utf-8"?>
<!-- Generator: Adobe Illustrator 16.0.4, SVG Export Plug-In . SVG Version: 6.00 Build 0)  -->
<!DOCTYPE svg PUBLIC "-//W3C//DTD SVG 1.0//EN" "http://www.w3.org/TR/2001/REC-SVG-20010904/DTD/svg10.dtd">
<svg version="1.0" id="Calque_1" xmlns="http://www.w3.org/2000/svg" xmlns:xlink="http://www.w3.org/1999/xlink" x="0px" y="0px"
	 width="566.93px" height="283.46px" viewBox="0 0 566.93 283.46" enable-background="new 0 0 566.93 283.46" xml:space="preserve">
<g>
	<path fill="#FFFFFF" d="M124.608,255.658c0,0,20.88,10.189,37.316-0.655c17.021-12.238,22.272-30.037,13.909-50.17
		c-4.5-10.832-15.167-18.832-31.724-19.115c-27.814-0.476-34.783,21.091-34.783,21.091S95.056,240.563,124.608,255.658z
		 M142.761,240.023c-9.042-0.032-16.521-7.478-16.615-16.544c-0.099-9.376,7.332-16.812,16.763-16.776
		c9.291,0.036,16.486,7.179,16.545,16.423C159.514,232.544,152.092,240.057,142.761,240.023z"/>
	<path fill="#FFFFFF" d="M104.863,197.729c3.328-5.437,14.97-21.244,38.049-20.855c28.337,0.478,38.255,21.127,40.826,26.332
		c5.174,10.476,4.96,14.363,9.327,14.442c75.147,1.361,145.895-0.129,221.053-0.385c0,0,7.156-2.146,9.05-9.891
		c2.326-9.513,17.735-25.918,35.916-25.622s33.34,7.719,40.435,23.387c0,0,4.435,14.634,8.13,13.599
		c11.371,2.142,24.812-11.938,26.421-23.219c0.809-5.671,0.141-11.553,0.141-17.881c0,0,0.143-2.079-2.079-2.079
		s-3.896-0.03-3.896-0.03c-0.293-6.619-1.002-12.819-0.79-18.921c0.307-8.81-4.455-13.926-11.582-17.566
		c-5.635-2.878-11.326-5.657-17.088-8.269c-8.013-3.631-16.136-7.017-24.167-10.608c-2.596-1.161-5.606-2.105-7.479-4.059
		c-16.475-17.194-32.478-34.847-49.15-51.844c-11.198-11.416-23.226-21.998-38.169-28.594c-11.562-5.104-24.105-8.621-36.517-8.596
		c0,0-229.029,0.51-261.186,0c-10.522-0.167-20.598,2.496-24.232,22.489c-5.109,28.102-17.511,137.436-17.511,137.436
		s-5.677-0.642-6.406,5.027c-0.459,3.575-0.331,2.664-0.733,10.9c-0.621,12.703,10.838,15.14,10.838,15.14
		s38.344-0.083,38.344-0.062c-0.003,0.13,7.853-0.01,9.35-0.012C99.018,217.978,100.504,204.851,104.863,197.729z M422.826,91.118
		c2.491,2.34,4.688,5.436,6.169,8.605c1.227,2.623,1.306,5.799,1.788,8.748c1.305,7.936,0.314,9.113-9.003,9.344
		c-0.501,0.003,0.47-0.136-1.357-0.101c0,0-42.697-0.184-52.521-0.235c-6.332-0.033-9.249-1.945-9.513-8.517
		c-0.407-10.137-0.009-18.64-0.095-29.539c-0.062-7.964-0.273-9.218,7.638-9.238c9.16,0.02,15.122,0.094,24.28,0.193
		c0,0,9.3,0.279,12.049,2.308C408.271,77.124,415.438,84.178,422.826,91.118z"/>
</g>
<path fill="#FFFFFF" d="M443.608,255.325c0,0,20.88,10.189,37.316-0.655c17.021-12.238,22.272-30.037,13.909-50.17
	c-4.5-10.832-15.168-18.832-31.725-19.115c-27.814-0.476-34.783,21.091-34.783,21.091S414.056,240.23,443.608,255.325z
	 M461.761,239.69c-9.042-0.032-16.521-7.478-16.615-16.544c-0.099-9.376,7.332-16.812,16.763-16.776
	c9.291,0.036,16.486,7.179,16.545,16.423C478.514,232.211,471.092,239.724,461.761,239.69z"/>
</svg>
