<svg id="Filled" height="512" viewBox="0 0 512 512" width="512" xmlns="http://www.w3.org/2000/svg"><path d="m460.46 146.74a32.015 32.015 0 0 0 -31.57-26.74h-321.11a32 32 0 0 0 -28.62 17.69l-39.16 78.31v96h432v-96z" fill="#67c5e0"/><path d="m200 152h112v160h-112z" fill="#6ed2f0"/><path d="m168 152h-54.112a16 16 0 0 0 -14.31 8.845l-27.578 55.155h96z" fill="#e9eef2"/><path d="m120 184v32h-48l16-32z" fill="#2978b8"/><path d="m72 216h48v-32h-32" fill="#3397e8"/><path d="m40 216h32v112h-32z" fill="#67c5e0"/><path d="m56 264h-16v-48h32v32a16 16 0 0 1 -16 16z" fill="#ffe76c"/><path d="m200 152h112v64h-112z" fill="#e9eef2"/><path d="m440 264h32v-48h-48v32a16 16 0 0 0 16 16z" fill="#d13330"/><path d="m24 312h464v32h-464z" fill="#dadcde"/><circle cx="384" cy="344" fill="#606669" r="48"/><circle cx="384" cy="344" fill="#e9eef2" r="16"/><circle cx="136" cy="344" fill="#606669" r="48"/><circle cx="136" cy="344" fill="#e9eef2" r="16"/><path d="m433.752 166.015a16 16 0 0 0 -15.877-14.015h-105.875v64h128z" fill="#e9eef2"/><path d="m168 216h-96v96h28.23a47.982 47.982 0 0 1 67.77-3.77v3.77h32v-96z" fill="#6ed2f0"/><path d="m136 320a24 24 0 1 0 24 24 24.027 24.027 0 0 0 -24-24zm0 32a8 8 0 1 1 8-8 8.009 8.009 0 0 1 -8 8z"/><path d="m384 320a24 24 0 1 0 24 24 24.027 24.027 0 0 0 -24-24zm0 32a8 8 0 1 1 8-8 8.009 8.009 0 0 1 -8 8z"/><path d="m232 240a8 8 0 0 0 -8 8v16a8 8 0 0 0 16 0v-16a8 8 0 0 0 -8-8z"/><path d="m488 304h-8v-88a8.054 8.054 0 0 0 -.108-1.315l-11.544-69.261a39.875 39.875 0 0 0 -39.456-33.424h-321.115a39.784 39.784 0 0 0 -35.777 22.111l-39.155 78.311a7.994 7.994 0 0 0 -.845 3.578v88h-8a8 8 0 0 0 -8 8v32a8 8 0 0 0 8 8h56.581a55.992 55.992 0 0 0 110.838 0h137.162a55.992 55.992 0 0 0 110.838 0h48.581a8 8 0 0 0 8-8v-32a8 8 0 0 0 -8-8zm-440-80h16v32h-16zm0 48h16v32h-16zm32.581 64h-48.581v-16h53.414a55.52 55.52 0 0 0 -4.833 16zm55.419 48a40 40 0 1 1 40-40 40.045 40.045 0 0 1 -40 40zm39.138-80a55.868 55.868 0 0 0 -78.276 0h-16.862v-80h88a8 8 0 0 0 8-8v-64a8 8 0 0 0 -8-8h-54.111a23.869 23.869 0 0 0 -21.467 13.267l-25.366 50.733h-14.112l33.367-66.733a24 24 0 0 1 21.466-13.267h321.115a23.923 23.923 0 0 1 23.673 20.055l9.991 59.945h-15.494l-5.374-42.971a24.035 24.035 0 0 0 -23.808-21.029h-217.88a8 8 0 0 0 -8 8v152zm-55.138-128h-19.056l5.789-11.578a7.956 7.956 0 0 1 7.156-4.422h46.111v48h-32v-24a8 8 0 0 0 -8-8zm-8 16v16h-27.056l8-16zm352 32v32h-24a8.009 8.009 0 0 1 -8-8v-24zm-33.063-16h-46.937v-48h33.88a8.01 8.01 0 0 1 7.931 7.013zm-62.937-48v48h-48v-48zm-160 48v-48h96v48zm96 16v80h-96v-80zm24.581 112h-137.162a55.52 55.52 0 0 0 -4.833-16h146.828a55.52 55.52 0 0 0 -4.833 16zm55.419 48a40 40 0 1 1 40-40 40.045 40.045 0 0 1 -40 40zm39.138-80a55.868 55.868 0 0 0 -78.276 0h-24.862v-80h96v24a24.027 24.027 0 0 0 24 24h24v32zm56.862 32h-40.581a55.52 55.52 0 0 0 -4.833-16h45.414z"/><path d="m168 256h-32a8 8 0 0 1 0-16h32a8 8 0 0 1 0 16z"/></svg>