<svg id="Layer_1" enable-background="new 0 0 512 512" height="512" viewBox="0 0 512 512" width="512" xmlns="http://www.w3.org/2000/svg"><g><g><path clip-rule="evenodd" d="m410.133 231.652 58.2-25.803c-14.051-21.285-36.195-34.422-69.036-34.422l-177.371-7.843-146.913 7.843c-21.728 1.164-40.352 14.329-49.609 34.422l36.749 24.999-43.013 26.607v39.577l227.728 17.599 201.815-17.599c1.441-7.622 8.176-13.442 16.213-13.442h21.867c.665 0 1.303.055 1.94.111-.305-9.035-1.053-17.821-2.3-26.246z" fill="#ffd772" fill-rule="evenodd"/></g><g><path clip-rule="evenodd" d="m448.683 297.032h-429.543v67.846l16.823 43.208h186.85 62.413 193.362l10.282-43.208v-48.418c-4.601.61-33.868-16.185-40.187-19.428z" fill="#ccf49e" fill-rule="evenodd"/></g><g><path clip-rule="evenodd" d="m486.763 283.59h-21.867c-8.037 0-14.772 5.82-16.213 13.442-.194.998-.305 2.023-.305 3.076 0 9.063 7.427 16.49 16.518 16.49h21.867c.721 0 1.413-.055 2.106-.139 8.093-1.053 14.384-8.01 14.384-16.352 0-8.425-6.374-15.41-14.55-16.407-.638-.054-1.275-.11-1.94-.11z" fill="#90d8f9" fill-rule="evenodd"/></g><g><path clip-rule="evenodd" d="m468.333 205.85h-47.89c-5.654 0-10.31 4.628-10.31 10.282v31.041c0 5.654 4.628 10.282 10.31 10.282h65.96c-2.966-19.789-8.73-37.499-18.07-51.605z" fill="#90d8f9" fill-rule="evenodd"/></g><g><path clip-rule="evenodd" d="m361.772 205.85h-87.993c-5.654 0-10.282 4.628-10.282 10.282v31.041c0 5.654 4.628 10.282 10.282 10.282h87.993c5.654 0 10.282-4.628 10.282-10.282v-31.041c-.001-5.654-4.629-10.282-10.282-10.282z" fill="#90d8f9" fill-rule="evenodd"/></g><g><path clip-rule="evenodd" d="m215.108 205.85h-87.993c-5.654 0-10.282 4.628-10.282 10.282v31.041c0 5.654 4.628 10.282 10.282 10.282h87.993c5.654 0 10.282-4.628 10.282-10.282v-31.041c0-5.654-4.629-10.282-10.282-10.282z" fill="#90d8f9" fill-rule="evenodd"/></g><g><path clip-rule="evenodd" d="m78.504 216.132c0-5.654-4.628-10.282-10.282-10.282h-42.819c-3.991 8.703-6.263 18.458-6.263 28.602v23.003h49.082c5.654 0 10.282-4.628 10.282-10.282z" fill="#90d8f9" fill-rule="evenodd"/></g><g><path clip-rule="evenodd" d="m416.951 132.765h-359.593c-21.673 0-33.895 11.723-38.772 24.86-1.691 4.573-2.494 9.312-2.494 13.802h2.494 56.426 324.285 58.893c-.001-17.349-12.029-38.662-41.239-38.662z" fill="#365e7d" fill-rule="evenodd"/></g><g><path clip-rule="evenodd" d="m416.951 118.381c0-52.52-363.805-87.136-363.805-28.768v43.152h4.213 359.593v-14.384z" fill="#95d6a4" fill-rule="evenodd"/></g><g><path clip-rule="evenodd" d="m458.189 171.427c0-17.35-12.028-38.662-41.239-38.662h-48.86c29.211 0 41.239 21.313 41.239 38.662z" fill="#2b4d66" fill-rule="evenodd"/></g><g><path clip-rule="evenodd" d="m416.951 118.381c0-17.322-39.631-32.704-92.732-43.457 21.285 7.871 39.576 21.59 48.639 32.149 10.947 12.777-15.936 7.788-31.899 7.788h-287.814v17.904h314.945 23.363 25.497v-14.384z" fill="#78c2a4" fill-rule="evenodd"/></g><g><path clip-rule="evenodd" d="m468.333 205.85c-14.051-21.285-36.195-34.422-69.036-34.422h-26.911c32.814 0 59.364 13.137 73.415 34.422z" fill="#fdb440" fill-rule="evenodd"/></g><g><path clip-rule="evenodd" d="m486.403 257.455c-2.965-19.788-8.73-37.498-18.07-51.605h-22.532c9.34 14.107 19.261 31.817 22.227 51.605z" fill="#75cef8" fill-rule="evenodd"/></g><g><path clip-rule="evenodd" d="m486.403 257.455h-18.375c.249 1.718-.139 26.135 0 26.135h18.735c.665 0 1.303.055 1.94.111-.305-9.035-1.053-17.821-2.3-26.246z" fill="#fdb440" fill-rule="evenodd"/></g><g><path clip-rule="evenodd" d="m488.869 364.878v-48.418c-.693.083-1.386.139-2.106.139h-18.735v7.954l.111 41.656c.028 1.441 2.661-1.33 4.213-1.33h16.517z" fill="#b3e59e" fill-rule="evenodd"/></g><g><path clip-rule="evenodd" d="m78.504 216.132c0-5.654-4.628-10.282-10.282-10.282h-42.819c-2.134 4.628-3.769 9.562-4.822 14.717h31.289c5.654 0 10.282 4.628 10.282 10.282v26.606h6.069c5.654 0 10.282-4.628 10.282-10.282v-31.041z" fill="#75cef8" fill-rule="evenodd"/></g><g><path clip-rule="evenodd" d="m215.108 205.85h-87.993c-5.654 0-10.282 4.628-10.282 10.282v4.434h81.923c5.654 0 10.282 4.628 10.282 10.282v26.606h6.069c5.654 0 10.282-4.628 10.282-10.282v-31.041c.001-5.653-4.628-10.281-10.281-10.281z" fill="#75cef8" fill-rule="evenodd"/></g><g><path clip-rule="evenodd" d="m361.772 205.85h-87.993c-5.654 0-10.282 4.628-10.282 10.282v4.434h81.923c5.654 0 10.282 4.628 10.282 10.282v26.606h6.069c5.654 0 10.282-4.628 10.282-10.282v-31.041c0-5.653-4.628-10.281-10.281-10.281z" fill="#75cef8" fill-rule="evenodd"/></g><g><path clip-rule="evenodd" d="m445.801 205.85h-25.359c-5.654 0-10.31 4.628-10.31 10.282v14.717c0-5.654 4.656-10.282 10.337-10.282h24.943c9.257 0 10.254 1.58 14.217 9.7 4.628 9.423 6.735 16.213 8.397 27.188h18.375c-2.965-19.788-8.73-37.498-18.07-51.605z" fill="#75cef8" fill-rule="evenodd"/></g><g><path clip-rule="evenodd" d="m39.649 364.878h-20.509-.554-3.769c-4.046 0-7.317 3.298-7.317 7.317v28.574c0 4.019 3.27 7.317 7.317 7.317h3.769 15.853 5.21c4.046 0 7.317-3.298 7.317-7.317v-17.211-11.363c-.001-4.019-3.271-7.317-7.317-7.317z" fill="#ffd772" fill-rule="evenodd"/></g><g><path clip-rule="evenodd" d="m430.697 407.587c0-24.694-20.01-44.732-44.703-44.732s-44.731 20.038-44.731 44.732l.028.499c.249 24.472 20.176 44.205 44.703 44.205s44.426-19.733 44.703-44.205z" fill="#365e7d" fill-rule="evenodd"/></g><g><path clip-rule="evenodd" d="m504.5 372.195c0-4.019-3.27-7.317-7.317-7.317h-8.314-16.518c-4.046 0-7.317 3.298-7.317 7.317v16.186 12.389c0 4.019 3.27 7.317 7.317 7.317h24.832c4.046 0 7.317-3.298 7.317-7.317z" fill="#ffd772" fill-rule="evenodd"/></g><g><path clip-rule="evenodd" d="m504.5 372.195c0-4.019-3.27-7.317-7.317-7.317h-8.314-5.959c4.019 0 7.317 3.298 7.317 7.317v28.574c0 4.019-3.298 7.317-7.317 7.317h14.273c4.046 0 7.317-3.298 7.317-7.317z" fill="#fdb440" fill-rule="evenodd"/></g><g><path clip-rule="evenodd" d="m383.195 334.281h-37.415l-60.556 73.805h56.066c-.028-.166-.028-.333-.028-.499 0-24.694 20.037-44.732 44.731-44.732 24.693 0 44.703 20.038 44.703 44.732v.499h41.655c-4.046 0-7.317-3.298-7.317-7.317v-12.389l-44.398-54.1h-37.441z" fill="#95d6a4" fill-rule="evenodd"/></g><g><path clip-rule="evenodd" d="m222.812 408.086-60.556-73.805h-37.414-37.442l-40.435 49.277v17.211c0 4.019-3.27 7.317-7.317 7.317h5.21 35.53c0-24.694 20.01-44.704 44.703-44.704s44.731 20.01 44.731 44.704z" fill="#95d6a4" fill-rule="evenodd"/></g><g><path clip-rule="evenodd" d="m169.822 408.086c0-24.694-20.037-44.704-44.731-44.704s-44.703 20.01-44.703 44.704 20.01 44.704 44.703 44.704 44.731-20.01 44.731-44.704z" fill="#365e7d" fill-rule="evenodd"/></g><g><path clip-rule="evenodd" d="m140.916 408.086c0-8.73-7.067-15.825-15.825-15.825-8.73 0-15.825 7.095-15.825 15.825s7.095 15.825 15.825 15.825c8.758 0 15.825-7.095 15.825-15.825z" fill="#ffd772" fill-rule="evenodd"/></g><g><path clip-rule="evenodd" d="m401.819 407.587c0-8.758-7.095-15.825-15.825-15.825-8.758 0-15.825 7.067-15.825 15.825 0 8.73 7.067 15.825 15.825 15.825 8.73 0 15.825-7.095 15.825-15.825z" fill="#ffd772" fill-rule="evenodd"/></g><g><path clip-rule="evenodd" d="m470.827 303.933h-9.395-12.471c-.055 0-.083 0-.111 0 1.746 7.261 8.287 12.666 16.047 12.666h3.132 18.735c.721 0 1.413-.055 2.106-.139 8.093-1.053 14.384-8.01 14.384-16.352 0-8.425-6.374-15.41-14.55-16.407-.61-.055-1.219-.111-1.829-.111.277 1.247.443 2.522.443 3.852 0 8.37-6.291 15.326-14.384 16.38-.693.083-1.386.111-2.107.111z" fill="#75cef8" fill-rule="evenodd"/></g><g><path clip-rule="evenodd" d="m169.822 408.086c0-24.694-20.037-44.704-44.731-44.704-5.127 0-10.06.859-14.661 2.467 16.047 5.571 27.964 20.038 29.793 37.526.443 1.497.693 3.076.693 4.712 0 1.635-.249 3.215-.693 4.712-1.829 17.46-13.746 31.955-29.793 37.526 4.601 1.607 9.534 2.467 14.661 2.467 24.694-.002 44.731-20.012 44.731-44.706z" fill="#2b4d66" fill-rule="evenodd"/></g><g><path clip-rule="evenodd" d="m430.697 407.587c0-24.694-20.01-44.732-44.703-44.732-2.993 0-5.903.305-8.73.859 13.358 7.344 22.559 21.285 23.197 37.415.859 1.968 1.358 4.157 1.358 6.458v.499c-.139 3.825-1.607 7.289-3.963 9.95-5.238 14.606-17.876 25.692-33.368 28.74 6.374 3.52 13.691 5.515 21.506 5.515 24.527 0 44.426-19.733 44.703-44.205 0-.166 0-.333 0-.499z" fill="#2b4d66" fill-rule="evenodd"/></g><g><path d="m125.092 384.761c-12.861 0-23.325 10.464-23.325 23.325s10.464 23.325 23.325 23.325 23.324-10.464 23.324-23.325-10.463-23.325-23.324-23.325zm0 31.65c-4.591 0-8.325-3.735-8.325-8.325s3.734-8.325 8.325-8.325c4.59 0 8.324 3.735 8.324 8.325s-3.734 8.325-8.324 8.325z"/><path d="m361.771 198.35h-87.993c-9.805 0-17.781 7.977-17.781 17.782v31.041c0 9.805 7.977 17.782 17.781 17.782h28.269c4.143 0 7.5-3.358 7.5-7.5s-3.357-7.5-7.5-7.5h-28.269c-1.508 0-2.781-1.274-2.781-2.782v-31.041c0-1.508 1.273-2.782 2.781-2.782h87.993c1.508 0 2.782 1.274 2.782 2.782v31.041c0 1.508-1.274 2.782-2.806 2.782l-26.634.083c-4.142.013-7.489 3.381-7.477 7.523.013 4.134 3.368 7.477 7.499 7.477h.024l26.61-.083c9.805 0 17.782-7.977 17.782-17.782v-31.041c.003-9.805-7.975-17.782-17.78-17.782z"/><path d="m215.107 198.35h-87.992c-9.805 0-17.782 7.977-17.782 17.782v31.041c0 9.805 7.978 17.782 17.782 17.782h87.992c9.805 0 17.782-7.977 17.782-17.782v-31.041c.001-9.805-7.977-17.782-17.782-17.782zm2.783 48.823c0 1.508-1.274 2.782-2.782 2.782h-87.992c-1.508 0-2.782-1.274-2.782-2.782v-31.041c0-1.508 1.274-2.782 2.782-2.782h87.992c1.508 0 2.782 1.274 2.782 2.782z"/><path d="m497.184 357.378h-.814v-35.294c8.459-3.712 14.384-12.163 14.384-21.976 0-9.99-6.125-18.572-14.812-22.188-.402-7.336-1.087-14.353-2.067-21.03-.03-.4-.091-.79-.181-1.17-3.269-21.387-9.545-39.285-18.764-53.445-.192-.353-.417-.684-.661-1-.325-.486-.637-.99-.97-1.467-5.885-8.444-12.82-15.404-20.764-20.881h5.655c4.143 0 7.5-3.358 7.5-7.5 0-21.072-14.137-42.368-41.239-45.698v-7.348c0-11.235-9.374-21.059-28.656-30.032-15.275-7.108-36.511-13.608-63.115-19.319-49.768-10.684-113.989-17.321-167.604-17.321-33.357 0-61.422 2.54-81.159 7.343-25.394 6.18-38.27 16.462-38.27 30.56v36.788c-24.372 4.911-37.054 25.072-37.054 45.026 0 4.142 3.357 7.5 7.5 7.5h20.121c-2.259 1.981-4.427 4.132-6.471 6.476-11.675 13.389-18.103 30.808-18.103 49.05v20.182c-.354.872-.554 1.823-.554 2.822s.199 1.95.554 2.822v97.453c-6.647 1.458-11.64 7.386-11.64 14.464v28.574c0 8.17 6.646 14.817 14.816 14.817h24.832 33.787c3.649 25.244 25.418 44.705 51.656 44.705 26.251 0 48.033-19.461 51.684-44.705h157.601c3.863 25.002 25.538 44.206 51.618 44.206 26.066 0 47.729-19.203 51.59-44.206h34.767 24.832c8.17 0 14.816-6.647 14.816-14.817v-28.574c.001-8.17-6.645-14.817-14.815-14.817zm-1.431-57.27c0 4.957-4.033 8.99-8.99 8.99h-21.866c-4.973 0-9.018-4.033-9.018-8.99 0-.511.053-1.009.135-1.497.027-.126.045-.256.066-.384.868-4.072 4.49-7.137 8.817-7.137h21.866c4.957 0 8.99 4.046 8.99 9.018zm-31.595-86.758c5.997 10.09 10.452 22.317 13.318 36.605h-57.034c-1.522 0-2.81-1.274-2.81-2.782v-31.041c0-1.508 1.287-2.782 2.81-2.782zm-439.589-49.423c2.697-10.713 11.502-23.662 32.789-23.662h158.636c4.143 0 7.5-3.358 7.5-7.5s-3.357-7.5-7.5-7.5h-155.348v-35.652c0-5.923 10.025-11.899 26.816-15.986 18.594-4.525 45.432-6.917 77.612-6.917 52.633 0 115.649 6.509 164.456 16.986 63.088 13.543 79.92 28.175 79.92 34.685v6.884h-159.589c-4.143 0-7.5 3.358-7.5 7.5s3.357 7.5 7.5 7.5h167.089c21.271 0 30.067 12.949 32.763 23.662h-50.416-324.285zm2.071 70.525c0-7.423 1.352-14.559 3.776-21.102h37.806c1.508 0 2.782 1.274 2.782 2.782v31.041c0 1.508-1.274 2.782-2.782 2.782h-41.582zm0 30.503h41.582c9.805 0 17.782-7.977 17.782-17.782v-31.041c0-9.805-7.978-17.782-17.782-17.782h-29.605c8.948-11.81 22.058-19.422 36.395-19.422h324.285c22.16 0 40.002 6.524 53.222 19.422h-32.077c-9.82 0-17.81 7.977-17.81 17.782v31.041c0 9.805 7.989 17.782 17.81 17.782h59.368c.417 3.604.743 7.323.995 11.135h-15.909c-9.449 0-17.638 5.487-21.557 13.441h-416.699zm12.825 118.61v.018 17.003h-24.465v-28.208h24.465zm85.627 61.726c-20.514 0-37.203-16.69-37.203-37.205s16.689-37.204 37.203-37.204c20.529 0 37.23 16.689 37.23 37.204s-16.701 37.205-37.23 37.205zm51.683-44.705c-3.651-25.244-25.432-44.704-51.684-44.704-26.238 0-48.008 19.46-51.656 44.704h-18.97v-14.344l36.483-44.461h67.761l48.249 58.805zm209.219 44.206c-20.293 0-36.835-16.31-37.214-36.499.002-.069.01-.137.01-.207 0-.182-.014-.361-.027-.54.023-20.511 16.715-37.191 37.23-37.191 20.514 0 37.203 16.703 37.203 37.232.001 20.515-16.688 37.205-37.202 37.205zm71.541-44.206h-19.82c-3.431-25.501-25.309-45.231-51.721-45.231-26.426 0-48.315 19.73-51.749 45.231h-33.166l48.249-58.805h67.762l40.445 49.284zm.581-32.458-31.682-38.605c-1.425-1.736-3.553-2.742-5.798-2.742h-74.856c-2.246 0-4.374 1.006-5.798 2.743l-58.305 71.063h-55.317l-58.305-71.063c-1.424-1.736-3.552-2.743-5.798-2.743h-74.857c-2.246 0-4.373 1.006-5.798 2.742l-29.055 35.408c-2.545-4.502-7.369-7.553-12.899-7.553h-13.008v-52.847h414.655c2.085 11.121 11.871 19.567 23.601 19.567h16.473v33.28h-9.018c-6.757 0-12.461 4.554-14.235 10.75zm38.884 32.458h-24.465v-12.18c0-.006 0-.012 0-.018v-16.009h24.465z"/><path d="m385.994 384.262c-12.861 0-23.325 10.464-23.325 23.326 0 12.861 10.464 23.325 23.325 23.325s23.324-10.464 23.324-23.325c0-12.862-10.463-23.326-23.324-23.326zm0 31.651c-4.591 0-8.325-3.735-8.325-8.325 0-4.591 3.734-8.326 8.325-8.326 4.59 0 8.324 3.735 8.324 8.326 0 4.59-3.734 8.325-8.324 8.325z"/></g></g></svg>