<svg height="512" viewBox="0 0 512 512" width="512" xmlns="http://www.w3.org/2000/svg"><g id="Filled_outline" data-name="Filled outline"><path d="m24 136v224a8 8 0 0 0 8 8h448a8 8 0 0 0 8-8v-79.368a24 24 0 0 0 -15.573-22.472l-48.427-18.16-47.611-108.826a32 32 0 0 0 -29.317-19.174h-299.072a24 24 0 0 0 -24 24z" fill="#ffb431"/><path d="m32 328h448a8 8 0 0 1 8 8v32a0 0 0 0 1 0 0h-464a0 0 0 0 1 0 0v-32a8 8 0 0 1 8-8z" fill="#415e89" transform="matrix(-1 0 0 -1 512 696)"/><path d="m312 152v80a8 8 0 0 0 8 8h104l-42-96h-62a8 8 0 0 0 -8 8z" fill="#4db6e4"/><path d="m448 296h32a8 8 0 0 1 8 8v16a8 8 0 0 1 -8 8h-32a0 0 0 0 1 0 0v-32a0 0 0 0 1 0 0z" fill="#dfdfdd" transform="matrix(-1 0 0 -1 936 624)"/><path d="m48 136h240v16h-240z" fill="#f9a40f"/><path d="m48 232h240v16h-240z" fill="#f9a40f"/><path d="m352 144h16v96h-16z" fill="#3ba5d3"/><circle cx="376" cy="352" fill="#34507b" r="48"/><circle cx="120" cy="352" fill="#34507b" r="48"/><circle cx="376" cy="352" fill="#dfdfdd" r="16"/><circle cx="120" cy="352" fill="#dfdfdd" r="16"/><path d="m312 264h32v16h-32z" fill="#ffc261"/><path d="m256 264h32v16h-32z" fill="#ffc261"/><path d="m32 296h24a0 0 0 0 1 0 0v32a0 0 0 0 1 0 0h-24a8 8 0 0 1 -8-8v-16a8 8 0 0 1 8-8z" fill="#d65246" transform="matrix(-1 0 0 -1 80 624)"/><path d="m475.239 250.669-45.265-16.969-19.645-44.9-14.658 6.414 16.097 36.786h-43.768v-80h8.77l11.9 27.207 14.658-6.414-19.611-44.834a40.019 40.019 0 0 0 -36.647-23.959h-299.07a32.036 32.036 0 0 0 -32 32v16h16v-16a16.019 16.019 0 0 1 16-16h299.07a24.013 24.013 0 0 1 21.99 14.375l.711 1.625h-49.771a16.019 16.019 0 0 0 -16 16v80a16.019 16.019 0 0 0 16 16h102.55l47.071 17.651a16.071 16.071 0 0 1 10.379 14.979v7.37h-24a16.019 16.019 0 0 0 -16 16v16h-18.083a55.924 55.924 0 0 0 -91.834 0h-164.166a55.924 55.924 0 0 0 -91.834 0h-10.083v-24a8 8 0 0 0 -8-8h-24v-120h-16v192a16.019 16.019 0 0 0 16 16h37.414a55.99 55.99 0 0 0 104.245-40h148.682a55.689 55.689 0 0 0 -1.76 24h-128.581v16h133.414a55.99 55.99 0 0 0 104.245-40h50.341v24h-32v16h32a16.019 16.019 0 0 0 16-16v-79.37a32.146 32.146 0 0 0 -20.761-29.961zm-155.239-98.669h32v80h-32zm-272 152v16h-16v-16zm-16 56v-24h34.341a55.689 55.689 0 0 0 -1.76 24zm88 32a40 40 0 1 1 40-40 40.045 40.045 0 0 1 -40 40zm256 0a40 40 0 1 1 40-40 40.045 40.045 0 0 1 -40 40zm80-72v-16h24v16z"/><path d="m48 136h240v16h-240z"/><path d="m48 232h240v16h-240z"/><path d="m376 328a24 24 0 1 0 24 24 24.027 24.027 0 0 0 -24-24zm0 32a8 8 0 1 1 8-8 8.009 8.009 0 0 1 -8 8z"/><path d="m120 328a24 24 0 1 0 24 24 24.027 24.027 0 0 0 -24-24zm0 32a8 8 0 1 1 8-8 8.009 8.009 0 0 1 -8 8z"/><path d="m312 264h32v16h-32z"/><path d="m256 264h32v16h-32z"/></g></svg>