<svg id="Capa_1" enable-background="new 0 0 512 512" height="512" viewBox="0 0 512 512" width="512" xmlns="http://www.w3.org/2000/svg"><g><g><path d="m382.964 101.591h-326.606c-15.305 0-27.712 12.404-27.712 27.705v223.373h407.994 28.544 28.136v-102.727c0-9.984-8.096-18.078-18.083-18.078l-49.101-103.029c-7.932-16.643-24.73-27.244-43.172-27.244z" fill="#15a977"/></g><g><path d="m463.32 273.474h30v79.195h-30z" fill="#13a071"/></g><g><path d="m478.283 286.908h15.037v-36.966c0-9.984-8.096-18.078-18.083-18.078l-8.973-18.829h-11.178v50.675c-.001 12.812 10.385 23.198 23.197 23.198z" fill="#fdfcfc"/></g><g><path d="m433.667 144.637-7.531-15.801c-7.932-16.644-24.731-27.245-43.172-27.245h-326.606c-15.305 0-27.712 12.404-27.712 27.705v15.342h405.021z" fill="#fdfcfc"/></g><g><path d="m426.136 128.836c-7.932-16.644-24.731-27.245-43.172-27.245h-30c18.442 0 35.24 10.601 43.172 27.245l7.531 15.801h30z" fill="#eef0f0"/></g><g><path d="m488.612 374.499h-465.224c-8.774 0-15.888-7.113-15.888-15.888v-2.178c0-8.775 7.113-15.888 15.888-15.888h465.225c8.775 0 15.888 7.113 15.888 15.888v2.178c-.001 8.774-7.114 15.888-15.889 15.888z" fill="#a29aa5"/></g><g><path d="m488.612 340.545h-30c8.774 0 15.888 7.113 15.888 15.888v2.178c0 8.775-7.113 15.888-15.888 15.888h30c8.774 0 15.888-7.113 15.888-15.888v-2.178c0-8.774-7.113-15.888-15.888-15.888z" fill="#8c818f"/></g><g><ellipse cx="359.031" cy="354.806" fill="#c8c3ca" rx="54.286" ry="54.272"/></g><g><path d="m359.031 300.534c-5.206 0-10.234.748-15 2.115 22.683 6.509 39.286 27.388 39.286 52.157s-16.604 45.648-39.286 52.157c4.766 1.368 9.794 2.116 15 2.116 29.982 0 54.286-24.299 54.286-54.272.001-29.975-24.304-54.273-54.286-54.273z" fill="#b1abb4"/></g><g><ellipse cx="359.031" cy="354.806" fill="#c8c3ca" rx="19.788" ry="19.793" transform="matrix(.002 -1 1 .002 3.375 712.995)"/></g><ellipse cx="359.031" cy="354.806" fill="#655e67" rx="19.788" ry="19.793" transform="matrix(.002 -1 1 .002 3.375 712.995)"/><g><ellipse cx="128.945" cy="354.806" fill="#c8c3ca" rx="54.286" ry="54.272"/></g><g><path d="m128.945 300.534c-5.206 0-10.234.748-15 2.115 22.683 6.509 39.286 27.388 39.286 52.157s-16.604 45.648-39.286 52.157c4.766 1.368 9.794 2.116 15 2.116 29.982 0 54.286-24.299 54.286-54.272 0-29.975-24.305-54.273-54.286-54.273z" fill="#b1abb4"/></g><g><ellipse cx="128.945" cy="354.806" fill="#c8c3ca" rx="19.788" ry="19.793" transform="matrix(.002 -1 1 .002 -226.166 482.909)"/></g><ellipse cx="128.945" cy="354.806" fill="#655e67" rx="19.788" ry="19.793" transform="matrix(.002 -1 1 .002 -226.166 482.909)"/><g><path d="m433.667 144.637h-118.59v70.442c0 9.27 7.515 16.785 16.785 16.785h143.375z" fill="#fff"/></g><g><path d="m433.667 144.637h-30l41.57 87.228h30z" fill="#eef0f0"/></g><g><path d="m270.745 226.954h-76.436c-4.375 0-7.922-3.547-7.922-7.922v-34.473c0-4.375 3.547-7.922 7.922-7.922h76.436c4.375 0 7.922 3.547 7.922 7.922v34.473c0 4.376-3.547 7.922-7.922 7.922z" fill="#fff"/></g><g><path d="m144.893 226.954h-76.437c-4.375 0-7.922-3.547-7.922-7.922v-34.473c0-4.375 3.547-7.922 7.922-7.922h76.436c4.375 0 7.922 3.547 7.922 7.922v34.473c0 4.376-3.546 7.922-7.921 7.922z" fill="#fff"/></g><g><path d="m270.745 175.69h-76.436c-1.36 0-2.639.344-3.758.947h50.194c4.375 0 7.922 3.547 7.922 7.922v34.473c0 3.015-1.685 5.636-4.164 6.975h26.242c4.375 0 7.922-3.547 7.922-7.922v-34.473c0-4.375-3.547-7.922-7.922-7.922z" fill="#eef0f0"/></g><g><path d="m144.893 176.637h-30c4.375 0 7.922 3.547 7.922 7.922v34.473c0 4.375-3.547 7.922-7.922 7.922h30c4.375 0 7.922-3.547 7.922-7.922v-34.473c-.001-4.375-3.547-7.922-7.922-7.922z" fill="#eef0f0"/></g><g><path d="m44.047 312.667h-15.401v-29.759h15.401c7.93 0 14.358 6.428 14.358 14.358v1.043c0 7.93-6.429 14.358-14.358 14.358z" fill="#e05c7e"/></g><g><path d="m359.031 327.518c-15.05 0-27.293 12.241-27.293 27.288s12.243 27.288 27.293 27.288 27.293-12.241 27.293-27.288-12.243-27.288-27.293-27.288zm0 39.576c-6.778 0-12.293-5.512-12.293-12.288s5.515-12.288 12.293-12.288 12.293 5.512 12.293 12.288-5.514 12.288-12.293 12.288z"/><path d="m128.944 382.094c15.05 0 27.294-12.241 27.294-27.288s-12.244-27.288-27.294-27.288-27.293 12.241-27.293 27.288 12.244 27.288 27.293 27.288zm0-39.576c6.779 0 12.294 5.512 12.294 12.288s-5.515 12.288-12.294 12.288c-6.778 0-12.293-5.512-12.293-12.288s5.515-12.288 12.293-12.288z"/><path d="m414.492 381.999h74.121c12.896 0 23.388-10.492 23.388-23.388v-2.178c0-8.425-4.479-15.823-11.181-19.94v-86.551c0-12.406-8.879-22.778-20.618-25.094l-47.295-99.239c-9.124-19.147-28.728-31.519-49.942-31.519h-282.51c-4.143 0-7.5 3.358-7.5 7.5s3.357 7.5 7.5 7.5h282.51c15.463 0 29.751 9.017 36.401 22.972l2.419 5.075h-385.639v-7.842c0-11.141 9.067-20.205 20.213-20.205h14.096c4.143 0 7.5-3.358 7.5-7.5s-3.357-7.5-7.5-7.5h-14.097c-19.416 0-35.213 15.793-35.213 35.205v203.86c-11.848 1.133-21.145 11.138-21.145 23.278v2.178c0 12.896 10.491 23.388 23.388 23.388h50.096c4.009 8.139 9.758 15.269 16.76 20.911h-82.305c-4.143 0-7.5 3.358-7.5 7.5s3.357 7.5 7.5 7.5h496.121c4.143 0 7.5-3.358 7.5-7.5s-3.357-7.5-7.5-7.5h-106.328c7.001-5.642 12.751-12.772 16.76-20.911zm-55.461 19.579c-25.799 0-46.787-20.982-46.787-46.772s20.988-46.772 46.787-46.772c25.798 0 46.786 20.982 46.786 46.772s-20.988 46.772-46.786 46.772zm137.969-42.967c0 4.625-3.763 8.388-8.388 8.388h-69.009c.793-3.943 1.214-8.019 1.214-12.193 0-2.285-.134-4.539-.378-6.76h68.172c4.625 0 8.388 3.763 8.388 8.388v2.177zm-11.181-79.203h-7.536c-8.656 0-15.698-7.042-15.698-15.698v-24.346h12.652c5.835 0 10.582 4.745 10.582 10.578zm-22.464-55.043h-131.493c-5.12 0-9.285-4.165-9.285-9.285v-12.736-50.206h106.355zm-155.778-72.228v50.206 12.736 71.828c0 4.142 3.358 7.5 7.5 7.5 4.143 0 7.5-3.358 7.5-7.5v-49.393c2.862 1.189 5.998 1.849 9.285 1.849h115.723v24.346c0 16.927 13.771 30.698 30.698 30.698h7.536v38.637h-68.972c-8.823-23.354-31.406-40.012-57.816-40.012-26.411 0-48.994 16.658-57.817 40.012h-32.162c-4.143 0-7.5 3.358-7.5 7.5s3.357 7.5 7.5 7.5h28.57c-.243 2.221-.378 4.475-.378 6.76 0 4.173.421 8.249 1.214 12.193h-108.941c.793-3.943 1.214-8.019 1.214-12.193 0-2.285-.134-4.539-.377-6.76h48.698c4.143 0 7.5-3.358 7.5-7.5s-3.357-7.5-7.5-7.5h-52.29c-8.824-23.354-31.407-40.012-57.817-40.012-26.411 0-48.993 16.658-57.816 40.012h-34.983v-12.878h7.901c12.052 0 21.857-9.805 21.857-21.858v-1.043c0-12.053-9.806-21.858-21.857-21.858h-7.901v-10.847h196.382c4.143 0 7.5-3.358 7.5-7.5s-3.357-7.5-7.5-7.5h-196.382v-97.422h271.431zm-271.431 138.271h7.901c3.781 0 6.857 3.076 6.857 6.858v1.043c0 3.781-3.076 6.858-6.857 6.858h-7.901zm-12.758 76.591c-4.625 0-8.388-3.763-8.388-8.388v-2.178c0-4.625 3.763-8.388 8.388-8.388h44.148c-.243 2.221-.377 4.475-.377 6.76 0 4.173.421 8.249 1.214 12.193h-44.985zm58.77-12.193c0-25.79 20.988-46.772 46.786-46.772 25.799 0 46.787 20.982 46.787 46.772s-20.988 46.772-46.787 46.772c-25.798 0-46.786-20.982-46.786-46.772zm85.488 48.103c7.003-5.642 12.753-12.773 16.762-20.914.024 0 .046.004.07.004h119.092c4.009 8.139 9.759 15.269 16.76 20.911h-152.684z"/><path d="m194.309 234.454h76.436c8.504 0 15.422-6.918 15.422-15.422v-34.473c0-8.504-6.918-15.422-15.422-15.422h-76.436c-8.504 0-15.422 6.918-15.422 15.422v34.473c0 8.504 6.918 15.422 15.422 15.422zm-.422-49.895c0-.233.189-.422.422-.422h76.436c.232 0 .422.189.422.422v34.473c0 .233-.189.422-.422.422h-76.436c-.232 0-.422-.189-.422-.422z"/><path d="m68.456 234.454h76.436c8.504 0 15.422-6.918 15.422-15.422v-34.473c0-8.504-6.918-15.422-15.422-15.422h-76.436c-8.504 0-15.422 6.918-15.422 15.422v34.473c0 8.504 6.918 15.422 15.422 15.422zm-.422-49.895c0-.233.189-.422.422-.422h76.436c.232 0 .422.189.422.422v34.473c0 .233-.189.422-.422.422h-76.436c-.232 0-.422-.189-.422-.422z"/></g></g></svg>