<?xml version="1.0" encoding="iso-8859-1"?>
<!-- Generator: Adobe Illustrator 19.0.0, SVG Export Plug-In . SVG Version: 6.00 Build 0)  -->
<svg version="1.1" id="Capa_1" xmlns="http://www.w3.org/2000/svg" xmlns:xlink="http://www.w3.org/1999/xlink" x="0px" y="0px"
	 viewBox="0 0 512 512" style="enable-background:new 0 0 512 512;" xml:space="preserve">
<polygon style="fill:#A5DC69;" points="501.544,501.777 501.544,443.473 428.258,329.933 501.359,329.933 405.917,182.067 
	471.784,182.067 360.865,10.223 249.946,182.067 315.813,182.067 220.371,329.933 293.471,329.933 182.553,501.777 "/>
<polygon style="fill:#46C373;" points="314.128,236.445 235.768,100.721 158.356,234.802 "/>
<path style="fill:#AAE6FF;" d="M58.447,461.813H9.991v-131.8c0-51.912,42.083-93.995,93.995-93.995h235.626
	c51.912,0,93.995,42.083,93.995,93.995v131.8H385.15H58.447z"/>
<path style="fill:#F5B955;" d="M58.447,461.813H9.991v-131.8c0-51.912,42.083-93.995,93.995-93.995h235.626
	c51.912,0,93.995,42.083,93.995,93.995v131.8H385.15H58.447z"/>
<g>
	<path style="fill:#C8F5FF;" d="M129.882,355.909V236.018h-25.896c-51.912,0-93.995,42.083-93.995,93.995v25.896L129.882,355.909
		L129.882,355.909z"/>
	<path style="fill:#C8F5FF;" d="M433.606,330.014c0-51.912-42.083-93.995-93.995-93.995H169.846V355.91h263.76V330.014z"/>
</g>
<g>
	<path style="fill:#6E87F5;" d="M103.906,421.849L103.906,421.849c-22.071,0-39.964,17.893-39.964,39.964l0,0
		c0,22.071,17.893,39.964,39.964,39.964l0,0c22.071,0,39.964-17.893,39.964-39.964l0,0
		C143.869,439.742,125.977,421.849,103.906,421.849z"/>
	<path style="fill:#6E87F5;" d="M339.691,421.849L339.691,421.849c22.071,0,39.964,17.893,39.964,39.964l0,0
		c0,22.071-17.893,39.964-39.964,39.964l0,0c-22.071,0-39.964-17.893-39.964-39.964l0,0
		C299.728,439.742,317.621,421.849,339.691,421.849z"/>
</g>
<path style="fill:#F5C86E;" d="M212.018,182.839c0-21.262-17.235-38.497-38.497-38.497c-0.764,0-1.522,0.029-2.275,0.073
	c-8.611-19.658-28.228-33.398-51.065-33.398c-24.661,0-45.567,16.023-52.911,38.221c-5.557-3.113-11.961-4.896-18.784-4.896
	c-21.261-0.001-38.496,17.234-38.496,38.496H212.018z"/>
<path d="M417.421,107.834c2.628,0,5.205-1.069,7.064-2.927c1.857-1.858,2.927-4.436,2.927-7.064s-1.069-5.205-2.927-7.064
	c-1.858-1.858-4.436-2.927-7.064-2.927s-5.205,1.069-7.064,2.927c-1.857,1.858-2.927,4.436-2.927,7.064s1.069,5.205,2.927,7.064
	C412.216,106.765,414.793,107.834,417.421,107.834z"/>
<path d="M501.544,491.786H379.628c4.373-5.812,7.509-12.603,9.013-19.982h44.965c5.517,0,9.991-4.473,9.991-9.991v-89.694
	l50.018,77.491c1.91,2.961,5.123,4.574,8.403,4.574c1.855,0,3.733-0.517,5.408-1.598c4.637-2.992,5.969-9.177,2.976-13.812
	l-63.804-98.849h54.761c3.658,0,7.024-1.999,8.773-5.211c1.75-3.212,1.605-7.124-0.38-10.198l-85.496-132.457h47.527
	c3.658,0,7.024-1.999,8.773-5.211c1.75-3.212,1.605-7.124-0.38-10.198l-35.582-55.127c-2.992-4.637-9.177-5.97-13.811-2.976
	c-4.637,2.992-5.969,9.177-2.976,13.812l25.636,39.718h-47.527c-3.658,0-7.024,1.999-8.773,5.211
	c-1.75,3.212-1.605,7.124,0.38,10.198l85.496,132.457h-39.912c-5.082-52.63-49.557-93.915-103.496-93.915H319.65l-9.63-16.68
	l14.174-21.842c3.003-4.629,1.686-10.816-2.942-13.82c-4.631-3.004-10.816-1.686-13.819,2.942l-8.627,13.294l-19.848-34.379
	l81.909-126.898l27.466,42.551c2.991,4.636,9.175,5.968,13.811,2.976c4.637-2.992,5.969-9.177,2.976-13.812l-35.86-55.555
	c-1.839-2.851-5-4.573-8.393-4.573s-6.555,1.722-8.393,4.573l-84.743,131.291l-23.308-40.37c-1.784-3.091-5.083-4.995-8.652-4.995
	c-3.569,0-6.868,1.904-8.652,4.995l-26.932,46.645c-6.626-4.381-14.38-7.187-22.729-7.861
	c-11.561-20.535-33.386-33.484-57.273-33.484c-24.789,0-47.043,13.797-58.234,35.234c-4.359-1.259-8.896-1.908-13.461-1.908
	C21.751,134.351,0,156.103,0,182.839c0,5.518,4.474,9.991,9.991,9.991h161.062l-19.167,33.198h-47.9
	C46.648,226.027,0,272.676,0,330.014v10.03c0,0.003,0,0.007,0,0.01v121.759c0,5.518,4.474,9.991,9.991,9.991h44.965
	c1.504,7.379,4.641,14.17,9.013,19.982H26.756c-5.517,0-9.991,4.473-9.991,9.991c0,5.518,4.474,9.991,9.991,9.991h155.797
	c5.517,0,9.991-4.473,9.991-9.991c0-5.518-4.474-9.991-9.991-9.991h-38.711c4.373-5.812,7.509-12.603,9.013-19.982h137.887
	c1.504,7.379,4.641,14.17,9.013,19.982h-67.295c-5.517,0-9.991,4.473-9.991,9.991c0,5.518,4.474,9.991,9.991,9.991h269.086
	c5.517,0,9.991-4.473,9.991-9.991C511.535,496.259,507.061,491.786,501.544,491.786z M423.615,330.014v15.905h-66.893l24.964-24.964
	c3.901-3.901,3.901-10.228,0-14.13c-3.902-3.901-10.227-3.901-14.13,0l-37.372,37.372c-0.532,0.533-0.985,1.112-1.372,1.722h-5.106
	v-27.047l60.194-60.193C407.721,273.52,423.615,299.94,423.615,330.014z M241.136,345.918l16.17-16.17
	c3.901-3.901,3.901-10.228,0-14.129c-3.902-3.901-10.227-3.901-14.13,0l-30.298,30.299H179.91c0.244-0.202,0.482-0.414,0.71-0.642
	l58.902-58.902c3.901-3.902,3.901-10.228,0-14.13c-3.902-3.901-10.227-3.9-14.13,0l-45.556,45.56V246.01h123.887v68.718
	c0,0.003,0,0.007,0,0.01v31.182h-62.588V345.918z M364.534,249.783l-40.828,40.828v-44.602h15.906
	C348.286,246.009,356.656,247.332,364.534,249.783z M48.488,154.333c4.865,0,9.672,1.252,13.9,3.622
	c2.603,1.458,5.719,1.675,8.499,0.597c2.78-1.08,4.934-3.345,5.87-6.176c6.207-18.762,23.659-31.369,43.426-31.369
	c18.166,0,34.617,10.761,41.912,27.416c1.678,3.83,5.572,6.211,9.733,5.966c0.561-0.033,1.124-0.056,1.693-0.056
	c12.205,0,22.642,7.709,26.699,18.515H21.789C25.845,162.042,36.283,154.333,48.488,154.333z M194.125,192.83h17.894
	c5.517,0,9.991-4.473,9.991-9.991c0-9.393-2.692-18.166-7.334-25.603l21.093-36.534l60.809,105.324H174.959L194.125,192.83z
	 M103.986,246.009h15.906v27.374l-72.535,72.535H19.982v-1.73l39.036-39.036c3.901-3.901,3.901-10.228,0-14.13
	c-3.902-3.901-10.227-3.901-14.13,0l-23.439,23.44C28.766,275.549,62.981,246.009,103.986,246.009z M119.891,301.643v44.276H75.615
	L119.891,301.643z M19.982,365.9h109.9c5.517,0,9.991-4.473,9.991-9.991v-109.9h19.982v109.9c0,5.518,4.474,9.991,9.991,9.991
	h253.77v85.922h-34.974c-4.642-22.774-24.824-39.964-48.95-39.964s-44.308,17.189-48.95,39.964H152.855
	c-4.642-22.774-24.824-39.964-48.95-39.964s-44.308,17.189-48.95,39.964H19.982V365.9z M73.933,461.813
	c0-16.527,13.446-29.973,29.973-29.973s29.973,13.446,29.973,29.973s-13.446,29.973-29.973,29.973S73.933,478.34,73.933,461.813z
	 M309.719,461.813c0-16.527,13.446-29.973,29.973-29.973s29.973,13.446,29.973,29.973s-13.446,29.973-29.973,29.973
	S309.719,478.34,309.719,461.813z"/>
<path d="M169.846,407.862h70.936c5.517,0,9.991-4.473,9.991-9.991s-4.474-9.991-9.991-9.991h-70.936
	c-5.517,0-9.991,4.473-9.991,9.991S164.329,407.862,169.846,407.862z"/>
<path d="M277.748,407.862c2.628,0,5.205-1.069,7.063-2.927c1.858-1.858,2.928-4.436,2.928-7.064s-1.069-5.205-2.928-7.064
	c-1.857-1.858-4.435-2.927-7.063-2.927s-5.205,1.069-7.064,2.927c-1.858,1.858-2.927,4.436-2.927,7.064
	c0,2.638,1.068,5.205,2.927,7.064S275.12,407.862,277.748,407.862z"/>
<g>
</g>
<g>
</g>
<g>
</g>
<g>
</g>
<g>
</g>
<g>
</g>
<g>
</g>
<g>
</g>
<g>
</g>
<g>
</g>
<g>
</g>
<g>
</g>
<g>
</g>
<g>
</g>
<g>
</g>
</svg>
