<svg height="480pt" viewBox="0 -116 480.00199 480" width="480pt" xmlns="http://www.w3.org/2000/svg"><path d="m456 160h-416v-136c0-8.835938 7.164062-16 16-16h231.441406c5.347656.003906 10.34375 2.675781 13.3125 7.128906l43.246094 64.871094h85.664062c14.546876 0 26.335938 11.792969 26.335938 26.335938zm0 0" fill="#4799cf"/><path d="m128 40h48v40h-48zm0 0" fill="#ebebeb"/><path d="m312 80h-72v-48h40zm0 0" fill="#ebebeb"/><path d="m240 32v48h56l-32-48zm0 0" fill="#e4e4e2"/><path d="m200 8h16v152h-16zm0 0" fill="#428dc5"/><path d="m96 88c4.417969 0 8-3.582031 8-8v-72h-16v72c0 4.417969 3.582031 8 8 8zm0 0" fill="#428dc5"/><path d="m304 160h-64v-80h72l16 32zm0 0" fill="#428dc5"/><path d="m320 136h-160c-4.417969 0-8-3.582031-8-8s3.582031-8 8-8h160c4.417969 0 8 3.582031 8 8s-3.582031 8-8 8zm0 0" fill="#fbb540"/><path d="m168 160h136v32h-136zm0 0" fill="#cdcdcd"/><path d="m304 168h-136c-3.273438.003906-6.214844-1.992188-7.429688-5.03125l-15.023437-37.601562-59.84375-37.367188h-36.40625l-20.160156 6.722656-14.480469 21.71875c-2.453125 3.675782-7.417969 4.667969-11.09375 2.214844-3.675781-2.453125-4.667969-7.417969-2.21875-11.09375l16-24c.988281-1.480469 2.441406-2.585938 4.128906-3.144531l24-8c.816406-.273438 1.667969-.414063 2.527344-.417969h40c1.5 0 2.96875.421875 4.242188 1.21875l64 40c1.441406.898438 2.5625 2.234375 3.199218 3.8125l13.976563 34.96875h125.597656l21.785156-43.574219c.230469-.429687.5-.839843.800781-1.226562l24-32c1.511719-2.011719 3.882813-3.199219 6.398438-3.199219h72c1.582031.003906 3.125.472656 4.441406 1.34375l48 32c3.675782 2.453125 4.667969 7.421875 2.214844 11.097656-2.453125 3.675782-7.417969 4.667969-11.09375 2.214844l-45.960938-30.65625h-65.601562l-21.167969 28.226562-23.632812 47.351563c-1.359375 2.722656-4.152344 4.441406-7.199219 4.421875zm0 0" fill="#a8a8a8"/><path d="m136 176c0 35.347656-28.652344 64-64 64-35.34375 0-64-28.652344-64-64 0-35.34375 28.65625-64 64-64 35.347656 0 64 28.65625 64 64zm0 0" fill="#787d82"/><path d="m464 176c0 35.347656-28.652344 64-64 64-35.34375 0-64-28.652344-64-64 0-35.34375 28.65625-64 64-64 35.347656 0 64 28.65625 64 64zm0 0" fill="#787d82"/><path d="m424 176c0 13.253906-10.746094 24-24 24s-24-10.746094-24-24 10.746094-24 24-24 24 10.746094 24 24zm0 0" fill="#cdcdcd"/><g fill="#6f7478"><path d="m392 136c-2.769531 0-5.34375-1.4375-6.800781-3.792969-1.457031-2.359375-1.589844-5.304687-.351563-7.78125l8-16c1.976563-3.957031 6.78125-5.558593 10.738282-3.585937 3.953124 1.976562 5.558593 6.78125 3.582031 10.738281l-8 16c-1.355469 2.714844-4.132813 4.425781-7.167969 4.421875zm0 0"/><path d="m360.402344 155.722656c-3.441406-.003906-6.496094-2.207031-7.585938-5.472656l-5.617187-16.976562c-1.398438-4.199219.871093-8.734376 5.070312-10.132813 4.195313-1.398437 8.734375.871094 10.132813 5.070313l5.597656 16.972656c.816406 2.441406.410156 5.125-1.09375 7.210937-1.503906 2.085938-3.917969 3.324219-6.488281 3.328125zm0 0"/><path d="m352 192c-1.234375.011719-2.457031-.261719-3.566406-.800781l-16-8c-3.953125-1.972657-5.558594-6.78125-3.585938-10.734375 1.976563-3.953125 6.78125-5.558594 10.738282-3.582032l16 8c3.277343 1.675782 4.984374 5.378907 4.136718 8.964844-.851562 3.582032-4.039062 6.125-7.722656 6.152344zm0 0"/><path d="m354.746094 229.257812c-3.917969-.003906-7.257813-2.847656-7.886719-6.714843-.628906-3.867188 1.636719-7.621094 5.351563-8.871094l16.972656-5.671875c4.199218-1.398438 8.734375.871094 10.132812 5.070312 1.398438 4.195313-.871094 8.730469-5.066406 10.128907l-16.976562 5.65625c-.816407.273437-1.667969.410156-2.527344.402343zm0 0"/><path d="m400 248c-2.769531 0-5.34375-1.4375-6.800781-3.792969-1.457031-2.359375-1.589844-5.304687-.351563-7.78125l8-16c1.976563-3.957031 6.78125-5.558593 10.738282-3.585937 3.953124 1.976562 5.558593 6.78125 3.582031 10.738281l-8 16c-1.355469 2.714844-4.132813 4.425781-7.167969 4.421875zm0 0"/><path d="m445.257812 229.257812c-3.441406-.003906-6.496093-2.203124-7.585937-5.464843l-5.671875-16.976563c-1.398438-4.195312.871094-8.734375 5.070312-10.132812 4.195313-1.398438 8.730469.871094 10.128907 5.070312l5.65625 16.976563c1.394531 4.183593-.863281 8.707031-5.046875 10.109375-.820313.28125-1.683594.421875-2.550782.417968zm0 0"/><path d="m464 184c-1.234375.011719-2.457031-.261719-3.566406-.800781l-16-8c-3.953125-1.972657-5.558594-6.78125-3.585938-10.734375 1.976563-3.953125 6.78125-5.558594 10.738282-3.582032l16 8c3.277343 1.675782 4.984374 5.378907 4.136718 8.964844-.851562 3.582032-4.039062 6.125-7.722656 6.152344zm0 0"/><path d="m428.28125 144.402344c-3.917969-.011719-7.25-2.855469-7.878906-6.71875-.628906-3.867188 1.636718-7.621094 5.351562-8.867188l16.976563-5.65625c4.195312-1.398437 8.730469.871094 10.128906 5.070313 1.398437 4.195312-.867187 8.730469-5.066406 10.128906l-16.976563 5.640625c-.816406.269531-1.675781.402344-2.535156.402344zm0 0"/></g><path d="m96 176c0 13.253906-10.746094 24-24 24s-24-10.746094-24-24 10.746094-24 24-24 24 10.746094 24 24zm0 0" fill="#cdcdcd"/><path d="m32.402344 155.722656c-3.441406-.003906-6.496094-2.207031-7.585938-5.472656l-5.65625-16.976562c-1.398437-4.199219.871094-8.734376 5.070313-10.132813 4.195312-1.398437 8.730469.871094 10.128906 5.070313l5.640625 16.972656c.816406 2.441406.410156 5.125-1.09375 7.210937-1.503906 2.085938-3.917969 3.324219-6.488281 3.328125zm0 0" fill="#6f7478"/><path d="m24 192c-1.234375.011719-2.457031-.261719-3.566406-.800781l-16-8c-3.953125-1.972657-5.558594-6.78125-3.585938-10.734375 1.976563-3.953125 6.78125-5.558594 10.738282-3.582032l16 8c3.277343 1.675782 4.984374 5.378907 4.136718 8.964844-.851562 3.582032-4.039062 6.125-7.722656 6.152344zm0 0" fill="#6f7478"/><path d="m26.746094 229.257812c-3.917969-.003906-7.257813-2.847656-7.886719-6.714843-.628906-3.867188 1.636719-7.621094 5.351563-8.871094l16.972656-5.671875c4.199218-1.398438 8.734375.871094 10.132812 5.070312 1.398438 4.195313-.871094 8.730469-5.066406 10.128907l-16.976562 5.65625c-.816407.273437-1.667969.410156-2.527344.402343zm0 0" fill="#6f7478"/><path d="m72 248c-2.769531 0-5.34375-1.4375-6.800781-3.792969-1.457031-2.359375-1.589844-5.304687-.351563-7.78125l8-16c1.976563-3.957031 6.78125-5.558593 10.738282-3.585937 3.953124 1.976562 5.558593 6.78125 3.582031 10.738281l-8 16c-1.355469 2.714844-4.132813 4.425781-7.167969 4.421875zm0 0" fill="#6f7478"/><path d="m117.257812 229.257812c-3.441406-.003906-6.496093-2.203124-7.585937-5.464843l-5.671875-16.976563c-1.398438-4.195312.871094-8.734375 5.070312-10.132812 4.195313-1.398438 8.730469.871094 10.128907 5.070312l5.65625 16.976563c1.394531 4.183593-.863281 8.707031-5.046875 10.109375-.820313.28125-1.683594.421875-2.550782.417968zm0 0" fill="#6f7478"/><path d="m136 184c-1.234375.011719-2.457031-.261719-3.566406-.800781l-16-8c-3.953125-1.972657-5.558594-6.78125-3.585938-10.734375 1.976563-3.953125 6.78125-5.558594 10.738282-3.582032l16 8c3.277343 1.675782 4.984374 5.378907 4.136718 8.964844-.851562 3.582032-4.039062 6.125-7.722656 6.152344zm0 0" fill="#6f7478"/><path d="m100.28125 144.402344c-3.917969-.011719-7.25-2.855469-7.878906-6.71875-.628906-3.867188 1.636718-7.621094 5.351562-8.867188l16.976563-5.65625c4.195312-1.398437 8.730469.871094 10.128906 5.070313 1.398437 4.195312-.867187 8.730469-5.066406 10.128906l-16.976563 5.640625c-.816406.269531-1.675781.402344-2.535156.402344zm0 0" fill="#6f7478"/><path d="m64 136c-2.769531 0-5.34375-1.4375-6.800781-3.792969-1.457031-2.359375-1.589844-5.304687-.351563-7.78125l8-16c1.976563-3.957031 6.78125-5.558593 10.738282-3.585937 3.953124 1.976562 5.558593 6.78125 3.582031 10.738281l-8 16c-1.355469 2.714844-4.132813 4.425781-7.167969 4.421875zm0 0" fill="#6f7478"/><path d="m176 32h-48c-4.417969 0-8 3.582031-8 8v40c0 4.417969 3.582031 8 8 8h48c4.417969 0 8-3.582031 8-8v-40c0-4.417969-3.582031-8-8-8zm-8 40h-32v-24h32zm0 0"/><path d="m400 144c-17.671875 0-32 14.328125-32 32 0 17.675781 14.328125 32 32 32 17.675781 0 32-14.324219 32-32 0-17.671875-14.324219-32-32-32zm0 48c-8.835938 0-16-7.164062-16-16s7.164062-16 16-16 16 7.164062 16 16-7.164062 16-16 16zm0 0"/><path d="m72 208c17.675781 0 32-14.324219 32-32 0-17.671875-14.324219-32-32-32-17.671875 0-32 14.328125-32 32 0 17.675781 14.328125 32 32 32zm0-48c8.835938 0 16 7.164062 16 16s-7.164062 16-16 16-16-7.164062-16-16 7.164062-16 16-16zm0 0"/><path d="m467.5625 118.65625c3.675781 2.453125 8.640625 1.460938 11.09375-2.214844 2.453125-3.675781 1.460938-8.644531-2.214844-11.097656l-48-32c-1.316406-.871094-2.859375-1.339844-4.441406-1.34375h-75.71875l-40.871094-61.3125c-4.445312-6.683594-11.941406-10.6953125-19.96875-10.6875h-231.441406c-13.253906 0-24 10.746094-24 24v52.90625l-10.527344 3.511719c-1.6875.558593-3.140625 1.664062-4.128906 3.144531l-16 24c-2.449219 3.675781-1.457031 8.640625 2.21875 11.09375s8.640625 1.460938 11.09375-2.214844l14.480469-21.71875 2.863281-.960937v22.398437c-3.707031 2.492188-7.171875 5.320313-10.359375 8.449219l-.34375.320313c-13.503906 13.351562-21.164063 31.511718-21.296875 50.503906v.128906.4375c0 18.679688 7.289062 36.625 20.3125 50.015625.054688.066406.121094.121094.175781.195313 13.515625 13.929687 32.101563 21.792968 51.511719 21.789062 18.859375.015625 36.960938-7.394531 50.402344-20.621094l.34375-.320312c13.484375-13.355469 21.128906-31.511719 21.253906-50.488282v-.128906c0-.144531 0-.289062 0-.441406-.007812-2.671875-.167969-5.34375-.480469-8h16.480469v24c0 4.417969 3.582031 8 8 8h136c4.417969 0 8-3.582031 8-8v-24h16.472656c-.277344 2.46875-.421875 4.949219-.441406 7.433594v.128906.4375c.003906 18.679688 7.289062 36.625 20.3125 50.015625.058594.066406.121094.121094.175781.195313 13.511719 13.921874 32.082031 21.785156 51.480469 21.789062 18.859375.015625 36.960938-7.394531 50.402344-20.621094l.34375-.320312c13.484375-13.355469 21.128906-31.511719 21.253906-50.488282v-.128906c0-.144531 0-.289062 0-.441406-.007812-11.414062-2.753906-22.660156-8-32.800781v-26.878907zm-251.5625-102.65625h71.441406c2.671875 0 5.171875 1.335938 6.65625 3.5625l43.246094 64.878906c.222656.28125.460938.546875.714844.800782l-8.691406 11.582031-10.167969-20.398438c-.101563-.199219-.253907-.34375-.367188-.527343-.109375-.183594-.0625-.234376-.136719-.335938l-32-48c-1.492187-2.238281-4.007812-3.574219-6.695312-3.5625h-40c-4.417969 0-8 3.582031-8 8v88h-16zm81.058594 56h-49.058594v-32h27.722656zm-81.058594 64h16v16h-16zm-112-56v-64h96v104h-39.382812l-1.183594-2.96875c-.636719-1.578125-1.757813-2.914062-3.199219-3.8125l-52.34375-32.714844c.023437-.175781.109375-.328125.109375-.503906zm-56-56c0-4.417969 3.582031-8 8-8h32v56h-40zm72.113281 180.511719-.929687-2.757813c-1.398438-4.199218-5.933594-6.46875-10.128906-5.070312-4.199219 1.398437-6.46875 5.9375-5.070313 10.132812l4 12c-6.4375 5.414063-14.015625 9.304688-22.167969 11.375l1.3125-2.613281c1.976563-3.957031.371094-8.761719-3.582031-10.738281-3.957031-1.972656-8.761719-.371094-10.738281 3.585937l-5.609375 11.328125c-8.371094-.71875-16.472657-3.332031-23.6875-7.640625l2.761719-.929687c4.191406-1.402344 6.453124-5.941406 5.046874-10.132813-1.40625-4.195312-5.941406-6.453125-10.136718-5.050781l-12 4c-5.414063-6.4375-9.300782-14.015625-11.375-22.167969l2.617187 1.3125c3.953125 1.976563 8.761719.371094 10.734375-3.582031 1.976563-3.957031.371094-8.761719-3.582031-10.738281l-11.328125-5.625c.71875-8.371094 3.332031-16.472657 7.640625-23.6875l.925781 2.761719c1.40625 4.191406 5.945313 6.453124 10.136719 5.046874s6.453125-5.941406 5.046875-10.136718l-4-12c6.441406-5.414063 14.015625-9.304688 22.167969-11.382813l-1.3125 2.625c-1.972657 3.953125-.367188 8.761719 3.585937 10.734375 3.953125 1.976563 8.761719.371094 10.734375-3.582031l5.664063-11.328125c8.375.71875 16.472656 3.332031 23.6875 7.640625l-2.757813.925781c-4.199219 1.398438-6.46875 5.933594-5.070312 10.132813 1.398437 4.195312 5.9375 6.464843 10.132812 5.066406l12-4c5.414063 6.441406 9.304688 14.019531 11.386719 22.167969l-2.625-1.3125c-3.957031-1.972656-8.761719-.367188-10.738281 3.585937-1.972657 3.953125-.367188 8.761719 3.585937 10.734375l11.328125 5.664063c-.730469 8.363281-3.347656 16.453125-7.65625 23.65625zm3.28125-78.847657c-.121093-.144531-.234375-.261718-.363281-.390624-13.347656-13.488282-31.5-21.136719-50.476562-21.273438h-.097657c-.152343 0-.304687 0-.457031 0-8.179688.015625-16.296875 1.4375-24 4.199219v-19.765625l1.296875-.433594h36.40625l59.84375 37.402344 10.636719 26.597656h-16.398438c-3.492187-9.859375-9.085937-18.847656-16.390625-26.335938zm43.621094 10.335938h32.984375v16h-26.582031zm128.984375 48h-120v-16h120zm3.058594-32h-51.058594v-16h59.058594zm-51.058594-32v-32h59.058594l12 24-4 8zm68.945312 32 17.886719-35.773438 21.167969-28.226562h65.601562l26.550782 17.703125c0 .21875-.128906.410156-.128906.632813v16.152343c-13.015626-11.773437-29.910157-18.351562-47.460938-18.488281h-.097656c-.160156 0-.3125 0-.464844 0-18.855469-.011719-36.960938 7.394531-50.398438 20.625l-.34375.320312c-7.640624 7.628907-13.46875 16.875-17.058593 27.054688zm131.199219 52.511719-.925781-2.757813c-1.398438-4.199218-5.9375-6.46875-10.132812-5.070312-4.199219 1.398437-6.46875 5.9375-5.070313 10.132812l4 12c-6.4375 5.414063-14.015625 9.304688-22.167969 11.375l1.3125-2.613281c1.976563-3.957031.371094-8.761719-3.582031-10.738281-3.957031-1.972656-8.761719-.371094-10.738281 3.585937l-5.640625 11.328125c-8.371094-.71875-16.472657-3.332031-23.6875-7.640625l2.761719-.929687c4.195312-1.398438 6.464843-5.933594 5.066406-10.128906-1.398438-4.199219-5.933594-6.46875-10.128906-5.070313l-12 4c-5.417969-6.4375-9.304688-14.015625-11.378907-22.167969l2.617188 1.3125c3.953125 1.976563 8.761719.371094 10.734375-3.582031 1.976562-3.957031.371094-8.761719-3.582032-10.738281l-11.351562-5.609375c.71875-8.371094 3.332031-16.472657 7.640625-23.6875l.925781 2.761719c1.398438 4.195312 5.933594 6.464843 10.132813 5.066406 4.195312-1.398438 6.464843-5.933594 5.066406-10.128906l-4-12c6.441406-5.414063 14.019531-9.308594 22.167969-11.386719l-1.3125 2.625c-1.972656 3.953125-.367188 8.761719 3.585937 10.734375 3.953125 1.976562 8.761719.371094 10.734375-3.582032l5.664063-11.328124c8.375.71875 16.472656 3.332031 23.691406 7.640624l-2.761719.925782c-4.199218 1.398437-6.464844 5.9375-5.066406 10.132812 1.398438 4.199219 5.933594 6.464844 10.128906 5.066406l12-4c5.414063 6.441407 9.304688 14.019532 11.386719 22.171876l-2.625-1.3125c-3.953125-1.976563-8.761719-.371094-10.738281 3.582031-1.972656 3.953125-.367188 8.761719 3.585937 10.738281l11.328125 5.664062c-.738281 8.355469-3.359375 16.433594-7.671875 23.628907zm0 0"/></svg>