<svg height="480pt" viewBox="0 -12 480 480" width="480pt" xmlns="http://www.w3.org/2000/svg"><path d="m328 336-40 32h-128l-24-40zm0 0" fill="#035946"/><path d="m160 360h136v24h-136zm0 0" fill="#333"/><path d="m32 336h-24v-144l16-104h256l56 104h112v144" fill="#557c3e"/><path d="m312 336h-136v-144h160v120zm0 0" fill="#539074"/><path d="m72 8h152c13.253906 0 24 10.746094 24 24v24c0 13.253906-10.746094 24-24 24h-152c-13.253906 0-24-10.746094-24-24v-24c0-13.253906 10.746094-24 24-24zm0 0" fill="#333"/><g fill="#1a1a1a"><path d="m88 80h-16v-32c0-4.417969 3.582031-8 8-8h16v-32h16v40c0 4.417969-3.582031 8-8 8h-16zm0 0"/><path d="m144 80h-16v-32c0-4.417969 3.582031-8 8-8h16v-32h16v40c0 4.417969-3.582031 8-8 8h-16zm0 0"/><path d="m200 80h-16v-32c0-4.417969 3.582031-8 8-8h16v-32h16v40c0 4.417969-3.582031 8-8 8h-16zm0 0"/></g><path d="m392 312v-24h80v48h-56" fill="#ccc"/><path d="m336 192h-160v-80h116.921875zm0 0" fill="#92d7e7"/><path d="m144 192h-108.664062l12.664062-80h96zm0 0" fill="#92d7e7"/><path d="m200 224h24v16h-24zm0 0" fill="#29485a"/><path d="m408 216h40v32h-40zm0 0" fill="#f2f2f2"/><path d="m168 376c0 39.765625-32.234375 72-72 72s-72-32.234375-72-72 32.234375-72 72-72 72 32.234375 72 72zm0 0" fill="#4d4d4d"/><path d="m432 376c0 39.765625-32.234375 72-72 72s-72-32.234375-72-72 32.234375-72 72-72 72 32.234375 72 72zm0 0" fill="#4d4d4d"/><path d="m400 376c0 22.089844-17.910156 40-40 40s-40-17.910156-40-40 17.910156-40 40-40 40 17.910156 40 40zm0 0" fill="#ccc"/><path d="m136 376c0 22.089844-17.910156 40-40 40s-40-17.910156-40-40 17.910156-40 40-40 40 17.910156 40 40zm0 0" fill="#ccc"/><path d="m96 80h112v8h-112zm0 0" fill="#29485a"/><path d="m0 440h480v16h-480zm0 0" fill="#29485a"/><path d="m480 336v-48c0-4.417969-3.582031-8-8-8h-16v-88c0-4.417969-3.582031-8-8-8h-107.199219l-7.089843-13.160156-46.664063-86.632813c-1.394531-2.59375-4.101563-4.207031-7.046875-4.207031h-35.054688c6.992188-6.019531 11.023438-14.773438 11.054688-24v-24c0-17.671875-14.328125-32-32-32h-152c-17.671875 0-32 14.328125-32 32v24c.03125 9.226562 4.0625 17.980469 11.054688 24h-27.054688c-3.949219 0-7.304688 2.882812-7.902344 6.785156l-15.9999998 104c-.0664062.402344-.0976562.808594-.0976562 1.214844v144c0 4.417969 3.582031 8 8 8h14.726562c-14.949218 34.023438-4.375 73.867188 25.480469 96h-48.207031v16h480v-16h-72.207031c29.855469-22.132812 40.429687-61.976562 25.480469-96h38.726562c4.417969 0 8-3.582031 8-8zm-240-304v24c0 8.835938-7.164062 16-16 16h-24v-16h16c4.417969 0 8-3.582031 8-8v-32c8.835938 0 16 7.164062 16 16zm-32-16v24h-16c-4.417969 0-8 3.582031-8 8v24h-40v-16h16c4.417969 0 8-3.582031 8-8v-32zm-56 0v24h-16c-4.417969 0-8 3.582031-8 8v24h-40v-16h16c4.417969 0 8-3.582031 8-8v-32zm-96 16c0-8.835938 7.164062-16 16-16h24v24h-16c-4.417969 0-8 3.582031-8 8v24c-8.835938 0-16-7.164062-16-16zm384 208h-24v-16h24zm0-32h-32c-4.417969 0-8 3.582031-8 8v32c0 4.417969 3.582031 8 8 8h32v24h-48c-4.417969 0-8 3.582031-8 8v11.6875c-12.941406-4.070312-26.707031-4.785156-40-2.070312v-97.617188h96zm-156.3125 144h-111.375c-.867188-2.71875-1.882812-5.390625-3.039062-8h117.453124c-1.15625 2.609375-2.171874 5.28125-3.039062 8zm-3.6875 24h-104v-8h104zm13.398438-246.230469 29.203124 54.230469h-138.601562v-64h104.144531zm2.753906 198.230469h-112.152344v-128h144v102.726562c-12.605469 5.554688-23.574219 14.257813-31.847656 25.273438zm-280.152344 0v-135.382812l14.863281-96.617188h244.335938l4.3125 8h-103.511719c-4.417969 0-8 3.582031-8 8v216h-8.152344c-15.070312-20.175781-38.792968-32.039062-63.976562-32-25.183594.042969-48.863282 11.984375-63.871094 32.207031v-.207031zm16 48c0-35.347656 28.652344-64 64-64s64 28.652344 64 64-28.652344 64-64 64c-35.328125-.039062-63.960938-28.671875-64-64zm111.792969 64c15.738281-11.707031 26.632812-28.789062 30.605469-48h107.203124c3.96875 19.207031 14.855469 36.289062 30.589844 48zm216.207031 0c-35.347656 0-64-28.652344-64-64s28.652344-64 64-64 64 28.652344 64 64c-.039062 35.328125-28.671875 63.960938-64 64zm104-112h-40.152344c-6.457031-8.578125-14.566406-15.777344-23.847656-21.175781v-10.824219h64zm0 0"/><path d="m360 328c-26.507812 0-48 21.492188-48 48s21.492188 48 48 48 48-21.492188 48-48c-.027344-26.5-21.5-47.972656-48-48zm0 80c-17.671875 0-32-14.328125-32-32s14.328125-32 32-32 32 14.328125 32 32-14.328125 32-32 32zm0 0"/><path d="m96 328c-26.507812 0-48 21.492188-48 48s21.492188 48 48 48 48-21.492188 48-48c-.027344-26.5-21.5-47.972656-48-48zm0 80c-17.671875 0-32-14.328125-32-32s14.328125-32 32-32 32 14.328125 32 32-14.328125 32-32 32zm0 0"/><path d="m144 200c4.417969 0 8-3.582031 8-8v-80c0-4.417969-3.582031-8-8-8h-96c-3.933594.003906-7.28125 2.867188-7.894531 6.753906l-12.664063 80c-.367187 2.308594.296875 4.664063 1.816406 6.441406 1.519532 1.777344 3.738282 2.804688 6.078126 2.804688zm-89.167969-80h81.167969v64h-91.296875zm0 0"/><path d="m200 224h24v16h-24zm0 0"/></svg>