<svg height="512pt" viewBox="0 -52 512 512" width="512pt" xmlns="http://www.w3.org/2000/svg"><path d="m275.039062 169.941406 18.449219-23.351562 61.507813 48.605468-18.449219 23.351563zm0 0" fill="#a5b0bc"/><path d="m275.046875 169.960938 34.957031 27.628906 18.976563-22.933594-35.480469-28.042969zm0 0" fill="#77889a"/><g fill="#3d4851"><path d="m259.054688 165.417969 27.507812-33.238281c2.996094-3.621094 8.359375-4.125 11.980469-1.128907l9.816406 8.121094c3.617187 2.996094 4.125 8.359375 1.128906 11.980469l-27.507812 33.238281c-2.996094 3.621094-8.359375 4.128906-11.980469 1.132813l-9.816406-8.125c-3.621094-2.996094-4.125-8.359376-1.128906-11.980469zm0 0"/><path d="m342.421875 113.480469h23.742187c4.449219 0 8.054688 3.605469 8.054688 8.050781v119.421875h-39.851562v-119.417969c0-4.449218 3.605468-8.054687 8.054687-8.054687zm0 0"/><path d="m102.285156 147.039062 61.386719-104.726562-20.15625-25.21875-76.167969 129.945312 20.007813 19.839844zm0 0"/><path d="m178.453125 109.015625h10.539063c13.214843 0 25.097656 8.035156 30.023437 20.292969l38.472656 95.734375-22.15625 20.871093h-52.246093l-22.101563-98.875zm0 0"/></g><path d="m153.109375 7.5h15.75c5.300781 0 9.59375 4.296875 9.59375 9.59375v149.785156h-34.9375v-149.785156c0-5.296875 4.292969-9.59375 9.59375-9.59375zm0 0" fill="#a5b0bc"/><path d="m35.109375 295.519531h32.238281l18.023438 19.671875-18.023438 19.675782h-32.238281c-6.847656 0-12.402344-5.550782-12.402344-12.402344v-14.542969c0-6.851563 5.554688-12.402344 12.402344-12.402344zm0 0" fill="#a5b0bc"/><path d="m24.105469 130.433594h26.632812c9.171875 0 16.609375 7.433594 16.609375 16.605468l18.023438 51.582032-18.023438 51.578125c0 9.171875-7.433594 16.609375-16.609375 16.609375h-26.632812c-9.171875 0-16.605469-7.433594-16.605469-16.609375v-103.160157c0-9.171874 7.433594-16.605468 16.605469-16.605468zm0 0" fill="#3d4851"/><path d="m67.347656 220.199219c0 9.171875-7.433594 16.609375-16.609375 16.609375h-26.632812c-9.171875 0-16.605469-7.4375-16.605469-16.609375v30c0 9.171875 7.433594 16.609375 16.605469 16.609375h26.632812c9.171875 0 16.609375-7.4375 16.609375-16.609375l18.023438-51.582031-5.238282-15zm0 0" fill="#333a41"/><path d="m143.515625 117.039062h34.9375v49.839844h-34.9375zm0 0" fill="#77889a"/><path d="m480.027344 201.195312c0-17.492187-14.175782-31.667968-31.667969-31.667968h-74.140625v55.515625h-166.660156l-29.105469-78.003907h-111.105469v187.828126h392.511719l20.167969-39.351563v-46.625l-20.167969-23.847656zm0 0" fill="#73d98b"/><path d="m67.347656 147.039062h30v187.828126h-30zm0 0" fill="#00c756"/><path d="m235.332031 330.566406c0 38.535156-31.238281 69.773438-69.769531 69.773438-38.535156 0-69.773438-31.238282-69.773438-69.773438s31.238282-69.773437 69.773438-69.773437c38.53125 0 69.769531 31.238281 69.769531 69.773437zm0 0" fill="#3d4851"/><path d="m439.6875 330.566406c0 38.535156-31.238281 69.773438-69.773438 69.773438-38.53125 0-69.769531-31.238282-69.769531-69.773438s31.238281-69.773437 69.769531-69.773437c38.535157 0 69.773438 31.238281 69.773438 69.773437zm0 0" fill="#3d4851"/><path d="m194.992188 330.566406c0 16.253906-13.175782 29.429688-29.429688 29.429688s-29.429688-13.175782-29.429688-29.429688 13.175782-29.429687 29.429688-29.429687 29.429688 13.175781 29.429688 29.429687zm0 0" fill="#a5b0bc"/><path d="m399.347656 330.566406c0 16.253906-13.179687 29.429688-29.433594 29.429688-16.25 0-29.429687-13.175782-29.429687-29.429688s13.179687-29.429687 29.429687-29.429687c16.253907 0 29.433594 13.175781 29.433594 29.429687zm0 0" fill="#a5b0bc"/><path d="m439.691406 214.191406v21.703125c0 7.171875 5.8125 12.996094 12.996094 12.996094h27.339844v-47.695313h-27.339844c-7.183594 0-12.996094 5.820313-12.996094 12.996094zm0 0" fill="#ff8f71"/><path d="m471.828125 295.515625h20.703125c6.609375 0 11.96875 5.359375 11.96875 11.96875v15.410156c0 6.613281-5.359375 11.96875-11.96875 11.96875h-32.671875v-27.378906c0-6.609375 5.359375-11.96875 11.96875-11.96875zm0 0" fill="#a5b0bc"/><path d="m128.632812 330.566406c0 20.363282 16.5625 36.929688 36.929688 36.929688 20.363281 0 36.929688-16.566406 36.929688-36.929688 0-20.363281-16.566407-36.929687-36.929688-36.929687s-36.929688 16.566406-36.929688 36.929687zm15 0c0-12.09375 9.835938-21.929687 21.929688-21.929687 12.089844 0 21.929688 9.835937 21.929688 21.929687s-9.839844 21.929688-21.929688 21.929688c-12.09375 0-21.929688-9.835938-21.929688-21.929688zm0 0"/><path d="m332.988281 330.566406c0 20.363282 16.566407 36.929688 36.929688 36.929688s36.929687-16.566406 36.929687-36.929688c0-20.363281-16.566406-36.929687-36.929687-36.929687s-36.929688 16.566406-36.929688 36.929687zm15 0c0-12.09375 9.835938-21.929687 21.929688-21.929687s21.929687 9.835937 21.929687 21.929687-9.835937 21.929688-21.929687 21.929688-21.929688-9.835938-21.929688-21.929688zm0 0"/><path d="m492.53125 288.015625h-5.003906v-86.820313c0-21.597656-17.570313-39.167968-39.164063-39.167968h-66.644531v-40.496094c0-8.574219-6.976562-15.550781-15.554688-15.550781h-23.742187c-8.574219 0-15.554687 6.976562-15.554687 15.550781v41.894531l-10.808594-8.546875c4.714844-6.734375 3.414062-16.242187-2.917969-21.484375-.003906-.003906-9.816406-8.125-9.816406-8.125-6.714844-5.558593-16.984375-4.585937-22.539063 2.128907-.015625.011718-27.507812 33.238281-27.507812 33.238281-5.550782 6.707031-4.585938 16.984375 2.125 22.539062.003906.003907 9.816406 8.125 9.816406 8.125 2.863281 2.371094 6.488281 3.675781 10.203125 3.675781 4.683594 0 9.082031-2.035156 12.125-5.574218l35.605469 28.140625h-60.597656l-36.578126-91.03125c-6.105468-15.183594-20.621093-24.996094-36.984374-24.996094h-3.039063v-27.292969c0-4.144531-3.359375-7.5-7.5-7.5s-7.5 3.355469-7.5 7.5v65.316406h-19.9375v-122.445312c0-1.15625.9375-2.09375 2.09375-2.09375h15.75c1.15625 0 2.09375.9375 2.09375 2.09375v27.136719c0 4.140625 3.359375 7.5 7.5 7.5s7.5-3.359375 7.5-7.5v-27.136719c0-9.425781-7.667969-17.09375-17.09375-17.09375h-15.75c-8.628906 0-15.769531 6.433594-16.917969 14.753906l-67.878906 115.808594c-4.402344-4.691406-10.648438-7.628906-17.574219-7.628906h-26.632812c-13.292969 0-24.105469 10.8125-24.105469 24.105468v25.855469c0 4.140625 3.359375 7.5 7.5 7.5s7.5-3.359375 7.5-7.5v-25.855469c0-5.019531 4.085938-9.105468 9.105469-9.105468h26.632812c5.023438 0 9.109375 4.085937 9.109375 9.105468v103.160157c0 5.023437-4.085937 9.109375-9.109375 9.109375h-26.632812c-5.019531 0-9.105469-4.085938-9.105469-9.109375v-47.304688c0-4.144531-3.359375-7.5-7.5-7.5s-7.5 3.355469-7.5 7.5v47.304688c0 13.292969 10.8125 24.109375 24.105469 24.109375h26.632812c3.222657 0 6.296875-.640625 9.109375-1.792969v15.503906h-24.738281c-10.972656 0-19.902344 8.929688-19.902344 19.902344v14.542969c0 10.976562 8.929688 19.902344 19.902344 19.902344h54.082031c5.699219 37.027343 37.773438 65.472656 76.371094 65.472656 38.59375 0 70.671875-28.445313 76.371094-65.472656h51.613281c5.699219 37.027343 37.773437 65.472656 76.371094 65.472656 38.59375 0 70.671875-28.445313 76.371093-65.472656l46.242188-.003907c10.734375 0 19.46875-8.730469 19.46875-19.46875v-15.410156c0-10.734375-8.734375-19.46875-19.46875-19.46875zm0 39.347656h-25.171875v-19.878906c0-2.417969 2.058594-4.46875 4.46875-4.46875h20.703125c2.464844 0 4.46875 2.003906 4.46875 4.46875v15.410156c0 2.464844-2.003906 4.46875-4.46875 4.46875zm-184.886719 3.203125c0-34.335937 27.933594-62.273437 62.269531-62.273437 33.265626 0 60.523438 26.21875 62.191407 59.074219 1.769531 34.761718-27.3125 65.472656-62.191407 65.472656-33.519531 0-62.269531-28.699219-62.269531-62.273438zm-204.355469 0c0-33.34375 28.894532-62.273437 62.273438-62.273437 33.519531 0 62.273438 28.707031 62.273438 62.273437 0 33.507813-28.726563 62.273438-62.273438 62.273438-33.53125 0-62.273438-28.6875-62.273438-62.273438zm-43.441406-27.546875v24.347657h-24.734375c-2.707031 0-4.90625-2.199219-4.90625-4.902344v-14.542969c0-2.703125 2.199219-4.902344 4.90625-4.902344zm76.167969-258.296875v29.945313l-38.023437 64.871093h-17.554688zm0 94.816406h-20.636719l20.636719-35.207031zm110.375 78.003907h-33.625l-26.8125-71.855469v-29.171875h3.039063c10.207031 0 19.261718 6.121094 23.066406 15.589844zm57.320313-71.171875c0 .003906-27.507813 33.238281-27.507813 33.238281-.359375.4375-.980469.5-1.417969.136719 0 0-9.816406-8.125-9.816406-8.125-.429688-.355469-.492188-.992188-.136719-1.421875 0 0 27.507813-33.234375 27.507813-33.234375.359375-.4375.988281-.492188 1.421875-.136719 0 0 9.816406 8.125 9.816406 8.125.429687.355469.496094.980469.132813 1.417969zm23.15625 36.171875v18.816406l-29.738282-23.507813 9.414063-11.375zm39.851562 35h-24.851562v-96.011719c0-.304688.25-.550781.554687-.550781h23.742187c.304688 0 .554688.25.554688.550781zm85.96875-8.847657h19.839844v32.695313h-19.839844c-3.03125 0-5.496094-2.464844-5.496094-5.496094v-21.707031c0-3.0625 2.613282-5.492188 5.496094-5.492188zm19.839844 79.320313h-.699219c-2.011719 0-3.953125.304687-5.78125.875-7.921875 2.46875-13.6875 9.871094-13.6875 18.59375v19.882813h-5.234375c-.007812-.128907-.019531-.257813-.027344-.386719-.429687-9.265625-2.511718-18.429688-6.210937-26.933594-12.160157-27.953125-40.410157-46.75-70.96875-46.75-9.699219 0-19.273438 1.875-28.308594 5.390625-27.816406 10.8125-47.492187 38.511719-48.871094 68.28125-.007812.132812-.023437.265625-.027343.398438h-49.941407c-.003906-.128907-.019531-.257813-.027343-.386719-1.890626-40.554688-36.609376-73.683594-77.179688-73.683594-40.636719 0-75.285156 33.109375-77.179688 73.683594-.007812.128906-.019531.257812-.027343.386719h-13.507813v-172.828126h98.398438l27.289062 73.125c1.09375 2.933594 3.894532 4.878907 7.027344 4.878907h166.65625c4.144531 0 7.5-3.359375 7.5-7.5v-48.015625h66.644531c10.707031 0 19.8125 7 22.972657 16.667968h-18.648438c-11.09375 0-20.496094 9.382813-20.496094 20.496094v21.703125c0 11.300781 9.195313 20.496094 20.496094 20.496094h19.839844zm0 0"/></svg>