<svg id="Layer_1" enable-background="new 0 0 512 512" height="512" viewBox="0 0 512 512" width="512" xmlns="http://www.w3.org/2000/svg"><g><g><path d="m475.824 95.05c-10.99 22.77-32.98 41.2-32.98 41.2-11.72.43-23.4.79-34.97 1.1-140.51 3.7-265.93-1.1-265.93-1.1s-21.99-18.43-32.98-41.2c10.99-28.82 32.98-52.14 32.98-52.14s125.66-6.08 266.33-1.37c11.44.38 22.99.84 34.57 1.37 0 0 21.99 23.32 32.98 52.14z" fill="#a0a9ba"/><path d="m475.824 95.05c-10.99 22.77-32.98 41.2-32.98 41.2-11.72.43-23.4.79-34.97 1.1 4.71-4.19 24.32-22.35 33.95-42.3-9.37-24.58-28.21-47.35-33.55-53.51 11.44.38 22.99.84 34.57 1.37 0 0 21.99 23.32 32.98 52.14z" fill="#808a9b"/></g><path d="m502.564 424.33s-6.13 2.48-20.3 4.81c-6.5 1.07-14.69 2.1-24.77 2.85-9.28.69-20.15 1.13-32.77 1.13l-39.19 1-39.18 1c-59.77 1.86-128.2 1.27-167.98.65-20.64-.32-33.57-.65-33.57-.65l-39.18-1-39.19-1c-34.15 0-56.84-8.79-56.84-8.79-4.71-67.3 0-96.95 0-96.95 58.71-17.24 125.7-29.09 125.7-29.09 20.9-53.78 55.11-125.17 55.11-125.17s171.82-2.86 277.42-.69c9.27.19 18.03.42 26.12.69 0 0 13.33 183.91 8.62 251.21z" fill="#acd866"/><g fill="#76bf47"><path d="m178.374 435.77c-20.64-.32-33.57-.65-33.57-.65l-39.18-1v-40.13c51.56 0 68.53 17.9 72.75 41.78z"/><path d="m457.494 431.99c-9.28.69-20.15 1.13-32.77 1.13l-39.19 1v-40.13c48.81 0 66.61 16.04 71.96 38z"/><path d="m502.564 424.33s-6.13 2.48-20.3 4.81c.45-111.24-11.96-233.43-14.44-256.71 9.27.19 18.03.42 26.12.69 0 0 13.33 183.91 8.62 251.21z"/></g><g><path d="m276.922 298.161s-9.34.35-24.1.62c-20.36.35-51.04.54-81.72-.62 17.58-45.43 39.56-90.87 39.56-90.87 15.08-.58 30.17-.63 42.12-.51 14.31.14 24.14.51 24.14.51s2.35 41.74 0 90.87z" fill="#def5ff"/><path d="m276.922 298.161s-9.34.35-24.1.62c.84-40.32.24-77.97-.04-92 14.31.14 24.14.51 24.14.51s2.35 41.74 0 90.87z" fill="#d0e8f7"/></g><path d="m370.384 298.16s-10.36.47-25.91.56c-10.07.05-22.32-.06-35.34-.56-2.35-49.13 0-90.87 0-90.87s14.68-.66 35.33-.54c7.92.03 16.73.19 25.92.54 2.34 49.13 0 90.87 0 90.87z" fill="#def5ff"/><path d="m370.384 298.16s-10.36.47-25.91.56c.41-8.85 1.92-47.32-.01-91.97 7.92.03 16.73.19 25.92.54 2.34 49.13 0 90.87 0 90.87z" fill="#d0e8f7"/><path d="m470.354 298.16s-10.39.38-25.19.52c-12.42.12-27.94.06-43.05-.52-2.35-49.13 0-90.87 0-90.87s15.08-.68 36.16-.54c7.71.05 16.22.2 25.09.54 4.76 28.15 6.99 90.87 6.99 90.87z" fill="#def5ff"/><path d="m463.364 207.29c4.76 28.15 6.99 90.87 6.99 90.87s-10.39.38-25.19.52c-.64-15.56-2.88-64.18-6.89-91.93 7.71.05 16.22.2 25.09.54z" fill="#d0e8f7"/><g><g><path d="m144.815 433.117c0 21.61-17.55 39.13-39.2 39.13-4.37 0-8.57-.71-12.5-2.04-15.51-5.2-26.69-19.84-26.69-37.09s11.18-31.89 26.69-37.09c3.93-1.33 8.13-2.04 12.5-2.04 21.65-.001 39.2 17.519 39.2 39.13z" fill="#51586b"/><path d="m144.815 433.117c0 21.61-17.55 39.13-39.2 39.13-4.37 0-8.57-.71-12.5-2.04 15.52-5.2 26.7-19.84 26.7-37.09s-11.18-31.89-26.7-37.09c3.93-1.33 8.13-2.04 12.5-2.04 21.65-.001 39.2 17.519 39.2 39.13z" fill="#333b4c"/></g><g><path d="m424.734 433.117c0 21.61-17.55 39.13-39.2 39.13-4.37 0-8.57-.71-12.5-2.04-15.51-5.2-26.69-19.84-26.69-37.09s11.18-31.89 26.69-37.09c3.93-1.33 8.13-2.04 12.5-2.04 21.65-.001 39.2 17.519 39.2 39.13z" fill="#51586b"/><path d="m424.734 433.117c0 21.61-17.55 39.13-39.2 39.13-4.37 0-8.57-.71-12.5-2.04 15.52-5.2 26.7-19.84 26.7-37.09s-11.18-31.89-26.7-37.09c3.93-1.33 8.13-2.04 12.5-2.04 21.65-.001 39.2 17.519 39.2 39.13z" fill="#333b4c"/></g></g></g><g><path d="m180.936 428.306c-12.66-.191-22.704-.391-28.919-.525-2.659-23.208-22.449-41.294-46.388-41.294-4.142 0-7.5 3.358-7.5 7.5s3.358 7.5 7.5 7.5c17.475 0 31.692 14.189 31.692 31.63s-14.217 31.63-31.692 31.63-31.692-14.189-31.692-31.63c0-7.328 2.436-14.205 7.046-19.887 2.61-3.217 2.118-7.94-1.099-10.549-3.217-2.61-7.94-2.118-10.549 1.099-5.091 6.276-8.445 13.793-9.764 21.713-20.308-.737-35.672-4.562-42.828-6.701-1.504-23.262-1.846-41.753-1.684-55.786 16.945-.452 32.415.248 32.591.256 4.135.181 7.646-3.007 7.839-7.145.192-4.137-3.006-7.647-7.144-7.839-.729-.034-15.789-.717-32.879-.289.297-6.678.688-11.582 1.003-14.793 56.472-16.176 119.492-27.404 120.139-27.519 2.58-.457 4.735-2.227 5.684-4.669 17.677-45.493 45.294-104.417 52.891-120.464 30.177-.464 199.474-2.872 291.751-.144.581 8.395 1.634 24.039 2.815 43.558.251 4.134 3.799 7.287 7.939 7.033 4.135-.25 7.283-3.805 7.033-7.939-1.789-29.557-3.286-50.27-3.301-50.476-.277-3.825-3.395-6.824-7.227-6.954-35.502-1.201-84.223-1.548-132.26-1.496-1.926-6.764-3.469-13.322-4.549-18.29 27.748-.37 56.656-1.029 85.739-2.09 1.667-.061 3.267-.676 4.545-1.748.894-.749 20.843-17.618 32.807-39.598 8.043-.201 16.126-.417 24.241-.651 4.141-.119 7.4-3.572 7.281-7.713-.117-4.067-3.45-7.284-7.493-7.284-.072 0-.146.001-.22.003-7.858.226-15.686.436-23.476.631-11.795-27.478-31.615-48.683-32.501-49.624-1.335-1.416-3.167-2.258-5.111-2.348-85.415-3.944-168.699-3.487-223.526-2.409-4.142.082-7.432 3.505-7.351 7.646s3.53 7.444 7.646 7.351c53.928-1.061 135.49-1.519 219.395 2.253 4.636 5.334 16.484 19.796 25.126 37.519-148.118 3.342-280.607 1.388-344.172 0 8.642-17.724 20.492-32.186 25.125-37.518 5.499-.241 18.021-.758 35.725-1.291 4.14-.125 7.395-3.582 7.27-7.722s-3.608-7.401-7.722-7.271c-24.344.733-38.981 1.437-39.126 1.444-1.938.094-3.764.935-5.095 2.347-.887.941-20.71 22.151-32.505 49.633-14.77-.363-23.046-.627-23.443-.64-4.151-.125-7.606 3.111-7.741 7.251s3.111 7.606 7.251 7.741c.404.013 8.984.287 24.276.661 11.965 21.975 31.908 38.839 32.802 39.588 1.275 1.069 2.869 1.684 4.531 1.747.699.027 34.322 1.283 85.774 1.999-1.134 5.226-2.787 12.238-4.867 19.415-19.606.251-31.795.451-32.286.459-2.841.047-5.411 1.696-6.639 4.258-.335.699-32.937 68.846-53.804 121.789-15.595 2.896-72.264 13.816-122.353 28.517-2.78.816-4.842 3.16-5.296 6.021-.197 1.246-4.782 31.271-.074 98.654.203 2.9 2.063 5.422 4.774 6.471.914.354 21.356 8.13 52.632 9.173 3.554 22.216 22.876 39.246 46.106 39.246 22.434 0 41.222-15.882 45.685-36.979 6.212.135 16.443.34 29.395.535.039 0 .077.001.116.001 4.089 0 7.435-3.284 7.496-7.387.063-4.14-3.243-7.548-7.385-7.61zm57.266-263.339c2.023-7.454 3.558-14.333 4.533-19.034 16.664.182 34.846.297 54.121.297 14.515 0 29.651-.066 45.225-.219.94 4.527 2.393 11.044 4.297 18.143-40.455.114-79.336.477-108.176.813zm-93.302-36.116c-4.166-3.781-14.486-13.682-22.78-26.033 37.945.816 99.027 1.801 172.759 1.801 51.031 0 108.131-.472 167.8-1.799-8.297 12.354-18.618 22.255-22.78 26.032-139.71 4.982-274.535.707-294.999-.001z"/><path d="m498.727 249.067c-4.136.224-7.307 3.759-7.084 7.895 1.181 21.809 2.366 46.467 3.213 70.63-7.424-.184-19.067-.294-31.325.283-4.138.194-7.335 3.706-7.141 7.844.189 4.018 3.506 7.148 7.486 7.148.118 0 .238-.002.357-.008 12.188-.572 23.972-.43 31.105-.242.157 5.403.292 10.745.403 15.986-7.625-.189-19.743-.313-32.211.273-4.138.194-7.335 3.706-7.141 7.844.189 4.018 3.506 7.148 7.486 7.148.118 0 .238-.002.357-.008 12.253-.575 24.403-.428 31.756-.24.198 17.193.055 32.753-.594 45.097-8.17 2.201-28.182 6.37-63.784 6.855-3.621-22.136-22.902-39.084-46.071-39.084-23.95 0-43.745 18.109-46.384 41.339-34.668.962-75.624 1.264-121.882.898h-.061c-4.114 0-7.466 3.319-7.498 7.441-.033 4.142 3.299 7.526 7.441 7.559 12.724.101 25.049.15 36.957.15 31.673 0 60.388-.355 85.76-1.062 4.479 21.075 23.253 36.936 45.668 36.936 23.201 0 42.503-16.994 46.086-39.175 51.905-.682 72.854-8.921 73.756-9.286 2.656-1.075 4.468-3.57 4.667-6.429 2.656-38.015-.398-112.726-3.429-168.706-.224-4.139-3.766-7.307-7.893-7.086zm-113.186 215.68c-17.47 0-31.683-14.189-31.683-31.63s14.213-31.63 31.683-31.63 31.683 14.189 31.683 31.63-14.213 31.63-31.683 31.63z"/><path d="m190.184 252.093c-3.802-1.638-8.216.114-9.856 3.918-6.042 14.014-11.491 27.285-16.197 39.442-.875 2.26-.603 4.804.729 6.829s3.56 3.281 5.982 3.373c17.617.666 35.303.888 51.065.888 31.276 0 54.95-.875 55.303-.888 3.891-.147 7.022-3.248 7.208-7.137 2.339-48.954.021-91.227-.003-91.648-.217-3.862-3.335-6.925-7.2-7.074-.335-.013-33.794-1.271-66.822 0-2.771.107-5.256 1.733-6.463 4.229-.042.087-4.302 8.904-10.456 22.382-1.721 3.768-.061 8.217 3.707 9.938 3.769 1.722 8.217.061 9.937-3.707 3.618-7.922 6.567-14.204 8.372-18.011 22.046-.697 43.601-.325 54.258-.05.505 12.896 1.326 42.503-.011 76.307-14.626.414-50.439 1.182-87.738.13 3.679-9.192 7.732-18.927 12.103-29.064 1.64-3.804-.115-8.217-3.918-9.857z"/><path d="m371.464 329.674c-.585-.04-14.49-.976-28.653 0-4.132.285-7.251 3.866-6.966 7.999.273 3.957 3.568 6.984 7.474 6.984.173 0 .348-.006.524-.018 13.101-.904 26.457-.009 26.59 0 4.136.281 7.712-2.836 7.996-6.968s-2.834-7.712-6.965-7.997z"/><path d="m250.341 344.445c.173 0 .349-.006.524-.018 13.101-.904 26.457-.01 26.59 0 4.14.273 7.712-2.837 7.996-6.968.284-4.132-2.833-7.712-6.965-7.997-.584-.04-14.489-.976-28.653 0-4.132.285-7.251 3.866-6.966 7.999.272 3.957 3.567 6.984 7.474 6.984z"/><path d="m377.874 206.933c-.186-3.887-3.314-6.987-7.203-7.137-33.056-1.273-61.591-.011-61.875.002-3.844.174-6.932 3.229-7.148 7.071-.023.421-2.342 42.695-.003 91.648.186 3.887 3.314 6.987 7.203 7.137 11.062.426 21.617.568 30.777.568 18.212 0 30.908-.562 31.098-.57 3.844-.174 6.932-3.229 7.148-7.071.023-.421 2.342-42.694.003-91.648zm-14.672 83.969c-9.222.26-26.818.572-46.876-.004-1.338-33.836-.516-63.466-.01-76.348 9.22-.261 26.805-.574 46.876.004 1.338 33.836.516 63.465.01 76.348z"/><path d="m463.649 199.797c-33.055-1.272-61.59-.011-61.875.002-3.844.174-6.932 3.229-7.148 7.071-.023.421-2.343 42.695-.003 91.648.186 3.887 3.313 6.987 7.202 7.137 11.067.426 22.403.568 32.6.568 20.229 0 35.971-.559 36.206-.567 4.138-.15 7.37-3.625 7.223-7.763-.092-2.581-2.311-63.538-7.098-91.852-.591-3.501-3.558-6.108-7.107-6.244zm-54.345 91.098c-1.339-33.836-.516-63.462-.01-76.345 9.332-.263 27.233-.58 47.582.025 3.108 22.848 4.984 60.36 5.68 76.306-10.881.264-32.032.61-53.252.014z"/><circle cx="105.627" cy="433.119" r="7.5"/><circle cx="385.542" cy="433.119" r="7.5"/></g></svg>