<svg id="Layer_3" enable-background="new 0 0 64 64" height="512" viewBox="0 0 64 64" width="512" xmlns="http://www.w3.org/2000/svg"><g><path d="m60.95 47 2.05-.001v-2h-2.05c-.08-.966-.274-1.899-.569-2.787l2.013-.862-.788-1.838-2.009.86c-.404-.759-.887-1.467-1.438-2.118l1.549-1.549-1.415-1.414-1.548 1.548c-.723-.612-1.521-1.133-2.376-1.562l.816-2.037-1.857-.744-.812 2.027c-.805-.246-1.648-.404-2.516-.475v-2.048h-2v2.052c-.966.08-1.899.274-2.786.569l-.862-2.014-1.838.788.861 2.01c-.759.404-1.467.887-2.118 1.438l-1.55-1.549-1.414 1.415 1.549 1.549c-.612.723-1.134 1.521-1.562 2.376l-2.037-.816-.744 1.857 2.027.812c-.246.805-.404 1.648-.475 2.515h-2.051v2h2.05c.08.966.273 1.899.569 2.787l-2.013.862.787 1.838 2.01-.861c.404.759.887 1.467 1.438 2.118l-1.548 1.548 1.414 1.415 1.549-1.549c.723.612 1.521 1.134 2.376 1.562l-.815 2.036 1.857.744.811-2.027c.805.247 1.648.404 2.516.476l-.001 2.049h2l-.001-2.049c.966-.08 1.899-.273 2.787-.569l.862 2.012 1.838-.788-.86-2.009c.759-.404 1.467-.887 2.118-1.438l1.548 1.548 1.415-1.415-1.548-1.548c.612-.723 1.134-1.521 1.562-2.376l2.036.815.744-1.857-2.026-.811c.246-.805.403-1.648.475-2.515z" fill="#534f44"/><path d="m57 8h-28c-1.105 0-2-.895-2-2 0-1.105.895-2 2-2h26c1.105 0 2 .895 2 2z" fill="#7f786b"/><g><path d="m57.001 32.173c1.505.871 2.855 1.947 3.999 3.243v-7.416h-4v4.141z" fill="#cbc3b6"/></g><path d="m5 41.832c-1.123.491-2.138 1.181-3.001 2.027l.001-6.859h3z" fill="#cbc3b6"/><path d="m5.112 41.784c1.195-.505 2.509-.784 3.888-.784 5.523 0 10 4.477 10 10h14.798-.001c-.517-1.573-.797-3.254-.797-5 0-8.837 7.163-16 16-16 2.914 0 5.647.779 8 2.141v-24.141h-25l-7 18h-14c-3.314 0-6 2.686-6 6v9.832z" fill="#f2c351"/><path d="m39 11h-8.167l-5.833 15h16v-13c0-1.105-.895-2-2-2z" fill="#c7e2fc"/><circle cx="9" cy="51" fill="#534f44" r="7"/><circle cx="49" cy="46" fill="#f2c351" r="6"/><g><path d="m49 47.999c-1.103 0-2-.897-2-2s.897-2 2-2 2 .897 2 2-.897 2-2 2zm0-2.001v.002z" fill="#f7d881"/></g><circle cx="9" cy="51" fill="#f2c351" r="3"/><path d="m53 26h-8c-.552 0-1-.448-1-1v-13c0-.552.448-1 1-1h8c.552 0 1 .448 1 1v13c0 .552-.448 1-1 1z" fill="#c7e2fc"/><path d="m26 43h4v4h-4z" fill="#625d51"/><path d="m23 37h-15v-5c0-1.657 1.343-3 3-3h12z" fill="#625d51"/><g><path d="m19 29h2v8h-2z" fill="#7f786b"/></g><g><path d="m16 29h2v8h-2z" fill="#7f786b"/></g><g><path d="m13 29h2v8h-2z" fill="#7f786b"/></g><path d="m11 29c-.353 0-.686.072-1 .184v7.815h2v-7.999z" fill="#7f786b"/><path d="m40.509 28.998c-3.504 1.753-6.391 4.559-8.246 8.002h-6.249v-8z" fill="#f7d881"/><path d="m36.662 14.669c0-1.274-.19-2.502-.523-3.669h-5.305l-5.834 15h5.329c3.796-2.35 6.333-6.539 6.333-11.331z" fill="#ebf7fe"/><path d="m44 12v13c0 .552.448 1 1 1h.329c3.796-2.35 6.333-6.539 6.333-11.331 0-1.274-.19-2.502-.523-3.669h-6.139c-.552 0-1 .448-1 1z" fill="#ebf7fe"/><g><path d="m9.001 43c-4.412 0-8 3.588-8 8 0 4.411 3.588 8 8 8 4.411 0 8-3.588 8-8-.001-4.412-3.589-8-8-8zm0 13.999c-3.309 0-6-2.691-6-6s2.691-6 6-6c3.308 0 6 2.691 6 6-.001 3.309-2.692 6-6 6z"/><path d="m49.001 39c-3.86 0-7 3.14-7 7 0 3.859 3.14 7 7 7 3.859 0 7-3.14 7-7-.001-3.86-3.141-7-7-7zm0 11.999c-2.757 0-5-2.243-5-5s2.243-5 5-5 5 2.243 5 5c-.001 2.757-2.243 5-5 5z"/><path d="m49.001 44c-1.103 0-2 .897-2 2s.897 2 2 2 2-.897 2-2c-.001-1.104-.897-2-2-2z"/><path d="m9.001 47c-2.206 0-4 1.794-4 4s1.794 4 4 4 4-1.794 4-4c-.001-2.207-1.794-4-4-4zm0 5.999c-1.103 0-2-.897-2-2s.897-2 2-2 2 .897 2 2c-.001 1.103-.897 2-2 2z"/><path d="m63 46.999v-2h-1.05c-.085-1.105-.307-2.169-.651-3.18l1.096-.469-.787-1.838-1.095.469c-.458-.873-1.013-1.686-1.651-2.429l.846-.846-1.415-1.415-.846.846c-.82-.704-1.73-1.301-2.708-1.785l.445-1.11-1.857-.744-.439 1.096c-.922-.29-1.891-.468-2.888-.544v-1.05h-2v1.051c-1.105.085-2.169.307-3.18.651l-.469-1.096-1.838.788.469 1.094c-.873.458-1.686 1.014-2.429 1.651l-.845-.846-1.415 1.414.846.846c-.704.82-1.301 1.73-1.785 2.708l-1.111-.445-.743 1.856 1.096.439c-.29.922-.468 1.891-.544 2.888h-1.051v2h1.051c.085 1.104.307 2.169.651 3.18l-1.096.469.788 1.838 1.094-.469c.458.873 1.013 1.686 1.65 2.429l-.846.846 1.415 1.415.846-.846c.82.704 1.73 1.301 2.708 1.785l-.445 1.111 1.857.744.439-1.097c.922.29 1.891.468 2.888.545v1.051h2v-1.051c1.104-.085 2.169-.307 3.179-.651l.469 1.096 1.838-.788-.469-1.094c.873-.458 1.686-1.014 2.429-1.651l.846.846 1.414-1.415-.846-.845c.704-.82 1.301-1.73 1.785-2.708l1.112.445.743-1.857-1.096-.439c.29-.922.468-1.891.545-2.889zm-13.999 10c-6.065 0-11-4.935-11-11s4.935-11 11-11 11 4.935 11 11c-.001 6.065-4.935 11-11 11z"/><path d="m34.001 46c0-8.271 6.729-15 15-15 4.3 0 8.401 1.852 11.25 5.079.276.312.717.423 1.104.273.389-.147.646-.52.646-.936v-7.417c0-.552-.448-1-1-1h-3v-18.999-2c0-1.654-1.346-3-3-3h-26c-1.654 0-3 1.346-3 3s1.346 3 3 3h1.538l-6.222 16h-13.316c-3.86 0-7 3.14-7 7v4h-2c-.552 0-1 .448-1 1l-.001 6.859c0 .403.242.766.613.922.374.157.801.075 1.088-.208 1.691-1.66 3.929-2.573 6.3-2.573 4.962 0 9 4.037 9 9 0 .552.447 1 1 1h14.797c.321 0 .622-.154.811-.414.188-.26.24-.594.14-.899-.497-1.506-.748-3.083-.748-4.687zm26-17.001v4.04c-.63-.535-1.304-1.008-2-1.443v-2.597zm-32-22.999c0-.552.448-1 1-1h26c.552 0 1 .448 1 1v1h-24.001-3c-.551 0-.999-.449-.999-1zm3.517 6h7.482c.552 0 1 .448 1 1v11.999h-13.537zm-28.518 25.999h1v3.205c-.341.175-.677.362-1 .573zm29.475 12.001h-12.519c-.507-5.6-5.227-10-10.955-10-1.029 0-2.035.145-3 .417v-8.417c0-2.757 2.243-5 5-5h14 16c.553 0 1-.447 1-1v-13c0-1.654-1.346-3-3-3h-6.705l.389-1h23.315v21.519c-2.178-.985-4.558-1.52-7-1.52-9.374 0-17 7.626-17 17 .001 1.358.16 2.698.475 4.001z"/><path d="m45.001 26.999h8c1.103 0 2-.897 2-2v-12.999c0-1.103-.897-2-2-2h-8c-1.103 0-2 .897-2 2v12.999c0 1.103.897 2 2 2zm0-14.999h8l.001 12.999h-8.001z"/><path d="m30 42h-4c-.553 0-1 .447-1 1v4c0 .553.447 1 1 1h4c.553 0 1-.447 1-1v-4c0-.553-.447-1-1-1zm-1 3.999h-2v-2h2z"/><path d="m23 28h-12c-2.206 0-4 1.794-4 4v5c0 .553.447 1 1 1h15c.553 0 1-.447 1-1v-8c0-.553-.447-1-1-1zm-11 2h1v6h-1zm3 0h1v6h-1zm3 0h1v6h-1zm-8.999 2c0-.737.405-1.375 1-1.722v5.721h-1zm12.999 3.999h-1v-6h1z"/><path d="m41.483 28.767c-.107-.451-.51-.77-.974-.77l-14.495.003c-.552 0-1 .448-1 1v8c0 .552.448 1 1 1h6.249c.368 0 .706-.202.88-.526 1.772-3.289 4.474-5.911 7.814-7.582.415-.208.633-.673.526-1.125zm-9.807 7.233h-4.662v-6l9.979-.001c-2.151 1.611-3.954 3.642-5.317 6.001z"/></g></g></svg>