<svg id="Filled" height="512" viewBox="0 0 512 512" width="512" xmlns="http://www.w3.org/2000/svg"><path d="m440 144h-32s-16 8-40 8-40-8-40-8-16 8-40 8-40-8-40-8h-16v160h256v-112a48 48 0 0 0 -48-48z" fill="#737d49"/><path d="m232 176v176h-208v-64a32 32 0 0 1 32-32h32v-48a32 32 0 0 1 32-32z" fill="#737d49"/><path d="m120 208h64v144h-64z" fill="#4d5230"/><path d="m120 208h64v64h-64z" fill="#60663c"/><circle cx="96" cy="368" fill="#464c4f" r="48"/><path d="m216 288h272v64h-272z" fill="#4d5230"/><circle cx="320" cy="368" fill="#464c4f" r="48"/><circle cx="416" cy="368" fill="#464c4f" r="48"/><path d="m216 256h32v64h-32z" fill="#60663c"/><path d="m248 128v128h-32v-128h-32v-32h32a32 32 0 0 1 32 32z" fill="#4d5230"/><path d="m248 288h240v32h-240z" fill="#60663c"/><path d="m312 288h32v32h-32z" fill="#4d5230"/><path d="m392 288h32v32h-32z" fill="#4d5230"/><g fill="#606669"><circle cx="96" cy="368" r="16"/><circle cx="320" cy="368" r="16"/><circle cx="416" cy="368" r="16"/></g><path d="m440 136h-32a8.11 8.11 0 0 0 -3.553.833c-.147.067-14.839 7.167-36.447 7.167s-36.3-7.1-36.422-7.155a8.048 8.048 0 0 0 -7.131-.012c-.147.067-14.839 7.167-36.447 7.167a96.388 96.388 0 0 1 -32-5.373v-10.627a40.045 40.045 0 0 0 -40-40h-32a8 8 0 0 0 -8 8v32a8 8 0 0 0 8 8h24v32h-88a40.045 40.045 0 0 0 -40 40v40h-24a40.045 40.045 0 0 0 -40 40v64a8 8 0 0 0 8 8h16.581a55.99 55.99 0 0 0 106.005 32h122.828a55.974 55.974 0 0 0 98.586 4.81 55.978 55.978 0 0 0 103.419-36.81h16.581a8 8 0 0 0 8-8v-160a56.063 56.063 0 0 0 -56-56zm-170.586 208h-45.414v-16h56.862a56.251 56.251 0 0 0 -11.448 16zm-45.414-80h16v48h-16zm128 48v-16h32v16zm-32-16h16v16h-16zm-16 16h-48v-16h48zm72.862 16a56.345 56.345 0 0 0 -8.862 11.19 56.345 56.345 0 0 0 -8.862-11.19zm23.138-16v-16h16v16zm32-16h48v16h-48zm-32-140.544v124.544h-64v-124.545a114.936 114.936 0 0 0 64 0zm-112 4.544a113.963 113.963 0 0 0 32-4.545v124.545h-64v-124.545a113.957 113.957 0 0 0 32 4.545zm-96-40v-16h24a24.028 24.028 0 0 1 24 24v120h-16v-120a8 8 0 0 0 -8-8zm-160 224v-56a24.028 24.028 0 0 1 24-24h32a8 8 0 0 0 8-8v-48a24.028 24.028 0 0 1 24-24h88v160h-16v-136a8 8 0 0 0 -8-8h-64a8 8 0 0 0 -8 8v106.341a55.958 55.958 0 0 0 -66.586 29.659zm96-21.917v-42.083h48v16h-8a8 8 0 0 0 0 16h8v32h-29.414a56.377 56.377 0 0 0 -18.586-21.917zm48-58.083h-48v-48h48zm-80 144a40 40 0 1 1 40-40 40.045 40.045 0 0 1 -40 40zm88-32h-32.581a55.368 55.368 0 0 0 0-16h32.581zm16 0v-16h64.581a55.368 55.368 0 0 0 0 16zm120 32a40 40 0 1 1 40-40 40.045 40.045 0 0 1 -40 40zm96 0a40 40 0 1 1 40-40 40.045 40.045 0 0 1 -40 40zm50.586-64a56.251 56.251 0 0 0 -11.448-16h24.862v16zm13.414-64h-64v-128h24a40.045 40.045 0 0 1 40 40z"/><path d="m96 344a24 24 0 1 0 24 24 24.027 24.027 0 0 0 -24-24zm0 32a8 8 0 1 1 8-8 8.009 8.009 0 0 1 -8 8z"/><path d="m320 344a24 24 0 1 0 24 24 24.027 24.027 0 0 0 -24-24zm0 32a8 8 0 1 1 8-8 8.009 8.009 0 0 1 -8 8z"/><path d="m416 344a24 24 0 1 0 24 24 24.027 24.027 0 0 0 -24-24zm0 32a8 8 0 1 1 8-8 8.009 8.009 0 0 1 -8 8z"/></svg>