<svg id="Layer_1" enable-background="new 0 0 512 512" height="512" viewBox="0 0 512 512" width="512" xmlns="http://www.w3.org/2000/svg"><g><g><path d="m504.5 306.958v99.98c0 11.35-9.21 20.56-20.56 20.56h-143.63v-285.72h72.27c11.36 0 20.56 9.21 20.56 20.57v123.79h50.55c11.49 0 20.81 9.32 20.81 20.82z" fill="#eef0f5"/><path d="m384.58 141.778h28c11.36 0 20.56 9.21 20.56 20.57v123.79h-28v-123.79c0-11.36-9.2-20.57-20.56-20.57z" fill="#dae1ea"/><path d="m504.5 306.958v99.98c0 11.35-9.21 20.56-20.56 20.56h-143.63v-28.41h18.58c6.61 0 12.76-3.23 16.65-8.57 11.29-15.52 29.59-25.6 50.24-25.6 8.12 0 15.88 1.56 22.99 4.4 13.3 5.3 27.73-4.72 27.73-19.04v-43.32c0-11.5-9.32-20.82-20.81-20.82h28c11.49 0 20.81 9.32 20.81 20.82z" fill="#dae1ea"/><path d="m504.5 325.118v30h-27.46c-.18 0-.36 0-.54-.01-3.93-.14-7.47-1.79-10.06-4.38-2.72-2.72-4.4-6.46-4.4-10.61 0-8.1 6.43-14.7 14.46-14.99.18-.01.36-.01.54-.01z" fill="#fbdf63"/><path d="m375.43 171.588h57.71v114.55h-57.71z" fill="#00c2f3"/><path d="m405.14 171.588h28v114.55h-28z" fill="#1e90ff"/><path d="m504.5 325.118v30h-27.46c-.18 0-.36 0-.54-.01v-29.98c.18-.01.36-.01.54-.01z" fill="#f9d11f"/><path d="m340.31 106.4v321.1h-313.1c-10.89 0-19.71-8.82-19.71-19.71v-301.39c0-10.88 8.82-19.71 19.71-19.71h293.39c10.88 0 19.71 8.83 19.71 19.71z" fill="#f9d11f"/><path d="m340.31 106.4v321.1h-313.1c-10.89 0-19.71-8.82-19.71-19.71v-28c0 5.91 1.46 11.2 6.75 14.81 7.66 5.24 18.13 3.08 23.64-4.4 11.3-15.33 29.49-25.28 50.01-25.28 21.23 0 39.98 10.66 51.17 26.92 3.29 4.77 8.68 7.66 14.47 7.66h138.44c11.23 0 20.33-9.1 20.33-20.33v-64.98c0-18.5-15.2-33.2-33.7-32.98h-49.67l-37.82 32.25c-4.67 3.98-10.44 5.97-16.22 5.97-5.77 0-11.54-1.99-16.22-5.97l-37.81-32.25h-51.2c-20.59 0-37.27-16.68-37.27-37.27v-157.25h288.2c10.88 0 19.71 8.83 19.71 19.71z" fill="#ffa402"/><path d="m340.31 350.108v77.39h-313.1c-10.89 0-19.71-8.82-19.71-19.71v-57.68z" fill="#b9cfdf"/><path d="m340.31 350.108v77.39h-313.1c-10.89 0-19.71-8.82-19.71-19.71v-28c0 5.91 1.46 11.2 6.75 14.81 7.66 5.24 18.13 3.08 23.64-4.4 11.3-15.33 29.49-25.28 50.01-25.28 21.23 0 39.98 10.66 51.17 26.92 3.29 4.77 8.68 7.66 14.47 7.66h138.44c11.23 0 20.33-9.1 20.33-20.33v-29.06z" fill="#90abbd"/><g><path d="m124.58 427.498c0 20.26-16.43 36.68-36.68 36.68-4.39 0-8.6-.77-12.5-2.19-14.11-5.11-24.18-18.62-24.18-34.49s10.07-29.38 24.18-34.49c3.9-1.42 8.11-2.19 12.5-2.19 20.25 0 36.68 16.42 36.68 36.68z" fill="#56788b"/><path d="m124.58 427.498c0 20.26-16.43 36.68-36.68 36.68-4.39 0-8.6-.77-12.5-2.19 14.1-5.11 24.18-18.62 24.18-34.49s-10.08-29.38-24.18-34.49c3.9-1.42 8.11-2.19 12.5-2.19 20.25 0 36.68 16.42 36.68 36.68z" fill="#415e6f"/></g><g><path d="m462.458 427.498c0 20.26-16.43 36.68-36.68 36.68-4.39 0-8.6-.77-12.5-2.19-14.11-5.11-24.18-18.62-24.18-34.49s10.07-29.38 24.18-34.49c3.9-1.42 8.11-2.19 12.5-2.19 20.25 0 36.68 16.42 36.68 36.68z" fill="#56788b"/><path d="m462.458 427.498c0 20.26-16.43 36.68-36.68 36.68-4.39 0-8.6-.77-12.5-2.19 14.1-5.11 24.18-18.62 24.18-34.49s-10.08-29.38-24.18-34.49c3.9-1.42 8.11-2.19 12.5-2.19 20.25 0 36.68 16.42 36.68 36.68z" fill="#415e6f"/></g></g><path d="m290.41 60.58v183.36c0 6.78-5.49 12.27-12.26 12.27h-58.42l-44.83 38.22-44.82-38.22h-60.42c-6.77 0-12.26-5.49-12.26-12.27v-183.36c0-6.78 5.49-12.27 12.26-12.27h208.49c6.77 0 12.26 5.49 12.26 12.27z" fill="#ed2061"/><path d="m290.41 60.58v183.36c0 6.78-5.49 12.27-12.26 12.27h-27c6.77 0 12.26-5.49 12.26-12.27v-183.36c0-6.78-5.49-12.27-12.26-12.27h27c6.77 0 12.26 5.49 12.26 12.27z" fill="#c71e54"/><path d="m159.113 138.119-39.175 2.576 30.047 25.493-9.859 38.671 33.757-21.321 33.758 21.321-9.86-38.671 30.09-25.493-39.218-2.576-14.77-37.076z" fill="#f9d11f"/></g><g><path d="m483.688 278.646h-43.042v-116.298c0-15.475-12.59-28.064-28.065-28.064h-64.771v-27.882c0-15.002-12.205-27.207-27.208-27.207-4.143 0-7.5 3.357-7.5 7.5s3.357 7.5 7.5 7.5c6.731 0 12.208 5.476 12.208 12.207v236.213h-317.81v-169.052c0-4.143-3.357-7.5-7.5-7.5s-7.5 3.357-7.5 7.5v234.23c0 15.003 12.205 27.208 27.208 27.208h17.236c3.771 20.56 21.821 36.189 43.453 36.189 21.633 0 39.684-15.63 43.454-36.189h119.307c4.143 0 7.5-3.357 7.5-7.5s-3.357-7.5-7.5-7.5h-119.138c-3.369-21.04-21.647-37.167-43.622-37.167-21.974 0-40.252 16.127-43.621 37.167h-17.069c-6.731 0-12.208-5.477-12.208-12.208v-50.18h317.809v62.388h-47.748c-4.143 0-7.5 3.357-7.5 7.5s3.357 7.5 7.5 7.5h97.266c3.771 20.56 21.821 36.189 43.453 36.189s39.683-15.63 43.453-36.189h14.702c15.475 0 28.064-12.59 28.064-28.064v-99.977c.001-15.612-12.7-28.314-28.311-28.314zm-395.791 119.189c16.089 0 29.179 13.089 29.179 29.178s-13.09 29.179-29.179 29.179-29.178-13.09-29.178-29.179 13.09-29.178 29.178-29.178zm295.036-119.189v-99.551h42.713v99.551zm42.847 177.545c-16.089 0-29.178-13.09-29.178-29.179s13.089-29.178 29.178-29.178 29.178 13.089 29.178 29.178-13.089 29.179-29.178 29.179zm58.156-36.189h-14.534c-3.369-21.04-21.647-37.167-43.621-37.167s-40.252 16.127-43.621 37.167h-34.351v-270.719h64.771c7.204 0 13.065 5.86 13.065 13.064v1.748h-50.213c-4.143 0-7.5 3.357-7.5 7.5v114.551c0 4.143 3.357 7.5 7.5 7.5h108.255c7.341 0 13.313 5.973 13.313 13.313v10.664h-19.958c-12.406 0-22.5 10.094-22.5 22.5s10.094 22.5 22.5 22.5h19.958v44.313c0 7.206-5.86 13.066-13.064 13.066zm13.064-87.378v15h-19.958c-4.136 0-7.5-3.364-7.5-7.5s3.364-7.5 7.5-7.5z"/><path d="m392.772 317.624h-17.34c-4.143 0-7.5 3.357-7.5 7.5s3.357 7.5 7.5 7.5h17.34c4.143 0 7.5-3.357 7.5-7.5s-3.357-7.5-7.5-7.5z"/><path d="m7.5 145.898c4.143 0 7.5-3.357 7.5-7.5v-31.997c0-6.731 5.477-12.207 12.208-12.207 4.143 0 7.5-3.357 7.5-7.5s-3.357-7.5-7.5-7.5c-15.003 0-27.208 12.205-27.208 27.207v31.997c0 4.143 3.357 7.5 7.5 7.5z"/><path d="m69.655 263.713h57.664l42.719 36.426c1.402 1.195 3.134 1.793 4.866 1.793s3.465-.598 4.866-1.793l42.72-36.426h55.663c10.896 0 19.759-8.868 19.759-19.769v-91.292c0-4.143-3.357-7.5-7.5-7.5s-7.5 3.357-7.5 7.5v91.292c0 2.629-2.135 4.769-4.759 4.769h-58.427c-1.783 0-3.509.636-4.866 1.793l-39.956 34.069-39.955-34.069c-1.357-1.157-3.083-1.793-4.866-1.793h-60.428c-2.624 0-4.759-2.14-4.759-4.769v-183.368c0-2.629 2.135-4.768 4.759-4.768h208.498c2.624 0 4.759 2.139 4.759 4.768v57.116c0 4.143 3.357 7.5 7.5 7.5s7.5-3.357 7.5-7.5v-57.116c0-10.899-8.863-19.768-19.759-19.768h-208.498c-10.896 0-19.759 8.868-19.759 19.768v183.368c0 10.901 8.864 19.769 19.759 19.769z"/><path d="m234.993 138.346c-.957-2.902-3.58-4.934-6.631-5.134l-34.494-2.267-13.018-32.678c-1.137-2.853-3.897-4.725-6.968-4.725s-5.831 1.872-6.968 4.725l-13.018 32.679-34.451 2.266c-3.049.2-5.672 2.23-6.63 5.132s-.06 6.094 2.27 8.07l26.475 22.461-8.702 34.131c-.759 2.976.374 6.113 2.857 7.919 1.312.953 2.859 1.434 4.41 1.434 1.389 0 2.779-.385 4.005-1.159l29.752-18.791 29.753 18.791c2.599 1.642 5.932 1.531 8.415-.274s3.616-4.943 2.857-7.919l-8.701-34.127 26.512-22.461c2.334-1.977 3.233-5.171 2.275-8.073zm-42.059 22.119c-2.189 1.854-3.129 4.796-2.42 7.575l5.206 20.419-17.832-11.262c-1.224-.772-2.614-1.159-4.005-1.159s-2.782.387-4.005 1.159l-17.831 11.262 5.206-20.419c.708-2.777-.229-5.717-2.415-7.571l-15.919-13.506 20.687-1.36c2.886-.189 5.405-2.021 6.476-4.708l7.802-19.585 7.802 19.585c1.07 2.687 3.59 4.519 6.477 4.708l20.709 1.36z"/></g></svg>