<svg id="Layer_1" enable-background="new 0 0 256 256" height="512" viewBox="0 0 256 256" width="512" xmlns="http://www.w3.org/2000/svg"><path d="m26 77h60.999v90h-60.999z" fill="#ede49d"/><path d="m229.999 149-35.999-72h-43.588l13.588 72v18h65.999z" fill="#d3ba2a"/><path d="m150.412 77h-63.413v90h77.001v-18z" fill="#eee045"/><path d="m229.999 170h-203.999c-1.657 0-3-1.343-3-3v-90c0-1.657 1.343-3 3-3h168c1.137 0 2.175.642 2.684 1.658l35.999 72c.208.417.316.876.316 1.342v18c0 1.657-1.343 3-3 3zm-200.999-6h197.999v-14.292l-34.853-69.708h-163.146z" fill="#1c2d6b"/><path d="m231.67 185h-207.34c-2.391 0-4.33-1.939-4.33-4.33v-9.34c0-2.391 1.939-4.33 4.33-4.33h207.34c2.391 0 4.33 1.939 4.33 4.33v9.34c0 2.391-1.939 4.33-4.33 4.33z" fill="#65bc49"/><path d="m231.67 188h-207.34c-4.042 0-7.33-3.288-7.33-7.33v-9.34c0-4.042 3.288-7.33 7.33-7.33h207.34c4.042 0 7.33 3.288 7.33 7.33v9.34c0 4.042-3.288 7.33-7.33 7.33zm-207.34-18c-.733 0-1.33.597-1.33 1.33v9.34c0 .733.597 1.33 1.33 1.33h207.34c.733 0 1.33-.597 1.33-1.33v-9.34c0-.733-.597-1.33-1.33-1.33z" fill="#1c2d6b"/><path d="m91.957 53h-55.957c-5.523 0-10 4.477-10 10v14h60v-18.043c0-3.29 2.667-5.957 5.957-5.957z" fill="#89aadb"/><path d="m200 53h-55.148c3.948 0 7.148 3.2 7.148 7.148v9.704c0 3.948-3.2 7.148-7.148 7.148h55.148c6.627 0 12-5.373 12-12s-5.373-12-12-12z" fill="#4b67b0"/><path d="m152 69.852v-9.704c0-3.948-3.2-7.148-7.148-7.148h-52.895c-3.29 0-5.957 2.667-5.957 5.957v18.043h58.852c3.948 0 7.148-3.2 7.148-7.148z" fill="#6287c5"/><path d="m200 80h-174c-1.657 0-3-1.343-3-3v-14c0-7.168 5.832-13 13-13h164c8.271 0 15 6.729 15 15s-6.729 15-15 15zm-171-6h171c4.963 0 9-4.038 9-9s-4.037-9-9-9h-164c-3.86 0-7 3.14-7 7z" fill="#1c2d6b"/><path d="m212 149h7.005v18h-7.005z" fill="#89aadb"/><path d="m222.995 149h7.005v18h-7.005z" fill="#4b67b0"/><path d="m219.005 149h3.991v18h-3.991z" fill="#6287c5"/><path d="m230 170h-18c-1.657 0-3-1.343-3-3v-18c0-1.657 1.343-3 3-3h18c1.657 0 3 1.343 3 3v18c0 1.657-1.343 3-3 3zm-15-6h12v-12h-12z" fill="#1c2d6b"/><path d="m124.113 95h-9.113c-2.761 0-5 2.239-5 5v67h10.993v-68.88c0-1.724 1.397-3.12 3.12-3.12z" fill="#ef7f72"/><path d="m141 95h-9.113c1.723 0 3.12 1.396 3.12 3.12v68.88h10.993v-67c0-2.761-2.239-5-5-5z" fill="#e8383b"/><path d="m131.887 95h-7.774c-1.723 0-3.12 1.396-3.12 3.12v68.88h14.013v-68.88c.001-1.724-1.396-3.12-3.119-3.12z" fill="#e95947"/><path d="m146 170h-36c-1.657 0-3-1.343-3-3v-67c0-4.411 3.589-8 8-8h26c4.411 0 8 3.589 8 8v67c0 1.657-1.343 3-3 3zm-33-6h30v-64c0-1.103-.897-2-2-2h-26c-1.103 0-2 .897-2 2z" fill="#1c2d6b"/><path d="m130.007 131h-4.013c-2.761 0-5-2.239-5-5v-14c0-2.761 2.239-5 5-5h4.013c2.761 0 5 2.239 5 5v14c0 2.761-2.239 5-5 5z" fill="#65bc49"/><path d="m130.007 134h-4.013c-4.411 0-8-3.589-8-8v-14c0-4.411 3.589-8 8-8h4.013c4.411 0 8 3.589 8 8v14c0 4.411-3.589 8-8 8zm-4.013-24c-1.103 0-2 .897-2 2v14c0 1.103.897 2 2 2h4.013c1.103 0 2-.897 2-2v-14c0-1.103-.897-2-2-2z" fill="#1c2d6b"/><path d="m181.28 126v-26c0-2.761.621-5 1.387-5h-13.667c-2.761 0-5 2.239-5 5v26c0 2.761 2.239 5 5 5h13.667c-.766 0-1.387-2.239-1.387-5z" fill="#a4d4a0"/><path d="m203 95h-10.904l4.993 36h23.911z" fill="#419b46"/><path d="m182.667 95c-.766 0-1.387 2.239-1.387 5v26c0 2.761.621 5 1.387 5h14.422l-4.992-36z" fill="#65bc49"/><path d="m56 128.113v-30.226c0-1.595 1.292-2.887 2.887-2.887h-15.887c-2.761 0-5 2.239-5 5v26c0 2.761 2.239 5 5 5h15.887c-1.595 0-2.887-1.292-2.887-2.887z" fill="#a4d4a0"/><path d="m87 95h-15.887c1.595 0 2.887 1.292 2.887 2.887v30.227c0 1.594-1.292 2.887-2.887 2.887h15.887c2.761 0 5-2.239 5-5v-26c0-2.762-2.239-5.001-5-5.001z" fill="#419b46"/><path d="m74 128.113v-30.226c0-1.595-1.292-2.887-2.887-2.887h-12.226c-1.595 0-2.887 1.292-2.887 2.887v30.227c0 1.594 1.292 2.887 2.887 2.887h12.226c1.595-.001 2.887-1.293 2.887-2.888z" fill="#65bc49"/><path d="m221 134h-52c-4.411 0-8-3.589-8-8v-26c0-4.411 3.589-8 8-8h34c1.137 0 2.175.642 2.684 1.658l18 36c.465.93.415 2.035-.132 2.919s-1.512 1.423-2.552 1.423zm-52-36c-1.103 0-2 .897-2 2v26c0 1.103.897 2 2 2h47.146l-15-30z" fill="#1c2d6b"/><path d="m87 134h-44c-4.411 0-8-3.589-8-8v-26c0-4.411 3.589-8 8-8h44c4.411 0 8 3.589 8 8v26c0 4.411-3.589 8-8 8zm-44-36c-1.103 0-2 .897-2 2v26c0 1.103.897 2 2 2h44c1.103 0 2-.897 2-2v-26c0-1.103-.897-2-2-2z" fill="#1c2d6b"/><path d="m58.806 179c0-13.255 4.116-24 9.194-24-13.255 0-24 10.745-24 24s10.745 24 24 24c-5.078 0-9.194-10.745-9.194-24z" fill="#ef7f72"/><path d="m68 155c5.078 0 9.194 10.745 9.194 24s-4.116 24-9.194 24c13.255 0 24-10.745 24-24s-10.745-24-24-24z" fill="#e8383b"/><ellipse cx="68" cy="179" fill="#e95947" rx="9.194" ry="24"/><path d="m68 206c-14.888 0-27-12.112-27-27s12.112-27 27-27 27 12.112 27 27-12.112 27-27 27zm0-48c-11.58 0-21 9.42-21 21s9.42 21 21 21 21-9.42 21-21-9.42-21-21-21z" fill="#1c2d6b"/><path d="m172.784 179c0-13.255 4.116-24 9.194-24-13.255 0-24 10.745-24 24s10.745 24 24 24c-5.077 0-9.194-10.745-9.194-24z" fill="#ef7f72"/><path d="m181.978 155c5.078 0 9.194 10.745 9.194 24s-4.116 24-9.194 24c13.255 0 24-10.745 24-24s-10.745-24-24-24z" fill="#e8383b"/><ellipse cx="181.978" cy="179" fill="#e95947" rx="9.194" ry="24"/><path d="m178.048 179c0-6.627 1.76-12 3.931-12-6.627 0-12 5.373-12 12s5.373 12 12 12c-2.172 0-3.931-5.373-3.931-12z" fill="#89aadb"/><path d="m181.978 167c2.171 0 3.931 5.373 3.931 12s-1.76 12-3.931 12c6.627 0 12-5.373 12-12s-5.372-12-12-12z" fill="#4b67b0"/><ellipse cx="181.978" cy="179" fill="#6287c5" rx="3.931" ry="12"/><path d="m181.979 206c-14.888 0-27-12.112-27-27s12.112-27 27-27 27 12.112 27 27-12.113 27-27 27zm0-48c-11.579 0-21 9.42-21 21s9.421 21 21 21 21-9.42 21-21-9.421-21-21-21z" fill="#1c2d6b"/><path d="m64.069 179c0-6.627 1.76-12 3.931-12-6.627 0-12 5.373-12 12s5.373 12 12 12c-2.171 0-3.931-5.373-3.931-12z" fill="#89aadb"/><path d="m68 167c2.171 0 3.931 5.373 3.931 12s-1.76 12-3.931 12c6.627 0 12-5.373 12-12s-5.373-12-12-12z" fill="#4b67b0"/><ellipse cx="68" cy="179" fill="#6287c5" rx="3.931" ry="12"/><g fill="#1c2d6b"><path d="m68 194c-8.271 0-15-6.729-15-15s6.729-15 15-15 15 6.729 15 15-6.729 15-15 15zm0-24c-4.962 0-9 4.038-9 9s4.038 9 9 9 9-4.038 9-9-4.038-9-9-9z"/><path d="m182 194c-8.271 0-15-6.729-15-15s6.729-15 15-15 15 6.729 15 15-6.729 15-15 15zm0-24c-4.963 0-9 4.038-9 9s4.037 9 9 9 9-4.038 9-9-4.037-9-9-9z"/></g></svg>