<svg id="Layer_1" enable-background="new 0 0 512.001 512.001" height="512" viewBox="0 0 512.001 512.001" width="512" xmlns="http://www.w3.org/2000/svg"><g><g clip-rule="evenodd" fill-rule="evenodd"><path d="m392 336.002c-17.77 0-33.735 7.725-44.722 20-9.501 10.615-15.278 24.633-15.278 40 0 33.137 26.863 60 60 60s60-26.863 60-60c0-15.367-5.777-29.385-15.278-40-10.987-12.275-26.952-20-44.722-20zm0 40c11.046 0 20 8.954 20 20 0 11.045-8.954 20-20 20s-20-8.955-20-20c0-11.046 8.954-20 20-20z" fill="#6d91ac"/><ellipse cx="392" cy="396.002" fill="#e3eaef" rx="20" ry="20" transform="matrix(.983 -.186 .186 .983 -66.94 80.002)"/><path d="m436.722 356.002c9.501 10.615 15.278 24.633 15.278 40h40.002c5.498 0 10-4.5 10-10v-20c0-5.5-4.501-10-10-10z" fill="#a7bdcd"/><path d="m332 396.002c0-15.367 5.777-29.385 15.278-40h-91.277-91.277c9.501 10.615 15.278 24.633 15.278 40z" fill="#a7bdcd"/><path d="m180.001 396.002c0-15.367-5.777-29.385-15.278-40-10.986-12.275-26.952-20-44.722-20s-33.735 7.725-44.722 20c-9.501 10.615-15.278 24.633-15.278 40 0 33.137 26.863 60 60 60 33.138 0 60-26.863 60-60zm-59.999-20c11.045 0 20 8.954 20 20 0 11.045-8.954 20-20 20s-20-8.955-20-20c0-11.046 8.954-20 20-20z" fill="#6d91ac"/><circle cx="120.002" cy="396.002" fill="#e3eaef" r="20"/><path d="m60.002 396.002c0-15.367 5.777-29.385 15.278-40h-45.28c-5.498 0-10 4.5-10 10v20c0 5.5 4.501 10 10 10z" fill="#a7bdcd"/><path d="m347.283 136v-20c0-10.999-9.001-20-20-20h-39.999c-10.999 0-20 9-20 20v20z" fill="#cff5fd"/><path d="m327.283 96c10.999 0 20 9.001 20 20v20h34.717 40.001c22.001 0 40-18 40-40s-18-40-40-40c-73.667 0-127.333 0-201 0-40.634 0-37.185 40-91 40-22 0-40 18-40 40h177.283v-20c0-11 9-20 20-20z" fill="#e3eaef"/><path d="m397.285 206.001c-5.497 0-10 4.502-10 10v40.001c0 5.497 4.5 10 10 10h54.717l-21.819-60.001z" fill="#cff5fd"/><path d="m347.284 355.996v-139.996c0-5.5-4.5-10-10-10h-60c-5.5 0-10 4.5-10 10v140.001h79.995c.001-.002.003-.004.005-.005z" fill="#e3eaef"/><path d="m227.282 256.002v-40.002c0-5.5-4.505-10-10-10h-117.28c-5.497 0-10 4.502-10 10v40.001c0 5.497 4.5 10 10 10h117.28c5.5 0 10-4.499 10-9.999z" fill="#cff5fd"/><path d="m100.002 206.001h117.28c5.495 0 10 4.5 10 10v40.001c0 5.5-4.5 10-10 10h-117.28c-5.5 0-10-4.502-10-10v-40.002c0-5.497 4.503-9.999 10-9.999zm167.282 150v-140.001c0-5.5 4.5-10 10-10h60c5.5 0 10 4.5 10 10v139.995c10.986-12.271 26.949-19.994 44.716-19.994 17.77 0 33.735 7.725 44.721 19.999h55.281v-50c0-22-18.002-40-40-40h-54.717c-5.5 0-10-4.502-10-10v-40c0-5.497 4.503-10 10-10h32.898l-18.182-50.001c-3.759-10.337-13.76-20-30.001-20h-34.717-79.999-177.283-20c-10.995 0-20 9.005-20 20v50.001 110 40.001h25.279c10.986-12.275 26.952-19.999 44.721-19.999 17.77 0 33.735 7.725 44.721 19.999z" fill="#e3eaef"/><path d="m50.001 316-.001-110h-20c-11 0-20 9-20 20v70c0 11 9 20 20 20z" fill="#a7bdcd"/></g><g><path d="m120.002 366.002c-16.542 0-30 13.458-30 30s13.458 30 30 30 30-13.458 30-30-13.458-30-30-30zm0 40c-5.514 0-10-4.486-10-10s4.486-10 10-10 10 4.486 10 10c-.001 5.514-4.486 10-10 10z"/><path d="m392 366.002c-16.542 0-30 13.458-30 30s13.458 30 30 30 30-13.458 30-30-13.458-30-30-30zm0 40c-5.514 0-10-4.486-10-10s4.486-10 10-10 10 4.486 10 10-4.486 10-10 10z"/><path d="m502.002 348.707v-42.706c0-25.128-18.633-45.987-42.808-49.484l-37.795-103.935c-.797-2.193-1.838-4.41-3.114-6.582h3.716c27.57 0 50-22.43 50-50s-22.43-50-50-50h-201c-22.803 0-34.627 10.919-45.059 20.553-10.829 10-21.058 19.447-45.941 19.447-12.984 0-25.306 4.995-34.695 14.064-7.368 7.116-12.282 16.126-14.284 25.936h-11.022c-16.542 0-30 13.458-30 30v40.001h-.001-9.999c-16.542 0-30 13.458-30 30v70c0 16.542 13.458 30 30 30h10.001v20.001h-10.001c-11.028 0-20 8.972-20 20v20c0 11.028 8.972 20 20 20h20.728c4.868 33.877 34.072 60 69.274 60s64.406-26.124 69.274-60h133.45c4.868 33.877 34.072 60 69.274 60s64.406-26.124 69.274-60h30.728c11.028 0 20-8.972 20-20v-20c-.001-7.384-4.033-13.83-10-17.295zm-64.277-92.706h-40.44v-40.001h25.894zm-307.724-150.001c32.706 0 47.568-13.725 59.51-24.754 9.585-8.851 16.51-15.246 31.49-15.246h201c16.542 0 30 13.458 30 30s-13.458 30-30 30h-40.001-24.717v-10c0-16.542-13.458-30-30-30h-39.999c-16.542 0-30 13.458-30 30v10h-155.528c4.19-11.592 15.408-20 28.245-20zm207.282 20h-59.999v-10c0-5.514 4.486-10 10-10h39.999c5.514 0 10 4.486 10 10zm-307.283 180c-5.514 0-10-4.486-10-10v-70c0-5.514 4.486-10 10-10h10 .001v90zm30.001 20h10c5.523 0 10-4.477 10-10s-4.477-10-10-10h-10v-150.001c0-5.514 4.486-10 10-10h312c14.59 0 19.458 10.27 20.603 13.417l13.304 36.584h-18.621c-11.028 0-20 8.972-20 20v40.001c0 11.028 8.972 20 20 20h54.717c16.542 0 30 13.458 30 29.999h-10c-5.523 0-10 4.477-10 10s4.477 10 10 10h10v20.001h-41.08c-12.63-12.36-29.897-19.999-48.922-19.999-12.629 0-24.477 3.379-34.717 9.254v-119.256c0-11.028-8.972-20-20-20h-60c-11.028 0-20 8.972-20 20v130h-88.36c-12.63-12.36-29.897-19.999-48.922-19.999s-36.292 7.639-48.922 19.999h-11.08zm262.725 60.001h-133.45c-1.014-7.059-3.08-13.781-6.043-20h145.536c-2.963 6.219-5.028 12.942-6.043 20zm14.558-40h-60v-130h60zm-307.284 20h26.77c-2.963 6.219-5.028 12.941-6.043 20h-20.727zm90.002 80.001c-27.57 0-50-22.43-50-50s22.43-50 50-50 50 22.43 50 50c-.001 27.57-22.43 50-50 50zm271.998 0c-27.57 0-50-22.43-50-50s22.43-50 50-50 50 22.43 50 50-22.43 50-50 50zm69.274-60.001c-1.014-7.059-3.08-13.781-6.043-20h36.77v20z"/><path d="m100.002 276.001h117.28c11.028 0 20-8.972 20-20v-40.001c0-11.028-8.972-20-20-20h-13.636c-5.523 0-10 4.477-10 10s4.477 10 10 10h13.636v40.001h-117.28v-40.001h13.644c5.523 0 10-4.477 10-10s-4.477-10-10-10h-13.644c-11.028 0-20 8.972-20 20v40.001c0 11.029 8.972 20 20 20z"/><path d="m297.285 271.001h-.007c-5.523 0-9.997 4.477-9.997 10s4.481 10 10.004 10 10-4.477 10-10-4.477-10-10-10z"/><path d="m158.65 216.001c5.523 0 10-4.477 10-10s-4.477-10-10-10h-.008c-5.523 0-9.996 4.477-9.996 10s4.481 10 10.004 10z"/></g></g></svg>