<svg id="Layer_35" enable-background="new 0 0 64 64" height="512" viewBox="0 0 64 64" width="512" xmlns="http://www.w3.org/2000/svg"><path d="m56 6v2h-20v-2c0-2.21 1.79-4 4-4h12c2.21 0 4 1.79 4 4z" fill="#ff826e"/><path d="m62 14h-54.49c.38-.86.87-1.66 1.48-2.39 1.91-2.29 4.73-3.61 7.71-3.61h19.3 20c3.31 0 6 2.69 6 6z" fill="#fcd770"/><path d="m62 46h-7.92l-.01.01c-1.71-1.28-3.82-2.01-6.07-2.01s-4.36.73-6.07 2.01l-.01-.01h-7.92v-22c0-2.21-1.79-4-4-4h-12c-2.21 0-4 1.79-4 4v26c-1.1 0-2 .9-2 2h-5l-3-6 2.71-28.9c.1-1.08.37-2.12.8-3.1h54.49z" fill="#e6e9ed"/><path d="m48 20h-10v10h10 10v-10z" fill="#69d6f4"/><path d="m36 56c1.1 0 2 .9 2 2v4h-28v-4c0-1.1.9-2 2-2z" fill="#dfb28b"/><path d="m36 52v4h-24v-4c0-1.1.9-2 2-2h20c1.1 0 2 .9 2 2z" fill="#dfb28b"/><g fill="#aab2bd"><path d="m4 46 3 6h-5v-6z"/><path d="m34 46h7.92l.01.01c-1.88 1.36-3.28 3.37-3.87 5.75l-.06.24h-2c0-1.1-.9-2-2-2z"/><path d="m54.3 46.17c-.08-.06-.15-.12-.23-.16l.01-.01h7.92v2l-3 4h-1l-.06-.24c-.57-2.28-1.88-4.22-3.64-5.59z"/></g><path d="m55.75 52h-4.29-6.92-4.29-2.25l.06-.24c.59-2.38 1.99-4.39 3.87-5.75 1.71-1.28 3.82-2.01 6.07-2.01s4.36.73 6.07 2.01c.08.04.15.1.23.16 1.76 1.37 3.07 3.31 3.64 5.59l.06.24z" fill="#ccd1d9"/><path d="m52 54c0 2.21-1.79 4-4 4s-4-1.79-4-4c0-.73.2-1.41.54-2h6.92c.34.59.54 1.27.54 2z" fill="#e6e9ed"/><path d="m48 58c2.21 0 4-1.79 4-4 0-.73-.2-1.41-.54-2h4.29c.16.64.25 1.31.25 2 0 4.42-3.58 8-8 8s-8-3.58-8-8c0-.69.09-1.36.25-2h4.29c-.34.59-.54 1.27-.54 2 0 2.21 1.79 4 4 4z" fill="#838f9b"/><path d="m34 24h-20c0-2.21 1.79-4 4-4h12c2.21 0 4 1.79 4 4z" fill="#d3a06c"/><path d="m14 50v-26h20v22 4z" fill="#cf9e76"/><circle cx="18" cy="34" fill="#969faa" r="2"/><path d="m57 7.08v-1.08c0-2.757-2.243-5-5-5h-12c-2.757 0-5 2.243-5 5v1h-18.3c-3.284 0-6.374 1.447-8.477 3.97-1.433 1.719-2.3 3.806-2.509 6.034l-2.625 27.996h-2.089v8h5.382.618 4v2.184c-1.161.414-2 1.514-2 2.816v5h30v-5c0-1.302-.839-2.402-2-2.816v-2.184h2.063c-.037.332-.063.665-.063 1 0 4.963 4.038 9 9 9s9-4.037 9-9c0-.335-.026-.668-.063-1h2.563l3.5-4.667v-34.333c0-3.519-2.613-6.432-6-6.92zm-20-1.08c0-1.654 1.346-3 3-3h12c1.654 0 3 1.346 3 3v1h-18zm-20.3 3h39.3c2.414 0 4.434 1.721 4.899 4h-51.675c.171-.254.337-.512.535-.75 1.722-2.065 4.252-3.25 6.941-3.25zm-13.7 42v-4h.382l2 4zm2.022-5.191 2.683-28.619c.071-.757.257-1.486.508-2.19h52.787v30h-6.604c-1.831-1.266-4.04-2-6.396-2s-4.565.734-6.396 2h-6.604v-21c0-2.757-2.243-5-5-5h-12c-2.757 0-5 2.243-5 5v25.184c-.847.302-1.514.969-1.816 1.816h-3.566zm45.978 8.191c0 1.654-1.346 3-3 3s-3-1.346-3-3c0-.345.08-.679.194-1h5.611c.115.321.195.655.195 1zm-11.651-3c1.339-3.578 4.755-6 8.651-6s7.313 2.423 8.651 6zm-2.533 0c-.302-.847-.969-1.514-1.816-1.816v-2.184h4.407c-.967 1.148-1.711 2.499-2.164 4zm-23.816 4v-3c0-.552.449-1 1-1h20c.551 0 1 .448 1 1v3zm2-21v-9h18v24h-18zm.184-11c.414-1.161 1.514-2 2.816-2h12c1.302 0 2.402.839 2.816 2zm21.816 38h-26v-3c0-.552.449-1 1-1h24c.551 0 1 .448 1 1zm18-7c0 3.859-3.14 7-7 7s-7-3.141-7-7c0-.336.03-.669.077-1h2.034c-.066.328-.111.662-.111 1 0 2.757 2.243 5 5 5s5-2.243 5-5c0-.338-.045-.672-.112-1h2.034c.048.331.078.664.078 1zm3.685-3.246c-.458-1.404-1.176-2.669-2.091-3.754h4.406v.667z"/><path d="m59 19h-22v12h22zm-20 2h8v8h-8zm18 8h-8v-8h8z"/><path d="m18 37c1.654 0 3-1.346 3-3s-1.346-3-3-3-3 1.346-3 3 1.346 3 3 3zm0-4c.551 0 1 .448 1 1s-.449 1-1 1-1-.448-1-1 .449-1 1-1z"/><path d="m57 41h2v2h-2z"/><path d="m57 37h2v2h-2z"/><path d="m57 33h2v2h-2z"/></svg>