<?xml version="1.0" encoding="iso-8859-1"?>
<!-- Generator: Adobe Illustrator 19.0.0, SVG Export Plug-In . SVG Version: 6.00 Build 0)  -->
<svg version="1.1" id="Capa_1" xmlns="http://www.w3.org/2000/svg" xmlns:xlink="http://www.w3.org/1999/xlink" x="0px" y="0px"
	 viewBox="0 0 512 512" style="enable-background:new 0 0 512 512;" xml:space="preserve">
<path style="fill:#76D1E3;" d="M491,186v158H21v-66.2c0-5.523,4.477-10,10-10h32L84,186H491z"/>
<rect x="168.22" y="186.08" style="fill:#FFD359;" width="322.79" height="157.92"/>
<rect x="462.17" y="186.08" style="fill:#F5B540;" width="28.827" height="157.92"/>
<path style="fill:#D1D3D4;" d="M168.215,344H21v-66.159c0-5.523,4.477-10,10-10h137.215V344z"/>
<path style="fill:#FFD359;" d="M46.401,322.562H21v-30h25.401c2.54,0,4.599,1.986,4.599,4.435v21.13
	C51,320.576,48.941,322.562,46.401,322.562z"/>
<path style="fill:#2D86CC;" d="M491,186H44.205c-9.739,0-15.421-10.989-9.792-18.936l20.12-28.404
	c5.624-7.941,14.75-12.66,24.481-12.66H491V186z"/>
<rect x="462.17" y="126" style="fill:#266FAB;" width="28.827" height="60"/>
<path style="fill:#2D86CC;" d="M11.685,344h488.629c2.311,0,4.185,2.442,4.185,5.455v19.091c0,3.012-1.874,5.455-4.185,5.455H11.685
	c-2.311,0-4.185-2.442-4.185-5.455v-19.091C7.5,346.442,9.374,344,11.685,344z"/>
<path style="fill:#266FAB;" d="M500.315,344h-30.589c2.311,0,4.185,2.442,4.185,5.455v19.091c0,3.012-1.874,5.455-4.185,5.455
	h30.589c2.312,0,4.185-2.442,4.185-5.455v-19.091C504.5,346.442,502.626,344,500.315,344z"/>
<rect x="257.93" y="186.08" style="fill:#D1D3D4;" width="73.48" height="157.92"/>
<g>
	<rect x="331.41" y="216.08" style="fill:#76D1E3;" width="130.76" height="51.757"/>
	<rect x="198.22" y="216.08" style="fill:#76D1E3;" width="59.718" height="51.757"/>
</g>
<g>
	<rect x="123.21" y="96" style="fill:#D1D3D4;" width="100" height="30"/>
	<rect x="353.45" y="96" style="fill:#D1D3D4;" width="100" height="30"/>
</g>
<g>
	<rect x="423.45" y="96" style="fill:#A7A9AC;" width="30" height="30"/>
	<rect x="193.21" y="96" style="fill:#A7A9AC;" width="30" height="30"/>
</g>
<circle style="fill:#756A6B;" cx="87.55" cy="373.5" r="42.5"/>
<path style="fill:#D1D3D4;" d="M87.92,388.5c-8.271,0-15-6.729-15-15s6.729-15,15-15s15,6.729,15,15S96.191,388.5,87.92,388.5z"/>
<circle style="fill:#756A6B;" cx="410.95" cy="373.5" r="42.5"/>
<path style="fill:#D1D3D4;" d="M411.322,388.5c-8.271,0-15-6.729-15-15s6.729-15,15-15s15,6.729,15,15S419.593,388.5,411.322,388.5z
	"/>
<path d="M289.75,283.133h-4.185c-4.142,0-7.5,3.357-7.5,7.5s3.358,7.5,7.5,7.5h4.185c4.142,0,7.5-3.357,7.5-7.5
	S293.892,283.133,289.75,283.133z"/>
<path d="M130.206,298.133h4.186c4.142,0,7.5-3.357,7.5-7.5s-3.358-7.5-7.5-7.5h-4.186c-4.142,0-7.5,3.357-7.5,7.5
	S126.063,298.133,130.206,298.133z"/>
<path d="M500.31,336.5h-1.81V332c0-4.143-3.358-7.5-7.5-7.5s-7.5,3.357-7.5,7.5v4.5h-38.954c-8.883-8.073-20.675-13-33.596-13
	s-24.713,4.927-33.596,13h-38.441v-61.159h123.261c4.142,0,7.5-3.357,7.5-7.5v-51.757c0-4.143-3.358-7.5-7.5-7.5H338.912V193.58
	H483.5V303.5c0,4.143,3.358,7.5,7.5,7.5s7.5-3.357,7.5-7.5V186.08c0-0.013-0.002-0.027-0.002-0.04s0.002-0.027,0.002-0.04v-60
	c0-4.143-3.358-7.5-7.5-7.5h-30.051V96c0-4.143-3.358-7.5-7.5-7.5h-100c-4.142,0-7.5,3.357-7.5,7.5v22.5H268
	c-4.142,0-7.5,3.357-7.5,7.5c0,4.143,3.358,7.5,7.5,7.5h85.449h100H483.5v45H44.206c-2.472,0-3.619-1.701-3.997-2.433
	s-1.104-2.651,0.325-4.669l20.12-28.403c4.211-5.945,11.076-9.495,18.361-9.495h44.2h100H235.5c4.142,0,7.5-3.357,7.5-7.5
	s-3.358-7.5-7.5-7.5h-4.786V96c0-4.143-3.358-7.5-7.5-7.5h-100c-4.142,0-7.5,3.357-7.5,7.5v22.5h-36.7
	c-12.142,0-23.582,5.915-30.601,15.824l-20.12,28.404c-4.232,5.975-4.771,13.726-1.408,20.229s10,10.543,17.321,10.543h30.126
	l-1.32,5.142c-1.03,4.013,1.388,8.1,5.4,9.13c0.625,0.16,1.252,0.237,1.87,0.237c3.342,0,6.39-2.251,7.259-5.637l2.278-8.872h70.892
	v66.84H72.659l7.313-28.485c1.03-4.013-1.388-8.1-5.4-9.13c-4.009-1.027-8.099,1.388-9.129,5.399l-8.26,32.176H31
	c-9.649,0-17.5,7.851-17.5,17.5v0.04v14.723v30V336.5h-1.81C5.135,336.5,0,342.188,0,349.45v19.1c0,7.262,5.135,12.95,11.69,12.95
	h26.505c3.841,23.78,24.505,42,49.352,42s45.511-18.22,49.352-42h224.698c3.841,23.78,24.505,42,49.352,42s45.511-18.22,49.352-42
	h40.009c6.555,0,11.69-5.688,11.69-12.95v-19.1C512,342.188,506.865,336.5,500.31,336.5z M360.949,118.5v-15h85v15H360.949z
	 M130.714,103.5h85v15h-85V103.5z M361.449,366.5H137.047c-0.748-5.312-2.329-10.357-4.613-15h35.776h89.723h73.479h34.651
	C363.778,356.143,362.197,361.188,361.449,366.5z M250.433,260.341h-44.718v-36.757h44.718V260.341z M265.433,336.5v-68.659v-51.757
	v-22.5h58.479v22.5v51.757V336.5H265.433z M454.673,223.584v36.757H338.912v-36.757H454.673z M250.433,208.584h-52.218
	c-4.142,0-7.5,3.357-7.5,7.5v51.757c0,4.143,3.358,7.5,7.5,7.5h52.218V336.5H175.71v-68.66v-74.26h74.723L250.433,208.584
	L250.433,208.584z M28.5,300.063h15v15h-15V300.063z M28.5,330.063h17.9c6.672,0,12.1-5.354,12.1-11.936v-21.13
	c0-6.581-5.428-11.935-12.1-11.935H28.5v-7.223c0-1.379,1.122-2.5,2.5-2.5h129.71v61.16h-39.566c-8.883-8.073-20.675-13-33.596-13
	s-24.713,4.927-33.596,13H28.5V330.063z M15,351.5h6h21.661c-2.285,4.643-3.866,9.688-4.613,15H15V351.5z M87.547,408.5
	c-19.299,0-35-15.701-35-35s15.701-35,35-35s35,15.701,35,35S106.846,408.5,87.547,408.5z M410.949,408.5c-19.299,0-35-15.701-35-35
	s15.701-35,35-35s35,15.701,35,35S430.248,408.5,410.949,408.5z M497,366.5h-36.551c-0.748-5.312-2.329-10.357-4.613-15H491h6V366.5
	z"/>
<path d="M87.92,351c-12.407,0-22.5,10.094-22.5,22.5S75.514,396,87.92,396s22.5-10.094,22.5-22.5S100.327,351,87.92,351z M87.92,381
	c-4.136,0-7.5-3.364-7.5-7.5s3.364-7.5,7.5-7.5s7.5,3.364,7.5,7.5S92.056,381,87.92,381z"/>
<path d="M411.322,351c-12.407,0-22.5,10.094-22.5,22.5s10.093,22.5,22.5,22.5s22.5-10.094,22.5-22.5S423.729,351,411.322,351z
	 M411.322,381c-4.136,0-7.5-3.364-7.5-7.5s3.364-7.5,7.5-7.5s7.5,3.364,7.5,7.5S415.458,381,411.322,381z"/>
<g>
</g>
<g>
</g>
<g>
</g>
<g>
</g>
<g>
</g>
<g>
</g>
<g>
</g>
<g>
</g>
<g>
</g>
<g>
</g>
<g>
</g>
<g>
</g>
<g>
</g>
<g>
</g>
<g>
</g>
</svg>
