<svg height="512" viewBox="0 0 64 64" width="512" xmlns="http://www.w3.org/2000/svg"><g id="Filled_outline" data-name="Filled outline"><path d="m58 29-3-6h-13v-4h-37l-2 14 2 12v2h8l1-2h16l2 2h6l2-2h21v-14z" fill="#fcec97"/><circle cx="22" cy="47" fill="#394d5c" r="6"/><circle cx="22" cy="47" fill="#f4f4e6" r="2"/><circle cx="48" cy="47" fill="#394d5c" r="6"/><circle cx="48" cy="47" fill="#f4f4e6" r="2"/><path d="m50 23h-8v10h11v-4z" fill="#50b4f8"/><path d="m12 23h8a2 2 0 0 1 2 2v16a0 0 0 0 1 0 0h-12a0 0 0 0 1 0 0v-16a2 2 0 0 1 2-2z" fill="#f9bb4b"/><path d="m14 27h4v4h-4z" fill="#f4f4e6"/><path d="m4.333 41h5.667v-4h-6.333z" fill="#e97424"/><path d="m10 37v-4h-7l.667 4z" fill="#dd3e46"/><path d="m22 37h35v4h-35z" fill="#55b56a"/><path d="m28 23h4a0 0 0 0 1 0 0v10a0 0 0 0 1 0 0h-4a2 2 0 0 1 -2-2v-6a2 2 0 0 1 2-2z" fill="#50b4f8"/><path d="m32 23h4a2 2 0 0 1 2 2v6a2 2 0 0 1 -2 2h-4a0 0 0 0 1 0 0v-10a0 0 0 0 1 0 0z" fill="#2d75bb"/><path d="m57 39h4v6h-4z" fill="#f9bb4b"/><path d="m59 33h2a0 0 0 0 1 0 0v6a0 0 0 0 1 0 0h-4a0 0 0 0 1 0 0v-4a2 2 0 0 1 2-2z" fill="#e97424"/><path d="m54 11h-14l-6 2-29 2v4h37v4h17v-8z" fill="#f9bb4b"/><path d="m48 15h2a0 0 0 0 1 0 0v4a0 0 0 0 1 0 0h-2a2 2 0 0 1 -2-2 2 2 0 0 1 2-2z" fill="#dd3e46"/><path d="m50 15h2a2 2 0 0 1 2 2 2 2 0 0 1 -2 2h-2a0 0 0 0 1 0 0v-4a0 0 0 0 1 0 0z" fill="#fcf05a"/><path d="m41 14h2v2h-2z" fill="#fcec97"/><path d="m37 14h2v2h-2z" fill="#fcec97"/><path d="m22 44a3 3 0 1 0 3 3 3 3 0 0 0 -3-3zm0 4a1 1 0 1 1 1-1 1 1 0 0 1 -1 1z"/><path d="m48 44a3 3 0 1 0 3 3 3 3 0 0 0 -3-3zm0 4a1 1 0 1 1 1-1 1 1 0 0 1 -1 1z"/><path d="m19 27a1 1 0 0 0 -1-1h-4a1 1 0 0 0 -1 1v4a1 1 0 0 0 1 1h4a1 1 0 0 0 1-1zm-2 3h-2v-2h2z"/><path d="m36 22h-8a3 3 0 0 0 -3 3v6a3 3 0 0 0 3 3h8a3 3 0 0 0 3-3v-6a3 3 0 0 0 -3-3zm-5 10h-3a1 1 0 0 1 -1-1v-6a1 1 0 0 1 1-1h3zm6-1a1 1 0 0 1 -1 1h-3v-8h3a1 1 0 0 1 1 1z"/><path d="m56.618 24h2.382a1 1 0 0 0 1-1v-8a1 1 0 0 0 -.375-.781l-5-4a1 1 0 0 0 -.625-.219h-14a1 1 0 0 0 -.316.051l-5.88 1.96-28.873 1.989a1 1 0 0 0 -.931 1v3.93l-2.012 14.082 2.012 12.071v.917h-2v2h11.618l1-2h.462a7 7 0 1 0 13.84 0h.666l2 2h6.828l2-2h.666a7 7 0 1 0 13.84 0h7.08v-15.535l-3.224-2.15zm-50.618-8.066 28.069-1.934a.993.993 0 0 0 .247-.049l5.846-1.951h13.487l4.351 3.48v6.52h-15v-4h-37zm46 13.3v2.766h-9v-8h6.382zm-47.821 4.766h4.821v2h-4.49zm.668 4h4.153v2h-3.819zm8.535 6-1 2h-6.382v-1l-.5-3h11.61a7.033 7.033 0 0 0 -1.425 2zm7.618-7v3h-10v-15a1 1 0 0 1 1-1h8a1 1 0 0 1 1 1v10h-2v2zm1 15a5 5 0 1 1 5-5 5.006 5.006 0 0 1 -5 5zm17.586-8-2 2h-5.172l-2-2h-2.1a7.033 7.033 0 0 0 -1.425-2h16.221a7.033 7.033 0 0 0 -1.425 2zm8.414 8a5 5 0 1 1 5-5 5.006 5.006 0 0 1 -5 5zm8-8h-1.685a7.033 7.033 0 0 0 -1.425-2h3.11zm0-4h-33v-2h33zm4 4h-2v-4h2zm0-6h-2v-3a1 1 0 0 1 1-1h1zm0-6h-1a3 3 0 0 0 -3 3v1h-33v-11a3 3 0 0 0 -3-3h-8a3 3 0 0 0 -3 3v7h-4.847l.286-2h2.561v-2h-2.276l.286-2h1.99v-2h-1.7l.571-4h35.129v13a1 1 0 0 0 1 1h11a1 1 0 0 0 1-1v-4a1 1 0 0 0 -.1-.447l-2.282-4.553h2.764l2.842 5.685 2.776 1.85z"/><path d="m48 20h4a3 3 0 0 0 0-6h-4a3 3 0 0 0 0 6zm3-4h1a1 1 0 0 1 0 2h-1zm-3 0h1v2h-1a1 1 0 0 1 0-2z"/><path d="m41 14h2v2h-2z"/><path d="m37 14h2v2h-2z"/></g></svg>