<?xml version="1.0" encoding="iso-8859-1"?>
<!-- Generator: Adobe Illustrator 19.0.0, SVG Export Plug-In . SVG Version: 6.00 Build 0)  -->
<svg version="1.1" id="Capa_1" xmlns="http://www.w3.org/2000/svg" xmlns:xlink="http://www.w3.org/1999/xlink" x="0px" y="0px"
	 viewBox="0 0 512.139 512.139" style="enable-background:new 0 0 512.139 512.139;" xml:space="preserve">
<g transform="translate(-1)">
	<g transform="translate(1 1)">
		<path style="fill:#37474F;" d="M367.073,156.223h-25.259c0,0-208.469-0.085-281.941,0l-0.341-51.2l247.808-54.101l25.6-5.632
			l-0.427,6.571l0.427,1.963l6.315,17.408l5.802,15.957l5.889,16.043l5.803,15.957l10.325,28.501v0.427
			C367.073,147.689,369.975,156.223,367.073,156.223z"/>
		<g>
			<path style="fill:#607D8B;" d="M341.814,156.223c0,0-208.469-0.085-281.941,0l-0.341-51.2l247.808-54.101l-0.085,0.939
				l0.427,1.963l6.315,17.408l5.803,15.957l5.888,16.043l5.803,15.957l10.325,28.501v0.427
				C341.814,147.689,344.715,156.223,341.814,156.223z"/>
			<path style="fill:#607D8B;" d="M452.406,335.423h34.133c9.426,0,17.067,7.641,17.067,17.067v76.8h-51.2V335.423z"/>
		</g>
		<path style="fill:#009688;" d="M360.417,45.716l-27.904,6.144L59.531,111.935l-9.131,1.963c-2.774,0.587-5.664-0.129-7.843-1.942
			c-2.179-1.813-3.408-4.525-3.335-7.359c0.34-8.147,2.811-16.061,7.167-22.955c6.555-10.21,16.901-17.394,28.758-19.968
			l160.597-35.328c0,0,72.789-12.715,125.184,1.621c4.049,1.13,6.806,4.873,6.685,9.075
			C367.493,41.243,364.524,44.822,360.417,45.716z"/>
		<g>
			<circle style="fill:#607D8B;" cx="128.139" cy="446.356" r="42.667"/>
			<circle style="fill:#607D8B;" cx="384.139" cy="446.356" r="42.667"/>
		</g>
		<polygon style="fill:#00695C;" points="469.473,318.356 469.788,412.223 469.788,446.356 427.122,446.356 51.655,446.356 
			8.988,429.289 8.988,318.356 42.806,318.356 		"/>
		<polygon style="fill:#009688;" points="443.574,318.356 443.873,412.223 443.873,446.356 403.578,446.356 48.967,446.356 
			8.673,429.289 8.673,318.356 40.604,318.356 		"/>
		<g>
			<path style="fill:#CFD8DC;" d="M8.673,429.289h42.667c9.414,0.027,17.039,7.652,17.067,17.067
				c-0.068,9.397-7.669,16.998-17.067,17.067h-25.6c-9.414-0.028-17.039-7.653-17.067-17.067V429.289z"/>
			<path style="fill:#CFD8DC;" d="M503.606,446.356c-0.068,9.397-7.669,16.998-17.067,17.067h-25.6
				c-9.414-0.028-17.039-7.653-17.067-17.067c0.068-9.397,7.669-16.999,17.067-17.067h42.667V446.356z"/>
			<path style="fill:#CFD8DC;" d="M367.392,318.356H8.992V207.423c-0.584-5.689-0.383-11.432,0.597-17.067l7.936-8.533h401.067
				v8.533c32.014,35.052,50.209,80.538,51.2,128H367.392z"/>
		</g>
		<g>
			<path style="fill:#00BCD4;" d="M406.218,284.223h-98.56c-4.707-0.014-8.519-3.826-8.533-8.533v-42.667
				c0.014-4.707,3.826-8.519,8.533-8.533h83.968c6.141-0.015,11.815,3.279,14.848,8.619l14.592,25.6
				c3.013,5.285,2.984,11.775-0.076,17.034C417.93,281,412.302,284.231,406.218,284.223z"/>
			<path style="fill:#00BCD4;" d="M196.747,224.489h59.733c4.713,0,8.533,3.821,8.533,8.533v42.667c0,4.713-3.821,8.533-8.533,8.533
				h-59.733c-4.713,0-8.533-3.821-8.533-8.533v-42.667C188.214,228.31,192.034,224.489,196.747,224.489z"/>
			<path style="fill:#00BCD4;" d="M85.814,224.489h59.733c4.713,0,8.533,3.821,8.533,8.533v42.667c0,4.713-3.821,8.533-8.533,8.533
				H85.814c-4.713,0-8.533-3.821-8.533-8.533v-42.667C77.281,228.31,81.101,224.489,85.814,224.489z"/>
		</g>
		<path style="fill:#00695C;" d="M435.339,190.356H8.843c2.987-17.664,14.933-42.667,59.136-42.667h290.133
			c7.376-0.021,14.732,0.78,21.931,2.389C399.926,154.431,435.339,165.78,435.339,190.356z"/>
		<path style="fill:#009688;" d="M401.377,190.356H8.843c2.987-17.664,14.933-42.667,59.136-42.667H324.15
			c7.376-0.021,14.732,0.78,21.931,2.389C365.963,154.431,401.377,165.78,401.377,190.356z"/>
		<path style="fill:#607D8B;" d="M469.814,318.356h-25.6c-0.991-47.462-19.186-92.948-51.2-128v-8.533h25.6v8.533
			C450.628,225.408,468.823,270.895,469.814,318.356z"/>
		<path style="fill:#00695C;" d="M235.745,26.345c0,0,72.789-12.715,125.184,1.621c4.049,1.13,6.806,4.873,6.685,9.075
			c-0.121,4.202-3.09,7.78-7.197,8.674l-27.904,6.144l-5.973-1.109c3.669-0.928,6.28-4.174,6.398-7.956
			c0.119-3.783-2.283-7.186-5.886-8.342c-46.336-13.141-110.592-1.451-110.592-1.451L235.745,26.345z"/>
	</g>
	<g>
		<path d="M308.681,293.756h98.592c9.126,0.001,17.561-4.857,22.142-12.75c4.58-7.893,4.612-17.627,0.083-25.55l-14.625-25.604
			c-4.572-7.965-13.049-12.882-22.233-12.896h-83.959c-9.421,0.011-17.056,7.645-17.067,17.067v42.667
			C291.625,286.111,299.259,293.745,308.681,293.756z M400.056,238.323l14.625,25.6c1.506,2.641,1.494,5.884-0.032,8.514
			c-1.526,2.63-4.336,4.25-7.376,4.253h-21.792v-42.667h7.158C395.702,234.027,398.53,235.666,400.056,238.323L400.056,238.323z
			 M308.681,234.023h59.733v42.667h-59.733V234.023z"/>
		<path d="M197.747,293.756h59.733c9.421-0.011,17.056-7.645,17.067-17.067v-42.667c-0.011-9.421-7.645-17.056-17.067-17.067
			h-59.733c-9.421,0.011-17.056,7.645-17.067,17.067v42.667C180.691,286.111,188.326,293.745,197.747,293.756z M197.747,234.023
			h59.733l0.009,42.667h-59.742V234.023z"/>
		<path d="M86.814,293.756h59.733c9.421-0.011,17.056-7.645,17.067-17.067v-42.667c-0.011-9.421-7.645-17.056-17.067-17.067H86.814
			c-9.421,0.011-17.056,7.645-17.067,17.067v42.667C69.758,286.111,77.393,293.745,86.814,293.756z M86.814,234.023h59.733
			l0.009,42.667H86.814V234.023z"/>
		<path d="M112.414,344.956h-51.2c-4.713,0-8.533,3.82-8.533,8.533s3.821,8.533,8.533,8.533h51.2c4.713,0,8.533-3.82,8.533-8.533
			S117.127,344.956,112.414,344.956z"/>
		<path d="M112.414,370.556h-51.2c-4.713,0-8.533,3.82-8.533,8.533s3.821,8.533,8.533,8.533h51.2c4.713,0,8.533-3.82,8.533-8.533
			S117.127,370.556,112.414,370.556z"/>
		<path d="M504.606,481.489h-17.067c-4.713,0-8.533,3.821-8.533,8.533c0,4.713,3.82,8.533,8.533,8.533h17.067
			c4.713,0,8.533-3.821,8.533-8.533C513.139,485.31,509.319,481.489,504.606,481.489z"/>
		<path d="M487.539,327.889h-8.192v-8.533c-0.612-43.3-15.177-85.248-41.53-119.61c4.395-0.332,7.798-3.982,7.822-8.39
			c0-22.596-22.017-39.858-61.942-48.604c-3.021-0.681-6.14-1.124-9.267-1.539l-11.373-31.277l-0.002-0.027l-0.025-0.048
			l-18.439-50.705l18.655-4.101c8.008-1.675,13.78-8.686,13.884-16.867c0.301-8.144-5.092-15.406-12.976-17.471
			c-53.625-14.642-125.825-2.313-129.233-1.708L74.289,54.319c-24.193,5.231-41.731,26.244-42.55,50.983
			c-0.16,4.792,1.629,9.445,4.958,12.896c3.329,3.451,7.914,5.407,12.709,5.42c0.985-0.026,1.966-0.134,2.933-0.321v18.219
			c-25.883,2.635-46.602,22.64-50.142,48.415v0.009c-1.069,6.105-1.424,12.313-1.058,18.5v238.916
			c0.015,14.132,11.468,25.585,25.6,25.6h25.6c10.813-0.033,20.435-6.868,24.027-17.067h2.344c1.614,9.534,5.906,18.413,12.375,25.6
			H9.673c-4.713,0-8.533,3.821-8.533,8.533c0,4.713,3.821,8.533,8.533,8.533h443.733c4.713,0,8.533-3.821,8.533-8.533
			c0-4.713-3.82-8.533-8.533-8.533h-30.213c6.469-7.187,10.761-16.066,12.375-25.6h2.344c3.592,10.199,13.214,17.034,24.027,17.067
			h25.6c14.132-0.015,25.585-11.468,25.6-25.6v-93.867C513.124,339.357,501.671,327.905,487.539,327.889z M487.539,344.956
			c4.711,0.005,8.529,3.822,8.533,8.533v68.267h-16.725v-76.8H487.539z M442.863,430.452l-9.082-12.113
			c-6.469-8.568-16.572-13.619-27.308-13.65h-42.667c-4.713,0-8.533,3.82-8.533,8.533s3.82,8.533,8.533,8.533h42.667
			c5.37,0.014,10.425,2.541,13.658,6.829l7.677,10.238H193.139l-15.358-20.483c-6.469-8.568-16.572-13.619-27.308-13.65h-42.667
			c-4.713,0-8.533,3.82-8.533,8.533s3.821,8.533,8.533,8.533h42.667c5.37,0.014,10.425,2.541,13.658,6.829l7.677,10.238H76.366
			c-3.592-10.199-13.214-17.034-24.027-17.067H18.205l-0.014-93.867h444.089v6.841c-0.173,0.551-0.288,1.118-0.341,1.693v85.333
			C454.626,421.778,447.676,424.947,442.863,430.452z M334.71,455.889c1.614,9.534,5.906,18.413,12.375,25.6H167.193
			c6.469-7.187,10.761-16.066,12.375-25.6H334.71z M48.789,105.91c0.546-16.959,12.577-31.365,29.167-34.925l160.266-35.233
			c20.576-3.212,41.367-4.851,62.192-4.904c20.105-0.356,40.168,1.971,59.658,6.917c-0.017,0.521-0.192,0.558-0.492,0.625
			l-310,68.141l1.833,8.333L48.789,105.91z M69.406,119.646l258.375-56.794l4.15,11.41l-25.658,6.415
			c-2.974,0.723-5.333,2.984-6.182,5.925c-0.849,2.941-0.057,6.111,2.074,8.308c2.131,2.197,5.276,3.084,8.242,2.325l27.389-6.847
			l5.883,16.179l-29.148,8.318c-2.941,0.828-5.214,3.166-5.96,6.129c-0.746,2.963,0.149,6.098,2.346,8.22
			c2.197,2.122,5.362,2.908,8.297,2.059l30.31-8.65l6.368,17.512H69.747c-0.119,0-0.223,0.012-0.341,0.013V119.646z M69.747,157.223
			h290.133c6.763-0.017,13.507,0.718,20.108,2.192c9.617,2.104,37.6,9.325,46.1,23.408H21.756
			C28.498,165.823,44.589,157.223,69.747,157.223z M18.206,199.889H415.89c26.939,31.026,43.094,69.95,46.043,110.933H18.188
			l-0.016-103.158C18.009,205.075,18.021,202.477,18.206,199.889z M52.339,455.889h-25.6c-4.711-0.005-8.529-3.822-8.533-8.533
			v-8.533h34.133c4.713,0,8.533,3.82,8.533,8.533S57.052,455.889,52.339,455.889z M96.218,455.889h65.842
			c-3.827,15.058-17.384,25.6-32.921,25.6C113.602,481.489,100.046,470.948,96.218,455.889z M385.139,481.489
			c-15.521-0.045-29.053-10.568-32.921-25.6h65.842C414.193,470.921,400.661,481.444,385.139,481.489z M496.073,447.356
			c-0.005,4.711-3.822,8.529-8.533,8.533h-25.6c-4.713,0-8.533-3.82-8.533-8.533s3.82-8.533,8.533-8.533h34.133V447.356z"/>
	</g>
</g>
<g>
</g>
<g>
</g>
<g>
</g>
<g>
</g>
<g>
</g>
<g>
</g>
<g>
</g>
<g>
</g>
<g>
</g>
<g>
</g>
<g>
</g>
<g>
</g>
<g>
</g>
<g>
</g>
<g>
</g>
</svg>
