<?xml version="1.0" encoding="iso-8859-1"?>
<!-- Generator: Adobe Illustrator 19.0.0, SVG Export Plug-In . SVG Version: 6.00 Build 0)  -->
<svg version="1.1" id="Capa_1" xmlns="http://www.w3.org/2000/svg" xmlns:xlink="http://www.w3.org/1999/xlink" x="0px" y="0px"
	 viewBox="0 0 512 512" style="enable-background:new 0 0 512 512;" xml:space="preserve">
<path style="fill:#FCCA75;" d="M431.292,251.981c-0.06-0.077-0.102-0.171-0.162-0.247H307.2
	c-23.552-0.026-42.641-19.115-42.667-42.667v-85.333c0.026-23.552,19.115-42.641,42.667-42.667h89.506
	C393.088,70.835,383.42,64,372.565,64H25.6c-4.71,0-8.533,3.823-8.533,8.533v315.733h19.575c0.316-1.007,0.649-2.005,1.024-3.004
	c11.042-31.036,45.15-47.249,76.186-36.207c16.973,6.033,30.302,19.422,36.284,36.412c0.35,0.905,0.666,1.852,0.956,2.799h158.618
	c0.316-1.007,0.649-2.005,1.024-3.004c11.042-31.036,45.15-47.249,76.186-36.207c16.973,6.033,30.302,19.422,36.284,36.412
	c0.35,0.905,0.666,1.852,0.956,2.799h70.775V371.2h-42.667v-17.067h42.667v-20.565c-0.009-1.971-0.7-3.883-1.954-5.402
	L431.292,251.981z M230.4,328.533c0,4.71-3.823,8.533-8.533,8.533h-179.2c-4.71,0-8.533-3.823-8.533-8.533v-230.4
	c0-4.71,3.823-8.533,8.533-8.533h179.2c4.71,0,8.533,3.823,8.533,8.533V328.533z M315.733,285.867H281.6V268.8h34.133V285.867z"/>
<path style="fill:#FCFCE8;" d="M407.151,391.27c-7.714-22.212-31.983-33.971-54.195-26.249c-12.237,4.25-21.871,13.833-26.18,26.044
	c-0.853,2.253-1.468,4.599-1.835,6.98c-0.444,2.406-0.674,4.847-0.674,7.287c0,23.561,19.106,42.667,42.667,42.667
	s42.667-19.106,42.667-42.667c0-2.355-0.205-4.702-0.632-7.014C408.619,395.913,408.004,393.549,407.151,391.27z M375.467,413.867
	H358.4V396.8h17.067V413.867z"/>
<g>
	<rect x="51.2" y="106.667" style="fill:#F7B1A2;" width="162.133" height="110.933"/>
	<rect x="51.2" y="234.667" style="fill:#F7B1A2;" width="162.133" height="85.333"/>
</g>
<g>
	<path style="fill:#FCFCE8;" d="M281.6,123.733v85.333c0,14.14,11.46,25.6,25.6,25.6h117.76L400.213,98.133H307.2
		C293.06,98.133,281.6,109.594,281.6,123.733z"/>
	<path style="fill:#FCFCE8;" d="M134.084,391.27c-7.714-22.212-31.983-33.971-54.195-26.249
		c-12.237,4.25-21.871,13.833-26.18,26.044c-0.853,2.253-1.468,4.599-1.835,6.98c-0.444,2.406-0.674,4.847-0.674,7.287
		C51.2,428.894,70.306,448,93.867,448s42.667-19.106,42.667-42.667c0-2.355-0.205-4.702-0.631-7.014
		C135.552,395.913,134.938,393.549,134.084,391.27z M102.4,413.867H85.333V396.8H102.4V413.867z"/>
</g>
<path d="M506.257,317.44l-61.739-76.245c-0.623-0.811-1.092-1.724-1.391-2.697c-0.137-0.358-0.239-0.725-0.299-1.101L414.575,81.92
	c-3.729-20.275-21.402-34.987-42.01-34.987H25.6c-14.14,0-25.6,11.46-25.6,25.6V396.8c0,4.71,3.823,8.533,8.533,8.533h25.6
	c0,32.99,26.743,59.733,59.733,59.733s59.733-26.743,59.733-59.733h153.6c0,32.99,26.743,59.733,59.733,59.733
	s59.733-26.743,59.733-59.733h76.8c4.71,0,8.533-3.823,8.533-8.533v-63.232C511.974,327.697,509.952,322.005,506.257,317.44z
	 M424.96,234.667H307.2c-14.14,0-25.6-11.46-25.6-25.6v-85.333c0-14.14,11.46-25.6,25.6-25.6h93.013L424.96,234.667z M93.867,448
	c-23.552-0.026-42.641-19.115-42.667-42.667c0-2.441,0.23-4.881,0.674-7.287c0.367-2.381,0.981-4.727,1.835-6.98
	c7.834-22.178,32.154-33.801,54.332-25.975c12.211,4.309,21.794,13.943,26.044,26.18c0.853,2.278,1.468,4.642,1.818,7.049
	c0.427,2.313,0.631,4.659,0.631,7.014C136.508,428.885,117.419,447.974,93.867,448z M366.933,448
	c-23.552-0.026-42.641-19.115-42.667-42.667c0-2.441,0.23-4.881,0.674-7.287c0.367-2.381,0.981-4.727,1.835-6.98
	c7.834-22.178,32.154-33.801,54.332-25.975c12.211,4.309,21.794,13.943,26.044,26.18c0.853,2.278,1.468,4.642,1.818,7.049
	c0.427,2.313,0.632,4.659,0.632,7.014C409.574,428.885,390.485,447.974,366.933,448z M424.158,388.267
	c-0.29-0.947-0.606-1.894-0.956-2.799c-10.931-31.078-44.979-47.411-76.058-36.489c-16.99,5.973-30.379,19.311-36.412,36.284
	c-0.375,0.998-0.708,1.997-1.024,3.004H151.091c-0.29-0.947-0.606-1.894-0.956-2.799c-10.931-31.078-44.979-47.411-76.058-36.489
	c-16.99,5.973-30.379,19.311-36.412,36.284c-0.375,0.998-0.708,1.997-1.024,3.004H17.067V72.533c0-4.71,3.823-8.533,8.533-8.533
	h346.965c10.854,0,20.523,6.835,24.141,17.067H307.2c-23.552,0.026-42.641,19.115-42.667,42.667v85.333
	c0.026,23.552,19.115,42.641,42.667,42.667h123.93c0.06,0.077,0.102,0.171,0.162,0.247l61.687,76.186
	c1.254,1.519,1.946,3.43,1.954,5.402v20.565h-42.667V371.2h42.667v17.067H424.158z"/>
<rect x="281.6" y="268.8" width="34.133" height="17.067"/>
<path d="M221.867,89.6h-179.2c-4.71,0-8.533,3.823-8.533,8.533v230.4c0,4.71,3.823,8.533,8.533,8.533h179.2
	c4.71,0,8.533-3.823,8.533-8.533v-230.4C230.4,93.423,226.577,89.6,221.867,89.6z M213.333,106.667V217.6H51.2V106.667H213.333z
	 M51.2,320v-85.333h162.133V320H51.2z"/>
<rect x="358.4" y="396.8" width="17.067" height="17.067"/>
<rect x="85.333" y="396.8" width="17.067" height="17.067"/>
<g>
</g>
<g>
</g>
<g>
</g>
<g>
</g>
<g>
</g>
<g>
</g>
<g>
</g>
<g>
</g>
<g>
</g>
<g>
</g>
<g>
</g>
<g>
</g>
<g>
</g>
<g>
</g>
<g>
</g>
</svg>
