<svg height="472pt" viewBox="0 -96 472 472" width="472pt" xmlns="http://www.w3.org/2000/svg"><path d="m320 40-24 16-192-8-24-8 17.945312-17.945312c9-8.996094 21.207032-14.054688 33.933594-14.054688h136.242188c12.726562 0 24.933594 5.058594 33.933594 14.054688zm0 0" fill="#b6534f"/><path d="m8 40h344v208h-344zm0 0" fill="#ebebeb"/><path d="m352 40h64l48 48v24l-16 16h-96zm0 0" fill="#dbdbdb"/><path d="m352 128h56l8 48 40 24v48h-104zm0 0" fill="#d9d9d9"/><path d="m240 96h80v40h-80zm0 0" fill="#b8eaee"/><path d="m280 96h40v40h-40zm0 0" fill="#a8d6da"/><path d="m40 96h88v64h-88zm0 0" fill="#a8d6da"/><path d="m8 200h344v48h-344zm0 0" fill="#ea6b65"/><path d="m416 176h-64v-48h56zm0 0" fill="#b8eaee"/><path d="m352 128v48h56l-8-48zm0 0" fill="#a8d6da"/><path d="m160 208h48v40h-48zm0 0" fill="#c3c3c3"/><path d="m40 96h88v32h-88zm0 0" fill="#b8eaee"/><path d="m80 40h240v24h-240zm0 0" fill="#dbdbdb"/><path d="m376 88h16v16h-16zm0 0" fill="#ea6b65"/><path d="m408 88h16v16h-16zm0 0" fill="#f7ba61"/><path d="m208 160h144v16h-144zm0 0" fill="#ea6b65"/><path d="m160 96h48v120h-48zm0 0" fill="#dbdbdb"/><path d="m112 248c0 13.253906-10.746094 24-24 24s-24-10.746094-24-24 10.746094-24 24-24 24 10.746094 24 24zm0 0" fill="#c3c3c3"/><path d="m88 280c-17.671875 0-32-14.328125-32-32s14.328125-32 32-32 32 14.328125 32 32-14.328125 32-32 32zm0-48c-8.835938 0-16 7.164062-16 16s7.164062 16 16 16 16-7.164062 16-16-7.164062-16-16-16zm0 0" fill="#a8a8a8"/><path d="m424 248c0 13.253906-10.746094 24-24 24s-24-10.746094-24-24 10.746094-24 24-24 24 10.746094 24 24zm0 0" fill="#c3c3c3"/><path d="m400 280c-17.671875 0-32-14.328125-32-32s14.328125-32 32-32 32 14.328125 32 32-14.328125 32-32 32zm0-48c-8.835938 0-16 7.164062-16 16s7.164062 16 16 16 16-7.164062 16-16-7.164062-16-16-16zm0 0" fill="#a8a8a8"/><path d="m421.65625 34.34375c-1.5-1.5-3.535156-2.34375-5.65625-2.34375h-92.6875l-15.59375-15.59375c-10.476562-10.535156-24.738281-16.4453125-39.597656-16.40625h-136.242188c-14.859375-.0390625-29.117187 5.867188-39.589844 16.40625l-15.601562 15.59375h-68.6875c-4.417969 0-8 3.582031-8 8v208c0 4.417969 3.582031 8 8 8h49.136719c3.589843 14.113281 16.300781 23.992188 30.863281 23.992188s27.273438-9.878907 30.863281-23.992188h250.273438c3.589843 14.113281 16.300781 23.992188 30.863281 23.992188s27.273438-9.878907 30.863281-23.992188h25.136719c4.417969 0 8-3.582031 8-8v-48c0-2.808594-1.472656-5.410156-3.878906-6.855469l-36.800782-22.105469-5.878906-35.039062h30.558594c2.121094 0 4.15625-.84375 5.65625-2.34375l16-16c1.5-1.5 2.34375-3.535156 2.34375-5.65625v-24c0-2.121094-.84375-4.15625-2.34375-5.65625zm-318.054688-6.625c7.480469-7.523438 17.664063-11.746094 28.277344-11.71875h136.242188c10.613281-.027344 20.796875 4.195312 28.277344 11.71875l4.289062 4.28125h-201.367188zm-15.601562 20.28125h224v8h-224zm0 216c-8.835938 0-16-7.164062-16-16s7.164062-16 16-16 16 7.164062 16 16-7.164062 16-16 16zm64-24h-33.136719c-3.589843-14.113281-16.300781-23.992188-30.863281-23.992188s-27.273438 9.878907-30.863281 23.992188h-41.136719v-32h136zm48 0h-32v-16h32zm0-32h-32v-104h32zm144 32h-128v-32h128zm0-48h-128v-16h128zm0-32h-128v-64c0-4.417969-3.582031-8-8-8h-48c-4.417969 0-8 3.582031-8 8v96h-136v-144h56v16c0 4.417969 3.582031 8 8 8h240c4.417969 0 8-3.582031 8-8v-16h16zm16-24h41.222656l5.335938 32h-46.558594zm40 128c-8.835938 0-16-7.164062-16-16s7.164062-16 16-16 16 7.164062 16 16-7.164062 16-16 16zm48-59.472656v35.472656h-17.136719c-3.589843-14.113281-16.300781-23.992188-30.863281-23.992188s-27.273438 9.878907-30.863281 23.992188h-9.136719v-56h53.785156zm8-95.839844-11.3125 11.3125h-84.6875v-72h52.6875l43.3125 43.3125zm0 0"/><path d="m320 88h-80c-4.417969 0-8 3.582031-8 8v40c0 4.417969 3.582031 8 8 8h80c4.417969 0 8-3.582031 8-8v-40c0-4.417969-3.582031-8-8-8zm-48 40h-24v-24h24zm40 0h-24v-24h24zm0 0"/><path d="m128 88h-88c-4.417969 0-8 3.582031-8 8v64c0 4.417969 3.582031 8 8 8h88c4.417969 0 8-3.582031 8-8v-64c0-4.417969-3.582031-8-8-8zm-8 64h-72v-16h72zm0-32h-72v-16h72zm0 0"/><path d="m376 88h16v16h-16zm0 0"/><path d="m408 88h16v16h-16zm0 0"/></svg>