<?xml version="1.0" encoding="iso-8859-1"?>
<!-- Generator: Adobe Illustrator 19.0.0, SVG Export Plug-In . SVG Version: 6.00 Build 0)  -->
<svg xmlns="http://www.w3.org/2000/svg" xmlns:xlink="http://www.w3.org/1999/xlink" version="1.1" id="Capa_1" x="0px" y="0px" viewBox="0 0 512 512" style="enable-background:new 0 0 512 512;" xml:space="preserve" width="512" height="512">
<g>
	<g>
		<path style="fill:#4B3F4E;" d="M491.788,316.809l-14.657,14.657c-3.007,3.007-7.085,4.696-11.337,4.696H151.79v8.016H31.548    V231.952h464.935v73.521C496.484,309.724,494.795,313.802,491.788,316.809z"/>
		<path style="fill:#FFE07D;" d="M499.743,200.174l-52.329-85.036c-4.377-7.112-12.13-11.444-20.481-11.444H31.548    c-8.854,0-16.032,7.178-16.032,16.032v128.258h217.811c4.252,0,8.33,1.689,11.337,4.695l30.689,30.689    c3.007,3.007,7.085,4.696,11.337,4.696h34.815c4.252,0,8.33-1.689,11.337-4.696l30.689-30.689    c3.007-3.007,7.085-4.695,11.337-4.695h66.88c4.252,0,8.33,1.689,11.337,4.695l30.689,30.689    c3.007,3.007,7.085,4.696,11.337,4.696h1.375c4.427,0,8.016-3.589,8.016-8.016v-63.07    C504.5,211.045,502.854,205.227,499.743,200.174z"/>
		<circle style="fill:#5D5360;" cx="199.887" cy="344.177" r="64.129"/>
		<path style="fill:#A4CCFF;" d="M183.855,175.839h48.097c4.427,0,8.016-3.589,8.016-8.016v-24.048c0-4.427-3.589-8.016-8.016-8.016    h-48.097c-4.427,0-8.016,3.589-8.016,8.016v24.048C175.839,172.25,179.428,175.839,183.855,175.839z"/>
		<path style="fill:#4B3F4E;" d="M211.911,396.282c-35.417,0-64.129-28.712-64.129-64.129c0-14.641,4.961-28.092,13.218-38.886    c-15.319,11.719-25.243,30.134-25.243,50.911c0,35.417,28.712,64.129,64.129,64.129c20.777,0,39.192-9.924,50.911-25.243    C240.003,391.322,226.552,396.282,211.911,396.282z"/>
		<circle style="fill:#9B959D;" cx="199.887" cy="344.177" r="24.048"/>
		<path style="fill:#857E87;" d="M199.887,320.129c-8.966,0-16.693,4.964-20.829,12.238c3.502-1.991,7.495-3.22,11.811-3.22    c13.282,0,24.048,10.767,24.048,24.048c0,4.316-1.229,8.309-3.219,11.811c7.274-4.136,12.237-11.863,12.237-20.829    C223.935,330.896,213.169,320.129,199.887,320.129z"/>
		<circle style="fill:#5D5360;" cx="71.629" cy="344.177" r="64.129"/>
		<path style="fill:#4B3F4E;" d="M83.653,396.282c-35.417,0-64.129-28.712-64.129-64.129c0-14.641,4.961-28.092,13.218-38.886    C17.424,304.986,7.5,323.401,7.5,344.177c0,35.417,28.712,64.129,64.129,64.129c20.777,0,39.192-9.924,50.911-25.243    C111.745,391.322,98.294,396.282,83.653,396.282z"/>
		<circle style="fill:#9B959D;" cx="71.629" cy="344.177" r="24.048"/>
		<path style="fill:#857E87;" d="M71.629,320.129c-8.966,0-16.693,4.964-20.829,12.238c3.502-1.991,7.495-3.22,11.811-3.22    c13.282,0,24.048,10.767,24.048,24.048c0,4.316-1.229,8.309-3.219,11.811c7.274-4.136,12.237-11.863,12.237-20.829    C95.677,330.896,84.911,320.129,71.629,320.129z"/>
		<circle style="fill:#5D5360;" cx="408.306" cy="344.177" r="64.129"/>
		<path style="fill:#4B3F4E;" d="M420.331,396.282c-35.417,0-64.129-28.712-64.129-64.129c0-14.641,4.961-28.092,13.219-38.886    c-15.319,11.719-25.243,30.134-25.243,50.911c0,35.417,28.712,64.129,64.129,64.129c20.777,0,39.192-9.924,50.911-25.243    C448.423,391.322,434.971,396.282,420.331,396.282z"/>
		<circle style="fill:#9B959D;" cx="408.306" cy="344.177" r="24.048"/>
		<path style="fill:#857E87;" d="M408.306,320.129c-8.966,0-16.693,4.964-20.829,12.238c3.502-1.991,7.495-3.22,11.811-3.22    c13.282,0,24.048,10.767,24.048,24.048c0,4.316-1.229,8.309-3.219,11.811c7.274-4.136,12.237-11.863,12.237-20.829    C432.355,330.896,421.588,320.129,408.306,320.129z"/>
		<path style="fill:#8BB3EA;" d="M231.952,135.758h-48.097c-4.427,0-8.016,3.589-8.016,8.016v13.527h64.129v-13.527    C239.968,139.347,236.379,135.758,231.952,135.758z"/>
		<path style="fill:#A4CCFF;" d="M280.048,175.839h48.097c4.427,0,8.016-3.589,8.016-8.016v-24.048c0-4.427-3.589-8.016-8.016-8.016    h-48.097c-4.427,0-8.016,3.589-8.016,8.016v24.048C272.032,172.25,275.621,175.839,280.048,175.839z"/>
		<path style="fill:#8BB3EA;" d="M328.145,135.758h-48.097c-4.427,0-8.016,3.589-8.016,8.016v13.527h64.129v-13.527    C336.161,139.347,332.572,135.758,328.145,135.758z"/>
		<path style="fill:#A4CCFF;" d="M484.768,175.839l-24.665-40.081h-83.861c-4.427,0-8.016,3.589-8.016,8.016v24.048    c0,4.427,3.589,8.016,8.016,8.016H484.768z"/>
		<path style="fill:#8BB3EA;" d="M460.103,135.758h-83.861c-4.427,0-8.016,3.589-8.016,8.016v13.527h105.086L460.103,135.758z"/>
		<path style="fill:#FFC269;" d="M504.5,239.968v-22.989c0-3.09-0.468-6.14-1.335-9.075h-14.697    c-8.854,0-16.032,7.178-16.032,16.032c0,8.854,7.178,16.032,16.032,16.032H504.5z"/>
		<path style="fill:#FFD064;" d="M31.548,103.694h8.016v144.29H15.516V119.726C15.516,110.871,22.694,103.694,31.548,103.694z"/>
	</g>
	<g>
		<path d="M95.677,336.677c-4.142,0-7.5,3.358-7.5,7.5c0,9.125-7.423,16.548-16.548,16.548s-16.548-7.423-16.548-16.548    s7.423-16.548,16.548-16.548c4.142,0,7.5-3.358,7.5-7.5s-3.358-7.5-7.5-7.5c-17.396,0-31.548,14.152-31.548,31.548    s14.152,31.548,31.548,31.548s31.548-14.152,31.548-31.548C103.177,340.035,99.819,336.677,95.677,336.677z"/>
		<path d="M223.936,336.677c-4.142,0-7.5,3.358-7.5,7.5c0,9.125-7.423,16.548-16.548,16.548s-16.548-7.423-16.548-16.548    s7.423-16.548,16.548-16.548c4.142,0,7.5-3.358,7.5-7.5s-3.358-7.5-7.5-7.5c-17.396,0-31.548,14.152-31.548,31.548    s14.152,31.548,31.548,31.548s31.548-14.152,31.548-31.548C231.436,340.035,228.078,336.677,223.936,336.677z"/>
		<path d="M432.355,336.677c-4.142,0-7.5,3.358-7.5,7.5c0,9.125-7.423,16.548-16.548,16.548s-16.548-7.423-16.548-16.548    s7.423-16.548,16.548-16.548c4.142,0,7.5-3.358,7.5-7.5s-3.358-7.5-7.5-7.5c-17.396,0-31.548,14.152-31.548,31.548    s14.152,31.548,31.548,31.548s31.548-14.152,31.548-31.548C439.855,340.035,436.497,336.677,432.355,336.677z"/>
		<path d="M506.131,196.243l-52.33-85.036c-5.699-9.261-15.995-15.014-26.869-15.014H31.548c-12.976,0-23.532,10.557-23.532,23.532    v120.758H7.5c-4.142,0-7.5,3.358-7.5,7.5s3.358,7.5,7.5,7.5h16.548v35.213C9.308,303.826,0,322.931,0,344.177    c0,39.497,32.133,71.629,71.629,71.629c28.056,0,52.383-16.223,64.129-39.772c11.747,23.55,36.073,39.772,64.129,39.772    c39.496,0,71.629-32.133,71.629-71.629c0-0.173-0.012-0.343-0.013-0.516h65.188c-0.001,0.173-0.013,0.343-0.013,0.516    c0,39.497,32.133,71.629,71.629,71.629c39.496,0,71.629-32.133,71.629-71.629c0-1.593-0.071-3.169-0.174-4.736l17.329-17.329    c4.445-4.444,6.893-10.354,6.893-16.64v-11.85c4.774-2.649,8.016-7.738,8.016-13.574v-63.069    C512,209.653,509.971,202.482,506.131,196.243z M455.913,143.258l15.434,25.081h-63.556v-25.081H455.913z M55.081,111.193h33.097    v17.065H55.081V111.193z M55.081,143.258h33.097v17.064H55.081V143.258z M55.081,175.323h33.097v17.064H55.081V175.323z     M71.629,400.807C40.404,400.807,15,375.403,15,344.177c0-31.225,25.404-56.629,56.629-56.629    c31.226,0,56.629,25.404,56.629,56.629C128.258,375.403,102.854,400.807,71.629,400.807z M199.887,400.807    c-31.225,0-56.629-25.404-56.629-56.629c0-31.225,25.404-56.629,56.629-56.629s56.629,25.404,56.629,56.629    C256.516,375.403,231.112,400.807,199.887,400.807z M408.307,400.807c-31.226,0-56.629-25.404-56.629-56.629    c0-31.225,25.404-56.629,56.629-56.629c31.225,0,56.629,25.404,56.629,56.629C464.936,375.403,439.532,400.807,408.307,400.807z     M497,280.048c0,0.285-0.231,0.516-0.516,0.516h-1.375c-2.279,0-4.421-0.888-6.033-2.499l-30.689-30.689    c-4.445-4.445-10.354-6.893-16.64-6.893h-66.879c-6.286,0-12.196,2.448-16.64,6.893l-30.69,30.689    c-1.611,1.611-3.753,2.499-6.033,2.499h-34.815c-2.279,0-4.421-0.888-6.033-2.499l-30.689-30.689    c-4.445-4.445-10.354-6.893-16.64-6.893H79.644c-4.142,0-7.5,3.358-7.5,7.5s3.358,7.5,7.5,7.5h153.684    c2.279,0,4.421,0.888,6.033,2.499l30.689,30.689c4.444,4.445,10.354,6.893,16.64,6.893h34.815c6.286,0,12.196-2.448,16.64-6.893    l30.69-30.689c1.611-1.611,3.753-2.499,6.033-2.499h66.879c2.279,0,4.422,0.888,6.034,2.499l30.689,30.689    c2.962,2.962,6.575,5.031,10.515,6.086v10.715c0,2.279-0.887,4.422-2.499,6.033L476.3,321.691    c-9.454-28.511-36.351-49.142-67.993-49.142c-34.168,0-62.807,24.054-69.917,56.113h-68.585    c-7.111-32.059-35.75-56.113-69.917-56.113c-28.056,0-52.382,16.223-64.129,39.772c-11.747-23.55-36.073-39.772-64.129-39.772    c-11.729,0-22.799,2.852-32.581,7.871v-24.936h8.532c4.142,0,7.5-3.358,7.5-7.5s-3.358-7.5-7.5-7.5H23.016V119.726    c0-4.705,3.828-8.532,8.532-8.532h8.532v104.726c0,4.142,3.358,7.5,7.5,7.5s7.5-3.358,7.5-7.5v-8.532h33.097v8.532    c0,4.142,3.358,7.5,7.5,7.5s7.5-3.358,7.5-7.5V111.193h323.755c5.704,0,11.104,3.018,14.094,7.875l5.655,9.189h-70.44    c-8.556,0-15.516,6.96-15.516,15.516v24.048c0,8.556,6.96,15.516,15.516,15.516h104.335l10.501,17.064h-2.611    c-12.976,0-23.532,10.557-23.532,23.532s10.557,23.532,23.532,23.532H497V280.048z M392.791,143.258v25.081h-16.549    c-0.285,0-0.516-0.231-0.516-0.516v-24.048c0-0.285,0.231-0.516,0.516-0.516H392.791z M488.468,232.468    c-4.705,0-8.532-3.828-8.532-8.532s3.828-8.532,8.532-8.532H497v17.064H488.468z"/>
		<path d="M280.048,183.339h48.097c8.556,0,15.516-6.96,15.516-15.516v-24.048c0-8.556-6.96-15.516-15.516-15.516h-48.097    c-8.556,0-15.516,6.96-15.516,15.516v24.048C264.532,176.378,271.493,183.339,280.048,183.339z M279.532,143.774    c0-0.285,0.231-0.516,0.516-0.516h48.097c0.285,0,0.516,0.231,0.516,0.516v24.048c0,0.285-0.231,0.516-0.516,0.516h-48.097    c-0.285,0-0.516-0.231-0.516-0.516V143.774z"/>
		<path d="M183.855,183.339h48.097c8.556,0,15.516-6.96,15.516-15.516v-24.048c0-8.556-6.96-15.516-15.516-15.516h-48.097    c-8.556,0-15.516,6.96-15.516,15.516v24.048C168.339,176.378,175.299,183.339,183.855,183.339z M183.339,143.774    c0-0.285,0.231-0.516,0.516-0.516h48.097c0.285,0,0.516,0.231,0.516,0.516v24.048c0,0.285-0.231,0.516-0.516,0.516h-48.097    c-0.285,0-0.516-0.231-0.516-0.516V143.774z"/>
	</g>
</g>















</svg>
