<?xml version="1.0" encoding="iso-8859-1"?>
<!-- Generator: Adobe Illustrator 19.0.0, SVG Export Plug-In . SVG Version: 6.00 Build 0)  -->
<svg version="1.1" id="Capa_1" xmlns="http://www.w3.org/2000/svg" xmlns:xlink="http://www.w3.org/1999/xlink" x="0px" y="0px"
	 viewBox="0 0 480 480" style="enable-background:new 0 0 480 480;" xml:space="preserve">
<path style="fill:#FF1515;" d="M368,136.008v-16c0.001-4.243,1.687-8.312,4.688-11.312c6.248-6.246,16.376-6.246,22.624,0
	c3.001,3,4.687,7.069,4.688,11.312v16"/>
<path style="fill:#D6D8E8;" d="M368,120.008h32v32h-32V120.008z"/>
<path style="fill:#9EA1AF;" d="M368,120.008h16v32h-16V120.008z"/>
<path style="fill:#C63846;" d="M432,136.008H312v24H8v232h464v-144L432,136.008z"/>
<g>
	<path style="fill:#A53232;" d="M8,376.008h304v16H8V376.008z"/>
	<path style="fill:#A53232;" d="M296,160.008h16v232h-16V160.008z"/>
</g>
<circle style="fill:#545459;" cx="88" cy="392.008" r="48"/>
<g>
	<path style="fill:#D6D8E8;" d="M280,136.008H40c-4.418,0-8-3.582-8-8c0-4.418,3.582-8,8-8h240c4.418,0,8,3.582,8,8
		C288,132.426,284.418,136.008,280,136.008z"/>
	<path style="fill:#D6D8E8;" d="M280,88.008H40c-4.418,0-8-3.582-8-8s3.582-8,8-8h240c4.418,0,8,3.582,8,8
		S284.418,88.008,280,88.008z"/>
	<path style="fill:#D6D8E8;" d="M136,136.008c-4.418,0-8-3.582-8-8v-48c0-4.418,3.582-8,8-8s8,3.582,8,8v48
		C144,132.426,140.418,136.008,136,136.008z"/>
	<path style="fill:#D6D8E8;" d="M88,136.008c-4.418,0-8-3.582-8-8v-48c0-4.418,3.582-8,8-8s8,3.582,8,8v48
		C96,132.426,92.418,136.008,88,136.008z"/>
	<path style="fill:#D6D8E8;" d="M184,136.008c-4.418,0-8-3.582-8-8v-48c0-4.418,3.582-8,8-8s8,3.582,8,8v48
		C192,132.426,188.418,136.008,184,136.008z"/>
	<path style="fill:#D6D8E8;" d="M232,136.008c-4.418,0-8-3.582-8-8v-48c0-4.418,3.582-8,8-8s8,3.582,8,8v48
		C240,132.426,236.418,136.008,232,136.008z"/>
</g>
<path style="fill:#FFF89B;" d="M440,328.008c-4.418,0-8-3.582-8-8v-16c0-4.418,3.582-8,8-8s8,3.582,8,8v16
	C448,324.426,444.418,328.008,440,328.008z"/>
<g>
	<circle style="fill:#D6D8E8;" cx="88" cy="392.008" r="16"/>
	<path style="fill:#D6D8E8;" d="M152,240.008c-4.418,0-8-3.582-8-8v-32c0-4.418,3.582-8,8-8s8,3.582,8,8v32
		C160,236.426,156.418,240.008,152,240.008z"/>
	<path style="fill:#D6D8E8;" d="M200,232.008c-4.418,0-8-3.582-8-8v-16c0-4.418,3.582-8,8-8s8,3.582,8,8v16
		C208,228.426,204.418,232.008,200,232.008z"/>
</g>
<path style="fill:#7D8F9F;" d="M81.6,320.008c-21.954-0.024-41.244-14.57-47.304-35.672c-8.985-31.577,9.284-64.469,40.84-73.528
	c6.823-1.939,13.891-2.882,20.984-2.8H152c4.418,0,8,3.582,8,8s-3.582,8-8,8H96c-5.565-0.085-11.112,0.648-16.464,2.176
	c-23.066,6.626-36.42,30.668-29.856,53.752c5.053,17.607,23.406,27.801,41.024,22.784c13.233-3.797,20.896-17.59,17.128-30.832
	c-2.805-9.73-12.944-15.364-22.688-12.608c-4.248,1.215-8.677-1.244-9.892-5.492c-1.215-4.248,1.244-8.677,5.492-9.892
	c18.242-5.213,37.256,5.348,42.469,23.59c0.001,0.003,0.002,0.007,0.003,0.01c6.211,21.738-6.377,44.396-28.115,50.607
	c-0.002,0-0.003,0.001-0.005,0.001C90.708,319.365,86.165,320.006,81.6,320.008L81.6,320.008z"/>
<path style="fill:#D6D8E8;" d="M352,168.008v96h80v-16l-24-80H352z"/>
<path style="fill:#B8BAC9;" d="M352,248.008h80v16h-80V248.008z"/>
<g>
	<path style="fill:#FFF89B;" d="M384,80.008c-4.418,0-8-3.582-8-8v-32c0-4.418,3.582-8,8-8s8,3.582,8,8v32
		C392,76.426,388.418,80.008,384,80.008z"/>
	<path style="fill:#FFF89B;" d="M424,88.008c-4.418-0.001-7.999-3.583-7.998-8.002c0-2.121,0.843-4.154,2.342-5.654l24-24
		c3.178-3.07,8.242-2.982,11.312,0.196c2.995,3.1,2.995,8.016,0,11.116l-24,24C428.156,87.164,426.122,88.007,424,88.008z"/>
	<path style="fill:#FFF89B;" d="M344,88.008c-2.122,0-4.156-0.844-5.656-2.344l-24-24c-3.07-3.178-2.982-8.242,0.196-11.312
		c3.1-2.995,8.016-2.995,11.116,0l24,24c3.124,3.125,3.123,8.19-0.002,11.314C348.154,87.165,346.121,88.007,344,88.008z"/>
</g>
<circle style="fill:#545459;" cx="392" cy="392.008" r="48"/>
<circle style="fill:#D6D8E8;" cx="392" cy="392.008" r="16"/>
<path style="fill:#FFFFFF;" d="M376,168.008l-24,24v16l40-40H376z"/>
<g>
	<path style="fill:#D6D8E8;" d="M40,320.008H8v16h32c4.418,0,8-3.582,8-8S44.418,320.008,40,320.008z"/>
	<path style="fill:#D6D8E8;" d="M144,320.008c-4.418,0-8,3.582-8,8s3.582,8,8,8h168v-16H144z"/>
</g>
<path d="M280,88.008c4.418,0,8-3.582,8-8s-3.582-8-8-8H40c-4.418,0-8,3.582-8,8s3.582,8,8,8h40v32H40c-4.418,0-8,3.582-8,8
	c0,4.418,3.582,8,8,8h240c4.418,0,8-3.582,8-8c0-4.418-3.582-8-8-8h-40v-32H280z M176,88.008v32h-32v-32H176z M96,88.008h32v32H96
	V88.008z M224,120.008h-32v-32h32V120.008z"/>
<path d="M432,304.008v16c0,4.418,3.582,8,8,8s8-3.582,8-8v-16c0-4.418-3.582-8-8-8S432,299.589,432,304.008z"/>
<path d="M88,368.008c-13.255,0-24,10.745-24,24s10.745,24,24,24s24-10.745,24-24S101.255,368.008,88,368.008z M88,400.008
	c-4.418,0-8-3.582-8-8s3.582-8,8-8s8,3.582,8,8S92.418,400.008,88,400.008z"/>
<path d="M392,368.008c-13.255,0-24,10.745-24,24s10.745,24,24,24s24-10.745,24-24S405.255,368.008,392,368.008z M392,400.008
	c-4.418,0-8-3.582-8-8s3.582-8,8-8s8,3.582,8,8S396.418,400.008,392,400.008z"/>
<path d="M439.568,133.32c-1.14-3.197-4.174-5.326-7.568-5.312h-24v-8c0.018-6.367-2.512-12.476-7.024-16.968
	c-9.496-9.073-24.448-9.073-33.944,0c-4.518,4.489-7.05,10.599-7.032,16.968v8h-48c-4.418,0-8,3.582-8,8v16H8c-4.418,0-8,3.582-8,8
	v232c0,4.418,3.582,8,8,8h24.64c4.391,30.574,32.736,51.8,63.311,47.409c24.574-3.529,43.88-22.835,47.409-47.409h193.28
	c4.391,30.574,32.736,51.8,63.311,47.409c24.574-3.529,43.88-22.835,47.409-47.409H472c4.418,0,8-3.582,8-8v-144
	c-0.001-0.916-0.158-1.825-0.464-2.688L439.568,133.32z M376,120.008c0.007-2.12,0.85-4.152,2.344-5.656
	c3.164-3.025,8.148-3.025,11.312,0c1.494,1.504,2.337,3.536,2.344,5.656v8h-16V120.008z M88,432.008c-22.091,0-40-17.909-40-40
	s17.909-40,40-40s40,17.909,40,40C127.974,414.088,110.08,431.981,88,432.008z M143.36,384.008
	c-4.391-30.574-32.736-51.8-63.311-47.409c-24.574,3.529-43.88,22.835-47.409,47.409H16v-48h24c4.418,0,8-3.582,8-8s-3.582-8-8-8H16
	v-152h288v152H144c-4.418,0-8,3.582-8,8s3.582,8,8,8h160v48H143.36z M392,432.008c-22.091,0-40-17.909-40-40s17.909-40,40-40
	s40,17.909,40,40C431.974,414.088,414.08,431.981,392,432.008z M464,384.008h-16.64c-4.391-30.574-32.736-51.8-63.311-47.409
	c-24.574,3.529-43.88,22.835-47.409,47.409H320v-240h106.4L464,249.392V384.008z"/>
<path d="M79.568,226.192c5.341-1.528,10.877-2.263,16.432-2.184h48v8c0,4.418,3.582,8,8,8s8-3.582,8-8v-8h32c0,4.418,3.582,8,8,8
	s8-3.582,8-8v-16c0-4.418-3.582-8-8-8s-8,3.582-8,8h-32v-8c0-4.418-3.582-8-8-8s-8,3.582-8,8v8H96.152
	c-7.09-0.083-14.155,0.857-20.976,2.792c-31.556,9.059-49.825,41.951-40.84,73.528c7.431,26.095,34.609,41.226,60.704,33.795
	c0.032-0.009,0.064-0.018,0.096-0.027c21.739-6.208,34.33-28.864,28.121-50.603c0-0.002-0.001-0.003-0.001-0.005
	c-5.208-18.243-24.219-28.811-42.462-23.603c-0.003,0.001-0.007,0.002-0.01,0.003c-4.248,1.215-6.707,5.644-5.492,9.892
	c1.215,4.248,5.644,6.707,9.892,5.492c9.744-2.756,19.883,2.878,22.688,12.608c3.768,13.242-3.895,27.035-17.128,30.832
	c-17.618,5.017-35.971-5.177-41.024-22.784C43.161,256.851,56.51,232.817,79.568,226.192L79.568,226.192z"/>
<path d="M408,160.008h-56c-4.418,0-8,3.582-8,8v96c0,4.418,3.582,8,8,8h80c4.418,0,8-3.582,8-8v-16c0-0.778-0.113-1.551-0.336-2.296
	l-24-80C414.65,162.326,411.534,160.007,408,160.008L408,160.008z M424,256.008h-64v-80h42.08L424,249.184L424,256.008z"/>
<path d="M384,32.008c-4.418,0-8,3.582-8,8v32c0,4.418,3.582,8,8,8s8-3.582,8-8v-32C392,35.589,388.418,32.008,384,32.008z"/>
<path d="M429.688,85.664l24-24c2.97-3.271,2.726-8.33-0.545-11.301c-3.046-2.765-7.692-2.77-10.743-0.011l-24,24
	c-3.178,3.069-3.266,8.134-0.196,11.312c3.07,3.178,8.134,3.266,11.312,0.196c0.067-0.064,0.132-0.13,0.196-0.196L429.688,85.664z"
	/>
<path d="M314.4,50.352c-3.123,3.124-3.123,8.188,0,11.312l24,24c3.178,3.069,8.242,2.982,11.312-0.196
	c2.994-3.1,2.994-8.015,0-11.116l-24-24C322.588,47.229,317.524,47.229,314.4,50.352z"/>
<g>
</g>
<g>
</g>
<g>
</g>
<g>
</g>
<g>
</g>
<g>
</g>
<g>
</g>
<g>
</g>
<g>
</g>
<g>
</g>
<g>
</g>
<g>
</g>
<g>
</g>
<g>
</g>
<g>
</g>
</svg>
