<svg id="Filled" height="512" viewBox="0 0 512 512" width="512" xmlns="http://www.w3.org/2000/svg"><g fill="#dadcde"><path d="m128 72h16v48h-16z"/><path d="m176 72h16v48h-16z"/><path d="m224 72h16v48h-16z"/><path d="m272 72h16v48h-16z"/><path d="m320 72h16v48h-16z"/><path d="m368 72h16v48h-16z"/><path d="m416 72h16v48h-16z"/></g><path d="m248 200h64a0 0 0 0 1 0 0v160a0 0 0 0 1 0 0h-128a0 0 0 0 1 0 0v-96a64 64 0 0 1 64-64z" fill="#c7312e"/><path d="m312 280h176v112h-176z" fill="#eb423f"/><path d="m24 360h288v32h-288z" fill="#dadcde"/><path d="m184 184v176h-144l13.35-146.9a32 32 0 0 1 31.87-29.1z" fill="#eb423f"/><path d="m184 313.61v78.39h-96a80.028 80.028 0 0 1 96-78.39z" fill="#a82a27"/><path d="m24 328h32v64h-32z" fill="#a82a27"/><path d="m152 280h-80l6.248-49.985a16 16 0 0 1 15.876-14.015h57.876z" fill="#e9eef2"/><circle cx="169.33" cy="392" fill="#606669" r="48"/><circle cx="169.33" cy="392" fill="#e9eef2" r="16"/><path d="m57.43 200.13a31.808 31.808 0 0 0 -4.08 12.97l-.26 2.9h-21.09v24a8 8 0 0 1 -16 0v-32a8 8 0 0 1 8-8h32a7.459 7.459 0 0 1 1.43.13z" fill="#a82a27"/><circle cx="400" cy="392" fill="#606669" r="48"/><circle cx="400" cy="392" fill="#e9eef2" r="16"/><circle cx="232" cy="248" fill="#b6b9ba" r="16"/><path d="m72 120h416v32h-416z" fill="#a82a27"/><path d="m480 120h-16v-32a8.009 8.009 0 0 0 -8-8h-352a8.009 8.009 0 0 0 -8 8v32h-16v-32a24.027 24.027 0 0 1 24-24h352a24.027 24.027 0 0 1 24 24z" fill="#e9eef2"/><path d="m424 120a32 32 0 0 0 -32 32v64h64v-64a32 32 0 0 0 -32-32z" fill="#eb423f"/><circle cx="424" cy="152" fill="#e9eef2" r="8"/><path d="m312 248h176v32h-176z" fill="#dadcde"/><path d="m344 216h32v32h-32z" fill="#b6b9ba"/><path d="m408 216h32v32h-32z" fill="#b6b9ba"/><path d="m312 184h176v32h-176z" fill="#dadcde"/><path d="m239.43 200.57a49.122 49.122 0 0 0 -7.43-.57 48 48 0 0 0 -48 48 49.122 49.122 0 0 0 .57 7.43 48.05 48.05 0 0 0 63.43 37.84v2.73h32v-48a48.016 48.016 0 0 0 -40.57-47.43zm-7.43 63.43a16 16 0 1 1 16-16 16 16 0 0 1 -16 16z" fill="#b6b9ba"/><path d="m248 296h32v32h-32z" fill="#60b8d1"/><circle cx="232" cy="248" fill="#b6b9ba" r="16"/><path d="m24 400h89.911a55.993 55.993 0 0 0 110.839 0h119.831a55.992 55.992 0 0 0 110.838 0h32.581a8 8 0 0 0 8-8v-144a8 8 0 0 0 -8-8h-40v-16h40a8 8 0 0 0 8-8v-32a8 8 0 0 0 -8-8h-24v-16h24a8 8 0 0 0 8-8v-32a8 8 0 0 0 -8-8h-8v-24a24.027 24.027 0 0 0 -24-24h-352a24.027 24.027 0 0 0 -24 24v24h-8a8 8 0 0 0 -8 8v32a8 8 0 0 0 8 8h312v16h-72a8 8 0 0 0 -8 8v8h-72a55.82 55.82 0 0 0 -40 16.862v-24.862a8 8 0 0 0 -8-8h-98.78a39.784 39.784 0 0 0 -36.695 24h-24.525a8 8 0 0 0 -8 8v32a8 8 0 0 0 16 0v-24h13.054l-9.454 104h-11.6a8 8 0 0 0 -8 8v64a8 8 0 0 0 8 8zm376 32a40 40 0 1 1 40-40 40.045 40.045 0 0 1 -40 40zm80-304v16h-16.8a39.828 39.828 0 0 0 -7.217-16zm-48-48h24a8.009 8.009 0 0 1 8 8v24h-32zm16 72v24h-48v-24a24 24 0 0 1 48 0zm-64-72h32v32h-32zm-48 0h32v32h-32zm-48 0h32v32h-32zm-48 0h32v32h-32zm-48 0h32v32h-32zm-48 0h32v32h-32zm-48 8a8.009 8.009 0 0 1 8-8h24v32h-32zm-16 56v-16h312.022a39.828 39.828 0 0 0 -7.217 16zm240 56v-8h160v16h-160zm112 24v16h-16v-16zm-32 0v16h-16v-16zm-32 0v16h-16v-16zm-48 0h16v16h-16zm0 32h160v16h-160zm0 32h160v96h-24.581a55.992 55.992 0 0 0 -110.838 0h-24.581zm-239.633 96h-16.367v-16h19.327a87.478 87.478 0 0 0 -2.96 16zm33.544 0h-17.456a71.895 71.895 0 0 1 79.545-63.544v15.955a55.882 55.882 0 0 0 -62.089 47.589zm190.089 0h-79.25a55.552 55.552 0 0 0 -4.834-16h84.084zm-72-176a41.311 41.311 0 0 1 6.2.475 40.258 40.258 0 0 1 33.8 39.525v40h-16v-40a24.012 24.012 0 1 0 -16 22.624v16.576a40.036 40.036 0 0 1 -47.522-32.974 41.41 41.41 0 0 1 -.478-6.226 40.045 40.045 0 0 1 40-40zm40 96v16h-16v-16zm-32-56a8 8 0 1 1 -8-8 8.009 8.009 0 0 1 8 8zm-48 39.183c1.087 1.109 2.218 2.181 3.4 3.2a55.945 55.945 0 0 0 44.6 13.039v24.578a8 8 0 0 0 8 8h32a8 8 0 0 0 8-8v-80a55.992 55.992 0 0 0 -13.614-36.6q-1.533-1.775-3.2-3.4h32.814v144h-95.532a56.205 56.205 0 0 0 -16.468-11.188zm17.33 104.817a40 40 0 1 1 -40-40 40.045 40.045 0 0 1 40 40zm-148.013-178.175a23.887 23.887 0 0 1 23.903-21.825h90.78v112.379c-2.653-.24-5.323-.379-8-.379a88.1 88.1 0 0 0 -78.372 48h-25.628v-24a8 8 0 0 0 -8-8h-4.33zm-29.317 146.175v-24h16v48h-16z"/><path d="m72 288h80a8 8 0 0 0 8-8v-64a8 8 0 0 0 -8-8h-57.875a24.038 24.038 0 0 0 -23.815 21.023l-6.248 49.985a8 8 0 0 0 7.938 8.992zm14.186-56.992a8.013 8.013 0 0 1 7.939-7.008h49.875v48h-62.938z"/><path d="m145.33 392a24 24 0 1 0 24-24 24.027 24.027 0 0 0 -24 24zm32 0a8 8 0 1 1 -8-8 8.009 8.009 0 0 1 8 8z"/><path d="m400 368a24 24 0 1 0 24 24 24.027 24.027 0 0 0 -24-24zm0 32a8 8 0 1 1 8-8 8.009 8.009 0 0 1 -8 8z"/><circle cx="424" cy="152" r="8"/></svg>