<?xml version="1.0" encoding="iso-8859-1"?>
<!-- Generator: Adobe Illustrator 19.0.0, SVG Export Plug-In . SVG Version: 6.00 Build 0)  -->
<svg version="1.1" id="Capa_1" xmlns="http://www.w3.org/2000/svg" xmlns:xlink="http://www.w3.org/1999/xlink" x="0px" y="0px"
	 viewBox="0 0 512 512" style="enable-background:new 0 0 512 512;" xml:space="preserve">
<rect x="180.245" y="207.935" style="fill:#F490C0;" width="323.918" height="208.98"/>
<g>
	<rect x="459.233" y="351.086" style="fill:#FFFFFF;" width="15.673" height="15.673"/>
	<rect x="459.233" y="382.433" style="fill:#FFFFFF;" width="15.673" height="15.673"/>
</g>
<rect x="180.245" y="291.788" style="fill:#00CCB3;" width="65.829" height="20.898"/>
<rect x="482.743" y="207.935" style="fill:#ED539D;" width="21.42" height="208.98"/>
<rect x="438.335" y="291.788" style="fill:#00CCB3;" width="65.829" height="20.898"/>
<rect x="483.265" y="291.788" style="fill:#008877;" width="20.898" height="20.898"/>
<rect x="180.245" y="416.914" style="fill:#FFFFFF;" width="323.918" height="20.898"/>
<polyline style="fill:#F490C0;" points="180.245,437.812 180.245,270.629 80.98,270.629 49.633,354.22 7.837,375.118 7.837,437.812 
	"/>
<rect x="148.898" y="270.629" style="fill:#FFFFFF;" width="31.347" height="83.592"/>
<polygon style="fill:#5AAAE7;" points="148.898,270.629 148.898,354.22 49.633,354.22 80.98,270.629 "/>
<circle style="fill:#57565C;" cx="104.49" cy="427.363" r="41.796"/>
<circle style="fill:#FFFFFF;" cx="104.49" cy="427.363" r="15.673"/>
<circle style="fill:#57565C;" cx="410.122" cy="427.363" r="41.796"/>
<circle style="fill:#FFFFFF;" cx="410.122" cy="427.363" r="15.673"/>
<path style="fill:#5AAAE7;" d="M417.437,354.22H266.971c-11.542,0-20.898-9.356-20.898-20.898V260.18h192.261v73.143
	C438.335,344.864,428.979,354.22,417.437,354.22z"/>
<path style="fill:#1A6FB0;" d="M416.914,260.18v73.143c0,11.542-9.356,20.898-20.898,20.898h21.42
	c11.542,0,20.898-9.356,20.898-20.898V260.18H416.914z"/>
<path style="fill:#FFFFFF;" d="M449.306,260.18H235.102c-7.214,0-13.061-5.847-13.061-13.061l0,0
	c0-7.214,5.847-13.061,13.061-13.061h214.204c7.214,0,13.061,5.847,13.061,13.061l0,0C462.367,254.332,456.52,260.18,449.306,260.18
	z"/>
<g>
	<circle style="fill:#FFDA44;" cx="274.286" cy="80.98" r="38.139"/>
	<path style="fill:#FFDA44;" d="M316.082,98.22H232.49c-5.771,0-10.449,4.678-10.449,10.449l0,0c0,5.771,4.678,10.449,10.449,10.449
		h83.592c5.771,0,10.449-4.678,10.449-10.449l0,0C326.531,102.898,321.853,98.22,316.082,98.22z"/>
</g>
<polyline style="fill:#CC7400;" points="316.082,119.118 279.51,207.935 269.061,207.935 232.49,119.118 "/>
<polygon style="fill:#FFFFFF;" points="451.918,207.935 378.775,207.935 399.673,187.037 451.918,187.037 "/>
<path d="M104.49,403.853c-12.964,0-23.51,10.547-23.51,23.51s10.546,23.51,23.51,23.51S128,440.326,128,427.363
	S117.454,403.853,104.49,403.853z M104.49,435.2c-4.322,0-7.837-3.515-7.837-7.837s3.515-7.837,7.837-7.837s7.837,3.515,7.837,7.837
	S108.811,435.2,104.49,435.2z"/>
<path d="M410.122,403.853c-12.964,0-23.51,10.547-23.51,23.51s10.546,23.51,23.51,23.51c12.964,0,23.51-10.547,23.51-23.51
	S423.086,403.853,410.122,403.853z M410.122,435.2c-4.322,0-7.837-3.515-7.837-7.837s3.515-7.837,7.837-7.837
	s7.837,3.515,7.837,7.837S414.444,435.2,410.122,435.2z"/>
<path d="M512,200.098h-52.245V179.2h-63.327l-20.898,20.898h-45.753l-27.317-27.317l19.237-46.717
	c7.342-2.376,12.67-9.271,12.67-17.394c0-9.009-6.556-16.499-15.143-17.996c0.677-3.158,1.037-6.393,1.037-9.694
	c0-25.351-20.624-45.976-45.975-45.976S228.31,55.628,228.31,80.98c0,3.302,0.359,6.536,1.037,9.694
	c-8.587,1.497-15.143,8.987-15.143,17.996c0,8.123,5.329,15.018,12.67,17.395l19.239,46.724l-27.318,27.309h-46.387v15.673h-23.51
	c-27.587,0-50.473,20.473-54.289,47.02h-19.06l-32.173,85.796L0,370.274v75.375h58.363c7.298,18.341,25.217,31.347,46.127,31.347
	s38.829-13.006,46.127-31.347h213.379c7.298,18.341,25.217,31.347,46.127,31.347s38.829-13.006,46.127-31.347H512V200.098z
	 M402.919,194.873h41.163v5.224h-46.387L402.919,194.873z M307.611,200.098h-16.399l4.783-11.616L307.611,200.098z M283.989,176.476
	l-9.703,23.565l-30.094-73.085h60.188l-13.925,33.82l-10.627-10.627l-11.082,11.083L283.989,176.476z M274.286,50.678
	c16.709,0,30.302,13.594,30.302,30.302c0,3.242-0.509,6.387-1.495,9.404h-12.611v15.673h25.6c1.44,0,2.612,1.171,2.612,2.612
	c0,1.441-1.172,2.612-2.612,2.612H232.49c-1.44,0-2.612-1.171-2.612-2.612c0-1.441,1.172-2.612,2.612-2.612h42.318V90.384h-29.329
	c-0.985-3.017-1.495-6.162-1.495-9.404C243.984,64.272,257.577,50.678,274.286,50.678z M252.578,188.487l4.78,11.611h-16.394
	L252.578,188.487z M459.755,215.771h36.571v68.18h-50.155v-15.935h3.135c11.523,0,20.898-9.375,20.898-20.898
	c0-11.523-9.375-20.898-20.898-20.898H235.102c-11.523,0-20.898,9.375-20.898,20.898c0,11.523,9.375,20.898,20.898,20.898h3.135
	v15.935h-50.155v-68.18H459.755z M238.237,304.849h-50.155v-5.224h50.155V304.849z M172.408,278.465v67.918h-15.673v-67.918H172.408
	z M235.102,252.343c-2.881,0-5.224-2.344-5.224-5.224c0-2.881,2.344-5.225,5.224-5.225h214.204c2.881,0,5.224,2.344,5.224,5.225
	c0,2.881-2.344,5.224-5.224,5.224H235.102z M253.91,268.016h80.457v78.367h-67.396c-7.202,0-13.061-5.859-13.061-13.061V268.016z
	 M350.041,268.016h80.457v65.306c0,7.202-5.859,13.061-13.061,13.061h-67.396V268.016z M446.171,299.624h50.155v5.224h-50.155
	V299.624z M148.898,231.445h23.51v31.347h-61.907C114.143,244.928,129.976,231.445,148.898,231.445z M86.41,278.465h7.631h47.02
	v67.918H60.941L86.41,278.465z M104.49,461.322c-18.725,0-33.959-15.234-33.959-33.959c0-18.726,15.235-33.959,33.959-33.959
	s33.959,15.234,33.959,33.959C138.449,446.089,123.214,461.322,104.49,461.322z M154.053,429.975
	c0.045-0.865,0.069-1.736,0.069-2.612c0-27.367-22.266-49.633-49.633-49.633s-49.633,22.266-49.633,49.633
	c0,0.877,0.024,1.747,0.07,2.612H15.673v-13.061h18.286v-15.673H15.673v-21.279l35.809-17.904h120.926v67.918H154.053z
	 M188.082,429.975v-5.224h172.477c-0.045,0.865-0.069,1.736-0.069,2.612s0.024,1.747,0.069,2.612H188.082z M410.122,461.322
	c-18.725,0-33.959-15.234-33.959-33.959c0-18.726,15.235-33.959,33.959-33.959s33.959,15.234,33.959,33.959
	C444.082,446.089,428.847,461.322,410.122,461.322z M410.122,377.731c-20.91,0-38.829,13.006-46.127,31.347H188.082v-88.555h50.155
	v12.8c0,15.844,12.89,28.735,28.735,28.735h150.465c15.845,0,28.735-12.891,28.735-28.735v-12.8h50.155v88.555h-40.077
	C448.952,390.736,431.033,377.731,410.122,377.731z M459.686,429.975c0.045-0.865,0.069-1.736,0.069-2.612s-0.024-1.747-0.069-2.612
	h36.64v5.224H459.686z"/>
<g>
	<rect x="193.306" y="359.967" style="fill:#FFFFFF;" width="47.02" height="15.673"/>
	<rect x="193.306" y="386.09" style="fill:#FFFFFF;" width="36.571" height="15.673"/>
</g>
<g>
</g>
<g>
</g>
<g>
</g>
<g>
</g>
<g>
</g>
<g>
</g>
<g>
</g>
<g>
</g>
<g>
</g>
<g>
</g>
<g>
</g>
<g>
</g>
<g>
</g>
<g>
</g>
<g>
</g>
</svg>
