<?xml version="1.0" encoding="iso-8859-1"?>
<!-- Generator: Adobe Illustrator 19.0.0, SVG Export Plug-In . SVG Version: 6.00 Build 0)  -->
<svg version="1.1" id="Capa_1" xmlns="http://www.w3.org/2000/svg" xmlns:xlink="http://www.w3.org/1999/xlink" x="0px" y="0px"
	 viewBox="0 0 512 512" style="enable-background:new 0 0 512 512;" xml:space="preserve">
<path style="fill:#FFFFFF;" d="M504.163,190.694H33.437l0,0c0-17.313,14.034-31.347,31.347-31.347h408.033
	C490.129,159.347,504.163,173.381,504.163,190.694L504.163,190.694z"/>
<path style="fill:#EBE5DD;" d="M472.816,159.347h-21.42c17.313,0,31.347,14.035,31.347,31.347h21.42
	C504.163,173.382,490.129,159.347,472.816,159.347z"/>
<path style="fill:#FFFFFF;" d="M60.082,190.694L39.184,305.633H28.735c-11.542,0-20.898,9.356-20.898,20.898v94.041h496.327V190.694
	H60.082z"/>
<g>
	<path style="fill:#00CCB3;" d="M138.449,305.633v114.939H7.837v-94.041c0-11.546,9.352-20.898,20.898-20.898H138.449z"/>
	<rect x="138.449" y="190.694" style="fill:#00CCB3;" width="94.041" height="229.878"/>
</g>
<rect x="138.449" y="190.694" style="fill:#FFFFFF;" width="94.041" height="229.878"/>
<rect x="232.49" y="190.694" style="fill:#00CCB3;" width="271.673" height="229.878"/>
<rect x="462.367" y="216.816" style="fill:#FFFFFF;" width="41.796" height="26.122"/>
<rect x="232.49" y="379.298" style="fill:#008877;" width="57.992" height="41.273"/>
<rect x="232.49" y="190.694" style="fill:#FFFFFF;" width="271.673" height="26.122"/>
<rect x="232.49" y="216.816" style="fill:#5AAAE7;" width="229.878" height="126.433"/>
<rect x="440.947" y="216.816" style="fill:#1A6FB0;" width="21.42" height="126.433"/>
<g>
	<rect x="462.367" y="269.061" style="fill:#FFFFFF;" width="41.796" height="26.122"/>
	<rect x="462.367" y="242.939" style="fill:#FFFFFF;" width="41.796" height="26.122"/>
</g>
<rect x="482.743" y="190.694" style="fill:#EBE5DD;" width="21.42" height="104.49"/>
<rect x="482.743" y="295.184" style="fill:#008877;" width="21.42" height="125.388"/>
<polygon style="fill:#5AAAE7;" points="138.449,190.694 138.449,305.633 39.184,305.633 60.082,190.694 "/>
<circle style="fill:#57565C;" cx="410.122" cy="410.122" r="41.796"/>
<circle style="fill:#FFFFFF;" cx="410.122" cy="410.122" r="15.673"/>
<circle style="fill:#57565C;" cx="104.49" cy="410.122" r="41.796"/>
<circle style="fill:#FFFFFF;" cx="104.49" cy="410.122" r="15.673"/>
<rect x="159.347" y="216.816" style="fill:#5AAAE7;" width="52.245" height="83.592"/>
<g>
	<rect x="306.155" y="391.837" style="fill:#FFFFFF;" width="41.796" height="15.673"/>
	<rect x="306.155" y="371.461" style="fill:#FFFFFF;" width="41.796" height="15.673"/>
</g>
<path style="fill:#CC7400;" d="M345.861,133.224H210.024c-20.198,0-36.571-16.374-36.571-36.571l0,0
	c0-20.198,16.374-36.571,36.571-36.571h135.837c20.198,0,36.571,16.374,36.571,36.571l0,0
	C382.433,116.851,366.059,133.224,345.861,133.224z"/>
<g>
	<path style="fill:#9A4C00;" d="M236.669,60.082l5.883,14.712c3.187,7.973-2.675,16.635-11.254,16.635
		c-4.963,0-9.425-3.02-11.264-7.628l-9.488-23.719"/>
	<path style="fill:#9A4C00;" d="M288.914,60.082l5.883,14.712c3.187,7.973-2.675,16.635-11.254,16.635
		c-4.963,0-9.425-3.02-11.264-7.628l-9.488-23.719"/>
	<path style="fill:#9A4C00;" d="M341.159,60.082l5.883,14.712c3.187,7.973-2.675,16.635-11.254,16.635
		c-4.963,0-9.425-3.02-11.264-7.628l-9.488-23.719"/>
</g>
<path style="fill:#CC7400;" d="M310.857,291.004H384c17.313,0,31.347,14.034,31.347,31.347l0,0H279.51l0,0
	C279.51,305.038,293.544,291.004,310.857,291.004z"/>
<rect x="98.22" y="331.233" width="15.673" height="15.673"/>
<rect x="195.918" y="318.694" width="15.673" height="15.673"/>
<path d="M219.429,308.245V208.98H151.51v99.265H219.429z M167.184,224.653h36.571v67.918h-36.571V224.653z"/>
<rect x="332.278" y="412.735" width="15.673" height="15.673"/>
<path d="M410.122,386.612c-12.963,0-23.51,10.547-23.51,23.51s10.547,23.51,23.51,23.51s23.51-10.547,23.51-23.51
	S423.085,386.612,410.122,386.612z M410.122,417.959c-4.322,0-7.837-3.515-7.837-7.837s3.515-7.837,7.837-7.837
	s7.837,3.515,7.837,7.837S414.444,417.959,410.122,417.959z"/>
<path d="M104.49,386.612c-12.963,0-23.51,10.547-23.51,23.51s10.547,23.51,23.51,23.51S128,423.085,128,410.122
	S117.453,386.612,104.49,386.612z M104.49,417.959c-4.322,0-7.837-3.515-7.837-7.837s3.515-7.837,7.837-7.837
	s7.837,3.515,7.837,7.837S108.811,417.959,104.49,417.959z"/>
<rect x="164.571" y="361.535" width="41.796" height="15.673"/>
<rect x="164.571" y="387.657" width="41.796" height="15.673"/>
<path d="M511.211,182.857c-3.64-17.864-19.472-31.347-38.395-31.347H318.694v-10.449h27.167c24.487,0,44.408-19.921,44.408-44.408
	s-19.921-44.408-44.408-44.408H210.024c-24.487,0-44.408,19.921-44.408,44.408s19.921,44.408,44.408,44.408h27.167v10.449H64.784
	c-21.606,0-39.184,17.577-39.184,39.184v7.837h25.091l-18.049,99.265h-3.908C12.891,297.796,0,310.687,0,326.531v101.878h58.363
	c7.298,18.341,25.217,31.347,46.127,31.347s38.829-13.006,46.127-31.347h165.987v-15.673h-18.286v-41.273h-57.992v-20.376h214.204
	v36.909c-8.15-16.289-24.989-27.505-44.408-27.505c-27.367,0-49.633,22.266-49.633,49.633c0,27.367,22.266,49.633,49.633,49.633
	c20.91,0,38.829-13.006,46.127-31.347H512V190.694v-7.837H511.211z M410.122,444.082c-18.726,0-33.959-15.234-33.959-33.959
	c0-18.726,15.234-33.959,33.959-33.959c18.726,0,33.959,15.234,33.959,33.959C444.082,428.848,428.848,444.082,410.122,444.082z
	 M339.765,77.703c0.765,1.914-0.046,3.441-0.429,4.008c-0.476,0.702-1.569,1.881-3.547,1.881c-1.767,0-3.333-1.058-3.987-2.701
	l-5.189-12.972h9.241L339.765,77.703z M287.52,77.703c0.765,1.914-0.046,3.441-0.429,4.008c-0.476,0.702-1.569,1.881-3.547,1.881
	c-1.767,0-3.333-1.058-3.987-2.701l-5.189-12.972h9.241L287.52,77.703z M235.275,77.703c0.765,1.914-0.046,3.441-0.429,4.008
	c-0.476,0.702-1.569,1.881-3.547,1.881c-1.767,0-3.332-1.058-3.987-2.701l-5.189-12.972h9.241L235.275,77.703z M181.29,96.653
	c0-14.267,10.454-26.134,24.103-28.356l7.363,18.408c3.045,7.631,10.323,12.561,18.543,12.561c6.63,0,12.807-3.277,16.524-8.766
	c3.72-5.493,4.469-12.451,2.005-18.615l-1.585-3.966h9.243l7.515,18.786c3.045,7.631,10.323,12.561,18.543,12.561
	c6.63,0,12.807-3.277,16.524-8.766c3.72-5.493,4.469-12.451,2.005-18.615l-1.585-3.966h9.243l7.515,18.786
	c3.045,7.631,10.323,12.561,18.543,12.561c6.63,0,12.807-3.277,16.524-8.766c3.72-5.493,4.469-12.451,2.005-18.615l-1.216-3.041
	c12.35,3.218,21.494,14.466,21.494,27.809c0,15.844-12.891,28.735-28.735,28.735H210.024
	C194.181,125.388,181.29,112.497,181.29,96.653z M252.865,141.061h50.155v10.449h-50.155V141.061z M130.612,297.796H48.574
	l18.049-99.265h63.99V297.796z M54.857,410.122c0,0.877,0.024,1.747,0.069,2.612H15.673v-13.061h18.286V384H15.673v-10.71h18.286
	v-15.673H15.673v-10.71h18.286v-15.673H15.673v-4.702c0-7.202,5.859-13.061,13.061-13.061h10.449h6.541h84.888v54.477
	c-7.593-4.721-16.543-7.456-26.122-7.456C77.123,360.49,54.857,382.755,54.857,410.122z M104.49,444.082
	c-18.726,0-33.959-15.234-33.959-33.959c0-18.726,15.234-33.959,33.959-33.959s33.959,15.234,33.959,33.959
	C138.449,428.848,123.215,444.082,104.49,444.082z M224.653,412.735h-70.6c0.045-0.865,0.069-1.736,0.069-2.612
	c0-9.831-2.886-18.996-7.837-26.716V198.531h78.367L224.653,412.735L224.653,412.735z M42.616,182.857
	c3.235-9.122,11.95-15.673,22.168-15.673h408.033c10.217,0,18.932,6.552,22.168,15.673H42.616z M454.531,208.98h-99.265v-10.449
	h99.265V208.98z M240.327,198.531h99.265v10.449h-99.265V198.531z M282.645,387.135v25.6h-42.318v-25.6H282.645z M240.327,335.412
	V224.653h214.204v110.759H240.327z M496.327,384h-18.286v15.673h18.286v13.061h-26.122V303.02h26.122V384z M496.327,287.347h-26.122
	v-10.449h26.122V287.347z M496.327,261.224h-26.122v-10.449h26.122V261.224z M496.327,235.102h-26.122v-10.449h26.122V235.102z
	 M496.327,208.98h-26.122v-10.449h26.122V208.98z"/>
<path d="M384,283.167h-73.143c-21.606,0-39.184,17.577-39.184,39.184v7.837h151.51v-7.837
	C423.184,300.745,405.606,283.167,384,283.167z M288.69,314.514c2.365-6.669,7.663-11.948,14.331-14.315v6.478h15.673v-7.837h8.707
	v7.837h15.673v-7.837h8.708v7.837h15.673v-7.837h8.707v7.837h15.673v-6.478c6.667,2.366,11.966,7.647,14.331,14.315H288.69z"/>
<g>
</g>
<g>
</g>
<g>
</g>
<g>
</g>
<g>
</g>
<g>
</g>
<g>
</g>
<g>
</g>
<g>
</g>
<g>
</g>
<g>
</g>
<g>
</g>
<g>
</g>
<g>
</g>
<g>
</g>
</svg>
