<?xml version="1.0" encoding="iso-8859-1"?>
<!-- Generator: Adobe Illustrator 19.0.0, SVG Export Plug-In . SVG Version: 6.00 Build 0)  -->
<svg version="1.1" id="Capa_1" xmlns="http://www.w3.org/2000/svg" xmlns:xlink="http://www.w3.org/1999/xlink" x="0px" y="0px"
	 viewBox="0 0 512 512" style="enable-background:new 0 0 512 512;" xml:space="preserve">
<rect x="180.245" y="208.98" style="fill:#FF6243;" width="323.918" height="182.857"/>
<g>
	<rect x="203.755" y="359.445" style="fill:#FFFFFF;" width="15.673" height="15.673"/>
	<rect x="235.102" y="359.445" style="fill:#FFFFFF;" width="15.673" height="15.673"/>
	<path style="fill:#FFFFFF;" d="M504.163,156.735v52.245H60.082c0-28.85,23.395-52.245,52.245-52.245H504.163z"/>
</g>
<rect x="482.743" y="208.98" style="fill:#D80027;" width="21.42" height="182.857"/>
<rect x="482.743" y="156.735" style="fill:#EBE5DD;" width="21.42" height="52.245"/>
<polygon style="fill:#FF6243;" points="180.245,417.959 7.837,417.959 7.837,334.367 91.429,208.98 180.245,208.98 "/>
<polygon style="fill:#5AAAE7;" points="59.444,313.469 108.21,240.327 148.898,240.327 148.898,313.469 "/>
<rect x="127.478" y="391.837" style="fill:#FFFFFF;" width="376.686" height="26.122"/>
<rect x="482.22" y="391.837" style="fill:#EBE5DD;" width="21.943" height="26.122"/>
<circle style="fill:#57565C;" cx="104.49" cy="407.51" r="41.796"/>
<circle style="fill:#FFFFFF;" cx="104.49" cy="407.51" r="15.673"/>
<circle style="fill:#57565C;" cx="410.122" cy="407.51" r="41.796"/>
<circle style="fill:#FFFFFF;" cx="410.122" cy="407.51" r="15.673"/>
<rect x="229.878" y="233.535" style="fill:#5AAAE7;" width="219.429" height="83.592"/>
<rect x="428.408" y="233.535" style="fill:#1A6FB0;" width="20.898" height="83.592"/>
<path style="fill:#FFFFFF;" d="M444.082,343.249h-208.98c-14.427,0-26.122-11.696-26.122-26.122l0,0h261.224l0,0
	C470.204,331.553,458.509,343.249,444.082,343.249z"/>
<rect x="271.673" y="233.535" style="fill:#91CC04;" width="135.837" height="31.347"/>
<polygon style="fill:#FFFFFF;" points="407.51,264.882 407.51,291.004 377.731,291.004 363.624,267.494 349.518,291.004 
	271.673,291.004 271.673,264.882 "/>
<path style="fill:#57565C;" d="M220.473,62.694h52.245c11.542,0,20.898,9.356,20.898,20.898v52.245
	c0,11.542-9.356,20.898-20.898,20.898h-52.245"/>
<path style="fill:#FFFFFF;" d="M230.922,156.735h-52.245c-11.542,0-20.898-9.356-20.898-20.898V83.592
	c0-11.542,9.356-20.898,20.898-20.898h52.245c11.542,0,20.898,9.356,20.898,20.898v52.245
	C251.82,147.379,242.464,156.735,230.922,156.735z"/>
<circle style="fill:#91CC04;" cx="204.8" cy="109.714" r="15.673"/>
<rect x="141.061" y="334.367" width="15.673" height="15.673"/>
<path d="M156.735,232.49h-52.719L44.8,321.306h111.935V232.49z M141.061,305.633H74.087l38.315-57.469h28.658V305.633z"/>
<path d="M462.482,148.898l-87.078-39.182l88.612-39.875l-6.432-14.294l-101.278,45.575l-55.885-25.148
	c-3.348-12.157-14.496-21.117-27.702-21.117h-41.796h-10.449h-41.796c-15.844,0-28.735,12.891-28.735,28.735v52.245
	c0,15.844,12.891,28.735,28.735,28.735h41.796h275.853v36.571H180.245H87.234H68.611c3.713-20.762,21.902-36.571,43.715-36.571
	h30.156v-15.673h-30.156c-33.13,0-60.082,26.952-60.082,60.082v7.837h24.54L0,331.994v93.802h58.363
	c7.298,18.341,25.217,31.347,46.127,31.347s38.829-13.006,46.127-31.347h165.987v-15.673H188.082v-10.449h173.033
	c-0.406,2.554-0.625,5.17-0.625,7.837c0,27.367,22.266,49.633,49.633,49.633c20.91,0,38.829-13.006,46.127-31.347H512V148.898
	H462.482z M424.285,148.898H298.3c0.882-1.72,1.596-3.54,2.119-5.439l55.888-25.15L424.285,148.898z M301.453,125.806V93.627
	l35.755,16.089L301.453,125.806z M285.675,82.019v4.508l0.104,0.047v46.285l-27.746,12.485c1.048-2.978,1.624-6.176,1.624-9.508
	V83.592c0-4.702-1.143-9.14-3.154-13.061h16.215C279.387,70.531,284.896,75.558,285.675,82.019z M220.473,148.898h-41.796
	c-7.202,0-13.061-5.859-13.061-13.061V83.592c0-7.202,5.859-13.061,13.061-13.061h41.796h10.449c7.202,0,13.061,5.859,13.061,13.061
	v52.245c0,7.202-5.859,13.061-13.061,13.061H220.473z M104.49,441.469c-18.726,0-33.959-15.234-33.959-33.959
	c0-18.726,15.234-33.959,33.959-33.959s33.959,15.234,33.959,33.959C138.449,426.236,123.215,441.469,104.49,441.469z
	 M104.49,357.878c-27.367,0-49.633,22.266-49.633,49.633c0,0.877,0.024,1.747,0.069,2.612H15.673v-13.061h18.286v-15.673H15.673
	v-10.971h18.286v-15.673H15.673V336.74l79.949-119.924h76.785V384H148.19C139.795,368.46,123.356,357.878,104.49,357.878z
	 M172.408,410.122h-18.355c0.045-0.865,0.069-1.736,0.069-2.612c0-2.667-0.217-5.283-0.625-7.837h18.911V410.122z M410.122,441.469
	c-18.726,0-33.959-15.234-33.959-33.959c0-18.726,15.234-33.959,33.959-33.959c18.726,0,33.959,15.234,33.959,33.959
	C444.082,426.236,428.848,441.469,410.122,441.469z M496.327,410.122h-36.64c0.045-0.865,0.069-1.736,0.069-2.612
	c0-2.667-0.217-5.283-0.625-7.837h37.196V410.122z M453.822,384c-8.394-15.54-24.833-26.122-43.7-26.122s-35.305,10.583-43.7,26.122
	H188.082V216.816h308.245V384H453.822z"/>
<rect x="446.694" y="175.02" width="15.673" height="15.673"/>
<rect x="384" y="175.02" width="47.02" height="15.673"/>
<rect x="332.278" y="410.122" width="15.673" height="15.673"/>
<path d="M104.49,384c-12.963,0-23.51,10.547-23.51,23.51s10.547,23.51,23.51,23.51S128,420.473,128,407.51S117.453,384,104.49,384z
	 M104.49,415.347c-4.322,0-7.837-3.515-7.837-7.837s3.515-7.837,7.837-7.837s7.837,3.515,7.837,7.837
	S108.811,415.347,104.49,415.347z"/>
<path d="M410.122,384c-12.963,0-23.51,10.547-23.51,23.51s10.547,23.51,23.51,23.51s23.51-10.547,23.51-23.51
	S423.085,384,410.122,384z M410.122,415.347c-4.322,0-7.837-3.515-7.837-7.837s3.515-7.837,7.837-7.837s7.837,3.515,7.837,7.837
	S414.444,415.347,410.122,415.347z"/>
<path d="M457.143,309.29v-83.592H222.041v83.592h-20.898v7.837c0,18.726,15.234,33.959,33.959,33.959h208.98
	c18.726,0,33.959-15.234,33.959-33.959v-7.837H457.143z M279.51,257.045v-15.673h120.163v15.673H279.51z M279.51,272.718h71.841
	l-6.269,10.449H279.51V272.718z M399.673,272.718v10.449h-17.506l-6.269-10.449H399.673z M237.714,241.371h26.122v57.469h90.118
	l9.669-16.115l9.669,16.115h42.053v-57.469h26.122v67.918H237.714V241.371z M444.082,335.412h-208.98
	c-7.281,0-13.581-4.277-16.521-10.449h3.46h235.102h3.459C457.662,331.135,451.362,335.412,444.082,335.412z"/>
<path d="M204.8,86.204c-12.963,0-23.51,10.547-23.51,23.51s10.547,23.51,23.51,23.51s23.51-10.547,23.51-23.51
	S217.763,86.204,204.8,86.204z M204.8,117.551c-4.322,0-7.837-3.515-7.837-7.837s3.515-7.837,7.837-7.837s7.837,3.515,7.837,7.837
	S209.122,117.551,204.8,117.551z"/>
<rect x="102.4" y="175.02" width="15.673" height="15.673"/>
<g>
</g>
<g>
</g>
<g>
</g>
<g>
</g>
<g>
</g>
<g>
</g>
<g>
</g>
<g>
</g>
<g>
</g>
<g>
</g>
<g>
</g>
<g>
</g>
<g>
</g>
<g>
</g>
<g>
</g>
</svg>
