<?xml version="1.0" encoding="iso-8859-1"?>
<!-- Generator: Adobe Illustrator 19.0.0, SVG Export Plug-In . SVG Version: 6.00 Build 0)  -->
<svg version="1.1" id="Capa_1" xmlns="http://www.w3.org/2000/svg" xmlns:xlink="http://www.w3.org/1999/xlink" x="0px" y="0px"
	 viewBox="0 0 512 512" style="enable-background:new 0 0 512 512;" xml:space="preserve">
<g>
	<path style="fill:#CC6C45;" d="M189.704,128H156c-6.616,0-12,5.384-12,12s5.384,12,12,12h72.104L189.704,128z"/>
	<rect x="416" y="288" style="fill:#CC6C45;" width="48" height="48"/>
</g>
<path style="fill:#80CBED;" d="M472,256H328H184h-0.208l0,0c1.104,1.456,2.064,2.984,2.96,4.584c0.272,0.48,0.536,0.96,0.792,1.456
	c0.696,1.368,1.328,2.752,1.872,4.208c0.392,1.032,0.688,2.104,0.992,3.184c0.304,1.104,0.656,2.176,0.864,3.312
	c0.44,2.352,0.728,4.768,0.728,7.256v184h16.808l0,0c0.048-0.24,0.152-0.464,0.208-0.704c0.488-2.2,1.144-4.328,1.984-6.376
	c0.328-0.8,0.768-1.528,1.144-2.304c0.696-1.424,1.408-2.832,2.264-4.16c0.52-0.816,1.12-1.56,1.696-2.336
	c0.88-1.168,1.784-2.304,2.784-3.376c0.68-0.728,1.392-1.408,2.128-2.08c1.064-0.976,2.168-1.888,3.336-2.752
	c0.8-0.592,1.592-1.16,2.432-1.688c1.264-0.792,2.576-1.48,3.928-2.136c0.856-0.416,1.688-0.848,2.576-1.208
	c1.528-0.608,3.128-1.056,4.744-1.48c0.8-0.208,1.56-0.488,2.376-0.64c2.456-0.472,4.992-0.76,7.592-0.76s5.136,0.288,7.6,0.768
	c0.816,0.16,1.576,0.44,2.376,0.64c1.616,0.416,3.216,0.864,4.744,1.48c0.888,0.352,1.72,0.792,2.576,1.208
	c1.352,0.656,2.664,1.336,3.928,2.136c0.84,0.528,1.632,1.104,2.432,1.688c1.168,0.864,2.272,1.768,3.336,2.752
	c0.736,0.672,1.448,1.352,2.128,2.08c1,1.064,1.904,2.2,2.784,3.376c0.576,0.768,1.176,1.52,1.696,2.336
	c0.856,1.328,1.568,2.728,2.264,4.16c0.376,0.776,0.816,1.504,1.144,2.304c0.84,2.048,1.496,4.176,1.984,6.376
	c0.056,0.24,0.16,0.464,0.208,0.704l0,0H304V280c0-4.416,3.584-8,8-8h64c4.416,0,8,3.584,8,8v184h24.808l0,0
	c0.048-0.24,0.152-0.464,0.208-0.704c0.488-2.2,1.144-4.328,1.984-6.376c0.328-0.8,0.768-1.528,1.144-2.304
	c0.696-1.424,1.408-2.832,2.264-4.16c0.52-0.816,1.12-1.56,1.696-2.336c0.88-1.168,1.784-2.304,2.784-3.376
	c0.68-0.728,1.392-1.408,2.128-2.08c1.064-0.976,2.168-1.888,3.336-2.752c0.8-0.592,1.592-1.16,2.432-1.688
	c1.264-0.792,2.576-1.48,3.928-2.136c0.856-0.416,1.688-0.848,2.576-1.208c1.528-0.608,3.128-1.056,4.744-1.48
	c0.8-0.208,1.56-0.488,2.376-0.64c2.456-0.472,4.992-0.76,7.592-0.76s5.136,0.288,7.6,0.768c0.816,0.16,1.576,0.44,2.376,0.64
	c1.616,0.416,3.216,0.864,4.744,1.48c0.888,0.352,1.72,0.792,2.576,1.208c1.352,0.656,2.664,1.336,3.928,2.136
	c0.84,0.528,1.632,1.104,2.432,1.688c1.168,0.864,2.272,1.768,3.336,2.752c0.736,0.672,1.448,1.352,2.128,2.08
	c1,1.064,1.904,2.2,2.784,3.376c0.576,0.768,1.176,1.52,1.696,2.336c0.856,1.328,1.568,2.728,2.264,4.16
	c0.376,0.776,0.816,1.504,1.144,2.304c0.84,2.048,1.496,4.176,1.984,6.376c0.056,0.24,0.16,0.464,0.208,0.704l0,0h8.8V280
	C496,266.768,485.232,256,472,256z M288,344c0,4.416-3.584,8-8,8h-64c-4.416,0-8-3.584-8-8v-64c0-4.416,3.584-8,8-8h64
	c4.416,0,8,3.584,8,8V344z M480,344c0,4.416-3.584,8-8,8h-64c-4.416,0-8-3.584-8-8v-64c0-4.416,3.584-8,8-8h64c4.416,0,8,3.584,8,8
	V344z"/>
<path style="fill:#E2B624;" d="M320,112h32c0-52.936-43.064-96-96-96s-96,43.064-96,96h32H320z M296,72h16v16h-16V72z M280,88h-16
	V72h16V88z M248,40h16v16h-16V40z M232,72h16v16h-16V72z M200,72h16v16h-16V72z"/>
<g>
	<rect x="224" y="288" style="fill:#CC6C45;" width="48" height="48"/>
	<rect x="320" y="288" style="fill:#CC6C45;" width="48" height="176"/>
</g>
<path style="fill:#80CBED;" d="M152,256h-8H40c-13.232,0-24,10.768-24,24v184h160V280C176,266.768,165.232,256,152,256z M56,448
	c-13.232,0-24-10.768-24-24s10.768-24,24-24s24,10.768,24,24S69.232,448,56,448z M136,448c-13.232,0-24-10.768-24-24
	s10.768-24,24-24s24,10.768,24,24S149.232,448,136,448z M160,368c0,4.416-3.584,8-8,8H40c-4.416,0-8-3.584-8-8v-79.16
	c0-9.288,7.552-16.84,16.848-16.84h94.312c9.288,0,16.84,7.552,16.84,16.84V368z"/>
<path style="fill:#CC6C45;" d="M144,180c0,6.616,5.384,12,12,12h200c6.616,0,12-5.384,12-12s-5.384-12-12-12h-99.984
	c-0.008,0-0.008,0-0.016,0s-0.016,0-0.016,0H156C149.384,168,144,173.384,144,180z"/>
<path style="fill:#E2B624;" d="M352,216v-8H160v8c0,13.232,10.768,24,24,24h144C341.232,240,352,229.232,352,216z"/>
<g>
	<path style="fill:#CC6C45;" d="M376,480h-30.528c0.384,1.088,0.864,2.128,1.392,3.136c0.08,0.152,0.16,0.296,0.24,0.44
		c0.536,0.968,1.12,1.904,1.784,2.784c0.072,0.096,0.152,0.184,0.224,0.272c1.232,1.6,2.672,3.008,4.256,4.248
		c0.264,0.208,0.504,0.448,0.776,0.64c0.56,0.4,1.168,0.728,1.76,1.08c0.648,0.384,1.304,0.76,1.992,1.088
		c0.536,0.256,1.088,0.48,1.648,0.688c0.864,0.328,1.744,0.6,2.648,0.824c0.472,0.12,0.936,0.256,1.424,0.352
		c1.424,0.272,2.88,0.448,4.384,0.448s2.96-0.176,4.384-0.44c0.488-0.088,0.952-0.232,1.424-0.352
		c0.904-0.224,1.792-0.496,2.648-0.824c0.56-0.216,1.112-0.44,1.648-0.688c0.688-0.32,1.344-0.704,2-1.088
		c0.592-0.352,1.2-0.68,1.76-1.08c0.272-0.192,0.512-0.44,0.776-0.64c1.576-1.24,3.016-2.648,4.24-4.24
		c0.08-0.096,0.16-0.184,0.24-0.288c0.656-0.88,1.24-1.816,1.776-2.776c0.08-0.152,0.168-0.296,0.24-0.448
		c0.528-1.008,1.008-2.048,1.392-3.136L376,480L376,480z"/>
	<circle style="fill:#CC6C45;" cx="56" cy="424" r="8"/>
	<path style="fill:#CC6C45;" d="M143.152,288H48.848c-0.472,0-0.848,0.376-0.848,0.84V360h96v-71.16
		C144,288.376,143.624,288,143.152,288z"/>
	<circle style="fill:#CC6C45;" cx="136" cy="424" r="8"/>
	<circle style="fill:#CC6C45;" cx="248" cy="472" r="24"/>
	<circle style="fill:#CC6C45;" cx="448" cy="472" r="24"/>
</g>
<polygon style="fill:#E2B624;" points="219.896,128 256,150.568 292.104,128 "/>
<g>
	<path style="fill:#CC6C45;" d="M47.592,480c0.384,1.088,0.864,2.128,1.392,3.136c0.08,0.144,0.16,0.296,0.24,0.44
		c0.536,0.968,1.12,1.904,1.776,2.784c0.072,0.096,0.16,0.192,0.24,0.288c1.224,1.592,2.664,3,4.24,4.24
		c0.264,0.208,0.504,0.448,0.776,0.64c0.56,0.4,1.168,0.728,1.76,1.08c0.648,0.384,1.304,0.76,2,1.088
		c0.536,0.256,1.088,0.48,1.648,0.688c0.864,0.328,1.744,0.6,2.648,0.824c0.472,0.12,0.936,0.256,1.424,0.352
		c1.424,0.264,2.88,0.44,4.384,0.44s2.96-0.176,4.384-0.44c0.488-0.088,0.952-0.232,1.424-0.352
		c0.904-0.224,1.792-0.496,2.648-0.824c0.56-0.216,1.112-0.44,1.648-0.688c0.688-0.32,1.344-0.704,2-1.088
		c0.592-0.352,1.2-0.68,1.76-1.08c0.272-0.192,0.512-0.44,0.776-0.64c1.576-1.24,3.016-2.648,4.24-4.24
		c0.08-0.096,0.16-0.184,0.24-0.288c0.656-0.88,1.24-1.816,1.776-2.776c0.08-0.152,0.168-0.296,0.24-0.448
		c0.528-1.008,1.008-2.048,1.392-3.136L47.592,480L47.592,480z"/>
	<path style="fill:#CC6C45;" d="M368,140c0-6.616-5.384-12-12-12h-33.704l-38.4,24H356C362.616,152,368,146.616,368,140z"/>
</g>
<g>
	<path style="fill:#0B1716;" d="M472,240H359.792c5.08-6.704,8.208-14.96,8.208-24v-10.808c9.424-4.512,16-14.064,16-25.192
		c0-7.84-3.256-14.912-8.464-20c5.208-5.088,8.464-12.16,8.464-20c0-11.128-6.576-20.68-16-25.192V112C368,50.24,317.76,0,256,0
		S144,50.24,144,112v2.808c-9.424,4.512-16,14.064-16,25.192c0,7.84,3.256,14.912,8.464,20c-5.208,5.088-8.464,12.16-8.464,20
		c0,11.128,6.576,20.68,16,25.192V216c0,9.04,3.128,17.296,8.208,24H152h-8H40c-22.056,0-40,17.944-40,40v192c0,4.424,3.584,8,8,8
		h22.928c3.72,18.232,19.88,32,39.192,32s35.472-13.768,39.192-32H184h24.808c3.72,18.232,19.88,32,39.192,32
		s35.472-13.768,39.192-32H312h16.808c3.72,18.232,19.88,32,39.192,32s35.472-13.768,39.192-32h1.616
		c3.72,18.232,19.88,32,39.192,32s35.472-13.768,39.192-32H504c4.416,0,8-3.576,8-8V280C512,257.944,494.056,240,472,240z
		 M219.896,128h72.208L256,150.568L219.896,128z M322.296,128H356c6.616,0,12,5.384,12,12s-5.384,12-12,12h-72.104L322.296,128z
		 M256,16c52.936,0,96,43.064,96,96h-32H192h-32C160,59.064,203.064,16,256,16z M144,140c0-6.616,5.384-12,12-12h33.704l38.4,24H156
		C149.384,152,144,146.616,144,140z M255.984,168c0.008,0,0.008,0,0.016,0c0.008,0,0.016,0,0.016,0H356c6.616,0,12,5.384,12,12
		s-5.384,12-12,12H156c-6.616,0-12-5.384-12-12s5.384-12,12-12H255.984z M160,216v-8h192v8c0,13.232-10.768,24-24,24H184
		C170.768,240,160,229.232,160,216z M91.008,483.584c-0.536,0.968-1.112,1.896-1.776,2.776c-0.072,0.096-0.16,0.192-0.24,0.288
		c-1.232,1.584-2.648,3-4.24,4.24c-0.264,0.208-0.504,0.448-0.776,0.64c-0.56,0.4-1.16,0.728-1.76,1.08
		c-0.648,0.384-1.304,0.76-2,1.088c-0.536,0.256-1.088,0.48-1.648,0.688c-0.864,0.328-1.744,0.6-2.648,0.824
		c-0.48,0.12-0.936,0.256-1.424,0.352c-1.424,0.264-2.88,0.44-4.376,0.44s-2.952-0.176-4.384-0.44
		c-0.488-0.088-0.952-0.232-1.424-0.352c-0.904-0.224-1.792-0.496-2.648-0.824c-0.56-0.216-1.104-0.44-1.648-0.688
		c-0.688-0.32-1.344-0.704-2-1.088c-0.6-0.352-1.2-0.68-1.76-1.08c-0.272-0.192-0.512-0.44-0.776-0.64
		c-1.584-1.232-3.008-2.648-4.24-4.24c-0.08-0.096-0.16-0.184-0.24-0.288c-0.664-0.88-1.24-1.816-1.776-2.784
		c-0.08-0.144-0.16-0.288-0.24-0.44c-0.536-1.008-1-2.048-1.392-3.136l0,0H92.64l0,0c-0.392,1.088-0.856,2.12-1.392,3.136
		C91.168,483.288,91.088,483.432,91.008,483.584z M176,464H16V280c0-13.232,10.768-24,24-24h104h8c13.232,0,24,10.768,24,24V464z
		 M248,496c-13.232,0-24-10.768-24-24s10.768-24,24-24s24,10.768,24,24S261.232,496,248,496z M368,464h-48V288h48V464z
		 M388.888,483.584c-0.536,0.968-1.112,1.896-1.776,2.776c-0.072,0.096-0.16,0.192-0.24,0.288c-1.232,1.584-2.648,3-4.24,4.24
		c-0.264,0.208-0.504,0.448-0.776,0.64c-0.56,0.4-1.16,0.728-1.76,1.08c-0.648,0.384-1.304,0.76-2,1.088
		c-0.536,0.256-1.088,0.48-1.648,0.688c-0.864,0.328-1.744,0.6-2.648,0.824c-0.48,0.12-0.936,0.256-1.424,0.352
		c-1.416,0.264-2.872,0.44-4.376,0.44s-2.96-0.176-4.384-0.44c-0.488-0.088-0.952-0.232-1.424-0.352
		c-0.904-0.224-1.792-0.496-2.648-0.824c-0.56-0.216-1.104-0.44-1.648-0.688c-0.688-0.32-1.344-0.704-1.992-1.088
		c-0.6-0.352-1.2-0.68-1.76-1.08c-0.272-0.192-0.512-0.432-0.776-0.64c-1.592-1.24-3.016-2.656-4.256-4.248
		c-0.072-0.096-0.152-0.184-0.224-0.272c-0.664-0.88-1.24-1.816-1.784-2.784c-0.08-0.144-0.16-0.296-0.24-0.44
		c-0.536-1.008-1.008-2.048-1.392-3.136l0,0H376h14.528l0,0c-0.392,1.088-0.856,2.12-1.392,3.136
		C389.056,483.288,388.968,483.432,388.888,483.584z M448,496c-13.232,0-24-10.768-24-24s10.768-24,24-24s24,10.768,24,24
		S461.232,496,448,496z M496,464h-8.808l0,0l0,0c-0.048-0.24-0.152-0.464-0.208-0.704c-0.488-2.2-1.144-4.328-1.984-6.376
		c-0.328-0.8-0.768-1.528-1.144-2.304c-0.696-1.424-1.408-2.832-2.264-4.16c-0.52-0.816-1.12-1.56-1.696-2.336
		c-0.88-1.168-1.792-2.312-2.784-3.376c-0.68-0.728-1.392-1.408-2.128-2.08c-1.064-0.976-2.176-1.896-3.336-2.752
		c-0.8-0.592-1.592-1.16-2.432-1.688c-1.256-0.792-2.576-1.48-3.928-2.136c-0.856-0.416-1.688-0.848-2.576-1.208
		c-1.528-0.608-3.128-1.056-4.744-1.48c-0.8-0.208-1.56-0.488-2.376-0.64C453.136,432.288,450.6,432,448,432s-5.136,0.288-7.6,0.768
		c-0.816,0.16-1.576,0.44-2.376,0.64c-1.616,0.416-3.216,0.872-4.744,1.48c-0.888,0.352-1.72,0.792-2.576,1.208
		c-1.344,0.648-2.672,1.344-3.928,2.136c-0.84,0.528-1.632,1.104-2.432,1.688c-1.16,0.856-2.272,1.776-3.336,2.752
		c-0.736,0.672-1.448,1.352-2.128,2.08c-1,1.064-1.912,2.208-2.784,3.376c-0.576,0.768-1.176,1.52-1.696,2.336
		c-0.848,1.32-1.568,2.736-2.264,4.16c-0.376,0.776-0.816,1.504-1.144,2.304c-0.84,2.048-1.496,4.176-1.984,6.376
		c-0.056,0.24-0.16,0.464-0.208,0.704l0,0l0,0H384V280c0-4.416-3.584-8-8-8h-64c-4.416,0-8,3.584-8,8v184h-16.808l0,0l0,0
		c-0.048-0.24-0.152-0.464-0.208-0.704c-0.488-2.2-1.144-4.328-1.984-6.376c-0.328-0.8-0.768-1.528-1.144-2.304
		c-0.696-1.424-1.408-2.832-2.264-4.16c-0.52-0.816-1.12-1.56-1.696-2.336c-0.88-1.168-1.792-2.312-2.784-3.376
		c-0.68-0.728-1.392-1.408-2.128-2.08c-1.064-0.976-2.176-1.896-3.336-2.752c-0.8-0.592-1.592-1.16-2.432-1.688
		c-1.256-0.792-2.576-1.48-3.928-2.136c-0.856-0.416-1.688-0.848-2.576-1.208c-1.528-0.608-3.128-1.056-4.744-1.48
		c-0.8-0.208-1.56-0.488-2.376-0.64C253.136,432.288,250.6,432,248,432s-5.136,0.288-7.6,0.768c-0.816,0.16-1.576,0.44-2.376,0.64
		c-1.616,0.416-3.216,0.872-4.744,1.48c-0.888,0.352-1.72,0.792-2.576,1.208c-1.344,0.648-2.672,1.344-3.928,2.136
		c-0.84,0.528-1.632,1.104-2.432,1.688c-1.16,0.856-2.272,1.776-3.336,2.752c-0.736,0.672-1.448,1.352-2.128,2.08
		c-1,1.064-1.912,2.208-2.784,3.376c-0.576,0.768-1.176,1.52-1.696,2.336c-0.848,1.32-1.568,2.736-2.264,4.16
		c-0.376,0.776-0.816,1.504-1.144,2.304c-0.84,2.048-1.496,4.176-1.984,6.376c-0.056,0.24-0.16,0.464-0.208,0.704l0,0l0,0H192V280
		c0-2.488-0.296-4.896-0.736-7.256c-0.208-1.136-0.56-2.208-0.864-3.312c-0.296-1.072-0.608-2.144-0.992-3.184
		c-0.536-1.456-1.176-2.84-1.872-4.208c-0.248-0.496-0.52-0.976-0.792-1.456c-0.896-1.6-1.856-3.136-2.96-4.584l0,0l0,0H184h144h144
		c13.232,0,24,10.768,24,24V464z"/>
	<path style="fill:#0B1716;" d="M143.152,272H48.848C39.552,272,32,279.552,32,288.84V368c0,4.416,3.584,8,8,8h112
		c4.416,0,8-3.584,8-8v-79.16C160,279.552,152.448,272,143.152,272z M144,360H48v-71.16c0-0.464,0.376-0.84,0.848-0.84h94.312
		c0.464,0,0.84,0.376,0.84,0.84V360z"/>
	<path style="fill:#0B1716;" d="M56,400c-13.232,0-24,10.768-24,24s10.768,24,24,24s24-10.768,24-24S69.232,400,56,400z M56,432
		c-4.408,0-8-3.584-8-8s3.592-8,8-8s8,3.584,8,8S60.408,432,56,432z"/>
	<path style="fill:#0B1716;" d="M136,400c-13.232,0-24,10.768-24,24s10.768,24,24,24s24-10.768,24-24S149.232,400,136,400z M136,432
		c-4.408,0-8-3.584-8-8s3.592-8,8-8s8,3.584,8,8S140.408,432,136,432z"/>
	<path style="fill:#0B1716;" d="M280,272h-64c-4.416,0-8,3.584-8,8v64c0,4.416,3.584,8,8,8h64c4.416,0,8-3.584,8-8v-64
		C288,275.584,284.416,272,280,272z M272,336h-48v-48h48V336z"/>
	<path style="fill:#0B1716;" d="M472,272h-64c-4.416,0-8,3.584-8,8v64c0,4.416,3.584,8,8,8h64c4.416,0,8-3.584,8-8v-64
		C480,275.584,476.416,272,472,272z M464,336h-48v-48h48V336z"/>
	<rect x="408" y="152" style="fill:#0B1716;" width="16" height="16"/>
	<rect x="440" y="152" style="fill:#0B1716;" width="16" height="16"/>
	<rect x="440" y="184" style="fill:#0B1716;" width="16" height="16"/>
	<rect x="440" y="120" style="fill:#0B1716;" width="16" height="16"/>
	<rect x="88" y="152" style="fill:#0B1716;" width="16" height="16"/>
	<rect x="56" y="152" style="fill:#0B1716;" width="16" height="16"/>
	<rect x="56" y="120" style="fill:#0B1716;" width="16" height="16"/>
	<rect x="56" y="184" style="fill:#0B1716;" width="16" height="16"/>
	<rect x="200" y="72" style="fill:#0B1716;" width="16" height="16"/>
	<rect x="232" y="72" style="fill:#0B1716;" width="16" height="16"/>
	<rect x="248" y="40" style="fill:#0B1716;" width="16" height="16"/>
	<rect x="264" y="72" style="fill:#0B1716;" width="16" height="16"/>
	<rect x="296" y="72" style="fill:#0B1716;" width="16" height="16"/>
</g>
<g>
</g>
<g>
</g>
<g>
</g>
<g>
</g>
<g>
</g>
<g>
</g>
<g>
</g>
<g>
</g>
<g>
</g>
<g>
</g>
<g>
</g>
<g>
</g>
<g>
</g>
<g>
</g>
<g>
</g>
</svg>
