<svg height="512" viewBox="0 0 64 64" width="512" xmlns="http://www.w3.org/2000/svg"><path d="m5 47v-13l7-4 2.661-12.419a2 2 0 0 1 1.956-1.581h42.383v31z" fill="#039791"/><path d="m3 47h58v4h-58z" fill="#bdccd4"/><path d="m31 23h24v9h-24z" fill="#f2f2f2"/><path d="m27 20h-12.857l-2.143 10h15z" fill="#808080"/><path d="m30 32h26v3h-26z" fill="#603813"/><path d="m30 20h26v3h-26z" fill="#603813"/><path d="m47 28h4v4h-4z" fill="#fbb03b"/><path d="m15 30h12v17h-12z" fill="#00807c"/><path d="m23 34h4" fill="none" stroke="#000" stroke-linejoin="round" stroke-width="2"/><path d="m27 41h12v16h-12z" fill="#42210b"/><path d="m60 56h2v2h-2z" fill="#606060"/><path d="m5 36h5v4h-5z" fill="#bdccd4"/><path d="m53 43h6v4h-6z" fill="#c1272d"/><path d="m55 39h4v4h-4z" fill="#bdccd4"/><path d="m25 8h26v8h-26z" fill="#ccc"/><path d="m28 11h16v2h-16z" fill="#4d4d4d"/><path d="m46 11h2v2h-2z" fill="#4d4d4d"/><path d="m23 20-10 10h8l6-6v-4z" fill="#b3b3b3"/><path d="m48 16-4 4h6l4-4z" fill="#82d1df"/><path d="m30 34-3 3v4h2l6-6h-5z" fill="#82d1df"/><path d="m29 43h8v11h-8z" fill="#333"/><path d="m2 56h56v2h-56z" fill="#606060"/><circle cx="49" cy="51" fill="#4d4d4d" r="6"/><circle cx="49" cy="51" fill="#333" r="2"/><circle cx="15" cy="51" fill="#4d4d4d" r="6"/><circle cx="15" cy="51" fill="#333" r="2"/><path d="m15 48a3 3 0 1 0 3 3 3 3 0 0 0 -3-3zm0 4a1 1 0 1 1 1-1 1 1 0 0 1 -1 1z"/><path d="m49 48a3 3 0 1 0 3 3 3 3 0 0 0 -3-3zm0 4a1 1 0 1 1 1-1 1 1 0 0 1 -1 1z"/><path d="m61 46h-1v-30a1 1 0 0 0 -1-1h-7v-7a1 1 0 0 0 -1-1h-26a1 1 0 0 0 -1 1v7h-7.383a3.014 3.014 0 0 0 -2.933 2.371l-2.568 11.983-6.616 3.778a1 1 0 0 0 -.5.868v12h-1a1 1 0 0 0 -1 1v4a1 1 0 0 0 1 1h5.08a6.978 6.978 0 0 0 2.031 4h-8.111v2h56v-2h-4.111a6.978 6.978 0 0 0 2.031-4h5.08a1 1 0 0 0 1-1v-4a1 1 0 0 0 -1-1zm-7 0v-2h4v2zm4-4h-2v-2h2zm0-4h-3a1 1 0 0 0 -1 1v3h-1a1 1 0 0 0 -1 1v1.685a6.953 6.953 0 0 0 -7.889 1.315h-4.111v-5a1 1 0 0 0 -1-1h-7.586l4-4h20.586a1 1 0 0 0 1-1v-3a1 1 0 0 0 -1-1v-7a1 1 0 0 0 1-1v-3a1 1 0 0 0 -1-1h-3.586l2-2h3.586zm-15.92 12h-2.08v-2h2.685a6.937 6.937 0 0 0 -.605 2zm-20.16 0a6.937 6.937 0 0 0 -.605-2h4.685v2zm4.08-21h-2.586l2.586-2.586zm0-5.414-5.414 5.414h-5.172l8-8h2.586zm-10 7.414h10v2h-3v2h3v11h-6.111a6.977 6.977 0 0 0 -3.889-1.92zm12 6.414 1.531-1.53c.017.009.037.013.055.021l.063.024a.977.977 0 0 0 .351.071h2.586l-4 4h-.586zm16-16.414h11v1h-24v-1zm4.414-4h3.172l-2 2h-3.172zm-16.414 7h22v7h-2v-3a1 1 0 0 0 -1-1h-4a1 1 0 0 0 -1 1v3h-14zm3 10h-4v-1h24v1zm15-3h-2v-2h2zm-24-22h24v6h-24zm-9.383 8h28.969l-2 2h-13.586a1 1 0 0 0 -1 1v3a1 1 0 0 0 1 1v7a1 1 0 0 0 -1 1v1.586l-1 1v-14.586a1 1 0 0 0 -1-1h-11.621l.26-1.21a1 1 0 0 1 .978-.79zm-1.666 4h5.635l-7.172 7.172zm-8.951 16h3v2h-3zm0 4h4a1 1 0 0 0 1-1v-4a1 1 0 0 0 -1-1h-4v-.42l6.265-3.58h1.735v13.08a6.977 6.977 0 0 0 -3.889 1.92h-4.111zm-2 7h4.685a6.937 6.937 0 0 0 -.605 2h-4.08zm6 3a5 5 0 1 1 5 5 5.006 5.006 0 0 1 -5-5zm11.92 1h4.08v4h-6.111a6.978 6.978 0 0 0 2.031-4zm6.08 4v-14h10v14zm12 0v-4h2.08a6.978 6.978 0 0 0 2.031 4zm9 0a5 5 0 1 1 5-5 5.006 5.006 0 0 1 -5 5zm11-6h-4.08a6.937 6.937 0 0 0 -.605-2h4.685z"/><path d="m60 56h2v2h-2z"/><path d="m28 11h16v2h-16z"/><path d="m46 11h2v2h-2z"/></svg>