<svg id="Layer_3" enable-background="new 0 0 64 64" height="512" viewBox="0 0 64 64" width="512" xmlns="http://www.w3.org/2000/svg"><g><g><path d="m21.29 29.55-.29.45-9.622 15.744c-.856 1.402-2.379 2.256-4.021 2.256-1.484 0-2.88-.698-3.771-1.885l-1.586-2.115 2.303.768c.462.154.945.232 1.432.232 1.426 0 2.768-.671 3.624-1.812 1.082-1.443 1.854-3.095 2.267-4.85l1.845-7.843c1.006-4.273 2.973-8.261 5.753-11.659 3.023-3.694 7.544-5.836 12.316-5.836 3.538 0 6.976 1.179 9.769 3.352l3.406 2.649c.833.647 1.858.999 2.913.999 1.493 0 2.899-.703 3.795-1.898l1.577-2.102c-1.281-1.281-2-3.017-2-4.828v-2.172l1.685 1.011c2.057 1.234 3.315 3.457 3.315 5.855v.134l3 1v2l3 3-1 2h-2l-2-1h-3l-1.995 3.325c-.644 1.073-1.687 1.846-2.901 2.149-1.336.334-2.459 1.235-3.075 2.467l-3.311 6.622c-.44.88-1.34 1.437-2.326 1.437-.87 0-1.682-.435-2.165-1.158l-1.227-1.842c1.839 0 3.519-1.039 4.342-2.683l.158-.317h-1.672c-1.797 0-3.521-.708-4.799-1.971l-10.029 20.971 6-1 2.724.681c.75.187 1.276.861 1.276 1.634 0 .931-.754 1.685-1.685 1.685h-11.315l-1-3 4.699-16.916c.194-.698.122-1.442-.202-2.09-.32-.64-.864-1.141-1.529-1.407-1.085-.434-2.001-1.147-2.678-2.037z" fill="#976947"/></g><g><path d="m55 13.855c0-.616-.07-1.224-.192-1.822-.548-.806-1.26-1.505-2.123-2.023l-1.685-1.01v2.172c0 1.811.719 3.548 2 4.828l-1.577 2.102c-.896 1.195-2.302 1.898-3.795 1.898-1.055 0-2.08-.352-2.913-.999l-3.406-2.649c-2.793-2.173-6.23-3.352-9.769-3.352-4.773 0-9.293 2.142-12.315 5.836-2.269 2.773-3.986 5.943-5.091 9.337 3.739 1.004 7.932 1.567 12.36 1.567 15.743 0 28.506-7.112 28.506-15.885z" fill="#c18e59"/></g><g><path d="m25 52 6-1h8.315c.931 0 1.685-.754 1.685-1.685 0-.773-.526-1.447-1.276-1.634l-2.724-.681-6 1 6.209-15.524c-.806-.335-1.548-.823-2.18-1.447z" fill="#674025"/></g><g><path d="m46.03 30.94-2.03 4.06 3 2h3l2 1h2l1-2-3-3v-2l-3.471-2.314c-1.075.424-1.976 1.208-2.499 2.254z" fill="#c18e59"/></g><g><path d="m7.356 49c-1.789 0-3.498-.854-4.571-2.286l-1.585-2.114c-.263-.35-.267-.829-.011-1.185.255-.355.712-.504 1.127-.363l2.303.768c1.405.47 3.049-.042 3.94-1.23 1.005-1.342 1.71-2.849 2.094-4.48l1.845-7.843c1.035-4.396 3.094-8.568 5.953-12.062 3.225-3.944 7.996-6.205 13.09-6.205 3.742 0 7.429 1.265 10.383 3.562l3.406 2.649c.653.509 1.469.789 2.298.789 1.172 0 2.292-.56 2.996-1.498l1.085-1.446c-1.107-1.382-1.709-3.087-1.709-4.884v-2.172c0-.36.194-.692.507-.87.313-.179.698-.172 1.007.013l1.685 1.011c2.173 1.305 3.584 3.61 3.778 6.118l2.339.78c.409.136.684.517.684.948v1.586l2.707 2.707c.304.305.38.77.188 1.154l-1 2c-.17.339-.516.553-.895.553h-2c-.155 0-.309-.036-.447-.105l-1.789-.895h-2.198l-1.704 2.839c-.786 1.311-2.035 2.235-3.516 2.605-1.053.263-1.937.972-2.422 1.943l-3.311 6.621c-.613 1.229-1.848 1.992-3.221 1.992-1.207 0-2.327-.6-2.997-1.604l-1.228-1.842c-.205-.307-.224-.701-.05-1.026.175-.325.514-.528.883-.528 1.469 0 2.79-.816 3.447-2.131l.819-1.638c.48-.96.734-2.035.734-3.108 0-2.887 1.957-5.393 4.757-6.093l.485 1.939c-1.909.478-3.242 2.186-3.242 4.154 0 1.383-.327 2.767-.945 4.003l-.819 1.638c-.735 1.471-2.018 2.53-3.534 2.987l.357.536c.298.446.796.713 1.333.713.61 0 1.16-.34 1.433-.886l3.311-6.621c.748-1.495 2.106-2.584 3.727-2.989.963-.24 1.775-.842 2.286-1.694l1.995-3.324c.179-.301.505-.486.856-.486h3c.155 0 .309.036.447.105l1.789.895h1.146l.401-.803-2.49-2.49c-.188-.187-.293-.441-.293-.707v-1.279l-2.316-.772c-.409-.137-.684-.518-.684-.949v-.134c0-2.035-1.084-3.95-2.83-4.998l-.17-.101v.405c0 1.557.606 3.021 1.707 4.121.352.352.392.909.093 1.307l-1.577 2.103c-1.079 1.439-2.797 2.297-4.595 2.297-1.271 0-2.523-.43-3.527-1.209l-3.406-2.65c-2.604-2.026-5.855-3.141-9.154-3.141-4.491 0-8.698 1.993-11.542 5.469-2.668 3.261-4.588 7.153-5.554 11.256l-1.845 7.842c-.448 1.901-1.269 3.658-2.441 5.221-1.242 1.656-3.407 2.493-5.432 2.119.691.692 1.642 1.093 2.629 1.093 1.285 0 2.499-.681 3.169-1.777l9.621-15.744 1.707 1.043-9.622 15.744c-1.03 1.686-2.898 2.734-4.875 2.734z"/></g><g><path d="m33.315 56h-11.315c-.431 0-.812-.275-.949-.684l-1-3c-.063-.189-.068-.393-.015-.584l4.699-16.916c.127-.46.08-.948-.133-1.375-.21-.422-.568-.751-1.007-.927-2.79-1.115-4.595-3.78-4.595-6.787v-1.727h2v1.727c0 2.186 1.311 4.121 3.339 4.932.894.358 1.623 1.029 2.052 1.889.435.87.531 1.865.271 2.804l-4.618 16.623.677 2.025h10.595c.377 0 .684-.307.684-.685 0-.315-.213-.588-.519-.665l-2.522-.63-5.795.966c-.368.061-.739-.087-.964-.385-.224-.299-.264-.696-.103-1.033l10.903-22.795v-.389c0-2.859-1.716-5.395-4.372-6.456l.743-1.857c3.42 1.368 5.629 4.631 5.629 8.314v.615c0 .149-.033.297-.098.432l-10.171 21.265 4.104-.684c.136-.022.275-.018.407.017l2.724.681c1.198.299 2.034 1.37 2.034 2.604 0 1.481-1.204 2.685-2.685 2.685z"/></g><g><path d="m55.5 21c-.827 0-1.5-.673-1.5-1.5s.673-1.5 1.5-1.5 1.5.673 1.5 1.5-.673 1.5-1.5 1.5z"/></g><g><path d="m42 34h-2.171c-2.091 0-4.057-.814-5.536-2.293l1.414-1.414c1.101 1.101 2.565 1.707 4.122 1.707h2.171z"/></g><g><path d="m39.315 52h-8.315v-2h8.315c.378 0 .685-.307.685-.685 0-.315-.213-.588-.519-.665l-2.522-.63-5.795.966c-.357.061-.717-.077-.943-.359-.227-.281-.284-.663-.15-.998l6-15 1.857.742-5.34 13.351 4.247-.708c.136-.022.274-.018.407.017l2.724.681c1.198.298 2.034 1.369 2.034 2.603 0 1.481-1.204 2.685-2.685 2.685z"/></g><g><path d="m54 39h-2c-.155 0-.309-.036-.447-.105l-1.789-.895h-2.764c-.197 0-.391-.059-.555-.168l-3-2 1.109-1.664 2.749 1.832h2.697c.155 0 .309.036.447.105l1.789.895h1.146l.401-.803-2.49-2.49c-.188-.187-.293-.441-.293-.707v-1.465l-2.555-1.703 1.109-1.664 3 2c.279.186.446.498.446.832v1.586l2.707 2.707c.304.305.38.77.188 1.154l-1 2c-.17.339-.516.553-.895.553z"/></g><g><path d="m48.5 34c-.827 0-1.5-.673-1.5-1.5s.673-1.5 1.5-1.5 1.5.673 1.5 1.5-.673 1.5-1.5 1.5z"/></g></g></svg>