<svg id="Layer_3" enable-background="new 0 0 64 64" height="512" viewBox="0 0 64 64" width="512" xmlns="http://www.w3.org/2000/svg"><g><g><path d="m26 10-1.021-1.361c-3.134-4.179-8.053-6.639-13.277-6.639-1.749 0-3.446.595-4.812 1.688-1.826 1.461-2.89 3.674-2.89 6.014v.165c0 1.396.379 2.765 1.098 3.962 1.244 2.075 1.902 4.449 1.902 6.869v1.913c0 3.415 1.517 6.653 4.14 8.839 1.202 1.002 2.717 1.55 4.281 1.55 1.038 0 2.062-.242 2.991-.706l.588-.294" fill="#4d5d7a"/></g><g><path d="m38 10 1.021-1.361c3.134-4.179 8.053-6.639 13.277-6.639 1.749 0 3.446.595 4.811 1.688 1.827 1.461 2.891 3.674 2.891 6.014v.165c0 1.396-.379 2.765-1.098 3.962-1.244 2.075-1.902 4.449-1.902 6.869v1.913c0 3.415-1.517 6.653-4.14 8.839-1.202 1.002-2.717 1.55-4.281 1.55-1.038 0-2.062-.242-2.991-.706l-.588-.294" fill="#4d5d7a"/></g><g><path d="m21 33-1.106 2.211c-.588 1.177-.894 2.474-.894 3.789 0 1.315-.306 2.612-.894 3.789l-1.106 2.211v14c1.315.658 2.766 1 4.236 1h1.764c0 1.105.895 2 2 2h4.879c1.171 0 2.121-.95 2.121-2.121 0 1.171.95 2.121 2.121 2.121h4.879c1.105 0 2-.895 2-2h1.764c1.471 0 2.921-.342 4.236-1v-14l-1.106-2.211c-.588-1.177-.894-2.474-.894-3.789 0-1.315-.306-2.612-.894-3.789l-1.106-2.211" fill="#758190"/></g><g><path d="m24 36.028c-3.627-1.988-6-5.29-6-9.028 0-2.103.765-4.062 2.068-5.733-.044-.416-.068-.839-.068-1.267 0-6.627 5.373-12 12-12s12 5.373 12 12c0 .428-.024.851-.068 1.267 1.303 1.671 2.068 3.63 2.068 5.733 0 3.738-2.373 7.041-6 9.028" fill="#758190"/></g><g><path d="m35 37c1.304 1.304 2.965 2.193 4.773 2.555l2.227.445-4-7h-3" fill="#fff"/></g><g><path d="m27.697 38.861-5.697 1.139 4-7h2" fill="#fff"/></g><g><ellipse cx="52" cy="52" fill="#4d5d7a" rx="7" ry="10"/></g><g><ellipse cx="12" cy="52" fill="#4d5d7a" rx="7" ry="10"/></g><g><ellipse cx="52" cy="56" fill="#758190" rx="4" ry="6"/></g><g><ellipse cx="12" cy="56" fill="#758190" rx="4" ry="6"/></g><g><path d="m36 30v2.292c0 5.95-3.362 11.389-8.683 14.05-2.181 1.09-4.587 1.658-7.025 1.658h-1.292l-1-4h1.464c2.264 0 4.435-.899 6.036-2.5 1.601-1.601 2.5-3.772 2.5-6.036v-5.464" fill="#8892a0"/></g><g><path d="m23.52 36.905c-4.083-2.236-6.52-5.939-6.52-9.905 0-2.116.703-4.192 2.038-6.026-.025-.331-.038-.657-.038-.974 0-7.168 5.832-13 13-13s13 5.832 13 13c0 .318-.013.644-.038.974 1.335 1.834 2.038 3.91 2.038 6.026 0 3.964-2.437 7.667-6.52 9.905l-.961-1.754c3.432-1.88 5.481-4.928 5.481-8.151 0-1.791-.642-3.561-1.857-5.118-.159-.205-.233-.462-.206-.72.041-.382.063-.769.063-1.162 0-6.065-4.935-11-11-11s-11 4.935-11 11c0 .393.022.781.062 1.164.027.257-.047.515-.206.719-1.214 1.556-1.856 3.326-1.856 5.117 0 3.224 2.049 6.271 5.48 8.151z"/></g><g><path d="m15.421 34c-1.795 0-3.543-.633-4.922-1.782-2.859-2.383-4.499-5.884-4.499-9.607v-1.913c0-2.238-.608-4.435-1.76-6.354-.811-1.352-1.24-2.9-1.24-4.477v-.165c0-2.658 1.19-5.134 3.266-6.795 1.537-1.23 3.467-1.907 5.436-1.907 5.509 0 10.772 2.631 14.077 7.039l1.021 1.361-1.6 1.2-1.021-1.361c-2.929-3.907-7.594-6.239-12.477-6.239-1.516 0-3.003.521-4.187 1.468-1.598 1.28-2.515 3.187-2.515 5.234v.165c0 1.214.33 2.407.955 3.448 1.338 2.229 2.045 4.783 2.045 7.383v1.913c0 3.127 1.378 6.069 3.78 8.07 1.695 1.414 4.211 1.706 6.185.718l.588-.294.895 1.789-.588.294c-1.063.532-2.252.812-3.439.812z"/></g><g><path d="m48.579 34c-1.187 0-2.376-.28-3.438-.812l-.588-.294.895-1.789.588.294c1.974.987 4.49.694 6.184-.718 2.402-2.001 3.78-4.943 3.78-8.07v-1.913c0-2.6.707-5.153 2.045-7.383.625-1.042.955-2.234.955-3.448v-.165c0-2.047-.917-3.954-2.515-5.233-1.184-.948-2.671-1.469-4.187-1.469-4.883 0-9.548 2.332-12.478 6.239l-1.02 1.361-1.6-1.2 1.021-1.361c3.305-4.408 8.568-7.039 14.077-7.039 1.969 0 3.899.677 5.436 1.907 2.076 1.66 3.266 4.137 3.266 6.795v.165c0 1.577-.429 3.125-1.24 4.477-1.152 1.919-1.76 4.116-1.76 6.354v1.913c0 3.723-1.64 7.225-4.5 9.607-1.378 1.149-3.126 1.782-4.921 1.782z"/></g><g><path d="m52 63c-4.411 0-8-4.935-8-11s3.589-11 8-11 8 4.935 8 11-3.589 11-8 11zm0-20c-3.309 0-6 4.037-6 9s2.691 9 6 9 6-4.037 6-9-2.691-9-6-9z"/></g><g><path d="m52 63c-2.804 0-5-3.075-5-7s2.196-7 5-7 5 3.075 5 7-2.196 7-5 7zm0-12c-1.626 0-3 2.29-3 5s1.374 5 3 5 3-2.29 3-5-1.374-5-3-5z"/></g><g><path d="m46.105 45.447-1.105-2.211c-.654-1.309-1-2.773-1-4.236 0-1.154-.273-2.31-.789-3.342l-1.105-2.211 1.789-.895 1.105 2.212c.654 1.309 1 2.773 1 4.236 0 1.154.273 2.31.789 3.342l1.105 2.211z"/></g><g><path d="m12 63c-4.411 0-8-4.935-8-11s3.589-11 8-11 8 4.935 8 11-3.589 11-8 11zm0-20c-3.309 0-6 4.037-6 9s2.691 9 6 9 6-4.037 6-9-2.691-9-6-9z"/></g><g><path d="m12 63c-2.804 0-5-3.075-5-7s2.196-7 5-7 5 3.075 5 7-2.196 7-5 7zm0-12c-1.626 0-3 2.29-3 5s1.374 5 3 5 3-2.29 3-5-1.374-5-3-5z"/></g><g><path d="m17.895 45.447-1.789-.895 1.105-2.211c.516-1.031.789-2.187.789-3.341 0-1.463.346-2.928 1-4.236l1.105-2.211 1.789.895-1.105 2.211c-.516 1.031-.789 2.187-.789 3.341 0 1.463-.346 2.928-1 4.236z"/></g><g><path d="m39 63h-4.879c-1.721 0-3.121-1.4-3.121-3.121 0-.822.333-1.626.914-2.207l.758-.758c.208-.209.328-.498.328-.793v-8.121h2v8.121c0 .822-.333 1.626-.914 2.207l-.758.758c-.208.209-.328.498-.328.793 0 .618.503 1.121 1.121 1.121h4.879c.551 0 1-.448 1-1v-15h2v15c0 1.654-1.346 3-3 3z"/></g><g><path d="m36 59h2v3h-2z"/></g><g><path d="m29.879 63h-4.879c-1.654 0-3-1.346-3-3v-12h2v12c0 .552.449 1 1 1h4.879c.618 0 1.121-.503 1.121-1.121 0-.295-.12-.584-.328-.793l-.758-.758c-.581-.581-.914-1.385-.914-2.207v-8.121h2v8.121c0 .295.12.584.328.793l.758.758c.581.581.914 1.385.914 2.207 0 1.721-1.4 3.121-3.121 3.121z"/></g><g><path d="m26 59h2v3h-2z"/></g><g><path d="m41 21h-2c0-.551-.449-1-1-1s-1 .449-1 1h-2c0-1.654 1.346-3 3-3s3 1.346 3 3z"/></g><g><path d="m35 28h-2c0-.551-.449-1-1-1s-1 .449-1 1h-2c0-1.654 1.346-3 3-3s3 1.346 3 3z"/></g><g><path d="m29 21h-2c0-.551-.449-1-1-1s-1 .449-1 1h-2c0-1.654 1.346-3 3-3s3 1.346 3 3z"/></g><g><path d="m19.464 45h-1.464v-2h1.464c2.013 0 3.905-.784 5.329-2.207 1.423-1.424 2.207-3.315 2.207-5.328v-5.465h2v5.465c0 2.547-.992 4.941-2.793 6.742s-4.196 2.793-6.743 2.793z"/></g><g><path d="m20.292 49h-1.292v-2h1.292c2.272 0 4.547-.537 6.578-1.553 5.015-2.508 8.13-7.549 8.13-13.155v-2.292h2v2.292c0 6.369-3.539 12.096-9.236 14.944-2.307 1.154-4.891 1.764-7.472 1.764z"/></g><g><path d="m36.316 34.948-.633-1.896c1.582-.528 2.841-1.787 3.368-3.368l1.897.632c-.724 2.175-2.456 3.907-4.632 4.632z"/></g><g><path d="m42 41c-.065 0-.131-.006-.196-.02l-2.227-.445c-2.007-.401-3.834-1.379-5.284-2.828l1.414-1.414c1.169 1.169 2.643 1.958 4.262 2.281l.072.015-2.91-5.093 1.736-.992 4 7c.194.34.172.763-.057 1.081-.189.264-.493.415-.81.415z"/></g><g><path d="m27.684 34.948c-2.176-.726-3.907-2.457-4.632-4.632l1.897-.632c.527 1.581 1.786 2.84 3.368 3.368z"/></g><g><path d="m22 41c-.317 0-.621-.151-.811-.415-.229-.318-.251-.741-.057-1.081l4-7 1.736.992-2.91 5.093 2.845-.569.393 1.961-5 1c-.065.013-.131.019-.196.019z"/></g><g><path d="m19 11h-2c0-2.206-1.794-4-4-4s-4 1.794-4 4h-2c0-3.309 2.691-6 6-6s6 2.691 6 6z"/></g><g><path d="m57 11h-2c0-2.206-1.794-4-4-4s-4 1.794-4 4h-2c0-3.309 2.691-6 6-6s6 2.691 6 6z"/></g><g><path d="m42.764 61h-1.764v-2h1.764c1.308 0 2.618-.31 3.789-.895l.894 1.789c-1.447.724-3.067 1.106-4.683 1.106z"/></g><g><path d="m23 61h-1.764c-1.616 0-3.235-.382-4.683-1.105l.894-1.789c1.171.584 2.481.894 3.789.894h1.764z"/></g><g><path d="m28 15c-.306 0-.602-.141-.795-.393-.259-.339-.274-.806-.037-1.162l.336-.504c.978-1.468 1.496-3.176 1.496-4.941h2c0 1.461-.29 2.891-.848 4.22 1.715-.691 2.848-2.353 2.848-4.22h2c0 2.823-1.8 5.32-4.479 6.214l-2.206.735c-.103.034-.21.051-.315.051z"/></g></g></svg>