<?xml version="1.0" encoding="iso-8859-1"?>
<!-- Generator: Adobe Illustrator 19.0.0, SVG Export Plug-In . SVG Version: 6.00 Build 0)  -->
<svg version="1.1" id="Capa_1" xmlns="http://www.w3.org/2000/svg" xmlns:xlink="http://www.w3.org/1999/xlink" x="0px" y="0px"
	 viewBox="0 0 512 512" style="enable-background:new 0 0 512 512;" xml:space="preserve">
<path style="fill:#76C9D2;" d="M409.155,469.11c-8.716,0-17.372-2.716-24.75-8.054l-47.016-34.018l21.054-29.098l47.016,34.019
	c2.741,1.984,5.32,1.171,6.613,0.511c1.293-0.661,3.463-2.274,3.463-5.657v-99.304h35.916v99.304
	c0,15.959-8.829,30.383-23.042,37.642C422.306,467.571,415.714,469.11,409.155,469.11z"/>
<path style="opacity:0.15;enable-background:new    ;" d="M409.155,469.11c-8.716,0-17.372-2.716-24.75-8.054l-47.016-34.018
	l21.054-29.098l47.016,34.019c2.741,1.984,5.32,1.171,6.613,0.511c1.293-0.661,3.463-2.274,3.463-5.657v-99.304h35.916v99.304
	c0,15.959-8.829,30.383-23.042,37.642C422.306,467.571,415.714,469.11,409.155,469.11z"/>
<path style="fill:#FFD4B8;" d="M433.493,348.715c-9.918,0-17.958-8.04-17.958-17.958V302.93c0-9.918,8.04-17.958,17.958-17.958
	s17.958,8.04,17.958,17.958v27.827C451.451,340.675,443.411,348.715,433.493,348.715z"/>
<path style="fill:#76C9D2;" d="M145.872,504.5h-27.816c-4.473,0-8.1-3.626-8.1-8.1v-21.291c0-34.565,19.059-65.927,49.741-81.846
	l16.541,31.88c-18.731,9.719-30.366,28.865-30.366,49.966V504.5z"/>
<path style="opacity:0.15;enable-background:new    ;" d="M145.872,504.5h-27.816c-4.473,0-8.1-3.626-8.1-8.1v-21.291
	c0-34.565,19.059-65.927,49.741-81.846l16.541,31.88c-18.731,9.719-30.366,28.865-30.366,49.966V504.5z"/>
<path style="fill:#76C9D2;" d="M256,320.476L256,320.476c-60.949,0-110.359,49.409-110.359,110.358V504.5h212.617
	c4.473,0,8.1-3.626,8.1-8.1v-65.565C366.359,369.885,316.949,320.476,256,320.476z"/>
<g>
	<path style="fill:#FFFFFF;" d="M256,354.72l-49.41,23.162c-4.558,2.137-9.79-1.19-9.79-6.223v-38.855L256,354.72z"/>
	<path style="fill:#FFFFFF;" d="M256,354.72l49.41,23.162c4.558,2.137,9.79-1.19,9.79-6.223v-38.855L256,354.72z"/>
</g>
<path style="opacity:0.1;enable-background:new    ;" d="M256,320.476L256,320.476c-30.252,0-57.656,12.176-77.591,31.889
	c23.352,11.687,49.7,18.275,77.591,18.275s54.239-6.587,77.591-18.275C313.656,332.652,286.251,320.476,256,320.476z"/>
<g>
	<circle style="fill:#FFD4B8;" cx="82.39" cy="181.34" r="30.617"/>
	<circle style="fill:#FFD4B8;" cx="429.61" cy="181.34" r="30.617"/>
	<circle style="fill:#FFD4B8;" cx="256" cy="181.11" r="173.61"/>
</g>
<path style="fill:#4A5058;" d="M256,7.5c-95.882,0-173.61,77.728-173.61,173.61c26.984,0,55.517-28.734,58.464-87.362
	c18.483,20.701,124.239,61.65,234.224,28.748c9.249,39.278,32.406,58.614,54.532,58.614C429.61,85.228,351.882,7.5,256,7.5z"/>
<path style="opacity:0.1;fill:#513130;enable-background:new    ;" d="M281.729,332.804c-95.882,0-173.61-77.728-173.61-173.61
	c0-46.864,18.575-89.383,48.756-120.618C111.856,69.944,82.39,122.082,82.39,181.11c0,95.882,77.728,173.61,173.61,173.61
	c49.019,0,93.285-20.322,124.854-52.992C352.747,321.311,318.582,332.804,281.729,332.804z"/>
<path style="fill:#FFFFFF;" d="M336.285,455.772l-10.642,6.191c-2.418,1.407-5.405,1.407-7.823,0l-10.642-6.191
	c-2.394-1.393-3.867-3.953-3.867-6.723v-27.158c0-1.869,1.516-3.385,3.385-3.385h30.07c1.869,0,3.385,1.516,3.385,3.385v27.158
	C340.152,451.819,338.679,454.38,336.285,455.772z"/>
<path d="M167.967,156.542c-4.142,0-7.5,3.358-7.5,7.5v17.296c0,4.142,3.358,7.5,7.5,7.5s7.5-3.358,7.5-7.5v-17.296
	C175.467,159.899,172.109,156.542,167.967,156.542z M256,462.65c4.018,0,7.275-3.257,7.275-7.275s-3.257-7.274-7.275-7.274
	c-4.018,0-7.275,3.257-7.275,7.274C248.726,459.393,251.982,462.65,256,462.65z M256,409.203c4.018,0,7.275-3.257,7.275-7.274
	c0-4.018-3.257-7.274-7.275-7.274c-4.018,0-7.275,3.257-7.275,7.274C248.726,405.947,251.982,409.203,256,409.203z M268.908,215.937
	c-3.385,3.613-7.969,5.603-12.908,5.603c-4.938,0-9.522-1.99-12.908-5.603c-2.832-3.022-7.578-3.177-10.601-0.345
	c-3.022,2.832-3.177,7.578-0.345,10.601c6.161,6.576,14.855,10.347,23.854,10.347c8.999,0,17.693-3.771,23.854-10.347
	c2.832-3.023,2.677-7.769-0.345-10.601C276.485,212.759,271.74,212.915,268.908,215.937z M314.049,468.447
	c2.37,1.378,5.026,2.067,7.683,2.067c2.656,0,5.313-0.689,7.683-2.067l10.642-6.191l0,0c4.685-2.726,7.595-7.786,7.595-13.206
	v-27.158c0-6.002-4.883-10.885-10.885-10.885h-30.07c-6.002,0-10.885,4.883-10.885,10.885v27.158c0,5.42,2.911,10.481,7.595,13.206
	L314.049,468.447z M310.811,426.006h21.84v23.043c0,0.099-0.053,0.191-0.138,0.241l0,0l-10.642,6.191
	c-0.086,0.051-0.194,0.05-0.28,0l-10.643-6.191c-0.085-0.049-0.138-0.142-0.138-0.24v-23.044H310.811z M433.493,277.473
	c-14.038,0-25.458,11.42-25.458,25.458v121.633L368.53,395.98c-6.186-19.864-17.566-37.95-33.067-52.151
	c49.105-24.078,85.777-69.736,97.584-124.536c19.413-1.744,34.68-18.096,34.68-37.955c0-19.825-15.215-36.156-34.579-37.947
	C415.745,61.57,342.934,0,256,0c-25.341,0-49.858,5.134-72.871,15.259c-22.226,9.779-41.99,23.72-58.742,41.437
	c-2.846,3.009-2.713,7.756,0.296,10.602c3.01,2.847,7.757,2.714,10.602-0.296C166.997,33.468,209.867,15,256,15
	c88.738,0,161.447,69.942,165.895,157.594c-14.764-3.81-31.738-18.786-39.516-51.818c-0.474-2.011-1.756-3.738-3.545-4.773
	c-1.788-1.034-3.924-1.285-5.905-0.693c-58.787,17.587-112.805,12.734-147.77,5.565c-44.612-9.146-71.955-24.557-78.71-32.123
	c-2.026-2.269-5.221-3.089-8.091-2.077c-2.869,1.012-4.842,3.658-4.995,6.696c-1.289,25.631-7.765,46.914-18.729,61.545
	c-7.034,9.386-15.535,15.47-24.505,17.712c1.413-27.845,9.744-54.84,24.353-78.544c2.173-3.526,1.077-8.146-2.45-10.32
	c-3.526-2.173-8.147-1.076-10.32,2.45c-10.889,17.669-18.586,37.011-22.865,57.176c-19.363,1.793-34.575,18.123-34.575,37.947
	c0,19.859,15.268,36.211,34.68,37.955c11.807,54.801,48.479,100.459,97.584,124.536c-15.005,13.747-26.149,31.132-32.458,50.247
	c-26.109,18.661-41.624,48.759-41.624,81.033V496.4c0,8.602,6.998,15.6,15.6,15.6h59.183c4.142,0,7.5-3.358,7.5-7.5
	s-3.358-7.5-7.5-7.5h-24.096v-66.165c0-30.086,13.4-58.826,36.158-78.276v19.101c0,4.944,2.491,9.479,6.663,12.13
	c2.352,1.495,5.019,2.252,7.701,2.252c2.074,0,4.158-0.453,6.11-1.368L256,363.004l46.227,21.669
	c1.953,0.916,4.035,1.369,6.11,1.369c2.682,0,5.349-0.757,7.701-2.252c4.172-2.652,6.663-7.187,6.663-12.13v-19.101
	c22.759,19.449,36.158,48.189,36.158,78.276V496.4c0,0.331-0.269,0.6-0.6,0.6h-144.54c-4.142,0-7.5,3.358-7.5,7.5s3.358,7.5,7.5,7.5
	h144.54c8.602,0,15.6-6.998,15.6-15.6v-33.719l6.15,4.45c8.569,6.201,18.648,9.478,29.146,9.478c7.813,0,15.65-1.894,22.666-5.477
	c16.734-8.547,27.13-25.53,27.13-44.321v-15.609c0-4.142-3.358-7.5-7.5-7.5s-7.5,3.358-7.5,7.5v15.609
	c0,13.128-7.263,24.992-18.953,30.963c-4.913,2.509-10.392,3.835-15.843,3.835c-7.32,0-14.358-2.293-20.353-6.63l-14.943-10.812
	v-13.333c0-4.372-0.256-8.717-0.74-13.02l27.943,20.218c2.448,1.772,5.249,2.671,8.08,2.671c2.144,0,4.304-0.515,6.343-1.555
	c4.729-2.415,7.551-7.027,7.551-12.336v-72.853c3.193,1.445,6.731,2.257,10.458,2.257c3.727,0,7.265-0.811,10.458-2.257v24.582
	c0,4.142,3.358,7.5,7.5,7.5s7.5-3.358,7.5-7.5v-75.61C458.951,288.893,447.531,277.473,433.493,277.473z M435.766,159.059
	c9.768,2.702,16.962,11.663,16.962,22.279c0,10.635-7.221,19.61-17.016,22.294c0.92-7.381,1.399-14.896,1.399-22.522
	C437.11,173.646,436.647,166.289,435.766,159.059z M59.273,181.338c0-10.624,7.205-19.59,16.984-22.285
	c-0.89,7.29-1.367,14.652-1.367,22.057c0,7.626,0.479,15.141,1.399,22.522C66.493,200.948,59.273,191.973,59.273,181.338z
	 M138.143,430.835V497h-20.087c-0.331,0-0.6-0.269-0.6-0.6v-21.292c0-21.002,7.731-40.917,21.313-56.211
	C138.361,422.847,138.143,426.83,138.143,430.835z M204.301,370.673V354.69c7.454,2.224,15.107,3.982,22.927,5.236L204.301,370.673z
	 M307.701,370.673l-22.927-10.748c7.82-1.254,15.473-3.012,22.927-5.236V370.673z M256,347.22
	c-89.299,0-162.354-70.833-165.958-159.263c13.731-2.268,26.514-10.591,36.596-24.045c10.612-14.162,17.59-33.235,20.468-55.718
	c15.262,9.681,41.299,20.459,75.042,27.377c35.175,7.211,88.783,12.177,147.655-3.773c9.399,31.373,28.974,52.374,52.156,56.182
	C418.341,276.399,345.292,347.22,256,347.22z M443.951,330.757c0,5.767-4.691,10.458-10.458,10.458s-10.458-4.691-10.458-10.458
	V302.93c0-5.767,4.691-10.458,10.458-10.458s10.458,4.691,10.458,10.458V330.757z M344.034,156.542c-4.142,0-7.5,3.358-7.5,7.5
	v17.296c0,4.142,3.358,7.5,7.5,7.5s7.5-3.358,7.5-7.5v-17.296C351.534,159.899,348.176,156.542,344.034,156.542z"/>
<g>
</g>
<g>
</g>
<g>
</g>
<g>
</g>
<g>
</g>
<g>
</g>
<g>
</g>
<g>
</g>
<g>
</g>
<g>
</g>
<g>
</g>
<g>
</g>
<g>
</g>
<g>
</g>
<g>
</g>
</svg>
