<?xml version="1.0" encoding="iso-8859-1"?>
<!-- Generator: Adobe Illustrator 19.0.0, SVG Export Plug-In . SVG Version: 6.00 Build 0)  -->
<svg version="1.1" id="Capa_1" xmlns="http://www.w3.org/2000/svg" xmlns:xlink="http://www.w3.org/1999/xlink" x="0px" y="0px"
	 viewBox="0 0 512.001 512.001" style="enable-background:new 0 0 512.001 512.001;" xml:space="preserve">
<path style="fill:#9B7E73;" d="M411.311,179.678v80.062c0,37.372,14.176,73.353,39.667,100.682l0,0
	c6.485,6.953,3.445,18.296-5.648,21.073l0,0c-134.401,41.046-277.993,41.046-412.394,0l0,0c-9.093-2.777-12.134-14.12-5.648-21.073
	l0,0c25.491-27.329,39.667-63.31,39.667-100.682v-80.062H411.311z"/>
<g>
	<path style="fill:#FFD4B8;" d="M392.757,462.219c-10.326,0-20.381-3.474-28.713-10.11l-56.62-45.097
		c-7.758-6.179-9.038-17.477-2.859-25.235c6.179-7.759,17.478-9.037,25.235-2.859l56.62,45.097c3.508,2.794,7.162,2.415,9.029,1.941
		c1.866-0.475,5.257-1.888,7.003-6.021l51.228-121.209c3.86-9.136,14.397-13.412,23.532-9.55c9.135,3.861,13.411,14.397,9.55,23.532
		l-51.228,121.209c-5.688,13.458-17.07,23.242-31.229,26.845C400.47,461.739,396.594,462.219,392.757,462.219z"/>
	<path style="fill:#FFD4B8;" d="M126.042,504.5h-27.47c-4.664,0-8.446-3.781-8.446-8.446v-21.053
		c0-34.324,16.584-66.533,44.524-86.471l1.709-1.22l20.86,29.238l-1.7,1.213c-18.497,13.197-29.477,34.519-29.477,57.241V504.5z"/>
</g>
<path style="fill:#81D4AE;" d="M239.132,310.491L239.132,310.491c-64.257,0-116.347,52.09-116.347,116.346V504.5h224.247
	c4.664,0,8.446-3.781,8.446-8.446v-69.216C355.479,362.582,303.389,310.491,239.132,310.491z"/>
<path style="fill:#5EC08B;" d="M122.786,479.148h232.693v-14.561H122.786V479.148z M355.381,422.267H122.883
	c-0.059,1.517-0.098,3.039-0.098,4.57v9.99h232.693v-9.99C355.479,425.306,355.44,423.784,355.381,422.267z"/>
<path style="fill:#FFFFFF;" d="M239.132,397.176c-17.972,0-34.32-9.141-43.731-24.452l-23.261-37.841
	c-2.169-3.529-1.066-8.148,2.462-10.317c3.531-2.168,8.148-1.066,10.317,2.462l23.261,37.841
	c6.661,10.837,18.232,17.307,30.952,17.307c12.721,0,24.292-6.47,30.953-17.307l23.261-37.842c2.169-3.529,6.79-4.632,10.317-2.462
	c3.529,2.169,4.631,6.789,2.462,10.317l-23.261,37.841C273.453,388.035,257.104,397.176,239.132,397.176z"/>
<path style="opacity:0.1;enable-background:new    ;" d="M239.132,310.491L239.132,310.491c-33.343,0-63.407,14.03-84.62,36.504
	c24.992,14.132,53.861,22.206,84.619,22.206s59.628-8.074,84.619-22.206C302.539,324.521,272.476,310.491,239.132,310.491z"/>
<circle style="fill:#FFD4B8;" cx="66.954" cy="179.9" r="30.365"/>
<circle style="fill:#81D4AE;" cx="59.733" cy="210.27" r="20.16"/>
<circle style="fill:#FFD4B8;" cx="411.31" cy="179.9" r="30.365"/>
<circle style="fill:#81D4AE;" cx="418.53" cy="210.27" r="20.16"/>
<circle style="fill:#FFD4B8;" cx="239.13" cy="179.68" r="172.18"/>
<path style="fill:#9B7E73;" d="M239.132,7.5c-91.397,0-166.147,71.217-171.819,161.184c68.616,4.971,149.272-83.39,153.59-110.933
	c3.408,35.201,129.656,123.168,189.879,108.385C403.876,77.375,329.666,7.5,239.132,7.5z"/>
<path style="opacity:0.1;fill:#513130;enable-background:new    ;" d="M264.649,330.121c-95.092,0-172.178-77.087-172.178-172.178
	c0-46.477,18.422-88.646,48.354-119.623c-44.647,31.108-73.871,82.816-73.871,141.358c0,95.092,77.087,172.178,172.178,172.178
	c48.614,0,92.516-20.155,123.824-52.556C335.081,318.724,301.199,330.121,264.649,330.121z"/>
<path d="M251.888,222.753c-3.345,3.571-7.876,5.537-12.756,5.537c-4.88,0-9.411-1.966-12.756-5.537
	c-2.832-3.022-7.578-3.176-10.601-0.345c-3.023,2.832-3.177,7.578-0.345,10.601c6.122,6.534,14.761,10.281,23.702,10.281
	s17.581-3.747,23.702-10.281c2.832-3.023,2.677-7.769-0.345-10.601C259.466,219.575,254.719,219.73,251.888,222.753z
	 M480.134,282.268c-6.265-2.648-13.185-2.698-19.485-0.14c-6.301,2.557-11.23,7.415-13.876,13.679l-12.109,28.651
	c-10.399-19.933-15.853-42.039-15.853-64.717v-21.814c15.125-0.151,27.385-12.497,27.385-27.657c0-3.933-0.83-7.674-2.316-11.064
	c3.436-5.811,5.296-12.503,5.296-19.3c0-19.678-15.09-35.892-34.306-37.693C397.587,61.061,325.361,0,239.132,0
	S80.678,61.061,63.395,142.211c-19.215,1.801-34.306,18.015-34.306,37.693c0,6.797,1.86,13.489,5.296,19.3
	c-1.486,3.391-2.316,7.132-2.316,11.064c0,15.16,12.26,27.506,27.385,27.657v21.814c0,19.867-4.118,39.134-12.238,57.267
	c-1.693,3.78-0.001,8.217,3.779,9.91c0.996,0.446,2.037,0.657,3.061,0.657c2.866,0,5.602-1.652,6.849-4.436
	c8.99-20.074,13.548-41.404,13.548-63.397v-8.232c16.049,36.651,43.975,66.96,78.895,86.014
	c-15.248,14.613-26.336,32.631-32.486,52.436c-1.453,1.289-2.867,2.612-4.244,3.966c-27.479-4.897-54.876-11.473-81.493-19.601
	c-2.566-0.784-3.381-2.877-3.613-3.74c-0.232-0.863-0.572-3.083,1.258-5.045c4.195-4.498,8.162-9.294,11.79-14.256
	c2.444-3.344,1.715-8.036-1.628-10.481c-3.343-2.443-8.036-1.715-10.481,1.628c-3.277,4.482-6.86,8.815-10.649,12.877
	c-4.822,5.169-6.608,12.332-4.778,19.16c1.831,6.828,6.959,12.137,13.721,14.202c24.333,7.431,49.304,13.596,74.401,18.398
	c-14.501,19.446-22.52,43.189-22.52,67.935v21.053c0,8.793,7.153,15.946,15.946,15.946H281.63c4.142,0,7.5-3.358,7.5-7.5
	s-3.358-7.5-7.5-7.5H130.286v-70.162c0-10.379,1.454-20.538,4.243-30.235c0.068-0.199,0.13-0.399,0.181-0.602
	c5.811-19.767,17.189-37.583,33.142-51.403c21.865,9.487,45.967,14.759,71.28,14.759c25.313,0,49.415-5.272,71.281-14.759
	c16.533,14.323,28.149,32.94,33.75,53.57c0.019,0.066,0.034,0.134,0.055,0.2c2.469,9.163,3.761,18.718,3.761,28.471v69.216
	c0,0.522-0.424,0.946-0.946,0.946H319.59c-4.142,0-7.5,3.358-7.5,7.5s3.358,7.5,7.5,7.5h27.443c8.792,0,15.946-7.153,15.946-15.946
	v-35.436c8.861,5.967,19.068,9.101,29.778,9.101c4.491,0,8.999-0.568,13.399-1.688c16.453-4.186,29.679-15.556,36.289-31.193
	l51.228-121.21C499.136,302.698,493.064,287.733,480.134,282.268z M44.089,179.904c0-10.467,7.073-19.309,16.689-22.011
	c-0.41,3.378-0.722,6.785-0.941,10.217c-0.001,0.01-0.003,0.021-0.004,0.031c-0.001,0.015,0,0.03-0.001,0.045
	c-0.241,3.801-0.378,7.631-0.378,11.492c0,0.98,0.021,1.956,0.037,2.932c-5.258,0.045-10.168,1.565-14.341,4.164
	C44.46,184.58,44.089,182.277,44.089,179.904z M59.733,222.933c-6.983,0-12.664-5.681-12.664-12.664s5.681-12.664,12.664-12.664
	c0.207,0,0.411,0.02,0.616,0.03c0.827,8.294,2.228,16.42,4.148,24.346C62.993,222.598,61.379,222.933,59.733,222.933z
	 M115.286,426.838V497H98.572c-0.521,0-0.946-0.424-0.946-0.946v-21.053c0-20.564,6.38-40.33,17.967-56.791
	C115.397,421.07,115.286,423.945,115.286,426.838z M434.176,179.904c0,2.372-0.371,4.675-1.061,6.871
	c-4.173-2.6-9.084-4.119-14.341-4.164c0.016-0.977,0.037-1.952,0.037-2.932c0-7.373-0.457-14.642-1.324-21.785
	C427.103,160.596,434.176,169.437,434.176,179.904z M417.916,197.635c0.205-0.01,0.409-0.03,0.616-0.03
	c6.983,0,12.664,5.681,12.664,12.664s-5.681,12.664-12.664,12.664c-1.646,0-3.26-0.335-4.764-0.952
	C415.688,214.055,417.089,205.929,417.916,197.635z M239.132,15c84.109,0,153.682,63.385,163.486,144.894
	c-25.093,2.44-70.226-10.745-121.735-47.269c-34.77-24.655-51.596-46.103-52.515-55.597c-0.364-3.76-3.468-6.663-7.244-6.774
	c-3.753-0.115-7.045,2.603-7.631,6.335c-1.779,11.352-21.453,38.707-50.133,63.108c-39.366,33.491-69.906,40.947-87.877,41.618
	C84.645,79.123,154.536,15,239.132,15z M239.132,344.357c-90.804,0-164.678-73.875-164.678-164.678c0-1.111,0.02-2.218,0.042-3.324
	c40.072-0.682,78.534-28.174,98.584-45.232c20.73-17.637,38.405-37.962,47.934-54.321c2.901,4.362,6.619,8.994,11.142,13.878
	c10.203,11.018,24.053,22.838,40.051,34.182c23.027,16.328,48.467,30.207,71.635,39.081c23.427,8.974,43.509,12.629,59.895,10.958
	c0.045,1.588,0.074,3.179,0.074,4.778C403.811,270.482,329.936,344.357,239.132,344.357z M357.945,391.747
	c-6.029-20.509-17.323-39.173-33.029-54.224c34.92-19.054,62.847-49.363,78.895-86.014v8.232c0,29.134,8.132,57.414,23.519,82.07
	l-17.674,41.819c-16.072,4.045-32.448,7.551-48.789,10.444L357.945,391.747z M402.38,400.842l-6.836,16.174
	c-0.152,0.361-0.557,1.318-1.941,1.67c-1.389,0.354-2.204-0.294-2.511-0.538l-14.704-11.712
	C385.083,404.731,393.764,402.866,402.38,400.842z M479.855,309.789l-51.228,121.209c-4.767,11.277-14.306,19.477-26.171,22.496
	c-3.193,0.813-6.456,1.225-9.7,1.225c-8.765,0-17.077-2.931-24.04-8.477l-5.738-4.57v-14.834c0-4.171-0.218-8.307-0.625-12.403
	l19.394,15.447c4.412,3.514,10.08,4.733,15.551,3.342c5.47-1.392,9.866-5.172,12.062-10.369l33.328-78.857
	c0.003-0.007,0.006-0.013,0.008-0.019l17.892-42.334c1.088-2.573,3.112-4.569,5.701-5.619c2.588-1.05,5.431-1.03,8.004,0.058
	C479.605,298.329,482.1,304.477,479.855,309.789z M151.825,164.941c-12.711,0-23.053,10.341-23.053,23.053
	c0,4.142,3.358,7.5,7.5,7.5s7.5-3.358,7.5-7.5c0-4.44,3.613-8.053,8.053-8.053s8.053,3.612,8.053,8.053c0,4.142,3.358,7.5,7.5,7.5
	s7.5-3.358,7.5-7.5C174.878,175.283,164.536,164.941,151.825,164.941z M326.44,164.941c-12.711,0-23.053,10.341-23.053,23.053
	c0,4.142,3.358,7.5,7.5,7.5s7.5-3.358,7.5-7.5c0-4.44,3.612-8.053,8.053-8.053s8.053,3.612,8.053,8.053c0,4.142,3.358,7.5,7.5,7.5
	s7.5-3.358,7.5-7.5C349.492,175.283,339.151,164.941,326.44,164.941z"/>
<g>
</g>
<g>
</g>
<g>
</g>
<g>
</g>
<g>
</g>
<g>
</g>
<g>
</g>
<g>
</g>
<g>
</g>
<g>
</g>
<g>
</g>
<g>
</g>
<g>
</g>
<g>
</g>
<g>
</g>
</svg>
