<svg id="Layer_3" enable-background="new 0 0 64 64" height="512" viewBox="0 0 64 64" width="512" xmlns="http://www.w3.org/2000/svg"><g><g><path d="m44 41c1.327 4.644 2 9.45 2 14.28v.72h4v-1.917c0-4.048.334-8.09 1-12.083" fill="#db9b7c"/></g><g><path d="m23 39c1.328 5.313 2 10.769 2 16.246v.754h4v-.456c0-5.65 1.016-11.254 3-16.544" fill="#db9b7c"/></g><g><path d="m19 39c1.328 5.313 2 10.769 2 16.246v.754h4v-.456c0-5.65 1.016-11.254 3-16.544" fill="#efbe9a"/></g><g><path d="m48 41c1.327 4.644 2 9.45 2 14.28v.72h4v-1.917c0-4.048.334-8.09 1-12.083" fill="#efbe9a"/></g><g><path d="m46 56-2.13 1.42c-.543.362-.87.972-.87 1.626 0 1.079.875 1.954 1.954 1.954h4.092c1.079 0 1.954-.875 1.954-1.954v-.585c0-.303-.071-.603-.206-.874l-.794-1.587" fill="#243242"/></g><g><path d="m25 56-2.13 1.42c-.543.362-.87.972-.87 1.626 0 1.079.875 1.954 1.954 1.954h4.092c1.079 0 1.954-.875 1.954-1.954v-.585c0-.303-.071-.603-.206-.874l-.794-1.587" fill="#243242"/></g><g><path d="m21 56-2.13 1.42c-.543.362-.87.972-.87 1.626 0 1.079.875 1.954 1.954 1.954h4.092c1.079 0 1.954-.875 1.954-1.954v-.585c0-.303-.071-.603-.206-.874l-.794-1.587" fill="#52565a"/></g><g><path d="m50 56-2.13 1.42c-.543.362-.87.972-.87 1.626 0 1.079.875 1.954 1.954 1.954h4.092c1.079 0 1.954-.875 1.954-1.954v-.585c0-.303-.071-.603-.206-.874l-.794-1.587" fill="#52565a"/></g><g><path d="m19.998 20.294c-.615-.769-.998-1.732-.998-2.794 0-.67.156-1.301.419-1.872-.424.23-.903.372-1.419.372-1.657 0-3-1.343-3-3 0-.772.3-1.468.779-2-.472-.523-.766-1.208-.775-1.966-2.238.161-4.402.898-6.278 2.149l-.562.374c-1.428.952-2.654 2.177-3.606 3.606l-2.558 3.837v2.162c0 2.12 1.718 3.838 3.838 3.838.758 0 1.498-.224 2.129-.645l1.066-.711c.631-.42 1.371-.644 2.129-.644h2.215c.413 0 .823-.067 1.214-.197l2.409-.803h.11c.801-.783 1.786-1.377 2.888-1.706z" fill="#f6c29d"/></g><g><path d="m62 25c0-2.141-1.353-3.954-3.245-4.666.149-.419.245-.864.245-1.334 0-2.209-1.791-4-4-4-.951 0-1.813.346-2.5.901-.687-.555-1.549-.901-2.5-.901-.986 0-1.878.371-2.575.963-.698-1.171-1.963-1.963-3.425-1.963-1.742 0-3.208 1.12-3.757 2.674-.726-1.01-1.904-1.674-3.243-1.674-.83 0-1.6.253-2.239.685-.546-1.559-2.015-2.685-3.761-2.685-.986 0-1.878.371-2.575.963-.698-1.171-1.963-1.963-3.425-1.963-.353 0-.689.06-1.015.146.003-.049.015-.096.015-.146 0-.089-.017-.173-.024-.259.005-.081.024-.159.024-.241 0-1.821-1.396-3.3-3.174-3.467-.404-1.18-1.51-2.033-2.826-2.033-1.657 0-3 1.343-3 3 0 .772.3 1.468.779 2-.479.532-.779 1.228-.779 2 0 1.657 1.343 3 3 3 .516 0 .995-.142 1.419-.372-.263.571-.419 1.202-.419 1.872 0 1.062.383 2.025.998 2.794-2.89.862-4.998 3.536-4.998 6.706 0 2.726 1.561 5.082 3.836 6.238-.526.792-.836 1.74-.836 2.762 0 2.761 2.239 5 5 5 2.041 0 3.789-1.226 4.566-2.979.696 1.179 1.966 1.979 3.434 1.979 1.321 0 2.484-.649 3.212-1.636.597 2.094 2.503 3.636 4.788 3.636 2.041 0 3.789-1.226 4.566-2.979.696 1.179 1.966 1.979 3.434 1.979 1.119 0 2.129-.462 2.855-1.203.898 1.329 2.42 2.203 4.145 2.203 2.761 0 5-2.239 5-5 0-.629-.129-1.225-.341-1.78 1.402-.885 2.341-2.439 2.341-4.22 0-.852-.233-1.643-.609-2.345.984-.913 1.609-2.207 1.609-3.655z" fill="#e3e4e5"/></g><g><path d="m19 12 1.801-.45c1.439-.36 2.753-1.104 3.802-2.153 1.535-1.535 2.397-3.616 2.397-5.787v-.426c0-.102-.082-.184-.184-.184h-.159c-2.341 0-4.587.93-6.243 2.586-.905.905-1.414 2.133-1.414 3.414" fill="#f6c29d"/></g><g><path d="m18 17c-2.206 0-4-1.794-4-4 0-.705.19-1.394.546-2-.356-.606-.546-1.295-.546-2 0-2.206 1.794-4 4-4 .986 0 1.933.361 2.667 1.019l-1.334 1.49c-.366-.328-.84-.509-1.333-.509-1.103 0-2 .897-2 2 0 .485.186.957.521 1.331.343.38.343.958 0 1.338-.335.374-.521.846-.521 1.331 0 1.103.897 2 2 2 .585 0 1.142-.267 1.527-.73l1.539 1.277c-.766.924-1.884 1.453-3.066 1.453z"/></g><g><path d="m54 43c-1.629 0-3.167-.659-4.287-1.802-.801.523-1.735.802-2.713.802-1.249 0-2.414-.456-3.312-1.265-1.123 1.41-2.839 2.265-4.688 2.265-2.12 0-4.057-1.146-5.122-2.917-.83.593-1.825.917-2.878.917-1.249 0-2.414-.456-3.312-1.265-1.123 1.41-2.839 2.265-4.688 2.265-3.309 0-6-2.691-6-6 0-.829.171-1.641.499-2.392-2.181-1.479-3.499-3.929-3.499-6.608 0-4.411 3.589-8 8-8v2c-3.309 0-6 2.691-6 6 0 2.267 1.261 4.315 3.289 5.347.255.13.441.361.514.638.073.275.024.569-.134.808-.438.657-.669 1.421-.669 2.207 0 2.206 1.794 4 4 4 1.576 0 3.01-.936 3.652-2.384.152-.343.482-.571.856-.593.396-.016.729.167.919.49.55.931 1.511 1.487 2.573 1.487.953 0 1.831-.448 2.407-1.23.226-.306.604-.458.982-.391.375.068.68.344.784.71.489 1.714 2.062 2.911 3.827 2.911 1.576 0 3.01-.936 3.652-2.384.152-.343.482-.571.856-.593.392-.02.729.168.919.49.55.931 1.511 1.487 2.573 1.487.81 0 1.569-.32 2.141-.903.21-.214.507-.323.804-.296.299.027.57.188.738.436.747 1.104 1.987 1.763 3.317 1.763 2.206 0 4-1.794 4-4 0-.467-.093-.945-.274-1.422-.171-.445-.003-.948.399-1.203 1.174-.741 1.875-2.003 1.875-3.375 0-.634-.165-1.265-.491-1.873-.215-.4-.132-.896.202-1.205.831-.772 1.289-1.809 1.289-2.922 0-1.646-1.044-3.146-2.598-3.73-.51-.191-.772-.757-.59-1.271.126-.354.188-.681.188-.999 0-1.654-1.346-3-3-3-.675 0-1.322.234-1.871.679-.367.295-.891.295-1.258 0-.549-.445-1.196-.679-1.871-.679-.888 0-1.538.395-1.928.726-.225.19-.521.271-.812.224-.29-.048-.544-.222-.694-.475-.551-.923-1.51-1.475-2.566-1.475-1.259 0-2.39.807-2.813 2.007-.124.352-.434.604-.802.657-.375.053-.735-.104-.953-.406-.576-.8-1.462-1.258-2.432-1.258-.603 0-1.183.178-1.679.514-.256.174-.582.22-.874.121-.295-.098-.528-.326-.631-.619-.421-1.205-1.553-2.016-2.816-2.016-.888 0-1.538.395-1.928.726-.225.19-.521.27-.812.224-.29-.048-.544-.222-.694-.475-.551-.923-1.51-1.475-2.566-1.475-.225 0-.466.036-.76.113-.307.082-.633.011-.881-.187-.247-.198-.386-.503-.373-.819.001-.034.012-.136.017-.169-.003-.432-.184-.905-.512-1.271l1.49-1.334c.431.481.734 1.054.893 1.669 1.446-.045 2.814.552 3.778 1.6.724-.392 1.531-.602 2.348-.602 1.728 0 3.308.902 4.21 2.33 1.566-.604 3.452-.334 4.796.686.927-1.245 2.398-2.016 3.994-2.016 1.411 0 2.717.584 3.652 1.602 1.508-.816 3.381-.782 4.848.084.763-.451 1.614-.686 2.5-.686 2.757 0 5 2.243 5 5 0 .261-.022.521-.067.783 1.865 1.05 3.067 3.048 3.067 5.217 0 1.429-.498 2.772-1.416 3.853.276.697.416 1.417.416 2.147 0 1.801-.8 3.473-2.173 4.607.115.463.173.929.173 1.393 0 3.309-2.691 6-6 6z"/></g><g><path d="m5.838 26c-2.668 0-4.838-2.17-4.838-4.838v-2.162c0-.197.059-.391.168-.555l2.558-3.837c1.031-1.546 2.337-2.852 3.883-3.883l.562-.374c2.307-1.538 4.992-2.351 7.766-2.351l.063 2h-.063c-2.377 0-4.68.697-6.657 2.016l-.562.374c-1.325.884-2.444 2.003-3.328 3.328l-2.39 3.585v1.859c0 1.565 1.273 2.838 2.838 2.838.562 0 1.106-.165 1.575-.477l1.065-.711c.799-.531 1.727-.812 2.684-.812h2.215c.306 0 .607-.049.896-.146l2.41-.803.633 1.896-2.409.803c-.493.166-1.009.25-1.53.25h-2.215c-.562 0-1.106.165-1.575.477l-1.065.711c-.799.531-1.727.812-2.684.812z"/></g><g><path d="m10.5 16c-.827 0-1.5-.673-1.5-1.5s.673-1.5 1.5-1.5 1.5.673 1.5 1.5-.673 1.5-1.5 1.5z"/></g><g><path d="m3.316 23.948-.633-1.896.536-.179c1.466-.489 2.817-1.324 3.909-2.416l.164-.164 1.414 1.414-.164.164c-1.311 1.311-2.933 2.312-4.69 2.898z"/></g><g><path d="m19.242 12.97-.484-1.939 1.801-.45c1.262-.315 2.416-.969 3.337-1.89 1.258-1.259 1.992-2.9 2.093-4.662-1.839.154-3.547.945-4.867 2.265-.714.712-1.122 1.698-1.122 2.706h-2c0-1.534.622-3.036 1.707-4.121 1.856-1.857 4.324-2.879 6.95-2.879h.158c.654 0 1.185.531 1.185 1.185v.425c0 2.453-.955 4.76-2.69 6.494-1.177 1.178-2.652 2.013-4.267 2.416z"/></g><g><path d="m25 57h-4c-.553 0-1-.447-1-1v-.754c0-5.389-.663-10.773-1.97-16.004l1.939-.484c1.328 5.308 2.01 10.772 2.031 16.242h2.003c.062-5.601 1.092-11.099 3.061-16.351l1.873.701c-1.949 5.198-2.937 10.646-2.937 16.194v.456c0 .553-.447 1-1 1z"/></g><g><path d="m24.046 62h-4.092c-1.629 0-2.954-1.325-2.954-2.954 0-.99.492-1.909 1.315-2.458l2.13-1.42 1.109 1.664-2.13 1.42c-.266.178-.424.474-.424.794 0 .526.428.954.954.954h4.092c.526 0 .954-.428.954-.954v-.585c0-.147-.035-.295-.101-.427l-.794-1.587 1.789-.895.794 1.587c.205.409.312.865.312 1.322v.585c0 1.629-1.325 2.954-2.954 2.954z"/></g><g><path d="m29 57h-4v-2h3v-.405c0-5.176 1.033-10.212 3.072-14.969l1.84.784c-1.933 4.51-2.912 9.281-2.912 14.185v1.405c0 .553-.447 1-1 1z"/></g><g><path d="m28.046 62h-4.092v-2h4.092c.526 0 .954-.428.954-.954v-.585c0-.147-.035-.295-.101-.427l-.794-1.587 1.789-.895.794 1.587c.205.409.312.865.312 1.322v.585c0 1.629-1.325 2.954-2.954 2.954z"/></g><g><path d="m54 57h-4c-.553 0-1-.447-1-1v-.72c0-4.739-.66-9.451-1.962-14.006l1.924-.549c1.326 4.643 2.012 9.443 2.037 14.274h2.001v-.917c0-4.095.341-8.215 1.014-12.247l1.973.328c-.655 3.926-.987 7.936-.987 11.92v1.917c0 .553-.447 1-1 1z"/></g><g><path d="m53.046 62h-4.092c-1.629 0-2.954-1.325-2.954-2.954 0-.99.492-1.909 1.315-2.458l2.13-1.42 1.109 1.664-2.13 1.42c-.266.178-.424.474-.424.794 0 .526.428.954.954.954h4.092c.526 0 .954-.428.954-.954v-.585c0-.147-.035-.295-.101-.427l-.794-1.587 1.789-.895.794 1.587c.205.409.312.865.312 1.322v.585c0 1.629-1.325 2.954-2.954 2.954z"/></g><g><path d="m50 57h-4c-.553 0-1-.447-1-1v-.121c0-5.147-.633-10.288-1.881-15.28l-.09-.356 1.941-.484.089.356c1.217 4.865 1.866 9.869 1.935 14.886h3.006z"/></g><g><path d="m49.046 62h-4.092c-1.629 0-2.954-1.325-2.954-2.954 0-.99.492-1.909 1.315-2.458l2.13-1.42 1.109 1.664-2.13 1.42c-.266.178-.424.474-.424.794 0 .526.428.954.954.954h4.092z"/></g></g></svg>