<svg id="Layer_3" enable-background="new 0 0 64 64" height="512" viewBox="0 0 64 64" width="512" xmlns="http://www.w3.org/2000/svg"><g><g><path d="m18.768 41.92c-1.16 2.178-1.768 4.609-1.768 7.08h-4l-3-13v-2.554c0-5.849 3.107-11.259 8.159-14.206 2.515-1.467 5.375-2.24 8.287-2.24h6.387c4.084 0 8.142.658 12.017 1.95l.15.05.427.167c2.452-2.635 5.911-4.167 9.573-4.167l-2.848 7.121s.731.585.731.585c2.699 2.159 4.792 4.981 6.076 8.19l.041.104h3l-1 7-.098.074c-2.563 1.923-5.551 3.201-8.712 3.728l-1.19.198v7h-3l-.041-.041c-1.282-1.282-2.191-2.887-2.63-4.646l-.329-1.313s-.081-.363-.081-.363c-3.282.904-6.675 1.363-10.086 1.363h-3.667c-4.084 0-8.142-.658-12.017-1.95l-.149-.05s-.232-.08-.232-.08z" fill="#db9b7c"/></g><g><path d="m45 19-.15-.05c-3.875-1.292-7.932-1.95-12.017-1.95h-6.387c-2.912 0-5.772.773-8.287 2.24-5.052 2.948-8.159 8.357-8.159 14.206v2.554l.385 1.666c3.144.86 6.552 1.334 10.115 1.334 15.74 0 28.5-9.178 28.5-20.5 0-.661-.048-1.314-.133-1.959-1.275.678-2.444 1.555-3.441 2.626z" fill="#efbe9a"/></g><g><path d="m43 43-.488.733c-.986 1.478-1.512 3.215-1.512 4.992v.275h-3l-.05-.1c-.625-1.25-.95-2.628-.95-4.025v-.875" fill="#efbe9a"/></g><g><path d="m26 44v.053c0 1.29.208 2.571.616 3.795l.384 1.152h-3l-.328-.219c-1.669-1.113-2.672-2.986-2.672-4.992v-.789" fill="#efbe9a"/></g><g><path d="m51.929 25.371-1.857-.742 3.414-8.534c-3.457.434-6.574 2.341-8.536 5.284l-.117.176-1.664-1.109.117-.176c2.616-3.926 6.996-6.27 11.714-6.27.332 0 .642.165.828.439s.224.624.101.932z"/></g><g><path d="m17 50h-4c-.466 0-.87-.321-.975-.775l-3-13c-.016-.074-.025-.15-.025-.225v-2.554c0-6.181 3.317-11.955 8.656-15.07 2.666-1.555 5.705-2.376 8.79-2.376h6.387c4.201 0 8.35.674 12.333 2.002l.149.049-.631 1.898-.15-.05c-3.779-1.26-7.715-1.899-11.701-1.899h-6.387c-2.731 0-5.422.728-7.783 2.104-4.726 2.757-7.663 7.87-7.663 13.342v2.439l2.795 12.115h2.236c.153-2.445.866-4.836 2.085-6.969 1.243-2.176 1.884-4.588 1.884-7.031v-3h2v3c0 2.791-.732 5.546-2.116 7.969-1.243 2.176-1.884 4.588-1.884 7.031 0 .553-.448 1-1 1z"/></g><g><path d="m34.833 45h-3.667c-4.201 0-8.35-.674-12.333-2.002l-.149-.049.631-1.898.15.05c3.78 1.26 7.716 1.899 11.702 1.899h3.667c3.985 0 7.922-.639 11.7-1.898l.151-.051.631 1.898-.15.05c-3.982 1.327-8.132 2.001-12.333 2.001z"/></g><g><path d="m51 50h-3c-.263 0-.516-.104-.703-.289-1.456-1.455-2.456-3.223-2.939-5.156l-.328-1.312 1.94-.484.328 1.312c.367 1.469 1.099 2.82 2.125 3.93h1.577v-6c0-.489.354-.906.835-.986l1.189-.198c2.894-.481 5.668-1.646 8.044-3.37l.779-5.447h-1.847c-.41 0-.778-.25-.929-.631l-.042-.104c-1.216-3.04-3.212-5.73-5.771-7.777l-.883-.706 1.249-1.562.883.706c2.681 2.146 4.802 4.928 6.162 8.075h2.331c.29 0 .565.126.755.345s.275.51.234.797l-1 7c-.037.262-.177.498-.389.657l-.099.074c-2.683 2.012-5.846 3.365-9.149 3.915l-.352.058v6.153c0 .553-.448 1-1 1z"/></g><g><path d="m41 50h-3c-.379 0-.725-.214-.895-.553l-.05-.1c-.69-1.381-1.055-2.927-1.055-4.472v-.875h2v.875c0 1.069.219 2.14.636 3.125h1.39c.124-1.722.689-3.376 1.654-4.822l.488-.732 1.664 1.109-.488.732c-.879 1.318-1.344 2.853-1.344 4.438v.275c0 .553-.448 1-1 1z"/></g><g><path d="m27 50h-3c-.197 0-.391-.059-.555-.168l-.328-.219c-1.952-1.301-3.117-3.478-3.117-5.824v-.789h2v.789c0 1.675.833 3.23 2.227 4.16l.076.051h1.311c-.407-1.278-.614-2.605-.614-3.947l2-.053v.053c0 1.185.19 2.354.564 3.479l.384 1.152c.102.305.05.641-.137.901-.187.261-.49.415-.811.415z"/></g><g><path d="m5 31c-2.206 0-4-1.794-4-4s1.794-4 4-4 4 1.794 4 4-1.794 4-4 4zm0-6c-1.103 0-2 .897-2 2s.897 2 2 2 2-.897 2-2-.897-2-2-2z"/></g><g><path d="m5 29h5v2h-5z"/></g><g><path d="m1 19h2v8h-2z"/></g><g><path d="m54 30h-2c0-.552-.449-1-1-1s-1 .448-1 1h-2c0-1.654 1.346-3 3-3s3 1.346 3 3z"/></g></g></svg>