<?xml version="1.0" encoding="iso-8859-1"?>
<!-- Generator: Adobe Illustrator 19.0.0, SVG Export Plug-In . SVG Version: 6.00 Build 0)  -->
<svg version="1.1" id="Capa_1" xmlns="http://www.w3.org/2000/svg" xmlns:xlink="http://www.w3.org/1999/xlink" x="0px" y="0px"
	 viewBox="0 0 511.997 511.997" style="enable-background:new 0 0 511.997 511.997;" xml:space="preserve">
<g>
	<path style="fill:#4A5058;" d="M46.049,18.498L30.371,63.127c-2.988,8.506,3.631,17.332,12.631,16.805
		c41.664-2.439,98.414,22.033,108.62,50.878c2.511-25.759-15.341-103.492-85.557-122.72C57.678,5.793,48.932,10.294,46.049,18.498z"
		/>
	<path style="fill:#4A5058;" d="M465.948,18.498l15.679,44.629c2.988,8.506-3.631,17.332-12.631,16.805
		c-41.664-2.439-98.414,22.033-108.62,50.878c-2.511-25.759,15.341-103.492,85.557-122.72
		C454.319,5.793,463.065,10.294,465.948,18.498z"/>
</g>
<path style="fill:#BA6FA5;" d="M157.697,504.501h-24.829c-3.993,0-7.23-3.237-7.23-7.23v-19.004
	c0-30.854,17.012-58.847,44.399-73.056l14.765,28.457c-16.719,8.675-27.105,25.764-27.105,44.6V504.501L157.697,504.501z"/>
<path style="fill:#FFD4B8;" d="M125.638,478.266v19.004c0,3.993,3.237,7.23,7.23,7.23h24.83v-26.234H125.638z"/>
<path style="fill:#BA6FA5;" d="M354.3,504.501h24.829c3.993,0,7.23-3.237,7.23-7.23v-19.004c0-30.854-17.012-58.847-44.399-73.056
	l-14.765,28.457c16.719,8.675,27.105,25.764,27.105,44.6L354.3,504.501L354.3,504.501z"/>
<path style="fill:#FFD4B8;" d="M386.359,478.266v19.004c0,3.993-3.237,7.23-7.23,7.23H354.3v-26.234H386.359z"/>
<path style="fill:#DF85C6;" d="M255.999,340.24L255.999,340.24c-54.404,0-98.507,44.103-98.507,98.507v65.754h197.013v-65.754
	C354.505,384.343,310.402,340.24,255.999,340.24z"/>
<g>
	<path style="opacity:0.3;fill:#FFFFFF;enable-background:new    ;" d="M184.802,372.388c-0.55,0-1.096,0.021-1.641,0.041
		c-15.945,17.503-25.668,40.775-25.668,66.318v8.039c7.363,6.254,16.892,10.035,27.31,10.035c23.315,0,42.217-18.901,42.217-42.217
		C227.019,391.289,208.118,372.388,184.802,372.388z"/>
	<path style="opacity:0.3;fill:#FFFFFF;enable-background:new    ;" d="M327.195,436.05c-23.315,0-42.217,18.901-42.217,42.217
		c0,9.918,3.429,19.029,9.153,26.234h60.374v-58.416C347.142,439.83,337.613,436.05,327.195,436.05z"/>
</g>
<path style="opacity:0.1;enable-background:new    ;" d="M255.999,340.24L255.999,340.24c-36.985,0-69.203,20.386-86.047,50.532
	c25.135,15.126,54.573,23.832,86.047,23.832s60.911-8.706,86.047-23.832C325.202,360.626,292.983,340.24,255.999,340.24z"/>
<g>
	<circle style="fill:#FFD4B8;" cx="88.878" cy="228.541" r="31.18"/>
	<circle style="fill:#FFD4B8;" cx="423.118" cy="228.541" r="31.18"/>
	<circle style="fill:#FFD4B8;" cx="255.998" cy="228.321" r="167.12"/>
</g>
<path style="fill:#4A5058;" d="M255.999,61.194c-76.89,0-141.643,51.93-161.124,122.627c34.641,14.825,116.174,9.859,161.124-56.6
	c43.775,64.722,125.283,71.125,161.428,57.722C398.324,113.674,333.295,61.194,255.999,61.194z"/>
<path style="opacity:0.1;fill:#743631;enable-background:new    ;" d="M280.766,374.345c-92.301,0-167.124-74.824-167.124-167.124
	c0-45.113,17.881-86.044,46.935-116.111c-43.337,30.196-71.702,80.385-71.702,137.208c0,92.301,74.824,167.124,167.124,167.124
	c47.187,0,89.8-19.563,120.189-51.013C349.131,363.281,316.243,374.345,280.766,374.345z"/>
<g>
	<path style="fill:#81D4AE;" d="M168.107,101.213l-27.729,27.728c-7.76,7.76-20.342,7.76-28.103,0l0,0
		c-7.76-7.76-7.76-20.342,0-28.103l27.728-27.728c7.76-7.76,20.342-7.76,28.102,0l0,0C175.867,80.87,175.867,93.453,168.107,101.213
		z"/>
	<path style="fill:#81D4AE;" d="M343.89,101.213l27.728,27.728c7.76,7.76,20.342,7.76,28.103,0l0,0c7.76-7.76,7.76-20.342,0-28.103
		L371.993,73.11c-7.76-7.76-20.342-7.76-28.103,0l0,0C336.13,80.87,336.13,93.453,343.89,101.213z"/>
</g>
<path d="M338.069,206.001c-12.196,0-22.119,9.923-22.119,22.12c0,4.142,3.357,7.5,7.5,7.5s7.5-3.358,7.5-7.5
	c0-3.926,3.193-7.12,7.119-7.12s7.12,3.194,7.12,7.12c0,4.142,3.357,7.5,7.5,7.5s7.5-3.358,7.5-7.5
	C360.189,215.924,350.267,206.001,338.069,206.001z M488.703,60.641l-15.679-44.629c-4.155-11.825-16.922-18.481-29.073-15.156
	c-6.404,1.754-12.635,4.039-18.517,6.791c-3.752,1.755-5.371,6.22-3.615,9.972s6.221,5.369,9.971,3.615
	c5.113-2.392,10.538-4.38,16.123-5.91c4.594-1.258,9.402,1.23,10.958,5.66l15.679,44.628c0.825,2.35-0.246,4.145-0.745,4.807
	c-0.495,0.657-1.909,2.175-4.37,2.025c-22.039-1.287-49.145,4.598-72.017,15.482l-15.743-15.742
	c6.984-14.06,15.923-25.984,26.633-35.482c3.099-2.749,3.383-7.489,0.635-10.587s-7.487-3.384-10.588-0.635
	c-11.374,10.087-20.95,22.509-28.561,36.996c-3.651-1.756-7.679-2.687-11.851-2.687c-7.312,0-14.185,2.847-19.355,8.017
	c-1.45,1.45-2.696,3.027-3.752,4.691c-24.319-12.311-51.393-18.804-78.835-18.804s-54.516,6.494-78.835,18.804
	c-1.056-1.664-2.303-3.242-3.753-4.692c-5.17-5.169-12.043-8.017-19.355-8.017c-4.171,0-8.197,0.93-11.847,2.685
	c-12.427-23.65-34.809-50.842-74.163-61.619C55.894-2.47,43.127,4.188,38.973,16.011L23.293,60.64
	c-2.24,6.377-1.149,13.407,2.918,18.805c4.058,5.387,10.503,8.365,17.228,7.974c18.286-1.071,40.616,3.474,60.278,12.038
	c-3.094,4.512-4.763,9.843-4.763,15.432c0,7.312,2.847,14.185,8.017,19.354c0.387,0.387,0.788,0.758,1.194,1.119
	c-10.66,16.905-18.252,35.34-22.57,54.64c-19.799,1.672-35.403,18.309-35.403,38.533c0,20.265,15.668,36.929,35.525,38.542
	c10.868,47.769,41.378,88.15,82.552,112.175c-5.491,8.104-9.802,16.933-12.866,26.184c-23.381,16.819-37.266,43.85-37.266,72.827
	l0,0l0,0v19.005c0,8.122,6.607,14.729,14.729,14.729h52.941c4.143,0,7.5-3.358,7.5-7.5s-3.357-7.5-7.5-7.5h-20.816v-58.254
	c0-8.92,1.268-17.605,3.718-25.901c0.135-0.356,0.242-0.721,0.321-1.092c2.796-9.038,7.033-17.589,12.611-25.455
	c22.572,10.667,47.777,16.645,74.355,16.645s51.782-5.979,74.355-16.645c5.578,7.867,9.816,16.418,12.612,25.455
	c0.079,0.371,0.187,0.736,0.321,1.092c2.451,8.296,3.718,16.981,3.718,25.901v58.254H217.156c-4.143,0-7.5,3.358-7.5,7.5
	s3.357,7.5,7.5,7.5H379.13c8.122,0,14.729-6.607,14.729-14.729v-19.005l0,0l0,0c0-28.977-13.884-56.009-37.266-72.827
	c-3.064-9.251-7.374-18.081-12.866-26.184c41.175-24.024,71.683-64.405,82.552-112.175c19.857-1.613,35.525-18.276,35.525-38.542
	c0-20.223-15.603-36.861-35.403-38.533c-4.318-19.301-11.91-37.736-22.571-54.641c0.406-0.361,0.806-0.731,1.193-1.118
	c5.171-5.169,8.018-12.043,8.018-19.354c0-5.59-1.669-10.92-4.762-15.432c19.665-8.563,42.004-13.108,60.278-12.038
	c6.74,0.389,13.168-2.587,17.227-7.973C489.853,74.048,490.943,67.017,488.703,60.641z M65.192,228.537
	c0-10.971,7.501-20.222,17.644-22.898c-0.968,7.473-1.462,15.044-1.462,22.679c0,7.844,0.529,15.566,1.536,23.138
	C72.73,248.805,65.192,239.535,65.192,228.537z M149.992,497.001h-16.854v-11.234h16.854V497.001z M149.992,438.747v32.019h-16.474
	c1.492-14.907,7.396-28.887,16.809-40.236C150.114,433.259,149.992,435.999,149.992,438.747z M378.859,497.001h-16.854v-11.234
	h16.854V497.001z M378.479,470.766h-16.473v-32.019c0-2.748-0.122-5.488-0.336-8.216
	C371.083,441.879,376.987,455.859,378.479,470.766z M429.161,205.639c10.143,2.677,17.644,11.927,17.644,22.898
	c0,10.998-7.538,20.268-17.717,22.919c1.007-7.573,1.536-15.295,1.536-23.138C430.623,220.683,430.129,213.112,429.161,205.639z
	 M345.834,84.663c0.01-0.042,0.022-0.083,0.03-0.125c0.484-2.246,1.587-4.384,3.328-6.125c2.337-2.337,5.444-3.624,8.749-3.624
	s6.411,1.287,8.747,3.623l23.811,23.81c0.004,0.004,0.008,0.008,0.012,0.012l3.907,3.907c2.336,2.337,3.623,5.443,3.623,8.748
	s-1.287,6.411-3.624,8.748c-1.12,1.12-2.42,1.991-3.83,2.603c-0.091,0.037-0.181,0.077-0.271,0.118
	c-1.457,0.59-3.027,0.903-4.646,0.903c-3.305,0-6.412-1.287-8.748-3.624l-27.729-27.728v0.001
	C346.144,92.861,345.028,88.603,345.834,84.663z M145.308,78.413c2.336-2.336,5.442-3.623,8.747-3.623s6.412,1.287,8.748,3.623
	c1.743,1.743,2.846,3.882,3.329,6.129c0.008,0.038,0.019,0.076,0.028,0.114c0.809,3.941-0.306,8.202-3.357,11.254l-27.727,27.728
	c-2.337,2.336-5.444,3.624-8.749,3.624c-1.618,0-3.187-0.313-4.644-0.902c-0.092-0.042-0.183-0.082-0.276-0.12
	c-1.41-0.612-2.709-1.482-3.828-2.601c-2.336-2.337-3.623-5.443-3.623-8.748s1.287-6.411,3.624-8.748L145.308,78.413z
	 M42.562,72.444c-2.449,0.15-3.875-1.369-4.37-2.025c-0.5-0.663-1.571-2.457-0.746-4.806l15.68-44.629
	c1.556-4.43,6.369-6.917,10.958-5.66c35.743,9.788,55.571,35.401,66.241,56.858L114.58,87.927
	C91.709,77.042,64.606,71.156,42.562,72.444z M412.886,198.742c0.017,0.101,0.034,0.202,0.055,0.302
	c1.774,9.58,2.682,19.369,2.682,29.275c0,88.018-71.606,159.625-159.624,159.625S96.375,316.335,96.375,228.318
	c0-9.905,0.908-19.694,2.681-29.274c0.021-0.101,0.038-0.202,0.055-0.304c0.318-1.697,0.665-3.386,1.037-5.069
	c10.053,3.02,21.709,4.551,34.017,4.551c12.754,0,26.201-1.639,39.25-4.949c23.898-6.063,56.797-20.237,82.592-53.31
	c25.221,32.165,57.853,46.387,81.652,52.668c25.654,6.771,53.27,7.361,74.366,1.846
	C412.332,195.893,412.619,197.315,412.886,198.742z M408.178,179.999c-21.858,5.757-48.935,2.815-66.69-1.871
	c-23.326-6.157-56.016-20.716-79.276-55.108c-1.396-2.063-3.723-3.298-6.213-3.298c-2.49,0-4.817,1.236-6.213,3.298
	c-40.81,60.337-112.007,66.3-145.701,56.155c4.227-13.074,10.158-25.594,17.712-37.292c1.483,0.246,2.996,0.378,4.53,0.378
	c7.312,0,14.185-2.847,19.355-8.017l27.73-27.728l0,0c5.334-5.335,8.001-12.341,8.003-19.348
	c22.865-12.096,48.545-18.473,74.584-18.473s51.719,6.377,74.584,18.473c0.002,7.007,2.669,14.014,8.003,19.348l0,0l27.729,27.728
	c5.17,5.17,12.043,8.017,19.354,8.017c1.534,0,3.046-0.133,4.53-0.378C397.913,153.827,403.936,166.626,408.178,179.999z
	 M173.928,206.001c-12.197,0-22.12,9.923-22.12,22.12c0,4.142,3.357,7.5,7.5,7.5s7.5-3.358,7.5-7.5c0-3.926,3.194-7.12,7.12-7.12
	s7.119,3.194,7.119,7.12c0,4.142,3.357,7.5,7.5,7.5s7.5-3.358,7.5-7.5C196.047,215.924,186.124,206.001,173.928,206.001z
	 M267.662,260.488c-3.06,3.265-7.201,5.063-11.663,5.063s-8.604-1.798-11.663-5.063c-2.832-3.023-7.578-3.179-10.601-0.345
	c-3.022,2.832-3.177,7.578-0.345,10.601c5.839,6.232,14.08,9.807,22.608,9.807s16.77-3.574,22.608-9.807
	c2.832-3.022,2.678-7.769-0.345-10.601C275.239,257.309,270.493,257.467,267.662,260.488z"/>
<g>
</g>
<g>
</g>
<g>
</g>
<g>
</g>
<g>
</g>
<g>
</g>
<g>
</g>
<g>
</g>
<g>
</g>
<g>
</g>
<g>
</g>
<g>
</g>
<g>
</g>
<g>
</g>
<g>
</g>
</svg>
