<svg id="Layer_3" enable-background="new 0 0 64 64" height="512" viewBox="0 0 64 64" width="512" xmlns="http://www.w3.org/2000/svg"><g><g><path d="m20 37-2.083 3.472c-.442.737-.731 1.553-.852 2.399 0-.001-.065.129-.065.129l-.839 1.677c-.763 1.528-1.161 3.212-1.161 4.92v.073c0 2.172.643 4.295 1.847 6.102l.153.228 8 5 1.134.283c1.903.476 3.858.717 5.821.717h.091c1.962 0 3.917-.241 5.821-.717l1.133-.283 8-5 .153-.229c1.204-1.807 1.847-3.93 1.847-6.102v-.073c0-1.708-.398-3.392-1.161-4.919l-.839-1.677s-.068-.15-.068-.15c-.123-.838-.41-1.647-.849-2.379l-2.083-3.471" fill="#8892a0"/></g><g><path d="m27 56c0 2.761-2.239 6-5 6s-5-3.239-5-6 2.239-4 5-4 5 1.239 5 4z" fill="#4d5d7a"/></g><g><path d="m37 56c0 2.761 2.239 6 5 6s5-3.239 5-6-2.239-4-5-4-5 1.239-5 4z" fill="#4d5d7a"/></g><g><circle cx="42" cy="60" fill="#8892a0" r="2"/></g><g><circle cx="22" cy="60" fill="#8892a0" r="2"/></g><g><path d="m26.581 8c-.696-1.577-2.191-2.72-3.971-2.939-.758-1.798-2.536-3.061-4.61-3.061-1.29 0-2.454.502-3.341 1.304-.521-.185-1.074-.304-1.659-.304-2.761 0-5 2.239-5 5 0 .629.129 1.225.341 1.78-1.402.885-2.341 2.439-2.341 4.22 0 2.066 1.253 3.837 3.04 4.6-.01.134-.04.263-.04.4 0 2.761 2.239 5 5 5 .342 0 .677-.034 1-.1" fill="#8892a0"/></g><g><path d="m37.419 8c.696-1.577 2.191-2.72 3.971-2.939.758-1.798 2.536-3.061 4.61-3.061 1.29 0 2.454.502 3.341 1.304.521-.185 1.074-.304 1.659-.304 2.761 0 5 2.239 5 5 0 .629-.129 1.225-.341 1.78 1.402.885 2.341 2.439 2.341 4.22 0 2.066-1.253 3.837-3.04 4.6.01.134.04.263.04.4 0 2.761-2.239 5-5 5-.342 0-.677-.034-1-.1" fill="#8892a0"/></g><g><path d="m16 21.326c-2.365-1.124-4-3.534-4-6.326 0-3.866 3.134-7 7-7 1.907 0 3.636.763 4.899 2" fill="#c66b60"/></g><g><path d="m48 21.326c2.365-1.124 4-3.534 4-6.326 0-3.866-3.134-7-7-7-1.907 0-3.636.763-4.899 2" fill="#c66b60"/></g><g><path d="m49 26c0 9.389-7.611 15-17 15s-17-5.611-17-15 7.611-19 17-19 17 9.611 17 19z" fill="#c1c8d1"/></g><g><path d="m35 26c0 2.761-1.343 6-3 6s-3-3.239-3-6 1.343-4 3-4 3 1.239 3 4z" fill="#243242"/></g><g><path d="m32 42c-10.598 0-18-6.579-18-16 0-9.441 7.698-20 18-20s18 10.559 18 20c0 9.421-7.402 16-18 16zm0-34c-9.157 0-16 9.503-16 18 0 8.243 6.58 14 16 14s16-5.757 16-14c0-8.497-6.843-18-16-18z"/></g><g><path d="m32 33c-2.576 0-4-4.139-4-7 0-3.69 2.155-5 4-5s4 1.31 4 5c0 2.861-1.424 7-4 7zm0-10c-1.74 0-2 1.88-2 3 0 2.736 1.324 5 2 5s2-2.264 2-5c0-1.12-.26-3-2-3z"/></g><g><path d="m44 22h-2c0-.552-.449-1-1-1s-1 .448-1 1h-2c0-1.654 1.346-3 3-3s3 1.346 3 3z"/></g><g><path d="m26 22h-2c0-.552-.449-1-1-1s-1 .448-1 1h-2c0-1.654 1.346-3 3-3s3 1.346 3 3z"/></g><g><path d="m32 38c-2.757 0-5-2.243-5-5h2c0 1.654 1.346 3 3 3s3-1.346 3-3h2c0 2.757-2.243 5-5 5z"/></g><g><path d="m31 32h2v5h-2z"/></g><g><path d="m14 25c-3.242 0-5.892-2.585-5.997-5.802-1.845-1.062-3.003-3.032-3.003-5.198 0-1.801.8-3.473 2.173-4.606-.115-.464-.173-.93-.173-1.394 0-3.309 2.691-6 6-6 .477 0 .952.062 1.44.19 1.036-.771 2.28-1.19 3.56-1.19 2.231 0 4.25 1.225 5.288 3.164 1.855.409 3.437 1.686 4.208 3.433l-1.83.807c-.563-1.277-1.781-2.178-3.178-2.35-.355-.043-.661-.274-.8-.604-.627-1.488-2.074-2.45-3.688-2.45-.976 0-1.924.371-2.67 1.046-.272.245-.657.324-1.004.2-.469-.165-.903-.246-1.326-.246-2.206 0-4 1.794-4 4 0 .468.092.945.275 1.421.171.445.003.949-.4 1.204-1.174.741-1.875 2.003-1.875 3.375 0 1.605.955 3.05 2.433 3.68.396.169.64.573.604 1.003-.006.069-.015.138-.024.206-.005.037-.013.073-.013.111 0 2.206 1.794 4 4 4 .271 0 .54-.026.802-.08l.396 1.961c-.391.079-.795.119-1.198.119z"/></g><g><path d="m15.571 22.229c-2.777-1.318-4.571-4.156-4.571-7.229 0-4.411 3.589-8 8-8 2.106 0 4.095.812 5.599 2.286l-1.4 1.428c-1.128-1.106-2.619-1.714-4.199-1.714-3.309 0-6 2.691-6 6 0 2.306 1.346 4.434 3.429 5.423z"/></g><g><path d="m50 25c-.403 0-.807-.04-1.198-.119l.396-1.961c.262.054.531.08.802.08 2.206 0 4-1.794 4-4 0-.038-.008-.074-.013-.111-.009-.068-.018-.137-.024-.206-.036-.43.208-.834.604-1.003 1.478-.631 2.433-2.076 2.433-3.68 0-1.372-.701-2.634-1.875-3.375-.403-.255-.571-.758-.4-1.203.182-.478.275-.956.275-1.422 0-2.206-1.794-4-4-4-.423 0-.857.081-1.326.246-.347.123-.731.046-1.004-.2-.746-.675-1.694-1.046-2.67-1.046-1.614 0-3.061.962-3.688 2.449-.139.33-.444.562-.8.604-1.397.172-2.615 1.072-3.178 2.35l-1.83-.807c.771-1.747 2.352-3.023 4.208-3.433 1.038-1.938 3.057-3.163 5.288-3.163 1.28 0 2.524.419 3.56 1.19.488-.128.963-.19 1.44-.19 3.309 0 6 2.691 6 6 0 .463-.058.929-.173 1.393 1.373 1.134 2.173 2.806 2.173 4.607 0 2.165-1.158 4.135-3.003 5.197-.105 3.218-2.755 5.803-5.997 5.803z"/></g><g><path d="m48.429 22.229-.857-1.807c2.082-.988 3.428-3.116 3.428-5.422 0-3.309-2.691-6-6-6-1.58 0-3.071.608-4.198 1.714l-1.4-1.428c1.503-1.474 3.492-2.286 5.598-2.286 4.411 0 8 3.589 8 8 0 3.073-1.794 5.911-4.571 7.229z"/></g><g><path d="m22.2 51c-.988 0-1.968-.326-2.76-.919l-.466-.351c-1.862-1.397-2.974-3.621-2.974-5.948 0-1.348.366-2.67 1.06-3.825l2.083-3.472 1.715 1.029-2.083 3.472c-.507.844-.775 1.811-.775 2.796 0 1.701.813 3.327 2.174 4.349l.466.35c1.098.822 2.815.578 3.64-.521l1.4-1.866-2.387-2.387 1.414-1.414 3 3c.352.352.392.909.093 1.307l-1.92 2.56c-.864 1.152-2.239 1.84-3.68 1.84z"/></g><g><path d="m23.5 46.379h2v4.243h-2z" transform="matrix(.707 -.707 .707 .707 -27.119 31.529)"/></g><g><path d="m22 63c-3.379 0-6-3.763-6-7 0-3.037 2.355-5 6-5s6 1.963 6 5c0 3.237-2.621 7-6 7zm0-10c-1.203 0-4 .292-4 3 0 2.251 1.846 5 4 5s4-2.749 4-5c0-2.708-2.797-3-4-3z"/></g><g><path d="m18.5 52.919h2v3.162h-2z" transform="matrix(.949 -.316 .316 .949 -16.234 8.963)"/></g><g><path d="m22.919 53.5h3.162v2h-3.162z" transform="matrix(.316 -.949 .949 .316 -34.952 60.499)"/></g><g><path d="m16.168 56.555-.152-.229c-1.319-1.977-2.016-4.279-2.016-6.656 0-1.927.438-3.782 1.267-5.439l.839-1.678 1.789.895-.839 1.678c-.691 1.38-1.056 2.927-1.056 4.471 0 2.054.581 3.972 1.68 5.62l.152.229z"/></g><g><path d="m41.8 51c-1.44 0-2.816-.688-3.68-1.841l-1.92-2.559c-.299-.397-.259-.955.093-1.307l3-3 1.414 1.414-2.387 2.387 1.399 1.866c.824 1.099 2.541 1.345 3.641.52l.465-.349c1.362-1.022 2.175-2.648 2.175-4.349 0-.985-.268-1.952-.774-2.796l-2.083-3.472 1.715-1.029 2.083 3.472c.693 1.155 1.06 2.478 1.06 3.825 0 2.327-1.112 4.551-2.974 5.948l-.466.35c-.793.594-1.773.92-2.761.92z"/></g><g><path d="m37.379 47.5h4.243v2h-4.243z" transform="matrix(.707 -.707 .707 .707 -22.725 42.136)"/></g><g><path d="m42 63c-3.379 0-6-3.763-6-7 0-3.037 2.355-5 6-5s6 1.963 6 5c0 3.237-2.621 7-6 7zm0-10c-1.203 0-4 .292-4 3 0 2.251 1.846 5 4 5s4-2.749 4-5c0-2.708-2.797-3-4-3z"/></g><g><path d="m42.919 53.5h3.162v2h-3.162z" transform="matrix(.316 -.949 .949 .316 -21.279 79.472)"/></g><g><path d="m38.5 52.919h2v3.162h-2z" transform="matrix(.949 -.316 .316 .949 -15.207 15.288)"/></g><g><path d="m47.832 56.555-1.664-1.109.152-.229c1.099-1.649 1.68-3.567 1.68-5.547 0-1.617-.365-3.164-1.056-4.545l-.839-1.678 1.789-.895.839 1.678c.829 1.658 1.267 3.513 1.267 5.367 0 2.45-.697 4.752-2.016 6.729z"/></g><g><path d="m42 63c-1.654 0-3-1.346-3-3s1.346-3 3-3 3 1.346 3 3-1.346 3-3 3zm0-4c-.551 0-1 .448-1 1s.449 1 1 1 1-.448 1-1-.449-1-1-1z"/></g><g><path d="m22 63c-1.654 0-3-1.346-3-3s1.346-3 3-3 3 1.346 3 3-1.346 3-3 3zm0-4c-.551 0-1 .448-1 1s.449 1 1 1 1-.448 1-1-.449-1-1-1z"/></g><g><path d="m32.045 63c-2.135 0-4.175-.251-6.154-.747l-1.133-.283.484-1.939 1.134.283c3.731.933 7.69.89 11.248 0l1.134-.283.484 1.939-1.134.283c-1.979.496-4.019.747-6.063.747z"/></g></g></svg>