<svg id="Layer_3" enable-background="new 0 0 64 64" height="512" viewBox="0 0 64 64" width="512" xmlns="http://www.w3.org/2000/svg"><g><g><path d="m41 45-1.151 2.303c-1.877 3.753-4.545 7.055-7.822 9.676l-.027.021c-2.209 0-4-1.791-4-4 0-1.963.534-3.889 1.543-5.572l1.457-2.428-.139-.051c-7.043-2.561-13.042-7.377-17.065-13.699l-.796-1.25-2.042.681c-.635.211-1.299.319-1.968.319-1.89 0-3.678-.859-4.858-2.335l-2.132-2.665h2.172c1.811 0 3.547-.719 4.828-2 1.281-1.281 2-3.017 2-4.828v-3.172l.899.899c2.626 2.626 4.101 6.187 4.101 9.9v.201h2.079c4.584 0 9.137-.739 13.486-2.188 5.563-1.854 10.684-4.836 15.043-8.759l1.11-.999c1.469-1.322 3.376-2.054 5.352-2.054h.616c2.122 0 4.157.843 5.657 2.343l.314.314c1.5 1.5 2.343 3.535 2.343 5.657v3.073c0 3.034-.706 6.026-2.063 8.739-2.503 5.007-7.034 8.7-12.443 10.142l-.796.212c-1.818.485-3.662.854-5.522 1.108z" fill="#8892a0"/></g><g><path d="m51 21.5c0-2.509-.921-4.886-2.561-7.016-.249.177-.492.363-.721.57l-1.11.999c-4.359 3.923-9.48 6.905-15.043 8.759-4.348 1.449-8.902 2.188-13.486 2.188h-2.079v-.201c0-3.713-1.475-7.274-4.101-9.899l-.899-.9v3.172c0 1.811-.719 3.548-2 4.828s-3.017 2-4.828 2h-2.172l2.132 2.665c1.181 1.476 2.968 2.335 4.858 2.335.669 0 1.333-.108 1.967-.319l2.043-.681.796 1.25c1.52 2.389 3.325 4.561 5.359 6.48 1.572.174 3.19.27 4.845.27 14.912 0 27-7.387 27-16.5z" fill="#a8b0bc"/></g><g><path d="m54 40 .793 1.982c.797 1.994 1.207 4.121 1.207 6.269 0 1.141-.338 2.256-.97 3.205-.644.964-1.727 1.544-2.886 1.544-1.314 0-2.515-.742-3.102-1.917l-.023-.046c-.676-1.351-1.168-2.787-1.465-4.269l-.554-2.768" fill="#8892a0"/></g><g><path d="m41.176 44.588c1.86-.253 3.704-.623 5.522-1.108l.796-.212c5.409-1.442 9.94-5.135 12.443-10.142 1.264-2.528 1.956-5.299 2.045-8.12l-5.401 1.8c-2.321.774-4.317 2.299-5.674 4.334l-.093.139c-1.184 1.776-2.858 3.168-4.819 4.009l-.291.125c-2.391 1.025-4.342 2.864-5.506 5.191l-2.198 4.396" fill="#ebf7fe"/></g><g><path d="m41 15v-5c0-1.657 1.343-3 3-3 1.215 0 2.176 1.083 1.973 2.336-.16.983-1.084 1.664-2.08 1.664-1.598 0-2.893 1.295-2.893 2.893z" fill="#a1cdfb"/></g><g><path d="m37 15v-5c0-1.657-1.343-3-3-3-1.215 0-2.176 1.083-1.973 2.336.16.983 1.083 1.664 2.08 1.664 1.598 0 2.893 1.295 2.893 2.893z" fill="#a1cdfb"/></g><g><path d="m32 58c-2.757 0-5-2.243-5-5 0-2.146.583-4.25 1.687-6.087l.841-1.402c-6.789-2.708-12.647-7.55-16.575-13.724l-.376-.592-1.302.434c-.737.246-1.505.371-2.285.371-2.206 0-4.261-.988-5.64-2.71l-2.132-2.665c-.24-.301-.286-.712-.12-1.059.168-.345.517-.566.902-.566h2.172c1.534 0 3.036-.622 4.121-1.707s1.707-2.587 1.707-4.121v-3.172c0-.404.243-.77.617-.924.375-.155.804-.069 1.09.217l.899.899c2.645 2.644 4.18 6.102 4.373 9.808h1.1c4.483 0 8.915-.719 13.17-2.137 5.467-1.822 10.409-4.7 14.69-8.554l1.109-.999c1.657-1.49 3.796-2.31 6.022-2.31h.616c2.404 0 4.664.936 6.363 2.636l.314.314c1.7 1.699 2.636 3.959 2.636 6.363v3.073c0 3.174-.75 6.351-2.169 9.187-2.63 5.261-7.396 9.146-13.079 10.661l-.797.213c-1.676.446-3.374.798-5.087 1.053l-1.125 2.25c-1.928 3.855-4.726 7.316-8.092 10.01-.176.141-.422.24-.65.24zm-19-29c.335 0 .656.169.844.463l.796 1.25c3.883 6.103 9.765 10.825 16.562 13.297l.14.051c.28.102.501.324.601.605s.068.593-.085.849l-1.456 2.428c-.918 1.526-1.402 3.275-1.402 5.057 0 1.542 1.169 2.815 2.668 2.981 3.04-2.502 5.544-5.642 7.286-9.126l.532-1.065c-1.455.14-2.919.21-4.382.21h-.104v-2h.104c3.825 0 7.64-.5 11.337-1.485l.797-.213c5.128-1.367 9.431-4.875 11.805-9.623 1.28-2.56 1.957-5.427 1.957-8.292v-3.073c0-1.869-.728-3.627-2.05-4.949l-.314-.314c-1.322-1.322-3.08-2.05-4.949-2.05h-.617c-1.732 0-3.396.639-4.684 1.797l-1.109.999c-4.487 4.039-9.667 7.055-15.396 8.964-4.459 1.485-9.103 2.239-13.802 2.239h-2.079c-.553 0-1-.447-1-1v-.201c0-3.07-1.058-5.979-3-8.309v.682c0 2.061-.836 4.078-2.293 5.535s-3.475 2.293-5.535 2.293h-.092l.833 1.04c.996 1.246 2.483 1.96 4.077 1.96.563 0 1.119-.09 1.651-.268l2.042-.681c.105-.034.212-.051.317-.051z"/></g><g><path d="m38.895 45.447-1.789-.895 2.198-4.396c1.268-2.535 3.4-4.546 6.006-5.662l.29-.125c1.788-.767 3.303-2.026 4.382-3.645l.094-.14c1.473-2.209 3.671-3.888 6.188-4.727l5.42-1.807.633 1.896-5.42 1.807c-2.099.7-3.93 2.099-5.158 3.94l-.094.14c-1.294 1.94-3.111 3.453-5.257 4.372l-.29.125c-2.172.931-3.948 2.606-5.005 4.719z"/></g><g><path d="m52.144 54c-1.703 0-3.234-.946-3.997-2.47-.738-1.479-1.261-3-1.573-4.566l-.554-2.768 1.961-.393.554 2.768c.278 1.393.742 2.744 1.379 4.018.442.889 1.288 1.411 2.23 1.411.827 0 1.595-.411 2.054-1.1.525-.787.802-1.703.802-2.649 0-2.028-.382-4.013-1.136-5.898l-.793-1.981 1.857-.742.793 1.981c.849 2.122 1.279 4.357 1.279 6.64 0 1.343-.394 2.643-1.139 3.759-.83 1.246-2.219 1.99-3.717 1.99z"/></g><g><path d="m44.5 28c-.827 0-1.5-.673-1.5-1.5s.673-1.5 1.5-1.5 1.5.673 1.5 1.5-.673 1.5-1.5 1.5z"/></g><g><path d="m41 16c-.553 0-1-.447-1-1v-5c0-2.206 1.794-4 4-4 .882 0 1.715.386 2.286 1.058s.816 1.561.674 2.439c-.232 1.427-1.552 2.503-3.067 2.503-1.044 0-1.893.849-1.893 1.893v1.107c0 .553-.447 1-1 1zm3-8c-1.103 0-2 .897-2 2v.492c.561-.313 1.206-.492 1.893-.492.538 0 1.018-.362 1.093-.825.05-.303-.029-.595-.223-.822-.191-.224-.469-.353-.763-.353z"/></g><g><path d="m37 16c-.553 0-1-.447-1-1v-1.107c0-1.044-.849-1.893-1.893-1.893-1.516 0-2.835-1.076-3.067-2.503-.143-.879.103-1.768.674-2.439s1.404-1.058 2.286-1.058c2.206 0 4 1.794 4 4v5c0 .553-.447 1-1 1zm-3-8c-.294 0-.572.129-.763.353-.193.228-.272.52-.223.822.076.463.555.825 1.093.825.687 0 1.332.179 1.893.492v-.492c0-1.103-.897-2-2-2z"/></g><g><path d="m36 17h2v2h-2z"/></g></g></svg>