<?xml version="1.0" encoding="iso-8859-1"?>
<!-- Generator: Adobe Illustrator 19.0.0, SVG Export Plug-In . SVG Version: 6.00 Build 0)  -->
<svg version="1.1" id="Capa_1" xmlns="http://www.w3.org/2000/svg" xmlns:xlink="http://www.w3.org/1999/xlink" x="0px" y="0px"
	 viewBox="0 0 512 512" style="enable-background:new 0 0 512 512;" xml:space="preserve">
<path style="fill:#FBAB5F;" d="M145.871,504.5h-27.816c-4.473,0-8.1-3.626-8.1-8.1v-21.291c0-34.565,19.059-65.927,49.741-81.846
	l16.541,31.88c-18.731,9.719-30.366,28.865-30.366,49.966V504.5z"/>
<path style="opacity:0.15;enable-background:new    ;" d="M145.871,504.5h-27.816c-4.473,0-8.1-3.626-8.1-8.1v-21.291
	c0-34.565,19.059-65.927,49.741-81.846l16.541,31.88c-18.731,9.719-30.366,28.865-30.366,49.966V504.5z"/>
<path style="fill:#FBAB5F;" d="M366.129,504.5h27.816c4.473,0,8.1-3.626,8.1-8.1v-21.291c0-34.565-19.06-65.927-49.741-81.846
	l-16.541,31.88c18.731,9.719,30.366,28.865,30.366,49.966V504.5z"/>
<path style="opacity:0.15;enable-background:new    ;" d="M366.129,504.5h27.816c4.473,0,8.1-3.626,8.1-8.1v-21.291
	c0-34.565-19.06-65.927-49.741-81.846l-16.541,31.88c18.731,9.719,30.366,28.865,30.366,49.966V504.5z"/>
<path style="fill:#FBAB5F;" d="M256,320.477L256,320.477c-60.949,0-110.359,49.409-110.359,110.358V504.5h220.717v-73.665
	C366.359,369.886,316.949,320.477,256,320.477z"/>
<path style="opacity:0.15;enable-background:new    ;" d="M298.824,326.112l-30.98,61.054c-4.92,9.696-18.77,9.696-23.689,0
	l-30.98-61.054H298.824z"/>
<path style="opacity:0.1;enable-background:new    ;" d="M256,320.476L256,320.476c-30.252,0-57.656,12.176-77.591,31.889
	c23.352,11.687,49.7,18.275,77.591,18.275s54.239-6.587,77.591-18.275C313.656,332.652,286.251,320.476,256,320.476z"/>
<g>
	<circle style="fill:#E6B292;" cx="82.39" cy="181.34" r="30.617"/>
	<circle style="fill:#E6B292;" cx="429.609" cy="181.34" r="30.617"/>
	<circle style="fill:#E6B292;" cx="256" cy="181.11" r="173.61"/>
</g>
<g>
	<path style="opacity:0.2;fill:#513130;enable-background:new    ;" d="M429.609,181.11C429.609,85.228,351.882,7.5,256,7.5
		S82.39,85.228,82.39,181.11h21.862c8.883,0,16.328-6.658,17.374-15.48c2.354-19.848,10.309-54.287,37.035-76
		c2.381-1.934,5.722-2.116,8.315-0.478c24.152,15.259,55.178,24.437,89.025,24.437s64.873-9.178,89.025-24.437
		c2.593-1.638,5.934-1.456,8.315,0.478c26.725,21.714,34.681,56.153,37.035,76c1.046,8.821,8.491,15.48,17.374,15.48H429.609z"/>
	<path style="opacity:0.1;fill:#513130;enable-background:new    ;" d="M281.729,332.804c-95.882,0-173.61-77.728-173.61-173.61
		c0-46.864,18.575-89.383,48.756-120.617C111.856,69.944,82.39,122.082,82.39,181.11c0,95.882,77.728,173.61,173.61,173.61
		c49.019,0,93.285-20.322,124.854-52.993C352.747,321.311,318.582,332.804,281.729,332.804z"/>
</g>
<rect x="145.64" y="453.31" style="opacity:0.3;fill:#FFFFFF;enable-background:new    ;" width="220.72" height="51.19"/>
<path d="M433.148,143.391C415.745,61.571,342.932,0,256,0S96.255,61.571,78.852,143.391c-19.364,1.792-34.579,18.123-34.579,37.947
	c0,19.859,15.268,36.211,34.68,37.955c11.807,54.801,48.479,100.459,97.584,124.537c-15.005,13.747-26.15,31.132-32.459,50.248
	c-26.108,18.661-41.623,48.759-41.623,81.032v21.29c0,8.602,6.998,15.6,15.6,15.6h183.627c4.143,0,7.5-3.357,7.5-7.5
	s-3.357-7.5-7.5-7.5h-148.54v-66.165c0-31.184,14.395-60.924,38.688-80.37c9.502,3.613,19.383,6.446,29.568,8.425l16.07,31.669
	c3.562,7.018,10.663,11.379,18.533,11.379s14.972-4.36,18.533-11.379l16.069-31.669c10.184-1.979,20.066-4.812,29.568-8.425
	c24.293,19.445,38.688,49.185,38.688,80.37V497h-18.726c-4.143,0-7.5,3.357-7.5,7.5s3.357,7.5,7.5,7.5h53.813
	c8.602,0,15.6-6.998,15.6-15.6v-21.291c0-32.273-15.515-62.371-41.623-81.032c-6.309-19.116-17.454-36.502-32.459-50.248
	c49.105-24.078,85.777-69.736,97.584-124.537c19.412-1.744,34.68-18.096,34.68-37.955
	C467.728,161.514,452.513,145.182,433.148,143.391z M59.272,181.338c0-10.616,7.195-19.577,16.962-22.279
	c-0.882,7.23-1.345,14.587-1.345,22.051c0,7.625,0.479,15.141,1.399,22.522C66.493,200.948,59.272,191.973,59.272,181.338z
	 M138.142,430.835V497h-20.087c-0.331,0-0.6-0.269-0.6-0.6v-21.291c0-21.002,7.731-40.917,21.313-56.212
	C138.361,422.848,138.142,426.83,138.142,430.835z M394.545,475.109V496.4c0,0.331-0.268,0.6-0.6,0.6h-20.087v-66.165
	c0-4.005-0.22-7.987-0.626-11.937C386.814,434.193,394.545,454.108,394.545,475.109z M261.156,383.772
	c-1.449,2.857-4.089,3.166-5.156,3.166c-1.067,0-3.707-0.309-5.156-3.166l-11.32-22.309c5.429,0.492,10.922,0.757,16.476,0.757
	s11.048-0.265,16.476-0.757L261.156,383.772z M215.116,116.646c13.228,2.948,26.982,4.442,40.884,4.442
	c33.775,0,66.729-9.042,92.823-25.465c24.755,20.268,31.993,53.095,34.104,70.891c1.494,12.597,12.165,22.096,24.821,22.096h14.185
	c-3.936,88.126-76.854,158.61-165.933,158.61S94.003,276.736,90.067,188.61h14.185c12.656,0,23.327-9.499,24.822-22.097
	c2.11-17.796,9.346-50.624,34.103-70.89c5.559,3.499,11.499,6.708,17.655,9.541c3.763,1.729,8.217,0.083,9.948-3.679
	c1.731-3.763,0.084-8.217-3.679-9.948c-5.635-2.593-11.059-5.528-16.12-8.726c-5.322-3.365-12.175-2.963-17.051,0.996
	c-29.034,23.59-37.369,60.837-39.752,80.938c-0.601,5.053-4.867,8.863-9.927,8.863H90.067C94.003,85.485,166.92,15,256,15
	s161.997,70.485,165.933,158.61h-14.185c-5.059,0-9.326-3.811-9.926-8.862c-2.384-20.103-10.719-57.35-39.754-80.94
	c-4.876-3.959-11.729-4.358-17.049-0.996c-23.759,15.011-53.953,23.277-85.02,23.277c-12.806,0-25.463-1.374-37.622-4.083
	c-4.042-0.907-8.051,1.646-8.951,5.689C208.525,111.738,211.073,115.746,215.116,116.646z M435.711,203.632
	c0.919-7.381,1.399-14.896,1.399-22.522c0-7.464-0.463-14.821-1.345-22.051c9.768,2.702,16.962,11.663,16.962,22.279
	C452.728,191.973,445.507,200.948,435.711,203.632z M344.033,188.838c4.143,0,7.5-3.357,7.5-7.5v-17.296c0-4.143-3.357-7.5-7.5-7.5
	s-7.5,3.357-7.5,7.5v17.296C336.533,185.48,339.891,188.838,344.033,188.838z M256,236.54c8.998,0,17.692-3.771,23.853-10.347
	c2.832-3.023,2.678-7.769-0.345-10.601c-3.022-2.834-7.77-2.679-10.601,0.345c-3.386,3.612-7.97,5.602-12.908,5.602
	s-9.523-1.989-12.907-5.602c-2.832-3.023-7.578-3.179-10.602-0.346c-3.022,2.832-3.178,7.579-0.346,10.602
	C238.307,232.769,247.001,236.54,256,236.54z M167.967,156.542c-4.143,0-7.5,3.357-7.5,7.5v17.296c0,4.143,3.357,7.5,7.5,7.5
	s7.5-3.357,7.5-7.5v-17.296C175.467,159.899,172.109,156.542,167.967,156.542z"/>
<g>
</g>
<g>
</g>
<g>
</g>
<g>
</g>
<g>
</g>
<g>
</g>
<g>
</g>
<g>
</g>
<g>
</g>
<g>
</g>
<g>
</g>
<g>
</g>
<g>
</g>
<g>
</g>
<g>
</g>
</svg>
