<svg id="Layer_3" enable-background="new 0 0 64 64" height="512" viewBox="0 0 64 64" width="512" xmlns="http://www.w3.org/2000/svg"><g><g><path d="m59 56-.154-.462c-1.885-5.655-2.846-11.577-2.846-17.538 0-5.961.961-11.883 2.846-17.538l.154-.462-6.453 7.626c-2.936 3.47-4.547 7.868-4.547 12.414 0 5.097 2.025 9.985 5.629 13.589l3.371 3.371" fill="#c7e2fc"/></g><g><path d="m5 56 .154-.462c1.885-5.655 2.846-11.577 2.846-17.538 0-5.961-.961-11.883-2.846-17.538l-.154-.462 6.453 7.626c2.936 3.47 4.547 7.868 4.547 12.414 0 5.097-2.025 9.985-5.629 13.589l-3.371 3.371" fill="#c7e2fc"/></g><g><path d="m39 21 1.067.8c1.904 1.428 4.22 2.2 6.6 2.2h.181c3.265 0 6.361-1.45 8.45-3.958l1.702-2.042 2 2-6.453 7.626c-2.936 3.47-4.547 7.868-4.547 12.414 0 5.097 2.025 9.985 5.629 13.589l3.371 3.371-1 2-4.809-2.061c-6.064-2.599-12.593-3.939-19.191-3.939-6.598 0-13.127 1.34-19.191 3.939l-4.809 2.061-1-2 3.371-3.371c3.604-3.604 5.629-8.492 5.629-13.589 0-4.545-1.611-8.944-4.547-12.414l-6.453-7.626 2-2 1.702 2.042c2.09 2.508 5.186 3.958 8.45 3.958h.181c2.38 0 4.696-.772 6.6-2.2l1.067-.8" fill="#8892a0"/></g><g><path d="m22.731 45c14.391 0 26.311-9.496 28.404-21.886-1.342.569-2.794.886-4.287.886h-.181c-2.38 0-4.696-.772-6.6-2.2l-1.067-.8h-14l-1.067.8c-1.904 1.428-4.22 2.2-6.6 2.2h-.181c-3.265 0-6.36-1.45-8.45-3.958l-1.702-2.042-2 2 6.453 7.626c2.936 3.47 4.547 7.868 4.547 12.414 0 1.406-.169 2.792-.467 4.144 2.3.532 4.712.816 7.198.816z" fill="#c1c8d1"/></g><g><path d="m42 35v-12.049c-.677-.318-1.328-.697-1.933-1.151l-1.067-.8h-14l-1.067.8c-.605.454-1.256.834-1.933 1.151v12.049c0 5.523 4.477 10 10 10s10-4.477 10-10z" fill="#ebf7fe"/></g><g><circle cx="32" cy="14" fill="#ebf7fe" r="10"/></g><g><path d="m26 6c-2.451 0-4.693-1.385-5.789-3.578l-.211-.422h-2c-1.657 0-3 1.343-3 3 0 3.314 2.686 6 6 6h2" fill="#8892a0"/></g><g><path d="m38 6c2.451 0 4.693-1.385 5.789-3.578l.211-.422h2c1.657 0 3 1.343 3 3 0 3.314-2.686 6-6 6h-2" fill="#8892a0"/></g><g><path d="m29 5 1.725 6.038c.163.57.683.962 1.275.962.592 0 1.112-.392 1.275-.962l1.725-6.038" fill="#8892a0"/></g><g><circle cx="5" cy="17" fill="#4d5d7a" r="3"/></g><g><circle cx="5" cy="59" fill="#4d5d7a" r="3"/></g><g><circle cx="59" cy="17" fill="#4d5d7a" r="3"/></g><g><circle cx="59" cy="59" fill="#4d5d7a" r="3"/></g><g><circle cx="27" cy="14" fill="#8892a0" r="2"/></g><g><circle cx="37" cy="14" fill="#8892a0" r="2"/></g><g><ellipse cx="32" cy="21" fill="#e47c6e" rx="4" ry="3"/></g><g><path d="m23 12h-2c-3.859 0-7-3.14-7-7 0-2.206 1.794-4 4-4h2c.379 0 .726.214.895.553l.211.422c.933 1.866 2.808 3.025 4.894 3.025v2c-2.799 0-5.321-1.529-6.616-4h-1.384c-1.103 0-2 .897-2 2 0 2.757 2.243 5 5 5h2z"/></g><g><path d="m43 12h-2v-2h2c2.757 0 5-2.243 5-5 0-1.103-.897-2-2-2h-1.384c-1.296 2.472-3.817 4-6.616 4v-2c2.086 0 3.961-1.159 4.895-3.025l.211-.422c.168-.339.515-.553.894-.553h2c2.206 0 4 1.794 4 4 0 3.86-3.141 7-7 7z"/></g><g><path d="m24 9h-1.838c-2.322 0-4.376-1.48-5.11-3.684l1.896-.633c.463 1.386 1.754 2.317 3.214 2.317h1.838z"/></g><g><path d="m41.838 9h-1.838v-2h1.838c1.46 0 2.751-.931 3.214-2.316l1.896.633c-.734 2.203-2.788 3.683-5.11 3.683z"/></g><g><path d="m32 13c-1.033 0-1.953-.694-2.236-1.688l-1.726-6.038 1.924-.55 1.726 6.039c.078.279.547.278.625.001l1.726-6.04 1.924.55-1.726 6.039c-.284.993-1.204 1.687-2.237 1.687z"/></g><g><path d="m27 17c-1.654 0-3-1.346-3-3s1.346-3 3-3 3 1.346 3 3-1.346 3-3 3zm0-4c-.552 0-1 .449-1 1s.448 1 1 1 1-.449 1-1-.448-1-1-1z"/></g><g><path d="m37 17c-1.654 0-3-1.346-3-3s1.346-3 3-3 3 1.346 3 3-1.346 3-3 3zm0-4c-.552 0-1 .449-1 1s.448 1 1 1 1-.449 1-1-.448-1-1-1z"/></g><g><path d="m32 25c-6.065 0-11-4.935-11-11s4.935-11 11-11 11 4.935 11 11-4.935 11-11 11zm0-20c-4.963 0-9 4.038-9 9s4.037 9 9 9 9-4.038 9-9-4.037-9-9-9z"/></g><g><path d="m32 25c-2.757 0-5-1.794-5-4s2.243-4 5-4 5 1.794 5 4-2.243 4-5 4zm0-6c-1.626 0-3 .916-3 2s1.374 2 3 2 3-.916 3-2-1.374-2-3-2z"/></g><g><path d="m17.333 25h-.181c-3.571 0-6.932-1.574-9.219-4.318l-1.702-2.042 1.537-1.28 1.702 2.042c1.906 2.286 4.706 3.598 7.682 3.598h.181c2.149 0 4.281-.71 6.001-2l1.066-.8 1.199 1.6-1.066.8c-2.063 1.547-4.62 2.4-7.2 2.4z"/></g><g><path d="m5 21c-2.206 0-4-1.794-4-4s1.794-4 4-4 4 1.794 4 4-1.794 4-4 4zm0-6c-1.103 0-2 .897-2 2s.897 2 2 2 2-.897 2-2-.897-2-2-2z"/></g><g><path d="m5 63c-2.206 0-4-1.794-4-4s1.794-4 4-4 4 1.794 4 4-1.794 4-4 4zm0-6c-1.103 0-2 .897-2 2s.897 2 2 2 2-.897 2-2-.897-2-2-2z"/></g><g><path d="m7.707 57.707-1.414-1.414 3.371-3.371c3.44-3.441 5.336-8.016 5.336-12.882 0-4.303-1.53-8.482-4.311-11.768l-6.453-7.626 1.527-1.292 6.453 7.626c3.085 3.646 4.784 8.284 4.784 13.06 0 5.401-2.104 10.478-5.922 14.296z"/></g><g><path d="m46.848 25h-.181c-2.58 0-5.137-.853-7.2-2.4l-1.067-.8 1.199-1.6 1.066.8c1.72 1.29 3.852 2 6.001 2h.181c2.977 0 5.776-1.312 7.682-3.598l1.702-2.042 1.537 1.28-1.702 2.042c-2.287 2.744-5.647 4.318-9.218 4.318z"/></g><g><path d="m59 21c-2.206 0-4-1.794-4-4s1.794-4 4-4 4 1.794 4 4-1.794 4-4 4zm0-6c-1.103 0-2 .897-2 2s.897 2 2 2 2-.897 2-2-.897-2-2-2z"/></g><g><path d="m59 63c-2.206 0-4-1.794-4-4s1.794-4 4-4 4 1.794 4 4-1.794 4-4 4zm0-6c-1.103 0-2 .897-2 2s.897 2 2 2 2-.897 2-2-.897-2-2-2z"/></g><g><path d="m56.293 57.707-3.371-3.371c-3.818-3.818-5.922-8.896-5.922-14.296 0-4.775 1.699-9.414 4.783-13.06l6.453-7.626 1.527 1.292-6.453 7.626c-2.78 3.285-4.31 7.464-4.31 11.768 0 4.867 1.896 9.442 5.336 12.882l3.371 3.371z"/></g><g><path d="m55.606 59.919-4.809-2.061c-5.974-2.56-12.298-3.858-18.797-3.858s-12.823 1.298-18.798 3.858l-4.809 2.061-.787-1.838 4.809-2.061c6.225-2.667 12.814-4.02 19.585-4.02s13.36 1.353 19.585 4.02l4.809 2.061z"/></g><g><path d="m5.948 56.317-1.896-.634.154-.462c1.854-5.563 2.794-11.357 2.794-17.221s-.94-11.658-2.794-17.222l-.154-.461 1.896-.634.154.462c1.923 5.769 2.898 11.776 2.898 17.855s-.975 12.086-2.897 17.854z"/></g><g><path d="m58.052 56.317-.154-.462c-1.923-5.769-2.898-11.776-2.898-17.855s.975-12.086 2.897-17.854l.154-.462 1.896.634-.154.462c-1.853 5.562-2.793 11.356-2.793 17.22s.94 11.658 2.794 17.222l.154.461z"/></g><g><path d="m32 46c-6.065 0-11-4.935-11-11v-12h2v12c0 4.962 4.037 9 9 9s9-4.038 9-9v-12h2v12c0 6.065-4.935 11-11 11z"/></g></g></svg>