<svg id="Layer_3" enable-background="new 0 0 64 64" height="512" viewBox="0 0 64 64" width="512" xmlns="http://www.w3.org/2000/svg"><g><g><path d="m26 44.695c-5.887-1.798-11.15-5.39-14.991-10.383l-1.009-1.312h-2l-6 8 1.524-6.856c.316-1.425.476-2.88.476-4.34 0-1.2-.108-2.398-.323-3.579l-1.677-9.225 7 9h13c2.761 0 5-2.239 5-5l-2-7c6.614.601 12.159 5.249 13.906 11.656l.094.344h20.048c1.63 0 2.952 1.322 2.952 2.952 0 .678-.233 1.335-.661 1.861l-3.351 4.124c-5.633 6.934-14.064 10.986-22.988 11.062" fill="#2d4d83"/></g><g><path d="m20.5 32c10.538 0 19.966-2.331 26.294-6h-7.794l-.094-.344c-1.747-6.407-7.292-11.055-13.906-11.656l2 7c0 2.761-2.239 5-5 5h-13l-7-9 1.677 9.225c.215 1.181.323 2.379.323 3.579 0 .043-.003.085-.003.128 4.902 1.318 10.524 2.068 16.503 2.068z" fill="#4472b2"/></g><g><path d="m53.236 37c-1.471 0-2.921.342-4.236 1s-2.766 1-4.236 1h-1.14c-1.717 0-3.401-.467-4.873-1.35l-.5-.3c-1.473-.883-3.158-1.35-4.875-1.35h-.753c-1.717 0-3.401.467-4.873 1.35l-.5.3c-1.472.883-3.157 1.35-4.874 1.35h-.508c-1.87 0-3.698-.554-5.254-1.591l-6.614-4.409 1.009 1.312c3.84 4.992 9.104 8.585 14.991 10.383l9 1.304c7.995-.068 15.588-3.335 21.134-8.999z" fill="#ebf7fe"/></g><g><path d="m22 50 7.051-8.814c.6-.75 1.508-1.186 2.467-1.186h.525c.624 0 1.234.185 1.753.531l.797.531c.879.586 1.407 1.573 1.407 2.629 0 .838-.333 1.642-.926 2.234l-.267.267c-2.437 2.438-5.744 3.808-9.192 3.808z" fill="#4472b2"/></g><g><path d="m46 43 4 5h-1.858c-2.652 0-5.196-1.054-7.071-2.929l-.071-.071" fill="#4472b2"/></g><g><path d="m35.009 46.999-.018-2c8.661-.073 16.76-3.971 22.221-10.692l3.351-4.124c.282-.347.437-.784.437-1.231 0-1.077-.876-1.952-1.952-1.952h-20.048c-.451 0-.846-.302-.965-.737l-.094-.344c-1.497-5.491-6.043-9.644-11.557-10.714l1.577 5.52c.026.089.039.182.039.275 0 3.309-2.691 6-6 6h-13c-.309 0-.6-.143-.789-.386l-4.498-5.782.948 5.215c.225 1.239.339 2.503.339 3.757 0 1.528-.168 3.062-.5 4.557l-.519 2.331 3.219-4.292c.189-.252.486-.4.8-.4h2c.311 0 .604.144.793.391l1.009 1.312c3.69 4.797 8.701 8.267 14.49 10.036l-.584 1.913c-6.189-1.891-11.546-5.601-15.492-10.729l-.708-.923h-1.008l-5.7 7.6c-.282.378-.791.503-1.218.309-.428-.197-.66-.666-.559-1.125l1.523-6.856c.302-1.354.454-2.741.454-4.124 0-1.134-.104-2.278-.307-3.4l-1.677-9.225c-.083-.453.155-.904.575-1.092.42-.186.914-.065 1.197.299l6.701 8.614h12.511c2.161 0 3.928-1.723 3.998-3.868l-1.96-6.857c-.09-.317-.019-.659.191-.913.211-.254.538-.383.861-.358 6.858.623 12.702 5.423 14.669 11.996h19.289c2.18 0 3.952 1.773 3.952 3.952 0 .905-.314 1.79-.885 2.492l-3.351 4.124c-5.838 7.186-14.496 11.352-23.755 11.431z"/></g><g><path d="m25.615 51h-3.615c-.385 0-.734-.22-.901-.567-.166-.346-.12-.758.12-1.058l7.051-8.814c.795-.992 1.979-1.561 3.249-1.561h.524c.825 0 1.623.242 2.309.699l.796.531c1.16.773 1.852 2.067 1.852 3.461 0 1.112-.433 2.156-1.219 2.942l-.266.266c-2.644 2.645-6.16 4.101-9.9 4.101zm-1.535-2h1.535c3.206 0 6.219-1.248 8.485-3.515l.266-.267c.409-.408.634-.95.634-1.527 0-.724-.359-1.396-.962-1.797l-.797-.531c-.355-.238-.769-.363-1.198-.363h-.524c-.659 0-1.274.296-1.688.812z"/></g><g><path d="m50 49h-1.857c-2.938 0-5.701-1.144-7.778-3.222l-.071-.071 1.414-1.414.071.071c1.646 1.646 3.819 2.576 6.139 2.633l-2.698-3.373 1.562-1.249 4 5c.24.3.286.711.12 1.058-.168.347-.517.567-.902.567z"/></g><g><path d="m44.764 40h-1.14c-1.896 0-3.76-.516-5.388-1.492l-.502-.302c-1.316-.789-2.823-1.206-4.358-1.206h-.752c-1.535 0-3.042.417-4.36 1.208l-.498.3c-1.63.976-3.494 1.492-5.39 1.492h-.508c-2.073 0-4.083-.608-5.81-1.759l-6.613-4.409 1.109-1.664 6.613 4.409c1.398.931 3.023 1.423 4.701 1.423h.508c1.535 0 3.042-.417 4.36-1.208l.498-.3c1.63-.977 3.493-1.493 5.39-1.493h.752c1.896 0 3.76.516 5.388 1.492l.502.302c1.316.79 2.823 1.207 4.358 1.207h1.14c1.309 0 2.619-.309 3.789-.895 1.446-.723 3.066-1.105 4.683-1.105h2.764v2h-2.764c-1.309 0-2.619.309-3.789.895-1.446.723-3.066 1.105-4.683 1.105z"/></g><g><path d="m52 37c-.334 0-.646-.167-.832-.445l-1.703-2.555h-2.465v-2h3c.334 0 .646.167.832.445l1.217 1.826c1.315-1.438 3.179-2.271 5.162-2.271h1.789v2h-1.789c-1.675 0-3.23.833-4.16 2.227l-.219.328c-.186.278-.498.445-.832.445z"/></g><g><path d="m52 30h-2c0-.551-.448-1-1-1s-1 .449-1 1h-2c0-1.654 1.346-3 3-3s3 1.346 3 3z"/></g><g><path d="m40.5 28.585h2v5.831h-2z" transform="matrix(.858 -.515 .515 .858 -10.293 25.841)"/></g><g><path d="m36.5 28.585h2v5.831h-2z" transform="matrix(.858 -.515 .515 .858 -10.863 23.783)"/></g></g></svg>