<svg id="Layer_3" enable-background="new 0 0 64 64" height="512" viewBox="0 0 64 64" width="512" xmlns="http://www.w3.org/2000/svg"><g><g><path d="m54.612 33.447-1.612-6.447-17-1-3.219 2.299c-2.459 1.757-5.406 2.701-8.428 2.701-1.559 0-3.107.251-4.585.744l-2.543.848c-4.596 1.532-8.317 4.955-10.225 9.408-2.907.581-5 3.134-5 6.099 0 4.916 3.985 8.901 8.901 8.901h2.978c1.171 0 2.121-.95 2.121-2.121 0-.563-.224-1.102-.621-1.5l-2.55-2.55c-.53-.53-.828-1.25-.828-2-.001-1.563 1.265-2.829 2.827-2.829h.843c.218 0 .435.025.648.075l7.92 1.863c1.156.272 2.318.509 3.484.728-.762.841-1.703 1.525-2.792 1.961-.618.247-1.201.575-1.733.974l-2.398 1.799c-.504.378-.8.97-.8 1.6 0 1.105.895 2 2 2h4c5.221 0 9.766-2.864 12.173-7.101 1.274.063 2.55.101 3.827.101 7.18 0 13-5.82 13-13v-.4c0-1.063-.13-2.121-.388-3.153z" fill="#8892a0"/></g><g><path d="m61.2 53.4-2.398-1.798c-.532-.399-1.115-.727-1.733-.974-2.411-.964-4.153-3.092-4.633-5.628v-.272c-2.016 2.718-5.06 4.615-8.563 5.122v.15c2.421 4.185 6.945 7 12.127 7h4c1.105 0 2-.895 2-2 0-.63-.296-1.222-.8-1.6z" fill="#8892a0"/></g><g><path d="m8.499 36.123c-1.58-1.974-3.971-3.123-6.499-3.123v1.615c0 3.252 1.98 6.177 5 7.385.685-1.598 1.611-3.057 2.72-4.35z" fill="#8892a0"/></g><g><circle cx="45" cy="19" fill="#8892a0" r="12"/></g><g><circle cx="40" cy="23" fill="#c7e2fc" r="5"/></g><g><circle cx="50" cy="23" fill="#c7e2fc" r="5"/></g><g><path d="m43 18c0 1.105.895 3 2 3s2-1.895 2-3-.895-1-2-1-2-.105-2 1z" fill="#e0747c"/></g><g><path d="m45 32c-7.168 0-13-5.832-13-13s5.832-13 13-13 13 5.832 13 13-5.832 13-13 13zm0-24c-6.065 0-11 4.935-11 11s4.935 11 11 11 11-4.935 11-11-4.935-11-11-11z"/></g><g><path d="m52 15h-2c0-.552-.449-1-1-1s-1 .448-1 1h-2c0-1.654 1.346-3 3-3s3 1.346 3 3z"/></g><g><path d="m44 15h-2c0-.552-.449-1-1-1s-1 .448-1 1h-2c0-1.654 1.346-3 3-3s3 1.346 3 3z"/></g><g><path d="m45 22c-1.804 0-3-2.407-3-4 0-.596.179-1.076.531-1.426.593-.589 1.414-.588 2.212-.575l.257.001.256-.001c.794-.009 1.62-.014 2.212.575.353.35.532.83.532 1.426 0 1.593-1.196 4-3 4zm-1-3.982c.009.818.682 1.939 1.003 1.982.315-.043.988-1.164.997-1.982-.189-.023-.504-.021-.728-.019l-.272.001-.272-.001c-.225-.003-.54-.005-.728.019z"/></g><g><path d="m50 29c-3.309 0-6-2.691-6-6h2c0 2.206 1.794 4 4 4s4-1.794 4-4-1.794-4-4-4c-.874 0-1.704.276-2.4.8l-1.201-1.6c1.045-.785 2.29-1.2 3.601-1.2 3.309 0 6 2.691 6 6s-2.691 6-6 6z"/></g><g><path d="m40 29c-3.309 0-6-2.691-6-6s2.691-6 6-6c1.311 0 2.556.415 3.601 1.2l-1.201 1.6c-.696-.524-1.526-.8-2.4-.8-2.206 0-4 1.794-4 4s1.794 4 4 4 4-1.794 4-4h2c0 3.309-2.691 6-6 6z"/></g><g><path d="m13.879 58h-2.978c-5.46 0-9.901-4.441-9.901-9.901 0-3.252 2.194-6.097 5.287-6.956 2.075-4.485 5.92-7.932 10.622-9.499l2.542-.848c1.583-.528 3.232-.796 4.902-.796 2.831 0 5.544-.869 7.847-2.515l3.219-2.299 1.162 1.627-3.219 2.299c-2.643 1.89-5.759 2.888-9.009 2.888-1.455 0-2.891.233-4.269.692l-2.542.848c-4.321 1.441-7.828 4.668-9.623 8.854-.129.303-.4.522-.723.587-2.431.486-4.196 2.638-4.196 5.118 0 4.356 3.544 7.901 7.901 7.901h2.978c.618 0 1.121-.503 1.121-1.121 0-.295-.12-.584-.328-.793l-2.55-2.551c-.724-.723-1.122-1.683-1.122-2.707 0-2.11 1.717-3.828 3.829-3.828h.843c.294 0 .589.034.876.102l7.92 1.863c1.212.286 2.461.547 3.712.777l-.361 1.967c-1.284-.235-2.565-.504-3.81-.797l-7.919-1.863c-.137-.032-.278-.049-.418-.049h-.843c-1.009 0-1.829.82-1.829 1.828 0 .481.195.952.535 1.293l2.551 2.551c.581.581.914 1.385.914 2.207 0 1.721-1.4 3.121-3.121 3.121z"/></g><g><path d="m42 51c-1.353 0-2.716-.035-4.052-.104l.104-1.998c1.302.068 2.63.102 3.948.102 6.617 0 12-5.383 12-12v-.399c0-.98-.121-1.96-.358-2.911l-1.612-6.447 1.94-.484 1.612 6.447c.277 1.108.418 2.251.418 3.395v.399c0 7.72-6.28 14-14 14z"/></g><g><path d="m26 58h-4c-1.654 0-3-1.346-3-3 0-.94.449-1.837 1.2-2.4l2.397-1.798c.603-.452 1.262-.822 1.961-1.103 2.179-.871 3.739-2.855 4.071-5.18l.38-2.661 1.979.283-.38 2.661c-.432 3.029-2.466 5.617-5.308 6.754-.536.214-1.042.499-1.504.845l-2.396 1.799c-.25.188-.4.486-.4.8 0 .552.449 1 1 1h4c7.168 0 13-5.832 13-13v-1h2v1c0 8.271-6.729 15-15 15z"/></g><g><path d="m20.555 56.832-1.109-1.664c2.127-1.418 4.603-2.168 7.159-2.168h.395v2h-.395c-2.16 0-4.252.634-6.05 1.832z"/></g><g><path d="m60 58h-4c-5.338 0-10.317-2.874-12.993-7.499l1.731-1.002c2.32 4.01 6.635 6.501 11.262 6.501h4c.551 0 1-.448 1-1 0-.313-.149-.612-.399-.799l-2.398-1.8c-.462-.346-.968-.631-1.504-.845-2.736-1.095-4.696-3.477-5.244-6.371l1.965-.371c.42 2.219 1.924 4.045 4.022 4.885.699.28 1.359.65 1.961 1.103l2.398 1.799c.75.562 1.199 1.459 1.199 2.399 0 1.654-1.346 3-3 3z"/></g><g><path d="m61.445 56.832c-1.798-1.198-3.89-1.832-6.05-1.832h-.395v-2h.395c2.556 0 5.032.75 7.16 2.168z"/></g><g><path d="m10.292 57.707-.464-.465c-2.468-2.469-3.828-5.751-3.828-9.242h2c0 2.957 1.152 5.737 3.243 7.828l.465.465z"/></g><g><path d="m28 20h11v2h-11z"/></g><g><path d="m27.91 24h11.18v1.999h-11.18z" transform="matrix(.984 -.179 .179 .984 -3.93 6.393)"/></g><g><path d="m51 20h11v2h-11z"/></g><g><path d="m55.5 19.41h1.999v11.18h-1.999z" transform="matrix(.179 -.984 .984 .179 21.796 76.117)"/></g><g><path d="m6.628 42.929c-3.419-1.368-5.628-4.631-5.628-8.314v-1.615c0-.553.448-1 1-1 2.847 0 5.5 1.275 7.279 3.498l1.501 1.877-1.562 1.25-1.501-1.877c-1.186-1.483-2.867-2.429-4.717-2.681v.548c0 2.859 1.716 5.395 4.372 6.456z"/></g></g></svg>