<svg id="Layer_3" enable-background="new 0 0 64 64" height="512" viewBox="0 0 64 64" width="512" xmlns="http://www.w3.org/2000/svg"><g><g><path d="m52.247 38.998-6.247-4.998h-.014c-.558.701-1.183 1.346-1.868 1.931 3.606 2.743 5.882 6.68 5.882 11.069 0 1.756-.381 3.434-1.046 5h1.925c1.358 0 2.661-.54 3.621-1.5s1.5-2.263 1.5-3.621v-.072c0-3.039-1.381-5.912-3.753-7.809z" fill="#243242"/></g><g><path d="m18.01 33.995-.01.005-6.247 4.998c-2.372 1.897-3.753 4.77-3.753 7.808v.072c0 1.358.54 2.661 1.5 3.621s2.263 1.5 3.621 1.5h1.925c-.665-1.565-1.046-3.243-1.046-4.999 0-4.389 2.276-8.326 5.883-11.069-.688-.587-1.314-1.233-1.873-1.936z" fill="#243242"/></g><g><path d="m44.117 35.931c-3.084 2.631-7.371 4.069-12.117 4.069s-9.033-1.438-12.117-4.069c-3.607 2.743-5.883 6.68-5.883 11.069 0 8.284 8.059 15 18 15s18-6.716 18-15c0-4.389-2.276-8.326-5.883-11.069z" fill="#e8eff4"/></g><g><circle cx="19" cy="56" fill="#4d5d7a" r="6"/></g><g><circle cx="45" cy="56" fill="#4d5d7a" r="6"/></g><g><path d="m44.238 36-.193-.001c-3.079 2.589-7.338 4.001-12.045 4.001-4.752 0-9.043-1.442-12.128-4.079-2.17 1.651-3.846 3.741-4.843 6.098l2.314 1.543c4.341 2.894 9.441 4.438 14.657 4.438s10.316-1.544 14.656-4.438l2.311-1.541c-.98-2.319-2.61-4.383-4.729-6.021z" fill="#4d5d7a"/></g><g><path d="m18 15.326c-2.365-1.124-4-3.534-4-6.326 0-3.866 3.134-7 7-7 3.171 0 5.849 2.108 6.71 5" fill="#4d5d7a"/></g><g><path d="m46 15.326c2.365-1.124 4-3.534 4-6.326 0-3.866-3.134-7-7-7-3.171 0-5.849 2.108-6.71 5" fill="#4d5d7a"/></g><g><path d="m20 11.829c-1.165-.412-2-1.523-2-2.829 0-1.657 1.343-3 3-3 1.306 0 2.417.835 2.829 2" fill="#fff"/></g><g><path d="m44 11.829c1.165-.412 2-1.523 2-2.829 0-1.657-1.343-3-3-3-1.306 0-2.417.835-2.829 2" fill="#fff"/></g><g><path d="m49 25c0 9.389-7.611 15-17 15s-17-5.611-17-15 7.611-19 17-19 17 9.611 17 19z" fill="#e8eff4"/></g><g><path d="m42.55 16.308c0-2.439-.452-4.764-1.243-6.916-2.675-2.095-5.869-3.392-9.307-3.392-9.389 0-17 9.611-17 19 0 4.237 1.56 7.696 4.124 10.225 1.459.374 2.977.594 4.549.594 10.426.001 18.877-8.735 18.877-19.511z" fill="#ebf7fe"/></g><g><path d="m34 27c0 1.105-.895 3-2 3s-2-1.895-2-3 .895-1 2-1 2-.105 2 1z" fill="#4d5d7a"/></g><g><path d="m20 22c0 2.761 2.239 3 5 3s5-4.239 5-7-2.239-3-5-3-5 4.239-5 7z" fill="#4d5d7a"/></g><g><path d="m44 22c0 2.761-2.239 3-5 3s-5-4.239-5-7 2.239-3 5-3 5 4.239 5 7z" fill="#4d5d7a"/></g><g><circle cx="27" cy="18" fill="#fff" r="2"/></g><g><circle cx="37" cy="18" fill="#fff" r="2"/></g><g><path d="m17.571 16.229c-2.777-1.318-4.571-4.156-4.571-7.229 0-4.411 3.589-8 8-8 3.514 0 6.667 2.35 7.668 5.715l-1.917.57c-.75-2.523-3.115-4.285-5.751-4.285-3.309 0-6 2.691-6 6 0 2.305 1.346 4.434 3.429 5.423z"/></g><g><path d="m19.667 12.772c-1.595-.564-2.667-2.08-2.667-3.772 0-2.206 1.794-4 4-4 1.692 0 3.208 1.072 3.772 2.667l-1.886.666c-.282-.797-1.039-1.333-1.886-1.333-1.103 0-2 .897-2 2 0 .847.536 1.604 1.333 1.886z"/></g><g><path d="m46.429 16.229-.858-1.807c2.083-.988 3.429-3.117 3.429-5.422 0-3.309-2.691-6-6-6-2.636 0-5.001 1.762-5.751 4.285l-1.917-.57c1.001-3.365 4.154-5.715 7.668-5.715 4.411 0 8 3.589 8 8 0 3.073-1.794 5.911-4.571 7.229z"/></g><g><path d="m44.333 12.772-.666-1.886c.797-.282 1.333-1.039 1.333-1.886 0-1.103-.897-2-2-2-.847 0-1.604.536-1.886 1.333l-1.886-.666c.564-1.595 2.08-2.667 3.772-2.667 2.206 0 4 1.794 4 4 0 1.692-1.072 3.208-2.667 3.772z"/></g><g><path d="m25 26c-2.097 0-6 0-6-4 0-3.222 2.52-8 6-8 2.097 0 6 0 6 4 0 3.222-2.52 8-6 8zm0-10c-1.931 0-4 3.521-4 6 0 1.476.604 2 4 2 1.931 0 4-3.521 4-6 0-1.476-.604-2-4-2z"/></g><g><path d="m27 21c-1.654 0-3-1.346-3-3s1.346-3 3-3 3 1.346 3 3-1.346 3-3 3zm0-4c-.551 0-1 .449-1 1s.449 1 1 1 1-.449 1-1-.449-1-1-1z"/></g><g><path d="m39 26c-3.48 0-6-4.778-6-8 0-4 3.903-4 6-4 3.48 0 6 4.778 6 8 0 4-3.903 4-6 4zm0-10c-3.396 0-4 .524-4 2 0 2.479 2.069 6 4 6 3.396 0 4-.524 4-2 0-2.479-2.069-6-4-6z"/></g><g><path d="m37 21c-1.654 0-3-1.346-3-3s1.346-3 3-3 3 1.346 3 3-1.346 3-3 3zm0-4c-.551 0-1 .449-1 1s.449 1 1 1 1-.449 1-1-.449-1-1-1z"/></g><g><path d="m32 31c-1.804 0-3-2.408-3-4 0-.596.179-1.076.531-1.425.593-.589 1.416-.584 2.212-.576l.257.001.256-.001c.796-.005 1.619-.012 2.212.576.353.349.532.829.532 1.425 0 1.592-1.196 4-3 4zm-1-3.983c.009.819.682 1.939 1.003 1.983.315-.043.988-1.164.997-1.983-.188-.023-.503-.02-.728-.019l-.272.002-.272-.001c-.225-.002-.539-.005-.728.018z"/></g><g><path d="m35 37c-2.206 0-4-1.794-4-4h2c0 1.103.897 2 2 2s2-.897 2-2h2c0 2.206-1.794 4-4 4z"/></g><g><path d="m29 37c-2.206 0-4-1.794-4-4h2c0 1.103.897 2 2 2s2-.897 2-2v-3h2v3c0 2.206-1.794 4-4 4z"/></g><g><path d="m19 63c-3.86 0-7-3.141-7-7s3.14-7 7-7 7 3.141 7 7-3.14 7-7 7zm0-12c-2.757 0-5 2.243-5 5s2.243 5 5 5 5-2.243 5-5-2.243-5-5-5z"/></g><g><path d="m45 63c-3.86 0-7-3.141-7-7s3.14-7 7-7 7 3.141 7 7-3.14 7-7 7zm0-12c-2.757 0-5 2.243-5 5s2.243 5 5 5 5-2.243 5-5-2.243-5-5-5z"/></g><g><path d="m32 63c-2.338 0-4.62-.353-6.781-1.048l.612-1.904c3.927 1.264 8.41 1.264 12.337 0l.612 1.904c-2.16.695-4.442 1.048-6.78 1.048z"/></g><g><path d="m49.922 52.328-1.845-.771c.612-1.463.923-2.995.923-4.557 0-3.849-1.958-7.569-5.374-10.209l1.223-1.582c3.909 3.021 6.151 7.318 6.151 11.791 0 1.828-.362 3.62-1.078 5.328z"/></g><g><path d="m50.879 53h-.879v-2h.879c1.084 0 2.146-.44 2.914-1.207.778-.778 1.207-1.813 1.207-2.914 0-2.821-1.231-5.383-3.377-7.1l-6.247-4.998 1.249-1.562 6.247 4.998c2.623 2.098 4.128 5.229 4.128 8.59 0 1.708-.637 3.245-1.793 4.4-1.157 1.156-2.694 1.793-4.328 1.793z"/></g><g><path d="m21.615 63h-2.615v-2h2.615c2.86 0 5.395-1.716 6.457-4.371l1.856.742c-1.367 3.42-4.631 5.629-8.313 5.629z"/></g><g><path d="m45 63h-2.615c-3.683 0-6.946-2.209-8.313-5.629l1.856-.742c1.063 2.655 3.597 4.371 6.457 4.371h2.615z"/></g><g><path d="m32 49c-5.432 0-10.691-1.593-15.211-4.605l-2.344-1.562 1.109-1.664 2.344 1.562c4.19 2.792 9.066 4.269 14.102 4.269s9.912-1.477 14.102-4.27l2.344-1.562 1.109 1.664-2.344 1.562c-4.52 3.013-9.779 4.606-15.211 4.606z"/></g><g><path d="m32 41c-10.598 0-18-6.579-18-16 0-9.441 7.698-20 18-20s18 10.559 18 20c0 9.421-7.402 16-18 16zm0-34c-9.157 0-16 9.503-16 18 0 8.243 6.58 14 16 14s16-5.757 16-14c0-8.497-6.843-18-16-18z"/></g><g><path d="m14.078 52.328c-.716-1.708-1.078-3.5-1.078-5.328 0-4.58 2.333-8.947 6.402-11.982l1.196 1.604c-3.557 2.652-5.598 6.436-5.598 10.378 0 1.562.311 3.094.922 4.557z"/></g><g><path d="m14 53h-.879c-1.634 0-3.171-.637-4.328-1.793-1.156-1.155-1.793-2.692-1.793-4.328 0-3.433 1.505-6.563 4.128-8.662l6.247-4.998 1.249 1.562-6.247 4.998c-2.146 1.717-3.377 4.279-3.377 7.028 0 1.174.429 2.208 1.207 2.986.768.767 1.83 1.207 2.914 1.207h.879z"/></g></g></svg>