<svg id="Layer_3" enable-background="new 0 0 64 64" height="512" viewBox="0 0 64 64" width="512" xmlns="http://www.w3.org/2000/svg"><g><g><path d="m24.953 21.388c-.888-.255-1.816-.388-2.759-.388h-4.194c1.657 0 3 1.343 3 3s-1.343 3-3 3c2.761 0 5 2.239 5 5 2.761 0 5 2.239 5 5 0-2.761 2.239-5 5-5l1.296 1.296c1.091 1.091 1.704 2.571 1.704 4.113 0 1.649-.7 3.22-1.926 4.324l-5.261 4.735c-1.79 1.612-2.813 3.908-2.813 6.318v.714c0 4.694 3.806 8.5 8.5 8.5 4.694 0 8.5-3.806 8.5-8.5 0-2.241-.89-4.39-2.475-5.975l-.525-.525c-1.657 0-3 1.343-3 3l.939.939c.679.679 1.061 1.601 1.061 2.561 0 2.485-2.015 4.5-4.5 4.5-2.485 0-4.5-2.015-4.5-4.5v-.538c0-1.251.521-2.446 1.438-3.298l7.491-6.956c3.234-3.002 5.071-7.215 5.071-11.628 0-5.077-2.429-9.847-6.535-12.833l-3.374-2.454c-.685-.498-1.091-1.295-1.091-2.143 0-1.464 1.187-2.65 2.65-2.65h.44c.178.884.613 1.704 1.26 2.351l6.65 6.649 2-2-.931-1.304c-2.601-3.641-4.019-7.991-4.067-12.461-.531.476-1.233.765-2.002.765-1.045 0-1.963-.535-2.5-1.345-.537.81-1.455 1.345-2.5 1.345-.781 0-1.487-.306-2.021-.796-.107 1.56-1.392 2.796-2.979 2.796-.36 0-.7-.074-1.019-.19.004.064.019.125.019.19 0 1.657-1.343 3-3 3-.065 0-.126-.015-.19-.019.116.319.19.659.19 1.019 0 1.292-.821 2.384-1.967 2.806.591.548.967 1.324.967 2.194 0 .999-.493 1.877-1.244 2.422 1.159.57 2.008 1.675 2.202 2.998" fill="#78b75b"/></g><g><path d="m37.465 18.247-2.465-1.792v.244c0 2.797.874 5.525 2.5 7.801s2.5 5.004 2.5 7.801v.87c0 1.811.719 3.548 2 4.828l.241.299c1.133-2.214 1.759-4.678 1.759-7.218 0-5.076-2.429-9.847-6.535-12.833z" fill="#f5cf88"/></g><g><path d="m26 22h-2c0-1.142-.646-2.169-1.685-2.68-.315-.154-.525-.463-.555-.811-.03-.35.125-.688.408-.895.529-.385.832-.972.832-1.614 0-.556-.229-1.074-.647-1.461-.255-.236-.369-.589-.3-.93.068-.341.309-.622.635-.742.785-.289 1.312-1.039 1.312-1.867 0-.216-.042-.438-.13-.68-.115-.319-.061-.675.145-.945s.539-.413.872-.392c.021.002.118.013.139.016h.001c1.077 0 1.973-.896 1.973-1.999-.003-.025-.016-.103-.017-.128-.021-.337.129-.661.399-.862.271-.202.625-.256.94-.139.24.087.461.129.678.129 1.04 0 1.91-.819 1.982-1.864.026-.384.27-.718.627-.86.356-.143.764-.068 1.047.192.883.809 2.364.61 3.011-.366.37-.559 1.297-.559 1.667 0 .372.562.995.898 1.666.898 1.103 0 2-.897 2-2v-1h2v1c0 2.206-1.794 4-4 4-.923 0-1.8-.316-2.5-.879-1.068.858-2.614 1.115-3.912.617-.667 1.378-2.123 2.288-3.714 2.26-.362 1.405-1.471 2.514-2.876 2.876.001.042.002.084.002.126 0 1.219-.567 2.354-1.488 3.1.317.58.488 1.234.488 1.9 0 .811-.252 1.596-.704 2.254 1.073.933 1.704 2.282 1.704 3.746z"/></g><g><path d="m44 21c-.256 0-.512-.098-.707-.293l-6.649-6.648c-1.06-1.06-1.644-2.47-1.644-3.97 0-.867.205-1.734.592-2.51l.513-1.026 1.789.895-.513 1.026c-.249.499-.381 1.057-.381 1.615 0 .966.376 1.873 1.058 2.556l5.942 5.941.694-.694-.439-.614c-2.784-3.898-4.255-8.489-4.255-13.278h2c0 4.37 1.343 8.559 3.883 12.115l.931 1.304c.284.397.239.942-.107 1.288l-2 2c-.195.195-.451.293-.707.293z"/></g><g><path d="m34.5 63c-5.238 0-9.5-4.262-9.5-9.5v-.715c0-2.689 1.146-5.263 3.145-7.061l5.26-4.734c1.014-.912 1.595-2.218 1.595-3.581 0-1.287-.501-2.496-1.411-3.406l-1.296-1.296 1.414-1.414 1.296 1.296c1.288 1.287 1.997 2.999 1.997 4.82 0 1.93-.823 3.776-2.257 5.067l-5.26 4.734c-1.578 1.421-2.483 3.452-2.483 5.575v.715c0 4.136 3.364 7.5 7.5 7.5s7.5-3.364 7.5-7.5c0-1.99-.775-3.861-2.182-5.268l-.196-.196c-.8.153-1.432.785-1.585 1.586l.61.61c.86.86 1.353 2.051 1.353 3.268 0 3.032-2.467 5.5-5.5 5.5s-5.5-2.468-5.5-5.5v-.538c0-1.523.641-2.992 1.757-4.029l7.491-6.957c3.02-2.804 4.752-6.775 4.752-10.896 0-4.74-2.289-9.235-6.124-12.024l-3.373-2.453c-.941-.686-1.503-1.79-1.503-2.953 0-2.013 1.638-3.65 3.65-3.65h.35v2h-.35c-.91 0-1.65.74-1.65 1.65 0 .526.254 1.025.68 1.335l3.373 2.453c4.35 3.165 6.947 8.264 6.947 13.642 0 4.675-1.965 9.181-5.391 12.36l-7.491 6.957c-.71.661-1.118 1.595-1.118 2.565v.538c0 1.93 1.57 3.5 3.5 3.5s3.5-1.57 3.5-3.5c0-.69-.28-1.366-.768-1.854l-.939-.939c-.188-.187-.293-.441-.293-.707 0-2.206 1.794-4 4-4 .265 0 .52.105.708.293l.525.525c1.784 1.785 2.767 4.158 2.767 6.682 0 5.238-4.262 9.5-9.5 9.5z"/></g><g><path d="m28 38c-.552 0-1-.447-1-1 0-2.206-1.794-4-4-4-.552 0-1-.447-1-1 0-2.206-1.794-4-4-4-.552 0-1-.447-1-1s.448-1 1-1c1.103 0 2-.897 2-2s-.897-2-2-2c-.552 0-1-.447-1-1s.448-1 1-1h4.194c3.359 0 6.49 1.505 8.589 4.128l.998 1.247-1.562 1.25-.998-1.247c-1.717-2.147-4.279-3.378-7.027-3.378h-.73c.341.589.536 1.272.536 2 0 1.064-.417 2.032-1.098 2.75 1.587.881 2.736 2.461 3.026 4.321 1.696.265 3.159 1.242 4.072 2.615 1.076-1.618 2.916-2.686 5-2.686h4v2h-4c-2.206 0-4 1.794-4 4 0 .553-.448 1-1 1z"/></g><g><path d="m23.707 32.707-1.414-1.414.879-.879c1.556-1.557 3.626-2.414 5.828-2.414v2c-1.668 0-3.235.649-4.414 1.828z"/></g><g><path d="m19.555 27.832-1.109-1.664c2.127-1.418 4.603-2.168 7.159-2.168h.395v2h-.395c-2.16 0-4.252.634-6.05 1.832z"/></g><g><path d="m37 22h5v2h-5z"/></g><g><path d="m39 26h5v2h-5z"/></g><g><path d="m41 29.04h2v4.001h-2z" transform="matrix(.02 -1 1 .02 10.126 72.41)"/></g><g><path d="m23 53h3v2h-3z"/></g><g><path d="m24.5 46.919h1.999v3.162h-1.999z" transform="matrix(.316 -.949 .949 .316 -28.575 57.354)"/></g><g><path d="m28 42.697h2v3.606h-2z" transform="matrix(.832 -.555 .555 .832 -19.814 23.56)"/></g><g><path d="m39 8h2v2h-2z"/></g><g><path d="m41.293 38.707c-1.479-1.478-2.293-3.443-2.293-5.535v-.871c0-2.604-.8-5.101-2.314-7.22-1.757-2.46-2.686-5.358-2.686-8.382v-.699h2v.699c0 2.604.8 5.101 2.314 7.22 1.757 2.46 2.686 5.358 2.686 8.382v.871c0 1.557.606 3.021 1.707 4.121z"/></g></g></svg>