<?xml version="1.0" encoding="iso-8859-1"?>
<!-- Generator: Adobe Illustrator 19.0.0, SVG Export Plug-In . SVG Version: 6.00 Build 0)  -->
<svg version="1.1" id="Capa_1" xmlns="http://www.w3.org/2000/svg" xmlns:xlink="http://www.w3.org/1999/xlink" x="0px" y="0px"
	 viewBox="0 0 512 512" style="enable-background:new 0 0 512 512;" xml:space="preserve">
<path style="fill:#FFB37C;" d="M347.28,167.074l-12.002-2.106c-52.452-9.202-106.105-9.202-158.556,0l-12.002,2.106
	c-12.475,2.189-23.906-7.411-23.906-20.077v33.749c0,52.389,34.978,86.499,82.853,100.474v18.542h64.666V281.22
	c47.875-13.975,82.853-48.085,82.853-100.474v-33.749C371.185,159.663,359.756,169.263,347.28,167.074z"/>
<path style="fill:#009A86;" d="M368.286,410.228V502H143.714v-91.772l40.262-51.891v-58.574h34.297v52.107
	c0,20.836,16.891,37.727,37.727,37.727l0,0c20.836,0,37.727-16.891,37.727-37.727v-52.107h34.297v58.574L368.286,410.228z"/>
<g>
	<polygon style="fill:#FFB37C;" points="150.965,400.881 100.048,400.881 100.048,502 143.714,502 143.714,410.228 	"/>
	<polygon style="fill:#FFB37C;" points="361.034,400.881 368.286,410.228 368.286,502 411.952,502 411.952,400.881 	"/>
</g>
<g>
	<path style="fill:#00C974;" d="M256,389.597L256,389.597c20.836,0,37.727-16.891,37.727-37.727v-52.107h-75.455v52.107
		C218.273,372.706,235.164,389.597,256,389.597z"/>
	<path style="fill:#00C974;" d="M183.975,358.336v-58.574H131.28c-17.253,0-31.232,13.99-31.232,31.232v69.887h50.918
		L183.975,358.336z"/>
	<path style="fill:#00C974;" d="M380.72,299.763h-52.696v58.574l33.01,42.545h50.918v-69.887
		C411.952,313.752,397.973,299.763,380.72,299.763z"/>
</g>
<rect x="198.6" y="426.19" style="fill:#C9FB8E;" width="114.81" height="75.81"/>
<path d="M216.002,202.77c-1.231,0-2.482-0.229-3.695-0.711l-1.621-0.646c-6.312-2.513-13.263-2.513-19.573,0l-1.622,0.646
	c-5.13,2.042-10.947-0.461-12.989-5.593c-2.042-5.131,0.461-10.947,5.593-12.989l1.622-0.646c11.08-4.41,23.286-4.41,34.366,0
	l1.622,0.646c5.131,2.042,7.635,7.858,5.593,12.989C223.736,200.383,219.977,202.77,216.002,202.77z"/>
<path d="M326.205,202.77c-1.231,0-2.482-0.229-3.695-0.711l-1.622-0.646c-6.312-2.513-13.263-2.513-19.573,0l-1.622,0.646
	c-5.132,2.042-10.946-0.461-12.989-5.593c-2.043-5.131,0.461-10.947,5.593-12.989l1.622-0.646c11.08-4.41,23.286-4.41,34.366,0
	l1.622,0.646c5.131,2.042,7.635,7.858,5.593,12.989C333.939,200.383,330.179,202.77,326.205,202.77z"/>
<path style="fill:#5F81FF;" d="M371.185,146.997v-32.135l-8.009-1.982c-70.389-17.425-143.965-17.425-214.354,0l-8.009,1.982v32.135
	c0,12.666,11.43,22.265,23.906,20.077l12.002-2.106c52.452-9.202,106.105-9.202,158.556,0l12.002,2.106
	C359.756,169.263,371.185,159.663,371.185,146.997z"/>
<path style="fill:#6F9CFF;" d="M309.338,10H202.662c-34.157,0-61.847,27.69-61.847,61.847v43.015l8.009-1.982
	c70.389-17.425,143.965-17.425,214.354,0l8.009,1.982V71.847C371.185,37.69,343.496,10,309.338,10z"/>
<path d="M324.68,63.2c-0.66,0-1.31-0.07-1.96-0.2c-0.64-0.13-1.26-0.32-1.87-0.57c-0.6-0.25-1.18-0.56-1.73-0.92
	c-0.539-0.36-1.05-0.78-1.52-1.24c-0.46-0.46-0.87-0.97-1.24-1.52c-0.36-0.54-0.67-1.12-0.92-1.73c-0.25-0.6-0.44-1.23-0.57-1.87
	s-0.19-1.3-0.19-1.95s0.06-1.31,0.19-1.96c0.13-0.63,0.32-1.26,0.57-1.87c0.25-0.6,0.56-1.18,0.92-1.72
	c0.37-0.55,0.78-1.06,1.24-1.52c0.47-0.46,0.98-0.88,1.52-1.25c0.55-0.36,1.13-0.67,1.73-0.92c0.61-0.25,1.23-0.44,1.87-0.57
	c1.29-0.26,2.62-0.26,3.91,0c0.64,0.13,1.27,0.32,1.87,0.57s1.18,0.56,1.73,0.92c0.54,0.37,1.06,0.79,1.52,1.25s0.88,0.97,1.24,1.52
	c0.36,0.54,0.67,1.12,0.92,1.72c0.25,0.61,0.44,1.24,0.57,1.87c0.13,0.65,0.2,1.31,0.2,1.96c0,0.65-0.07,1.31-0.2,1.95
	s-0.32,1.27-0.57,1.87c-0.25,0.61-0.56,1.19-0.92,1.73c-0.36,0.55-0.78,1.06-1.24,1.52s-0.98,0.88-1.52,1.24
	c-0.55,0.36-1.13,0.67-1.73,0.92s-1.23,0.44-1.87,0.57C325.98,63.13,325.33,63.2,324.68,63.2z"/>
<path d="M236,474.1c-0.65,0-1.3-0.07-1.95-0.2c-0.64-0.13-1.27-0.32-1.87-0.57c-0.6-0.25-1.18-0.56-1.73-0.92
	c-0.54-0.36-1.05-0.78-1.52-1.24c-0.46-0.46-0.87-0.98-1.24-1.52c-0.36-0.55-0.67-1.13-0.92-1.73s-0.44-1.23-0.57-1.87
	c-0.13-0.64-0.19-1.3-0.19-1.95c0-0.66,0.06-1.31,0.19-1.961c0.13-0.64,0.32-1.27,0.57-1.87s0.56-1.18,0.92-1.73
	c0.37-0.54,0.78-1.05,1.24-1.52c0.47-0.46,0.98-0.88,1.52-1.24c0.55-0.36,1.13-0.67,1.73-0.92c0.6-0.25,1.23-0.44,1.87-0.57
	c1.29-0.26,2.62-0.26,3.91,0c0.64,0.13,1.27,0.32,1.87,0.57c0.6,0.25,1.18,0.56,1.73,0.92c0.539,0.36,1.059,0.78,1.52,1.24
	c0.46,0.47,0.88,0.98,1.24,1.52c0.36,0.55,0.67,1.13,0.92,1.73s0.44,1.23,0.57,1.87c0.13,0.65,0.2,1.3,0.2,1.961
	c0,2.63-1.07,5.2-2.93,7.07c-0.46,0.46-0.98,0.88-1.52,1.24c-0.55,0.36-1.13,0.67-1.73,0.92c-0.6,0.25-1.23,0.44-1.87,0.57
	C237.31,474.03,236.66,474.1,236,474.1z"/>
<path d="M380.72,289.763h-82.387l0,0v-1.221c23.275-7.953,42.84-20.503,56.903-36.566c17.219-19.667,25.95-43.632,25.95-71.23l0,0
	V71.847l0,0C381.185,32.23,348.955,0,309.338,0H202.662c-39.617,0-71.847,32.23-71.847,71.847l0,0v108.899l0,0
	c0,27.598,8.73,51.563,25.95,71.23c14.063,16.063,33.627,28.613,56.903,36.566v1.221l0,0H131.28
	c-22.735,0-41.232,18.497-41.232,41.232l0,0V502c0,5.523,4.477,10,10,10l0,0l0,0h311.904l0,0l0,0c5.523,0,10-4.477,10-10V330.995
	l0,0C421.952,308.259,403.456,289.763,380.72,289.763z M401.952,330.995v59.887h-36.019l-27.908-35.969v-45.149h42.696
	C392.428,309.763,401.952,319.287,401.952,330.995z M256,379.597c-14.811,0-26.947-11.673-27.691-26.302
	c-0.024-0.472-0.036-0.947-0.036-1.425v-42.107h55.455v42.107c0,0.478-0.012,0.953-0.036,1.425
	C282.947,367.923,270.811,379.597,256,379.597z M349.741,157.314c-0.244-0.026-0.488-0.046-0.733-0.089l-12.002-2.105
	c-49.555-8.694-99.752-9.352-149.407-2.016c-4.206,0.621-8.409,1.279-12.606,2.016l-1.791,0.314l-10.21,1.791
	c-0.243,0.043-0.484,0.062-0.725,0.088c-2.816,0.3-5.546-0.515-7.747-2.364c-2.39-2.007-3.706-4.83-3.706-7.951v-24.309l0.412-0.102
	c64.259-15.907,131.961-16.902,196.651-2.983c4.313,0.928,8.612,1.922,12.896,2.983l0.412,0.102v24.309
	c0,3.121-1.316,5.944-3.706,7.951C355.281,156.795,352.555,157.613,349.741,157.314z M202.662,20h106.677
	c28.588,0,51.847,23.258,51.847,51.847v30.261c-0.407-0.096-0.816-0.185-1.224-0.28c-1.014-0.237-2.029-0.467-3.044-0.697
	c-1.192-0.27-2.384-0.538-3.578-0.799c-1.022-0.223-2.044-0.44-3.067-0.655c-1.192-0.251-2.384-0.5-3.578-0.741
	c-1.024-0.207-2.048-0.41-3.074-0.61c-1.199-0.234-2.398-0.464-3.599-0.688c-1.023-0.191-2.046-0.378-3.069-0.562
	c-1.205-0.217-2.411-0.428-3.618-0.635c-1.023-0.175-2.047-0.348-3.072-0.517c-1.21-0.199-2.421-0.392-3.633-0.581
	c-1.023-0.16-2.047-0.318-3.072-0.47c-1.217-0.181-2.434-0.356-3.652-0.527c-1.02-0.144-2.041-0.287-3.062-0.424
	c-1.225-0.164-2.452-0.32-3.678-0.474c-1.018-0.128-2.035-0.256-3.054-0.377c-1.233-0.146-2.467-0.284-3.701-0.42
	c-1.013-0.112-2.026-0.225-3.039-0.331c-1.243-0.129-2.487-0.248-3.731-0.367c-1.008-0.096-2.015-0.195-3.023-0.285
	c-1.254-0.111-2.509-0.211-3.763-0.312c-0.999-0.08-1.997-0.165-2.996-0.239c-1.277-0.094-2.554-0.176-3.831-0.26
	c-0.977-0.064-1.954-0.133-2.931-0.191c-1.31-0.078-2.621-0.141-3.932-0.207c-0.947-0.048-1.894-0.102-2.841-0.144
	c-1.367-0.061-2.735-0.106-4.103-0.154c-0.89-0.031-1.78-0.07-2.67-0.096c-1.509-0.045-3.018-0.072-4.528-0.102
	c-0.75-0.015-1.499-0.038-2.249-0.049c-2.254-0.033-4.508-0.051-6.762-0.051c-0.004,0-0.008,0-0.012,0l0,0
	c-2.258,0-4.517,0.018-6.775,0.051c-0.742,0.011-1.483,0.034-2.225,0.048c-1.518,0.03-3.036,0.058-4.553,0.103
	c-0.882,0.026-1.763,0.064-2.645,0.096c-1.377,0.048-2.753,0.094-4.129,0.155c-0.939,0.042-1.877,0.095-2.816,0.142
	c-1.319,0.067-2.639,0.131-3.957,0.209c-0.969,0.057-1.938,0.126-2.906,0.189c-1.286,0.084-2.572,0.167-3.857,0.262
	c-0.991,0.073-1.981,0.157-2.971,0.236c-1.263,0.102-2.526,0.202-3.789,0.314c-1.001,0.089-2,0.187-3,0.283
	c-1.252,0.119-2.504,0.239-3.755,0.369c-1.006,0.104-2.01,0.217-3.016,0.328c-1.242,0.137-2.484,0.275-3.725,0.423
	c-1.012,0.12-2.022,0.248-3.033,0.375c-1.234,0.155-2.467,0.312-3.7,0.477c-1.015,0.136-2.028,0.278-3.042,0.421
	c-1.225,0.172-2.449,0.348-3.672,0.53c-1.019,0.152-2.037,0.309-3.055,0.468c-1.217,0.19-2.433,0.383-3.649,0.583
	c-1.02,0.168-2.04,0.34-3.059,0.514c-1.211,0.207-2.42,0.42-3.629,0.637c-1.021,0.183-2.041,0.37-3.061,0.561
	c-1.202,0.225-2.403,0.455-3.604,0.689c-1.025,0.2-2.049,0.402-3.073,0.61c-1.193,0.242-2.384,0.49-3.575,0.741
	c-1.025,0.216-2.05,0.434-3.074,0.657c-1.189,0.259-2.377,0.527-3.564,0.796c-1.021,0.231-2.042,0.463-3.061,0.701
	c-0.405,0.095-0.811,0.183-1.216,0.279V71.847c0-2.948,0.26-5.835,0.735-8.65h134.459c5.523,0,10-4.477,10-10s-4.477-10-10-10
	H159.477C168.776,29.228,184.659,20,202.662,20z M150.814,180.746v-5.188c0.004,0.002,0.008,0.003,0.013,0.004
	c0.542,0.197,1.092,0.373,1.645,0.539c0.147,0.044,0.294,0.087,0.442,0.129c0.534,0.151,1.071,0.292,1.613,0.414
	c0.027,0.006,0.054,0.014,0.081,0.02c0.564,0.125,1.133,0.228,1.704,0.321c0.15,0.024,0.301,0.047,0.451,0.07
	c0.545,0.08,1.092,0.149,1.642,0.2c0.035,0.003,0.069,0.008,0.104,0.011c0.576,0.051,1.155,0.079,1.735,0.097
	c0.155,0.005,0.311,0.008,0.466,0.01c0.154,0.002,0.307,0.01,0.462,0.01c0.396,0,0.794-0.01,1.191-0.026
	c0.038-0.001,0.077-0.001,0.115-0.002c0.58-0.025,1.161-0.072,1.742-0.131c0.157-0.016,0.313-0.033,0.47-0.051
	c0.57-0.066,1.139-0.143,1.708-0.242c0.017-0.003,0.033-0.004,0.05-0.007l12.001-2.106c51.458-9.027,103.643-9.028,155.1,0
	l12.001,2.106l0,0c0.028,0.005,0.055,0.007,0.083,0.012c0.588,0.102,1.177,0.183,1.766,0.25c0.195,0.022,0.39,0.035,0.585,0.054
	c0.427,0.04,0.853,0.074,1.279,0.096c0.223,0.011,0.445,0.018,0.667,0.025c0.405,0.012,0.81,0.016,1.214,0.011
	c0.221-0.002,0.441-0.005,0.661-0.012c0.427-0.014,0.853-0.04,1.278-0.072c0.189-0.014,0.377-0.023,0.565-0.041
	c1.216-0.114,2.422-0.301,3.611-0.559c0.192-0.042,0.381-0.092,0.572-0.137c0.403-0.096,0.805-0.197,1.204-0.309
	c0.219-0.061,0.436-0.128,0.653-0.195c0.374-0.115,0.746-0.236,1.115-0.365c0.125-0.044,0.253-0.078,0.378-0.124v5.188
	c0,43.717-27.575,76.84-75.655,90.876c-4.266,1.245-7.198,5.156-7.198,9.599v8.542h-44.666v-8.542c0-4.443-2.932-8.354-7.198-9.599
	C178.39,257.586,150.814,224.463,150.814,180.746z M110.048,330.995c0-11.707,9.524-21.232,21.232-21.232h42.696v45.149
	l-27.908,35.969h-36.02C110.048,390.881,110.048,330.995,110.048,330.995z M110.048,410.881h23.666V492h-23.666
	C110.048,492,110.048,410.881,110.048,410.881z M153.714,413.652l38.163-49.186c1.36-1.753,2.099-3.91,2.099-6.13v-48.574h14.297
	v42.107c0,3.29,0.334,6.503,0.971,9.607c4.458,21.728,23.729,38.121,46.756,38.121s42.298-16.393,46.756-38.121
	c0.637-3.104,0.971-6.317,0.971-9.607v-42.107h14.297v48.574c0,2.22,0.739,4.376,2.099,6.13l38.163,49.186v40.443h-34.882V426.19
	c0-5.523-4.477-10-10-10H198.596c-5.523,0-10,4.477-10,10V492h-34.882L153.714,413.652L153.714,413.652z M358.286,474.095V492
	h-34.882v-17.905H358.286z M208.596,492v-55.81h94.809v17.905h-28.733c-5.523,0-10,4.477-10,10s4.477,10,10,10h28.733V492H208.596z
	 M401.952,492h-23.666v-81.119h23.666L401.952,492L401.952,492z"/>
<g>
</g>
<g>
</g>
<g>
</g>
<g>
</g>
<g>
</g>
<g>
</g>
<g>
</g>
<g>
</g>
<g>
</g>
<g>
</g>
<g>
</g>
<g>
</g>
<g>
</g>
<g>
</g>
<g>
</g>
</svg>
