<svg id="Capa_1" enable-background="new 0 0 511.982 511.982" height="512" viewBox="0 0 511.982 511.982" width="512" xmlns="http://www.w3.org/2000/svg"><g id="XMLID_773_"><g id="XMLID_774_"><g id="XMLID_1151_"><path id="XMLID_1417_" d="m170.499 156.857h-63.001c-14.604 0-26.443-11.839-26.443-26.443 0-14.604 11.839-26.443 26.443-26.443 25.253 0 47.965 15.366 57.359 38.807z" fill="#ff7d97"/></g><g id="XMLID_1884_"><path id="XMLID_1416_" d="m170.499 156.857 29.004-139.513c2.036-9.792 16.02-9.792 18.056 0l29.004 139.513z" fill="#98eaf9"/></g><g id="XMLID_1027_"><path id="XMLID_1415_" d="m231.685 85.291-58.462 58.461-2.724 13.105h76.064z" fill="#ffcd69"/></g><g id="XMLID_1856_"><path id="XMLID_1174_" d="m444.01 501.978c35.754-35.26 57.916-84.267 57.916-138.451 0-107.388-87.055-194.443-194.444-194.443l92.355 332.894z" fill="#c193dc"/></g><g id="XMLID_1822_"><path id="XMLID_76_" d="m131.069 501.935c4.955-33.01 22.363-64.171 51.142-85.827 33.427-25.154 51.513-63.132 52.564-101.935l20.14-15.023c-15.541 15.541-36.619 24.272-58.598 24.272-25.827 0-50.808-9.21-70.454-25.975-25.494-21.756-57.911-33.707-91.427-33.707h.004c-13.467 0-24.384-10.917-24.384-24.384v-25.906c0-13.467 10.917-24.384 24.384-24.384h-.004c30.159 0 60.042-5.736 88.057-16.901 25.375-10.113 52.441-15.308 79.757-15.308h27.997 55.701c113.131 78.886 155.886 220.792 113.891 345.121z" fill="#fff"/></g><g id="XMLID_1016_"><ellipse id="XMLID_74_" cx="275.043" cy="150.23" fill="#fff" rx="62.999" ry="30.313" transform="matrix(.522 -.853 .853 .522 3.384 306.498)"/></g></g><g id="XMLID_1418_"><path id="XMLID_1419_" d="m481.014 255.385c-2.926-4.685-9.095-6.11-13.779-3.186-4.685 2.926-6.11 9.095-3.185 13.779 18.237 29.206 27.877 62.938 27.877 97.55 0 49.751-19.511 96.392-54.938 131.33-3.933 3.878-3.977 10.21-.099 14.142 1.957 1.984 4.538 2.979 7.12 2.979 2.536 0 5.073-.959 7.022-2.88 39.269-38.727 60.895-90.425 60.895-145.57-.001-38.362-10.69-75.757-30.913-108.144z"/><path id="XMLID_1423_" d="m330.405 180.531c26.004 3.239 51.046 11.946 73.444 25.698 1.632 1.003 3.439 1.479 5.223 1.479 3.361 0 6.643-1.694 8.531-4.769 2.89-4.706 1.417-10.864-3.289-13.754-29.77-18.279-63.737-28.553-98.705-29.935 8.868-20.904 9.584-44.378 1.706-66.167-1.592-4.4-6.014-7.106-10.662-6.521-22.893 2.902-43.392 14.159-57.949 31.462l-21.355-102.714c-1.873-9.014-9.612-15.31-18.818-15.31s-16.945 6.296-18.819 15.31l-22.872 110.016c-13.163-19.423-35.12-31.354-59.342-31.354-20.095 0-36.443 16.348-36.443 36.442s16.348 36.443 36.443 36.443h.51c-23.703 8.101-48.398 12.208-73.574 12.208-.001 0-.003 0-.004 0-18.955.006-34.375 15.428-34.375 34.384v25.906c0 18.956 15.42 34.378 34.375 34.384h.004c31.109 0 61.273 11.121 84.936 31.314 21.438 18.294 48.764 28.369 76.945 28.369 9.301 0 18.393-1.358 27.051-3.98-4.822 31.267-21.498 59.359-47.169 78.677-29.921 22.515-49.46 55.306-55.018 92.333-.82 5.462 2.943 10.554 8.405 11.374.503.075 1.003.111 1.497.111 4.867 0 9.133-3.559 9.877-8.517 4.775-31.809 21.561-59.98 47.266-79.322 33.281-25.043 53.579-62.753 56.279-104.128 6.279-3.826 12.151-8.417 17.482-13.749 3.905-3.905 3.905-10.237 0-14.143-3.904-3.904-10.237-3.904-14.142 0-13.763 13.764-32.062 21.344-51.527 21.344-23.427 0-46.143-8.375-63.963-23.582-27.278-23.278-62.051-36.099-97.912-36.101h-.001c-7.931 0-14.384-6.452-14.384-14.384v-2.953h4.25c5.523 0 10-4.478 10-10 0-5.523-4.477-10-10-10h-4.25v-2.953c0-7.932 6.453-14.384 14.384-14.384h.001c31.563-.001 62.434-5.926 91.754-17.611 24.302-9.686 49.891-14.597 76.055-14.597h25.597c-.122 1.143-.23 2.287-.307 3.434-.372 5.511 3.794 10.279 9.304 10.651 5.509.368 10.279-3.794 10.651-9.305.77-11.408 4.208-22.177 10.219-32.005 9.779-15.991 25.228-27.233 43.188-31.686 4.219 18.016 1.251 36.89-8.528 52.881-4.276 6.992-9.65 13.116-15.974 18.199-4.305 3.461-4.988 9.756-1.528 14.06 1.977 2.458 4.875 3.734 7.8 3.734 2.199 0 4.413-.722 6.26-2.206 4.778-3.841 9.119-8.153 13.01-12.866 91.307 77.129 126.857 203.244 88.424 317.029-1.767 5.232 1.042 10.907 6.275 12.675 1.061.358 2.14.528 3.201.528 4.172 0 8.065-2.632 9.474-6.803 38.799-114.878 7.022-241.522-78.911-324.646zm-121.873-157.478 12.263 58.986-30.964 30.964zm-117.477 107.361c0-9.066 7.377-16.442 16.443-16.442 21.287 0 40.158 12.768 48.076 32.526l.144.359h-48.22c-9.066 0-16.443-7.375-16.443-16.443zm93.206 16.443 41.402-41.402 7.905 38.026c-.437 1.117-.851 2.243-1.244 3.376z"/><path id="XMLID_1440_" d="m209.027 212.566c-1.905 1.905-4.434 2.955-7.121 2.955s-5.216-1.05-7.121-2.955c-3.904-3.903-10.237-3.904-14.142 0-3.905 3.905-3.906 10.236 0 14.143 5.683 5.683 13.234 8.812 21.264 8.812 8.029 0 15.581-3.13 21.263-8.812 3.905-3.906 3.905-10.237-.001-14.143-3.906-3.904-10.237-3.904-14.142 0z"/><path id="XMLID_1443_" d="m444.451 235.52c2.63 0 5.21-1.061 7.07-2.931 1.869-1.859 2.93-4.439 2.93-7.069 0-2.631-1.061-5.211-2.93-7.07-1.86-1.86-4.44-2.93-7.07-2.93s-5.21 1.069-7.07 2.93c-1.859 1.859-2.93 4.439-2.93 7.07 0 2.63 1.07 5.21 2.93 7.069 1.86 1.87 4.44 2.931 7.07 2.931z"/></g></g></svg>