<svg height="512" viewBox="0 0 60 60" width="512" xmlns="http://www.w3.org/2000/svg"><g id="Page-1" fill="none" fill-rule="evenodd"><g id="008---Vomiting-Unicorn" transform="translate(0 -1)"><path id="Path" d="m12 57h-.24c-10.76-.1-10.76-7.03-10.76-11 .10178177-1.9522967.87956737-3.808376 2.2-5.25.25154052-.3044008.65865725-.4322715 1.03907199-.3263606.38041473.1059109.66288011.4257675.72092801.8163606.02576697.7731618.36353141 1.5029359.93628332 2.0229343.57275192.5199985 1.33166821.7858951 2.10371668.7370657 4 0 6-4 4-9-1.93-4.83-3.87-18.07 6.84-18.95-.0013541.3234838.0527632.6448052.16.95.4246951 1.3614254 1.2213051 2.5771215 2.3 3.51.3610566.302176.4574694.8177744.23 1.23-.92 1.7-2.64 6.27.47 13.26 4 9 1 22-10 22z" fill="#ffdc00"/><path id="Path" d="m22 35c-3.11-6.99-1.39-11.56-.47-13.26.2274694-.4122256.1310566-.927824-.23-1.23-1.0786949-.9328785-1.8753049-2.1485746-2.3-3.51-.1072368-.3051948-.1613541-.6265162-.16-.95-.9987627.0737032-1.9814374.2926742-2.917.65.0197735.1014207.0454844.2015931.077.3.4246951 1.3614254 1.2213051 2.5771215 2.3 3.51.3610566.302176.4574694.8177744.23 1.23-.92 1.7-2.64 6.27.47 13.26 3.842 8.644 1.222 20.97-8.735 21.933.476.036.969.062 1.495.067h.24c11 0 14-13 10-22z" fill="#fec108"/><path id="Path" d="m36.86 7.81-5.37 3.84c-.3199027.2244687-.4768477.6168311-.4 1 .03.13.07.28.11.45-.3967982-.0644291-.7980108-.0978635-1.2-.1-1.5890812.1668772-3.0824848.8399606-4.26 1.92-.25-.28-.49-.59-.74-.92-.5926958-.9448777-1.5898898-1.5616606-2.7-1.67.79-1.56 3.36-5.33 9.7-5.33 1.6545039-.01120896 3.2985641.26280107 4.86.81z" fill="#e91e63"/><path id="Path" d="m44.86 19.49v.01c-.62 2.89-3.03 3.24-4.86 2.24.7350701-2.5208528.3060051-5.2382644-1.17-7.41l2.1-4.2c3.144 2.55 4.519 6.482 3.93 9.36z" fill="#e91e63"/><path id="Path" d="m42.37 11.53c-.4372468-.5087159-.9191715-.9772538-1.44-1.4l-1.03 2.064c1.6329943 2.0585041 2.3429957 4.7002016 1.962 7.3v.01c-.1449919.9850878-.7163405 1.856376-1.562 2.382.905858.5059848 2.0058014.5210155 2.9251471.0399719s1.5340996-1.3932821 1.6348529-2.4259719v-.01c.4171959-2.8934148-.4983175-5.8201163-2.49-7.96z" fill="#ad1457"/><path id="Path" d="m45 2-4.07 8.13-3.61 7.22c-.200979.4193399-.668301.6404834-1.12.53-.07-.02-.13-.03-.21-.06.0046156-1.238166-.523614-2.4184859-1.45-3.24-.4060548-.3557856-.8605963-.6520793-1.35-.88-.6323307-.2912334-1.3020717-.4931653-1.99-.6-.04-.17-.08-.32-.11-.45-.0768477-.3831689.0800973-.7755313.4-1l5.37-3.84z" fill="#ffeb3a"/><path id="Path" d="m40.332 5.332-2.4 4.8-2.661 5.322c.4612698.7044093.7114415 1.5260552.721 2.368.08.03.14.04.21.06.451699.1104834.919021-.1106601 1.12-.53l3.61-7.22 4.068-8.132z" fill="#fdd834"/><path id="Path" d="m48 14c.1917302 1.8917103-1.1231491 3.6054363-3 3.91-.1142972-2.3664124-1.04348-4.6204757-2.63-6.38.4725636-1.0078751 1.5202733-1.61737921 2.63-1.53 3 0 3 3 3 4z" fill="#cfd8dc"/><path id="Path" d="m36 18c0 3.753-2.807 6-5 6-1.0896371.0518834-2.1594204-.3047111-3-1 0 0 2.32-.77 2.19-4.36-1.7085566-.9425838-3.2194423-2.2056164-4.45-3.72 1.1775152-1.0800394 2.6709188-1.7531228 4.26-1.92 1.100816.0056134 2.1879765.2441753 3.19.7 1.7419334.7068441 2.8620074 2.4208365 2.81 4.3z" fill="#02a9f4"/><path id="Path" d="m33.19 13.7c-1.0021002-.4555944-2.0892109-.6941453-3.19-.7-.4292396.0112658-.8544754.0857326-1.262.221 2.532.579 4.262 2.161 4.262 4.779.1153496 2.4944136-1.3521039 4.7913149-3.664 5.735 3.564 1.192 6.664-1.935 6.664-5.735.0520074-1.8791635-1.0680666-3.5931559-2.81-4.3z" fill="#0377bc"/><path id="Path" d="m40 21.74c-.400771 1.326515-1.614399 2.2407815-3 2.26-1.1396389-.0273346-2.2348018-.4477358-3.1-1.19 1.3892299-1.2048382 2.1607969-2.9720939 2.1-4.81.0016565-.0601734-.0016884-.1203804-.01-.18.08.03.14.04.21.06.451699.1104834.919021-.1106601 1.12-.53l1.51-3.02c1.4760051 2.1717356 1.9050701 4.8891472 1.17 7.41z" fill="#9d27b0"/><path id="Path" d="m38.83 14.33-1.51 3.02c-.0432485.0847513-.0988564.1626023-.165.231.3502251 1.3723007.2963991 2.8165747-.155 4.159-.2849852.8253944-.8661839 1.5156347-1.631 1.937.5178996.2113406 1.0716425.3210027 1.631.323 1.385601-.0192185 2.599229-.933485 3-2.26.7350701-2.5208528.3060051-5.2382644-1.17-7.41z" fill="#6a1b9a"/><path id="Path" d="m59 37c0 5-3 12-14 12-2.2092708.0207369-4.4085025-.2997033-6.52-.95-.4523848 2.4268692.095837 4.9335412 1.52 6.95.8672235 1.1194504 1.6589735 2.2953829 2.37 3.52.1697574.3102528.1630156.6870969-.0177306.9910791-.1807461.3039822-.5086122.4898876-.8622694.4889209h-30.13c-.3686509.0017854-.7083844-.1994034-.884036-.5235224s-.1587287-.7185927.044036-1.0264776c.3485068-.5352094.7653588-1.0226573 1.24-1.45h.24c11 0 14-13 10-22-3.11-6.99-1.39-11.56-.47-13.26.2274694-.4122256.1310566-.927824-.23-1.23-1.0786949-.9328785-1.8753049-2.1485746-2.3-3.51-.1072368-.3051948-.1613541-.6265162-.16-.95-.01-1.9 1.59-3.81 3.46-3.72 1.1101102.1083394 2.1073042.7251223 2.7 1.67.25.33.49.64.74.92 1.2305577 1.5143836 2.7414434 2.7774162 4.45 3.72.13 3.59-2.19 4.36-2.19 4.36.8405796.6952889 1.9103629 1.0518834 3 1 1.0756986-.0470828 2.1012809-.4679252 2.9-1.19.8651982.7422642 1.9603611 1.1626654 3.1 1.19 1.385601-.0192185 2.599229-.933485 3-2.26 1.83 1 4.24.65 4.86-2.24 1.47 1.2 3.52 2.75 6.14 4.5 6 4 8 8 8 13z" fill="#f5f5f5"/><path id="Path" d="m40 55c-1.3018811-1.8160121-1.8730339-4.0552879-1.6-6.273-.634-.0986667-1.239-.2206667-1.815-.366-.288849-.0700537-.5938899-.006899-.8311789.1720848-.2372891.1789837-.3818206.4549349-.3938211.7519152-.1395505 2.0382824.4408606 4.0608736 1.64 5.715.8672235 1.1194504 1.6589735 2.2953829 2.37 3.52.1697574.3102528.1630156.6870969-.0177306.9910791-.1807461.3039822-.5086122.4898876-.8622694.4889209h3c.3536572.0009667.6815233-.1849387.8622694-.4889209.1807462-.3039822.187488-.6808263.0177306-.9910791-.7110265-1.2246171-1.5027765-2.4005496-2.37-3.52z" fill="#cfd8dc"/><path id="Path" d="m51 24c-2.62-1.75-4.67-3.3-6.14-4.5-.1179194.6298326-.3854255 1.2221187-.78 1.727 1.126.844 2.42 1.773 3.92 2.773 6 4 8 8 8 13 0 4.774-2.754 11.356-12.577 11.942.512.033 1.032.058 1.577.058 11 0 14-7 14-12s-2-9-8-13z" fill="#cfd8dc"/><path id="Path" d="m57.99 57.24c.0737274.7050663-.1553474 1.4082829-.6302154 1.9346426s-1.1508748.826366-1.8597846.8253574l-5.5.0000025v-18.0000025h1c1.6568542 0 3 1.3431458 3 3v8.64c.0005515.7508787.6091213 1.3594485 1.36 1.36 1.3177005-.0278617 2.4478029.934659 2.63 2.24z" fill="#f44335"/><path id="Path" d="m55.36 55c-.7508787-.0005515-1.3594485-.6091213-1.36-1.36v-8.64c0-1.6568542-1.3431458-3-3-3h-1v.776c.6350581.5649372.9988582 1.3740285 1 2.224v8.64c.0005515.7508787.6091213 1.3594485 1.36 1.36 1.3177005-.0278617 2.4478029.934659 2.63 2.24.0737274.7050663-.1553474 1.4082829-.6302154 1.9346426s-1.1508748.826366-1.8597846.8253574h3c.7089098.0010086 1.3849166-.2989977 1.8597846-.8253574s.7039428-1.2295763.6302154-1.9346426c-.1821971-1.305341-1.3122995-2.2678617-2.63-2.24z" fill="#c81e1e"/><path id="Rectangle" d="m46 42h4v18h-4z" fill="#ffdc00"/><path id="Path" d="m46 42v18.0000025l-5.5-.0000025c-.7089098.0010086-1.3849166-.2989977-1.8597846-.8253574s-.7039428-1.2295763-.6302154-1.9346426c.0678738-.6299206.3802725-1.2080377.87-1.61.4971731-.4054193 1.1184852-.6278208 1.76-.63.7508787-.0005515 1.3594485-.6091213 1.36-1.36v-8.64c0-1.6568542 1.3431458-3 3-3z" fill="#02a9f4"/><path id="Path" d="m58.466 18.708c-1.707 2.466-5.312 2.4-5.312 2.4s-1.328-3.352.379-5.818c.9495889-1.3440674 2.8046854-1.6722511 4.1577638-.7355467s1.6989706 2.7885808.7752362 4.1505467z" fill="#02a9f4"/><path id="Path" d="m20 5c0 3-3 5-3 5s-3-2-3-5c0-1.65685425 1.3431458-3 3-3s3 1.34314575 3 3z" fill="#02a9f4"/><path id="Path" d="m7.886 9.632c2.368 1.842 2.1 5.438 2.1 5.438s-3.42 1.14-5.788-.7c-1.30836257-1.0184131-1.54341308-2.9046374-.525-4.213 1.01841308-1.30836257 2.90463743-1.54341308 4.213-.525z" fill="#02a9f4"/><g fill="#000"><path id="Shape" d="m51.556 23.168c-2.509-1.675-4.39-3.1-5.626-4.09.016-.128.03-.258.04-.391 1.9538434-.6971858 3.1963498-2.6191751 3.03-4.687 0-4.351-2.506-5-4-5-1.0014322-.03350107-1.9769455.32201296-2.722.992-.035-.034-.073-.064-.109-.1l3.731-7.444c.2107256-.41247351.1106188-.91567408-.2419293-1.21608976-.352548-.30041567-.8652578-.31941268-1.2390707-.04591024l-7.735 5.525c-1.5159699-.47434588-3.0955545-.7141163-4.684-.711-6.287 0-9.181 3.435-10.315 5.375-.8716427.1249403-1.6809734.5238273-2.311 1.139-.7375645.7109453-1.2418167 1.6291307-1.446 2.633-2.7387444.2878677-5.1909328 1.8247299-6.644 4.164-2.956 4.774-1.747 12.22-.213 16.061.957 2.391.945 4.682-.034 6.127-.6843027.9922579-1.83310626 1.56004-3.037 1.501-.825 0-1.806-.216-2.056-1.9-.11827568-.7757981-.67933422-1.4107361-1.43467751-1.6235938-.75534328-.2128577-1.56537423.0357036-2.07132249.6355938-1.47018051 1.6210007-2.3319177 3.7021773-2.438 5.888 0 3.619 0 10.905 9.693 11.89-.006.009-.015.019-.021.029-.39085853.6233445-.41306028 1.4095925-.058 2.054.34794246.6382512 1.0190941 1.0330236 1.746 1.027h44.14c.9906182.0001011 1.9348824-.4195882 2.5986025-1.1549793.66372-.7353911.9847236-1.7175982.8833975-2.7030207-.2371298-1.8148334-1.7948852-3.1650313-3.625-3.142-.1971657 0-.357-.1598343-.357-.357v-6.443c3.2033731-2.4035753 5.0622282-6.1956397 5-10.2 0-5.749-2.525-9.886-8.444-13.832zm-12.489-1.789c-.2616668.9333501-1.0981805 1.5893678-2.067 1.621-.5341822-.0064647-1.0594699-.1376154-1.534-.383.8542581-1.0898542 1.3733136-2.4045168 1.494-3.784.5480645-.1465829 1.0057881-.5233386 1.255-1.033l.6-1.21c.64415 1.5171228.7333697 3.2126517.252 4.789zm-7.877-2.761c-.016505-.6096667-.0867775-1.2166876-.21-1.814-.0858698-.4514231-.4708015-.7846001-.9298727-.8048497-.4590712-.0202497-.8718438.2777406-.9971273.7198497-.6551406-.502214-1.2694014-1.0556171-1.837-1.655.8157124-.5980562 1.7773371-.9655737 2.784-1.064.9507272.0089676 1.8894719.2131906 2.758.6.4039158.1871883.7793052.4306022 1.115.723.7588723.677628 1.1727163 1.6606453 1.127 2.677.0613545 1.5463779-.5827754 3.0369629-1.751 4.052-.6188119.564494-1.412819.8991844-2.249.948-.3815186.0022334-.7617075-.0451641-1.131-.141.9911442-1.1793714 1.4670983-2.7073967 1.321-4.241zm8.768-4.306 1.27-2.538c.13.135.263.267.384.408 1.4452549 1.6045747 2.2892188 3.6607647 2.388 5.818.0037795.4332373-.0360884.8657536-.119 1.291l-.009.045c-.0924552.7379863-.5331255 1.3869059-1.185 1.745-.4695826.1891507-.9897899.2117377-1.474.064.3975771-2.3543759-.0467489-4.7735626-1.255-6.833zm7.042-.312c.0812543.9833022-.3481021 1.9394415-1.137 2.532-.3348347-1.8383547-1.1072572-3.5691025-2.252-5.046.376255-.3464703.8788127-.5223113 1.389-.486 1.421 0 2 .869 2 3zm-9.064-.117-1.171 2.43c-.27383-.9562697-.8133953-1.8152049-1.556-2.477-.4812186-.4217233-1.0199403-.7729025-1.6-1.043-.429454-.1972775-.8751007-.3572018-1.332-.478l10.023-7.161zm-5.936-5.883c.8560023.00045578 1.7101886.0787785 2.552.234l-3.645 2.6c-.3862647.2839066-.6566087.6981263-.761 1.166h-.146c-1.48334.1057648-2.9041199.6396862-4.09 1.537-.036-.048-.073-.088-.109-.136-.5036302-.7119672-1.1733169-1.2903486-1.951-1.685 1.15-1.591 3.55-3.716 8.15-3.716zm-30 38c.11110869-1.7163361.80467136-3.3433509 1.966-4.612.1278251 2.1059405 1.92678365 3.7167085 4.034 3.612 1.86826983.0608128 3.6381946-.8367839 4.693-2.38 1.371-2.025 1.457-4.938.236-7.991-1.43-3.577-2.357-10.368.056-14.266 1.1083019-1.7639984 2.9484108-2.9388794 5.015-3.202.017.052.033.1.052.155.1459635.4372979.3227398.8636997.529 1.276-6.493 5.663-3.983 12.757-2.135 17.981.211.6.417 1.179.606 1.743 1.0869221 3.3973435.5855345 7.1035711-1.365 10.09-1.0391675 1.5844661-2.7925683 2.5548783-4.687 2.594-4.8 0-4.994-3.589-5-4 0-.5522847-.44771525-1-1-1s-1 .4477153-1 1c0 2.075 1.463 6 7 6 2.5391362-.0324243 4.899351-1.3135234 6.31-3.425 2.3370155-3.5041145 2.9405608-7.8855293 1.638-11.891-.191-.576-.4-1.169-.616-1.778-1.808-5.106-3.832-10.866 1.357-15.606.2904976.3494508.6121539.6717766.961.963-.965 1.786-2.858 6.739.436 14.142 2.351 5.291 2.087 11.921-.644 16.123-1.8208586 2.8833197-5.0337417 4.5852876-8.442 4.472h-.23c-9.77-.091-9.77-6.054-9.77-10zm38.492 13c-.4237959-.0021922-.8268877-.1835557-1.1096267-.4992555-.282739-.3156999-.4187369-.7362713-.3743733-1.1577445.1289685-.7955634.8295379-1.3710159 1.635-1.343 1.300822-.002202 2.354798-1.056178 2.357-2.357v-8.643c0-1.1045695.8954305-2 2-2v16zm-1.13-9.679c.528.132 1.074.244 1.638.34v3.983c0 .1971657-.1598343.357-.357.357-.033 0-.064.008-.1.009-.877128-1.4002167-1.2903896-3.0413659-1.181-4.69zm9.638-6.321v16h-2v-16zm6.357 13c.8051373-.028086 1.5055824.5468359 1.635 1.342.0448072.4230182-.0921011.845168-.3766474 1.1613728-.2845462.3162049-.689968.4967249-1.1153526.4966272h-4.5v-16c1.1045695 0 2 .8954305 2 2v8.643c.002202 1.300822 1.056178 2.354798 2.357 2.357zm-.394-11.367c-.1853075-2.0523478-1.9023141-3.6263788-3.963-3.633h-6c-2.209139 0-4 1.790861-4 4v2.632c-.7513947-.1328438-1.4938215-.3121884-2.223-.537-3.2048192-.8937281-6.000607-2.8710296-7.911-5.595-.2761424-.4788308-.8881691-.6431423-1.367-.367-.4788308.2761424-.6431423.8881691-.367 1.367 1.9802056 2.942265 4.8878633 5.1374409 8.26 6.236-.2167194 2.0438627.1960286 4.1051607 1.183 5.908-.8666003.5587045-1.4377831 1.4758251-1.557 2.5-.0590229.6380341.0582379 1.2800279.339 1.856l-25.987-.02c.2371227-.3580395.512768-.689015.822-.987 4.0204349.0682926 7.7845539-1.9682827 9.927-5.371 3.128-4.813 3.447-12.057.8-18.026-2.939-6.596-1.335-10.854-.519-12.367.4561414-.8337148.2626059-1.8732888-.463-2.487-.9411439-.8185864-1.6340155-1.8845693-2-3.077-.0671607-.1952879-.1009664-.4004886-.1-.607v-.02c.0188783-.7874543.348962-1.5353566.918-2.08.3914859-.4134147.9398008-.6416067 1.509-.628.8037749.1098712 1.5150891.5764874 1.936 1.27.267.353.525.683.774.961 1.1856851 1.4392884 2.6027245 2.6711293 4.193 3.645-.115 2.264-1.442 2.822-1.487 2.839-.3290561.1093007-.578009.3812566-.6578789.7186663-.0798699.3374098.0207433.6921133.2658789.9373337 1.0255261.89204 2.3540304 1.3569449 3.712 1.299 1.0462503-.0320907 2.0603852-.3688613 2.918-.969.9102187.6179591 1.9819214.9549091 3.082.969 1.4292831.0087957 2.7534739-.7496843 3.469-1.987.4566974.1475211.9330931.225066 1.413.23.5642903.0045623 1.1229485-.1124217 1.638-.343.7780648-.3676844 1.4114249-.9841549 1.8-1.752 1.246.971 2.959 2.239 5.123 3.685 5.369 3.576 7.557 7.102 7.557 12.167.0326363 2.8450475-1.0587403 5.588043-3.037 7.633z" fill-rule="nonzero"/><path id="Path" d="m49 32.972c-.007732-.5522847-.4617153-.993732-1.014-.986s-.993732.4617153-.986 1.014c-.0112942.5338153.1957906 1.0491116.5733395 1.4266605s.8928452.5846337 1.4266605.5733395c.5600167 0 1.0139999-.4539833 1.0139999-1.014s-.4539832-1.014-1.0139999-1.014z"/><path id="Path" d="m53 30c-.5522847 0-1 .4477153-1 1-.0112942.5338153.1957906 1.0491116.5733395 1.4266605s.8928452.5846337 1.4266605.5733395c.5600167 0 1.014-.4539833 1.014-1.014s-.4539833-1.014-1.014-1.014c-.0151629-.54132-.4584677-.9722123-1-.972z"/><path id="Path" d="m33 55c.49538.0985528.9489018.3458967 1.3.709.3929089.3784551 1.0166378.3721707 1.4018415-.0141242.3852036-.3862949.3897235-1.0100391.0101585-1.4018758-.7242908-.7358502-1.6842927-1.1935502-2.712-1.293-.5522847 0-1 .4477153-1 1s.4477153 1 1 1z"/><path id="Path" d="m59.532 50.846c.316323-.1835812.5071931-.5252043.497713-.8908168-.0094802-.3656124-.217798-.6968848-.5432099-.8638262s-.7160019-.1429182-1.0185031.062643c-.9200763.6560589-1.4667944 1.7159769-1.468 2.846.002705.5464534.4435672.9895421.99.995h.01c.5468633.0000536.9923439-.4391903 1-.986.0079528-.4447652.2007068-.8661429.532-1.163z"/><path id="Path" d="m34.6 28.2c-.4418278-.3313708-1.0686292-.2418278-1.4.2s-.2418278 1.0686292.2 1.4l1.6 1.2h-4c-.5522847 0-1 .4477153-1 1s.4477153 1 1 1h7c.4304304 0 .8125693-.2754301.9486833-.6837722.136114-.4083422-.004339-.8579696-.3486833-1.1162278z"/><path id="Shape" d="m53.136 22.111h.046c.479 0 4.207-.09 6.106-2.834.8273827-1.1745911.9612622-2.7026895.3507329-4.0032587-.6105294-1.3005692-1.8716706-2.1737997-3.3038935-2.2876587-1.4322229-.1138589-2.8154918.5491461-3.6238394 1.7369174-1.989 2.874-.55 6.6-.487 6.756.1485262.3754701.5082852.6247767.912.632zm1.219-6.249c.4067469-.5875233 1.0960364-.9134203 1.8082199-.8549288s1.3390634.4924853 1.6445 1.1385c.3054367.6460148.243027 1.4059055-.1637199 1.9934288-.9375207 1.1294138-2.2974752 1.824574-3.762 1.923-.4212922-1.4059584-.2504488-2.9229612.473-4.2z" fill-rule="nonzero"/><path id="Shape" d="m16.445 10.832c.3360369.2241995.7739631.2241995 1.11 0 .145-.094 3.445-2.332 3.445-5.832 0-2.209139-1.790861-4-4-4s-4 1.790861-4 4c0 3.5 3.305 5.738 3.445 5.832zm.555-7.832c1.1045695 0 2 .8954305 2 2-.1272192 1.46324152-.8504129 2.80982821-2 3.724-1.1494021-.91432626-1.8725499-2.26082734-2-3.724 0-1.1045695.8954305-2 2-2z" fill-rule="nonzero"/><path id="Shape" d="m3.589 15.157c1.1612144.8581855 2.57666885 1.3021875 4.02 1.261.91472521-.0004857 1.82442417-.1352559 2.7-.4.3826428-.1280657.6508276-.4735509.68-.876.013-.169.272-4.154-2.487-6.3-1.12665803-.89362154-2.64628959-1.11369988-3.98017533-.57642286-1.33388574.53727701-2.2767153 1.74921226-2.46943209 3.17426596-.19271679 1.4250536.39434196 2.8438829 1.53760742 3.7161569zm.877-4.385c.32575854-.4201582.8061664-.6924134 1.334-.756.08224524-.0105714.16507819-.0159154.248-.016.44371009-.00016117.87466777.1484206 1.224.422 1.07649313.9977402 1.69522801 2.3943235 1.711 3.862-1.42635533.3442328-2.9314162.0914028-4.167-.7-.41869387-.3257836-.69079868-.8045692-.75643861-1.3310014-.06563993-.5264323.08056347-1.057376.40643861-1.4759986z" fill-rule="nonzero"/></g></g></g></svg>