<?xml version="1.0" encoding="iso-8859-1"?>
<!-- Generator: Adobe Illustrator 19.0.0, SVG Export Plug-In . SVG Version: 6.00 Build 0)  -->
<svg version="1.1" id="Capa_1" xmlns="http://www.w3.org/2000/svg" xmlns:xlink="http://www.w3.org/1999/xlink" x="0px" y="0px"
	 viewBox="0 0 512 512" style="enable-background:new 0 0 512 512;" xml:space="preserve">
<path style="fill:#E6E9ED;" d="M275.999,407.266v-22.808l-18.024-18.024h-3.95l-18.026,18.025v22.807
	c0,53.701-43.533,97.234-97.234,97.234h234.469C319.532,504.5,275.999,460.967,275.999,407.266z"/>
<path id="SVGCleanerId_0" style="fill:#312F56;" d="M216.744,403.714l-14.215,14.215c-3.889,3.89-10.253,3.89-14.142,0l-4.95-4.95
	c-3.889-3.889-3.889-10.253,0-14.143l17.564-17.564l-5.406,1.938c-1.553,0.558-2.824-0.337-2.824-1.987V355.25h-60.129
	c-8.25,0-15,6.75-15,15v113h3.48C168.778,483.25,208.422,448.963,216.744,403.714z"/>
<g>
	<path id="SVGCleanerId_0_1_" style="fill:#312F56;" d="M216.744,403.714l-14.215,14.215c-3.889,3.89-10.253,3.89-14.142,0
		l-4.95-4.95c-3.889-3.889-3.889-10.253,0-14.143l17.564-17.564l-5.406,1.938c-1.553,0.558-2.824-0.337-2.824-1.987V355.25h-60.129
		c-8.25,0-15,6.75-15,15v113h3.48C168.778,483.25,208.422,448.963,216.744,403.714z"/>
</g>
<path style="fill:#FFC502;" d="M216.744,403.713c-8.322,45.25-47.966,79.537-95.623,79.537h-3.48v11.25c0,5.5,4.5,10,10,10h11.123
	c53.701,0,97.234-43.533,97.234-97.234v-22.807L216.744,403.713z"/>
<g style="opacity:0.15;">
	<path style="fill:#030007;" d="M146.641,494.5V370.25c0-8.25,6.75-15,15-15h-29c-8.25,0-15,6.75-15,15V494.5c0,5.5,4.5,10,10,10
		h11.123c4.632,0,9.186-0.331,13.645-0.957C149.012,501.94,146.641,498.488,146.641,494.5z"/>
</g>
<path style="fill:#312F56;" d="M379.356,355.25h-60.129v25.973c0,1.65-1.271,2.545-2.824,1.987l-5.407-1.938l17.564,17.565
	c3.89,3.89,3.89,10.253,0,14.143l-4.949,4.949c-3.89,3.89-10.253,3.89-14.143,0l-14.216-14.216
	c8.322,45.25,47.967,79.537,95.623,79.537h3.48v-113C394.356,362,387.606,355.25,379.356,355.25z"/>
<path style="fill:#FFC502;" d="M390.876,483.25c-47.656,0-87.301-34.287-95.623-79.537l-19.254-19.255v22.808
	c0,53.701,43.533,97.234,97.234,97.234h11.123c5.5,0,10-4.5,10-10v-11.25L390.876,483.25L390.876,483.25z"/>
<g>
	<path style="fill:#B2762F;" d="M154.779,239.78V190h-11.864c-13.06,0-23.646,10.587-23.646,23.645v25.701
		c0,13.059,10.586,23.645,23.646,23.645h14.542C155.708,255.538,154.779,247.768,154.779,239.78z"/>
	<path style="fill:#B2762F;" d="M369.083,190h-11.865v49.78c0,7.987-0.929,15.758-2.678,23.212h14.543
		c13.06,0,23.645-10.587,23.645-23.645v-25.701C392.727,200.587,382.142,190,369.083,190z"/>
</g>
<path style="fill:#D19546;" d="M154.779,187.822v51.958c0,32.622,15.437,61.635,39.4,80.146c0.418-0.11,0.898-0.099,1.416,0.087
	l43.976,15.763c0.554,0.198,1.068,0.561,1.505,1.013h29.845c0.438-0.452,0.952-0.814,1.506-1.013l43.977-15.763
	c0.518-0.186,0.997-0.197,1.416-0.087c23.962-18.511,39.398-47.523,39.398-80.146v-51.958L154.779,187.822L154.779,187.822z"/>
<path style="opacity:0.15;fill:#490089;enable-background:new    ;" d="M195.595,320.013l43.976,15.763
	c0.554,0.198,1.068,0.561,1.505,1.013h14.809c-41.818-12.438-72.325-51.149-72.325-97.008v-51.958h-28.781v51.958
	c0,32.622,15.437,61.635,39.4,80.146C194.597,319.815,195.077,319.827,195.595,320.013z"/>
<path style="fill:#203A74;" d="M319.773,276.94c-0.225-0.827-0.84-1.492-1.646-1.781l-44.146-15.852
	c-1.628,1.59-5.044,2.693-8.983,2.693h-9.887c-3.866,0-7.23-2.228-8.893-5.459h-0.044c-0.303,0-0.603,0.052-0.887,0.154
	l-51.419,18.463c-0.806,0.289-1.421,0.954-1.645,1.781c-0.226,0.826-0.033,1.711,0.516,2.368
	c0.57,0.683,14.224,16.693,41.388,16.693c9.073,0,16.562-3.445,21.872-10.016c5.31,6.57,12.799,10.016,21.872,10.016
	c27.163,0,40.817-16.01,41.386-16.692C319.804,278.65,319.997,277.766,319.773,276.94z"/>
<path style="fill:#5DC647;" d="M336.054,125.822C330.201,58.853,296.594,7.5,255.999,7.5s-74.201,51.353-80.055,118.322H336.054z"/>
<path style="fill:#FFC502;" d="M215.777,56.974c1.161,1.173,3.061,1.173,4.222,0l14.833-14.982c1.161-1.173,3.061-1.173,4.222,0
	l14.834,14.982c1.161,1.173,3.061,1.173,4.221,0l14.835-14.982c1.16-1.173,3.061-1.173,4.221,0L292,56.974
	c1.16,1.173,3.06,1.173,4.221,0l11.696-11.813c0.594-0.6,1.313-1.446,1.99-2.318C295.592,20.864,276.705,7.5,255.999,7.5
	c-20.83,0-39.817,13.526-54.163,35.738c0.852,0.647,1.668,1.34,2.246,1.923L215.777,56.974z"/>
<path style="fill:#046699;" d="M336.057,125.822c-0.78-8.926-2.055-17.575-3.771-25.862c-0.77-0.358-1.475-0.806-1.973-1.297
	L315.301,83.86c-1.175-1.158-3.086-1.147-4.246,0.025l-14.834,14.983c-1.16,1.173-3.061,1.173-4.221,0l-14.835-14.983
	c-1.16-1.173-3.061-1.173-4.221,0l-14.835,14.983c-1.161,1.173-3.06,1.173-4.221,0l-14.834-14.983c-1.161-1.173-3.061-1.173-4.222,0
	l-14.833,14.983c-1.161,1.173-3.061,1.173-4.222,0l-14.833-14.983c-1.161-1.173-3.072-1.184-4.247-0.025l-15.011,14.803
	c-0.497,0.49-1.203,0.934-1.971,1.288c-1.718,8.29-2.993,16.941-3.774,25.871H336.057z"/>
<path style="opacity:0.15;fill:#490089;enable-background:new    ;" d="M204.61,125.822c5.148-58.899,31.767-105.709,65.724-116.139
	C265.68,8.255,260.891,7.5,255.999,7.5c-40.595,0-74.201,51.353-80.055,118.322H204.61z"/>
<path style="fill:#312F56;" d="M121.999,187.822c-17.102,0-33.83-5.911-47.103-16.645c-13.074-10.573-22.313-25.379-26.017-41.691
	c-0.202-0.89,0.012-1.823,0.582-2.536c0.569-0.713,1.432-1.128,2.344-1.128h408.387c0.912,0,1.775,0.415,2.345,1.128
	c0.569,0.713,0.783,1.646,0.581,2.536c-3.703,16.312-12.942,31.117-26.017,41.691c-13.272,10.734-30,16.645-47.103,16.645H121.999z"
	/>
<path style="fill:#FFC502;" d="M56.381,149.071h399.236c3.393-6.128,5.942-12.72,7.501-19.585c0.202-0.89-0.012-1.823-0.581-2.536
	c-0.569-0.713-1.433-1.128-2.345-1.128H51.805c-0.913,0-1.775,0.415-2.344,1.128s-0.783,1.646-0.582,2.536
	C50.438,136.352,52.988,142.943,56.381,149.071z"/>
<path style="fill:#C0272D;" d="M350.981,180.749L332.233,162l-18.749,18.749L294.736,162l-18.749,18.749L257.239,162l-18.749,18.749
	L219.741,162l-18.749,18.749L182.244,162l-18.748,18.749L144.747,162l-18.748,18.749L107.25,162l-18.181,18.182
	c10.193,4.977,21.474,7.641,32.929,7.641h268c12.076,0,23.96-2.96,34.578-8.472L407.227,162l-18.749,18.749L369.73,162
	L350.981,180.749z"/>
<g>
	<path style="fill:#EF5050;" d="M241.075,366.434c-0.437,0.452-0.951,0.814-1.505,1.013l-38.569,13.825l-17.564,17.564
		c-3.889,3.89-3.89,10.254,0,14.143l4.95,4.95c3.889,3.89,10.253,3.89,14.142,0l51.495-51.495L241.075,366.434L241.075,366.434z"/>
	<path style="fill:#EF5050;" d="M328.56,398.837l-17.564-17.565l-38.569-13.825c-0.554-0.198-1.068-0.561-1.505-1.013h-12.947
		l51.494,51.495c3.89,3.89,10.253,3.89,14.143,0l4.949-4.949C332.45,409.09,332.45,402.727,328.56,398.837z"/>
</g>
<g>
	<path style="fill:#C0272D;" d="M316.403,320.013l-43.977,15.763c-0.554,0.198-1.068,0.561-1.506,1.013h5.773v29.646h-5.772
		c0.436,0.452,0.951,0.814,1.505,1.013l43.977,15.764c1.554,0.558,2.824-0.337,2.824-1.987V322
		C319.227,320.35,317.957,319.455,316.403,320.013z"/>
	<path style="fill:#C0272D;" d="M234.392,366.434v-29.646h6.684c-0.438-0.452-0.952-0.814-1.505-1.013l-43.976-15.763
		c-1.553-0.558-2.824,0.337-2.824,1.987v59.223c0,1.65,1.271,2.545,2.824,1.987l43.976-15.764c0.554-0.198,1.068-0.561,1.505-1.013
		h-6.684V366.434z"/>
</g>
<rect x="234.389" y="336.79" style="fill:#EF5050;" width="42.3" height="29.646"/>
<path d="M234.127,303.5c8.402,0,15.833-2.424,21.872-7.077c6.039,4.653,13.47,7.077,21.872,7.077
	c30.132,0,45.497-17.408,47.147-19.39c2.111-2.533,2.857-5.946,1.994-9.137c-0.866-3.188-3.24-5.759-6.35-6.874l-38.163-13.703
	v-1.938c0-4.143-3.357-7.5-7.5-7.5s-7.5,3.357-7.5,7.5v1.791c-0.661,0.142-1.51,0.25-2.5,0.25h-9.887c-1.355,0-2.5-1.145-2.5-2.5
	v-28.365c0-4.143-3.358-7.5-7.5-7.5s-7.5,3.357-7.5,7.5v27.849l-46.275,16.615c-3.114,1.117-5.488,3.69-6.347,6.865
	c-0.871,3.191-0.126,6.612,1.987,9.143C188.63,286.092,203.995,303.5,234.127,303.5z M243.697,265.235
	c3.068,2.649,7.052,4.265,11.415,4.265h9.887c3.72,0,7.059-0.699,9.804-1.93l33.063,11.872c-5.649,4.032-15.581,9.058-29.994,9.058
	c-6.765,0-12.161-2.433-16.039-7.23c-1.424-1.762-3.567-2.785-5.833-2.785c-2.265,0-4.409,1.023-5.833,2.785
	c-3.877,4.798-9.274,7.23-16.039,7.23c-14.412,0-24.344-5.025-29.995-9.058L243.697,265.235z"/>
<path d="M190.881,230.155c4.142,0,7.5-3.357,7.5-7.5c0-4.497,3.659-8.155,8.156-8.155c4.497,0,8.156,3.658,8.156,8.155
	c0,4.143,3.358,7.5,7.5,7.5s7.5-3.357,7.5-7.5c0-12.768-10.388-23.155-23.156-23.155c-12.769,0-23.156,10.388-23.156,23.155
	C183.381,226.798,186.738,230.155,190.881,230.155z"/>
<path d="M305.461,199.5c-12.768,0-23.155,10.388-23.155,23.155c0,4.143,3.358,7.5,7.5,7.5c4.143,0,7.5-3.357,7.5-7.5
	c0-4.497,3.658-8.155,8.155-8.155s8.156,3.658,8.156,8.155c0,4.143,3.357,7.5,7.5,7.5s7.5-3.357,7.5-7.5
	C328.617,209.888,318.229,199.5,305.461,199.5z"/>
<path d="M468.397,122.27c-2.004-2.509-4.994-3.947-8.205-3.947H342.833C334.929,49.842,299.169,0,255.999,0
	c-43.169,0-78.929,49.842-86.833,118.322h-30.167c-4.142,0-7.5,3.357-7.5,7.5c0,4.142,3.358,7.5,7.5,7.5h315.306
	c-0.901,2.822-2,5.575-3.264,8.249H60.957c-1.264-2.674-2.362-5.427-3.264-8.249h42.306c4.142,0,7.5-3.357,7.5-7.5
	c0-4.143-3.358-7.5-7.5-7.5H51.805c-3.212,0-6.204,1.439-8.204,3.947c-2.004,2.509-2.746,5.743-2.035,8.877
	c4.074,17.946,14.236,34.233,28.614,45.861c13.525,10.939,30.311,17.314,47.663,18.197c-3.811,5.168-6.074,11.542-6.074,18.44
	v25.701c0,17.174,13.972,31.145,31.146,31.145h8.789c6.009,20.372,17.852,38.256,33.567,51.752v25.506h-52.629
	c-12.407,0-22.5,10.094-22.5,22.5V494.5c0,9.649,7.851,17.5,17.5,17.5h256.715c9.649,0,17.5-7.851,17.5-17.5V370.25
	c0-12.406-10.094-22.5-22.5-22.5h-52.629v-25.425c3.365-2.878,6.572-5.967,9.587-9.269c2.793-3.06,2.576-7.803-0.482-10.596
	c-3.059-2.793-7.803-2.576-10.596,0.482c-3.206,3.512-6.659,6.748-10.317,9.7c-0.352,0.087-0.701,0.185-1.046,0.309l-43.976,15.763
	c-0.45,0.161-0.888,0.354-1.311,0.573h-25.173c-0.423-0.219-0.861-0.412-1.311-0.573l-43.972-15.761
	c-0.325-0.116-0.653-0.212-0.982-0.295c-21.252-17.195-34.868-43.476-34.868-72.879v-44.458H349.72v44.458
	c0,10.213-1.631,20.25-4.847,29.834c-1.317,3.927,0.797,8.179,4.725,9.496c3.928,1.318,8.178-0.797,9.496-4.725
	c0.433-1.29,0.836-2.59,1.22-3.894h8.772c17.173,0,31.145-13.972,31.145-31.145v-25.701c0-6.898-2.264-13.272-6.074-18.44
	c17.353-0.883,34.14-7.258,47.664-18.196c14.378-11.628,24.54-27.915,28.614-45.86C471.143,128.016,470.402,124.78,468.397,122.27z
	 M255.999,15c16.506,0,31.941,10.114,44.363,27.131l-6.252,6.314l-11.613-11.729c-1.98-2.002-4.624-3.105-7.442-3.105
	s-5.462,1.104-7.439,3.103l-11.617,11.731l-11.615-11.73c-1.982-2.001-4.624-3.104-7.441-3.104s-5.459,1.103-7.44,3.104
	l-11.615,11.73l-6.252-6.314C224.058,25.114,239.493,15,255.999,15z M203.436,55.169l7.011,7.081
	c1.982,2.001,4.624,3.104,7.441,3.104s5.459-1.103,7.44-3.104l11.615-11.73l11.615,11.73c1.981,2.002,4.624,3.104,7.442,3.104
	c2.817-0.001,5.46-1.103,7.438-3.103l11.616-11.731l11.613,11.729c1.98,2.002,4.624,3.105,7.442,3.105s5.462-1.104,7.441-3.104
	l7.011-7.081c3.563,6.557,6.754,13.77,9.507,21.529c-3.981-2.083-9.025-1.442-12.344,1.911l-11.614,11.73L282.497,78.61
	c-1.98-2.002-4.624-3.105-7.442-3.105s-5.462,1.104-7.439,3.103L255.999,90.34l-11.615-11.73c-1.982-2.001-4.624-3.104-7.441-3.104
	s-5.459,1.103-7.44,3.104l-11.615,11.73l-11.614-11.73c-3.319-3.352-8.362-3.993-12.344-1.91
	C196.683,68.938,199.875,61.727,203.436,55.169z M184.296,118.322c0.59-4.729,1.311-9.37,2.178-13.893
	c0.16-0.143,0.327-0.279,0.477-0.427l11.818-11.652l11.678,11.795c1.982,2.001,4.624,3.104,7.441,3.104s5.459-1.103,7.44-3.104
	l11.615-11.73l11.615,11.73c1.981,2.002,4.624,3.104,7.442,3.104c2.817-0.001,5.46-1.103,7.438-3.103l11.616-11.731l11.613,11.729
	c1.98,2.002,4.624,3.105,7.442,3.105s5.462-1.104,7.441-3.104l11.678-11.795l11.818,11.653c0.149,0.147,0.317,0.285,0.477,0.427
	c0.867,4.523,1.588,9.165,2.178,13.893H184.296V118.322z M127.641,497c-1.355,0-2.5-1.145-2.5-2.5v-3.834
	c48.628-1.845,88.868-36.998,98.508-83.251l4.849-4.849v4.699c0,49.479-40.254,89.734-89.734,89.734h-11.123V497z M248.499,497
	h-55.812c30.418-18.346,50.812-51.696,50.812-89.734v-19.699l5-5V497z M333.864,393.534l-8.073-8.073
	c0.596-1.274,0.937-2.707,0.937-4.238V362.75h52.629c4.136,0,7.5,3.364,7.5,7.5v105.405c-32.789-1.453-61.051-20.589-75.479-48.079
	c1.65,0.505,3.386,0.77,5.163,0.77c4.682,0,9.077-1.816,12.375-5.113l4.949-4.949C340.687,411.459,340.687,400.357,333.864,393.534z
	 M284.194,339.524l27.533-9.868v43.91l-27.533-9.869V339.524z M306.881,387.764l16.376,16.377c0.959,0.958,0.959,2.577,0,3.535
	l-4.949,4.949c-0.627,0.627-1.376,0.721-1.768,0.721s-1.141-0.094-1.768-0.721l-34.342-34.342L306.881,387.764z M278.11,451.149
	c1.739,3.761,6.195,5.401,9.955,3.662c3.76-1.738,5.399-6.194,3.662-9.955c-5.46-11.815-8.228-24.463-8.228-37.591v-4.699
	l4.849,4.849c9.641,46.253,49.88,81.406,98.509,83.251v3.834c0,1.355-1.145,2.5-2.5,2.5h-11.123
	c-23.237,0-45.272-8.847-62.047-24.909c-2.993-2.864-7.741-2.763-10.604,0.23c-2.865,2.992-2.762,7.74,0.229,10.604
	c5.659,5.419,11.846,10.109,18.416,14.075h-55.729V382.565l5,5v19.7C268.499,422.582,271.732,437.347,278.11,451.149z
	 M241.892,344.288h27.302v14.646h-27.302V344.288z M200.271,329.656l26.621,9.542v24.826l-26.621,9.542V329.656z M188.74,404.14
	l16.376-16.375l26.453-9.483l-34.344,34.345c-0.626,0.626-1.376,0.72-1.768,0.72c-0.391,0-1.141-0.094-1.768-0.721l-4.951-4.95
	C187.781,406.717,187.782,405.098,188.74,404.14z M178.134,418.282l4.95,4.949c3.298,3.298,7.692,5.114,12.375,5.114
	c1.778,0,3.513-0.265,5.164-0.77c-14.429,27.49-42.69,46.626-75.48,48.079V370.25c0-0.517,0.053-1.022,0.153-1.51
	c0.7-3.414,3.729-5.99,7.347-5.99h52.629v18.473c0,1.531,0.341,2.963,0.936,4.237l-8.073,8.073
	C171.31,400.357,171.31,411.46,178.134,418.282z M101.947,156.697l-14.24,14.241c-2.821-1.663-5.533-3.523-8.094-5.594
	c-3.273-2.647-6.276-5.591-8.982-8.773h31.456C102.041,156.614,101.991,156.652,101.947,156.697z M102.445,177.412l4.806-4.806
	l7.284,7.284C110.429,179.431,106.38,178.605,102.445,177.412z M112.553,156.696c-0.044-0.044-0.093-0.082-0.138-0.125h27.167
	c-0.045,0.043-0.094,0.081-0.138,0.125l-13.445,13.447L112.553,156.696z M142.915,255.492c-8.903,0-16.146-7.243-16.146-16.146
	v-25.701c0-8.902,7.243-16.145,16.146-16.145h4.364v20.951h-5.291c-4.142,0-7.5,3.357-7.5,7.5s3.358,7.5,7.5,7.5h5.291v6.329
	c0,5.335,0.393,10.58,1.14,15.712H142.915z M137.031,180.322l7.716-7.716l7.716,7.716H137.031z M150.051,156.696
	c-0.044-0.044-0.093-0.082-0.138-0.125h27.167c-0.045,0.043-0.094,0.081-0.138,0.125l-13.445,13.446L150.051,156.696z
	 M174.529,180.322l7.716-7.716l7.716,7.716H174.529z M187.548,156.696c-0.044-0.044-0.093-0.082-0.138-0.125h27.167
	c-0.045,0.043-0.094,0.081-0.138,0.125l-13.445,13.446L187.548,156.696z M212.026,180.322l7.716-7.716l7.716,7.716H212.026z
	 M225.045,156.696c-0.044-0.044-0.093-0.082-0.138-0.125h27.167c-0.045,0.043-0.094,0.081-0.138,0.125l-13.446,13.446
	L225.045,156.696z M249.524,180.322l7.715-7.716l7.715,7.716H249.524z M262.543,156.697c-0.044-0.045-0.094-0.083-0.139-0.126
	h27.166c-0.045,0.043-0.094,0.081-0.138,0.125l-13.445,13.446L262.543,156.697z M287.021,180.322l7.715-7.716l7.715,7.716H287.021z
	 M300.04,156.697c-0.045-0.045-0.094-0.083-0.139-0.126h27.166c-0.045,0.043-0.094,0.081-0.138,0.125l-13.445,13.446L300.04,156.697
	z M324.518,180.322l7.715-7.716l7.715,7.716H324.518z M350.981,170.143l-13.444-13.445c-0.044-0.045-0.094-0.083-0.14-0.126h27.168
	c-0.046,0.043-0.095,0.081-0.139,0.125L350.981,170.143z M369.73,172.606l7.716,7.716h-15.432L369.73,172.606z M385.227,239.347
	c0,8.902-7.242,16.146-16.145,16.146h-5.515c0.751-5.181,1.15-10.425,1.15-15.712v-6.329h5.291c4.143,0,7.5-3.357,7.5-7.5
	s-3.357-7.5-7.5-7.5h-5.291V197.5h4.365c8.902,0,16.145,7.243,16.145,16.145L385.227,239.347L385.227,239.347z M388.478,170.143
	l-13.444-13.445c-0.045-0.045-0.094-0.083-0.139-0.126h27.166c-0.045,0.043-0.094,0.081-0.138,0.125L388.478,170.143z
	 M400.327,179.508l6.9-6.901l4.198,4.198C407.814,178.015,404.101,178.92,400.327,179.508z M432.384,165.346
	c-2.091,1.69-4.281,3.239-6.547,4.659l-13.307-13.308c-0.044-0.045-0.094-0.083-0.14-0.126h28.977
	C438.661,159.754,435.658,162.698,432.384,165.346z"/>
<g>
</g>
<g>
</g>
<g>
</g>
<g>
</g>
<g>
</g>
<g>
</g>
<g>
</g>
<g>
</g>
<g>
</g>
<g>
</g>
<g>
</g>
<g>
</g>
<g>
</g>
<g>
</g>
<g>
</g>
</svg>
