<svg height="512" viewBox="0 0 45 60" width="512" xmlns="http://www.w3.org/2000/svg"><g id="Page-1" fill="none" fill-rule="evenodd"><g id="030---Mermaid" fill-rule="nonzero" transform="translate(-1 -1)"><path id="Shape" d="m23 30c-1.8609238 2.7873839-3.1241406 5.9301038-3.71 9.23-6.59 1.95-6.71 6.11-8.84 8.42-.3054221.3292407-.65154126.6182334-1.03.86-.28813328-1.4858404-.42881608-2.9965057-.42-4.51 0-.34.01-.68.02-1 .01988202-2.3140757.47443624-4.6038078 1.34-6.75.1590436 1.0983441.7492498 2.0880191 1.64 2.75 0-4 4-7 4-7 .0006845-.8085714-.1415011-1.6109042-.42-2.37 1.8693949-1.5288239 3.3785764-3.4511524 4.42-5.63.671404-1.5838637 1.0378179-3.2802244 1.08-5 .038109-1.1909659-.0625688-2.3823192-.3-3.55.91.57 2.26 1.24 4.22 2.42.36.22.68.42.98.61l-.06.09c.5060462 4.0421028-.5372328 8.1258968-2.92 11.43z" fill="#009688"/><path id="Shape" d="m25.92 18.57.06-.09c-.3-.19-.62-.39-.98-.61-1.96-1.18-3.31-1.85-4.22-2.42.1227371.6116195.2085589 1.2300705.257 1.852.3.177.621.362.963.568.36.22.68.42.98.61l-.06.09c.5060462 4.0421028-.5372328 8.1258968-2.92 11.43-1.8609238 2.7873839-3.1241406 5.9301038-3.71 9.23-3.2113009.7833117-5.8870628 2.9940761-7.262 6 .04828632 1.1029352.17932135 2.2006878.392 3.284.37845874-.2417666.7245779-.5307593 1.03-.86 2.13-2.31 2.25-6.47 8.84-8.42.5853299-3.3012878 1.8485669-6.44542 3.71-9.234 2.3827672-3.3041032 3.4260462-7.3878972 2.92-11.43z" fill="#00695c"/><path id="Shape" d="m43 29c.4973153 2.3068345.4973153 4.6931655 0 7-11.35-2.71-10.78 2.14-11.37 6.46-3.34-4.85.4-9.54 1.37-10.52 3-3.01 0-4.02-2-7.04-1.86-2.8-1.13-3.87-5.02-6.42-.3-.19-.62-.39-.98-.61-1.96-1.18-3.31-1.85-4.22-2.42-1.0435415-.4689948-1.724453-1.4961983-1.75-2.64v-.01c-.02-.24-.03-.51-.03-.8.0018941-.1650445.0220162-.3293746.06-.49.3280637-1.4617751 1.4166063-2.6343456 2.85-3.07 1.6571052-.53565229 3.4084585-.7162393 5.14-.53-1.3506094 1.09034279-2.1814489 2.6975999-2.29 4.43 1.07.45 2.19.97 3.24 1.5 1.2828685.6760712 2.4236184 1.5927452 3.36 2.7.6331399-1.0981778.9417533-2.3534369.89-3.62.91 1.41 2.16 2.44 3.58 1.89 1.2180051 1.9046701 3.0166847 3.3667547 5.13 4.17v.01c.014096-.0014964.0282665.0020463.04.01 5 2 1 5 2 10z" fill="#ffe0b2"/><path id="Shape" d="m21.76 12.34c1.07.45 2.19.97 3.24 1.5 1.2828685.6760712 2.4236184 1.5927452 3.36 2.7.3928603-.6177129.6454613-1.3140724.74-2.04-.3506843-.2456024-.7182641-.4661502-1.1-.66-1.05-.53-2.17-1.05-3.24-1.5.1085511-1.7324001.9393906-3.33965721 2.29-4.43-1.0197447-.08331683-2.0453036-.0632144-3.061.06-1.3183978 1.08329579-2.1260613 2.6667366-2.229 4.37z" fill="#dfc49c"/><path id="Shape" d="m41 19c-.0117335-.0079537-.025904-.0114964-.04-.01v-.01c-2.1133153-.8032453-3.9119949-2.2653299-5.13-4.17-1.42.55-2.67-.48-3.58-1.89-.0064091.6811941-.0838277 1.3598634-.231 2.025.2765877.0088748.5522021-.0370043.811-.135 1.2180051 1.9046701 3.0166847 3.3667547 5.13 4.17v.01c.014096-.0014964.0282665.0020463.04.01 5 2 1 5 2 10 .4371717 2.1181331.4781971 4.2989231.121 6.432.863.128 1.819.315 2.879.568.4973153-2.3068345.4973153-4.6931655 0-7-1-5 3-8-2-10z" fill="#dfc49c"/><path id="Shape" d="m30.521 36.366c-.5676466 2.0946589-.1601964 4.333614 1.109 6.094.429-3.143.249-6.564 4.488-7.152-2.876-.294-4.572.164-5.597 1.058z" fill="#dfc49c"/><path id="Shape" d="m44 47c-2 8-7 13-18 13-5.19 0-10.81-1.26-14.11-5.71.726106-.2807362 1.3815874-.7177238 1.92-1.28 1.8-1.95 2.17-5.21 6.19-7.36.86 1.43 2.44 2.35 5 2.35h.13c5.2-.05 6.11-2.67 6.5-5.53v-.01c.59-4.32.02-9.17 11.37-6.46 0 0 3 3 1 11z" fill="#009688"/><path id="Shape" d="m43 36c-2.2341671-.6403208-4.5650765-.8746988-6.882-.692 1.307812.145031 2.6046291.3761998 3.882.692 0 0 3 3 1 11-1.908 7.634-6.562 12.525-16.542 12.957.517.027 1.032.043 1.542.043 11 0 16-5 18-13s-1-11-1-11z" fill="#00695c"/><path id="Shape" d="m39.26 8.41c.1505865 2.1123965-.6836335 4.1757991-2.26 5.59-.3302128.3475102-.7284955.6232444-1.17.81-1.42.55-2.67-.48-3.58-1.89-.3967107-.610396-.7285145-1.2605973-.99-1.94-1.02-2.61 1-7.49 6-5.52.8470036.44612553 1.5066766 1.18027774 1.86 2.07v.01c.0949855.28013159.1423088.57421185.14.87z" fill="#ffe0b2"/><path id="Shape" d="m39.12 7.54v-.01c-.3533234-.88972226-1.0129964-1.62387447-1.86-2.07-1.1314756-.52108156-2.4192985-.59012318-3.6-.193.2.059.391.111.6.193.8470036.44612553 1.5066766 1.18027774 1.86 2.07v.01c.0949855.28013159.1423088.57421185.14.87.1505865 2.1123965-.6836335 4.1757991-2.26 5.59-.1421387.1378768-.2938505.2655286-.454.382.6242658.5527098 1.5019714.7171836 2.284.428.4415045-.1867556.8397872-.4624898 1.17-.81 1.5763665-1.4142009 2.4105865-3.4776035 2.26-5.59.0023088-.29578815-.0450145-.58986841-.14-.87z" fill="#dfc49c"/><path id="Shape" d="m21.91 8.44c-1.4333937.4356544-2.5219363 1.6082249-2.85 3.07-.0379838.1606254-.0581059.3249555-.06.49 0 .29.01.56.03.8-1.6625137-1.4303097-3.8554758-2.0849253-6.03-1.8-1-4-5-9-5-9s9.32.85 13.91 6.44z" fill="#00838f"/><path id="Shape" d="m21.08 19h-.08c-3-4-7 0-14 0-4.12 0-5-6-5-6 .78594173.6341455 1.67117542 1.1342012 2.62 1.48.77645471.3120301 1.66474012.1177177 2.24-.49 1.58892412-1.745277 3.7862467-2.8153087 6.14-2.99 2.1745242-.2849253 4.3674863.3696903 6.03 1.8v.01c.025547 1.1438017.7064585 2.1710052 1.75 2.64.2374312 1.1676808.338109 2.3590341.3 3.55z" fill="#00bcd4"/><path id="Shape" d="m39.12 7.53c-.3533234-.88972226-1.0129964-1.62387447-1.86-2.07-5-1.97-7.02 2.91-6 5.52.2614855.6794027.5932893 1.329604.99 1.94.0517533 1.2665631-.2568601 2.5218222-.89 3.62-.9363816-1.1072548-2.0771315-2.0239288-3.36-2.7-1.05-.53-2.17-1.05-3.24-1.5.1085511-1.7324001.9393906-3.33965721 2.29-4.43.31-.3.63-.59.95-.91 2-2-1-5 6-5 2.5 0 3.85.77 4.56 1.76.6894258 1.12900527.8914924 2.4893464.56 3.77z" fill="#ff9801"/><path id="Shape" d="m33.662 5.267c-4.556-1.359-6.38 3.211-5.4 5.713.2614855.6794027.5932893 1.329604.99 1.94-.0112641.5297162-.0620721 1.0578515-.152 1.58.8343457.5844898 1.5934101 1.269663 2.26 2.04.6331399-1.0981778.9417533-2.3534369.89-3.62-.3967107-.610396-.7285145-1.2605973-.99-1.94-.7817681-2.23849747.2555376-4.70566124 2.402-5.713z" fill="#f57c00"/><path id="Shape" d="m38.56 3.76c-.71-.99-2.06-1.76-4.56-1.76-.5873327-.00309615-1.1744375.02393937-1.759.081 1.2960157.05743986 2.5048751.66897194 3.319 1.679.2888523.41170414.4890779.87889721.588 1.372.3792883.07763802.7512932.1873661 1.112.328.8470036.44612553 1.5066766 1.18027774 1.86 2.07.3314924-1.2806536.1294258-2.64099473-.56-3.77z" fill="#f57c00"/><path id="Shape" d="m41.83 14.09c-.4708584 1.5925954-.7626614 3.2327293-.87 4.89-2.1133153-.8032453-3.9119949-2.2653299-5.13-4.17.4415045-.1867556.8397872-.4624898 1.17-.81 1.5763665-1.4142009 2.4105865-3.4776035 2.26-5.59.0023088-.29578815-.0450145-.58986841-.14-.87v-.01c.3314924-1.2806536.1294258-2.64099473-.56-3.77 4.22-3.34 4.26-1.4 5.18 1.44.96 2.96-.96 5.92-1.91 8.89z" fill="#dfc49c"/><path id="Shape" d="m16 32s-4 3-4 7c-.8907502-.6619809-1.4809564-1.6516559-1.64-2.75-.1330187-1.1236526.0908872-2.2606748.64-3.25 2-4 3-4 3-6 .6970155.7623563 1.2342516 1.6566164 1.58 2.63.2784989.7590958.4206845 1.5614286.42 2.37z" fill="#00bcd4"/><path id="Shape" d="m26 43.88c-2.0877865.2362288-4.1182844.8352257-6 1.77-4.02 2.15-4.39 5.41-6.19 7.36-.5384126.5622762-1.193894.9992638-1.92 1.28-1.8764063.6538095-3.87907559.8626348-5.85.61l-3.04-4.9s3.83.23 6.42-1.49c.37845874-.2417666.7245779-.5307593 1.03-.86 2.13-2.31 2.25-6.47 8.84-8.42 1.0972685-.3180733 2.2171763-.5520838 3.35-.7z" fill="#ff9801"/><path id="Shape" d="m25.13 48h-.13c-2.56 0-4.14-.92-5-2.35 1.8817156-.9347743 3.9122135-1.5337712 6-1.77.3862323 1.4334203.0627927 2.9651117-.87 4.12z" fill="#f57c00"/><path id="Shape" d="m9.42 48.51c-2.59 1.72-6.42 1.49-6.42 1.49-1-2 0-6 6-7h.02c-.01.32-.02.66-.02 1-.00881608 1.5134943.13186672 3.0241596.42 4.51z" fill="#f57c00"/><g fill="#000"><path id="Shape" d="m37.005 27.181c.3266557.1380242.6773863.2100735 1.032.212.626041.0040433 1.227573-.2430531 1.67-.686.3789722-.3923789.3735524-1.0160848-.0121814-1.4018186s-1.0094397-.3911536-1.4018186-.0121814c-.1504838.1161597-.3555748.1318755-.522.04-.504066-.2463042-.808851-.773254-.771-1.333 0-2.966-1.918-3-2-3-.5151775.0009643-.9453151.3931656-.9937068.9060663-.0483917.5129006.3008007.978631.8067068 1.0759337.155794.3153389.2205534.6678792.187 1.018-.0381159 1.3686888.7537474 2.6250066 2.005 3.181z"/><path id="Shape" d="m37.037 43c.776 0 1.406-.536 1.877-1.594.1450498-.3265408.104874-.70566-.1053937-.9945472-.2102676-.2888873-.5586825-.4436536-.914-.4060001-.3553175.0376536-.6635565.2620065-.8086063.5885473-.028.064-.056.12-.08.169-.0345423-.0558644-.0659249-.1136217-.094-.173-.2253322-.504236-.816764-.7303321-1.321-.505-.504236.2253322-.7303322.816764-.505 1.321.114.266.768 1.594 1.951 1.594z"/><path id="Shape" d="m41.406 44.086c-.242404-.1077098-.5176707-.1146977-.7652275-.0194258s-.4471189.2849968-.5547725.5274258c-.028.064-.056.12-.08.169-.0345423-.0558644-.0659249-.1136217-.094-.173-.2253322-.504236-.816764-.7303321-1.321-.505-.504236.2253322-.7303322.816764-.505 1.321.118.266.768 1.594 1.951 1.594.776 0 1.406-.536 1.877-1.594.1077098-.242404.1146977-.5176707.0194258-.7652275s-.2849968-.4471189-.5274258-.5547725z"/><path id="Shape" d="m36.914 47.406c.1450498-.3265407.104874-.70566-.1053937-.9945472s-.5586825-.4436536-.914-.406c-.3553175.0376535-.6635565.2620065-.8086063.5885472-.028.064-.056.12-.08.169-.0345423-.0558644-.0659249-.1136217-.094-.173-.2253322-.504236-.816764-.7303321-1.321-.505-.504236.2253322-.7303322.816764-.505 1.321.118.266.768 1.594 1.951 1.594.776 0 1.406-.536 1.877-1.594z"/><path id="Shape" d="m37.406 51.086c-.242404-.1077098-.5176707-.1146977-.7652275-.0194258s-.4471189.2849968-.5547725.5274258c-.028.064-.056.12-.08.169-.0345423-.0558644-.0659249-.1136217-.094-.173-.2253322-.504236-.816764-.7303321-1.321-.505-.504236.2253322-.7303322.816764-.505 1.321.118.266.768 1.594 1.951 1.594.776 0 1.406-.536 1.877-1.594.1077098-.242404.1146977-.5176707.0194258-.7652275s-.2849968-.4471189-.5274258-.5547725z"/><path id="Shape" d="m31.406 50.086c-.242404-.1077098-.5176707-.1146977-.7652275-.0194258s-.4471189.2849968-.5547725.5274258c-.028.064-.056.12-.08.169-.0345423-.0558644-.0659249-.1136217-.094-.173-.1457644-.3261835-.454473-.5498251-.8098384-.5866812-.3553653-.0368561-.703399.1186726-.913.408s-.248926.6684977-.1031616.9946812c.118.266.768 1.594 1.951 1.594.776 0 1.406-.536 1.877-1.594.1077098-.242404.1146977-.5176707.0194258-.7652275s-.2849968-.4471189-.5274258-.5547725z"/><path id="Shape" d="m28.406 54.086c-.242404-.1077098-.5176707-.1146977-.7652275-.0194258s-.4471189.2849968-.5547725.5274258c-.028.064-.056.12-.08.169-.0345423-.0558644-.0659249-.1136217-.094-.173-.2253322-.504236-.816764-.7303321-1.321-.505-.504236.2253322-.7303322.816764-.505 1.321.118.266.768 1.594 1.951 1.594.776 0 1.406-.536 1.877-1.594.1077098-.242404.1146977-.5176707.0194258-.7652275s-.2849968-.4471189-.5274258-.5547725z"/><path id="Shape" d="m24.406 50.086c-.242404-.1077098-.5176707-.1146977-.7652275-.0194258s-.4471189.2849968-.5547725.5274258c-.028.064-.056.12-.08.169-.0345423-.0558644-.0659249-.1136217-.094-.173-.1457644-.3261835-.454473-.5498251-.8098384-.5866812-.3553653-.0368561-.703399.1186726-.913.408s-.248926.6684977-.1031616.9946812c.118.266.768 1.594 1.951 1.594.776 0 1.406-.536 1.877-1.594.1077098-.242404.1146977-.5176707.0194258-.7652275s-.2849968-.4471189-.5274258-.5547725z"/><path id="Shape" d="m20.406 53.086c-.242404-.1077098-.5176707-.1146977-.7652275-.0194258s-.4471189.2849968-.5547725.5274258c-.028.064-.056.12-.08.169-.0345423-.0558644-.0659249-.1136217-.094-.173-.1457644-.3261835-.454473-.5498251-.8098384-.5866812-.3553653-.0368561-.703399.1186726-.913.408s-.248926.6684977-.1031616.9946812c.118.266.768 1.594 1.951 1.594.776 0 1.406-.536 1.877-1.594.1077098-.242404.1146977-.5176707.0194258-.7652275s-.2849968-.4471189-.5274258-.5547725z"/><path id="Shape" d="m2.255 46.072c-.73485291 1.3536995-.79041117 2.9741486-.15 4.375h.008c.014.028.021.058.037.084l3.04 4.9c.1561024.2517173.41576082.4212827.709.463.61178691.0745131 1.22770456.1099183 1.844.106 1.29790734.0098239 2.5900538-.1735167 3.834-.544 3.023 3.616 7.976 5.544 14.423 5.544 10.45 0 16.656-4.5 18.97-13.757 1.7-6.8-.066-10.309-.891-11.488.4090314-2.3022744.3750914-4.6614449-.1-6.951-.236263-1.5013272-.1476003-3.0358738.26-4.5.443-2.06.937-4.378-2.216-5.936.1163142-1.3454346.3703097-2.6753928.758-3.969.23-.716.516-1.428.82-2.181.943-2.342 1.919-4.765 1.089-7.322-.085-.264-.163-.519-.236-.763-.415-1.371-.807-2.663-2.012-3.04-.945-.3-2.074.09-3.773 1.328-1.3312571-1.02663551-2.9915259-1.53193472-4.669-1.421-5.133 0-5.8 1.67-6.1 3.688-.0095387.58806812-.2214333 1.15488625-.6 1.605-.207.207-.413.4-.618.594-1.4999052-.11843222-3.0090443.01679529-4.464.4-4.918-5.37-13.742-6.248-14.127-6.287-.03 0-.06 0-.09 0-.38454341-.00014432-.73510465.2202266-.90168187.56681813-.16657722.34659152-.1196578.75799777.12068187 1.05818187 1.81760871 2.30284009 3.3217261 4.83660374 4.473 7.535-2.13083722.4541961-4.07149942 1.5499845-5.561 3.14-.28675792.3135706-.73848888.4153298-1.132.255-.83518798-.2815169-1.61389028-.7087874-2.3-1.262-.30433764-.3078552-.77220392-.3849335-1.15921276-.1909738-.38700883.1939597-.6052743.6149112-.54078724 1.0429738.052.279 1.069 6.855 6 6.855 2.3962867-.0562685 4.774456-.430884 7.072-1.114 3.13-.817 4.626-1.1 5.978.545-.0835405 1.4362773-.4112311 2.8478154-.969 4.174-.7502127 1.6494649-1.8320046 3.1268018-3.178 4.34-.3291747-.5987882-.7323371-1.1538085-1.2-1.652-.2863572-.2830666-.714553-.366777-1.0864301-.2123923-.371877.1543846-.6148863.5167457-.6165699.9193923-.0031441.7652808-.2986341 1.5004283-.826 2.055-.776363 1.1131942-1.4679769 2.2831549-2.069 3.5-.586818 1.0956577-.85070413 2.335333-.761 3.575-.74907567 1.9288925-1.17903604 3.9668979-1.273 6.034-3.729.825-5.239 2.774-5.816 3.908zm1.782.908c.88116877-1.4302665 2.32356029-2.4236801 3.974-2.737.01160646 1.2588669.1205984 2.5149489.326 3.757-1.45052242.6638894-3.02676912 1.008331-4.622 1.01-.12519076-.6936113-.01168736-1.4091762.322-2.03zm2.594 6.976-1.861-3c1.843-.157 4.658-.721 6.416-2.625.6520496-.7656704 1.2084749-1.6078639 1.657-2.508 1.332-2.418 2.835-5.148 9.3-6.209l2.216 3.53c-6.736 1.322-8.481 4.491-9.9 7.071-.373207.7571329-.8347536 1.4674111-1.375 2.116-1.684 1.82-5.206 1.722-6.453 1.625zm22.261-30.844c.3598813.8150346.7863248 1.5990217 1.275 2.344.5311177.7713066 1.1230002 1.4989541 1.77 2.176 1.523 1.669 1.884 2.065.354 3.6-1.986 2-4.756 6.95-1.525 11.734-.5 1.945-1.383 3.408-3.877 3.872.3342846-1.0603561.356156-2.1945445.063-3.267-.0237316-.0789096-.0573306-.1545073-.1-.225l-3.364-5.356c-.2093019-.3336151-.5949276-.5133128-.985-.459-.679.1-1.3.213-1.893.34.6311602-2.5911567 1.7107677-5.0519173 3.19-7.271 2.1251361-2.9411995 3.250621-6.4865998 3.211-10.115.8349652.7063001 1.4813327 1.6090153 1.881 2.627zm-3.741 21.922c.0149425.6880403-.170596 1.3655684-.534 1.95-1.0796472.0113697-2.1333236-.3310751-3-.975 1.1412806-.4458334 2.3255671-.7725678 3.534-.975zm16.869-15.834c.4598258 2.1552278.4649346 4.3826856.015 6.54-.0880739.3416667.0055912.7046192.248.961.026.027 2.558 2.818.747 10.06-2.117 8.463-7.369 12.239-17.03 12.239-5.663 0-9.864-1.5-12.545-4.419.4005083-.2535682.7679856-.5558804 1.094-.9.6517269-.7653413 1.2078206-1.6072053 1.656-2.507.784229-1.6931709 2.0067471-3.1459685 3.541-4.208 1.3610409 1.4265944 3.2871525 2.1722569 5.254 2.034h.139c6.7-.062 7.447-4.429 8.044-7.938.385-2.273.718-4.236 2.332-5.2.4622053-.2892402.6075113-.8954316.3266637-1.3627839-.2808477-.4673523-.8843167-.6235797-1.3566637-.3512161-2.034 1.221-2.675 3.369-3.074 5.462-.854-3.72 2.142-6.8 2.3-6.959 2.875-2.89 1.19-4.735-.3-6.362-.5764795-.6019584-1.1047718-1.2482806-1.58-1.933-.4320851-.6617661-.8093418-1.3577512-1.128-2.081-.852-1.835-1.559-3.071-5.188-5.261-1.1-.664-2.01-1.168-2.759-1.582-2.6-1.448-2.756-1.532-2.756-3.432.0007043-.0993074.0141474-.1981141.04-.294.426-2.133 2.88-2.712 4.836-2.827-.4155096.63211966-.7173817 1.3319756-.892 2.068-.219-.083-.437-.164-.653-.239-.518142-.1726834-1.0789926.1022937-1.2597938.6176592-.1808013.5153656.0853319 1.0804663.5977938 1.2693408 1.6686029.6159798 3.2988499 1.3312582 4.882 2.142 1.9112884 1.0894942 3.4889766 2.6799753 4.563 4.6.2557078.4896004.8598996.6792078 1.3495.4235s.6792078-.8598996.4235-1.3495c-.3851196-.6969136-.8290667-1.3596562-1.327-1.981.1822004-.3897057.323619-.7972057.422-1.216.4247925.3300039.9166154.5631164 1.441.683.2045196.0431693.412974.0649531.622.065.1146477-.0011074.2291503-.0084516.343-.022 1.291655 1.7517985 3.04743 3.1075104 5.069 3.914.0728219.0436487.1511938.0772847.233.1 2.242.913 2.064 1.743 1.595 3.927-.4715434 1.7330376-.5619512 3.5476749-.265 5.319zm-3.764-20.785c.1560787 1.8452652-.572273 3.6551988-1.963 4.878-.788.788-1.3.68-1.46.646-.877-.183-1.94-1.521-2.645-3.327-.4172445-1.33356152-.08361-2.78848314.873-3.807.5339486-.53288539 1.2628684-.82380282 2.017-.805.6041266.01321859 1.2006887.13727639 1.76.366.786517.40182051 1.3190618 1.17134406 1.418 2.049zm3.587-5.415c.3353918.52232061.5726138 1.10148106.7 1.709.077.255.158.522.248.8.606 1.866-.2 3.854-1.043 5.958-.3.754-.617 1.533-.867 2.313-.3675956 1.2017379-.6226929 2.4350428-.762 3.684-1.0971213-.5932649-2.066856-1.396507-2.854-2.364.1542687-.1233398.3018138-.2548619.442-.394 1.7656775-1.598207 2.7044568-3.9155076 2.549-6.292-.0001073-.31071981-.0377125-.62029122-.112-.922.2311658-1.15639861.1270799-2.35477386-.3-3.454 1.567-1.138 1.98-1.038 1.999-1.038zm-13.827 5.373c.227-.215.46-.434.691-.666.6918623-.74570812 1.104521-1.70775399 1.168-2.723.186-1.237.297-1.984 4.125-1.984 1.848 0 3.108.452 3.749 1.345.0812794.11448161.152225.23595934.212.363-.146-.089-.244-.139-.263-.148s-.05-.023-.075-.033c-3.188-1.258-5.11 0-5.975.862-1.5167695 1.58143805-2.0271954 3.87565614-1.324 5.951.2506728.6426299.5547359 1.2631326.909 1.855-.0153798.5322279-.0823603 1.0617082-.2 1.581-.7722765-.726262-1.6423794-1.3408878-2.585-1.826-.724-.364-1.634-.8-2.6-1.23.296094-1.3403146 1.065907-2.52876669 2.168-3.347zm-17.765-4.992c2.677.563 7.051 1.9 10.013 4.78-1.026212.63577296-1.7741923 1.63593758-2.094 2.8-1.3680928-.7180949-2.8986495-1.07016084-4.443-1.022-.8623965-2.3306184-2.0313388-4.53600496-3.476-6.558zm3.316 13.569c-2.1324338.6410561-4.34099209.9941832-6.567 1.05-1.724 0-2.751-1.474-3.334-2.844.182.082.37266667.164.572.246 1.15562361.477592 2.48622714.1896464 3.341-.723 1.40035869-1.55016 3.3389748-2.5082032 5.421-2.679.0539499-.0078202.1071402-.0201978.159-.037v.023c1.7541736-.2139165 3.5227237.2634593 4.931 1.331.1405822 1.1297427.7934219 2.13187 1.77 2.717.042.245.085.491.115.736-1.87-1.002-4.017-.444-6.408.18zm-1.667 16.497c.5603327-1.1351941 1.2058459-2.2263152 1.931-3.264.206-.3.393-.576.553-.847.3327442.6922786.5360887 1.4395696.6 2.205-1.5802683 1.3368103-2.8004171 3.0482505-3.549 4.978-.2406046-1.0459-.0743638-2.1441616.465-3.072zm-.45 6.385c.3066863.2019718.6993994.2196042 1.0229519.0459296.3235525-.1736747.5258872-.5107134.5270481-.8779296 0-3.44 3.565-6.174 3.6-6.2.2518058-.1888544.4-.4852427.4-.8-.0040166-.6961549-.1012133-1.3886389-.289-2.059 1.7859888-1.5217898 3.2215076-3.4120488 4.208-5.541.9319423-2.2381007 1.3146043-4.6667699 1.116-7.083.684.379 1.488.83 2.448 1.409.163.1.314.193.464.286.3805242 3.6816986-.596305 7.3756563-2.747 10.388-1.8396994 2.7403136-3.1205033 5.8167576-3.769 9.053-3.261763.9625148-5.9416542 3.299523-7.339 6.4-.2889506.5495411-.6091417 1.0820799-.959 1.595-.0860646-.8131969-.130456-1.6302654-.133-2.448-.01498062-1.6819364.1659037-3.3598983.539-5 .2624106.3175747.5672695.5975333.906.832z"/></g></g></g></svg>