<?xml version="1.0" encoding="iso-8859-1"?>
<!-- Generator: Adobe Illustrator 19.0.0, SVG Export Plug-In . SVG Version: 6.00 Build 0)  -->
<svg version="1.1" id="Capa_1" xmlns="http://www.w3.org/2000/svg" xmlns:xlink="http://www.w3.org/1999/xlink" x="0px" y="0px"
	 viewBox="0 0 512 512" style="enable-background:new 0 0 512 512;" xml:space="preserve">
<path style="fill:#FFC7A9;" d="M154.281,171.109v59.848c0,32.322,15.15,61.105,38.736,79.638h11.987
	c2.188,0,4.038,1.433,4.712,3.399c-0.001-0.003-0.002-0.007-0.003-0.011c1.024,0.477,2.137,0.983,3.324,1.511
	C213.04,315.543,213,314.551,213,314v-11.565c0-0.94,0.655-1.754,1.574-1.954c0.143-0.031,0.285-0.046,0.426-0.046
	c0.77,0,1.488,0.445,1.818,1.169c6.912,15.124,22.096,24.897,38.682,24.897s31.77-9.772,38.682-24.897
	c0.33-0.724,1.049-1.169,1.818-1.169c0.141,0,0.283,0.015,0.426,0.046c0.919,0.2,1.574,1.014,1.574,1.954V314
	c0,0.45-0.031,1.227-0.029,1.169c1.229-0.563,2.389-1.111,3.485-1.638l0,0c0.79-1.725,2.525-2.937,4.539-2.937h11.988
	c23.586-18.532,38.735-47.315,38.735-79.638v-59.848L154.281,171.109L154.281,171.109z"/>
<g>
	<path style="fill:#B2762F;" d="M163.051,71.027h26.168v-4.398c0-1.65,1.283-3.417,2.853-3.927l36.773-11.947
		c5.821-2.999,12.418-4.702,19.417-4.702c18.547,0,34.309,11.895,40.098,28.467c5.789-16.572,21.551-28.467,40.098-28.467
		c7.641,0,14.803,2.027,20.997,5.559c1.502-13.491,3.943-26.96,7.324-40.378c0.226-0.898,0.025-1.848-0.543-2.577
		s-1.441-1.156-2.366-1.156H157.131c-0.925,0-1.798,0.427-2.366,1.156s-0.769,1.68-0.543,2.577
		C159.224,31.084,162.161,51.046,163.051,71.027z"/>
	<path style="fill:#B2762F;" d="M355.813,152.756c-2.207-9.291-3.982-18.604-5.292-27.931c-6.431,3.917-13.983,6.175-22.064,6.175
		c-18.547,0-34.309-11.893-40.098-28.467C282.57,119.107,266.809,131,248.262,131c-7.004,0-13.605-1.706-19.429-4.708
		c0.003,0.001,0.006,0.003,0.009,0.005l-36.771-11.948c-1.568-0.51-2.852-2.276-2.852-3.927v-4.395h-26.705
		c-1.18,15.611-3.629,31.202-7.319,46.729H355.813z"/>
</g>
<g style="opacity:0.15;">
	<path style="fill:#330068;" d="M163.046,71.027h26.173v-4.398c0-1.52,1.092-3.125,2.488-3.769
		c-1.251-17.252-4.034-34.48-8.355-51.626c-0.225-0.898-0.025-1.848,0.543-2.577s1.441-1.156,2.366-1.156H157.13
		c-0.925,0-1.798,0.427-2.366,1.156s-0.769,1.68-0.543,2.577C159.224,31.084,162.157,51.046,163.046,71.027z"/>
	<path style="fill:#330068;" d="M189.218,110.422v-4.395h-26.717c-0.58,7.664-1.452,15.323-2.637,22.973h29.131
		c0.787-5.083,1.435-10.17,1.954-15.26C189.935,112.95,189.218,111.654,189.218,110.422z"/>
</g>
<path style="fill:#FFC502;" d="M189.219,71.027h-31.625c-2.75,0-5,2.25-5,5v25c0,2.75,2.25,5,5,5h31.624L189.219,71.027z"/>
<path style="fill:#FCDB67;" d="M205.789,88.527c-0.001-16.459,9.367-30.721,23.057-37.772l-36.774,11.947
	c-1.569,0.51-2.853,2.276-2.853,3.927l-0.001,43.793c0,1.65,1.284,3.417,2.852,3.927l36.771,11.948
	C215.155,119.245,205.788,104.984,205.789,88.527z"/>
<path style="fill:#775436;" d="M355.809,152.756c-1.878-7.904-3.444-15.824-4.673-23.756h-9.781c-4.068,1.295-8.399,2-12.897,2
	c-4.497,0-8.827-0.705-12.895-2h-54.406c-4.067,1.295-8.398,2-12.895,2c-4.486,0-8.805-0.707-12.862-2h-75.535
	c-1.229,7.932-2.795,15.852-4.673,23.756H355.809z"/>
<path style="opacity:0.15;fill:#490089;enable-background:new    ;" d="M183.834,152.756c1.878-7.904,3.444-15.824,4.673-23.756
	h-28.643c-1.229,7.932-2.795,15.852-4.673,23.756H183.834z"/>
<path style="fill:#B2762F;" d="M393.391,152.756H118.609c-14.77,0-26.744,11.975-26.744,26.744s11.975,26.744,26.744,26.744h1.049
	c2.795-9.943,11.922-17.236,22.758-17.236h11.865V171.11H356.72v17.898h11.865c10.838,0,19.964,7.293,22.758,17.236h2.049
	c14.77,0,26.744-11.975,26.744-26.744S408.16,152.756,393.391,152.756z"/>
<path id="SVGCleanerId_0" style="fill:#D2957D;" d="M118.609,171.109h274.781c11.537,0,21.369,7.309,25.12,17.547
	c1.043-2.857,1.624-5.938,1.624-9.156c0-14.77-11.975-26.744-26.744-26.744H118.609c-14.77,0-26.744,11.975-26.744,26.744
	c0,3.218,0.581,6.299,1.624,9.156C97.24,178.418,107.072,171.109,118.609,171.109z"/>
<g>
	<path style="fill:#FFB98A;" d="M368.585,189.008H356.72v41.949c0,10.83-1.708,21.26-4.857,31.043h16.722
		c13.06,0,23.644-10.587,23.644-23.645v-25.701C392.228,199.595,381.645,189.008,368.585,189.008z"/>
	<path style="fill:#FFB98A;" d="M154.281,230.957v-41.949h-11.865c-13.059,0-23.645,10.587-23.645,23.646v25.701
		c0,13.059,10.586,23.645,23.645,23.645h16.723C155.989,252.217,154.281,241.787,154.281,230.957z"/>
</g>
<path style="fill:#C5CCD3;" d="M283.363,401.665l-26.273-34.89c-1.654-2.197-4.26-2.125-5.789,0.16l-23.148,34.569
	c-1.529,2.284-3.924,2.216-5.32-0.153l-12.827-21.76V504.5h90.99V380.162l-12.136,21.16
	C287.49,403.707,285.018,403.861,283.363,401.665z"/>
<g>
	<path style="fill:#FFFFFF;" d="M257.09,366.775c-1.654-2.197-4.26-2.125-5.789,0.16l-6.297,9.403V504.5h20.992V378.603
		L257.09,366.775z"/>
	<path style="fill:#FFFFFF;" d="M300.995,315.595c0-0.736,0.171-1.432,0.461-2.063c-1.097,0.526-2.256,1.074-3.485,1.638
		c-0.623,22.895-19.428,41.331-42.471,41.331c-22.934,0-41.671-18.262-42.462-41.006c-1.188-0.527-2.3-1.034-3.324-1.511
		c0.175,0.509,0.291,1.045,0.291,1.611v63.997l12.827,21.76c1.396,2.369,3.791,2.438,5.32,0.153l23.148-34.569
		c1.529-2.285,4.135-2.357,5.789-0.16l26.273,34.89c1.654,2.196,4.127,2.042,5.496-0.343l12.136-21.16v-64.568H300.995z"/>
</g>
<g style="opacity:0.15;">
	<path style="fill:#330068;" d="M209.714,313.983c1.024,0.477,2.137,0.983,3.324,1.511C213.02,314.997,213,314.501,213,314v-11.154
		c-18.516-18.342-30-43.767-30-71.889v-59.848h-28.719v59.848c0,32.322,15.15,61.105,38.736,79.638h11.987
		c2.188,0,4.038,1.433,4.712,3.399C209.716,313.991,209.715,313.987,209.714,313.983z"/>
</g>
<path style="fill:#312F56;" d="M255.5,356.5c-23.435,0-42.5-19.065-42.5-42.5v-11.565c0-0.94,0.655-1.754,1.574-1.954
	c0.143-0.031,0.285-0.046,0.426-0.046c0.77,0,1.488,0.445,1.818,1.169c6.912,15.124,22.096,24.897,38.682,24.897
	s31.77-9.772,38.682-24.897c0.33-0.724,1.049-1.169,1.818-1.169c0.141,0,0.283,0.015,0.426,0.046c0.919,0.2,1.574,1.014,1.574,1.954
	V314C298,337.435,278.935,356.5,255.5,356.5z"/>
<g>
	<ellipse style="fill:#693FBA;" cx="312.15" cy="214.48" rx="13.478" ry="13.529"/>
	<ellipse style="fill:#693FBA;" cx="198.5" cy="214.48" rx="13.477" ry="13.529"/>
</g>
<g>
	<path style="fill:#B2762F;" d="M393.971,355.249H342.34v-39.654c0-2.75-2.25-5-5-5h-31.345c-2.75,0-5,2.25-5,5V504.5h97.976
		c5.5,0,10-4.5,10-10V370.249C408.971,361.999,402.221,355.249,393.971,355.249z"/>
	<path style="fill:#B2762F;" d="M205.005,310.595H173.66c-2.75,0-5,2.25-5,5v39.654h-51.631c-8.25,0-15,6.75-15,15V494.5
		c0,5.5,4.5,10,10,10h97.976V315.595C210.005,312.845,207.755,310.595,205.005,310.595z"/>
</g>
<g style="opacity:0.15;">
	<path style="fill:#3D0072;" d="M132,494.5V370.249c0-8.25,6.75-15,15-15h-29.971c-8.25,0-15,6.75-15,15V494.5c0,5.5,4.5,10,10,10
		H142C136.5,504.5,132,500,132,494.5z"/>
</g>
<g>
	<path id="SVGCleanerId_0_1_" style="fill:#D2957D;" d="M118.609,171.109h274.781c11.537,0,21.369,7.309,25.12,17.547
		c1.043-2.857,1.624-5.938,1.624-9.156c0-14.77-11.975-26.744-26.744-26.744H118.609c-14.77,0-26.744,11.975-26.744,26.744
		c0,3.218,0.581,6.299,1.624,9.156C97.24,178.418,107.072,171.109,118.609,171.109z"/>
</g>
<g>
	<circle style="fill:#FFC502;" cx="170" cy="387.5" r="11.5"/>
	<circle style="fill:#FFC502;" cx="170" cy="431.5" r="11.5"/>
	<circle style="fill:#FFC502;" cx="170" cy="475.5" r="11.5"/>
	<circle style="fill:#FFC502;" cx="341" cy="387.5" r="11.5"/>
	<circle style="fill:#FFC502;" cx="341" cy="431.5" r="11.5"/>
	<circle style="fill:#FFC502;" cx="341" cy="475.5" r="11.5"/>
	<path style="fill:#FFC502;" d="M328.457,46.053c-18.547,0-34.309,11.895-40.098,28.467c-5.789-16.572-21.551-28.467-40.098-28.467
		c-23.457,0-42.474,19.018-42.473,42.475c0,23.456,19.017,42.472,42.474,42.472c18.547,0,34.309-11.893,40.098-28.467
		C294.148,119.107,309.91,131,328.457,131c23.457,0,42.473-19.016,42.473-42.473S351.914,46.053,328.457,46.053z"/>
</g>
<g>
	<circle style="fill:#B2762F;" cx="328.46" cy="88.53" r="20.13"/>
	<circle style="fill:#B2762F;" cx="248.26" cy="88.53" r="20.13"/>
</g>
<path d="M255.5,251.923h8.734c4.143,0,7.5-3.357,7.5-7.5s-3.357-7.5-7.5-7.5H255.5c-0.298,0-1.234-0.914-1.234-2.5v-28.37
	c0-4.143-3.357-7.5-7.5-7.5s-7.5,3.357-7.5,7.5v28.37C239.266,244.072,246.548,251.923,255.5,251.923z"/>
<path d="M312.156,193.449c-11.567,0-20.979,9.434-20.979,21.029s9.411,21.029,20.979,21.029c11.566,0,20.977-9.434,20.977-21.029
	S323.723,193.449,312.156,193.449z M312.156,220.508c-3.297,0-5.979-2.705-5.979-6.029s2.682-6.029,5.979-6.029
	c3.296,0,5.977,2.705,5.977,6.029S315.452,220.508,312.156,220.508z"/>
<path d="M219.477,214.479c0-11.596-9.41-21.029-20.977-21.029c-11.567,0-20.977,9.434-20.977,21.029s9.41,21.029,20.977,21.029
	C210.067,235.508,219.477,226.074,219.477,214.479z M198.5,220.508c-3.296,0-5.977-2.705-5.977-6.029s2.681-6.029,5.977-6.029
	c3.296,0,5.977,2.705,5.977,6.029S201.796,220.508,198.5,220.508z"/>
<path d="M270.5,282.5h-30c-4.143,0-7.5,3.357-7.5,7.5s3.357,7.5,7.5,7.5h30c4.143,0,7.5-3.357,7.5-7.5S274.643,282.5,270.5,282.5z"
	/>
<path d="M252,263c0-4.143-3.357-7.5-7.5-7.5H223c-9.649,0-17.5,7.178-17.5,16v8.5c0,4.143,3.357,7.5,7.5,7.5s7.5-3.357,7.5-7.5
	l-0.01-8.431c0.108-0.304,1.016-1.069,2.51-1.069h21.5C248.643,270.5,252,267.143,252,263z"/>
<path d="M288,255.5h-21.5c-4.143,0-7.5,3.357-7.5,7.5s3.357,7.5,7.5,7.5H288c1.494,0,2.401,0.766,2.5,1v8.5
	c0,4.143,3.357,7.5,7.5,7.5s7.5-3.357,7.5-7.5v-8.5C305.5,262.678,297.649,255.5,288,255.5z"/>
<path d="M368.585,269.5c17.173,0,31.144-13.972,31.144-31.145v-25.208c15.863-2.982,27.906-16.931,27.906-33.646
	c0-18.882-15.362-34.244-34.244-34.244h-31.603c-1.222-5.635-2.273-11.278-3.156-16.928c12.02-9.135,19.799-23.574,19.799-39.801
	c0-16.743-8.285-31.578-20.961-40.651c1.481-11.633,3.668-23.244,6.583-34.814c0.795-3.159,0.102-6.445-1.9-9.015
	C360.148,1.475,357.129,0,353.869,0H157.131c-3.26,0-6.279,1.475-8.282,4.047c-2.002,2.569-2.695,5.855-1.899,9.019
	c4.242,16.836,6.956,33.761,8.16,50.711c-5.706,1.154-10.016,6.208-10.016,12.25v25c0,5.764,3.927,10.615,9.242,12.055
	c-1.101,10.743-2.809,21.473-5.129,32.174h-30.598c-18.882,0-34.244,15.362-34.244,34.244c0,16.363,11.54,30.074,26.906,33.444
	v25.41c0,17.174,13.972,31.145,31.145,31.145h11.43c4.737,12.449,11.698,23.809,20.396,33.595h-0.582c-6.893,0-12.5,5.607-12.5,12.5
	v32.154h-44.131c-12.406,0-22.5,10.094-22.5,22.5V494.5c0,9.649,7.851,17.5,17.5,17.5h286.941c9.649,0,17.5-7.851,17.5-17.5V421
	c0-4.143-3.357-7.5-7.5-7.5s-7.5,3.357-7.5,7.5v73.5c0,1.355-1.145,2.5-2.5,2.5h-90.476v-14h15.054
	c2.916,6.756,9.638,11.5,17.451,11.5c10.477,0,19-8.523,19-19s-8.523-19-19-19c-7.814,0-14.535,4.744-17.451,11.5h-15.054v-29
	h15.054c2.916,6.756,9.638,11.5,17.451,11.5c10.477,0,19-8.523,19-19s-8.523-19-19-19c-7.814,0-14.535,4.744-17.451,11.5h-15.054
	v-29h15.054c2.916,6.756,9.638,11.5,17.451,11.5c10.477,0,19-8.523,19-19s-8.523-19-19-19c-7.814,0-14.535,4.744-17.451,11.5
	h-15.054v-61.905h26.345v37.154c0,4.143,3.357,7.5,7.5,7.5h51.631c4.136,0,7.5,3.364,7.5,7.5V384c0,4.143,3.357,7.5,7.5,7.5
	s7.5-3.357,7.5-7.5v-13.751c0-12.406-10.094-22.5-22.5-22.5h-44.13v-32.154c0-6.893-5.607-12.5-12.5-12.5h-0.59
	c8.697-9.788,15.666-21.145,20.404-33.595H368.585z M341,471.5c2.206,0,4,1.794,4,4s-1.794,4-4,4s-4-1.794-4-4
	S338.794,471.5,341,471.5z M341,427.5c2.206,0,4,1.794,4,4s-1.794,4-4,4s-4-1.794-4-4S338.794,427.5,341,427.5z M341,383.5
	c2.206,0,4,1.794,4,4s-1.794,4-4,4s-4-1.794-4-4S338.794,383.5,341,383.5z M384.728,238.355c0,8.902-7.242,16.145-16.144,16.145
	h-6.94c1.577-7.113,2.45-14.484,2.554-22.041h5.312c4.143,0,7.5-3.357,7.5-7.5s-3.357-7.5-7.5-7.5h-5.291v-20.951h4.365
	c8.902,0,16.144,7.243,16.144,16.146V238.355z M396.313,198.498c-5.165-10.075-15.651-16.99-27.728-16.99h-4.365v-2.898h29.172
	c7.097,0,13.581,3.951,16.912,10.065C407.484,193.85,402.353,197.572,396.313,198.498z M363.43,88.527
	c0,19.284-15.688,34.973-34.973,34.973c-14.852,0-28.12-9.42-33.017-23.439c-1.051-3.011-3.892-5.027-7.08-5.027
	s-6.029,2.017-7.08,5.027c-4.897,14.02-18.166,23.439-33.018,23.439c-9.342,0-18.124-3.638-24.73-10.243
	c-6.605-6.605-10.243-15.388-10.243-24.729s3.638-18.125,10.243-24.73c6.605-6.607,15.388-10.244,24.73-10.244
	c14.851,0,28.119,9.42,33.018,23.441c1.051,3.01,3.892,5.026,7.08,5.026s6.029-2.017,7.08-5.026
	c4.898-14.021,18.167-23.441,33.017-23.441C347.741,53.553,363.43,69.242,363.43,88.527z M234.22,136.5c4.505,1.311,9.22,2,14.042,2
	c4.801,0,9.48-0.702,13.937-2h52.322c4.456,1.298,9.136,2,13.936,2c4.847,0,9.529-0.707,13.964-2h2.355
	c0.03,0.173,0.065,0.346,0.096,0.518c0.26,1.459,0.531,2.916,0.811,4.374c0.053,0.271,0.102,0.542,0.154,0.813
	c0.198,1.018,0.408,2.034,0.617,3.051H164.543c0.601-2.913,1.164-5.827,1.679-8.744c0.001-0.004,0.001-0.008,0.002-0.012H234.22z
	 M168.492,121.5c0.334-2.656,0.622-5.314,0.885-7.973h12.801c1.067,3.65,3.925,6.768,7.575,7.954l0.058,0.019H168.492z
	 M203.142,110.06l-6.424-2.087l0.001-38.895l6.425-2.087c-3.176,6.64-4.855,13.958-4.855,21.536
	C198.289,96.104,199.967,103.421,203.142,110.06z M285.779,121.5c0.897-1.018,1.767-2.061,2.581-3.153
	c0.814,1.093,1.685,2.136,2.581,3.153H285.779z M348.148,15c-1.997,8.582-3.614,17.184-4.863,25.799
	c-4.687-1.459-9.667-2.246-14.828-2.246c-16.064,0-30.833,7.714-40.098,20.153c-9.265-12.439-24.033-20.153-40.098-20.153
	c-7.9,0-15.515,1.834-22.376,5.277l-36.132,11.739c-3.651,1.186-6.51,4.306-7.576,7.958h-12.044
	c-1.109-16.215-3.53-32.407-7.282-48.527H348.148z M160.094,78.527h21.625l-0.001,20h-21.624V78.527z M114.763,198.354
	c-5.64-1.149-10.392-4.768-13.065-9.679c3.331-6.114,9.815-10.065,16.912-10.065h28.172v2.898h-4.365
	C130.396,181.508,119.952,188.357,114.763,198.354z M142.416,254.5c-8.902,0-16.145-7.243-16.145-16.145v-25.701
	c0-8.902,7.242-16.146,16.145-16.146h4.365v20.951h-5.291c-4.143,0-7.5,3.357-7.5,7.5s3.357,7.5,7.5,7.5h5.311
	c0.104,7.557,0.979,14.929,2.555,22.041H142.416z M118.609,163.609c-5.105,0-10.026,1.158-14.474,3.249
	c3.53-4.036,8.702-6.602,14.474-6.602h274.781c5.772,0,10.943,2.566,14.474,6.602c-4.447-2.091-9.368-3.249-14.474-3.249H118.609z
	 M202.505,380h-15.054c-2.916-6.756-9.638-11.5-17.451-11.5c-10.477,0-19,8.523-19,19s8.523,19,19,19
	c7.814,0,14.535-4.744,17.451-11.5h15.054v29h-15.054c-2.916-6.756-9.638-11.5-17.451-11.5c-10.477,0-19,8.523-19,19s8.523,19,19,19
	c7.814,0,14.535-4.744,17.451-11.5h15.054v29h-15.054c-2.916-6.756-9.638-11.5-17.451-11.5c-10.477,0-19,8.523-19,19s8.523,19,19,19
	c7.814,0,14.535-4.744,17.451-11.5h15.054v14h-90.476c-1.355,0-2.5-1.145-2.5-2.5V370.249c0-4.136,3.364-7.5,7.5-7.5h51.631
	c4.143,0,7.5-3.357,7.5-7.5v-37.154h26.345V380z M174,387.5c0,2.206-1.794,4-4,4s-4-1.794-4-4s1.794-4,4-4S174,385.294,174,387.5z
	 M174,431.5c0,2.206-1.794,4-4,4s-4-1.794-4-4s1.794-4,4-4S174,429.294,174,431.5z M174,475.5c0,2.206-1.794,4-4,4s-4-1.794-4-4
	s1.794-4,4-4S174,473.294,174,475.5z M258.496,497h-5.992v-16c0-4.143-3.357-7.5-7.5-7.5s-7.5,3.357-7.5,7.5v16h-19.999v-90.255
	c2.055,2.48,4.931,3.929,8.007,3.929c3.513,0,6.747-1.821,8.872-4.996l3.12-4.659V447c0,4.143,3.357,7.5,7.5,7.5s7.5-3.357,7.5-7.5
	v-68.381l1.938-2.894l4.055,5.385V497H258.496z M244.991,362.879l-19.216,28.696l-8.271-14.029v-31.101
	C224.506,354.628,234.091,360.538,244.991,362.879z M221.049,320.196C230.197,328.884,242.481,334,255.5,334
	s25.302-5.115,34.451-13.805C287.02,336.551,272.685,349,255.5,349S223.983,336.55,221.049,320.196z M293.495,497h-19.999v-95.971
	l3.877,5.148c2.172,2.885,5.337,4.539,8.683,4.539c2.806,0,5.435-1.163,7.439-3.199L293.495,497L293.495,497z M293.495,378.163
	l-7.973,13.901l-21.669-28.775c11.785-1.992,22.183-8.119,29.642-16.831V378.163z M349.219,230.957
	c0,28.988-13.238,54.934-33.976,72.138h-9.248c-0.167,0-0.329,0.019-0.495,0.025v-0.685c0-4.435-3.145-8.338-7.468-9.28
	c-0.666-0.146-1.35-0.22-2.032-0.22c-3.71,0-7.103,2.181-8.64,5.552C281.665,310.948,269.159,319,255.5,319
	s-26.165-8.052-31.858-20.509c-1.539-3.376-4.932-5.557-8.642-5.557c-0.683,0-1.366,0.074-2.023,0.218
	c-4.333,0.944-7.477,4.848-7.477,9.282v0.685c-0.166-0.007-0.328-0.025-0.495-0.025h-9.248
	c-20.737-17.204-33.976-43.149-33.976-72.138v-52.348h3.973c0.175,1.184,0.636,2.345,1.4,3.373c2.474,3.324,7.173,4.011,10.495,1.54
	c3.044-2.265,6.412-3.909,9.953-4.913h16.611c6.491,1.814,12.175,5.697,16.269,11.201c1.472,1.979,3.733,3.025,6.023,3.023
	c1.556,0,3.126-0.482,4.471-1.482c3.323-2.472,4.014-7.17,1.541-10.494c-0.577-0.776-1.189-1.516-1.809-2.248h47.582
	c-0.619,0.732-1.231,1.472-1.809,2.248c-2.473,3.324-1.782,8.022,1.541,10.494c1.345,1,2.914,1.483,4.471,1.482
	c2.29,0,4.552-1.045,6.023-3.023c4.094-5.504,9.777-9.387,16.268-11.201h16.61c3.541,1.003,6.91,2.647,9.954,4.913
	c3.326,2.472,8.022,1.782,10.495-1.54c0.765-1.028,1.226-2.189,1.4-3.373h5.973v52.349H349.219z"/>
<path d="M300.829,88.527c0,4.143,3.357,7.5,7.5,7.5s7.5-3.357,7.5-7.5c0-6.964,5.665-12.629,12.628-12.629
	s12.627,5.665,12.627,12.629c0,6.963-5.664,12.627-12.627,12.627c-4.142,0-7.5,3.357-7.5,7.5s3.358,7.5,7.5,7.5
	c15.233,0,27.627-12.394,27.627-27.627c0-15.234-12.394-27.629-27.627-27.629C313.223,60.898,300.829,73.293,300.829,88.527z"/>
<path d="M248.262,60.898c-15.234,0-27.629,12.395-27.629,27.629c0,15.233,12.395,27.627,27.629,27.627
	c15.233,0,27.627-12.394,27.627-27.627C275.889,73.293,263.495,60.898,248.262,60.898z M248.262,101.154
	c-6.964,0-12.629-5.664-12.629-12.627c0-6.964,5.665-12.629,12.629-12.629c6.963,0,12.627,5.665,12.627,12.629
	C260.889,95.49,255.225,101.154,248.262,101.154z"/>
<g>
</g>
<g>
</g>
<g>
</g>
<g>
</g>
<g>
</g>
<g>
</g>
<g>
</g>
<g>
</g>
<g>
</g>
<g>
</g>
<g>
</g>
<g>
</g>
<g>
</g>
<g>
</g>
<g>
</g>
</svg>
