<?xml version="1.0" encoding="iso-8859-1"?>
<!-- Generator: Adobe Illustrator 19.0.0, SVG Export Plug-In . SVG Version: 6.00 Build 0)  -->
<svg version="1.1" id="Capa_1" xmlns="http://www.w3.org/2000/svg" xmlns:xlink="http://www.w3.org/1999/xlink" x="0px" y="0px"
	 viewBox="0 0 512 512" style="enable-background:new 0 0 512 512;" xml:space="preserve">
<path style="fill:#D5E962;" d="M284.032,405.081c-1.888,2-4.805,1.853-6.481-0.327L265.5,389.092v56.736h38.049
	c2.814,0,5.115-2.303,5.115-5.115v-61.726L284.032,405.081z"/>
<g>
	<path style="fill:#F7931E;" d="M369.085,189.008c6.312,0,12.041,2.479,16.282,6.509c0.037-1.225,0.061-2.452,0.061-3.686
		c0-7.79-0.774-15.408-2.236-22.795H357.22v19.972H369.085z"/>
	<path style="fill:#F7931E;" d="M142.916,189.008h11.864v-19.972h-25.972c-1.462,7.387-2.236,15.005-2.236,22.795
		c0,1.233,0.023,2.461,0.061,3.686C130.874,191.486,136.603,189.008,142.916,189.008z"/>
</g>
<g>
	<path style="fill:#D5E962;" d="M157.517,485.822c-0.329,0.118-0.673,0.178-1.018,0.178s-0.689-0.06-1.018-0.178
		c-5.932-2.139-11.141-5.585-15.359-9.938V499.5c0,2.762,2.238,5,5,5H175v-30.98C170.463,478.993,164.487,483.309,157.517,485.822z"
		/>
	<path style="fill:#D5E962;" d="M246.5,389.092l-12.05,15.662c-1.677,2.18-4.594,2.327-6.481,0.327l-24.633-26.094v61.726
		c0,2.813,2.302,5.115,5.115,5.115H246.5V389.092z"/>
	<path style="fill:#D5E962;" d="M356.517,485.822c-0.329,0.118-0.673,0.178-1.018,0.178s-0.689-0.06-1.018-0.178
		c-6.97-2.514-12.945-6.829-17.482-12.303v30.98h29.877c2.762,0,5-2.238,5-5v-23.615
		C367.658,480.237,362.449,483.684,356.517,485.822z"/>
</g>
<path style="fill:#368C0E;" d="M265.5,445.828v-56.736l-6.451-8.385c-0.322-0.419-0.692-0.732-1.078-0.99
	c-1.268,0.377-2.674,0.377-3.941,0c-0.386,0.258-0.756,0.571-1.078,0.99l-6.451,8.385v56.736H265.5z"/>
<path style="fill:#64CBFF;" d="M337,394.124c-5.764-5.172-9.404-12.71-9.404-21.095c0-4.219,0.947-8.315,2.683-12.029h-19.524
	l1.97,7.508c0.698,2.659-0.276,6.472-2.164,8.472l-1.896,2.008v61.726c0,2.813-2.302,5.115-5.115,5.115h-95.098
	c-2.814,0-5.115-2.303-5.115-5.115v-61.726l-1.896-2.008c-1.888-2-2.9-5.822-2.249-8.494l1.823-7.485h-19.293
	c1.735,3.714,2.683,7.81,2.683,12.029c0,8.385-3.641,15.923-9.404,21.095v27.447c5.928,7.155,9.404,16.28,9.404,25.966
	c0,9.689-3.472,18.826-9.404,25.982v30.98h162v-30.98c-5.933-7.156-9.404-16.293-9.404-25.982c0-9.686,3.477-18.811,9.404-25.966
	v-27.448H337z"/>
<path style="fill:#046699;" d="M302.894,504.5V475c0-2.75-2.25-5-5-5h-83.789c-2.75,0-5,2.25-5,5v29.5H302.894z"/>
<g style="opacity:0.15;">
	<path style="fill:#3D0072;" d="M243.211,470h-29.105c-2.75,0-5,2.25-5,5v29.5h29.105V475C238.211,472.25,240.461,470,243.211,470z"
		/>
</g>
<path style="fill:#F7931E;" d="M372.5,419.85v0.27h-34v-0.27c-6.842,7.38-10.904,17.209-10.904,27.688
	c0,17.1,10.805,32.485,26.887,38.285c0.329,0.118,0.673,0.178,1.018,0.178s0.689-0.06,1.018-0.178
	c16.082-5.8,26.887-21.186,26.887-38.285C383.404,437.059,379.342,427.229,372.5,419.85z"/>
<path style="opacity:0.15;fill:#490089;enable-background:new    ;" d="M350.808,447.537c0-10.355,3.975-20.069,10.672-27.418H338.5
	v-0.27c-6.842,7.38-10.904,17.209-10.904,27.688c0,17.1,10.805,32.485,26.887,38.285c0.329,0.118,0.673,0.178,1.018,0.178
	s0.689-0.06,1.018-0.178c3.86-1.393,7.413-3.342,10.589-5.73C357.053,472.531,350.808,460.531,350.808,447.537z"/>
<g>
	<path style="fill:#046699;" d="M175,419.705c0,1.65,1.35,3,3,3h22.336c1.65,0,3-1.35,3-3v-16.41c0-1.65-1.35-3-3-3H178
		c-1.65,0-3,1.35-3,3V419.705z"/>
	<path style="fill:#046699;" d="M308.664,419.705c0,1.65,1.35,3,3,3H334c1.65,0,3-1.35,3-3v-16.41c0-1.65-1.35-3-3-3h-22.336
		c-1.65,0-3,1.35-3,3V419.705z"/>
</g>
<g>
	<path style="fill:#5DC647;" d="M252.073,378.73l-22.215-17.515c-2.16-1.703-3.927-5.346-3.927-8.096v-25.483
		c0.017,0.005,0.034,0.01,0.051,0.015c-4.979-1.544-9.791-3.466-14.407-5.725c-0.845,0.818-1.489,1.827-1.759,2.932l-10.625,43.627
		c-0.651,2.672,0.361,6.494,2.249,8.494l26.528,28.102c1.888,2,4.805,1.853,6.481-0.327l18.501-24.047
		c0.322-0.419,0.692-0.732,1.078-0.99C253.316,379.505,252.645,379.182,252.073,378.73z"/>
	<path style="fill:#5DC647;" d="M301.268,324.836c-0.251-0.955-0.783-1.844-1.48-2.596c-4.422,2.125-9.021,3.939-13.771,5.411
		c0.017-0.005,0.034-0.01,0.051-0.015v25.483c0,2.75-1.767,6.393-3.927,8.096l-22.215,17.515c-0.572,0.451-1.243,0.774-1.956,0.986
		c0.386,0.258,0.756,0.571,1.078,0.99l18.502,24.047c1.677,2.18,4.594,2.327,6.481,0.327l26.527-28.102
		c1.888-2,2.862-5.813,2.164-8.472L301.268,324.836z"/>
</g>
<path style="fill:#B2762F;" d="M256,332.178c-10.471,0-20.568-1.59-30.068-4.541v25.483c0,2.75,1.767,6.393,3.927,8.096
	l22.215,17.515c2.16,1.703,5.693,1.703,7.854,0l22.215-17.515c2.16-1.703,3.927-5.346,3.927-8.096v-25.483
	C276.568,330.588,266.471,332.178,256,332.178z"/>
<path style="opacity:0.15;fill:#490089;enable-background:new    ;" d="M249.863,353.12v-21.133
	c-8.284-0.496-16.303-1.98-23.932-4.351v25.483c0,2.75,1.767,6.393,3.927,8.096l22.215,17.515c2.16,1.703,5.693,1.703,7.854,0
	l8.039-6.338l-14.176-11.177C251.63,359.513,249.863,355.87,249.863,353.12z"/>
<path style="fill:#F7931E;" d="M173.5,419.85v0.27h-34v-0.27c-6.842,7.38-10.904,17.209-10.904,27.688
	c0,17.1,10.805,32.485,26.887,38.285c0.329,0.118,0.673,0.178,1.018,0.178s0.689-0.06,1.018-0.178
	c16.082-5.8,26.887-21.186,26.887-38.285C184.404,437.059,180.342,427.229,173.5,419.85z"/>
<path style="opacity:0.15;fill:#490089;enable-background:new    ;" d="M151.808,447.537c0-10.355,3.975-20.069,10.672-27.418H139.5
	v-0.27c-6.842,7.38-10.904,17.209-10.904,27.688c0,17.1,10.805,32.485,26.887,38.285c0.329,0.118,0.673,0.178,1.018,0.178
	s0.689-0.06,1.018-0.178c3.86-1.393,7.413-3.342,10.589-5.73C158.053,472.531,151.808,460.531,151.808,447.537z"/>
<path style="fill:#FFC502;" d="M156.5,401.24c-6.395,0-12.289-2.191-17-5.862v24.741h34v-24.741
	C168.789,399.049,162.894,401.24,156.5,401.24z"/>
<path style="fill:#F7931E;" d="M172.404,344.295c7.515-5.281,12-13.945,12-23.175c0-9.229-4.485-17.893-12-23.175
	c-0.9-0.633-1.436-1.671-1.436-2.779s0.536-2.147,1.436-2.779c0.695-0.488,1.355-1.015,1.996-1.559
	c-6.368-8.666-11.399-18.376-14.766-28.836c0,0.003,0.001,0.006,0.002,0.008h-16.721c-4.487,0-8.683-1.25-12.256-3.42
	c-1.327,3.283-2.064,6.871-2.064,10.632c0,9.228,4.485,17.893,12,23.175c0.9,0.632,1.436,1.671,1.436,2.779
	s-0.536,2.147-1.436,2.779c-7.515,5.281-12,13.945-12,23.175c0,9.23,4.485,17.894,12,23.175c0.9,0.633,1.436,1.671,1.436,2.779
	s-0.536,2.148-1.436,2.779c-7.515,5.282-12,13.946-12,23.176c0,15.556,12.518,28.211,27.904,28.211s27.904-12.655,27.904-28.211
	c0-9.229-4.485-17.894-12-23.176c-0.9-0.632-1.436-1.671-1.436-2.779S171.504,344.928,172.404,344.295z"/>
<path style="opacity:0.15;fill:#490089;enable-background:new    ;" d="M145.893,373.029c0-9.229,4.485-17.894,12-23.176
	c0.9-0.632,1.436-1.671,1.436-2.779s-0.536-2.146-1.436-2.779c-7.515-5.281-12-13.945-12-23.175c0-9.229,4.485-17.893,12-23.175
	c0.9-0.633,1.436-1.671,1.436-2.779s-0.536-2.147-1.436-2.779c-7.515-5.282-12-13.946-12-23.175c0-2.494,0.335-4.907,0.938-7.212
	h-3.916c-4.487,0-8.683-1.25-12.256-3.42c-1.327,3.283-2.064,6.871-2.064,10.632c0,9.228,4.485,17.893,12,23.175
	c0.9,0.632,1.436,1.671,1.436,2.779s-0.536,2.147-1.436,2.779c-7.515,5.281-12,13.945-12,23.175c0,9.23,4.485,17.894,12,23.175
	c0.9,0.633,1.436,1.671,1.436,2.779s-0.536,2.148-1.436,2.779c-7.515,5.282-12,13.946-12,23.176
	c0,15.556,12.518,28.211,27.904,28.211c3.019,0,5.924-0.492,8.648-1.395C153.983,396.156,145.893,385.533,145.893,373.029z"/>
<path style="fill:#FFC502;" d="M355.5,401.24c-6.395,0-12.289-2.191-17-5.862v24.741h34v-24.741
	C367.789,399.049,361.894,401.24,355.5,401.24z"/>
<path style="fill:#F7931E;" d="M371.404,292.387c7.515-5.282,12-13.946,12-23.175c0-3.761-0.737-7.349-2.064-10.632
	c-3.573,2.17-7.768,3.42-12.255,3.42h-16.722c0.001-0.002,0.002-0.005,0.002-0.008c-3.366,10.46-8.397,20.17-14.766,28.836
	c0.642,0.544,1.301,1.07,1.996,1.559c0.9,0.632,1.436,1.671,1.436,2.779s-0.536,2.147-1.436,2.779c-7.515,5.281-12,13.945-12,23.175
	c0,9.23,4.485,17.894,12,23.175c0.9,0.633,1.436,1.671,1.436,2.779s-0.536,2.148-1.436,2.779c-7.515,5.282-12,13.946-12,23.176
	c0,15.556,12.518,28.211,27.904,28.211s27.904-12.655,27.904-28.211c0-9.229-4.485-17.894-12-23.176
	c-0.9-0.632-1.436-1.671-1.436-2.779s0.536-2.146,1.436-2.779c7.515-5.281,12-13.945,12-23.175c0-9.229-4.485-17.893-12-23.175
	c-0.9-0.633-1.436-1.671-1.436-2.779C369.968,294.058,370.504,293.019,371.404,292.387z"/>
<path style="opacity:0.15;fill:#490089;enable-background:new    ;" d="M344.893,373.029c0-9.229,4.485-17.894,12-23.176
	c0.9-0.632,1.436-1.671,1.436-2.779s-0.536-2.146-1.436-2.779c-7.515-5.281-12-13.945-12-23.175c0-9.229,4.485-17.893,12-23.175
	c0.9-0.633,1.436-1.671,1.436-2.779s-0.536-2.147-1.436-2.779c-5.287-3.717-9.066-9.109-10.847-15.192
	c-2.458,4.779-5.288,9.334-8.447,13.634c0.642,0.544,1.301,1.07,1.996,1.559c0.9,0.632,1.436,1.671,1.436,2.779
	s-0.536,2.147-1.436,2.779c-7.515,5.281-12,13.945-12,23.175c0,9.23,4.485,17.894,12,23.175c0.9,0.633,1.436,1.671,1.436,2.779
	s-0.536,2.148-1.436,2.779c-7.515,5.282-12,13.946-12,23.176c0,15.556,12.518,28.211,27.904,28.211c3.019,0,5.924-0.492,8.647-1.395
	C352.983,396.156,344.893,385.533,344.893,373.029z"/>
<g>
	<path style="fill:#B2762F;" d="M154.78,230.958v-41.95h-11.864c-13.06,0-23.646,10.587-23.646,23.646v25.701
		c0,13.059,10.586,23.645,23.646,23.645h16.721C156.488,252.217,154.78,241.788,154.78,230.958z"/>
	<path style="fill:#B2762F;" d="M369.085,189.008H357.22v41.95c0,10.83-1.708,21.259-4.856,31.042h16.722
		c13.059,0,23.645-10.587,23.645-23.645v-25.701C392.729,199.595,382.143,189.008,369.085,189.008z"/>
</g>
<path style="fill:#D19546;" d="M154.78,169.036v61.922c0,55.902,45.318,101.22,101.22,101.22s101.22-45.317,101.22-101.22v-61.922
	L154.78,169.036L154.78,169.036z"/>
<path style="opacity:0.15;fill:#490089;enable-background:new    ;" d="M183.56,230.958v-61.922h-28.78v61.922
	c0,55.902,45.318,101.22,101.22,101.22c4.886,0,9.69-0.354,14.391-1.023C221.306,324.168,183.56,281.975,183.56,230.958z"/>
<g>
	<path style="fill:#FB8276;" d="M175,263c-5.002,0-9.689,1.342-13.729,3.677c6.602,17.499,17.907,32.69,32.383,44.023
		c5.438-5.024,8.847-12.213,8.847-20.2C202.5,275.313,190.187,263,175,263z"/>
	<path style="fill:#FB8276;" d="M337,263c-15.188,0-27.5,12.313-27.5,27.5c0,7.987,3.408,15.176,8.847,20.2
		c14.476-11.333,25.781-26.524,32.383-44.023C346.688,264.342,342.002,263,337,263z"/>
</g>
<g>
	<ellipse style="fill:#312F56;" cx="206.5" cy="215.47" rx="13.477" ry="13.529"/>
	<ellipse style="fill:#312F56;" cx="305.5" cy="215.47" rx="13.477" ry="13.529"/>
</g>
<path style="fill:#FFC502;" d="M368.811,113.724C363.88,58.491,334.68,7.5,299.508,7.5c-14.157,0-27.844,6.839-39.577,19.776
	c-1.006,1.109-2.433,1.741-3.931,1.741c-1.497,0-2.924-0.632-3.931-1.741C240.336,14.339,226.65,7.5,212.492,7.5
	c-35.172,0-64.372,50.991-69.304,106.224H368.811z"/>
<path style="fill:#C5CCD3;" d="M368.795,113.724c-0.825-9.176-2.313-18.233-4.39-26.964h-216.81
	c-2.077,8.73-3.564,17.788-4.39,26.964H368.795z"/>
<path style="opacity:0.15;fill:#490089;enable-background:new    ;" d="M172.668,113.724c4.257-47.661,26.574-92.162,55.217-103.465
	C222.867,8.436,217.713,7.5,212.492,7.5c-35.172,0-64.372,50.991-69.304,106.224H172.668z"/>
<path style="fill:#FFC502;" d="M82.407,169.036c-1.734,0-3.367-0.813-4.413-2.196c-1.046-1.384-1.382-3.177-0.907-4.846
	c8.065-28.421,34.328-48.27,63.863-48.27h230.099c29.536,0,55.799,19.85,63.864,48.27c0.475,1.669,0.139,3.462-0.907,4.846
	c-1.046,1.383-2.68,2.196-4.413,2.196H82.407z"/>
<g style="opacity:0.15;">
	<path style="fill:#3D0072;" d="M121.87,166.84c-1.046-1.384-1.382-3.177-0.907-4.846c8.065-28.421,34.328-48.27,63.863-48.27
		H140.95c-29.535,0-55.798,19.85-63.863,48.27c-0.475,1.669-0.139,3.462,0.907,4.846c1.046,1.383,2.679,2.196,4.413,2.196h43.876
		C124.549,169.036,122.916,168.223,121.87,166.84z"/>
</g>
<path d="M256,268.209h8.735c4.142,0,7.5-3.357,7.5-7.5s-3.358-7.5-7.5-7.5H256c-0.298,0-1.235-0.914-1.235-2.5v-23.162
	c0-4.143-3.357-7.5-7.5-7.5s-7.5,3.357-7.5,7.5v23.162C239.764,260.358,247.048,268.209,256,268.209z"/>
<path d="M227.476,215.471c0-11.596-9.409-21.029-20.976-21.029s-20.978,9.434-20.978,21.029s9.41,21.029,20.978,21.029
	C218.067,236.5,227.476,227.066,227.476,215.471z M206.501,221.5c-3.296,0-5.978-2.705-5.978-6.029s2.682-6.029,5.978-6.029
	c3.295,0,5.976,2.705,5.976,6.029S209.796,221.5,206.501,221.5z"/>
<path d="M305.5,236.5c11.566,0,20.977-9.434,20.977-21.029s-9.41-21.029-20.977-21.029s-20.977,9.434-20.977,21.029
	S293.933,236.5,305.5,236.5z M305.5,209.441c3.296,0,5.977,2.705,5.977,6.029s-2.681,6.029-5.977,6.029s-5.977-2.705-5.977-6.029
	S302.204,209.441,305.5,209.441z"/>
<path d="M283.268,268.866c-4.143,0-7.5,3.357-7.5,7.5c0,10.899-8.868,19.768-19.769,19.768c-10.9,0-19.769-8.868-19.769-19.768
	c0-4.143-3.357-7.5-7.5-7.5s-7.5,3.357-7.5,7.5c0,19.171,15.597,34.768,34.769,34.768s34.769-15.597,34.769-34.768
	C290.768,272.224,287.411,268.866,283.268,268.866z"/>
<path d="M442.128,159.946c-8.563-30.174-35.56-51.651-66.565-53.567c-1.969-15.983-5.881-31.666-11.573-46.126
	c-1.517-3.854-5.868-5.75-9.726-4.231c-3.854,1.517-5.749,5.871-4.232,9.726c1.727,4.387,3.253,8.908,4.62,13.513H157.336
	c3.387-11.459,7.859-22.21,13.267-31.623C182.693,26.591,197.57,15,212.492,15c11.984,0,23.748,5.987,34.023,17.316
	c2.423,2.67,5.88,4.201,9.484,4.201c3.606,0,7.065-1.532,9.486-4.203C275.76,20.987,287.523,15,299.508,15
	c14.359,0,25.949,10.708,33.143,19.691c2.59,3.232,7.309,3.755,10.543,1.166c3.233-2.59,3.755-7.309,1.166-10.543
	C331.096,8.754,315.587,0,299.508,0C283.842,0,268.843,7.076,256,20.494C243.158,7.076,228.158,0,212.492,0
	c-39.717,0-69.229,52.121-76.037,106.377c-31.014,1.909-58.018,23.389-66.582,53.565c-1.111,3.909-0.313,8.178,2.14,11.422
	c2.449,3.238,6.335,5.172,10.395,5.172h37.62c-0.628,5.072-0.955,10.185-0.955,15.295c0,0.267,0.011,0.532,0.013,0.799
	c-4.56,5.419-7.314,12.404-7.314,20.023v25.701c0,9.114,3.935,17.325,10.194,23.026c-0.563,2.521-0.869,5.14-0.869,7.831
	c0,9.882,4.071,19.253,11.097,25.953c-7.023,6.698-11.097,16.071-11.097,25.955c0,9.884,4.072,19.257,11.097,25.954
	c-7.023,6.699-11.097,16.072-11.097,25.955c0,10.107,4.191,19.24,10.904,25.743v18.292c-6.881,8.43-10.904,19.129-10.904,30.473
	c0,11.683,4.266,22.684,11.527,31.226V499.5c0,6.893,5.607,12.5,12.5,12.5h221.754c6.892,0,12.5-5.607,12.5-12.5v-20.735
	c7.262-8.542,11.527-19.544,11.527-31.227c0-11.343-4.022-22.041-10.904-30.471v-18.294c6.713-6.503,10.904-15.636,10.904-25.743
	c0-9.883-4.071-19.254-11.097-25.954c7.024-6.698,11.097-16.071,11.097-25.955s-4.072-19.257-11.097-25.954
	c7.024-6.698,11.097-16.071,11.097-25.954c0-2.691-0.307-5.31-0.869-7.831c6.26-5.701,10.194-13.912,10.194-23.026v-25.701
	c0-7.62-2.755-14.605-7.314-20.023c0.002-0.267,0.013-0.532,0.013-0.799c0-5.11-0.326-10.223-0.955-15.295h37.62
	c4.06,0,7.945-1.934,10.396-5.174C442.439,168.12,443.238,163.852,442.128,159.946z M385.229,212.653v25.701
	c0,8.902-7.242,16.145-16.145,16.145h-6.938c1.578-7.111,2.442-14.485,2.545-22.041h8.809c4.143,0,7.5-3.357,7.5-7.5
	s-3.357-7.5-7.5-7.5h-8.78v-20.951h4.365C377.987,196.508,385.229,203.751,385.229,212.653z M364.377,412.619H346v-5.195
	c3.025,0.852,6.209,1.316,9.5,1.316c3.068,0,6.037-0.419,8.877-1.163V412.619z M369.209,427.619
	c4.234,5.629,6.695,12.572,6.695,19.918c0,13.403-8.139,25.516-20.403,30.637c-12.271-5.126-20.405-17.236-20.405-30.637
	c0-7.346,2.461-14.29,6.694-19.918H369.209z M281.181,397.175l-12.284-15.966l17.888-14.104c3.994-3.148,6.783-8.899,6.783-13.985
	v-20.136c0.635-0.234,1.266-0.477,1.895-0.722l9.986,38.072c0.031,0.401-0.178,1.217-0.397,1.554L281.181,397.175z M301.164,397.858
	v5.436v16.41v18.623H273V410.83c2.168,2.017,4.954,3.158,7.912,3.159c0,0,0,0,0.001,0c3.239,0,6.284-1.336,8.573-3.761
	L301.164,397.858z M256.829,371.621c-0.275-0.021-0.55-0.049-0.829-0.049s-0.554,0.028-0.829,0.049l-20.639-16.27
	c-0.44-0.402-1.059-1.676-1.101-2.232l-0.001-15.805c7.284,1.544,14.833,2.362,22.569,2.362s15.285-0.818,22.568-2.362l0.001,15.765
	c-0.043,0.596-0.661,1.869-1.071,2.246L256.829,371.621z M258,391.644v46.685h-4v-46.685l2-2.6L258,391.644z M230.818,397.175
	l-23.86-25.27c-0.256-0.351-0.51-1.31-0.48-1.646l9.325-38.287c0.87,0.348,1.746,0.686,2.628,1.012v20.136
	c0,5.086,2.789,10.837,6.783,13.985l17.888,14.104L230.818,397.175z M239,410.832v27.496h-28.164v-40.47l11.679,12.371
	c2.289,2.425,5.334,3.761,8.574,3.761C234.046,413.99,236.832,412.849,239,410.832z M256,324.678
	c-18.996,0-36.688-5.686-51.471-15.439c3.526-5.562,5.471-12.062,5.471-18.738c0-19.299-15.701-35-35-35
	c-3.092,0-6.154,0.43-9.114,1.234c-2.347-8.192-3.605-16.84-3.605-25.776v-54.422h17.091c-1.74,1.237-3.395,2.62-4.935,4.161
	c-2.929,2.929-2.929,7.678,0.001,10.606c2.928,2.928,7.677,2.929,10.606-0.001c4.372-4.372,10.179-6.78,16.352-6.78
	s11.98,2.408,16.352,6.781c1.465,1.464,3.385,2.196,5.304,2.196s3.839-0.732,5.304-2.196c2.929-2.93,2.929-7.678,0-10.607
	c-1.54-1.54-3.195-2.923-4.935-4.16h65.158c-1.739,1.237-3.394,2.62-4.935,4.16c-2.929,2.93-2.929,7.678,0,10.607
	c1.465,1.464,3.385,2.196,5.304,2.196c1.919,0,3.839-0.732,5.304-2.196c4.372-4.373,10.18-6.781,16.352-6.781
	c6.173,0,11.98,2.408,16.352,6.78c2.929,2.929,7.678,2.93,10.606,0.001c2.93-2.929,2.93-7.678,0.001-10.606
	c-1.54-1.541-3.194-2.924-4.935-4.161h17.091v54.422c0,8.937-1.259,17.584-3.605,25.776c-2.96-0.805-6.022-1.234-9.114-1.234
	c-19.299,0-35,15.701-35,35c0,6.677,1.944,13.177,5.471,18.738C292.687,318.991,274.996,324.678,256,324.678z M136.096,447.537
	c0-7.346,2.461-14.29,6.693-19.918h27.42c4.234,5.629,6.695,12.572,6.695,19.918c0,13.403-8.139,25.516-20.403,30.637
	C144.23,473.048,136.096,460.938,136.096,447.537z M147,412.619v-5.195c3.025,0.852,6.209,1.316,9.5,1.316s6.475-0.465,9.5-1.316
	v5.195H147z M182.5,407.795h13.336v7.41H182.5V407.795z M185.969,392.795c3.608-5.456,5.752-11.969,5.906-18.969
	c0.621,3.052,2.004,5.982,3.961,8.13v10.839H185.969z M195.122,353.5h-9.004c-1.509-2.328-3.282-4.49-5.311-6.425
	c7.023-6.698,11.097-16.071,11.097-25.955c0-0.829-0.039-1.653-0.097-2.474c3.263,2.394,6.66,4.617,10.185,6.643L195.122,353.5z
	 M171.215,270.865c1.242-0.239,2.51-0.365,3.785-0.365c11.028,0,20,8.972,20,20c0,3.367-0.832,6.576-2.372,9.439
	C183.739,291.767,176.431,281.904,171.215,270.865z M126.77,238.355v-25.701c0-8.902,7.243-16.146,16.146-16.146h4.364v20.951h-8.78
	c-4.143,0-7.5,3.357-7.5,7.5s3.357,7.5,7.5,7.5h8.808c0.104,7.556,0.968,14.93,2.545,22.041h-6.936
	C134.014,254.5,126.77,247.257,126.77,238.355z M320.193,318.631c-0.058,0.825-0.098,1.654-0.098,2.489
	c0,9.884,4.072,19.257,11.097,25.954c-2.028,1.935-3.802,4.098-5.31,6.426h-9.342l-7.289-27.787
	C313.049,323.571,316.696,321.197,320.193,318.631z M326.031,392.795h-9.867v-10.839c1.992-2.187,3.361-5.177,3.948-8.275
	C320.238,380.737,322.397,387.301,326.031,392.795z M316.164,407.795H329.5v7.41h-13.336V407.795z M319.372,299.939
	c-1.54-2.862-2.372-6.071-2.372-9.439c0-11.028,8.972-20,20-20c1.275,0,2.543,0.126,3.785,0.365
	C335.568,281.904,328.26,291.767,319.372,299.939z M147.28,176.536v4.972h-4.364c-2.927,0-5.757,0.414-8.444,1.173
	c0.168-2.056,0.405-4.103,0.69-6.145H147.28z M142.916,269.5h11.426c2.755,7.239,6.261,14.112,10.424,20.521
	c-0.836,1.561-1.298,3.323-1.298,5.145c0,3.548,1.729,6.881,4.624,8.915c5.519,3.879,8.813,10.248,8.813,17.039
	c0,6.791-3.294,13.16-8.813,17.039c-2.895,2.034-4.624,5.367-4.624,8.915c0,3.551,1.73,6.885,4.623,8.915
	c5.519,3.879,8.813,10.249,8.813,17.04c0,11.42-9.153,20.711-20.404,20.711s-20.404-9.291-20.404-20.711
	c0-6.791,3.295-13.161,8.808-17.036c2.898-2.034,4.629-5.368,4.629-8.919c0-3.548-1.729-6.881-4.624-8.915
	c-5.519-3.879-8.813-10.248-8.813-17.039c0-6.791,3.294-13.16,8.813-17.039c2.895-2.034,4.624-5.367,4.624-8.915
	c0-3.551-1.73-6.885-4.623-8.915c-5.519-3.879-8.813-10.249-8.813-17.039c0-0.158,0.02-0.311,0.023-0.468
	C138.308,269.233,140.581,269.5,142.916,269.5z M147.623,490.585c1.714,0.864,3.489,1.634,5.325,2.296
	c1.144,0.411,2.339,0.619,3.552,0.619s2.408-0.208,3.561-0.622c2.604-0.938,5.085-2.097,7.439-3.436V497h-19.877V490.585z
	 M310.394,497v-22c0-6.893-5.607-12.5-12.5-12.5H290c-4.143,0-7.5,3.357-7.5,7.5s3.357,7.5,7.5,7.5h5.395V497h-78.789v-19.5H252
	c4.143,0,7.5-3.357,7.5-7.5s-3.357-7.5-7.5-7.5h-37.895c-6.893,0-12.5,5.607-12.5,12.5v22H182.5v-20.919
	c5.961-8.106,9.404-18.05,9.404-28.544c0-6.044-1.158-11.898-3.265-17.332h7.196v10.508c0,6.956,5.659,12.615,12.615,12.615h95.098
	c6.956,0,12.615-5.659,12.615-12.615v-10.508h7.196c-2.107,5.434-3.265,11.288-3.265,17.332c0,10.493,3.442,20.436,9.404,28.543V497
	H310.394z M344.5,497v-7.56c2.355,1.342,4.841,2.501,7.448,3.441c1.144,0.411,2.339,0.619,3.552,0.619s2.408-0.208,3.561-0.622
	c1.832-0.661,3.605-1.429,5.316-2.291V497H344.5z M375.904,269.212c0,6.79-3.295,13.16-8.808,17.035
	c-2.898,2.034-4.629,5.368-4.629,8.919c0,3.548,1.728,6.881,4.624,8.915c5.519,3.879,8.813,10.248,8.813,17.039
	c0,6.791-3.294,13.16-8.813,17.039c-2.896,2.034-4.624,5.367-4.624,8.915c0,3.551,1.73,6.885,4.623,8.915
	c5.519,3.879,8.814,10.249,8.814,17.04c0,11.42-9.153,20.711-20.404,20.711s-20.404-9.291-20.404-20.711
	c0-6.791,3.295-13.161,8.808-17.036c2.898-2.034,4.629-5.368,4.629-8.919c0-3.548-1.728-6.881-4.624-8.915
	c-5.519-3.879-8.813-10.248-8.813-17.039c0-6.791,3.294-13.16,8.813-17.039c2.896-2.034,4.624-5.367,4.624-8.915
	c0-1.824-0.464-3.588-1.3-5.15c4.162-6.407,7.668-13.277,10.424-20.516h11.429c2.335,0,4.606-0.267,6.796-0.756
	C375.885,268.901,375.904,269.054,375.904,269.212z M377.528,182.681c-2.688-0.759-5.517-1.173-8.443-1.173h-4.365v-4.972h12.118
	C377.122,178.578,377.359,180.625,377.528,182.681z M85.074,161.536c7.944-23.865,30.553-40.313,55.876-40.313h44.049
	c4.143,0,7.5-3.357,7.5-7.5s-3.357-7.5-7.5-7.5h-33.401c0.543-4.022,1.218-8.017,2.02-11.964h204.785
	c0.804,3.952,1.473,7.945,2.014,11.964H229c-4.143,0-7.5,3.357-7.5,7.5s3.357,7.5,7.5,7.5h142.049
	c25.322,0,47.93,16.446,55.877,40.313H85.074z"/>
<g>
</g>
<g>
</g>
<g>
</g>
<g>
</g>
<g>
</g>
<g>
</g>
<g>
</g>
<g>
</g>
<g>
</g>
<g>
</g>
<g>
</g>
<g>
</g>
<g>
</g>
<g>
</g>
<g>
</g>
</svg>
