<?xml version="1.0" encoding="iso-8859-1"?>
<!-- Generator: Adobe Illustrator 19.0.0, SVG Export Plug-In . SVG Version: 6.00 Build 0)  -->
<svg version="1.1" id="Capa_1" xmlns="http://www.w3.org/2000/svg" xmlns:xlink="http://www.w3.org/1999/xlink" x="0px" y="0px"
	 viewBox="0 0 512 512" style="enable-background:new 0 0 512 512;" xml:space="preserve">
<g>
	<path style="fill:#B2762F;" d="M435.388,438.545c-1.009-0.902-1.172-2.406-0.377-3.502c5.191-7.163,7.936-15.625,7.936-24.473
		c0-23.06-18.801-41.82-41.91-41.82c-0.335,0-2.705,0-6.755,0c0.049,0.494,0.076,0.994,0.076,1.5V504.5H443.7
		c2.809,0,5.085-2.272,5.085-5.072v-31.013C448.785,457.051,443.901,446.163,435.388,438.545z"/>
	<path style="fill:#B2762F;" d="M117.719,368.75c-4.05,0-6.419,0-6.755,0c-23.109,0-41.91,18.761-41.91,41.82
		c0,8.848,2.744,17.31,7.936,24.473c0.795,1.096,0.632,2.6-0.377,3.502c-8.514,7.618-13.397,18.506-13.397,29.87v31.013
		c0,2.801,2.276,5.072,5.085,5.072h49.343V370.25C117.643,369.744,117.669,369.244,117.719,368.75z"/>
</g>
<path style="opacity:0.15;fill:#490089;enable-background:new    ;" d="M117.643,375.064v-4.814c0-0.506,0.027-1.006,0.076-1.5
	c-4.048,0-6.42,0-6.755,0c-23.109,0-41.91,18.761-41.91,41.82c0,8.848,2.744,17.31,7.936,24.473c0.795,1.096,0.632,2.6-0.377,3.502
	c-8.514,7.618-13.397,18.506-13.397,29.87v31.013c0,2.801,2.276,5.072,5.085,5.072h28.785c-2.809,0-5.085-2.272-5.085-5.072v-31.013
	c0-11.364,4.884-22.252,13.397-29.87c1.009-0.902,1.172-2.406,0.377-3.502c-5.191-7.163-7.936-15.625-7.936-24.473
	C97.839,395.603,105.764,382.454,117.643,375.064z"/>
<path style="fill:#FFFFFF;" d="M315.604,391.461c-9.321,22.549-27.268,41.016-50.794,50.783c-2.784,1.161-5.758,1.756-8.81,1.756
	s-6.026-0.595-8.839-1.769c-23.512-9.762-41.454-28.231-50.772-50.785c0.006,0.013,0.011,0.026,0.016,0.04
	c-29.212,4.503-55.929,12.233-78.762,22.438V504.5h276.715v-90.576c-22.833-10.205-49.551-17.935-78.763-22.438
	C315.598,391.478,315.601,391.469,315.604,391.461z"/>
<g>
	<path style="fill:#F7931E;" d="M379.357,355.25h-56.621v0.229c0,12.636-2.515,24.821-7.142,36.007
		c29.212,4.503,55.93,12.233,78.763,22.438V370.25C394.357,362,387.607,355.25,379.357,355.25z"/>
	<path style="fill:#F7931E;" d="M189.264,355.479v-0.229h-56.621c-8.25,0-15,6.75-15,15v43.674
		c22.833-10.205,49.55-17.935,78.762-22.438C191.778,380.301,189.264,368.115,189.264,355.479z"/>
</g>
<path style="fill:#046699;" d="M302.736,355.25v0.229c0,29.987-17.897,56.793-45.595,68.293C256.776,423.925,256.388,424,256,424
	s-0.776-0.075-1.141-0.228c-27.698-11.5-45.595-38.306-45.595-68.293v-0.229h-20v0.229c0,38.098,22.737,72.154,57.897,86.752
	c2.814,1.174,5.788,1.769,8.839,1.769c3.052,0,6.026-0.595,8.81-1.756c35.189-14.61,57.926-48.667,57.926-86.765v-0.229H302.736z"/>
<path style="fill:#B2762F;" d="M256,327c-16.86,0-32.754-4.128-46.736-11.42v39.899c0,29.987,17.897,56.793,45.595,68.293
	c0.365,0.152,0.753,0.228,1.141,0.228c0.388,0,0.776-0.075,1.141-0.228c27.698-11.5,45.595-38.306,45.595-68.293V315.58
	C288.755,322.872,272.86,327,256,327z"/>
<path style="opacity:0.15;fill:#490089;enable-background:new    ;" d="M238,355.479v-30.076
	c-10.19-1.829-19.849-5.188-28.736-9.823v39.899c0,29.987,17.897,56.793,45.595,68.293c0.365,0.152,0.753,0.228,1.141,0.228
	c0.388,0,0.776-0.075,1.141-0.228c4.708-1.955,9.125-4.361,13.227-7.142C250.338,403.059,238,380.369,238,355.479z"/>
<path style="fill:#312F56;" d="M256,7.5c-55.9,0-101.219,22.535-101.219,78.438v49.5C154.781,79.535,200.1,57,256,57
	c55.902,0,101.219,22.535,101.219,78.438v-49.5C357.219,30.035,311.902,7.5,256,7.5z"/>
<path style="fill:#B2762F;" d="M154.781,134.211c0-55.902,45.318-78.438,101.219-78.438l0,0c55.902,0,101.219,22.535,101.219,78.438
	v56.747c0,55.902-45.316,101.22-101.219,101.22l0,0c-55.9,0-101.219-45.317-101.219-101.22V134.211z"/>
<path style="fill:#312F56;" d="M319.268,269.964v-28.547c0-15.324-12.468-27.791-27.792-27.791H274.25c0,0.663,0,1.403,0,2.198
	c0,2.653-4.5,4.824-10,4.824H253c-4.464,0-8.269-2.965-9.544-7.022h-22.932c-15.324,0-27.792,12.467-27.792,27.791v28.546
	c-23.134-18.55-37.951-47.045-37.951-79.005v34.822C154.781,281.683,200.1,327,256,327c55.902,0,101.219-45.317,101.219-101.22
	v-34.822C357.219,222.919,342.402,251.414,319.268,269.964z M289.906,286.352c-10.6,3.768-22.013,5.826-33.906,5.826
	c-11.894,0-23.305-2.058-33.906-5.826v-36.917c0-4.904,3.989-8.894,8.894-8.894h50.025c4.904,0,8.893,3.989,8.893,8.894V286.352z"/>
<path style="opacity:0.15;fill:#030007;enable-background:new    ;" d="M184.316,74.108c5.458-42.8,40.965-62.706,86.075-66.081
	C265.69,7.676,260.886,7.5,256,7.5c-55.9,0-101.219,22.535-101.219,78.438v48.273C154.781,106.317,166.065,86.732,184.316,74.108z"
	/>
<g>
	<path style="fill:#B2762F;" d="M154.781,148h-11.865c-13.059,0-23.646,10.587-23.646,23.645v25.701
		c0,13.059,10.587,23.646,23.646,23.646h11.865V148z"/>
	<path style="fill:#B2762F;" d="M369.085,148h-11.866v72.992h11.866c13.06,0,23.645-10.587,23.645-23.646v-25.701
		C392.729,158.587,382.145,148,369.085,148z"/>
</g>
<g style="opacity:0.15;">
	<path style="fill:#330068;" d="M192.732,269.963v-28.546c0-2.282,0.282-4.499,0.804-6.624c-6.385-13.264-9.974-28.128-9.974-43.835
		v-56.747c0-51.016,37.745-74.238,86.828-77.91c-4.701-0.352-9.504-0.527-14.391-0.527c-55.9,0-101.219,22.535-101.219,78.438
		v56.747C154.781,222.918,169.599,251.413,192.732,269.963z"/>
</g>
<g>
	<ellipse style="fill:#775436;" cx="202.52" cy="174.53" rx="13.477" ry="13.529"/>
	<ellipse style="fill:#775436;" cx="309.48" cy="174.53" rx="13.477" ry="13.529"/>
</g>
<g>
	<path style="fill:#046699;" d="M246.112,503.878v-19.89c0-1.718-0.994-4.116-2.208-5.33l-16.808-16.808
		c-1.214-1.214-3.613-2.208-5.33-2.208H186.15c-1.717,0-4.116,0.994-5.33,2.208l-16.808,16.808c-1.214,1.214-2.208,3.612-2.208,5.33
		v19.89c0,0.213,0.022,0.421,0.063,0.622h21.73c0.042-0.201,0.064-0.409,0.064-0.622v-10.837c0-1.717,0.994-4.115,2.208-5.33
		l4.003-4.003c1.214-1.214,3.613-2.208,5.33-2.208h17.509c1.717,0,4.116,0.994,5.33,2.208l4.003,4.003
		c1.214,1.215,2.208,3.613,2.208,5.33v10.837c0,0.213,0.022,0.421,0.064,0.622h21.73
		C246.09,504.299,246.112,504.091,246.112,503.878z"/>
	<path style="fill:#046699;" d="M350.194,503.878v-19.89c0-1.718-0.994-4.116-2.208-5.33l-16.808-16.808
		c-1.214-1.214-3.613-2.208-5.33-2.208h-35.616c-1.717,0-4.116,0.994-5.33,2.208l-16.808,16.808
		c-1.214,1.214-2.208,3.612-2.208,5.33v19.89c0,0.213,0.022,0.421,0.064,0.622h21.73c0.042-0.201,0.063-0.409,0.063-0.622v-10.837
		c0-1.717,0.993-4.115,2.208-5.33l4.003-4.003c1.214-1.214,3.613-2.208,5.33-2.208h17.509c1.717,0,4.116,0.994,5.33,2.208
		l4.003,4.003c1.214,1.215,2.208,3.613,2.208,5.33v10.837c0,0.213,0.022,0.421,0.063,0.622h21.73
		C350.172,504.299,350.194,504.091,350.194,503.878z"/>
</g>
<circle style="fill:#FFC502;" cx="351.5" cy="434.5" r="12.5"/>
<path d="M202.523,195.559c11.566,0,20.977-9.434,20.977-21.029s-9.41-21.029-20.977-21.029s-20.978,9.434-20.978,21.029
	S190.956,195.559,202.523,195.559z M202.523,168.5c3.295,0,5.977,2.705,5.977,6.029s-2.681,6.029-5.977,6.029
	s-5.978-2.705-5.978-6.029S199.227,168.5,202.523,168.5z"/>
<path d="M309.478,153.5c-11.567,0-20.978,9.434-20.978,21.029s9.411,21.029,20.978,21.029c11.566,0,20.977-9.434,20.977-21.029
	S321.044,153.5,309.478,153.5z M309.478,180.559c-3.296,0-5.978-2.705-5.978-6.029s2.682-6.029,5.978-6.029
	c3.295,0,5.977,2.705,5.977,6.029S312.773,180.559,309.478,180.559z"/>
<path d="M226.988,154.048c0.847,0.308,1.712,0.454,2.564,0.454c3.064,0,5.94-1.892,7.048-4.937c1.417-3.893-0.59-8.196-4.483-9.613
	l-45.105-16.417c-3.891-1.413-8.196,0.591-9.613,4.482c-1.417,3.893,0.59,8.196,4.483,9.613L226.988,154.048z"/>
<path d="M282.448,154.502c0.852,0,1.718-0.146,2.565-0.454l45.104-16.417c3.893-1.417,5.899-5.721,4.483-9.613
	c-1.418-3.892-5.72-5.898-9.613-4.482l-45.104,16.417c-3.893,1.417-5.899,5.721-4.483,9.613
	C276.509,152.61,279.385,154.502,282.448,154.502z"/>
<path d="M276.572,265.304c2.929-2.93,2.929-7.678,0-10.607c-2.929-2.928-7.678-2.928-10.607,0c-5.495,5.497-14.436,5.494-19.932,0
	c-2.929-2.928-7.678-2.928-10.606,0.001c-2.929,2.93-2.928,7.678,0.001,10.606c5.672,5.671,13.123,8.507,20.572,8.507
	C263.45,273.81,270.901,270.975,276.572,265.304z"/>
<path d="M351.5,414.5c-11.028,0-20,8.972-20,20s8.972,20,20,20s20-8.972,20-20S362.528,414.5,351.5,414.5z M351.5,439.5
	c-2.757,0-5-2.243-5-5s2.243-5,5-5s5,2.243,5,5S354.257,439.5,351.5,439.5z"/>
<path d="M443.418,435.919c4.61-7.646,7.028-16.328,7.028-25.349c0-27.195-22.165-49.32-49.41-49.32h-1.063
	c-3.479-7.939-11.408-13.5-20.616-13.5h-69.121v-27.772c31.805-18.384,53.474-52.412,54.436-91.486h4.413
	c17.173,0,31.145-13.972,31.145-31.146v-25.701c0-17.174-13.971-31.145-31.145-31.145h-4.366V85.938
	c0-28.585-11.374-51.531-32.891-66.357C313.239,6.771,287.018,0,256,0s-57.238,6.771-75.828,19.579
	c-21.518,14.827-32.891,37.773-32.891,66.358V140.5h-4.365c-17.174,0-31.146,13.972-31.146,31.145v25.701
	c0,17.174,13.972,31.146,31.146,31.146h4.412c0.962,39.074,22.631,73.102,54.436,91.486v27.772h-69.121
	c-9.207,0-17.137,5.561-20.616,13.5h-1.063c-27.245,0-49.41,22.125-49.41,49.32c0,9.02,2.417,17.7,7.028,25.349
	c-8.223,8.789-12.867,20.413-12.867,32.496v31.013C55.715,506.36,61.36,512,68.3,512h375.4c6.939,0,12.585-5.64,12.585-12.572
	v-31.013C456.285,456.333,451.641,444.708,443.418,435.919z M110.143,497H70.715v-28.585c0-9.233,3.973-18.083,10.898-24.28
	c3.885-3.476,4.507-9.277,1.449-13.493c-4.258-5.875-6.508-12.815-6.508-20.071c0-18.649,14.994-33.861,33.589-34.3
	C110.143,376.271,110.143,497,110.143,497z M329.973,362.75h49.384c4.136,0,7.5,3.364,7.5,7.5v32.408
	c-18.721-7.389-39.395-13.123-61.185-17.035C327.946,378.279,329.415,370.617,329.973,362.75z M385.229,171.645v25.701
	c0,8.902-7.243,16.146-16.145,16.146h-4.366v-22.041h5.291c4.142,0,7.5-3.357,7.5-7.5s-3.358-7.5-7.5-7.5h-5.291V155.5h4.366
	C377.987,155.5,385.229,162.743,385.229,171.645z M126.771,197.347v-25.701c0-8.902,7.243-16.145,16.146-16.145h4.365v20.951h-5.291
	c-4.142,0-7.5,3.357-7.5,7.5s3.358,7.5,7.5,7.5h5.291v22.041h-4.365C134.013,213.492,126.771,206.249,126.771,197.347z
	 M162.281,134.211c0-23.765,8.883-41.935,26.402-54.006C204.758,69.128,228.036,63.273,256,63.273
	c14.336,0,27.495,1.534,39.113,4.559c4.008,1.045,8.104-1.359,9.148-5.368c1.044-4.008-1.359-8.104-5.368-9.148
	C286.042,49.97,271.61,48.273,256,48.273c-31.018,0-57.238,6.771-75.828,19.579c-7.068,4.87-13.034,10.622-17.869,17.156
	c0.232-23.304,9.092-41.165,26.38-53.077C204.758,20.854,228.036,15,256,15c27.965,0,51.243,5.854,67.317,16.931
	c17.265,11.897,26.123,29.728,26.377,52.989c-2.238-2.997-4.717-5.839-7.45-8.514c-2.959-2.898-7.708-2.848-10.606,0.112
	c-2.898,2.96-2.848,7.708,0.112,10.606c11.922,11.673,17.968,27.515,17.968,47.086v56.747c0,22.887-8.212,44.543-22.951,61.459v-11
	c0-19.46-15.832-35.291-35.292-35.291h-11.532c-1.375-1.606-3.414-2.626-5.693-2.626c-4.142,0-7.5,3.357-7.5,7.5v1.894
	c-0.659,0.143-1.507,0.255-2.5,0.255H253c-1.355,0-2.5-1.145-2.5-2.5V175c0-4.143-3.358-7.5-7.5-7.5s-7.5,3.357-7.5,7.5v31.126
	h-14.976c-19.46,0-35.292,15.831-35.292,35.291v10.999c-14.739-16.916-22.951-38.572-22.951-61.458L162.281,134.211L162.281,134.211
	z M166.028,252.05c6.026,8.848,13.411,16.866,22.013,23.765c2.251,1.804,5.338,2.157,7.937,0.91
	c2.601-1.248,4.255-3.877,4.255-6.762v-28.546c0-11.189,9.103-20.291,20.292-20.291h18.492c3.195,4.254,8.266,7.022,13.983,7.022
	h11.25c7.393,0,13.292-2.762,15.955-7.022h11.271c11.189,0,20.292,9.102,20.292,20.291v28.547c0,2.885,1.654,5.514,4.255,6.762
	c2.6,1.247,5.687,0.895,7.937-0.91c8.602-6.897,15.986-14.915,22.012-23.764C334.586,290.984,298.561,319.5,256,319.5
	S177.413,290.981,166.028,252.05z M278,390.5h7.289c-6.843,11.041-16.913,20.045-29.289,25.597
	c-12.375-5.548-22.446-14.554-29.289-25.597H234c4.142,0,7.5-3.357,7.5-7.5s-3.358-7.5-7.5-7.5h-14.163
	c-2.001-6.363-3.073-13.096-3.073-20.021V327.17c12.177,4.729,25.408,7.329,39.236,7.329c13.828,0,27.059-2.601,39.236-7.329v28.309
	c0,6.925-1.072,13.657-3.073,20.021H278c-4.142,0-7.5,3.357-7.5,7.5S273.858,390.5,278,390.5z M202.097,362.75
	c2.658,30.035,21.637,56.221,49.874,67.944c1.282,0.535,2.637,0.806,4.028,0.806s2.747-0.271,4.017-0.801
	c28.248-11.728,47.228-37.914,49.886-67.949h5.032c-2.67,32.066-22.878,60.06-53.011,72.572c-3.749,1.563-8.077,1.572-11.887-0.018
	c-30.106-12.5-50.302-40.489-52.971-72.555h5.032V362.75z M216.755,497h-25.592v-3.728c0.038-0.129,0.111-0.304,0.175-0.422
	l3.676-3.676c0.118-0.064,0.293-0.137,0.422-0.175h17.046c0.129,0.038,0.305,0.111,0.422,0.175l3.676,3.676
	c0.064,0.118,0.137,0.293,0.175,0.422V497z M238.612,497h-6.857v-3.959c0-3.725-1.77-7.997-4.404-10.634l-4.004-4.004
	c-2.635-2.634-6.908-4.403-10.632-4.403h-17.509c-3.725,0-7.997,1.77-10.633,4.404l-4.004,4.005
	c-2.634,2.635-4.404,6.907-4.404,10.632V497h-6.857v-12.781c0.038-0.128,0.11-0.303,0.174-0.421l16.48-16.48
	c0.118-0.064,0.293-0.137,0.422-0.175h35.153c0.129,0.038,0.304,0.111,0.422,0.175l16.48,16.48c0.064,0.118,0.136,0.293,0.174,0.421
	L238.612,497L238.612,497z M320.837,497h-25.592v-3.728c0.038-0.129,0.111-0.304,0.175-0.422l3.676-3.676
	c0.118-0.064,0.293-0.137,0.422-0.175h17.046c0.129,0.038,0.304,0.111,0.422,0.175l3.676,3.676c0.064,0.118,0.137,0.293,0.175,0.422
	L320.837,497L320.837,497z M342.694,497h-6.857v-3.959c0-3.725-1.77-7.997-4.405-10.634l-4.004-4.004
	c-2.635-2.634-6.908-4.403-10.632-4.403h-17.509c-3.725,0-7.997,1.77-10.633,4.404l-4.004,4.005
	c-2.634,2.635-4.403,6.907-4.403,10.632V497h-6.857v-12.781c0.038-0.128,0.11-0.303,0.174-0.421l16.48-16.48
	c0.118-0.064,0.293-0.137,0.422-0.175h35.153c0.129,0.038,0.304,0.111,0.422,0.175l16.48,16.48c0.064,0.118,0.136,0.293,0.174,0.421
	V497H342.694z M441.285,497h-39.428v-13c0-4.143-3.358-7.5-7.5-7.5s-7.5,3.357-7.5,7.5v13h-29.164v-13.012
	c0-3.726-1.77-7.999-4.404-10.634l-16.809-16.809c-2.635-2.634-6.908-4.403-10.632-4.403h-35.616c-3.725,0-7.997,1.77-10.633,4.404
	l-16.808,16.808c-2.634,2.635-4.404,6.908-4.404,10.634V497h-4.775v-13.012c0-3.726-1.77-7.999-4.404-10.634l-16.809-16.809
	c-2.635-2.634-6.908-4.403-10.632-4.403h-35.616c-3.725,0-7.997,1.77-10.633,4.404l-16.808,16.808
	c-2.634,2.635-4.404,6.908-4.404,10.634V497h-29.164v-78.158c4.336-1.834,8.823-3.586,13.393-5.228
	c3.898-1.4,5.923-5.695,4.523-9.594c-1.4-3.898-5.696-5.924-9.594-4.523c-2.809,1.009-5.586,2.061-8.322,3.146V370.25
	c0-4.136,3.364-7.5,7.5-7.5h49.384c0.556,7.85,2.02,15.494,4.284,22.822c-3.646,0.653-7.27,1.352-10.862,2.111
	c-4.052,0.857-6.643,4.837-5.786,8.89c0.857,4.053,4.838,6.644,8.89,5.786c4.408-0.932,8.866-1.77,13.36-2.535
	c10.586,21.843,28.911,39.593,52.36,49.329c3.732,1.557,7.678,2.347,11.727,2.347c4.048,0,7.984-0.785,11.686-2.329
	c23.455-9.738,41.784-27.478,52.379-49.307c24.073,4.108,46.753,10.507,66.793,18.978V446c0,4.143,3.358,7.5,7.5,7.5
	s7.5-3.357,7.5-7.5v-69.729c18.595,0.439,33.589,15.65,33.589,34.3c0,7.256-2.25,14.196-6.506,20.068
	c-3.06,4.219-2.438,10.021,1.446,13.495c6.926,6.198,10.899,15.048,10.899,24.281V497z"/>
<path d="M292.418,293.418c2.99-1.063,4.988-3.893,4.988-7.066v-36.917c0-9.039-7.354-16.394-16.393-16.394h-50.025
	c-9.04,0-16.394,7.354-16.394,16.394v36.917c0,3.174,1.998,6.004,4.988,7.066c11.685,4.154,23.938,6.26,36.419,6.26
	S280.735,297.571,292.418,293.418z M229.594,249.435c0-0.769,0.625-1.394,1.394-1.394h50.025c0.768,0,1.393,0.625,1.393,1.394
	v31.468c-8.546,2.507-17.405,3.775-26.406,3.775s-17.86-1.268-26.406-3.776V249.435z"/>
<g>
</g>
<g>
</g>
<g>
</g>
<g>
</g>
<g>
</g>
<g>
</g>
<g>
</g>
<g>
</g>
<g>
</g>
<g>
</g>
<g>
</g>
<g>
</g>
<g>
</g>
<g>
</g>
<g>
</g>
</svg>
