<svg height="512" viewBox="0 0 256 256" width="512" xmlns="http://www.w3.org/2000/svg"><path d="m167.125 53.73a22.627 22.627 0 0 1 20.606 4.6 32.9 32.9 0 0 1 5.142 5.7c8.866 12.385 17.774 6.331 17.774 6.331s5.43-3.242 10.2-.194a10.933 10.933 0 0 1 2.475 16.1 2.858 2.858 0 0 1 -1.876 1.1c-3.328.457-13.434 1.449-19.343-2.33-5.89-3.767-16.064-1.726-24.063-6.179a1.546 1.546 0 0 0 -2.087 2.142c2.652 4.574 7.5 10.292 15.5 11.507 8.639 1.313 12.1 6.583 13.486 10.329a7.012 7.012 0 0 1 -4.891 9.282l-.179.041a6.192 6.192 0 0 0 -4.457 5.054.958.958 0 0 1 -1.677.424c-1.993-2.366-4.93-6.817-2.692-10.514a3.8 3.8 0 0 0 -.4-4.432c-1.837-2.115-5.613-4.516-13.193-4.032-12.336.788-19.686-.425-24.028-4.9a.69.69 0 0 1 .348-1.152l5.119-1.126a.7.7 0 0 0 .1-1.337c-4.43-1.713-13.542-6.648-15.281-18.666a.681.681 0 0 1 .936-.72c1.851.768 5.7 2.123 8.567 1.493a9.56 9.56 0 0 1 5.491.288.189.189 0 0 0 .213-.3c-1.967-2.349-8.28-10.547-9.334-20.227a.688.688 0 0 1 1.053-.664c2.309 1.487 7.612 4.436 12.053 3.46 1.613-.362 3.113-.731 4.438-1.078z" fill="#87d147"/><path d="m175.954 81c2.34 4.038 6.392 8.962 12.816 10.9-2.047-4.3.25-7.623 2.488-9.635-4.4-.529-9.1-1.1-13.222-3.395a1.546 1.546 0 0 0 -2.082 2.13z" fill="#edf4fc"/><path d="m149.58 52.006a.688.688 0 0 1 1.053-.664c2.309 1.487 7.612 4.436 12.053 3.46l.78-.176c-6.316-4.556-15.226-13.589-10.952-26.4a2.846 2.846 0 0 0 -1.134-3.319l-1.971-1.26a2.816 2.816 0 0 0 -4.319 2.077l-.773 7.307a.853.853 0 0 1 -1.564.379 79.673 79.673 0 0 1 -10-23.881.76.76 0 0 0 -1.495.067c-1.066 8.53-1.235 29.605 18.951 45.983a28.491 28.491 0 0 1 -.629-3.573z" fill="#fcdd86"/><path d="m153.419 93.751a.69.69 0 0 1 .348-1.152l5.119-1.126a.7.7 0 0 0 .1-1.337c-4.43-1.713-13.542-6.648-15.281-18.666a.681.681 0 0 1 .936-.72c1.851.768 5.7 2.123 8.567 1.493a9.56 9.56 0 0 1 5.491.288.189.189 0 0 0 .213-.3c-1.72-2.053-6.759-8.577-8.7-16.652a54.8 54.8 0 0 1 -9.756-10.175 85.606 85.606 0 0 0 -11.91-1.527 17.615 17.615 0 0 1 -13.384-8.142.78.78 0 0 0 -1.424.406c-.608 8.869 4.541 15.109 6.858 17.443a.779.779 0 0 1 -.428 1.316 36.811 36.811 0 0 1 -17.777-1.286.781.781 0 0 0 -.981 1.014 34.453 34.453 0 0 0 22.29 21.257.553.553 0 0 1 -.11 1.079 38.21 38.21 0 0 0 -13.411 4.4.778.778 0 0 0 -.144 1.25c9.494 8.607 16.918 10.292 20.61 10.509a.777.777 0 0 1 .436 1.386 12.827 12.827 0 0 0 -4.926 9.211.772.772 0 0 0 1.238.657c9.427-7.058 12.107-1.825 27-1.167 7.947.351 13.417-1.98 16.867-4.337-8.696.027-14.282-1.451-17.841-5.122z" fill="#fc8c48"/><path d="m107.308 217.318c-33.514-15.6-75.224-35.017-75.224-80.1a70.422 70.422 0 0 1 21.36-51.209c13.613-13.42 31.971-21.756 49.941-26.932a36.508 36.508 0 0 1 -1.978-4.448.781.781 0 0 1 .981-1.014 36.811 36.811 0 0 0 17.777 1.285.779.779 0 0 0 .428-1.316 25.324 25.324 0 0 1 -4.524-6.267c-8.584-1.377-25.291-2.772-41.551 3.18a1.16 1.16 0 0 0 -.173 2.1 22.079 22.079 0 0 1 6.168 4.989 1.159 1.159 0 0 1 -.838 1.918c-6.592.161-26.02 1.682-39.233 13.587a1.16 1.16 0 0 0 .375 1.959 20.11 20.11 0 0 1 5.583 3.069 1.159 1.159 0 0 1 -.3 2c-5.293 1.96-20.543 8.968-27.489 26.606a1.158 1.158 0 0 0 1.148 1.588 28.859 28.859 0 0 1 7.905.559 1.157 1.157 0 0 1 .532 2c-3.991 3.5-13.322 14.065-12.345 35.847a1.152 1.152 0 0 0 1.653.975 22.888 22.888 0 0 1 6.671-2.071 1.156 1.156 0 0 1 1.279 1.458c-1.512 5.191-5.46 22.351 2.578 38.658a1.159 1.159 0 0 0 1.969.2c1.362-1.853 3.977-4.834 7.4-6.029a1.159 1.159 0 0 1 1.564 1.033c.166 4.775 1.86 20.4 16.5 30.575a1.161 1.161 0 0 0 1.8-.7c.43-1.983 1.375-5.241 3.208-7.174a1.159 1.159 0 0 1 1.943.4c1.507 4.418 7.281 17.332 25.04 24.853a1.15 1.15 0 0 0 1.59-.96c.181-2.021.746-5.557 2.5-7.973a1.159 1.159 0 0 1 2.02.231c1.73 4.293 7.445 15.666 20.948 20.8a1.148 1.148 0 0 0 1.537-.967c.211-1.984.888-5.515 3.058-7.769a1.141 1.141 0 0 1 1.624 0c2.56 2.562 10.589 11.267 11.187 20.2a1.141 1.141 0 0 0 1.149 1.043h18.792c-4.624-15.291-24.47-26.836-44.553-36.184z" fill="#fc8c48"/><path d="m229.259 160.558-2.183-2.029a4.949 4.949 0 0 0 -6.914.1 22.433 22.433 0 0 0 -5.488 13.861 12.078 12.078 0 0 1 -2.34 6.534 9.134 9.134 0 0 1 -2.927 2.628l-13.645 7.8a22.47 22.47 0 0 1 -14.63 2.688l-37.857-7.144c-10.175-1.92-19.462 6.758-17.78 16.975a14.971 14.971 0 0 0 16.821 12.565l44.129-5.614a28.583 28.583 0 0 0 14.666-6.378l7.4-6.157a2.564 2.564 0 0 1 4.109 1.3q.084.3.159.612c1.309 5.429 2.045 9.464 4.847 11.789a3.662 3.662 0 0 0 4.969-.282l2.084-2.124a3.635 3.635 0 0 0 .535-4.373 7.586 7.586 0 0 1 -.7-5.767c.781-3.378-2.062-5.744-3.565-7.8a3.954 3.954 0 0 1 -.313-4.166 30.311 30.311 0 0 0 2.929-10.739c.474-4.369 3.366-6.885 5.43-8.463a3.8 3.8 0 0 0 .264-5.816z" fill="#87d147"/><path d="m166.55 153.514a3.185 3.185 0 0 0 .009-3.176 9.412 9.412 0 0 1 -.571-1.273c-1.151-3.144-4.421-4.893-6.722-5.764a3.808 3.808 0 0 1 -2.442-3.2 29.232 29.232 0 0 0 -3.3-10.223 9.957 9.957 0 0 1 -1.046-3.558 3.107 3.107 0 0 0 -3.078-2.82h-3.543a3.092 3.092 0 0 0 -3 3.905 22.3 22.3 0 0 0 2.253 5.27 13.056 13.056 0 0 1 1.037 10l-4.889 9.073a22.473 22.473 0 0 1 -10.994 10.02l-22.053 8.577c5.2 2.623 10.92 5.337 17.134 8.23q3.687 1.716 7.441 3.481l10.865-8.858a28.574 28.574 0 0 0 9.072-13.17l2.365-7.147a14.531 14.531 0 0 1 2.1 1.65c1.011.954 1.942 1.851 2.827 2.666a3.1 3.1 0 0 0 4.748-.7z" fill="#87d147"/><g fill="#edf4fc"><path d="m166.55 153.514-1.788 2.981a3.079 3.079 0 0 1 -1.71 1.348 10.821 10.821 0 0 0 10.166-.236 1.706 1.706 0 0 0 .088-2.972l-6.6-3.983a3.144 3.144 0 0 1 -.156 2.862z"/><path d="m145.855 123.5h3.545a3.062 3.062 0 0 1 2.279 1.026l-1.343-9.4a1.707 1.707 0 0 0 -2.771-1.079 10.835 10.835 0 0 0 -4.041 10.524 3.1 3.1 0 0 1 2.331-1.071z"/><path d="m155.975 122.948 3.063 1.781a3.061 3.061 0 0 1 1.455 2.032l3.562-8.8a1.707 1.707 0 0 0 -1.854-2.326 10.837 10.837 0 0 0 -8.781 7.069 3.1 3.1 0 0 1 2.555.244z"/><path d="m239.222 154.816c-3.118-1.778-8.659-3.49-14.819 1.292-.5.389-.928.758-1.31 1.114a5.045 5.045 0 0 1 3.983 1.307l2.183 2.029a3.773 3.773 0 0 1 1.193 2.577l8.76-4.907a1.958 1.958 0 0 0 .01-3.412z"/><path d="m216.888 147.5c-3.581.234-9.149 1.859-11.654 9.244-.2.6-.357 1.144-.479 1.652a5.045 5.045 0 0 1 4.044-1.1l2.94.49a3.783 3.783 0 0 1 2.415 1.493l4.606-8.921a1.958 1.958 0 0 0 -1.872-2.858z"/><path d="m231.639 211.74-6.022-7.416a3.657 3.657 0 0 1 -.936 3.354l-2.081 2.122a3.65 3.65 0 0 1 -2.672 1.107 11.489 11.489 0 0 0 10.557 3.769 1.812 1.812 0 0 0 1.154-2.936z"/></g><path d="m198.15 239.128c-3.984-11.722-11.012-21.2-19.752-29.187l-36.082 4.591a14.965 14.965 0 1 1 -3.713-29.7c-4.448-2.161-8.9-4.233-13.258-6.263-31.435-14.634-50.522-24.719-50.522-41.354a27.462 27.462 0 0 1 8.588-20.735c8.865-8.764 24.475-15.458 45.227-19.44a14.435 14.435 0 0 1 2.438-2.531.777.777 0 0 0 -.435-1.387c-3.693-.216-11.119-1.9-20.614-10.512a.773.773 0 0 1 .14-1.243 38.256 38.256 0 0 1 13.418-4.406.553.553 0 0 0 .11-1.079 34.64 34.64 0 0 1 -20.31-16.808c-17.97 5.176-36.328 13.512-49.941 26.932a70.422 70.422 0 0 0 -21.36 51.209c0 45.083 41.71 64.5 75.224 80.1 20.083 9.348 39.929 20.893 44.557 36.182h44.215a4.5 4.5 0 0 0 4.43-5.3 64.086 64.086 0 0 0 -2.36-9.069z" fill="#87d147"/><path d="m207.791 182.52c0 .019 0 .039-.006.058l1.622-.926a9.134 9.134 0 0 0 2.927-2.628 12.078 12.078 0 0 0 2.34-6.534v-.03c-1.764-3.769-.784-7.307.042-9.684a3.8 3.8 0 0 0 -2.979-4.993l-2.94-.49a4.949 4.949 0 0 0 -5.714 3.894 22.42 22.42 0 0 0 3.058 14.59 12.089 12.089 0 0 1 1.65 6.743z" fill="#87d147"/><path d="m152.482 126.322a9.957 9.957 0 0 0 1.046 3.558 29.232 29.232 0 0 1 3.3 10.223 3.818 3.818 0 0 0 .673 1.809 30.791 30.791 0 0 0 1.906-9.592 9.955 9.955 0 0 1 .883-3.6 3.107 3.107 0 0 0 -1.248-3.989l-3.064-1.781a3.087 3.087 0 0 0 -4.4 1.467 3.133 3.133 0 0 1 .904 1.905z" fill="#87d147"/><path d="m138.6 184.835c-4.448-2.161-8.9-4.233-13.258-6.263-31.435-14.634-50.522-24.719-50.522-41.354a27.462 27.462 0 0 1 8.588-20.735c8.865-8.764 24.475-15.458 45.227-19.44a14.435 14.435 0 0 1 2.438-2.531.777.777 0 0 0 -.435-1.387c-3.693-.216-11.118-1.9-20.612-10.51a.754.754 0 0 1 -.195-.807c-4.563 1.164-8.7 2.434-11.94 3.517a78.828 78.828 0 0 0 -17.218 8.032 66.871 66.871 0 0 0 -11.326 8.9 47.511 47.511 0 0 0 -14.527 34.958c0 30.587 31.561 45.278 62.085 59.486q4.216 1.962 8.437 3.953a15.019 15.019 0 0 1 13.258-15.819z" fill="#fcdd86"/><path d="m198.15 239.128c-3.984-11.722-11.012-21.2-19.752-29.187l-28.544 3.632a103.471 103.471 0 0 1 13.516 9.749 47.211 47.211 0 0 1 15 23.615 41.173 41.173 0 0 1 1.172 6.563h16.538a4.5 4.5 0 0 0 4.43-5.3 64.086 64.086 0 0 0 -2.36-9.072z" fill="#fcdd86"/><path d="m220.843 70.171c-4.766-3.048-10.2.194-10.2.194a10.872 10.872 0 0 1 -10.007.5c.039 4.031.772 10.77 4.7 15.678 5.838 1.954 13.324 1.211 16.1.83a2.858 2.858 0 0 0 1.876-1.1 10.934 10.934 0 0 0 -2.469-16.102z" fill="#fc8c48"/><path d="m185.675 70.64-.886-2.745a5.4 5.4 0 0 0 -4.728-3.726l-5.783-.443s.969 8.975 10.743 7.9a.761.761 0 0 0 .654-.986z" fill="#edf4fc"/><path d="m97.018 23.272a10.893 10.893 0 0 1 -8.732-8.555.2.2 0 0 0 -.387 0 10.9 10.9 0 0 1 -8.733 8.555.191.191 0 0 0 0 .379 10.9 10.9 0 0 1 8.734 8.555.2.2 0 0 0 .387 0 10.892 10.892 0 0 1 8.732-8.555.191.191 0 0 0 -.001-.379z" fill="#f5c84c"/><path d="m230.941 125.117h-2.33v-2.33a3.158 3.158 0 1 0 -6.315 0v2.33h-2.329a3.157 3.157 0 0 0 0 6.314h2.333v2.33a3.158 3.158 0 1 0 6.315 0v-2.33h2.33a3.157 3.157 0 1 0 0-6.314z" fill="#ef4460"/><circle cx="108.662" cy="3.377" fill="#70d6f9" r="3.377"/><circle cx="200.662" cy="139.377" fill="#f5c84c" r="3.377"/><circle cx="216.662" cy="25.377" fill="#87d147" r="3.377"/><circle cx="28.662" cy="209.377" fill="#87d147" r="3.377"/><path d="m194.484 120.477a3.486 3.486 0 0 1 -2.661-1.233c-4.142-4.919-5.179-9.684-2.919-13.42a1.308 1.308 0 0 0 -.151-1.5c-1.46-1.68-4.581-3.6-11.147-3.176-13.706.873-21.237-.764-25.982-5.659a3.19 3.19 0 0 1 1.605-5.334l.143-.032a25.168 25.168 0 0 1 -12.14-18.3 3.182 3.182 0 0 1 4.371-3.386c2.876 1.193 5.523 1.7 7.07 1.359.406-.089.8-.157 1.181-.208-2.7-4.077-6-10.322-6.759-17.316a3.187 3.187 0 0 1 4.89-3.037c3.882 2.5 7.686 3.669 10.163 3.12 1.425-.313 2.886-.666 4.342-1.048a25.07 25.07 0 0 1 22.881 5.132 35.5 35.5 0 0 1 5.534 6.135c7.363 10.283 14.056 5.91 14.336 5.719.04-.028.082-.054.124-.079.277-.166 6.824-3.992 12.824-.154a13.569 13.569 0 0 1 5.916 8.955 13.706 13.706 0 0 1 -2.8 10.768 5.32 5.32 0 0 1 -3.522 2.061c-4.158.572-14.535 1.454-21.029-2.7-2.367-1.513-5.963-1.946-9.77-2.405a47.185 47.185 0 0 1 -11.061-2.27 18.378 18.378 0 0 0 11.906 7.558c10.187 1.547 14.057 8.141 15.457 11.934a9.617 9.617 0 0 1 -.551 7.882 9.384 9.384 0 0 1 -6.116 4.7l-.217.05a3.688 3.688 0 0 0 -2.526 3.042 3.4 3.4 0 0 1 -2.49 2.717 3.434 3.434 0 0 1 -.902.125zm-15.127-24.385c7.264 0 11.154 2.634 13.17 4.955a6.342 6.342 0 0 1 .655 7.367c-.958 1.582-.174 3.67.836 5.35a8.529 8.529 0 0 1 5.314-4.051l.147-.033a4.324 4.324 0 0 0 2.852-2.2 4.615 4.615 0 0 0 .263-3.782c-1.244-3.369-4.252-7.618-11.516-8.722-8.978-1.365-14.358-7.676-17.288-12.726a4.046 4.046 0 0 1 5.463-5.57c3.7 2.061 8.088 2.589 12.329 3.1 4.39.529 8.535 1.028 11.864 3.157 5.24 3.35 14.839 2.346 17.656 1.959a.351.351 0 0 0 .229-.145 8.6 8.6 0 0 0 1.851-6.862 8.5 8.5 0 0 0 -3.686-5.611c-3.2-2.049-7.11-.017-7.531.213-3.834 2.538-13.051 4.276-21.125-7a30.529 30.529 0 0 0 -4.75-5.273 20.076 20.076 0 0 0 -18.33-4.069c-1.521.4-3.047.768-4.537 1.1-3.6.793-7.466-.411-10.489-1.862a41.582 41.582 0 0 0 8.1 15.245 2.688 2.688 0 0 1 -3.024 4.238 7.082 7.082 0 0 0 -4.059-.18 14.625 14.625 0 0 1 -6.91-.518c2.418 8.335 9.045 12.088 13.053 13.637a3.2 3.2 0 0 1 -.467 6.111l-1.237.272c3.881 1.991 9.807 2.566 19.1 1.973q1.075-.074 2.067-.073z"/><path d="m214.532 81.226a2.5 2.5 0 0 1 -.024-5c.119 0 11.963-.2 17.471-5.922a9.562 9.562 0 0 0 2.7-7.243c-.25-9.462-12.265-14.438-23.883-19.249-10.558-4.373-20.53-8.5-21.708-16.413-.873-5.858 3.292-12.348 13.106-20.425a2.5 2.5 0 1 1 3.178 3.86c-8.1 6.663-11.911 11.988-11.339 15.828.762 5.111 9.869 8.882 18.676 12.53 12.483 5.17 26.632 11.029 26.968 23.737a14.519 14.519 0 0 1 -4.112 10.855c-6.977 7.23-20.444 7.436-21.013 7.442z"/><path d="m188.771 94.394a2.519 2.519 0 0 1 -.722-.106c-7.289-2.2-11.777-7.759-14.258-12.038a4.046 4.046 0 0 1 5.462-5.57c3.7 2.063 8.076 2.589 12.3 3.1a2.5 2.5 0 0 1 1.373 4.341c-3.568 3.208-2.315 5.837-1.9 6.7a2.5 2.5 0 0 1 -2.256 3.576zm-8.845-11.918a20.928 20.928 0 0 0 5.579 5.215 9.587 9.587 0 0 1 1.078-3.538 34.732 34.732 0 0 1 -6.657-1.677z"/><path d="m227 110.827c-4.075 0-8.935-1.606-13.287-7.346-8.375-11.043-24.908-11.481-25.074-11.481a2.5 2.5 0 0 1 .046-5h.047c.778.015 19.141.509 28.964 13.462 5.084 6.706 10.793 5.932 14.688 4.1a2.5 2.5 0 0 1 2.125 4.525 18 18 0 0 1 -7.509 1.74z"/><path d="m150.209 58.081a2.494 2.494 0 0 1 -1.575-.559c-21.21-17.209-20.952-39.464-19.857-48.234a3.212 3.212 0 0 1 3.042-2.844 3.247 3.247 0 0 1 3.364 2.5 79.167 79.167 0 0 0 7.172 18.865l.249-2.345a5.317 5.317 0 0 1 8.152-3.921l1.972 1.261a5.348 5.348 0 0 1 2.157 6.218c-3.63 10.879 3.458 18.827 10.044 23.577a2.5 2.5 0 0 1 -.907 4.465l-.8.18c-3.618.794-7.5-.42-10.524-1.877a2.5 2.5 0 0 1 -2.491 2.715zm.056-9.352a3.173 3.173 0 0 1 1.722.511 25.5 25.5 0 0 0 3.988 2.116c-5.065-5.481-9.286-13.562-5.83-23.919a.358.358 0 0 0 -.11-.422l-1.971-1.261a.318.318 0 0 0 -.486.235l-.778 7.311a3.354 3.354 0 0 1 -6.155 1.468 77.916 77.916 0 0 1 -7.012-14.011 47.146 47.146 0 0 0 14.084 29.243 3.207 3.207 0 0 1 .873-.792 3.174 3.174 0 0 1 1.673-.479z"/><path d="m126.917 107.034a3.279 3.279 0 0 1 -1.553-.39 3.234 3.234 0 0 1 -1.709-3.073 15.029 15.029 0 0 1 3.318-8.461c-4.415-.989-10.94-3.675-18.622-10.641a3.278 3.278 0 0 1 .589-5.277 41.96 41.96 0 0 1 8.033-3.38 36.289 36.289 0 0 1 -17.914-20.325 3.281 3.281 0 0 1 4.131-4.239 34.464 34.464 0 0 0 13.433 1.585 24.8 24.8 0 0 1 -5.383-16.861 3.3 3.3 0 0 1 2.454-2.972 3.259 3.259 0 0 1 3.551 1.358 15.154 15.154 0 0 0 11.485 7.026 88.545 88.545 0 0 1 12.259 1.579 2.506 2.506 0 0 1 1.481.965 52.654 52.654 0 0 0 9.314 9.711 2.5 2.5 0 0 1 .856 1.361c1.836 7.623 6.733 13.892 8.191 15.631a2.689 2.689 0 0 1 -3.025 4.238 7.082 7.082 0 0 0 -4.059-.18 14.625 14.625 0 0 1 -6.91-.518c2.418 8.335 9.045 12.088 13.053 13.637a3.2 3.2 0 0 1 -.467 6.111l-1.218.268c2.965 1.5 7.112 2.193 12.873 2.193a1.306 1.306 0 0 0 .177 0 2.5 2.5 0 0 1 1.41 4.564c-3.5 2.392-9.53 5.159-18.388 4.77a70.664 70.664 0 0 1 -12.141-1.653c-5.619-1.164-7.945-1.646-13.25 2.324a3.287 3.287 0 0 1 -1.969.649zm9.623-8.8a32.721 32.721 0 0 1 6.609.928 66.314 66.314 0 0 0 11.349 1.554 29.724 29.724 0 0 0 6.252-.356 18.043 18.043 0 0 1 -9.126-4.868 3.19 3.19 0 0 1 1.605-5.334l.143-.032a25.168 25.168 0 0 1 -12.14-18.3 3.182 3.182 0 0 1 4.371-3.386c2.876 1.193 5.523 1.7 7.07 1.359q.6-.132 1.169-.206a43.7 43.7 0 0 1 -5.854-12.6 57.656 57.656 0 0 1 -8.971-9.331 89.654 89.654 0 0 0 -10.662-1.288 19.235 19.235 0 0 1 -11.8-5.158 21.685 21.685 0 0 0 5.814 10.611 3.279 3.279 0 0 1 -1.771 5.539 39.443 39.443 0 0 1 -15.488-.391 32.007 32.007 0 0 0 19.343 16.525 3.054 3.054 0 0 1 -.593 5.947 34.682 34.682 0 0 0 -10.238 2.979c8.029 6.687 14.129 8.024 17.165 8.2a3.276 3.276 0 0 1 1.873 5.816 11.3 11.3 0 0 0 -2.888 3.475 14.486 14.486 0 0 1 6.768-1.684z"/><path d="m151.865 256h-18.792a3.646 3.646 0 0 1 -3.643-3.375c-.474-7.085-6.368-14.253-9.379-17.481a13.79 13.79 0 0 0 -1.51 5.139 3.641 3.641 0 0 1 -1.727 2.738 3.6 3.6 0 0 1 -3.184.3 39.415 39.415 0 0 1 -21.2-19.587 18.817 18.817 0 0 0 -.892 4.413 3.65 3.65 0 0 1 -5.054 3.04c-15.981-6.768-22.769-17.634-25.468-23.865a18.878 18.878 0 0 0 -1.306 4.01 3.66 3.66 0 0 1 -5.668 2.229c-13.924-9.671-16.851-24.041-17.442-30.526a16.842 16.842 0 0 0 -4.577 4.377 3.6 3.6 0 0 1 -3.249 1.466 3.654 3.654 0 0 1 -2.976-2.039c-7.551-15.318-5-31.391-3.3-38.346a22.672 22.672 0 0 0 -3.91 1.453 3.651 3.651 0 0 1 -5.225-3.119c-.888-19.786 6.443-30.869 11.216-35.928a27.284 27.284 0 0 0 -4.646-.091 3.658 3.658 0 0 1 -3.638-5c6.41-16.288 19.348-23.942 26.558-27.073a18.146 18.146 0 0 0 -2.88-1.331 3.658 3.658 0 0 1 -1.2-6.169c12.072-10.882 28.749-13.505 37.775-14.091a19.951 19.951 0 0 0 -3.4-2.352 3.6 3.6 0 0 1 -1.88-3.468 3.672 3.672 0 0 1 2.394-3.173c16.8-6.151 34.031-4.709 42.805-3.3a2.5 2.5 0 0 1 1.834 1.337 22.965 22.965 0 0 0 4.069 5.637 3.279 3.279 0 0 1 -1.77 5.539 39.414 39.414 0 0 1 -15.476-.388q.23.468.477.939a2.5 2.5 0 0 1 -1.522 3.565c-20.803 5.99-37.247 14.842-48.879 26.309a67.974 67.974 0 0 0 -20.615 49.429c0 43.488 40.907 62.531 73.777 77.832 18.685 8.7 40.785 20.846 45.9 37.725a2.5 2.5 0 0 1 -2.397 3.225zm-17.577-5h13.937c-6.329-13.4-25.527-23.76-41.971-31.416l1.055-2.266-1.058 2.265c-34.157-15.9-76.667-35.689-76.667-82.365a72.869 72.869 0 0 1 22.105-52.989c11.695-11.529 27.893-20.509 48.177-26.714-.29-.672-.558-1.345-.807-2.027a3.282 3.282 0 0 1 4.131-4.24 34.423 34.423 0 0 0 13.429 1.586 27.468 27.468 0 0 1 -2.159-3.234c-8.1-1.183-22.293-2.13-36.449 2.349a24.242 24.242 0 0 1 4.4 4.015 3.658 3.658 0 0 1 -2.675 6.036c-5.373.131-23.3 1.364-35.992 11.56a22.194 22.194 0 0 1 4.2 2.591 3.658 3.658 0 0 1 -.974 6.309c-4.253 1.58-18.25 7.796-25.229 23.29a30.428 30.428 0 0 1 6.466.68 3.657 3.657 0 0 1 1.644 6.317c-3.644 3.192-11.866 12.564-11.556 31.877a23.53 23.53 0 0 1 5.569-1.486 3.679 3.679 0 0 1 3.269 1.256 3.626 3.626 0 0 1 .727 3.38c-1.315 4.518-4.937 19.949 1.533 34.932a17.6 17.6 0 0 1 7.184-5.164 3.711 3.711 0 0 1 3.306.432 3.6 3.6 0 0 1 1.582 2.871c.143 4.134 1.579 17.925 13.857 27.459a15.959 15.959 0 0 1 3.335-6.392 3.651 3.651 0 0 1 3.457-1.065 3.61 3.61 0 0 1 2.667 2.382c1.207 3.536 6.288 15.337 22 22.626a17.255 17.255 0 0 1 2.746-7.373 3.659 3.659 0 0 1 6.361.769 34.9 34.9 0 0 0 17.935 18.749 14.571 14.571 0 0 1 3.489-7.484 3.583 3.583 0 0 1 2.569-1.1h.032a3.685 3.685 0 0 1 2.592 1.074c3.218 3.217 10.569 11.453 11.783 20.51z"/><path d="m140.365 217.156a17.566 17.566 0 0 1 -17.337-14.782 16.982 16.982 0 0 1 5-15.073 17.8 17.8 0 0 1 15.714-4.765l37.858 7.144a19.994 19.994 0 0 0 12.925-2.4l13.645-7.8a6.668 6.668 0 0 0 2.129-1.9 9.6 9.6 0 0 0 1.881-5.191c.241-5.746 2.668-11.825 6.182-15.488a7.464 7.464 0 0 1 10.419-.2l2.185 2.03a6.3 6.3 0 0 1 -.449 9.626c-2.115 1.615-4.117 3.551-4.464 6.747a32.822 32.822 0 0 1 -3.195 11.623 1.455 1.455 0 0 0 .115 1.539c.263.362.575.733.9 1.121 1.589 1.908 3.989 4.791 3.082 8.717a5.212 5.212 0 0 0 .417 3.931 6.145 6.145 0 0 1 -.887 7.384l-2.1 2.138a6.181 6.181 0 0 1 -8.35.455c-3.195-2.653-4.143-6.653-5.344-11.718l-.336-1.409c-.043-.177-.088-.353-.136-.524a.08.08 0 0 0 -.082-.067l-7.423 6.172a31.026 31.026 0 0 1 -15.95 6.935l-44.128 5.615a17.949 17.949 0 0 1 -2.271.14zm.094-29.927a12.809 12.809 0 0 0 -8.94 3.648 12.038 12.038 0 0 0 -3.557 10.684 12.456 12.456 0 0 0 14.038 10.491l44.128-5.614a26.047 26.047 0 0 0 13.384-5.82l7.4-6.157a5.063 5.063 0 0 1 8.113 2.545c.065.229.125.462.183.7l.341 1.429c1.024 4.319 1.763 7.44 3.673 9.024a1.162 1.162 0 0 0 1.573-.095l2.1-2.138a1.126 1.126 0 0 0 .169-1.345 10.086 10.086 0 0 1 -.987-7.608c.325-1.406-.558-2.6-2.053-4.391-.4-.475-.773-.932-1.1-1.375a6.426 6.426 0 0 1 -.511-6.793 27.843 27.843 0 0 0 2.66-9.854c.554-5.112 3.71-8.126 6.4-10.181a1.271 1.271 0 0 0 .5-.96 1.31 1.31 0 0 0 -.421-1.031l-2.184-2.029a2.443 2.443 0 0 0 -3.408 0 19.945 19.945 0 0 0 -4.794 12.234 14.521 14.521 0 0 1 -2.8 7.876 11.691 11.691 0 0 1 -3.727 3.353l-13.639 7.797a25.066 25.066 0 0 1 -16.258 2.987l-37.933-7.157a12.651 12.651 0 0 0 -2.35-.22z"/><path d="m132.786 184.553a2.488 2.488 0 0 1 -1.066-.24c-2.493-1.176-4.976-2.333-7.43-3.475-7.508-3.5-12.653-5.966-17.205-8.264a2.5 2.5 0 0 1 .22-4.562l22.053-8.577a20 20 0 0 0 9.7-8.876l4.734-8.788a10.333 10.333 0 0 0 -.83-7.818 24.724 24.724 0 0 1 -2.51-5.864 5.5 5.5 0 0 1 .913-4.851 5.582 5.582 0 0 1 4.49-2.238h3.545a5.594 5.594 0 0 1 5.572 5.077 7.4 7.4 0 0 0 .787 2.67 31.774 31.774 0 0 1 3.555 11.109 1.31 1.31 0 0 0 .84 1.107c2.93 1.109 6.728 3.266 8.184 7.243a7.046 7.046 0 0 0 .421.941 5.647 5.647 0 0 1 -.063 5.653l-1.789 2.981a5.6 5.6 0 0 1 -8.584 1.252c-.592-.545-1.2-1.127-1.847-1.738l-.163-.155-1.215 3.67a31.018 31.018 0 0 1 -9.865 14.321l-10.865 8.858a2.5 2.5 0 0 1 -1.582.564zm-18.386-13.936c3.33 1.621 7.172 3.441 12 5.688q2.991 1.392 6.027 2.815l9.644-7.863a26.019 26.019 0 0 0 8.278-12.017l2.366-7.148a2.5 2.5 0 0 1 3.728-1.315 16.9 16.9 0 0 1 2.459 1.932l1.016.962c.622.592 1.216 1.156 1.789 1.683a.562.562 0 0 0 .475.146.6.6 0 0 0 .435-.291l1.79-2.981a.746.746 0 0 0 -.045-.7 12.132 12.132 0 0 1 -.722-1.609c-.848-2.316-3.659-3.678-5.258-4.284a6.278 6.278 0 0 1 -4.046-5.291 26.786 26.786 0 0 0 -3.036-9.336 12.491 12.491 0 0 1 -1.306-4.443.611.611 0 0 0 -.6-.569h-3.543a.621.621 0 0 0 -.5.25.526.526 0 0 0 -.094.47 19.683 19.683 0 0 0 2 4.678c1.972 3.319 2.427 7.428 1.311 11.881a2.5 2.5 0 0 1 -.223.579l-4.889 9.073a25.07 25.07 0 0 1 -12.217 11.135z"/><path d="m167.851 161.5a13.181 13.181 0 0 1 -5.915-1.419 2.5 2.5 0 0 1 .345-4.616.565.565 0 0 0 .337-.255l1.789-2.981a.7.7 0 0 0 0-.6 2.5 2.5 0 0 1 3.593-3.118l6.6 3.983a4.207 4.207 0 0 1 -.212 7.324 13.946 13.946 0 0 1 -6.537 1.682zm-.182-4.989a8.227 8.227 0 0 0 3.046-.519l-2.008-1.211-.013.021z"/><path d="m143.522 127.071a2.5 2.5 0 0 1 -2.467-2.1 13.351 13.351 0 0 1 4.929-12.86 4.206 4.206 0 0 1 6.825 2.666l1.342 9.4a2.5 2.5 0 0 1 -4.33 2.03.568.568 0 0 0 -.423-.2h-3.543a.616.616 0 0 0 -.457.223 2.5 2.5 0 0 1 -1.876.841zm2.478-6.071h2.647l-.574-4.018a8 8 0 0 0 -2.073 4.018z"/><path d="m160.494 129.261c-.073 0-.145 0-.22-.01a2.5 2.5 0 0 1 -2.226-1.971.58.58 0 0 0 -.266-.389l-3.064-1.782a.607.607 0 0 0 -.506-.036 2.5 2.5 0 0 1 -3.126-3.267 13.353 13.353 0 0 1 10.723-8.642 4.206 4.206 0 0 1 4.563 5.732l-3.561 8.8a2.5 2.5 0 0 1 -2.317 1.565zm-3.138-8.4 2.29 1.33 1.522-3.762a7.994 7.994 0 0 0 -3.812 2.431z"/><path d="m230.452 165.635a2.5 2.5 0 0 1 -2.5-2.355 1.3 1.3 0 0 0 -.4-.891l-2.183-2.029a2.547 2.547 0 0 0 -2.013-.652 2.5 2.5 0 0 1 -1.973-4.314c.473-.442.959-.854 1.482-1.261 7.444-5.777 14.215-3.413 17.59-1.489a4.458 4.458 0 0 1 -.026 7.765l-8.76 4.907a2.5 2.5 0 0 1 -1.217.319zm-1.93-9.164c.087.073.172.149.255.226l2.185 2.03a6.3 6.3 0 0 1 .75.836l5.407-3.028a9.591 9.591 0 0 0 -8.597-.064z"/><path d="m214.154 161.776a2.5 2.5 0 0 1 -2-1 1.3 1.3 0 0 0 -.826-.524l-2.938-.49a2.554 2.554 0 0 0 -2.039.565 2.5 2.5 0 0 1 -4.025-2.512c.152-.626.328-1.238.543-1.87 3.027-8.923 9.982-10.681 13.858-10.935a4.457 4.457 0 0 1 4.256 6.494l-4.6 8.922a2.5 2.5 0 0 1 -2.015 1.344q-.11.006-.214.006zm-5.282-7c.112.013.226.029.338.048l2.939.49a6.15 6.15 0 0 1 1.088.285l2.843-5.507a9.587 9.587 0 0 0 -7.208 4.687z"/><path d="m228.591 217.314a13.808 13.808 0 0 1 -10.533-4.743 2.5 2.5 0 0 1 1.867-4.162h.03a1.164 1.164 0 0 0 .843-.343l2.1-2.138a1.141 1.141 0 0 0 .285-1.043 2.5 2.5 0 0 1 4.377-2.137l6.022 7.416a4.314 4.314 0 0 1 -2.75 6.99 16.025 16.025 0 0 1 -2.241.16zm-4.047-5.927a9.116 9.116 0 0 0 4.337.922l-2.373-2.923-.029.029z"/><path d="m196.08 256h-44.215a2.5 2.5 0 0 1 -2.392-1.776c-4.535-14.981-25.48-26.381-43.219-34.64-34.16-15.9-76.67-35.69-76.67-82.366a72.869 72.869 0 0 1 22.105-52.989c12.233-12.06 29.393-21.33 51-27.554a2.5 2.5 0 0 1 2.906 1.241 32.189 32.189 0 0 0 18.858 15.584 3.053 3.053 0 0 1 -.595 5.946 34.676 34.676 0 0 0 -10.236 2.979c8.03 6.687 14.129 8.024 17.165 8.2a3.276 3.276 0 0 1 1.873 5.816 11.99 11.99 0 0 0 -2.019 2.094 2.5 2.5 0 0 1 -1.533.958c-20.263 3.889-35.458 10.377-43.939 18.762a25.106 25.106 0 0 0 -7.846 18.958c0 15.149 18.541 24.873 49.077 39.087 4.327 2.014 8.8 4.1 13.295 6.281a2.5 2.5 0 0 1 -.791 4.731 12.843 12.843 0 0 0 -8.677 5.032 11.986 11.986 0 0 0 -2.265 9.212 12.456 12.456 0 0 0 14.038 10.496l36.081-4.591a2.5 2.5 0 0 1 2 .635c9.914 9.057 16.6 18.945 20.433 30.228a66.808 66.808 0 0 1 2.452 9.424 7 7 0 0 1 -6.886 8.252zm-42.428-5h42.428a1.982 1.982 0 0 0 1.541-.723 1.958 1.958 0 0 0 .43-1.627 61.782 61.782 0 0 0 -2.269-8.717c-3.447-10.144-9.414-19.106-18.226-27.364l-34.924 4.443a17.572 17.572 0 0 1 -19.6-14.638 16.938 16.938 0 0 1 3.2-13.024 17.873 17.873 0 0 1 5.7-4.938c-2.576-1.218-5.132-2.407-7.638-3.574-32.334-15.051-51.967-25.5-51.967-43.62a29.82 29.82 0 0 1 9.33-22.513c8.92-8.819 24.337-15.632 44.66-19.752-4.393-1.1-10.655-3.858-17.966-10.488a3.274 3.274 0 0 1 .589-5.27 41.751 41.751 0 0 1 8.05-3.387 36.463 36.463 0 0 1 -14.806-13.77c-19.911 5.977-35.708 14.635-46.984 25.751a67.974 67.974 0 0 0 -20.615 49.429c0 43.488 40.907 62.531 73.777 77.832 18.024 8.391 39.226 19.991 45.29 35.95z"/><path d="m207.785 185.079a2.5 2.5 0 0 1 -2.5-2.622c0-.027 0-.06.007-.093a9.591 9.591 0 0 0 -1.294-5.3c-2.966-4.927-4.29-11.337-3.375-16.331a7.463 7.463 0 0 1 8.584-5.908l2.94.49a6.3 6.3 0 0 1 4.93 8.279c-.839 2.415-1.437 5.031-.14 7.8a2.492 2.492 0 0 1 .236 1.06v.161a14.532 14.532 0 0 1 -2.8 7.849 11.55 11.55 0 0 1 -3.727 3.353l-1.62.926a2.5 2.5 0 0 1 -1.241.336zm.171-25.355a2.413 2.413 0 0 0 -2.412 1.912 19.95 19.95 0 0 0 2.74 12.852 13.775 13.775 0 0 1 1.54 3.673 6.189 6.189 0 0 0 .471-.583 9.772 9.772 0 0 0 1.845-4.68c-1.71-4.187-.8-8.028.217-10.942a1.271 1.271 0 0 0 -.11-1.078 1.3 1.3 0 0 0 -.919-.628l-2.94-.491a2.64 2.64 0 0 0 -.432-.035z"/><path d="m157.5 144.412a2.5 2.5 0 0 1 -2.053-1.073 6.344 6.344 0 0 1 -1.108-2.992 26.789 26.789 0 0 0 -3.036-9.335 12.491 12.491 0 0 1 -1.306-4.443.63.63 0 0 0 -.189-.39 2.5 2.5 0 0 1 -.538-2.718 5.586 5.586 0 0 1 7.964-2.673l3.064 1.78a5.593 5.593 0 0 1 2.267 7.188 7.419 7.419 0 0 0 -.662 2.706 33.448 33.448 0 0 1 -2.077 10.369 2.5 2.5 0 0 1 -2.036 1.566 2.557 2.557 0 0 1 -.29.015zm-2.527-18.337a7.393 7.393 0 0 0 .787 2.672c.463.911.868 1.784 1.222 2.616a12.415 12.415 0 0 1 1.033-3.682.6.6 0 0 0 -.23-.79l-2.982-1.734a5.8 5.8 0 0 1 .17.918z"/><path d="m99.959 107a2.512 2.512 0 0 1 -.791-.128c-11.272-3.757-11.537-14.589-10.1-19.791a2.5 2.5 0 0 1 4.823 1.32 15.335 15.335 0 0 0 -.18 5.952c.7 3.886 3.006 6.43 7.043 7.775a2.5 2.5 0 0 1 -.795 4.872z"/><path d="m79.307 121.513c-10.4 0-14.608-8.977-15.386-14.008a2.5 2.5 0 0 1 4.94-.773 15.315 15.315 0 0 0 2.277 5.5c2.233 3.257 5.379 4.635 9.61 4.2a2.5 2.5 0 0 1 .5 4.975q-1.002.107-1.941.106z"/><path d="m65.185 149.379a18.051 18.051 0 0 1 -11.691-4.757 2.5 2.5 0 0 1 3.4-3.664 15.327 15.327 0 0 0 5.193 2.914c3.772 1.177 7.091.311 10.152-2.643a2.5 2.5 0 1 1 3.473 3.6 14.867 14.867 0 0 1 -10.527 4.55z"/><path d="m76.523 176.775a2.5 2.5 0 0 1 -.032-5 15.343 15.343 0 0 0 5.772-1.464c3.543-1.745 5.354-4.659 5.537-8.91a2.533 2.533 0 0 1 2.605-2.39 2.5 2.5 0 0 1 2.391 2.605c-.512 11.87-10.852 15.106-16.247 15.159z"/><path d="m105.358 193.519a2.5 2.5 0 0 1 -.483-4.953 15.9 15.9 0 0 0 5.611-2.577c3.3-2.451 4.6-5.773 3.989-10.154a2.5 2.5 0 0 1 4.951-.694c1.693 12.082-8.148 17.274-13.587 18.331a2.545 2.545 0 0 1 -.481.047z"/><path d="m178.88 238.633a18.787 18.787 0 0 1 -4.937-.639 2.5 2.5 0 0 1 1.332-4.819 15.879 15.879 0 0 0 6.17.2c4.046-.719 6.7-3.107 8.105-7.3a2.5 2.5 0 1 1 4.74 1.592c-2.903 8.645-9.855 10.966-15.41 10.966z"/><path d="m125.345 203.157a2.5 2.5 0 0 1 -1.071-.24c-2.8-1.328-5.616-2.64-8.421-3.946-31.233-14.539-63.53-29.573-63.53-61.753a49.93 49.93 0 0 1 15.269-36.736 69.564 69.564 0 0 1 11.748-9.237 81.5 81.5 0 0 1 17.76-8.291c4.026-1.345 8.1-2.545 12.114-3.568a2.5 2.5 0 0 1 3.06 1.887c8.692 7.691 15.306 9.168 18.51 9.357a3.276 3.276 0 0 1 1.873 5.816 11.99 11.99 0 0 0 -2.019 2.094 2.5 2.5 0 0 1 -1.533.958c-20.263 3.889-35.458 10.377-43.939 18.762a25.106 25.106 0 0 0 -7.846 18.958c0 15.149 18.541 24.873 49.077 39.087 4.327 2.014 8.8 4.1 13.295 6.281a2.5 2.5 0 0 1 -.791 4.731 12.582 12.582 0 0 0 -11.066 13.154 2.5 2.5 0 0 1 -2.493 2.686zm-16.726-118.447c-3.286.881-6.684 1.9-9.932 2.986a76.58 76.58 0 0 0 -16.675 7.774 64.664 64.664 0 0 0 -10.9 8.568 45.1 45.1 0 0 0 -13.784 33.18c0 28.993 30.827 43.343 60.64 57.22q2.529 1.178 5.063 2.363a17.378 17.378 0 0 1 8.869-12.4c-2.566-1.212-5.11-2.4-7.605-3.558-32.334-15.051-51.967-25.5-51.967-43.62a29.82 29.82 0 0 1 9.33-22.513c8.92-8.819 24.337-15.632 44.66-19.752-4.343-1.095-10.505-3.795-17.699-10.248z"/><path d="m196.08 256h-16.538a2.5 2.5 0 0 1 -2.489-2.27 38.746 38.746 0 0 0 -1.1-6.163 44.528 44.528 0 0 0 -14.218-22.356 100.145 100.145 0 0 0 -13.19-9.51 2.5 2.5 0 0 1 1-4.608l28.543-3.632a2.493 2.493 0 0 1 2 .635c9.914 9.057 16.6 18.945 20.433 30.228a66.785 66.785 0 0 1 2.452 9.425 7 7 0 0 1 -6.893 8.251zm-14.325-5h14.325a2 2 0 0 0 1.971-2.35 61.747 61.747 0 0 0 -2.269-8.717c-3.447-10.144-9.414-19.106-18.226-27.364l-20.639 2.625a93.721 93.721 0 0 1 8.091 6.24 49.506 49.506 0 0 1 15.782 24.875 45.522 45.522 0 0 1 .965 4.691z"/><path d="m214.719 90.334a32.8 32.8 0 0 1 -10.17-1.42 2.488 2.488 0 0 1 -1.158-.808c-4.253-5.31-5.2-12.294-5.25-17.217a2.5 2.5 0 0 1 3.5-2.318 8.384 8.384 0 0 0 7.63-.29l.1-.062c.277-.166 6.824-3.992 12.824-.154a13.428 13.428 0 0 1 3.105 19.723 5.318 5.318 0 0 1 -3.52 2.061 53.176 53.176 0 0 1 -7.061.485zm-7.871-5.94c5.376 1.539 12.216.783 14.254.5a.353.353 0 0 0 .228-.143 8.6 8.6 0 0 0 1.852-6.864 8.493 8.493 0 0 0 -3.686-5.611c-3.236-2.069-7.209.037-7.557.228a13.294 13.294 0 0 1 -8.595 1.7 21.823 21.823 0 0 0 3.504 10.19z"/><path d="m183.431 74.217a11.431 11.431 0 0 1 -7.373-2.419 12.35 12.35 0 0 1 -4.265-7.8 2.5 2.5 0 0 1 2.677-2.761l5.782.444a7.873 7.873 0 0 1 6.915 5.449l.888 2.744a3.263 3.263 0 0 1 -2.761 4.236 16.9 16.9 0 0 1 -1.863.107zm-5.531-7.706a6.028 6.028 0 0 0 4.678 2.659l-.164-.5a2.89 2.89 0 0 0 -2.54-2z"/></svg>