<?xml version="1.0" encoding="iso-8859-1"?>
<!-- Generator: Adobe Illustrator 19.0.0, SVG Export Plug-In . SVG Version: 6.00 Build 0)  -->
<svg version="1.1" id="Capa_1" xmlns="http://www.w3.org/2000/svg" xmlns:xlink="http://www.w3.org/1999/xlink" x="0px" y="0px"
	 viewBox="0 0 512.001 512.001" style="enable-background:new 0 0 512.001 512.001;" xml:space="preserve">
<path style="fill:#C0272D;" d="M222.822,56.283h66.359c8.132,0,16.011,1.077,23.51,3.085V49c0-22.92-18.581-41.5-41.501-41.5
	h-30.377c-22.92,0-41.5,18.58-41.5,41.5v10.368C206.812,57.359,214.691,56.283,222.822,56.283z"/>
<path style="opacity:0.15;fill:#490089;enable-background:new    ;" d="M219.002,56.369V49c0-22.92,18.581-41.5,41.5-41.5h-19.689
	c-22.92,0-41.5,18.58-41.5,41.5v10.368C205.631,57.676,212.22,56.65,219.002,56.369z"/>
<path style="fill:#EF5050;" d="M142.918,195.008h11.865V175c0-2.762,2.239-5,5-5h79.719c7.967,0,15.637-2.921,21.597-8.226
	c0.941-0.838,2.13-1.265,3.325-1.265c0.978,0,1.959,0.286,2.812,0.866c5.406,3.68,11.723,5.624,18.266,5.624h66.719
	c2.761,0,5,2.238,5,5v23.008h11.866c3.874,0,7.527,0.938,10.754,2.59v-50.655c0-50.069-40.589-90.659-90.66-90.659h-66.359
	c-50.07,0-90.659,40.59-90.659,90.659v50.655C135.39,195.945,139.044,195.008,142.918,195.008z"/>
<g style="opacity:0.15;">
	<path style="fill:#3D0072;" d="M142.918,195.008h11.865V175c0-2.762,2.239-5,5-5h1.541v-23.058
		c0-50.069,40.589-90.659,90.659-90.659h-29.161c-50.07,0-90.659,40.59-90.659,90.659v50.655
		C135.39,195.945,139.044,195.008,142.918,195.008z"/>
</g>
<g>
	<path style="fill:#312F56;" d="M388.471,257.887c-4.274,6.112-11.36,10.113-19.384,10.113H350.2
		c-8.785,22.263-25.245,40.689-46.1,52h27.92c15.12,0,27.58,11.353,29.341,25.998h14.634c23.195,0,41.998-18.803,41.998-41.998v-6
		C417.993,279.148,405.574,263.2,388.471,257.887z"/>
	<path style="fill:#312F56;" d="M179.983,320h27.921c-20.855-11.311-37.316-29.737-46.1-52h-18.886
		c-8.024,0-15.11-4.001-19.385-10.113C106.43,263.2,94.011,279.148,94.011,298v6c0,23.195,18.803,41.998,41.997,41.998h14.634
		C152.403,331.353,164.863,320,179.983,320z"/>
</g>
<g>
	<path style="fill:#FFB98A;" d="M154.783,230.958v-35.95h-11.865c-13.059,0-23.646,10.587-23.646,23.646v25.701
		c0,13.059,10.586,23.645,23.646,23.645h18.883C157.273,256.522,154.783,244.025,154.783,230.958z"/>
	<path style="fill:#FFB98A;" d="M369.087,195.008h-11.866v35.95c0,13.067-2.49,25.564-7.019,37.042h18.884
		c13.059,0,23.644-10.587,23.644-23.645v-25.701C392.731,205.595,382.146,195.008,369.087,195.008z"/>
</g>
<path style="opacity:0.15;fill:#030007;enable-background:new    ;" d="M151.099,343.268c-15.837-6.013-27.097-21.322-27.097-39.268
	v-6c0-12.105,5.128-23.008,13.323-30.672c-5.674-1.376-10.544-4.797-13.792-9.441C106.43,263.2,94.011,279.148,94.011,298v6
	c0,23.195,18.803,41.998,41.997,41.998h14.634C150.753,345.074,150.904,344.164,151.099,343.268z"/>
<g>
	<path style="fill:#FFC502;" d="M179.983,320c-16.327,0-29.563,13.235-29.563,29.563v18.846c4.922-4.299,11.251-7.022,18.198-7.369
		V360c0-2.75,2.25-5.001,5-5.003h30.589c2.75,0,5,2.253,5,5.003v1h19.559v-32.549c-7.321-2.047-14.31-4.897-20.864-8.451H179.983z"
		/>
	<path style="fill:#FFC502;" d="M332.021,320h-27.919c-6.554,3.555-13.543,6.404-20.864,8.451V361h19.559v-1
		c0-2.75,2.25-5.001,5-5.003h30.589c2.75,0,5,2.253,5,5.003v1.039c6.947,0.347,13.276,3.07,18.198,7.369v-18.846
		C361.584,333.235,348.348,320,332.021,320z"/>
</g>
<path style="fill:#98E8F9;" d="M343.385,361.038V401c0,2.75-2.25,5-5,5h-30.589c-2.75,0-5-2.25-5-5v-40h-19.559v6.546
	c0,11-9,20-20,20h-14.471c-11,0-20-9-20-20V361h-19.559v40c0,2.75-2.25,5-5,5h-30.589c-2.75,0-5-2.25-5-5v-39.962
	c-15.844,0.788-28.494,13.925-28.494,29.962v108.5c0,2.762,2.238,5,5,5h221.754c2.762,0,5-2.238,5-5V391
	C371.879,374.963,359.23,361.826,343.385,361.038z"/>
<g>
	<path style="fill:#6BC1DD;" d="M168.017,431h-27.892v31.273h18.725C163.602,452.657,166.77,442.12,168.017,431z"/>
	<path style="fill:#6BC1DD;" d="M312.56,462.273c-4.748-9.617-7.915-20.154-9.161-31.273h-94.793
		c-1.246,11.119-4.413,21.656-9.161,31.273H312.56z"/>
	<path style="fill:#6BC1DD;" d="M343.987,431c1.247,11.12,4.414,21.657,9.167,31.273h18.725V431H343.987z"/>
</g>
<path style="fill:#FFB98A;" d="M256.002,332.178c-9.433,0-18.566-1.301-27.235-3.727v39.095c0,11,9,20,20,20h14.471c11,0,20-9,20-20
	v-39.095C274.568,330.877,265.435,332.178,256.002,332.178z"/>
<path style="fill:#FFC7A9;" d="M256.002,332.178c-55.813,0-101.219-45.407-101.219-101.22V175c0-2.762,2.239-5,5-5h79.719
	c7.967,0,15.637-2.921,21.597-8.226c0.941-0.838,2.13-1.265,3.325-1.265c0.978,0,1.959,0.286,2.812,0.866
	c5.406,3.68,11.723,5.624,18.266,5.624h66.719c2.761,0,5,2.238,5,5v58.958C357.221,286.771,311.815,332.178,256.002,332.178z"/>
<g style="opacity:0.15;">
	<path style="fill:#3D0072;" d="M183.564,230.958V175c0-2.762,2.239-5,5-5h-28.781c-2.761,0-5,2.238-5,5v55.958
		c0,55.813,45.407,101.22,101.219,101.22c4.885,0,9.688-0.355,14.391-1.027C221.372,324.142,183.564,281.885,183.564,230.958z"/>
</g>
<g>
	<ellipse style="fill:#B2762F;" cx="206.002" cy="225.47" rx="13.477" ry="13.529"/>
	<ellipse style="fill:#B2762F;" cx="306.002" cy="225.47" rx="13.477" ry="13.529"/>
</g>
<g>
	<path style="fill:#FFC502;" d="M343.385,420.319V401c0,2.75-2.25,5-5,5h-30.589c-2.75,0-5-2.25-5-5v19.319
		c0,36.591,20.71,68.341,51.044,84.181h13.038c2.762,0,5-2.238,5-5v-11.411C354.303,470.865,343.385,446.873,343.385,420.319z"/>
	<path style="fill:#FFC502;" d="M204.208,406h-30.589c-2.75,0-5-2.25-5-5v19.319c0,26.554-10.917,50.546-28.494,67.77V499.5
		c0,2.762,2.238,5,5,5h13.038c30.335-15.84,51.044-47.59,51.044-84.181V401C209.208,403.75,206.958,406,204.208,406z"/>
</g>
<g>
	<path style="fill:#C5CCD3;" d="M173.619,354.997c-2.75,0.002-5,2.253-5,5.003v41c0,2.75,2.25,5,5,5h30.589c2.75,0,5-2.25,5-5v-41
		c0-2.75-2.25-5.003-5-5.003H173.619z"/>
	<path style="fill:#C5CCD3;" d="M307.796,354.997c-2.75,0.002-5,2.253-5,5.003v41c0,2.75,2.25,5,5,5h30.589c2.75,0,5-2.25,5-5v-41
		c0-2.75-2.25-5.003-5-5.003H307.796z"/>
</g>
<path d="M398.684,254.035c1-3.049,1.548-6.301,1.548-9.681v-25.701c0-10.358-5.088-19.547-12.891-25.212v-46.499
	c0-43.293-28.175-80.126-67.15-93.136V49c0-27.019-21.982-49-49.001-49h-30.377c-27.019,0-49,21.981-49,49v4.807
	c-38.975,13.01-67.15,49.843-67.15,93.136v46.499c-7.803,5.666-12.891,14.854-12.891,25.212v25.701c0,3.38,0.548,6.632,1.548,9.681
	c-15.908,8.239-26.81,24.847-26.81,43.965v6c0,27.293,22.205,49.498,49.497,49.498h6.912v11.729
	c-6.375,6.725-10.295,15.798-10.295,25.773v108.5c0,6.893,5.607,12.5,12.5,12.5h221.754c6.892,0,12.5-5.607,12.5-12.5V391
	c0-9.976-3.921-19.049-10.296-25.773v-11.729h6.912c7.424,0,14.565-1.605,21.226-4.771c3.741-1.777,5.332-6.252,3.554-9.993
	c-1.778-3.74-6.251-5.333-9.994-3.554c-4.633,2.202-9.608,3.318-14.787,3.318h-8.6c-4.717-15.049-18.791-25.998-35.375-25.998
	h-4.195c11.554-10.19,20.937-22.784,27.346-37h13.915c8.368,0,15.969-3.323,21.57-8.711c11.71,5.52,19.836,17.43,19.836,31.211v6
	c0,2.498-0.267,4.987-0.794,7.399c-0.884,4.047,1.68,8.044,5.727,8.928c4.049,0.885,8.044-1.681,8.928-5.727
	c0.756-3.462,1.14-7.028,1.14-10.601v-6C425.493,278.883,414.592,262.273,398.684,254.035z M206.813,49c0-18.748,15.253-34,34-34
	h30.377c18.748,0,34.001,15.252,34.001,34v1.096c-5.212-0.858-10.559-1.313-16.01-1.313h-11.813
	c1.74-4.387,2.722-9.406,2.722-14.783c0-4.143-3.358-7.5-7.5-7.5s-7.5,3.357-7.5,7.5c0,6.654-2.37,12.115-5.265,14.783h-7.646
	c-2.896-2.668-5.265-8.129-5.265-14.783c0-4.143-3.358-7.5-7.5-7.5s-7.5,3.357-7.5,7.5c0,5.377,0.982,10.396,2.722,14.783h-11.814
	c-5.451,0-10.797,0.454-16.009,1.313V49z M126.773,218.653c0-8.902,7.243-16.146,16.146-16.146h4.365v20.951h-5.291
	c-4.142,0-7.5,3.357-7.5,7.5s3.358,7.5,7.5,7.5h5.555c0.519,7.584,1.815,14.959,3.817,22.041h-8.445
	c-8.903,0-16.146-7.243-16.146-16.145L126.773,218.653L126.773,218.653z M144.608,338.498h-8.6
	c-19.022,0-34.497-15.475-34.497-34.498v-6c0-13.781,8.126-25.691,19.836-31.211c5.602,5.388,13.203,8.711,21.571,8.711h13.914
	c6.41,14.216,15.792,26.81,27.346,37h-4.195C163.4,312.5,149.325,323.449,144.608,338.498z M248.767,395.046h14.471
	c14.844,0,26.97-11.823,27.475-26.546h4.583v55h-78.589v-55h4.584C221.796,383.223,233.923,395.046,248.767,395.046z
	 M236.267,367.546v-29.668c6.402,1.179,12.997,1.8,19.735,1.8c6.738,0,13.333-0.621,19.735-1.8v29.668c0,6.893-5.608,12.5-12.5,12.5
	h-14.471C241.874,380.046,236.267,374.439,236.267,367.546z M221.267,353.5h-6.402c-2.199-3.591-6.146-6.003-10.656-6.003h-30.595
	c-4.827,0.003-9.014,2.762-11.095,6.78c-1.571,0.324-3.105,0.75-4.598,1.265v-5.979c0-12.165,9.897-22.063,22.063-22.063h26.063
	c4.872,2.531,9.955,4.707,15.221,6.487L221.267,353.5L221.267,353.5z M216.671,423.5h-0.016
	C216.66,423.313,216.666,423.342,216.671,423.5z M201.708,362.497V398.5h-25.589v-36.003H201.708z M147.625,423.5V391
	c0-9.201,5.563-17.106,13.494-20.587c0,0-0.02,52.03-0.057,53.087H147.625z M159.224,438.5c-1.185,5.604-2.924,11.047-5.175,16.273
	h-6.424V438.5H159.224z M156.283,497h-8.658v-5.828c18.4-19.157,28.494-44.192,28.494-70.853V413.5h25.589v6.819
	C201.708,452.397,184.35,481.612,156.283,497z M182.194,497c8.838-7.807,16.2-17.027,21.824-27.227h42.984
	c4.142,0,7.5-3.357,7.5-7.5s-3.358-7.5-7.5-7.5h-36.234c1.876-5.263,3.322-10.703,4.32-16.273h81.828
	c0.997,5.57,2.444,11.011,4.32,16.273h-15.234c-4.142,0-7.5,3.357-7.5,7.5s3.358,7.5,7.5,7.5h21.984
	c5.624,10.199,12.985,19.42,21.824,27.227H182.194z M295.331,423.5c0.006-0.184,0.012-0.227,0.019,0H295.331z M364.379,497h-8.658
	c-28.066-15.388-45.424-44.603-45.424-76.681V413.5h25.589v6.819c0,26.66,10.094,51.695,28.494,70.853L364.379,497L364.379,497z
	 M310.296,398.5v-36.003h25.589V398.5H310.296z M364.379,454.773h-6.424c-2.251-5.227-3.99-10.669-5.175-16.273h11.599V454.773z
	 M364.379,391v32.5h-13.437c-0.038-1.057-0.057-53.087-0.057-53.087C358.816,373.894,364.379,381.799,364.379,391z M332.021,327.5
	c12.166,0,22.063,9.897,22.063,22.063v5.979c-1.493-0.515-3.027-0.94-4.598-1.265c-2.081-4.02-6.271-6.78-11.1-6.78h-30.595
	c-4.508,0.003-8.453,2.413-10.651,6.003h-6.402v-19.513c5.266-1.78,10.349-3.956,15.221-6.487L332.021,327.5L332.021,327.5z
	 M352.221,159.5h-10.219c-4.142,0-7.5,3.357-7.5,7.5s3.358,7.5,7.5,7.5h7.719v56.458c0,51.677-42.042,93.72-93.719,93.72
	s-93.719-42.043-93.719-93.72V177.5h77.219c9.168,0,18.016-3.142,25.123-8.884c6.285,3.855,13.462,5.884,20.877,5.884h16.5
	c4.142,0,7.5-3.357,7.5-7.5s-3.358-7.5-7.5-7.5h-16.5c-5.033,0-9.89-1.495-14.049-4.326c-2.082-1.416-4.513-2.164-7.029-2.164
	c-3.068,0-6.02,1.123-8.311,3.162c-4.585,4.081-10.484,6.328-16.611,6.328h-79.719c-6.893,0-12.5,5.607-12.5,12.5v12.508h-4.365
	c-1.099,0-2.185,0.059-3.255,0.171v-40.736c0-45.854,37.305-83.159,83.159-83.159h66.359c45.854,0,83.16,37.305,83.16,83.159v40.735
	c-1.07-0.111-2.155-0.17-3.254-0.17h-4.366V172C364.721,165.107,359.113,159.5,352.221,159.5z M385.231,244.355
	c0,8.902-7.243,16.145-16.144,16.145h-8.446c2.002-7.082,3.298-14.457,3.817-22.041h5.555c4.142,0,7.5-3.357,7.5-7.5
	s-3.358-7.5-7.5-7.5h-5.291v-20.951h4.366c8.902,0,16.144,7.243,16.144,16.146L385.231,244.355L385.231,244.355z"/>
<path d="M256.145,271.035h8.735c4.142,0,7.5-3.357,7.5-7.5s-3.358-7.5-7.5-7.5h-8.735c-0.298,0-1.235-0.914-1.235-2.5v-24.814
	c0-4.143-3.358-7.5-7.5-7.5s-7.5,3.357-7.5,7.5v24.814C239.91,263.185,247.192,271.035,256.145,271.035z"/>
<path d="M206.006,197.076c6.172,0,11.98,2.408,16.352,6.781c1.464,1.464,3.384,2.196,5.303,2.196c1.919,0,3.839-0.732,5.303-2.196
	c2.929-2.93,2.929-7.678,0-10.607c-7.206-7.205-16.78-11.174-26.959-11.174s-19.753,3.969-26.959,11.175
	c-2.929,2.929-2.928,7.678,0.001,10.606c2.93,2.928,7.677,2.929,10.607-0.001C194.027,199.484,199.833,197.076,206.006,197.076z"/>
<path d="M305.997,182.076c-10.179,0-19.754,3.969-26.959,11.175c-2.929,2.929-2.929,7.678,0,10.606
	c1.464,1.464,3.384,2.196,5.303,2.196s3.839-0.732,5.303-2.197c4.372-4.372,10.18-6.78,16.353-6.78s11.98,2.408,16.353,6.781
	c2.929,2.928,7.678,2.928,10.606,0c2.929-2.93,2.929-7.678,0-10.607C325.751,186.045,316.176,182.076,305.997,182.076z"/>
<path d="M226.983,225.471c0-11.596-9.41-21.029-20.975-21.029c-11.567,0-20.978,9.434-20.978,21.029s9.411,21.029,20.978,21.029
	C217.574,246.5,226.983,237.066,226.983,225.471z M206.008,231.5c-3.296,0-5.978-2.705-5.978-6.029s2.682-6.029,5.978-6.029
	c3.295,0,5.975,2.705,5.975,6.029S209.303,231.5,206.008,231.5z"/>
<path d="M305.997,204.441c-11.566,0-20.977,9.434-20.977,21.029s9.41,21.029,20.977,21.029c11.566,0,20.977-9.434,20.977-21.029
	S317.563,204.441,305.997,204.441z M305.997,231.5c-3.295,0-5.977-2.705-5.977-6.029s2.681-6.029,5.977-6.029
	c3.295,0,5.977,2.705,5.977,6.029S309.292,231.5,305.997,231.5z"/>
<path d="M280.13,280.496c-13.303,13.303-34.951,13.302-48.256-0.001c-2.929-2.928-7.678-2.928-10.606,0.001
	c-2.929,2.93-2.928,7.678,0.001,10.606c9.577,9.575,22.156,14.363,34.735,14.363c12.579,0,25.158-4.788,34.733-14.364
	c2.929-2.929,2.929-7.677,0-10.607C287.808,277.567,283.059,277.566,280.13,280.496z"/>
<g>
</g>
<g>
</g>
<g>
</g>
<g>
</g>
<g>
</g>
<g>
</g>
<g>
</g>
<g>
</g>
<g>
</g>
<g>
</g>
<g>
</g>
<g>
</g>
<g>
</g>
<g>
</g>
<g>
</g>
</svg>
