<svg height="512" viewBox="0 0 256 256" width="512" xmlns="http://www.w3.org/2000/svg"><path d="m184.7 190.285c-9.124 1.3-9.124-3.91-9.124-3.91s-3.91 7.82 9.124 10.427 6.517 27.371-13.034 14.337 7.82-45.619-7.821-61.259a38.094 38.094 0 0 1 -8.36-12.479 38.845 38.845 0 0 1 -1.946-22.401l5.05-25.337c4.946.516 7.552-5.7 3.788-9.025-.67-.592-1.264-1.187-1.823-1.782l2.9-15.925c4.065-22.357-12.9-43.493-35.622-43.387-22.312.105-39.467 20.34-35.471 42.318l3.09 16.994c-.559.595-1.153 1.19-1.823 1.782-3.764 3.326-1.158 9.541 3.788 9.025l5.045 25.337a38.845 38.845 0 0 1 -1.944 22.405 38.094 38.094 0 0 1 -8.36 12.479c-15.641 15.64 11.73 48.225-7.821 61.259s-26.068-11.734-13.036-14.343 9.124-10.427 9.124-10.427 0 5.213-9.124 3.91c0 0-25.416-1.955-24.113 24.113s45.619 32.585 61.26 0c12.345-25.719-4.087-50.826 13.041-72.763a8.244 8.244 0 0 1 13.02 0c17.128 21.937.7 47.044 13.041 72.763 15.641 32.585 59.956 26.068 61.26 0s-24.109-24.111-24.109-24.111z" fill="#fc657e"/><path d="m53.761 195.739a19.616 19.616 0 0 1 4.229-2.8c.376-5.743-1.217-11.971-8.566-15.033-15.641-6.517-6.517-20.855 10.427-20.855 8.8 0 19.717.339 30-4.259a16.244 16.244 0 0 1 2.3-2.909 38.094 38.094 0 0 0 8.36-12.479 38.843 38.843 0 0 0 1.944-22.4l-2.576-12.925c-1.374 12.184-7.51 34.774-34.169 34.774-36.495 0-52.788 22.809-41.709 40.405 7.459 11.829 25.241 7.249 29.76 18.481z" fill="#ef4460"/><path d="m190.284 136.846c-26.659 0-32.795-22.59-34.169-34.774l-2.576 12.928a38.843 38.843 0 0 0 1.944 22.4 38.094 38.094 0 0 0 8.36 12.479 16.244 16.244 0 0 1 2.3 2.909c10.284 4.6 21.2 4.259 30 4.259 16.944 0 26.068 14.338 10.427 20.855-7.349 3.062-8.942 9.29-8.566 15.033a19.616 19.616 0 0 1 4.229 2.8c4.519-11.232 22.3-6.652 29.754-18.488 11.085-17.592-5.208-40.401-41.703-40.401z" fill="#ef4460"/><path d="m252.907 103.085c-13.131-3.877-13.667-27.836-34.043-24.24-22.158 3.91-6.517 31.281-32.585 36.5-19.968 3.993-26.95-8.8-29.369-17.257l-.795 3.989c1.374 12.184 7.51 34.774 34.169 34.774.478 0 .937.019 1.408.027 12.178-3.323 22.511-13.051 24.565-26.747 2.514-16.757 10.427-16.944 18.248-9.124 5.294 5.3 13.576 4.615 18.373 3.624a.793.793 0 0 0 .029-1.546z" fill="#fc657e"/><path d="m99.09 98.083c-2.419 8.455-9.4 21.25-29.369 17.257-26.068-5.214-10.427-32.585-32.585-36.5-20.376-3.6-20.912 20.363-34.043 24.24a.793.793 0 0 0 .029 1.541c4.797.996 13.078 1.679 18.378-3.621 7.821-7.82 15.734-7.633 18.248 9.124 2.054 13.7 12.387 23.424 24.565 26.747.471-.008.93-.027 1.408-.027 26.659 0 32.8-22.59 34.169-34.774z" fill="#fc657e"/><path d="m69.721 115.34c18.395 3.679 25.766-6.889 28.705-15.187a35.043 35.043 0 0 0 -12.94-.747c-18.717 2.407-21.326-6.014-15.328-16.773 4.061-7.283.812-15.949-1.709-20.787a.883.883 0 0 0 -1.66.439c-.11 10.63-12.529 17.676-16.641 27.993 3.279 9.501 3.013 21.75 19.573 25.062z" fill="#ef4460"/><path d="m186.279 115.34c16.559-3.312 16.294-15.561 19.573-25.062-4.112-10.317-16.531-17.363-16.641-27.993a.883.883 0 0 0 -1.66-.439c-2.521 4.838-5.77 13.5-1.709 20.787 6 10.759 3.389 19.18-15.328 16.773a35.043 35.043 0 0 0 -12.94.747c2.939 8.298 10.31 18.866 28.705 15.187z" fill="#ef4460"/><path d="m137.885 95.831a9.118 9.118 0 1 0 16.893-5.931c-5.485 1.453-11.324 6.962-16.893 5.931z" fill="#f5c84c"/><path d="m101.222 89.9a9.117 9.117 0 1 0 16.893 5.931c-5.569 1.031-11.408-4.478-16.893-5.931z" fill="#f5c84c"/><path d="m52.941 46.487h-2.33v-2.33a3.158 3.158 0 0 0 -6.315 0v2.33h-2.329a3.158 3.158 0 0 0 0 6.315h2.333v2.33a3.158 3.158 0 0 0 6.315 0v-2.332h2.33a3.158 3.158 0 0 0 0-6.315z" fill="#70d6f9"/><path d="m240.705 199.882a11.1 11.1 0 0 1 -8.9-8.716.2.2 0 0 0 -.395 0 11.1 11.1 0 0 1 -8.9 8.716.2.2 0 0 0 0 .387 11.1 11.1 0 0 1 8.9 8.717.2.2 0 0 0 .395 0 11.1 11.1 0 0 1 8.9-8.717.2.2 0 0 0 0-.387z" fill="#f5c84c"/><path d="m181.893 26.954a6.981 6.981 0 0 1 -5.6-5.483.126.126 0 0 0 -.249 0 6.98 6.98 0 0 1 -5.6 5.483.123.123 0 0 0 0 .243 6.981 6.981 0 0 1 5.6 5.483.126.126 0 0 0 .249 0 6.982 6.982 0 0 1 5.6-5.483.122.122 0 0 0 0-.243z" fill="#ef4460"/><circle cx="208.662" cy="64.494" fill="#70d6f9" r="3.377"/><circle cx="20.662" cy="136.494" fill="#87d147" r="3.377"/><circle cx="222.662" cy="223.494" fill="#ef4460" r="3.377"/><circle cx="65.662" cy="37.494" fill="#f5c84c" r="3.377"/><path d="m116.786 98.456c-3.744 0-7.389-1.937-10.414-3.546-3.045-1.618-5.917-3.149-8.245-2.814l-.285.038a7.417 7.417 0 0 1 -7.812-4.376 7.713 7.713 0 0 1 1.938-9c7.435-6.57 6.889-13.4 6.863-13.693a2.5 2.5 0 0 1 4.971-.531c.043.388.948 9.6-8.524 17.971a2.675 2.675 0 0 0 -.691 3.192 2.459 2.459 0 0 0 2.629 1.473l.206-.027c3.932-.562 7.677 1.425 11.3 3.349 6.062 3.221 9.395 4.681 13.072-.046a2.5 2.5 0 1 1 3.946 3.069c-2.869 3.685-5.94 4.94-8.954 4.941z"/><path d="m139.214 98.456c-3.011 0-6.084-1.253-8.95-4.938a2.5 2.5 0 1 1 3.947-3.069c3.677 4.726 7.009 3.267 13.071.046 3.619-1.923 7.366-3.91 11.3-3.349l.2.027a2.45 2.45 0 0 0 2.628-1.473 2.676 2.676 0 0 0 -.691-3.192c-9.472-8.368-8.568-17.583-8.524-17.971a2.5 2.5 0 0 1 4.971.535c-.03.332-.547 7.142 6.863 13.689a7.712 7.712 0 0 1 1.937 9 7.4 7.4 0 0 1 -7.809 4.376l-.283-.037c-2.332-.334-5.2 1.2-8.248 2.813-3.026 1.605-6.669 3.543-10.412 3.543z"/><path d="m74.655 238.96a37.428 37.428 0 0 1 -7.382-.726c-13.129-2.645-21.993-11.952-22.581-23.711-.426-8.543 1.792-15.246 6.6-19.922 7.872-7.663 19.706-6.846 20.206-6.809q.081.006.162.018c3.871.553 5.323-.286 5.768-.671a1.623 1.623 0 0 0 .5-.764 2.5 2.5 0 0 1 4.737-1.119 8.711 8.711 0 0 1 -.029 7.4c-1.593 3.258-5.241 5.477-10.842 6.6a5.58 5.58 0 0 0 -4.634 4.579 7.4 7.4 0 0 0 2.918 7.471c3.061 2.046 7.632 1.25 12.874-2.244 8.767-5.845 6.565-16.343 4.015-28.5-2.475-11.8-5.034-23.992 3.424-32.449a35.724 35.724 0 0 0 7.818-11.665 36.219 36.219 0 0 0 1.8-20.962l-4.673-23.447a7.414 7.414 0 0 1 -5.336-4.364 7.623 7.623 0 0 1 1.971-8.914c.261-.232.521-.473.787-.732l-2.858-15.723a38.114 38.114 0 0 1 8.259-31.23 38.711 38.711 0 0 1 29.659-14.035h.178a38.154 38.154 0 0 1 29.274 13.759 39.548 39.548 0 0 1 8.639 32.571l-2.665 14.653c.267.26.527.5.788.733a7.622 7.622 0 0 1 1.968 8.918 7.414 7.414 0 0 1 -5.339 4.364l-4.673 23.446a36.194 36.194 0 0 0 1.8 20.962 35.737 35.737 0 0 0 7.817 11.665c8.458 8.457 5.9 20.654 3.425 32.449-2.551 12.155-4.753 22.653 4.015 28.5 5.24 3.494 9.812 4.29 12.873 2.244a7.4 7.4 0 0 0 2.918-7.471 5.58 5.58 0 0 0 -4.635-4.579c-5.6-1.12-9.247-3.339-10.841-6.6a8.71 8.71 0 0 1 -.028-7.4 2.567 2.567 0 0 1 2.924-1.4 2.381 2.381 0 0 1 1.816 2.465 1.486 1.486 0 0 0 .572.876c.572.45 2.075 1.126 5.694.611q.079-.012.162-.018c.5-.039 12.336-.854 20.206 6.809 4.8 4.677 7.022 11.379 6.6 19.922-.588 11.759-9.453 21.066-22.582 23.711-14.756 2.973-33.9-2.91-43.429-22.754-5.981-12.459-5.519-24.545-5.072-36.234.491-12.86.955-25.007-7.686-36.072a5.726 5.726 0 0 0 -4.537-2.222 5.729 5.729 0 0 0 -4.54 2.225c-8.64 11.065-8.176 23.212-7.685 36.072.447 11.688.908 23.775-5.072 36.234-7.997 16.659-22.781 23.479-36.048 23.48zm-4.481-46.206c-2.647 0-10.315.459-15.422 5.453-3.713 3.63-5.417 9.036-5.065 16.066.373 7.48 5.449 16.415 18.574 19.06 12.856 2.591 29.572-2.6 37.934-20.017 5.445-11.342 5.007-22.8 4.584-33.879-.5-13.192-1.025-26.834 8.74-39.34a10.7 10.7 0 0 1 8.481-4.148 10.693 10.693 0 0 1 8.479 4.148c9.766 12.506 9.245 26.148 8.741 39.34-.423 11.08-.861 22.537 4.584 33.879 8.362 17.423 25.084 22.606 37.933 20.017 13.125-2.644 18.2-11.58 18.575-19.06.352-7.03-1.352-12.436-5.065-16.065-5.961-5.829-15.414-5.479-16.3-5.434a19.6 19.6 0 0 1 -4.235.169 18.72 18.72 0 0 0 4.473 1.407 10.569 10.569 0 0 1 8.559 8.508 12.348 12.348 0 0 1 -5.043 12.6c-2.809 1.878-8.94 4.084-18.426-2.24-11.582-7.721-8.688-21.515-6.134-33.685 2.3-10.976 4.477-21.343-2.067-27.887a40.683 40.683 0 0 1 -8.9-13.292 41.178 41.178 0 0 1 -2.086-23.847l5.05-25.338a2.5 2.5 0 0 1 2.712-2 2.464 2.464 0 0 0 2.576-1.509 2.673 2.673 0 0 0 -.7-3.156c-.654-.578-1.286-1.2-1.99-1.944a2.5 2.5 0 0 1 -.638-2.159l2.9-15.925a34.551 34.551 0 0 0 -7.552-28.463 33.167 33.167 0 0 0 -25.453-11.973h-.154a33.725 33.725 0 0 0 -25.839 12.231 33.127 33.127 0 0 0 -7.186 27.14l3.089 16.994a2.5 2.5 0 0 1 -.637 2.158c-.7.748-1.334 1.366-1.99 1.945a2.67 2.67 0 0 0 -.7 3.156 2.459 2.459 0 0 0 2.577 1.509 2.5 2.5 0 0 1 2.711 2l5.05 25.338a41.2 41.2 0 0 1 -2.085 23.847 40.671 40.671 0 0 1 -8.9 13.292c-6.544 6.544-4.369 16.912-2.066 27.887 2.554 12.17 5.447 25.964-6.135 33.685-9.486 6.326-15.616 4.119-18.426 2.24a12.35 12.35 0 0 1 -5.043-12.6 10.569 10.569 0 0 1 8.558-8.508 18.778 18.778 0 0 0 4.476-1.407 19.505 19.505 0 0 1 -4.239-.169c-.128-.011-.432-.024-.88-.024z"/><path d="m53.761 198.239a2.5 2.5 0 0 1 -2.32-1.567c-1.821-4.526-6.665-5.944-12.274-7.585-6.126-1.792-13.069-3.823-17.275-10.5a23.26 23.26 0 0 1 -.756-24.243c6.912-12.52 23.577-19.994 44.58-19.994 24.374 0 30.313-20.4 31.684-32.554a2.5 2.5 0 0 1 2.379-2.217 2.469 2.469 0 0 1 2.557 2.008l2.577 12.925a41.2 41.2 0 0 1 -2.085 23.847 40.671 40.671 0 0 1 -8.9 13.292 13.717 13.717 0 0 0 -1.951 2.466 2.5 2.5 0 0 1 -1.1.959c-10.122 4.526-20.772 4.5-29.329 4.479h-1.693c-8.895 0-15.064 4.268-15.89 8.4-.584 2.919 1.758 5.708 6.424 7.652 7.162 2.984 10.654 9.037 10.1 17.5a2.5 2.5 0 0 1 -1.387 2.078 17.224 17.224 0 0 0 -3.694 2.446 2.5 2.5 0 0 1 -1.647.608zm46.01-83.951c-3.892 11.658-12.957 25.058-34.055 25.058-19.155 0-34.184 6.508-40.2 17.41a18.16 18.16 0 0 0 .61 19.163c3.2 5.078 8.662 6.677 14.447 8.369 5.319 1.556 10.79 3.156 14 7.72q.477-.309.972-.6c.012-5.544-2.314-9.216-7.08-11.2-6.967-2.9-10.482-7.855-9.4-13.248 1.415-7.077 10.354-12.414 20.792-12.414h1.706c8.294.02 17.668.043 26.611-3.754a18.371 18.371 0 0 1 2.221-2.685 35.724 35.724 0 0 0 7.818-11.665 36.219 36.219 0 0 0 1.8-20.962z"/><path d="m202.239 198.239a2.5 2.5 0 0 1 -1.643-.616 17.211 17.211 0 0 0 -3.694-2.446 2.5 2.5 0 0 1 -1.387-2.078c-.554-8.467 2.938-14.52 10.1-17.5 4.667-1.944 7.008-4.734 6.424-7.653-.825-4.126-6.994-8.394-15.889-8.394h-1.694c-8.564.014-19.207.046-29.328-4.479a2.505 2.505 0 0 1 -1.1-.959 13.7 13.7 0 0 0 -1.951-2.467 40.681 40.681 0 0 1 -8.9-13.291 41.178 41.178 0 0 1 -2.086-23.847l2.576-12.925a2.5 2.5 0 0 1 4.937.209c1.371 12.158 7.31 32.554 31.684 32.554 21 0 37.668 7.474 44.579 19.993a23.26 23.26 0 0 1 -.755 24.244c-4.207 6.681-11.149 8.712-17.275 10.5-5.609 1.641-10.453 3.059-12.274 7.585a2.5 2.5 0 0 1 -2.32 1.567zm-1.782-6.827q.5.288.974.6c3.209-4.564 8.68-6.164 14-7.72 5.785-1.692 11.25-3.291 14.448-8.369a18.162 18.162 0 0 0 .608-19.163c-6.018-10.9-21.048-17.41-40.2-17.41-21.1 0-30.163-13.4-34.055-25.058l-.238 1.2a36.194 36.194 0 0 0 1.8 20.962 35.737 35.737 0 0 0 7.817 11.665 18.4 18.4 0 0 1 2.221 2.685c8.942 3.8 18.313 3.775 26.611 3.754h1.706c10.438 0 19.377 5.337 20.792 12.414 1.079 5.393-2.436 10.346-9.4 13.248-4.77 1.98-7.095 5.648-7.084 11.192z"/><path d="m191.691 139.374h-.044l-.534-.013c-.274-.006-.548-.014-.829-.014-29.316 0-35.4-25.871-36.653-36.993a2.551 2.551 0 0 1 .032-.77l.795-3.989a2.5 2.5 0 0 1 4.855-.2c2.567 8.97 9.241 18.942 26.476 15.492 12.012-2.4 13.9-9.562 16.077-17.853 2.034-7.732 4.34-16.495 16.564-18.652 13.731-2.424 19.785 6.622 24.649 13.891 3.131 4.68 6.088 9.1 10.535 10.413a3.316 3.316 0 0 1 2.386 3.32 3.27 3.27 0 0 1 -2.612 3.068c-5.059 1.046-14.467 1.877-20.648-4.3-3.283-3.283-6.356-4.777-8.434-4.092-2.578.849-4.558 5.047-5.574 11.819-2.082 13.885-12.19 24.917-26.379 28.788a2.487 2.487 0 0 1 -.662.085zm-31.591-29.441c3.019 11.425 10.73 24.413 30.18 24.413.326 0 .644.008.962.016h.133c12.067-3.426 20.639-12.826 22.405-24.611 1.349-8.988 4.362-14.313 8.954-15.826 2.823-.931 7.464-.765 13.534 5.306 2.919 2.918 7.071 3.649 10.762 3.569-3.284-2.534-5.725-6.183-8.111-9.749-4.884-7.3-9.1-13.6-19.624-11.748-9.071 1.6-10.628 7.514-12.6 15-2.165 8.229-4.859 18.47-19.931 21.485-11.441 2.291-20.692-.539-26.664-7.855z"/><path d="m64.308 139.374a2.479 2.479 0 0 1 -.658-.089c-14.189-3.871-24.3-14.9-26.379-28.788-1.017-6.772-3-10.97-5.574-11.819-2.071-.681-5.15.807-8.434 4.092-6.179 6.18-15.587 5.351-20.647 4.3a3.27 3.27 0 0 1 -2.616-3.064 3.316 3.316 0 0 1 2.382-3.319c4.448-1.313 7.4-5.733 10.536-10.413 4.863-7.268 10.912-16.313 24.65-13.891 12.225 2.157 14.532 10.917 16.566 18.652 2.181 8.291 4.066 15.451 16.077 17.853 17.236 3.448 23.91-6.522 26.475-15.492a2.5 2.5 0 0 1 4.856.2l.794 3.989a2.488 2.488 0 0 1 .033.77c-1.254 11.122-7.337 36.993-36.653 36.993-.28 0-.554.008-.828.014l-.536.013zm-33.694-45.865a8.416 8.416 0 0 1 2.648.42c4.592 1.513 7.6 6.838 8.953 15.826 1.768 11.785 10.339 21.185 22.406 24.611h.134c.318-.008.635-.016.961-.016 19.447 0 27.159-12.984 30.179-24.408a23.507 23.507 0 0 1 -3.316 3.368c-5.917 4.892-13.773 6.4-23.348 4.486-15.073-3.019-17.767-13.26-19.931-21.489-1.969-7.486-3.525-13.4-12.6-15-10.52-1.857-14.739 4.448-19.623 11.748-2.386 3.566-4.827 7.215-8.111 9.748 3.683.092 7.843-.65 10.762-3.568 4.446-4.447 8.126-5.726 10.886-5.726z"/><path d="m76.881 118.6a39.067 39.067 0 0 1 -7.65-.8c-15.075-3.016-17.772-13.257-19.939-21.486-.484-1.836-.94-3.571-1.507-5.212a2.5 2.5 0 0 1 .041-1.741c1.876-4.706 5.217-8.643 8.45-12.45 4.093-4.821 7.958-9.374 8.013-14.644a3.408 3.408 0 0 1 2.611-3.297 3.356 3.356 0 0 1 3.764 1.72c2.632 5.052 6.35 14.777 1.676 23.161-2.612 4.683-3.253 8.441-1.8 10.579 1.759 2.6 6.953 3.485 14.63 2.5a37.539 37.539 0 0 1 13.859.8 2.5 2.5 0 0 1 1.756 3.261c-2.476 6.983-8.739 17.609-23.904 17.609zm-6.67-5.709c11.985 2.4 20.305-1.263 24.767-10.882a32.472 32.472 0 0 0 -9.173-.12c-9.925 1.273-16.455-.289-19.405-4.656-1.811-2.676-3.007-7.592 1.579-15.817 2.436-4.369 1.713-9.492.319-13.616-1.613 4.573-4.95 8.5-8.207 12.339-2.765 3.257-5.619 6.619-7.268 10.25.489 1.533.9 3.11 1.308 4.644 2.184 8.291 4.069 15.452 16.084 17.855z"/><path d="m179.119 118.6c-15.168 0-21.428-10.623-23.9-17.61a2.5 2.5 0 0 1 1.756-3.261 37.511 37.511 0 0 1 13.858-.8c7.678.988 12.873.1 14.631-2.5 1.447-2.138.807-5.9-1.805-10.579-4.675-8.385-.957-18.109 1.676-23.16a3.359 3.359 0 0 1 3.765-1.72 3.41 3.41 0 0 1 2.611 3.291c.055 5.267 3.92 9.821 8.013 14.642 3.232 3.807 6.575 7.743 8.45 12.45a2.5 2.5 0 0 1 .041 1.741c-.567 1.641-1.023 3.375-1.507 5.212-2.166 8.229-4.863 18.47-19.938 21.486a39.077 39.077 0 0 1 -7.651.808zm-18.097-16.591c4.462 9.619 12.778 13.282 24.767 10.882 12.016-2.4 13.9-9.564 16.084-17.856.4-1.533.819-3.111 1.309-4.643-1.651-3.632-4.5-6.993-7.27-10.25-3.257-3.836-6.594-7.766-8.207-12.339-1.393 4.123-2.116 9.246.32 13.616 4.586 8.225 3.389 13.141 1.579 15.817-2.955 4.364-9.481 5.93-19.41 4.653a32.539 32.539 0 0 0 -9.172.117z"/><path d="m149.5 51.367a2.5 2.5 0 0 1 -2.424-1.894 19.7 19.7 0 0 0 -10.289-12.646 2.5 2.5 0 0 1 1.969-4.6 24.661 24.661 0 0 1 13.176 16.033 2.5 2.5 0 0 1 -1.82 3.032 2.549 2.549 0 0 1 -.612.075z"/><path d="m121.657 120.456a2.5 2.5 0 0 1 -2.082-1.114l-1.647-2.471a2.5 2.5 0 1 1 4.16-2.773l1.647 2.471a2.5 2.5 0 0 1 -2.078 3.887z"/><path d="m134.343 120.456a2.5 2.5 0 0 1 -2.078-3.887l1.647-2.471a2.5 2.5 0 1 1 4.16 2.773l-1.647 2.471a2.5 2.5 0 0 1 -2.082 1.114z"/><path d="m146.9 106.109a11.679 11.679 0 0 1 -11.487-9.909 2.5 2.5 0 0 1 2.928-2.824c2.617.485 5.69-1.149 8.946-2.877a33.37 33.37 0 0 1 6.852-3.012 2.494 2.494 0 0 1 2.8 1.157 11.61 11.61 0 0 1 -10.039 17.465zm-5.433-7.86a6.612 6.612 0 0 0 12.057-3.764 6.534 6.534 0 0 0 -.16-1.435c-1.192.515-2.439 1.177-3.732 1.862a29.58 29.58 0 0 1 -8.166 3.337z"/><path d="m109.1 106.109a11.612 11.612 0 0 1 -10.038-17.468 2.5 2.5 0 0 1 2.8-1.157 33.417 33.417 0 0 1 6.851 3.012c3.257 1.728 6.332 3.362 8.947 2.877a2.5 2.5 0 0 1 2.928 2.824 11.682 11.682 0 0 1 -11.488 9.912zm-6.463-13.059a6.534 6.534 0 0 0 -.16 1.435 6.612 6.612 0 0 0 12.057 3.764 29.593 29.593 0 0 1 -8.165-3.337c-1.292-.685-2.539-1.347-3.732-1.862z"/></svg>