<?xml version="1.0" encoding="iso-8859-1"?>
<!-- Generator: Adobe Illustrator 19.0.0, SVG Export Plug-In . SVG Version: 6.00 Build 0)  -->
<svg version="1.1" id="Capa_1" xmlns="http://www.w3.org/2000/svg" xmlns:xlink="http://www.w3.org/1999/xlink" x="0px" y="0px"
	 viewBox="0 0 512 512" style="enable-background:new 0 0 512 512;" xml:space="preserve">
<path style="fill:#64CBFF;" d="M379.355,355.25h-85.386c-0.528,1.828-1.305,3.631-2.178,4.873l-32.918,46.787
	c-1.582,2.25-4.171,2.25-5.754,0l-32.916-46.787c-0.874-1.242-1.65-3.045-2.178-4.873H132.64c-8.25,0-15,6.75-15,15V494.5
	c0,5.5,4.5,10,10,10h256.715c5.5,0,10-4.5,10-10V370.25C394.355,362,387.605,355.25,379.355,355.25z"/>
<g style="opacity:0.15;">
	<path style="fill:#3D0072;" d="M146.283,494.5V370.25c0-8.25,6.75-15,15-15H132.64c-8.25,0-15,6.75-15,15V494.5c0,5.5,4.5,10,10,10
		h28.643C150.783,504.5,146.283,500,146.283,494.5z"/>
</g>
<path style="fill:#98E8F9;" d="M293.97,355.25c-0.528,1.828-1.305,3.631-2.178,4.873l-32.918,46.787c-1.582,2.25-4.171,2.25-5.754,0
	l-32.916-46.787c-0.874-1.242-1.65-3.045-2.178-4.873h-20.699v2.113c0,2.75,1.294,6.84,2.877,9.09l52.915,75.217
	c1.583,2.249,4.171,2.248,5.754,0l52.918-75.217c1.582-2.248,2.877-6.339,2.877-9.089v-2.114H293.97z"/>
<path style="fill:#B2762F;" d="M255.998,335.5c-13.368,0-26.283-2.786-38.231-7.905c-0.276,0.546-0.439,1.19-0.439,1.927v21.512
	c0,2.75,1.294,6.84,2.877,9.09l32.916,46.787c1.583,2.25,4.172,2.25,5.754,0l32.918-46.787c1.582-2.25,2.877-6.34,2.877-9.09
	v-21.513c0-0.735-0.163-1.38-0.44-1.926C282.281,332.714,269.367,335.5,255.998,335.5z"/>
<path style="opacity:0.15;fill:#490089;enable-background:new    ;" d="M245.998,351.033V334.96
	c-9.808-1.026-19.292-3.535-28.231-7.365c-0.276,0.546-0.439,1.19-0.439,1.927v21.512c0,2.75,1.294,6.84,2.877,9.09l32.916,46.787
	c1.583,2.25,4.172,2.25,5.754,0l11.459-16.287l-21.458-30.5C247.292,357.873,245.998,353.783,245.998,351.033z"/>
<g>
	<path style="fill:#B2762F;" d="M154.778,226.458l0.001-58.569h-11.865c-13.06,0-23.646,10.587-23.646,23.645v25.701
		c0,13.059,10.586,23.646,23.646,23.646h12.892C155.134,236.169,154.778,231.355,154.778,226.458z"/>
	<path style="fill:#B2762F;" d="M369.083,167.889h-11.865v58.569c0,4.898-0.355,9.711-1.027,14.423h12.893
		c13.06,0,23.645-10.587,23.645-23.646v-25.701C392.727,178.476,382.143,167.889,369.083,167.889z"/>
	<path style="fill:#B2762F;" d="M262.053,116.989h-12.108c-36.124,0-69.261,8.665-95.165,28.798l-0.001,80.671
		c0,5.315,0.412,10.533,1.202,15.627c24.227-15.325,60.661-24.114,100.018-24.114c39.355,0,75.788,8.789,100.018,24.113
		c0.789-5.094,1.201-10.311,1.201-15.626v-80.671C331.313,125.654,298.177,116.989,262.053,116.989z"/>
</g>
<path style="fill:#64CBFF;" d="M255.998,335.5c-47.976,0-90.15-35.8-102.561-87.057c-0.587-2.424,0.372-4.982,2.339-6.232
	c24.226-15.404,60.756-24.24,100.222-24.24c39.465,0,75.994,8.836,100.223,24.24c1.964,1.25,2.924,3.809,2.338,6.232
	C346.147,299.7,303.974,335.5,255.998,335.5z"/>
<g style="opacity:0.15;">
	<path style="fill:#3D0072;" d="M179.897,230.466c-8.931,3.32-17.053,7.251-24.121,11.745c-1.967,1.25-2.926,3.809-2.339,6.232
		C165.848,299.7,208.022,335.5,255.998,335.5c8.07,0,15.969-1.035,23.596-2.965C232.52,321.738,193.575,282.867,179.897,230.466z"/>
</g>
<g>
	<ellipse style="fill:#D2957D;" cx="205.238" cy="192.03" rx="13.477" ry="13.529"/>
	<ellipse style="fill:#D2957D;" cx="302.349" cy="192.03" rx="13.477" ry="13.529"/>
</g>
<g>
	<path style="fill:#64CBFF;" d="M357.217,145.787v22.102h11.281v-12.142C364.917,152.154,361.147,148.843,357.217,145.787z"/>
	<path style="fill:#64CBFF;" d="M154.779,167.889l0.001-22.102c-3.931,3.056-7.699,6.367-11.281,9.96v12.142H154.779z"/>
</g>
<path style="fill:#98E8F9;" d="M366.998,440.256c0-1.65-1.35-3-3-3h-14.256c-1.65,0-3-1.35-3-3V420c0-1.65-1.35-3-3-3h-13.504
	c-1.65,0-3,1.35-3,3v14.256c0,1.65-1.35,3-3,3h-14.256c-1.65,0-3,1.35-3,3v13.504c0,1.65,1.35,3,3,3h14.256c1.65,0,3,1.35,3,3
	v14.256c0,1.65,1.35,3,3,3h13.504c1.65,0,3-1.35,3-3V459.76c0-1.65,1.35-3,3-3h14.256c1.65,0,3-1.35,3-3V440.256z"/>
<path style="fill:#64CBFF;" d="M249.944,116.989h12.108c41.605,0,79.254,11.484,106.445,38.758v-52.838
	c0-52.692-42.818-95.409-95.638-95.409h-33.724c-52.82,0-95.639,42.717-95.639,95.409v52.838
	C170.689,128.474,208.339,116.989,249.944,116.989z"/>
<g style="opacity:0.15;">
	<path style="fill:#3D0072;" d="M172.998,102.909c0-52.692,42.818-95.409,95.639-95.409h-29.5c-52.82,0-95.639,42.717-95.639,95.409
		v52.838c8.808-8.835,18.719-16.003,29.5-21.67V102.909z"/>
</g>
<path d="M363.998,429.756h-9.756V420c0-5.79-4.71-10.5-10.5-10.5h-13.504c-5.79,0-10.5,4.71-10.5,10.5v9.756h-9.756
	c-5.79,0-10.5,4.71-10.5,10.5v13.504c0,5.79,4.71,10.5,10.5,10.5h9.756v9.756c0,5.79,4.71,10.5,10.5,10.5h13.504
	c5.79,0,10.5-4.71,10.5-10.5v-9.756h9.756c5.79,0,10.5-4.71,10.5-10.5v-13.504C374.498,434.466,369.789,429.756,363.998,429.756z
	 M359.498,449.26h-9.756c-5.79,0-10.5,4.71-10.5,10.5v9.756h-4.504v-9.756c0-5.79-4.71-10.5-10.5-10.5h-9.756v-4.504h9.756
	c5.79,0,10.5-4.71,10.5-10.5V424.5h4.504v9.756c0,5.79,4.71,10.5,10.5,10.5h9.756V449.26z"/>
<path d="M188.889,171.78c4.372-4.372,10.179-6.78,16.352-6.78s11.98,2.408,16.353,6.781c1.464,1.464,3.384,2.196,5.303,2.196
	c1.919,0,3.839-0.732,5.303-2.196c2.929-2.93,2.929-7.678,0-10.607C224.994,153.969,215.42,150,205.24,150
	c-10.179,0-19.753,3.969-26.959,11.175c-2.929,2.929-2.928,7.678,0.001,10.606C181.211,174.709,185.96,174.71,188.889,171.78z"/>
<path d="M285.99,171.78c4.372-4.372,10.179-6.78,16.352-6.78c6.173,0,11.98,2.408,16.353,6.781c1.465,1.464,3.385,2.196,5.304,2.196
	c1.919,0,3.839-0.732,5.304-2.196c2.929-2.93,2.929-7.678,0-10.607c-7.206-7.205-16.78-11.174-26.96-11.174
	s-19.754,3.969-26.959,11.175c-2.929,2.929-2.929,7.678,0.001,10.606C278.311,174.709,283.061,174.71,285.99,171.78z"/>
<path d="M205.242,171c-11.567,0-20.978,9.434-20.978,21.029s9.411,21.029,20.978,21.029c11.566,0,20.976-9.434,20.976-21.029
	S216.808,171,205.242,171z M205.242,198.059c-3.296,0-5.978-2.705-5.978-6.029s2.682-6.029,5.978-6.029
	c3.295,0,5.976,2.705,5.976,6.029S208.537,198.059,205.242,198.059z"/>
<path d="M302.344,171c-11.567,0-20.978,9.434-20.978,21.029s9.41,21.029,20.978,21.029c11.566,0,20.976-9.434,20.976-21.029
	S313.91,171,302.344,171z M302.344,198.059c-3.296,0-5.977-2.705-5.977-6.029s2.681-6.03,5.977-6.03
	c3.295,0,5.976,2.705,5.976,6.029S305.639,198.059,302.344,198.059z"/>
<path d="M379.355,347.75h-77.187v-15.534c6.377-3.129,12.523-6.912,18.362-11.343c3.3-2.503,3.945-7.208,1.441-10.508
	c-2.501-3.299-7.206-3.945-10.508-1.441C295.016,321.403,275.836,328,255.998,328c-44.156,0-83.071-32.925-94.997-80.211
	c23.064-14.196,57.574-22.318,94.997-22.318s71.935,8.121,94.997,22.317c-2.91,11.542-7.464,22.398-13.543,32.284
	c-2.17,3.528-1.068,8.147,2.46,10.317c3.525,2.168,8.148,1.069,10.317-2.46c7.099-11.543,12.354-24.234,15.619-37.724
	c0.146-0.607,0.243-1.217,0.306-1.825h2.928c17.173,0,31.145-13.972,31.145-31.146v-25.701c0-14.796-10.374-27.207-24.229-30.362
	v-58.263c0-18.621-5.039-36.867-14.571-52.765c-2.13-3.553-6.735-4.703-10.29-2.575c-3.552,2.131-4.705,6.737-2.575,10.29
	c8.135,13.569,12.436,29.147,12.436,45.051v36.344c-25.672-19.529-59.508-29.764-98.945-29.764h-12.108
	c-39.438,0-73.274,10.234-98.946,29.764v-36.344C150.998,54.436,190.537,15,239.137,15h33.724c17.534,0,34.468,5.12,48.97,14.806
	c3.445,2.303,8.102,1.373,10.403-2.07c2.3-3.445,1.373-8.103-2.071-10.402C313.185,5.993,293.37,0,272.86,0h-33.724
	c-56.87,0-103.138,46.165-103.138,102.909v58.263c-13.855,3.155-24.23,15.566-24.23,30.362v25.701
	c0,17.174,13.972,31.146,31.146,31.146h2.934c0.063,0.609,0.152,1.219,0.3,1.827c9.039,37.333,32.999,66.962,63.68,81.989v15.553
	h-77.186c-12.407,0-22.5,10.094-22.5,22.5V494.5c0,9.649,7.851,17.5,17.5,17.5h256.715c9.649,0,17.5-7.851,17.5-17.5V370.25
	C401.855,357.844,391.763,347.75,379.355,347.75z M364.717,226.458V211.34h5.291c4.143,0,7.5-3.357,7.5-7.5s-3.357-7.5-7.5-7.5
	h-5.291v-20.951h4.365c8.902,0,16.145,7.243,16.145,16.145v25.701c0,8.902-7.242,16.146-16.145,16.146h-4.592
	C364.636,231.08,364.717,228.771,364.717,226.458z M162.282,149.511c22.787-16.61,52.181-25.021,87.662-25.021h12.108
	c35.481,0,64.874,8.411,87.66,25.021c-0.008,22.588,0.034,79.476,0,80.395c-24.096-12.083-56.333-19.015-90.715-19.398v-24.133
	c0-4.143-3.358-7.5-7.5-7.5s-7.5,3.357-7.5,7.5v24.376c-30.981,1.392-59.737,8.132-81.716,19.155
	C162.248,228.989,162.29,172.1,162.282,149.511z M142.914,233.381c-8.903,0-16.146-7.243-16.146-16.146v-25.701
	c0-8.902,7.243-16.145,16.146-16.145h4.365v20.951h-5.292c-4.142,0-7.5,3.357-7.5,7.5s3.358,7.5,7.5,7.5h5.291v15.118
	c0,2.327,0.084,4.634,0.235,6.923H142.914z M224.827,338.184c9.963,3.131,20.426,4.816,31.171,4.816
	c10.645,0,21.109-1.639,31.171-4.797v12.83c0,1.202-0.819,3.791-1.511,4.774l-29.661,42.157l-29.658-42.156
	c-0.692-0.984-1.512-3.573-1.512-4.775L224.827,338.184L224.827,338.184z M386.855,494.5c0,1.355-1.145,2.5-2.5,2.5H127.641
	c-1.355,0-2.5-1.145-2.5-2.5V370.25c0-4.136,3.364-7.5,7.5-7.5h57.934c0.745,2.94,1.991,5.88,3.495,8.019l14.455,20.548
	c2.384,3.389,7.063,4.204,10.45,1.818c3.388-2.383,4.202-7.062,1.819-10.449l-14.024-19.935h6.265
	c0.33,0.599,0.672,1.172,1.036,1.689l32.915,46.786c2.178,3.097,5.463,4.873,9.012,4.873c3.55,0,6.834-1.776,9.011-4.872
	l32.919-46.789c0.362-0.516,0.705-1.089,1.034-1.686h6.267l-49.231,69.976l-13.397-19.043c-2.384-3.389-7.062-4.199-10.45-1.818
	c-3.388,2.383-4.202,7.062-1.819,10.449l16.654,23.673c2.178,3.094,5.461,4.869,9.009,4.87h0.002c3.547,0,6.831-1.774,9.011-4.871
	l52.918-75.216c1.505-2.139,2.751-5.08,3.496-8.02h57.934c4.136,0,7.5,3.364,7.5,7.5L386.855,494.5L386.855,494.5z"/>
<g>
</g>
<g>
</g>
<g>
</g>
<g>
</g>
<g>
</g>
<g>
</g>
<g>
</g>
<g>
</g>
<g>
</g>
<g>
</g>
<g>
</g>
<g>
</g>
<g>
</g>
<g>
</g>
<g>
</g>
</svg>
