<svg height="512" viewBox="0 0 256 256" width="512" xmlns="http://www.w3.org/2000/svg"><path d="m238.3 123.484a13.432 13.432 0 0 1 -6.281-13.614c.637-4.04 1.143-8.034 1.537-11.951a62.708 62.708 0 0 0 -58.431-68.732 62.789 62.789 0 0 0 -66.708 59.146c-.274 4.821-.608 9.7-1.012 14.543a15.46 15.46 0 0 1 -8.444 12.391c-7.835 4.04-18.575 12.676-18.187 29.571a48.209 48.209 0 0 0 8.126 25.174c-20.909 21.809-57.616 21.317-57.616 21.317-16.548 2.455-24.4 10.212-27.964 15.7a2.9 2.9 0 0 0 2.78 4.457c31.131-4.073 85.776 39.99 165.308-4.79 25.525-14.371 41.1-35.939 50.418-59.036a1.817 1.817 0 0 1 3.024-.588c10.312 11.613-10.3 30.455-2.108 37.9 14.347 13.038 33.707-13.583 30.383-38.59-1.594-11.982-8.154-18.906-14.825-22.898z" fill="#9be5f9"/><path d="m94.5 98.506s4.165-20.736-.9-35.85a8.593 8.593 0 0 0 -11.24-5.27 8.6 8.6 0 0 0 -3.26 13.792c5.8 6.444 12.648 15.989 15.4 27.328z" fill="#9be5f9"/><path d="m198.677 98.326c-5.547 5-15.134 11.869-25.933 11.869s-20.385-6.87-25.933-11.869a3.066 3.066 0 0 0 -5.1 2.475c.757 10.844 5.343 17.968 10.767 22.636a31.135 31.135 0 0 0 40.539 0c5.424-4.668 10.01-11.792 10.767-22.635a3.067 3.067 0 0 0 -5.107-2.476z" fill="#edf4fc"/><path d="m217.086 210.738h-2.266v-2.266a3.071 3.071 0 0 0 -6.142 0v2.266h-2.266a3.071 3.071 0 0 0 0 6.142h2.266v2.267a3.071 3.071 0 1 0 6.142 0v-2.267h2.266a3.071 3.071 0 1 0 0-6.142z" fill="#70d6f9"/><path d="m50.571 158.64a10.8 10.8 0 0 1 -8.654-8.479.2.2 0 0 0 -.384 0 10.8 10.8 0 0 1 -8.655 8.479.19.19 0 0 0 0 .376 10.8 10.8 0 0 1 8.655 8.478.2.2 0 0 0 .384 0 10.793 10.793 0 0 1 8.654-8.478.19.19 0 0 0 0-.376z" fill="#f5c84c"/><path d="m244.884 50.3a7.614 7.614 0 0 1 -6.1-5.981.138.138 0 0 0 -.271 0 7.616 7.616 0 0 1 -6.113 5.981.134.134 0 0 0 0 .266 7.615 7.615 0 0 1 6.106 5.98.138.138 0 0 0 .271 0 7.613 7.613 0 0 1 6.1-5.98.134.134 0 0 0 .007-.266z" fill="#ef4460"/><circle cx="15.733" cy="176.285" fill="#87d147" r="3.285"/><circle cx="185.733" cy="217.285" fill="#f5c84c" r="3.285"/><circle cx="76.733" cy="103.285" fill="#ef4460" r="3.285"/><path d="m107.507 185.549q-.316 0-.636-.014c-6.84-.3-14.339-5.584-20.06-14.131a2.5 2.5 0 0 1 4.155-2.781c4.768 7.122 10.947 11.688 16.125 11.917a9.136 9.136 0 0 0 7.715-3.835c1.979-2.458-.138-6.4-3.858-12.6-3.761-6.27-8.023-13.375-5.951-20.562 1.365-4.735 5.219-8.653 11.781-11.978a2.5 2.5 0 0 1 2.26 4.46c-5.256 2.663-8.277 5.575-9.237 8.9-1.469 5.1 2.04 10.947 5.434 16.6 3.823 6.372 7.775 12.961 3.464 18.313a14.124 14.124 0 0 1 -11.192 5.711z"/><path d="m98.446 229.467c-22.49 0-41.849-5.327-58.151-9.812-13.377-3.681-24.928-6.863-33.873-5.69a5.4 5.4 0 0 1 -5.2-8.3c4.067-6.264 12.52-14.267 29.694-16.815a2.566 2.566 0 0 1 .4-.026c.342.01 34.289.191 54.4-19.161a50.255 50.255 0 0 1 -7.441-24.763c-.429-18.724 12.058-27.993 19.54-31.851a12.907 12.907 0 0 0 7.1-10.376c.384-4.607.723-9.478 1.007-14.478a65.267 65.267 0 1 1 130.122 9.977c-.411 4.082-.933 8.15-1.554 12.091a10.99 10.99 0 0 0 5.095 11.08 32.832 32.832 0 0 1 16.016 24.71c2.274 17.109-5.789 36.795-17.608 42.988-5.929 3.107-11.942 2.318-16.934-2.219-5.085-4.621-2.2-11.741.59-18.626 2.7-6.652 5.478-13.517 2.058-18.529-10.862 26.325-28.041 46.243-51.075 59.212-27.697 15.591-52.41 20.588-74.186 20.588zm-88.012-20.748c8.964 0 19.393 2.869 31.187 6.114 31.251 8.6 74.049 20.375 128.558-10.315 22.33-12.573 38.926-32.018 49.326-57.794a4.348 4.348 0 0 1 3.308-2.671 4.223 4.223 0 0 1 3.9 1.359c6.564 7.392 2.684 16.965-.434 24.658-2.716 6.7-4.2 10.926-1.861 13.048 3.419 3.108 7.2 3.61 11.25 1.49 8.849-4.636 17.174-21.342 14.973-37.9-1.238-9.316-5.823-16.408-13.627-21.079a16.03 16.03 0 0 1 -7.466-16.148c.606-3.849 1.117-7.823 1.518-11.813a60.265 60.265 0 1 0 -120.154-9.192c-.288 5.043-.63 9.958-1.018 14.608a17.876 17.876 0 0 1 -9.79 14.405c-7.871 4.059-17.182 12.09-16.833 27.292a45.969 45.969 0 0 0 7.7 23.84 2.5 2.5 0 0 1 -.273 3.121c-20.817 21.712-55.887 22.064-59.245 22.088-15.2 2.3-22.55 9.184-26.043 14.563a.375.375 0 0 0 0 .44.326.326 0 0 0 .356.174 36.121 36.121 0 0 1 4.668-.288z"/><path d="m162.918 85.141a2.5 2.5 0 0 1 -2.5-2.5 4.352 4.352 0 0 0 -8.7 0 2.5 2.5 0 0 1 -5 0 9.352 9.352 0 0 1 18.7 0 2.5 2.5 0 0 1 -2.5 2.5z"/><path d="m199.646 85.827a2.5 2.5 0 0 1 -2.5-2.5 4.352 4.352 0 1 0 -8.7 0 2.5 2.5 0 0 1 -5 0 9.352 9.352 0 1 1 18.7 0 2.5 2.5 0 0 1 -2.5 2.5z"/><path d="m94.5 101.006a2.5 2.5 0 0 1 -2.429-1.91c-2.686-11.054-9.551-20.374-14.836-26.245a11.1 11.1 0 0 1 4.225-17.8 11.092 11.092 0 0 1 14.511 6.808c5.22 15.571 1.159 36.266.984 37.141a2.5 2.5 0 0 1 -2.4 2.007zm-9.039-41.7a6.091 6.091 0 0 0 -2.2.414 5.994 5.994 0 0 0 -3.724 4.251 6.062 6.062 0 0 0 1.415 5.536 76.385 76.385 0 0 1 12.381 18.3c.528-7.07.507-16.572-2.1-24.357a6.011 6.011 0 0 0 -3.171-3.56 6.089 6.089 0 0 0 -2.598-.585z"/><path d="m172.744 133.391a33.515 33.515 0 0 1 -21.9-8.059c-7.011-6.033-10.923-14.228-11.63-24.357a5.565 5.565 0 0 1 9.271-4.506c5.682 5.121 14.5 11.225 24.26 11.225s18.576-6.1 24.258-11.225a5.566 5.566 0 0 1 9.271 4.508c-.706 10.127-4.619 18.322-11.629 24.355a33.518 33.518 0 0 1 -21.901 8.059zm-27.958-33.354a.623.623 0 0 0 -.27.068.5.5 0 0 0 -.313.522c.609 8.748 3.942 15.785 9.9 20.915a28.753 28.753 0 0 0 37.278 0c5.961-5.13 9.293-12.167 9.9-20.914a.506.506 0 0 0 -.313-.523.522.522 0 0 0 -.622.078c-6.333 5.708-16.263 12.511-27.606 12.511s-21.274-6.8-27.607-12.511a.514.514 0 0 0 -.347-.146z"/></svg>