<svg height="512" viewBox="0 0 256 256" width="512" xmlns="http://www.w3.org/2000/svg"><path d="m211 246.893-3.773-65.98a15.616 15.616 0 0 0 -11.78-14.275l-27.547-6.938a30.841 30.841 0 0 1 -6.123-2.251l-12.421-6.124a5.6 5.6 0 0 1 -3.124-5.023v-9.05a28.3 28.3 0 0 1 -36.46 0v9.05a5.6 5.6 0 0 1 -3.124 5.023l-12.421 6.124a30.841 30.841 0 0 1 -6.127 2.251l-27.551 6.935a15.616 15.616 0 0 0 -11.78 14.275l-3.769 65.983a6.172 6.172 0 0 0 6.162 6.515h153.678a6.172 6.172 0 0 0 6.16-6.515z" fill="#70d6f9"/><path d="m183.431 253.408v-40.708a13.248 13.248 0 0 0 -2.44-7.68c-4.362-6.149-13.046-21.4-13.164-45.333a30.871 30.871 0 0 1 -6.052-2.232l-10.575-5.216c-.954 10.639-3.519 32.394-9.327 45.268a12.935 12.935 0 0 0 -1.123 5.331v50.57z" fill="#ef4460"/><path d="m115.248 253.408v-50.081a12.938 12.938 0 0 0 -1.123-5.327c-5.893-13.062-8.449-35.277-9.369-45.736l-10.531 5.192a30.915 30.915 0 0 1 -6.041 2.229v.012c0 24.213-8.783 39.622-13.175 45.813a13.251 13.251 0 0 0 -2.44 7.68v40.222z" fill="#ef4460"/><path d="m127.425 28.525a39.582 39.582 0 0 1 10.609 1.45v-.651a10.609 10.609 0 0 0 -10.609-10.61 10.61 10.61 0 0 0 -10.61 10.61v.651a39.584 39.584 0 0 1 10.61-1.45z" fill="#f5c84c"/><path d="m191.688 43.328c-16.06-6.061-15.023-40.828-42.348-40.828-18.634 0-24.991 11.206-27.1 17.571a10.547 10.547 0 0 1 5.185-1.358 10.609 10.609 0 0 1 10.609 10.61v.651a39.645 39.645 0 0 1 23.753 18.506c12.667 1.47 24.217-1.355 29.81-3.106a1.087 1.087 0 0 0 .091-2.046z" fill="#5b5d60"/><path d="m127.425 28.525a39.571 39.571 0 0 0 -39.572 39.575v31.665a22.221 22.221 0 0 0 5.367 14.294 94.6 94.6 0 0 1 5.8 8.107c21.657 19.851 24.632 5.005 25.04.551a16.97 16.97 0 0 0 7.874 0c.408 4.454 3.383 19.3 25.04-.551 1.76-2.933 3.093-5.878 4.908-8.05a22.056 22.056 0 0 0 5.118-14.351v-31.665a39.571 39.571 0 0 0 -39.575-39.575z" fill="#70d6f9"/><path d="m131.937 122.717a16.97 16.97 0 0 1 -7.874 0c-.408 4.454-3.383 19.3-25.04-.551a59.549 59.549 0 0 1 4.526 7.491c10.713 19.009 38.189 19.009 48.9 0a59.549 59.549 0 0 1 4.526-7.491c-21.655 19.851-24.63 5.005-25.038.551z" fill="#5b5d60"/><path d="m167 75.642v20.958a10.6 10.6 0 1 0 0-20.954z" fill="#70d6f9"/><path d="m87.853 75.631a10.592 10.592 0 1 0 0 20.977z" fill="#70d6f9"/><g fill="#f5c84c"><path d="m115.248 233.63h25.503v19.778h-25.503z"/><path d="m104.756 152.26-8.848 4.362c.527 14 3.681 41.8 19.34 64.5v-17.795a12.935 12.935 0 0 0 -1.123-5.327c-5.893-13.066-8.449-35.281-9.369-45.74z"/><path d="m160.092 156.622-8.89-4.383c-.954 10.639-3.519 32.394-9.327 45.268a12.935 12.935 0 0 0 -1.123 5.331v18.283c15.66-22.702 18.813-50.5 19.34-64.499z"/></g><path d="m159.016 107.2a.42.42 0 0 0 -.8.148c-.1 1.127-.727 2.377-2.941 2.615-3.767.405-13.85-18.17-25.6-12.484a3.874 3.874 0 0 1 -3.36 0c-11.749-5.686-21.832 12.889-25.6 12.484-2.214-.238-2.842-1.488-2.941-2.615a.42.42 0 0 0 -.8-.148c-.834 1.745-1.6 4.456.14 6.62 2.808 3.484 9.213 3.112 17.344-3.44 3.794-3.057 8.455-4.845 13.178-4.157a2.47 2.47 0 0 0 .708 0c4.714-.687 9.376 1.093 13.178 4.157 8.131 6.552 14.536 6.924 17.344 3.44 1.753-2.162.984-4.873.15-6.62z" fill="#5b5d60"/><path d="m96.857 17.64a10.8 10.8 0 0 1 -8.657-8.479.2.2 0 0 0 -.384 0 10.8 10.8 0 0 1 -8.654 8.479.19.19 0 0 0 0 .376 10.794 10.794 0 0 1 8.654 8.478.2.2 0 0 0 .384 0 10.8 10.8 0 0 1 8.654-8.478.19.19 0 0 0 .003-.376z" fill="#ef4460"/><path d="m186.372 134.738h-2.266v-2.266a3.071 3.071 0 0 0 -6.142 0v2.266h-2.264a3.071 3.071 0 0 0 0 6.142h2.265v2.267a3.071 3.071 0 1 0 6.142 0v-2.267h2.266a3.071 3.071 0 1 0 0-6.142z" fill="#f5c84c"/><circle cx="193.019" cy="113.427" fill="#87d147" r="3.285"/><circle cx="73.019" cy="41.427" fill="#f5c84c" r="3.285"/><path d="m183.431 255.908h-42.68a2.5 2.5 0 0 1 -2.5-2.5v-50.57a15.343 15.343 0 0 1 1.346-6.359c5.779-12.812 8.3-35.363 9.114-44.463a2.5 2.5 0 0 1 3.6-2.019l10.574 5.213a28.409 28.409 0 0 0 5.562 2.051 2.5 2.5 0 0 1 1.884 2.41c.116 23.623 8.923 38.57 12.7 43.9a15.683 15.683 0 0 1 2.9 9.126v40.711a2.5 2.5 0 0 1 -2.5 2.5zm-40.18-5h37.68v-38.208a10.714 10.714 0 0 0 -1.979-6.234c-4.906-6.915-13.065-21.811-13.6-44.886a33.385 33.385 0 0 1 -4.684-1.882l-7.325-3.612c-1.231 12.055-3.884 30.688-9.191 42.452a10.385 10.385 0 0 0 -.9 4.3z"/><path d="m115.249 255.908h-42.68a2.5 2.5 0 0 1 -2.5-2.5v-40.222a15.679 15.679 0 0 1 2.9-9.126c3.822-5.389 12.714-20.5 12.714-44.368a2.513 2.513 0 0 1 1.883-2.434 28.414 28.414 0 0 0 5.552-2.048l10.532-5.192a2.5 2.5 0 0 1 3.6 2.023c.808 9.2 3.319 31.987 9.156 44.927a15.345 15.345 0 0 1 1.346 6.36v50.08a2.5 2.5 0 0 1 -2.503 2.5zm-40.18-5h37.68v-47.58a10.389 10.389 0 0 0 -.9-4.3c-5.364-11.889-8.017-30.737-9.239-42.917l-7.28 3.589a33.336 33.336 0 0 1 -4.663 1.875c-.426 23.329-8.659 38.391-13.619 45.383a10.706 10.706 0 0 0 -1.979 6.233z"/><path d="m138.035 32.475a2.516 2.516 0 0 1 -.67-.091 37.123 37.123 0 0 0 -9.94-1.359 37.123 37.123 0 0 0 -9.94 1.359 2.5 2.5 0 0 1 -3.17-2.409v-.651a13.111 13.111 0 0 1 26.221 0v.651a2.5 2.5 0 0 1 -2.5 2.5zm-10.611-6.45a42.026 42.026 0 0 1 7.687.71 8.111 8.111 0 0 0 -15.373 0 42.015 42.015 0 0 1 7.686-.71z"/><path d="m169.042 51.391a65.4 65.4 0 0 1 -7.543-.427 2.5 2.5 0 0 1 -1.882-1.242 37.372 37.372 0 0 0 -22.251-17.338 2.5 2.5 0 0 1 -1.831-2.409v-.651a8.1 8.1 0 0 0 -12.071-7.073 2.5 2.5 0 0 1 -3.6-2.965c5.768-17.406 22.536-19.286 29.475-19.286 17.711 0 24.438 13.152 30.372 24.755 3.71 7.252 7.213 14.1 12.86 16.233a3.516 3.516 0 0 1 2.3 3.434 3.607 3.607 0 0 1 -2.523 3.339 80.033 80.033 0 0 1 -23.306 3.63zm-5.742-5.266a71.242 71.242 0 0 0 24.179-2.169c-5.391-3.579-8.721-10.092-12.215-16.923-5.544-10.833-11.273-22.033-25.925-22.033-12.99 0-19.442 5.839-22.63 11.232.238-.012.477-.019.715-.019a13.13 13.13 0 0 1 13.055 11.887 42.471 42.471 0 0 1 22.821 18.025z"/><path d="m128 125.68a17.783 17.783 0 0 1 -7.1-1.366 2.5 2.5 0 0 1 2.014-4.576 14.2 14.2 0 0 0 10.17 0 2.5 2.5 0 0 1 2.014 4.576 17.783 17.783 0 0 1 -7.098 1.366z"/><path d="m204.84 255.908h-153.679a8.672 8.672 0 0 1 -8.659-9.154l3.773-65.983a18.033 18.033 0 0 1 13.666-16.557l27.551-6.935a28.388 28.388 0 0 0 5.627-2.069l12.422-6.124a3.083 3.083 0 0 0 1.729-2.781v-9.05a2.5 2.5 0 0 1 4.125-1.9 25.733 25.733 0 0 0 33.21 0 2.5 2.5 0 0 1 4.125 1.9v9.05a3.08 3.08 0 0 0 1.729 2.78l12.422 6.125a28.388 28.388 0 0 0 5.627 2.069l27.551 6.935a18.033 18.033 0 0 1 13.666 16.56l3.775 65.976a8.672 8.672 0 0 1 -8.658 9.154zm-92.57-113.791v4.188a8.049 8.049 0 0 1 -4.518 7.265l-12.422 6.13a33.463 33.463 0 0 1 -6.618 2.433l-27.55 6.934a13.057 13.057 0 0 0 -9.894 11.99l-3.774 65.984a3.673 3.673 0 0 0 3.667 3.872h153.679a3.673 3.673 0 0 0 3.666-3.872l-3.774-65.98a13.057 13.057 0 0 0 -9.894-11.994l-27.55-6.934a33.463 33.463 0 0 1 -6.618-2.433l-12.421-6.125a8.049 8.049 0 0 1 -4.519-7.265v-4.188a30.918 30.918 0 0 1 -31.46-.005z"/><path d="m139.514 134.747a9.253 9.253 0 0 1 -3.366-.609c-3.959-1.529-5.6-5.51-6.285-8.547a19.489 19.489 0 0 1 -3.726 0c-.682 3.037-2.326 7.018-6.285 8.547-5.43 2.1-12.8-1.216-22.519-10.129a2.489 2.489 0 0 1 -.422-.5 91.549 91.549 0 0 0 -5.608-7.84 24.578 24.578 0 0 1 -5.95-15.9v-31.669a42.119 42.119 0 0 1 42.071-42.071 42.119 42.119 0 0 1 42.076 42.071v31.665a24.545 24.545 0 0 1 -5.692 15.954 31.588 31.588 0 0 0 -3.04 4.843c-.523.947-1.06 1.919-1.642 2.89a2.493 2.493 0 0 1 -.455.557c-7.85 7.191-14.161 10.738-19.157 10.738zm-7.577-14.53a2.5 2.5 0 0 1 2.489 2.272c.126 1.368.751 5.914 3.524 6.986 1.916.74 6.672.553 17.068-8.905.481-.815.93-1.63 1.369-2.424a35.1 35.1 0 0 1 3.58-5.633 19.6 19.6 0 0 0 4.533-12.748v-31.665a37.072 37.072 0 0 0 -74.143 0v31.665a19.634 19.634 0 0 0 4.784 12.69 95.944 95.944 0 0 1 5.815 8.088c10.417 9.484 15.181 9.672 17.1 8.932 2.773-1.072 3.4-5.618 3.524-6.986a2.5 2.5 0 0 1 3.071-2.2 14.544 14.544 0 0 0 6.71 0 2.509 2.509 0 0 1 .576-.072z"/><path d="m128 146.414a30.2 30.2 0 0 1 -26.629-15.529q-.517-.918-1-1.79a39.664 39.664 0 0 0 -3.293-5.353 2.5 2.5 0 0 1 3.63-3.418c10.585 9.7 15.406 9.895 17.339 9.151 2.773-1.072 3.4-5.618 3.524-6.986a2.5 2.5 0 0 1 3.071-2.2 14.544 14.544 0 0 0 6.71 0 2.5 2.5 0 0 1 3.071 2.2c.126 1.368.751 5.914 3.524 6.986 1.931.745 6.755.548 17.339-9.151a2.5 2.5 0 0 1 3.63 3.418 39.664 39.664 0 0 0 -3.293 5.353q-.482.87-1 1.79a30.2 30.2 0 0 1 -26.623 15.529zm-19.611-14.114a25.658 25.658 0 0 0 39.222 0c-4.526 2.452-8.319 3.053-11.463 1.837-3.959-1.529-5.6-5.51-6.285-8.547a19.489 19.489 0 0 1 -3.726 0c-.682 3.037-2.326 7.018-6.285 8.547-3.144 1.217-6.937.615-11.463-1.837z"/><path d="m115.558 89.39a2.5 2.5 0 0 1 -2.5-2.5 2.684 2.684 0 1 0 -5.368 0 2.5 2.5 0 0 1 -5 0 7.684 7.684 0 1 1 15.368 0 2.5 2.5 0 0 1 -2.5 2.5z"/><path d="m150.81 89.909a2.5 2.5 0 0 1 -2.5-2.5 2.684 2.684 0 1 0 -5.368 0 2.5 2.5 0 0 1 -5 0 7.684 7.684 0 1 1 15.368 0 2.5 2.5 0 0 1 -2.5 2.5z"/><path d="m136.035 79.917a2.5 2.5 0 0 1 -1.546-4.465c2.308-1.813 14.151-10.645 20.646-6.314.039.025.076.052.114.08l3.543 2.657a2.5 2.5 0 1 1 -3 4l-3.476-2.606c-2.524-1.573-10.16 2.525-14.739 6.116a2.49 2.49 0 0 1 -1.542.532z"/><path d="m119.965 79.917a2.49 2.49 0 0 1 -1.542-.532c-4.58-3.592-12.214-7.69-14.739-6.116l-3.476 2.606a2.5 2.5 0 1 1 -3-4l3.543-2.657c.038-.028.075-.055.114-.08 6.5-4.328 18.338 4.5 20.646 6.314a2.5 2.5 0 0 1 -1.546 4.465z"/><path d="m168.6 99.215a13.215 13.215 0 0 1 -1.97-.147 2.5 2.5 0 0 1 -2.13-2.468v-20.958a2.5 2.5 0 0 1 2.143-2.474 13.1 13.1 0 1 1 1.957 26.047zm.9-21.137v16.1a7.929 7.929 0 0 0 4.358-1.9 8.1 8.1 0 0 0 .029-12.264 8.024 8.024 0 0 0 -4.387-1.936z"/><path d="m86.371 99.211a13.091 13.091 0 1 1 1.814-26.058 2.5 2.5 0 0 1 2.168 2.478v20.977a2.5 2.5 0 0 1 -2.153 2.476 13.247 13.247 0 0 1 -1.829.127zm-1.018-21.111a8.095 8.095 0 0 0 0 16.059z"/><path d="m140.751 255.908h-25.5a2.5 2.5 0 0 1 -2.5-2.5v-19.778a2.5 2.5 0 0 1 2.5-2.5h25.5a2.5 2.5 0 0 1 2.5 2.5v19.778a2.5 2.5 0 0 1 -2.5 2.5zm-23-5h20.5v-14.778h-20.5z"/><path d="m115.249 223.621a2.5 2.5 0 0 1 -2.059-1.08c-15.923-23.085-19.228-51.15-19.78-65.825a2.5 2.5 0 0 1 1.39-2.336l8.848-4.362a2.5 2.5 0 0 1 3.6 2.023c.808 9.2 3.319 31.987 9.156 44.927a15.345 15.345 0 0 1 1.346 6.36v17.793a2.5 2.5 0 0 1 -2.5 2.5zm-16.772-65.478c.63 12.859 3.433 34.624 14.272 54.192v-9.007a10.389 10.389 0 0 0 -.9-4.3c-5.364-11.889-8.017-30.737-9.239-42.918z"/><path d="m140.751 223.621a2.5 2.5 0 0 1 -2.5-2.5v-18.283a15.343 15.343 0 0 1 1.346-6.359c5.779-12.812 8.3-35.363 9.114-44.463a2.5 2.5 0 0 1 3.6-2.019l8.89 4.383a2.5 2.5 0 0 1 1.393 2.336c-.552 14.675-3.857 42.74-19.78 65.825a2.5 2.5 0 0 1 -2.063 1.08zm12.594-67.538c-1.231 12.055-3.884 30.688-9.191 42.452a10.385 10.385 0 0 0 -.9 4.3v9.5c10.839-19.568 13.642-41.333 14.272-54.192z"/><path d="m154.065 118.515c-4.6 0-9.934-2.827-14.1-6.186-3.57-2.878-7.565-4.166-11.248-3.63a5.03 5.03 0 0 1 -1.429 0c-3.685-.539-7.68.752-11.249 3.63-6.524 5.256-15.9 9.214-20.86 3.062-1.974-2.451-2.134-5.741-.449-9.266a2.92 2.92 0 0 1 5.543 1.007.616.616 0 0 0 .036.179 1.539 1.539 0 0 0 .414.129 28.563 28.563 0 0 0 3.824-3.456c5-4.991 13.377-13.344 22.864-8.753a1.361 1.361 0 0 0 1.182 0c9.488-4.593 17.861 3.761 22.864 8.753a28.542 28.542 0 0 0 3.824 3.455 1.071 1.071 0 0 0 .43-.148c0 .008.011-.05.02-.161a2.921 2.921 0 0 1 5.543-1.007c1.685 3.525 1.525 6.815-.449 9.266a8.282 8.282 0 0 1 -6.76 3.126zm-55.073-6.366c.025.035.051.07.079.1 1.723 2.14 6.787 1.857 13.828-3.818 4.666-3.76 10.031-5.424 15.107-4.685 5.065-.738 10.428.925 15.1 4.685 7.041 5.675 12.1 5.957 13.828 3.818.028-.034.054-.068.079-.1a7.448 7.448 0 0 1 -1.462.3c-2.429.257-4.493-1.8-7.623-4.927-5.943-5.929-11.336-10.609-17.153-7.792a6.409 6.409 0 0 1 -5.539 0c-5.818-2.815-11.212 1.863-17.154 7.792-3.13 3.123-5.192 5.184-7.623 4.927a7.463 7.463 0 0 1 -1.467-.3z"/><path d="m128 118.013a33.684 33.684 0 0 1 -8.625-1.1 2.5 2.5 0 0 1 1.281-4.834 29.6 29.6 0 0 0 14.688 0 2.5 2.5 0 0 1 1.281 4.834 33.684 33.684 0 0 1 -8.625 1.1z"/></svg>