<svg id="Layer_1" height="512" viewBox="0 0 512 512" width="512" xmlns="http://www.w3.org/2000/svg" data-name="Layer 1"><path d="m192 24h-105.77l63.77 91z" fill="#753f05"/><path d="m452.093 400.09-37.863-.09c-32-40-1.284-96-1.284-96l48 32c16-72-32-120-32-120l48 16c8-48-24-104-24-104h24c0-30.585-8.885-51.573-21.987-69.093l-35.652-34.907a198.762 198.762 0 0 0 -37.077-16h-150.544c-51.616 0-89.456 41.843-89.456 93.459v66.541h-110.955a23.24 23.24 0 0 0 -19.928 35.2l29.607 49.34a73.037 73.037 0 0 0 62.629 35.46h46.647c8.723 45.984 52.285 41.634 96 56v56h-104a32 32 0 0 0 -32 32v80h393.77v-59.952a51.958 51.958 0 0 0 -51.907-51.958z" fill="#b76f11"/><circle cx="286.23" cy="120" fill="#562e03" r="24"/><path d="m152.23 432h-106l-38.23 72 54.23-40h1.77v48h89z" fill="#683803"/><path d="m208 464h64" fill="none" stroke="#231f20" stroke-linejoin="round" stroke-width="16"/><path d="m350.23 72 40-48h88l-64 96z" fill="#8e5107"/><path d="m262 288h-111.77a61.8 61.8 0 0 0 3.486 12h108.284z" fill="#8e5107"/><path d="m54.23 168h-22.955a23.24 23.24 0 0 0 -19.928 35.2l2.883 4.8h40z" fill="#562e03"/><path d="m136 432-48 72 64-32v40h65v-80z" fill="#4c2702"/><path d="m208 512v-48h-17.77l-54.23 40 38.23-72h156.99v80" fill="#a05a07"/><path d="m142.23 97.456v70.544h-110.955a23.226 23.226 0 0 0 -23.033 20h172.058a51.7 51.7 0 0 0 51.7-51.7v-11.3c0-107 30.23-117 30.23-117h-30.544a89.456 89.456 0 0 0 -89.456 89.456z" fill="#fff" opacity=".3"/><circle cx="190.23" cy="120" fill="#562e03" r="24"/><path d="m162 415h84v-15h-103.77a32 32 0 0 0 -32 32h40s-1.23-15 11.77-17z" fill="#fff" opacity=".3"/><g fill="#260717"><path d="m158.229 120a32 32 0 1 0 32-32 32.036 32.036 0 0 0 -32 32zm32-16a16 16 0 1 1 -16 16 16.018 16.018 0 0 1 16-16z"/><path d="m254.229 120a32 32 0 1 0 32-32 32.036 32.036 0 0 0 -32 32zm32-16a16 16 0 1 1 -16 16 16.018 16.018 0 0 1 16-16z"/><path d="m452.1 392.09-33.822-.028c-9.917-14.142-12.922-31.991-8.917-53.122a121.442 121.442 0 0 1 6.927-23.1l40.221 26.814a8 8 0 0 0 12.247-4.921 141.45 141.45 0 0 0 -10.587-92.175 152.219 152.219 0 0 0 -7.527-13.9l23.774 7.925a8 8 0 0 0 10.422-6.274c6.178-37.068-9.6-77.637-18.846-97.315h10.954a8 8 0 0 0 8-8c0-26.829-6.473-48.985-20.276-69.239l20.215-30.323a8 8 0 0 0 -6.656-12.432h-56.812a207.313 207.313 0 0 0 -36.891-15.663 7.988 7.988 0 0 0 -2.3-.337h-150.539a95.657 95.657 0 0 0 -53.525 16h-91.933a8 8 0 0 0 -6.554 12.588l54.554 77.934v53.478h-102.954a31.24 31.24 0 0 0 -26.788 47.313l29.606 49.344a81.446 81.446 0 0 0 69.49 39.343h40.317c9.568 34.233 38.588 40.769 69.219 47.653 8.22 1.848 16.669 3.747 25.112 6.235v42.112h-96a40.068 40.068 0 0 0 -39.2 32h-56.8a8 8 0 0 0 -7.065 4.249l-38.229 72a8 8 0 0 0 11.814 10.189l43.249-31.902v33.464h16v-40h27.719l-18.375 27.563a8 8 0 0 0 10.234 11.593l42.974-21.487-5.618 10.58a8 8 0 0 0 11.814 10.189l52.112-38.438h7.14v40h16v-40h56v-16h-81.771a8 8 0 0 0 -4.749 1.562l-25.915 19.115 19.474-36.677h144.181v72h16v-80a8 8 0 0 0 -8-8h-195.22a8 8 0 0 0 -6.656 3.563l-11.114 16.671v-12.234a24.027 24.027 0 0 1 24-24h104a8 8 0 0 0 8-8v-56a8 8 0 0 0 -5.5-7.6c-11-3.613-21.726-6.025-32.1-8.357-29.615-6.656-48.16-11.838-55.9-32.043h21.507v16h16v-16h40v16h16v-16h8v-16h-158.654a65.364 65.364 0 0 1 -55.769-31.575l-19.454-32.425h25.87a8 8 0 0 0 8-8v-32h144v-16h-56v-58.541c0-23.18 8.239-44.7 23.2-60.6a79.073 79.073 0 0 1 58.257-24.859h149.32c.958.307 2.524.823 4.532 1.531a7.985 7.985 0 0 0 -1.455 1.348l-40 48 12.291 10.243 37.602-45.122h69.3l-55.708 83.563 13.313 8.875 34.1-51.156c8.368 14.025 12.754 28.985 13.74 46.718h-15.776a8 8 0 0 0 -6.946 11.965c.284.5 26.433 46.959 24.084 89.314l-38.605-12.868a8 8 0 0 0 -8.2 13.234c.113.114 11.439 11.656 20.705 31.343 10.544 22.4 14.3 45.751 11.216 69.565l-37.814-25.209a8 8 0 0 0 -11.451 2.809 132.857 132.857 0 0 0 -12.2 35.326c-4.105 21.2-2.026 40.466 5.98 56.568l-57.479-.047-.014 16 109.863.09a44.017 44.017 0 0 1 43.915 43.957v59.953h16v-59.953a60.038 60.038 0 0 0 -59.9-59.957zm-401.061 47.91h51.19v16h-40a8 8 0 0 0 -4.749 1.562l-25.915 19.115zm89.242 0h20.643l-13.441 25.314-36.117 18.059zm-94.052-240h-27.469l-.552-.92a15.239 15.239 0 0 1 13.067-23.08h14.954zm89.841-118.75-34.475-49.25h58.26a101.809 101.809 0 0 0 -23.785 49.25z"/><path d="m340 319.669h16.001v48.662h-16.001z" transform="matrix(.986 -.164 .164 .986 -51.818 61.891)"/><path d="m304 352h16v40h-16z"/><path d="m400 240h16v40h-16z" transform="matrix(.6 -.8 .8 .6 -44.798 430.406)"/><path d="m408 150.111h16v35.777h-16z" transform="matrix(.447 -.894 .894 .447 79.695 464.95)"/><path d="m232 40h16v40h-16z"/><path d="m392 448h16v40h-16z"/><path d="m453 472h16v40h-16z"/><path d="m273.578 44h28.844v16h-28.844z" transform="matrix(.555 -.832 .832 .555 84.98 262.786)"/><path d="m192 37.578h16v28.844h-16z" transform="matrix(.832 -.555 .555 .832 4.746 119.673)"/></g></svg>