<?xml version="1.0" encoding="iso-8859-1"?>
<!-- Generator: Adobe Illustrator 19.0.0, SVG Export Plug-In . SVG Version: 6.00 Build 0)  -->
<svg version="1.1" id="Capa_1" xmlns="http://www.w3.org/2000/svg" xmlns:xlink="http://www.w3.org/1999/xlink" x="0px" y="0px"
	 viewBox="0 0 512 512" style="enable-background:new 0 0 512 512;" xml:space="preserve">
<path style="fill:#312F56;" d="M400.536,355.25h-37.033c-19.62,39.524-60.385,66.695-107.503,66.695s-87.884-27.171-107.503-66.695
	h-37.033c-8.25,0-15,6.75-15,15V494.5c0,5.5,4.5,10,10,10h299.072c5.5,0,10-4.5,10-10V370.25
	C415.536,362,408.786,355.25,400.536,355.25z"/>
<g style="opacity:0.15;">
	<path style="fill:#030007;" d="M125.928,494.5V370.25c0-8.25,6.75-15,15-15h-29.464c-8.25,0-15,6.75-15,15V494.5
		c0,5.5,4.5,10,10,10h29.464C130.428,504.5,125.928,500,125.928,494.5z"/>
</g>
<path style="fill:#135693;" d="M256,421.945c-9.847,0-19.414-1.195-28.572-3.434L253.5,463.67c1.375,2.382,3.625,2.382,5,0
	l26.072-45.158C275.414,420.75,265.847,421.945,256,421.945z"/>
<path style="fill:#203A74;" d="M173,388.576V504.5h18V402.82C184.545,398.65,178.523,393.872,173,388.576z"/>
<path style="fill:#312F56;" d="M149,356.263V504.5h24V388.59C163.295,379.285,155.151,368.366,149,356.263z"/>
<path style="fill:#135693;" d="M149,356.263V504.5h24V388.59C163.295,379.285,155.151,368.366,149,356.263z"/>
<path style="fill:#203A74;" d="M339,388.576c-5.523,5.296-11.545,10.074-18,14.244V504.5h18V388.576z"/>
<path style="fill:#135693;" d="M339,388.59V504.5h24V356.263C356.849,368.366,348.705,379.285,339,388.59z"/>
<path style="fill:#312F56;" d="M256,74.017c65.094,0,118.074,51.85,119.903,116.501c0.03-1.309,0.053-2.619,0.053-3.936
	C375.956,88.934,301.527,7.5,256,7.5S136.044,88.934,136.044,186.582c0,1.316,0.023,2.627,0.053,3.936
	C137.926,125.866,190.906,74.017,256,74.017z"/>
<path style="opacity:0.15;fill:#030007;enable-background:new    ;" d="M187.665,95.381c21.506-44.1,55.227-76.299,83.313-85.315
	C265.752,8.388,260.719,7.5,256,7.5c-45.527,0-119.956,81.434-119.956,179.082c0,1.316,0.023,2.627,0.053,3.936
	C137.212,151.09,157.355,116.43,187.665,95.381z"/>
<path style="fill:#135693;" d="M375.956,301.989c0,66.249-53.706,119.956-119.956,119.956l0,0
	c-66.25,0-119.956-53.707-119.956-119.956V193.973c0-66.25,53.706-119.956,119.956-119.956l0,0
	c66.25,0,119.956,53.706,119.956,119.956V301.989z"/>
<g style="opacity:0.15;">
	<path style="fill:#3D0072;" d="M181,301.989V193.973c0-58.566,41.974-107.32,97.478-117.844
		c-7.282-1.381-14.794-2.112-22.478-2.112c-66.25,0-119.956,53.706-119.956,119.956V301.99c0,66.249,53.706,119.956,119.956,119.956
		c7.684,0,15.196-0.731,22.478-2.111C222.974,409.31,181,360.555,181,301.989z"/>
</g>
<path style="fill:#FFFFFF;" d="M353.215,255.726v-61.753c0-53.605-43.61-97.216-97.215-97.216s-97.215,43.61-97.215,97.216v61.753
	c7.554,15.857,19.514,29.53,34.955,39.317c1.136,0.719,1.989,1.819,2.404,3.098l11.196,34.458c1.192,3.665,5.787,7.002,9.64,7.002
	h78.039c3.853,0,8.448-3.337,9.64-7.003l11.196-34.457c0.415-1.277,1.268-2.377,2.404-3.096
	C333.7,285.258,345.661,271.584,353.215,255.726z"/>
<circle style="fill:#203A74;" cx="205.02" cy="213.98" r="26.916"/>
<g style="opacity:0.15;">
	<path style="fill:#3D0072;" d="M196,213.98c0-11.727,7.503-21.697,17.968-25.386c-2.8-0.987-5.81-1.529-8.947-1.529
		c-14.865,0-26.915,12.051-26.915,26.915c0,14.865,12.051,26.916,26.915,26.916c3.138,0,6.148-0.543,8.947-1.529
		C203.503,235.678,196,225.708,196,213.98z"/>
</g>
<circle style="fill:#203A74;" cx="306.98" cy="213.98" r="26.916"/>
<g style="opacity:0.15;">
	<path style="fill:#3D0072;" d="M297.959,213.98c0-11.727,7.503-21.697,17.968-25.386c-2.8-0.987-5.81-1.529-8.947-1.529
		c-14.865,0-26.915,12.051-26.915,26.915c0,14.865,12.051,26.916,26.915,26.916c3.138,0,6.148-0.543,8.947-1.529
		C305.462,235.678,297.959,225.708,297.959,213.98z"/>
</g>
<path style="fill:#203A74;" d="M239.51,262.873c-2.2,0-3.1-1.558-2-3.464L254,230.847c1.1-1.905,2.9-1.905,4,0l16.49,28.563
	c1.1,1.905,0.2,3.464-2,3.464h-32.98V262.873z"/>
<path id="SVGCleanerId_0" style="fill:#203A74;" d="M256,74.017c-66.25,0-119.956,53.706-119.956,119.956V301.99
	c0,66.249,53.706,119.956,119.956,119.956s119.956-53.707,119.956-119.956V193.973C375.956,127.723,322.25,74.017,256,74.017z
	 M353.215,301.989c0,53.605-43.61,97.216-97.215,97.216s-97.215-43.611-97.215-97.216V193.973c0-53.605,43.61-97.216,97.215-97.216
	s97.215,43.61,97.215,97.216V301.989z"/>
<g>
	<path id="SVGCleanerId_0_1_" style="fill:#203A74;" d="M256,74.017c-66.25,0-119.956,53.706-119.956,119.956V301.99
		c0,66.249,53.706,119.956,119.956,119.956s119.956-53.707,119.956-119.956V193.973C375.956,127.723,322.25,74.017,256,74.017z
		 M353.215,301.989c0,53.605-43.61,97.216-97.215,97.216s-97.215-43.611-97.215-97.216V193.973c0-53.605,43.61-97.216,97.215-97.216
		s97.215,43.61,97.215,97.216V301.989z"/>
</g>
<path d="M205.02,179.565c-18.977,0-34.415,15.439-34.415,34.415c0,18.977,15.439,34.416,34.415,34.416s34.416-15.439,34.416-34.416
	C239.436,195.004,223.997,179.565,205.02,179.565z M205.02,233.396c-10.706,0-19.415-8.71-19.415-19.416
	c0-10.705,8.71-19.415,19.415-19.415c10.706,0,19.416,8.71,19.416,19.415C224.436,224.686,215.726,233.396,205.02,233.396z"/>
<path d="M306.979,179.565c-18.977,0-34.415,15.439-34.415,34.415c0,18.977,15.439,34.416,34.415,34.416s34.415-15.439,34.415-34.416
	C341.395,195.004,325.956,179.565,306.979,179.565z M306.979,233.396c-10.706,0-19.415-8.71-19.415-19.416
	c0-10.705,8.71-19.415,19.415-19.415s19.415,8.71,19.415,19.415C326.395,224.686,317.685,233.396,306.979,233.396z"/>
<path d="M264.495,227.097c-1.872-3.243-5.048-5.179-8.495-5.179s-6.623,1.936-8.495,5.179l-16.49,28.563
	c-1.872,3.242-1.961,6.961-0.238,9.946c1.724,2.985,4.988,4.767,8.733,4.767h32.98c3.745,0,7.009-1.782,8.733-4.767
	s1.635-6.704-0.238-9.946L264.495,227.097z M248.5,255.373l7.5-12.99l7.5,12.99H248.5z"/>
<path d="M400.536,347.75h-25.582c5.485-14.211,8.501-29.639,8.501-45.761c0,0,0-114.177,0-115.407
	c0-61.903-27.814-108.424-44.395-130.645C313.316,21.434,281.489,0,256,0s-57.316,21.434-83.061,55.938
	c-16.58,22.221-44.395,68.741-44.395,130.645c0,1.23,0,26.421,0,26.421c0,4.143,3.358,7.5,7.5,7.5s7.5-3.357,7.5-7.5v-19.03
	c0-62.009,50.448-112.456,112.456-112.456s112.456,50.447,112.456,112.456v108.017c0,62.009-50.448,112.456-112.456,112.456
	S143.544,364,143.544,301.991V259c0-4.143-3.358-7.5-7.5-7.5s-7.5,3.357-7.5,7.5v42.989c0,16.122,3.016,31.55,8.501,45.761h-25.581
	c-12.407,0-22.5,10.094-22.5,22.5V494.5c0,9.649,7.851,17.5,17.5,17.5h299.072c9.649,0,17.5-7.851,17.5-17.5V370.25
	C423.036,357.844,412.943,347.75,400.536,347.75z M256,66.517c-39.14,0-74.21,17.739-97.608,45.594
	c8.433-20.71,18.814-36.81,26.569-47.202C207.583,34.59,235.467,15,256,15c20.533,0,48.418,19.59,71.04,49.908
	c7.754,10.393,18.136,26.492,26.569,47.202C330.21,84.256,295.14,66.517,256,66.517z M141.5,497h-35.036c-1.355,0-2.5-1.145-2.5-2.5
	V370.25c0-4.136,3.364-7.5,7.5-7.5H141.5V497z M165.5,497h-9V381.545c2.823,3.523,5.826,6.897,9,10.1V497z M256,429.445
	c4.748,0,9.434-0.27,14.049-0.778L256,453l-14.049-24.333C246.566,429.176,251.252,429.445,256,429.445z M183.5,497h-3v-92.391
	c0.989,0.73,1.99,1.444,3,2.146V497z M313.5,497h-115v-81.283c7.594,3.855,15.624,6.968,23.995,9.25l24.51,42.453
	c2.001,3.467,5.364,5.536,8.995,5.536c3.631,0,6.994-2.069,8.995-5.536l24.511-42.453c8.37-2.282,16.4-5.395,23.994-9.25L313.5,497
	L313.5,497z M331.5,497h-3v-90.245c1.01-0.701,2.011-1.415,3-2.146V497z M408.036,494.5c0,1.355-1.145,2.5-2.5,2.5H370.5v-28
	c0-4.143-3.358-7.5-7.5-7.5s-7.5,3.357-7.5,7.5v28h-9V391.645c3.174-3.203,6.177-6.576,9-10.1V429c0,4.143,3.358,7.5,7.5,7.5
	s7.5-3.357,7.5-7.5v-66.25h30.036c4.136,0,7.5,3.364,7.5,7.5V494.5z"/>
<path d="M344.786,314.923c-0.595,4.099,2.247,7.904,6.346,8.498c4.099,0.599,7.904-2.247,8.499-6.346
	c0.719-4.96,1.084-10.035,1.085-15.086V193.973c0-57.74-46.975-104.716-104.715-104.716s-104.715,46.976-104.715,104.716V301.99
	c0,57.74,46.975,104.716,104.715,104.716c33.386,0,65.076-16.186,84.77-43.297c2.435-3.352,1.691-8.042-1.66-10.477
	s-8.042-1.69-10.476,1.66C311.752,377.831,284.6,391.705,256,391.705c-49.469,0-89.715-40.246-89.715-89.716v-20.994
	c6.498,7.661,14.18,14.438,22.917,20.049l11.006,33.874c2.185,6.718,9.709,12.183,16.772,12.183h78.039
	c7.064,0,14.588-5.466,16.772-12.186l11.005-33.869c8.738-5.61,16.42-12.388,22.919-20.05v20.992
	C345.715,306.32,345.402,310.672,344.786,314.923z M314.248,288.707c-2.609,1.651-4.572,4.179-5.526,7.116l-11.182,34.418
	c-0.298,0.691-1.791,1.778-2.548,1.859h-7.204v-20.06c0-4.143-3.358-7.5-7.5-7.5s-7.5,3.357-7.5,7.5v20.061l-9.288,0.001V312.04
	c0-4.143-3.358-7.5-7.5-7.5c-4.142,0-7.5,3.357-7.5,7.5v20.062h-9.288V312.04c0-4.143-3.358-7.5-7.5-7.5s-7.5,3.357-7.5,7.5v20.062
	h-7.192c-0.753-0.07-2.261-1.166-2.547-1.82l-11.196-34.457c-0.954-2.938-2.917-5.467-5.522-7.116
	c-13.751-8.716-24.486-20.786-31.47-34.776v-59.959c0-49.47,40.246-89.716,89.715-89.716s89.715,40.246,89.715,89.716v59.959
	C338.731,267.923,327.997,279.992,314.248,288.707z"/>
<g>
</g>
<g>
</g>
<g>
</g>
<g>
</g>
<g>
</g>
<g>
</g>
<g>
</g>
<g>
</g>
<g>
</g>
<g>
</g>
<g>
</g>
<g>
</g>
<g>
</g>
<g>
</g>
<g>
</g>
</svg>
