<?xml version="1.0" encoding="iso-8859-1"?>
<!-- Generator: Adobe Illustrator 19.0.0, SVG Export Plug-In . SVG Version: 6.00 Build 0)  -->
<svg version="1.1" id="Capa_1" xmlns="http://www.w3.org/2000/svg" xmlns:xlink="http://www.w3.org/1999/xlink" x="0px" y="0px"
	 viewBox="0 0 512 512" style="enable-background:new 0 0 512 512;" xml:space="preserve">
<path style="fill:#FFAC55;" d="M62.989,339.224c0,0-48.469,37.117-40.874,132.283l154.831,14.879h158.11l154.831-14.879
	c7.595-95.166-40.874-132.283-40.874-132.283H62.989z"/>
<path style="fill:#FFCE6E;" d="M129.83,424.392h-60.6c-26.021,0-47.115,21.094-47.115,47.115v14.879
	c0,10.004,8.11,18.114,18.114,18.114H51.51l8.987-4.226l6.013,4.226h25.52l7.5-4.226l7.5,4.226h25.52l6.013-4.226l8.987,4.226
	h11.282c10.004,0,18.114-8.11,18.114-18.114v-14.879C176.945,445.486,155.851,424.392,129.83,424.392z"/>
<polygon style="fill:#DB8D49;" points="223.96,504.5 176.946,504.5 176.946,382.931 335.054,382.931 335.054,504.5 288.04,504.5 
	256.001,491.451 "/>
<path style="fill:#FFCE6E;" d="M382.17,424.392h60.6c26.021,0,47.115,21.094,47.115,47.115v14.879
	c0,10.004-8.11,18.114-18.114,18.114H460.49l-8.987-4.226l-6.013,4.226h-25.52l-7.5-4.226l-7.5,4.226h-25.52l-6.013-4.226
	l-8.987,4.226h-11.282c-10.004,0-18.114-8.11-18.114-18.114v-14.879C335.055,445.486,356.149,424.392,382.17,424.392z"/>
<rect x="223.96" y="436.49" style="fill:#3B484A;" width="64.08" height="68.01"/>
<path style="fill:#FFAC55;" d="M468.767,130.983l-18.856-29.831L339.246,38.717H198.52L78.276,90.251l-35.039,40.731
	c-11.438,26.832-18.294,57.569-20.405,91.728l11.982,35.355L218.01,222.71h202.17l52.194,35.355l16.797-35.354
	C487.061,188.552,480.204,157.815,468.767,130.983z"/>
<path style="fill:#DB8D49;" d="M468.143,362.379c-9.82-16.023-19.131-23.155-19.131-23.155H62.989c0,0-9.311,7.132-19.131,23.154
	c16.252,13.032,36.199,23.204,59.736,30.422c39.585,12.138,81.399,13.541,109.409,13.541c10.4,0,19.709-0.22,27.922-0.415
	c5.913-0.14,11.019-0.26,15.077-0.26c4.059,0,9.164,0.12,15.074,0.26c8.214,0.195,17.524,0.415,27.932,0.415
	c28.1,0,70.044-1.414,109.713-13.638C432.125,385.492,451.963,375.35,468.143,362.379z"/>
<path style="fill:#FFAC55;" d="M479.01,301.038c-39.899,87.584-178.244,74.629-223.008,74.629
	c-44.673,0-182.547,12.901-222.762-74.1l-0.246-0.53l10.244-30.419l147.685-58.14h154.6l114.298,48.891L479.01,301.038z"/>
<path style="fill:#FFCE6E;" d="M43.237,130.981C96.826,110.253,172.335,97.341,256,97.341c83.667,0,159.178,12.913,212.767,33.642
	l-0.689-1.585C434.373,51.995,362.21,7.5,256.002,7.5C149.277,7.5,76.929,52.429,43.437,130.529L43.237,130.981z"/>
<path style="fill:#DB8D49;" d="M22.833,222.709c-0.466,7.549-0.715,15.254-0.715,23.133c0,21.814,3.96,40.013,10.876,55.195
	c53.976-23.155,133.86-37.814,223.007-37.814c89.148,0,169.034,14.66,223.01,37.816c6.916-15.182,10.876-33.382,10.876-55.196
	c0-7.878-0.249-15.583-0.715-23.131c-53.822-25.803-138.241-42.43-233.171-42.43C161.072,180.281,76.655,196.907,22.833,222.709z"/>
<path style="fill:#FFCE6E;" d="M352.812,358.627H159.188c-6.333,0-11.467,5.134-11.467,11.467v25.686
	c0,6.333,5.134,11.467,11.467,11.467h193.623c6.333,0,11.467-5.134,11.467-11.467v-25.686
	C364.279,363.761,359.145,358.627,352.812,358.627z"/>
<path style="fill:#DB8D49;" d="M223.957,277.885l8.07,91.802c1.055,7.594,7.547,13.247,15.214,13.247h17.518
	c7.667,0,14.159-5.653,15.214-13.247l8.07-91.802H223.957z"/>
<path style="fill:#FFCE6E;" d="M385.061,138.276c4.985,12.695,7.7,26.342,7.7,40.563c0,67.529-61.226,122.283-136.762,122.283
	c-75.526,0-136.762-54.754-136.762-122.283c0-14.221,2.715-27.868,7.7-40.563l43.833-30.567L256,88.006l84.236,12.846
	L385.061,138.276z"/>
<path style="fill:#DB8D49;" d="M385.061,138.276C351.813,126.344,306.255,118.99,256,118.99s-95.812,7.353-129.061,19.285
	c18.72-47.599,69.441-81.72,129.061-81.72C315.63,56.556,366.341,90.677,385.061,138.276z"/>
<path d="M176.945,188.287c4.142,0,7.5-3.358,7.5-7.5v-15.371c0-4.142-3.358-7.5-7.5-7.5s-7.5,3.358-7.5,7.5v15.371
	C169.445,184.929,172.803,188.287,176.945,188.287z"/>
<path d="M187.413,195.88h-20.936c-4.142,0-7.5,3.358-7.5,7.5s3.358,7.5,7.5,7.5h20.936c4.142,0,7.5-3.358,7.5-7.5
	S191.555,195.88,187.413,195.88z"/>
<path d="M335.055,188.287c4.142,0,7.5-3.358,7.5-7.5v-15.371c0-4.142-3.358-7.5-7.5-7.5s-7.5,3.358-7.5,7.5v15.371
	C327.555,184.929,330.913,188.287,335.055,188.287z"/>
<path d="M324.587,210.88h20.936c4.142,0,7.5-3.358,7.5-7.5s-3.358-7.5-7.5-7.5h-20.936c-4.142,0-7.5,3.358-7.5,7.5
	S320.445,210.88,324.587,210.88z"/>
<path d="M256,210.012c7.675,0,14.887-3.215,19.787-8.82c2.726-3.119,2.408-7.857-0.711-10.583
	c-3.119-2.726-7.856-2.409-10.583,0.711c-2.051,2.346-5.146,3.692-8.493,3.692c-3.347,0-6.442-1.346-8.493-3.692
	c-2.726-3.119-7.464-3.437-10.583-0.711s-3.437,7.464-0.711,10.583C241.113,206.797,248.325,210.012,256,210.012z"/>
<path d="M40.228,512h118.604c4.371,0,8.489-1.103,12.093-3.042c1.367,1.842,3.551,3.042,6.021,3.042h158.108
	c2.47,0,4.654-1.199,6.021-3.042c3.604,1.939,7.722,3.042,12.093,3.042h118.604c14.123,0,25.613-11.49,25.613-25.614v-14.61
	c6.076-77.309-23.468-117.895-37.189-132.332c10.938-10.075,19.507-21.84,25.639-35.297c7.665-16.826,11.551-36.442,11.551-58.305
	c0-40.671-6.128-81.952-22.432-119.438c-13.119-30.128-31.91-55.442-55.851-75.239c-3.191-2.64-7.919-2.192-10.559,1
	c-2.64,3.192-2.192,7.919,1,10.559c18.143,15.002,33.101,33.478,44.608,55.068c-1.727-0.571-3.473-1.132-5.231-1.686
	c-8.656-2.732-17.406-5.172-26.21-7.378c-17.769-4.454-35.731-7.668-53.79-10.668c-0.689-0.113-1.684-1.863-2.163-2.381
	c-26.175-28.257-63.659-44.935-104.475-46.492c-4.196-0.16-8.388,0.001-12.585,0.001c-40.885,1.564-78.427,18.305-104.607,46.658
	c-0.327,0.352-1.548,2.136-2.014,2.214c-18.14,2.757-36.181,6.247-53.98,10.713c-10.52,2.64-20.961,5.619-31.26,9.022
	C93.641,50.453,161.758,15,256.001,15c51.235,0,95.04,10.547,130.195,31.349c3.564,2.109,8.166,0.929,10.274-2.635
	c2.109-3.565,0.93-8.165-2.635-10.274C356.335,11.251,309.961,0,256.001,0c-53.829,0-100.109,11.192-137.553,33.266
	c-36.821,21.706-64.377,53.436-81.872,94.233l-0.199,0.452c-0.005,0.011-0.007,0.023-0.012,0.034
	c-0.008,0.019-0.019,0.036-0.027,0.055c-11.773,27.618-18.835,59.313-20.991,94.207c-0.484,7.832-0.729,15.77-0.729,23.595
	c0,20.102,3.294,40.542,11.814,58.872c6.109,13.216,14.592,24.792,25.376,34.727c-13.72,14.433-43.27,55.019-37.193,132.335v14.61
	C14.615,500.51,26.105,512,40.228,512z M169.445,486.386c0,5.853-4.761,10.614-10.614,10.614h-11.397
	c-0.538-18.704-2.799-38.424-2.908-39.362c-0.476-4.114-4.196-7.064-8.313-6.588c-4.115,0.476-7.064,4.198-6.588,8.313
	c0.026,0.221,2.25,19.617,2.801,37.638H107.03v-38.5c0-4.142-3.358-7.5-7.5-7.5s-7.5,3.358-7.5,7.5V497H66.632
	c0.551-18.009,2.775-37.417,2.801-37.638c0.476-4.114-2.474-7.836-6.588-8.312c-4.112-0.474-7.836,2.474-8.312,6.588
	c-0.109,0.939-2.369,20.659-2.908,39.362H40.228c-5.852,0-10.613-4.761-10.613-10.614v-14.879c0-21.844,17.771-39.615,39.615-39.615
	h60.601c17.065,0,31.645,10.847,37.207,26.008c1.557,4.245,2.408,8.829,2.408,13.607v14.879H169.445z M155.221,370.095
	c0-2.188,1.78-3.967,3.967-3.967h64.997c0.134,1.526,0.205,3.073,0.413,4.592c1.561,11.239,11.295,19.715,22.642,19.715h17.519
	c11.347,0,21.081-8.476,22.642-19.715c0.077-0.552,0.237-4.592,0.413-4.592h64.997c2.188,0,3.967,1.78,3.967,3.967v25.686
	c0,2.188-1.78,3.968-3.967,3.968h-17.757H176.946h-17.757c-2.188,0-3.967-1.78-3.967-3.968v-25.686H155.221z M218.19,288.595
	c-7.165-1.944-14.176-4.452-20.929-7.524c-0.028-0.013-0.057-0.026-0.085-0.038c-27.8-12.669-49.787-34.025-61.39-60.004
	c-5.903-13.24-9.047-27.687-9.047-42.19c0-11.835,2.015-23.473,5.992-34.645c1.049-0.358,2.107-0.711,3.175-1.059
	c38.505-12.54,79.752-16.644,120.094-16.644c41.368,0,83.944,4.271,123.27,17.704c3.978,11.171,5.992,22.81,5.992,34.645
	c0,14.476-3.143,28.937-9.031,42.156c-12.837,28.821-38.062,50.787-67.073,62.463c-6.178,2.486-12.539,4.519-19.01,6.091
	C266.594,295.274,241.583,294.944,218.19,288.595z M141.323,125.816c3.249-5.535,6.988-10.772,11.139-15.694
	c0.063-0.069,0.131-0.134,0.192-0.206c25.31-29.865,64.563-45.86,103.346-45.86c34.29,0,68.74,12.34,93.902,35.913
	c0.02,0.019,0.041,0.038,0.061,0.057c7.901,7.415,15.132,16.28,20.715,25.791c-0.057-0.016-0.116-0.031-0.173-0.047
	C333.404,115.272,294.46,111.49,256,111.49c-38.439,0-77.424,3.8-114.504,14.279C141.439,125.786,141.38,125.8,141.323,125.816z
	 M404.667,202.706c26.1,6.424,52.278,13.533,76.812,24.695c0.153,0.07,0.3,0.141,0.453,0.211c0.302,6.08,0.454,12.193,0.454,18.23
	c0,16.819-2.501,32.052-7.444,45.394c-0.064-0.026-0.132-0.051-0.196-0.076c-4.001-1.597-8.197-2.821-12.13-4.569
	c-17.25-6.138-34.923-11.011-52.785-15.01c-14.451-3.237-29.031-5.871-43.678-8.046c-0.245-0.036-0.487-0.076-0.732-0.112
	c11.227-11.749,19.973-25.171,25.9-39.597c2.96-7.205,5.27-14.684,6.738-22.337c0.002-0.01,0.005-0.021,0.007-0.032
	C398.168,201.176,401.483,201.922,404.667,202.706z M272.521,368.812c-0.324,3.681-4.129,6.623-7.761,6.623c0,0-17.501,0-17.519,0
	c-3.775,0-7.167-2.898-7.761-6.623l-5.423-61.688c0.027,0.004,0.054,0.006,0.08,0.01c7.235,0.993,14.56,1.489,21.864,1.489
	c7.305,0,14.625-0.5,21.863-1.488c0.027-0.004,0.054-0.006,0.081-0.01C277.944,307.124,272.522,368.797,272.521,368.812z
	 M280.54,497h-49.08v-53.014h49.08V497z M327.554,497H295.54v-60.514c0-4.142-3.358-7.5-7.5-7.5h-64.08c-4.142,0-7.5,3.358-7.5,7.5
	V497h-32.014v-10.613v-71.639h143.108L327.554,497L327.554,497z M482.385,486.386c0,5.853-4.761,10.614-10.613,10.614h-11.397
	c-0.538-18.704-2.799-38.424-2.908-39.362c-0.476-4.114-4.194-7.064-8.313-6.588c-4.115,0.476-7.064,4.198-6.588,8.313
	c0.026,0.221,2.25,19.617,2.801,37.638H419.97v-38.5c0-4.142-3.358-7.5-7.5-7.5s-7.5,3.358-7.5,7.5V497h-25.397
	c0.551-18.009,2.775-37.417,2.801-37.638c0.476-4.114-2.474-7.836-6.588-8.312c-4.117-0.474-7.836,2.474-8.312,6.588
	c-0.109,0.939-2.369,20.659-2.908,39.362h-11.397c-5.853,0-10.614-4.761-10.614-10.614c0-5.622-0.234-11.299,0.052-16.914
	c1.063-20.901,18.402-37.58,39.564-37.58h60.601c21.844,0,39.615,17.771,39.615,39.615v14.879H482.385z M448.523,348.972
	c8.938,9.183,29.799,35.576,33.944,85.063c-0.492-0.521-1.003-1.026-1.515-1.527c-7.171-7.022-16.296-12.027-26.084-14.253
	c-3.965-0.902-8.031-1.363-12.098-1.363c0,0-60.539,0-60.601,0c-10.392,0-20.683,3.023-29.426,8.636
	c-3.709,2.381-7.155,5.222-10.189,8.42v-19.2h10.257c10.458,0,18.967-8.509,18.967-18.968v-17.405
	c12.71-2.228,25.296-5.31,37.479-9.581C423.113,363.937,436.55,357.52,448.523,348.972z M407.675,353.412
	c-0.039,0.015-0.079,0.029-0.118,0.043c-12.014,4.43-24.427,7.612-37.021,9.886c-2.754-7.208-9.997-12.214-17.724-12.214h-63.678
	c0,0,4.119-46.857,4.122-46.883c0.027-0.306,5.625-1.476,5.665-1.487c19.094-5.353,36.846-14.267,51.994-26.177
	c0.187,0.024,0.375,0.047,0.563,0.071c38.524,4.949,77.089,12.84,113.443,26.772c0.15,0.057,3.708,1.524,3.743,1.461
	C456.553,326.522,436.135,342.753,407.675,353.412z M477.497,209.347c-22.853-9.343-46.713-16.134-70.813-21.391
	c-2.13-0.465-6.601-1.403-6.679-1.419c0.005-0.072,0.256-5.203,0.256-7.699c0-22.402-6.543-44.446-18.381-63.429
	c15.918,2.835,31.718,6.313,47.318,10.566c11.456,3.124,22.776,6.71,33.894,10.885c8.997,22.005,14.895,46.768,17.586,73.809
	C479.621,210.223,478.561,209.782,477.497,209.347z M48.911,136.86c0.432-0.162,0.859-0.326,1.295-0.487
	c11.424-4.233,23.068-7.828,34.828-10.999c10.571-2.85,21.244-5.323,31.978-7.478c4.363-0.875,8.732-1.706,13.113-2.486
	c-3.971,6.367-7.397,13.081-10.167,20.126c-5.454,13.889-8.219,28.458-8.219,43.304c0,2.495,0.085,4.993,0.246,7.483
	c0.005,0.072,0.006,0.144,0.011,0.216c-0.077,0.016-0.153,0.033-0.23,0.048c-26.386,5.437-52.465,12.647-77.432,22.838
	c-1.005,0.41-2.009,0.822-3.009,1.245C34.015,183.627,39.913,158.864,48.911,136.86z M43.347,304.89
	c0.455-0.181,0.905-0.363,1.364-0.543c10.746-4.205,21.716-7.833,32.804-11.026c3.98-1.145,6.279-5.3,5.135-9.281
	c-1.146-3.98-5.297-6.278-9.281-5.135c-2.377,0.684-4.752,1.381-7.113,2.119c-1.174,0.359-29.402,9.647-29.194,10.211
	c-4.943-13.342-7.444-28.573-7.444-45.393c0-6.043,0.152-12.157,0.454-18.231c0.162-0.074,0.317-0.15,0.48-0.223
	c24.479-11.135,50.474-18.713,76.691-24.498c2.228-0.492,4.459-0.968,6.692-1.432c0.002,0.01,0.005,0.021,0.007,0.031
	c4.661,23.304,16.251,44.784,32.642,61.934c-2.837,0.416-5.668,0.865-8.5,1.309c-11.886,1.902-23.701,4.168-35.459,6.743
	c-3.946,0.88-6.571,4.992-5.688,8.952c0.878,3.939,5.028,6.562,8.952,5.689c17.429-3.878,35.06-6.947,52.77-9.216
	c0.812-0.106,1.626-0.21,2.44-0.313c15.117,11.884,32.825,20.783,51.872,26.139c0.103,0.029,3.946,1.079,5.775,1.518l1.349,15.344
	l2.773,31.541c0,0-63.672,0-63.678,0c-6.23,0-12.259,3.257-15.746,8.407c-0.197,0.293-2.034,3.797-1.978,3.807
	c-10.545-1.903-20.991-4.413-31.155-7.823C78.725,344.947,56.288,328.01,43.347,304.89z M45.902,374.01
	c6.476-12.501,13.364-20.679,17.587-25.029c6.808,4.859,14.366,9.207,22.616,13.058c8.472,3.955,17.274,7.188,26.233,9.851
	c2.444,0.727,27.882,6.344,27.882,6.484v17.406c0,10.459,8.509,18.968,18.967,18.968h10.257v19.2
	c-10.202-10.752-24.79-17.057-39.616-17.057c-0.001,0-60.601,0-60.601,0c-12.101,0-24.07,4.143-33.595,11.602
	c-2.15,1.684-4.194,3.526-6.073,5.51C31.868,406.833,39.148,387.049,45.902,374.01z"/>
<g>
</g>
<g>
</g>
<g>
</g>
<g>
</g>
<g>
</g>
<g>
</g>
<g>
</g>
<g>
</g>
<g>
</g>
<g>
</g>
<g>
</g>
<g>
</g>
<g>
</g>
<g>
</g>
<g>
</g>
</svg>
