<?xml version="1.0" encoding="iso-8859-1"?>
<!-- Generator: Adobe Illustrator 19.0.0, SVG Export Plug-In . SVG Version: 6.00 Build 0)  -->
<svg version="1.1" id="Capa_1" xmlns="http://www.w3.org/2000/svg" xmlns:xlink="http://www.w3.org/1999/xlink" x="0px" y="0px"
	 viewBox="0 0 512 512" style="enable-background:new 0 0 512 512;" xml:space="preserve">
<path style="fill:#E6E9ED;" d="M379.357,355.25h-65.02c0.185,1.547-0.03,3.147-0.706,4.403l-25.323,47.076
	c-1.303,2.422-3.744,2.623-5.426,0.447l-20.697-26.778l-2.429,2.133c-2.066,1.814-5.448,1.814-7.514,0l-2.428-2.132l-20.698,26.777
	c-1.682,2.176-4.151,1.989-5.487-0.414l-26.201-47.143c-0.694-1.249-0.915-2.838-0.725-4.37h-64.061c-8.25,0-15,6.75-15,15V494.5
	c0,5.5,4.5,10,10,10h256.715c5.5,0,10-4.5,10-10V370.25C394.357,362,387.607,355.25,379.357,355.25z"/>
<g style="opacity:0.15;">
	<path style="fill:#3D0072;" d="M146.285,494.5V370.25c0-8.25,6.75-15,15-15h-28.643c-8.25,0-15,6.75-15,15V494.5
		c0,5.5,4.5,10,10,10h28.643C150.785,504.5,146.285,500,146.285,494.5z"/>
</g>
<g>
	<rect x="156" y="355.25" style="fill:#FFC502;" width="27" height="87.75"/>
	<rect x="329" y="355.25" style="fill:#FFC502;" width="27" height="87.75"/>
</g>
<g>
	<path style="fill:#C5CCD3;" d="M224.929,358.549c-2.066-1.814-3.757-5.549-3.757-8.299v-23.88
		c-1.297,0.657-2.476,1.491-3.271,2.411l-19.629,22.688c-1.799,2.08-2.178,5.748-0.842,8.151l26.201,47.143
		c1.336,2.403,3.805,2.59,5.487,0.414l20.698-26.777L224.929,358.549z"/>
	<path style="fill:#C5CCD3;" d="M312.802,351.406l-18.775-22.563c-0.773-0.928-1.925-1.772-3.198-2.438v23.844
		c0,2.75-1.69,6.484-3.757,8.299l-24.886,21.85l20.697,26.778c1.682,2.176,4.123,1.975,5.426-0.447l25.323-47.076
		C314.935,357.231,314.561,353.521,312.802,351.406z"/>
</g>
<path style="fill:#B2762F;" d="M256,332.178c-12.238,0-23.969-2.172-34.828-6.152v24.225c0,2.75,1.691,6.484,3.757,8.299
	l27.314,23.983c2.066,1.814,5.448,1.814,7.514,0l27.315-23.983c2.066-1.814,3.757-5.549,3.757-8.299v-24.225
	C279.969,330.006,268.238,332.178,256,332.178z"/>
<path style="opacity:0.15;fill:#490089;enable-background:new    ;" d="M250.344,350.25v-18.232
	c-10.199-0.563-19.997-2.629-29.172-5.992v24.225c0,2.75,1.691,6.484,3.757,8.299l27.314,23.983c2.066,1.814,5.448,1.814,7.514,0
	l10.829-9.508l-16.485-14.475C252.035,356.734,250.344,353,250.344,350.25z"/>
<g>
	<path style="fill:#B2762F;" d="M154.78,230.958v-40.98h-11.864c-13.06,0-23.646,10.587-23.646,23.646v25.701
		c0,13.059,10.586,23.645,23.646,23.645h17.036C156.6,252.908,154.78,242.146,154.78,230.958z"/>
	<path style="fill:#B2762F;" d="M369.084,189.977h-11.865v40.98c0,11.189-1.819,21.95-5.172,32.012h17.037
		c13.06,0,23.645-10.587,23.645-23.645v-25.701C392.729,200.564,382.144,189.977,369.084,189.977z"/>
</g>
<path style="fill:#D19546;" d="M256,131.402c-26.863,0-64.991,3.613-101.22,19.698v79.857c0,55.902,45.318,101.22,101.22,101.22
	s101.219-45.317,101.219-101.22V151.1C320.99,135.016,282.864,131.402,256,131.402z"/>
<path style="opacity:0.15;fill:#490089;enable-background:new    ;" d="M183.561,230.958v-90.142
	c-9.566,2.666-19.239,6.047-28.781,10.284v79.857c0,55.902,45.318,101.22,101.22,101.22c4.887,0,9.689-0.354,14.391-1.023
	C221.306,324.167,183.561,281.975,183.561,230.958z"/>
<path style="fill:#FFC502;" d="M372.747,158.113c-0.856,0-1.72-0.208-2.51-0.637c-39.874-21.55-84.13-26.074-114.237-26.074
	c-30.106,0-74.364,4.525-114.237,26.074c-0.792,0.428-1.655,0.637-2.512,0.637c-1.369,0-2.722-0.532-3.739-1.549
	c-1.652-1.652-2.023-4.194-0.911-6.251c19.159-35.421,62.272-54.93,121.399-54.93c59.126,0,102.239,19.509,121.398,54.931
	c1.111,2.057,0.741,4.599-0.912,6.251C375.47,157.581,374.117,158.113,372.747,158.113z"/>
<path style="fill:#5DC647;" d="M368.911,504.5V448c0-2.75-2.25-5-5-5H148.089c-2.75,0-5,2.25-5,5v56.5H368.911z"/>
<path style="fill:#FFFFFF;" d="M321,504.5V485c0-5.5-4.5-10-10-10H201c-5.5,0-10,4.5-10,10v19.5H321z"/>
<path style="fill:#5DC647;" d="M256,97.27c47.234,0,84.233,12.463,106.98,35.531V84.026c0-42.264-34.278-76.526-76.563-76.526
	h-60.833c-42.286,0-76.565,34.263-76.565,76.526V132.8C171.766,109.732,208.765,97.27,256,97.27z"/>
<path style="opacity:0.15;fill:#490089;enable-background:new    ;" d="M179,110.186v-26.16C179,41.763,213.279,7.5,255.565,7.5
	h-29.981c-42.286,0-76.565,34.263-76.565,76.526v46.888C157.222,122.596,167.276,115.657,179,110.186z"/>
<path style="fill:#FFC502;" d="M372.747,158.113c-0.856,0-1.72-0.208-2.51-0.637c-39.874-21.55-84.13-26.074-114.237-26.074
	c-30.106,0-74.364,4.525-114.237,26.074c-0.792,0.428-1.655,0.637-2.512,0.637c-1.369,0-2.722-0.532-3.739-1.549
	c-1.652-1.652-2.023-4.194-0.911-6.251c19.159-35.421,62.272-54.93,121.399-54.93c59.126,0,102.239,19.509,121.398,54.931
	c1.111,2.057,0.741,4.599-0.912,6.251C375.47,157.581,374.117,158.113,372.747,158.113z"/>
<ellipse style="fill:#FFFFFF;" cx="256" cy="53.936" rx="29.32" ry="18.566"/>
<path d="M247.266,209.977c-4.142,0-7.5,3.358-7.5,7.5v28.256c0,9.649,7.283,17.5,16.234,17.5h8.734c4.143,0,7.5-3.357,7.5-7.5
	s-3.357-7.5-7.5-7.5H256c-0.297,0-1.234-0.914-1.234-2.5v-28.256C254.766,213.335,251.408,209.977,247.266,209.977z"/>
<path d="M204.655,180.5c6.173,0,11.98,2.408,16.353,6.781c1.464,1.464,3.384,2.196,5.303,2.196c1.92,0,3.839-0.732,5.303-2.196
	c2.929-2.93,2.929-7.678,0-10.607c-7.206-7.205-16.78-11.174-26.959-11.174c-10.179,0-19.753,3.969-26.959,11.175
	c-2.929,2.929-2.928,7.678,0.001,10.606c2.93,2.928,7.678,2.929,10.607-0.001C192.676,182.908,198.483,180.5,204.655,180.5z"/>
<path d="M334.303,176.674c-7.206-7.205-16.78-11.174-26.96-11.174s-19.754,3.969-26.959,11.175
	c-2.929,2.929-2.929,7.678,0.001,10.606c2.928,2.928,7.677,2.929,10.607-0.001c4.372-4.372,10.179-6.78,16.352-6.78
	s11.98,2.408,16.353,6.781c1.465,1.464,3.385,2.196,5.304,2.196c1.919,0,3.839-0.732,5.304-2.196
	C337.232,184.352,337.232,179.604,334.303,176.674z"/>
<path d="M186.5,227.477c4.142,0,7.5-3.357,7.5-7.5c0-6.341,5.159-11.5,11.5-11.5s11.5,5.159,11.5,11.5c0,4.143,3.358,7.5,7.5,7.5
	s7.5-3.357,7.5-7.5c0-14.612-11.888-26.5-26.5-26.5s-26.5,11.888-26.5,26.5C179,224.12,182.358,227.477,186.5,227.477z"/>
<path d="M295,219.977c0-6.341,5.159-11.5,11.5-11.5s11.5,5.159,11.5,11.5c0,4.143,3.357,7.5,7.5,7.5s7.5-3.357,7.5-7.5
	c0-14.612-11.888-26.5-26.5-26.5s-26.5,11.888-26.5,26.5c0,4.143,3.357,7.5,7.5,7.5S295,224.12,295,219.977z"/>
<path d="M256,303.478c16.972,0,31.47-11.545,35.258-28.075c0.925-4.037-1.598-8.061-5.636-8.985
	c-4.035-0.922-8.061,1.598-8.985,5.636c-2.216,9.671-10.702,16.425-20.637,16.425c-9.934,0-18.42-6.754-20.636-16.425
	c-0.925-4.037-4.946-6.558-8.986-5.636c-4.038,0.925-6.561,4.948-5.635,8.985C224.531,291.933,239.029,303.478,256,303.478z"/>
<path d="M256,414.5c1.97,0,3.899-0.8,5.3-2.2c1.4-1.39,2.2-3.33,2.2-5.3c0-1.98-0.8-3.91-2.2-5.3c-1.4-1.4-3.33-2.2-5.3-2.2
	s-3.91,0.8-5.3,2.2c-1.4,1.39-2.2,3.319-2.2,5.3c0,1.97,0.8,3.91,2.2,5.3C252.09,413.7,254.03,414.5,256,414.5z"/>
<path d="M379.357,347.75h-59.952c-0.262-0.394-0.537-0.778-0.839-1.142l-14.907-17.914c4.681-2.288,9.217-4.915,13.57-7.888
	c3.421-2.336,4.3-7.002,1.964-10.423c-2.335-3.42-7.001-4.302-10.423-1.964c-15.576,10.636-33.824,16.258-52.771,16.258
	c-51.677,0-93.72-42.042-93.72-93.72v-74.915c33.694-13.937,68.714-17.141,93.72-17.141s60.029,3.204,93.719,17.139v74.917
	c0,18.171-5.204,35.792-15.051,50.958c-2.255,3.475-1.268,8.119,2.207,10.375c3.474,2.253,8.119,1.268,10.375-2.207
	c4.034-6.215,7.383-12.789,10.045-19.614h11.789c17.173,0,31.145-13.972,31.145-31.145v-25.701
	c0-17.174-13.972-31.146-31.145-31.146h-4.365v-19.429c0.647,0.339,1.297,0.671,1.941,1.02c1.862,1.011,3.967,1.545,6.087,1.545
	c3.416,0,6.627-1.33,9.041-3.744c3.969-3.966,4.877-10.184,2.207-15.124c-3.719-6.876-8.233-13.181-13.515-18.909v-43.81
	C370.48,37.694,332.77,0,286.417,0h-60.833c-46.354,0-84.065,37.694-84.065,84.026v43.865c-5.28,5.718-9.81,12.004-13.515,18.855
	c-2.669,4.936-1.762,11.154,2.205,15.121c2.415,2.415,5.626,3.745,9.042,3.745c2.113,0,4.215-0.532,6.078-1.539
	c0.648-0.351,1.301-0.685,1.952-1.025v19.429h-4.364c-17.174,0-31.146,13.972-31.146,31.146v25.701
	c0,17.174,13.972,31.145,31.146,31.145h11.813c9.938,25.377,29.139,46.146,53.436,58.101L192.6,346.562
	c-0.326,0.377-0.622,0.777-0.903,1.188h-59.054c-12.407,0-22.5,10.094-22.5,22.5V494.5c0,9.649,7.851,17.5,17.5,17.5h256.715
	c9.649,0,17.5-7.851,17.5-17.5V370.25C401.857,357.844,391.764,347.75,379.357,347.75z M369.084,197.477
	c8.902,0,16.145,7.243,16.145,16.146v25.701c0,8.902-7.242,16.145-16.145,16.145h-7.16c1.657-7.19,2.583-14.569,2.751-22.041h5.335
	c4.143,0,7.5-3.357,7.5-7.5s-3.357-7.5-7.5-7.5h-5.291v-20.951H369.084z M145.216,147.27
	c19.483-28.695,58.429-44.388,110.784-44.388c8.362,0,16.512,0.407,24.223,1.212c4.108,0.417,7.808-2.563,8.237-6.683
	c0.429-4.119-2.563-7.808-6.683-8.237c-8.225-0.857-16.897-1.292-25.777-1.292c-41.356,0-75.335,9.311-99.481,26.765V84.026
	C156.518,45.964,187.5,15,225.583,15h60.833c38.082,0,69.063,30.965,69.063,69.026v30.585c-8.664-6.25-18.627-11.485-29.888-15.642
	c-3.886-1.434-8.199,0.554-9.634,4.438c-1.435,3.886,0.553,8.199,4.439,9.634c20.581,7.598,36.153,19.097,46.397,34.235
	c-39.333-19.205-81.569-23.374-110.795-23.374C226.775,123.902,184.547,128.068,145.216,147.27z M142.916,255.47
	c-8.903,0-16.146-7.243-16.146-16.145v-25.701c0-8.902,7.243-16.146,16.146-16.146h4.364v20.951h-5.291c-4.142,0-7.5,3.357-7.5,7.5
	s3.358,7.5,7.5,7.5h5.336c0.169,7.562,1.112,14.933,2.757,22.041H142.916z M336.5,362.75h12v72.75h-12V362.75z M298.328,350.25
	v-4.512l8.551,10.275c0.021,0.091,0.033,0.211,0.03,0.305l-22.101,41.086l-12.381-16.019l19.592-17.201
	C295.734,360.923,298.328,355.193,298.328,350.25z M228.672,336.197c8.735,2.27,17.893,3.48,27.328,3.48
	c9.313,0,18.478-1.185,27.328-3.475v14.028c-0.031,0.684-0.727,2.22-1.205,2.682l-26.124,22.937l-26.108-22.924
	c-0.493-0.475-1.189-2.011-1.22-2.676L228.672,336.197L228.672,336.197z M204.141,356.147l9.531-11.016v5.118
	c0,4.943,2.594,10.673,6.309,13.935l19.592,17.202l-12.487,16.155l-22.954-41.302C204.133,356.21,204.136,356.178,204.141,356.147z
	 M190.5,362.75h0.116c0.085,0.172,0.165,0.346,0.258,0.514l26.201,47.143c2.014,3.624,5.515,5.788,9.365,5.788
	c3.296,0,6.435-1.615,8.612-4.431l16.366-21.173c1.447,0.523,2.996,0.801,4.583,0.801s3.137-0.278,4.584-0.801l16.364,21.172
	c2.173,2.811,5.3,4.423,8.581,4.423c3.888,0,7.396-2.207,9.385-5.903l25.323-47.076c0.08-0.149,0.147-0.304,0.222-0.456h1.041v72.75
	h-58.872c0.564-1.07,0.872-2.275,0.872-3.5c0-1.98-0.8-3.91-2.2-5.3c-1.39-1.4-3.32-2.2-5.3-2.2s-3.91,0.8-5.3,2.2
	c-1.4,1.39-2.2,3.319-2.2,5.3c0,1.225,0.308,2.43,0.872,3.5H190.5V362.75z M163.5,362.75h12v72.75h-12V362.75z M148.5,435.5h-0.411
	c-6.893,0-12.5,5.607-12.5,12.5v49h-7.946c-1.355,0-2.5-1.145-2.5-2.5V370.25c0-4.136,3.364-7.5,7.5-7.5H148.5V435.5z M361.411,497
	H328.5v-12c0-9.649-7.851-17.5-17.5-17.5h-54c-4.142,0-7.5,3.357-7.5,7.5s3.358,7.5,7.5,7.5h54c1.355,0,2.5,1.145,2.5,2.5v12h-115
	v-12c0-1.355,1.145-2.5,2.5-2.5h16c4.142,0,7.5-3.357,7.5-7.5s-3.358-7.5-7.5-7.5h-16c-9.649,0-17.5,7.851-17.5,17.5v12h-32.911
	v-46.5h210.822V497z M386.857,494.5c0,1.355-1.145,2.5-2.5,2.5h-7.946v-49c0-6.893-5.607-12.5-12.5-12.5H363.5v-72.75h15.857
	c4.136,0,7.5,3.364,7.5,7.5V494.5z"/>
<path d="M256,27.869c-20.644,0-36.815,11.45-36.815,26.066S235.356,80.001,256,80.001c20.645,0,36.815-11.45,36.815-26.066
	S276.645,27.869,256,27.869z M256,65.002c-12.486,0-21.815-5.843-21.815-11.066c0-5.224,9.329-11.066,21.815-11.066
	s21.815,5.843,21.815,11.066S268.486,65.002,256,65.002z"/>
<path d="M168,472.5c1.98,0,3.91-0.8,5.3-2.2c1.4-1.39,2.2-3.33,2.2-5.3c0-1.971-0.8-3.91-2.2-5.3c-1.39-1.4-3.32-2.2-5.3-2.2
	c-1.97,0-3.91,0.8-5.3,2.2c-1.4,1.39-2.2,3.329-2.2,5.3c0,1.97,0.8,3.91,2.2,5.3C164.09,471.7,166.03,472.5,168,472.5z"/>
<path d="M342,472.5c1.97,0,3.899-0.8,5.3-2.2c1.4-1.39,2.2-3.33,2.2-5.3c0-1.971-0.8-3.91-2.2-5.3c-1.39-1.4-3.33-2.2-5.3-2.2
	c-1.98,0-3.91,0.8-5.3,2.2c-1.4,1.39-2.2,3.319-2.2,5.3c0,1.979,0.8,3.91,2.2,5.3C338.09,471.7,340.03,472.5,342,472.5z"/>
<g>
</g>
<g>
</g>
<g>
</g>
<g>
</g>
<g>
</g>
<g>
</g>
<g>
</g>
<g>
</g>
<g>
</g>
<g>
</g>
<g>
</g>
<g>
</g>
<g>
</g>
<g>
</g>
<g>
</g>
</svg>
