<?xml version="1.0" encoding="iso-8859-1"?>
<!-- Generator: Adobe Illustrator 19.0.0, SVG Export Plug-In . SVG Version: 6.00 Build 0)  -->
<svg version="1.1" id="Capa_1" xmlns="http://www.w3.org/2000/svg" xmlns:xlink="http://www.w3.org/1999/xlink" x="0px" y="0px"
	 viewBox="0 0 512 512" style="enable-background:new 0 0 512 512;" xml:space="preserve">
<path style="fill:#312F56;" d="M400.357,355.25h-32.337c-1.839,0-3.529-1.009-4.401-2.628c-0.872-1.618-0.786-3.585,0.225-5.12
	c2.719-4.133,4.156-8.975,4.156-14.002c0-14.06-11.44-25.5-25.5-25.5h-4.411c-18.386,25.441-48.302,42-82.089,42
	s-63.703-16.559-82.09-42h-4.41c-14.061,0-25.5,11.44-25.5,25.5c0,5.027,1.438,9.869,4.156,14.002
	c1.011,1.535,1.097,3.502,0.225,5.12c-0.872,1.619-2.563,2.628-4.401,2.628h-32.337c-8.271,0-15,6.728-15,15V494.5
	c0,5.514,4.486,10,10,10h298.715c5.514,0,10-4.486,10-10V370.25C415.357,361.978,408.63,355.25,400.357,355.25z"/>
<g style="opacity:0.15;">
	<path style="fill:#030007;" d="M125.286,494.5V370.25c0-8.272,6.729-15,15-15h-28.643c-8.271,0-15,6.728-15,15V494.5
		c0,5.514,4.486,10,10,10h28.643C129.771,504.5,125.286,500.014,125.286,494.5z"/>
</g>
<g>
	<path style="fill:#135693;" d="M256,384c-4.398,0-8.506-1.236-12-3.377V504.5h24V380.623C264.507,382.764,260.398,384,256,384z"/>
	<path style="fill:#135693;" d="M256,350c-6.532,0-12.917-0.626-19.105-1.809c-2.459,3.662-3.895,8.067-3.895,12.809
		c0,12.703,10.298,23,23,23c12.702,0,23-10.297,23-23c0-4.742-1.435-9.147-3.896-12.809C268.917,349.374,262.533,350,256,350z"/>
</g>
<g>
	<path style="fill:#FFB98A;" d="M122.379,190.775v25.117c0,12.762,10.346,23.107,23.108,23.107h9.294v-67.355h-22.257
		C126.402,175.801,122.379,182.818,122.379,190.775z"/>
	<path style="fill:#FFB98A;" d="M379.477,171.645h-22.258V239h9.295c12.763,0,23.107-10.346,23.107-23.107v-25.117
		C389.622,182.818,385.599,175.801,379.477,171.645z"/>
</g>
<path style="fill:#FFC7A9;" d="M154.781,171.645v46.136c0,39.19,22.275,73.177,54.854,89.995c-0.409-2.425-0.634-4.912-0.634-7.453
	c0-21.451,15.181-39.355,35.385-43.563c1.494,3.65,5.085,6.24,9.256,6.24h5.002c5.5,0,10-2.38,10-5.288c0-0.245,0-0.479,0-0.714
	C288.33,261.59,303,279.237,303,300.322c0,2.541-0.225,5.028-0.634,7.453c32.578-16.818,54.853-50.805,54.853-89.995v-46.136
	H154.781V171.645z"/>
<path style="opacity:0.15;fill:#490089;enable-background:new    ;" d="M209.635,307.775c-0.409-2.425-0.634-4.912-0.634-7.453
	c0-2.584,0.232-5.111,0.655-7.575c-11.65-12.91-20.033-28.828-23.816-46.46c-3.147,0.538-6.157,0.84-8.839,0.84h-2.22
	c-8.499,0-15.778-5.381-18.654-12.898C161.374,266.332,181.714,293.361,209.635,307.775z"/>
<path style="fill:#D2957D;" d="M302.367,307.775c0.409-2.425,0.634-4.912,0.634-7.453c0-21.085-14.671-38.732-34.357-43.324
	c0,0.235,0,0.469,0,0.714c0,2.908-4.5,5.288-10,5.288h-5.002c-4.171,0-7.762-2.59-9.256-6.24
	c-20.204,4.207-35.385,22.111-35.385,43.562c0,2.541,0.225,5.028,0.634,7.453c-32.578-16.818-54.854-50.805-54.854-89.995v31
	C154.781,304.683,200.1,350,256,350s101.219-45.317,101.219-101.22v-31C357.219,256.971,334.945,290.957,302.367,307.775z"/>
<path style="fill:#046699;" d="M154.781,171.645v55.482c0,11,9,20,20,20h2.22c11,0,27.48-5.004,36.623-11.121l25.754-17.229
	c9.143-6.117,24.104-6.117,33.246,0l25.753,17.229c9.143,6.117,25.623,11.121,36.623,11.121h2.22c11,0,20-9,20-20v-55.482H154.781z"
	/>
<g>
	<path style="fill:#312F56;" d="M277.419,27.873c0.977-1.91,1.538-4.068,1.538-6.361c0-7.738-6.272-14.012-14.011-14.012h-17.893
		c-7.738,0-14.01,6.273-14.01,14.012c0,2.293,0.562,4.451,1.538,6.361H277.419z"/>
	<path style="fill:#312F56;" d="M370.523,133v-19.856c0-47.093-38.178-85.271-85.271-85.271H226.75
		c-47.093,0-85.27,38.178-85.27,85.271V133H370.523z"/>
</g>
<path style="opacity:0.15;fill:#030007;enable-background:new    ;" d="M170.958,133v-19.856c0-47.093,38.178-85.271,85.271-85.271
	h-29.479c-47.093,0-85.27,38.178-85.27,85.271V133H170.958z"/>
<path style="fill:#135693;" d="M395.844,166.645c0,2.75-2.25,5-5,5H121.158c-2.75,0-5-2.25-5-5v-29.661c0-2.75,2.25-5,5-5h269.686
	c2.75,0,5,2.25,5,5V166.645L395.844,166.645z"/>
<g style="opacity:0.15;">
	<path style="fill:#3D0072;" d="M145.314,166.645v-29.661c0-2.75,2.25-5,5-5h-29.157c-2.75,0-5,2.25-5,5v29.661c0,2.75,2.25,5,5,5
		h29.157C147.564,171.645,145.314,169.395,145.314,166.645z"/>
</g>
<g>
	<path style="fill:#FFFFFF;" d="M174.857,200.1c-3.226-4.455-1.364-8.1,4.136-8.1h53.366c5.5,0,6.205,2.419,1.567,5.375
		l-33.333,21.25c-4.638,2.956-11.071,1.73-14.297-2.725L174.857,200.1z"/>
	<path style="fill:#FFFFFF;" d="M338.503,200.1c3.225-4.455,1.364-8.1-4.136-8.1H281c-5.5,0-6.205,2.419-1.567,5.375l33.333,21.25
		c4.638,2.956,11.071,1.73,14.297-2.725L338.503,200.1z"/>
</g>
<g>
	<path style="fill:#135693;" d="M383,458c0,2.75-2.25,5-5,5h-76c-2.75,0-5-2.25-5-5v-11c0-2.75,2.25-5,5-5h76c2.75,0,5,2.25,5,5V458
		z"/>
	<path style="fill:#135693;" d="M218.001,458c0,2.75-2.25,5-5,5h-76c-2.75,0-5-2.25-5-5v-11c0-2.75,2.25-5,5-5h76c2.75,0,5,2.25,5,5
		V458z"/>
</g>
<path d="M400.357,347.75h-28.063c2.107-4.41,3.205-9.263,3.205-14.25c0-15.263-10.418-28.129-24.515-31.882
	c8.741-15.652,13.733-33.672,13.733-52.838v-2.28h1.795c12.256,0,23.3-7.278,28.135-18.541c1.634-3.807-0.127-8.217-3.933-9.851
	c-3.807-1.634-8.217,0.127-9.851,3.933c-2.467,5.746-8.101,9.459-14.352,9.459h-1.795v-21.211h5.291c4.143,0,7.5-3.357,7.5-7.5
	s-3.357-7.5-7.5-7.5h-5.291v-16.145h12.166c3.204,2.86,5.236,7.008,5.236,11.631c0,4.143,3.357,7.5,7.5,7.5s7.5-3.357,7.5-7.5
	c0-4.336-0.914-8.46-2.549-12.199c5.076-1.591,8.771-6.338,8.771-11.932v-29.661c0-6.893-5.607-12.5-12.5-12.5h-12.821v-11.34
	c0-50.771-40.995-92.138-91.621-92.756C285.81,9.05,276.429,0,264.947,0h-17.893c-11.481,0-20.862,9.05-21.453,20.388
	c-50.626,0.618-91.622,41.985-91.622,92.756v11.34h-12.821c-6.893,0-12.5,5.607-12.5,12.5v29.661c0,5.594,3.693,10.34,8.77,11.931
	c-1.635,3.74-2.549,7.864-2.549,12.2v25.117c0,16.877,13.73,30.607,30.608,30.607h1.794v2.28c0,19.166,4.992,37.185,13.733,52.838
	c-14.096,3.753-24.514,16.619-24.514,31.882c0,4.986,1.099,9.839,3.205,14.25h-28.062c-12.406,0-22.5,10.094-22.5,22.5V494.5
	c0,9.649,7.851,17.5,17.5,17.5h298.715c9.649,0,17.5-7.851,17.5-17.5V370.25C422.857,357.844,412.765,347.75,400.357,347.75z
	 M271.5,361c0,8.547-6.953,15.5-15.5,15.5c-8.547,0-15.5-6.953-15.5-15.5c0-1.572,0.252-3.084,0.691-4.513
	c4.844,0.663,9.786,1.013,14.809,1.013c5.022,0,9.965-0.35,14.809-1.013C271.248,357.916,271.5,359.428,271.5,361z M256,342.5
	c-39.809,0-73.9-24.951-87.46-60.033c9.729,13.139,22.493,24.147,37.653,31.973c2.524,1.303,5.569,1.068,7.863-0.608
	c2.295-1.675,3.445-4.503,2.973-7.305c-0.352-2.081-0.529-4.169-0.529-6.205c0-16.129,10.378-29.873,24.804-34.925
	c3.166,3.151,7.527,5.103,12.337,5.103h5.002c5.593,0,10.413-1.729,13.571-4.532c13.63,5.46,23.286,18.796,23.286,34.354
	c0,2.036-0.178,4.124-0.529,6.205c-0.473,2.802,0.678,5.63,2.973,7.305s5.339,1.911,7.863,0.608
	c15.159-7.826,27.924-18.833,37.652-31.972C329.899,317.55,295.809,342.5,256,342.5z M276.063,251.383
	c-0.509-3.648-3.632-6.459-7.42-6.459c-4.143,0-7.5,3.357-7.5,7.5v2.777c-0.615,0.161-1.454,0.299-2.5,0.299h-5.002
	c-1.355,0-2.5-1.145-2.5-2.5v-30.871c1.562-0.283,3.194-0.439,4.859-0.439c4.759,0,9.298,1.211,12.453,3.321l25.752,17.229
	c10.382,6.946,28.301,12.388,40.794,12.388h2.22c1.781,0,3.521-0.176,5.21-0.502c-6.71,16-17.805,29.952-32.275,40.172
	C307.852,274.429,294.304,257.947,276.063,251.383z M236.142,251.313c-18.343,6.516-31.983,23.045-34.294,42.984
	c-14.471-10.22-25.566-24.172-32.276-40.172c1.689,0.326,3.429,0.502,5.21,0.502h2.219c12.493,0,30.412-5.441,40.793-12.388
	l18.348-12.273L236.142,251.313L236.142,251.313z M349.719,217.78c0,4.9-0.38,9.736-1.113,14.476
	c-1.962,4.339-6.323,7.371-11.387,7.371H335c-9.441,0-24.606-4.604-32.453-9.854l-25.752-17.229
	c-5.643-3.775-13.027-5.854-20.794-5.854c-7.767,0-15.151,2.079-20.793,5.854l-25.755,17.229c-7.846,5.25-23.011,9.854-32.452,9.854
	h-2.22c-5.064,0-9.425-3.032-11.387-7.371c-0.733-4.739-1.113-9.575-1.113-14.476v-38.636h187.439V217.78L349.719,217.78z
	 M363.023,113.144v11.34h-19.225v-11.34c0-24.303-6.702-47.245-18.871-64.601c-0.954-1.36-1.94-2.66-2.943-3.928
	C346.391,57.75,363.023,83.539,363.023,113.144z M328.797,113.144v11.34h-32.992v-11.34c0-23.445-2.602-45.582-7.326-62.331
	c-1.621-5.747-3.441-10.688-5.455-14.814C308.791,40.785,328.797,73.544,328.797,113.144z M247.055,15h17.893
	c3.201,0,5.864,2.324,6.404,5.373h-30.7C241.191,17.324,243.853,15,247.055,15z M228.978,35.998
	c-2.014,4.127-3.834,9.067-5.455,14.814c-4.725,16.749-7.326,38.886-7.326,62.331v11.34h-32.992v-11.34
	C183.204,73.544,203.211,40.785,228.978,35.998z M148.98,113.144c0-29.604,16.632-55.394,41.039-68.528
	c-1.003,1.268-1.989,2.567-2.943,3.928c-12.169,17.355-18.871,40.298-18.871,64.601v11.34H148.98V113.144z M123.658,139.483h109.343
	c4.143,0,7.5-3.357,7.5-7.5c0-4.143-3.357-7.5-7.5-7.5h-1.805v-11.34c0-21.033,2.205-41.002,6.21-56.229
	c4.365-16.597,9.26-21.171,10.411-21.541h16.367c1.151,0.37,6.046,4.944,10.411,21.541c4.005,15.228,6.21,35.196,6.21,56.229v11.34
	H277c-4.143,0-7.5,3.357-7.5,7.5c0,4.143,3.357,7.5,7.5,7.5h111.343v24.661H123.658V139.483z M145.486,231.5
	c-8.606,0-15.608-7.001-15.608-15.607v-25.117c0-4.623,2.032-8.771,5.236-11.631h12.166v16.145h-5.291c-4.143,0-7.5,3.357-7.5,7.5
	s3.357,7.5,7.5,7.5h5.291v16.838v4.373h-1.794V231.5z M104.144,494.5V370.25c0-4.136,3.364-7.5,7.5-7.5h32.337
	c4.604,0,8.821-2.518,11.004-6.57c2.184-4.052,1.968-8.958-0.561-12.8c-1.911-2.905-2.922-6.322-2.922-9.88c0-9.925,8.075-18,18-18
	h0.721c14.059,18.033,33.666,31.538,56.236,37.919c-0.623,2.425-0.957,4.964-0.957,7.581c0,9.407,4.283,17.832,11,23.431V422
	c0,4.143,3.357,7.5,7.5,7.5s7.5-3.357,7.5-7.5v-30.834c1.469,0.218,2.971,0.334,4.5,0.334s3.031-0.116,4.5-0.334V497h-9v-34
	c0-4.143-3.357-7.5-7.5-7.5s-7.5,3.357-7.5,7.5v34H106.644C105.265,497,104.144,495.879,104.144,494.5z M407.857,494.5
	c0,1.379-1.121,2.5-2.5,2.5H275.5V384.431c6.717-5.599,11-14.023,11-23.431c0-2.617-0.334-5.156-0.957-7.581
	c22.57-6.381,42.178-19.886,56.235-37.919h0.722c9.925,0,18,8.075,18,18c0,3.558-1.011,6.975-2.921,9.878
	c-2.53,3.844-2.746,8.75-0.564,12.801c2.184,4.054,6.4,6.571,11.005,6.571h32.337c4.136,0,7.5,3.364,7.5,7.5L407.857,494.5
	L407.857,494.5z"/>
<path d="M168.783,204.498l11.439,15.801c3.372,4.657,8.889,7.439,14.757,7.439c3.449,0,6.785-0.964,9.646-2.788l33.333-21.25
	c7.154-4.56,6.947-9.613,6.187-12.22c-0.76-2.607-3.302-6.98-11.785-6.98h-53.366c-5.54,0-9.921,2.357-12.02,6.469
	C164.874,195.08,165.535,200.011,168.783,204.498z M216.643,199.5l-20.079,12.801c-0.566,0.36-1.174,0.437-1.584,0.437
	c-1.057,0-2.056-0.474-2.606-1.235l-8.689-12.002L216.643,199.5L216.643,199.5z"/>
<path d="M275.401,203.699l33.333,21.25c2.86,1.823,6.196,2.787,9.646,2.788h0.001c5.867,0,11.384-2.781,14.756-7.439l11.439-15.801
	c3.248-4.487,3.908-9.418,1.809-13.529s-6.479-6.469-12.02-6.469H281c-8.483,0-11.025,4.373-11.785,6.98
	C268.455,194.086,268.247,199.14,275.401,203.699z M329.677,199.5l-8.689,12.002c-0.552,0.762-1.55,1.235-2.605,1.235
	c-0.411,0-1.018-0.076-1.585-0.437l-20.08-12.8H329.677z"/>
<path d="M272,284.5h-32c-4.143,0-7.5,3.357-7.5,7.5s3.357,7.5,7.5,7.5h32c4.143,0,7.5-3.357,7.5-7.5S276.143,284.5,272,284.5z"/>
<path d="M378,434.5h-76c-6.893,0-12.5,5.607-12.5,12.5v11c0,6.893,5.607,12.5,12.5,12.5h76c6.893,0,12.5-5.607,12.5-12.5v-11
	C390.5,440.107,384.893,434.5,378,434.5z M375.5,455.5h-71v-6h71V455.5z"/>
<path d="M213.001,434.5h-76c-6.893,0-12.5,5.607-12.5,12.5v11c0,6.893,5.607,12.5,12.5,12.5h76c6.893,0,12.5-5.607,12.5-12.5v-11
	C225.501,440.107,219.894,434.5,213.001,434.5z M210.501,455.5h-71v-6h71V455.5z"/>
<g>
</g>
<g>
</g>
<g>
</g>
<g>
</g>
<g>
</g>
<g>
</g>
<g>
</g>
<g>
</g>
<g>
</g>
<g>
</g>
<g>
</g>
<g>
</g>
<g>
</g>
<g>
</g>
<g>
</g>
</svg>
