<?xml version="1.0" encoding="iso-8859-1"?>
<!-- Generator: Adobe Illustrator 19.0.0, SVG Export Plug-In . SVG Version: 6.00 Build 0)  -->
<svg version="1.1" id="Capa_1" xmlns="http://www.w3.org/2000/svg" xmlns:xlink="http://www.w3.org/1999/xlink" x="0px" y="0px"
	 viewBox="0 0 511.999 511.999" style="enable-background:new 0 0 511.999 511.999;" xml:space="preserve">
<path style="fill:#B2762F;" d="M256.001,48.915c17.933,0,34.772,4.652,49.38,12.801c3.383-5.435,5.348-11.843,5.348-18.717
	c0-19.606-15.893-35.5-35.5-35.5h-38.457c-19.607,0-35.5,15.894-35.5,35.5c0,6.874,1.964,13.283,5.348,18.718
	C221.227,53.567,238.067,48.915,256.001,48.915z"/>
<path style="opacity:0.15;fill:#490089;enable-background:new    ;" d="M231.159,51.979c-0.751-2.869-1.159-5.875-1.159-8.98
	c0-19.606,15.894-35.5,35.5-35.5h-28.729c-19.607,0-35.5,15.894-35.5,35.5c0,6.874,1.964,13.283,5.348,18.718
	C214.245,57.463,222.477,54.161,231.159,51.979z"/>
<g>
	<path style="fill:#D19546;" d="M256.001,48.915c8.431,0,16.618,1.033,24.447,2.969c0.335-2.842,0.521-5.813,0.521-8.885
		c0-19.606-7.252-35.5-16.198-35.5h-17.544c-8.946,0-16.197,15.894-16.197,35.5c0,3.071,0.186,6.044,0.521,8.885
		C239.382,49.948,247.57,48.915,256.001,48.915z"/>
	<path style="fill:#D19546;" d="M256.001,48.915c-55.902,0-101.22,45.145-101.22,100.834v24.385
		c0.042-55.846,45.343-78.361,101.219-78.361c55.901,0,101.22,22.535,101.22,78.438v-24.462
		C357.22,94.06,311.903,48.915,256.001,48.915z"/>
</g>
<path style="opacity:0.15;fill:#490089;enable-background:new    ;" d="M191.998,109.417c13.781-31.417,43.16-54.486,78.393-59.482
	c-4.701-0.667-9.504-1.02-14.39-1.02c-55.902,0-101.22,45.145-101.22,100.834v24.385
	C154.805,142.555,169.303,121.636,191.998,109.417z"/>
<path style="fill:#B2762F;" d="M256,95.772c21.896,0,42.166,3.459,58.727,11.023c-10.385-34.201-32.769-57.881-58.726-57.881
	c-25.956,0-48.341,23.679-58.726,57.88C213.836,99.23,234.105,95.772,256,95.772z"/>
<path style="fill:#D19546;" d="M256,95.772c6.628,0,13.103,0.321,19.376,0.973c-4.015-28.701-11.189-47.83-19.375-47.83
	c-8.187,0-15.361,19.128-19.376,47.83C242.896,96.094,249.373,95.772,256,95.772z"/>
<path style="fill:#FFB98A;" d="M341.877,360.999h-53.641c-2.762,0-5-2.238-5-5v-27.534c-8.666,2.416-17.8,3.712-27.236,3.712
	c-9.436,0-18.569-1.296-27.235-3.711v27.533c0,2.762-2.238,5-5,5h-53.642c-16.542,0-30,13.458-30,30v108.5c0,2.757,2.243,5,5,5
	h221.754c2.757,0,5-2.243,5-5v-108.5C371.877,374.457,358.419,360.999,341.877,360.999z"/>
<path style="fill:#C0272D;" d="M200.477,432.343c8.793,0,17.142,1.889,24.675,5.27L196.5,360.999h-24v78.227
	C180.865,434.838,190.378,432.343,200.477,432.343z"/>
<path style="opacity:0.15;fill:#490089;enable-background:new    ;" d="M187,433.873v-72.874h-14.5v78.227
	C177.025,436.852,181.889,435.04,187,433.873z"/>
<path style="fill:#C0272D;" d="M311.522,432.343c10.1,0,19.612,2.495,27.978,6.883v-78.227h-24l-28.652,76.614
	C294.381,434.231,302.73,432.343,311.522,432.343z"/>
<path style="fill:#EF5050;" d="M311.522,432.343c-24.923,0-46.313,15.116-55.522,36.681c-9.209-21.564-30.6-36.681-55.523-36.681
	c-33.332,0-60.354,27.034-60.354,60.381v6.775c0,2.762,2.238,5,5,5h221.754c2.762,0,5-2.238,5-5v-6.775
	C371.877,459.377,344.854,432.343,311.522,432.343z"/>
<g style="opacity:0.15;">
	<path style="fill:#3D0072;" d="M169.246,499.499v-6.775c0-28.322,19.497-52.082,45.794-58.601c-4.665-1.157-9.54-1.78-14.563-1.78
		c-33.332,0-60.354,27.034-60.354,60.381v6.775c0,2.762,2.238,5,5,5h29.123C171.484,504.499,169.246,502.261,169.246,499.499z"/>
</g>
<g>
	<path style="fill:#FFB98A;" d="M154.78,230.957v-42.958h-11.864c-13.06,0-23.646,10.587-23.646,23.645v25.701
		c0,13.059,10.586,23.645,23.646,23.645h16.395C156.367,251.502,154.78,241.415,154.78,230.957z"/>
	<path style="fill:#FFB98A;" d="M369.085,187.999H357.22v42.958c0,10.458-1.587,20.545-4.531,30.034h16.396
		c13.059,0,23.645-10.587,23.645-23.645v-25.701C392.729,198.586,382.144,187.999,369.085,187.999z"/>
</g>
<path style="fill:#FFC7A9;" d="M154.78,174.21c0-55.902,45.318-78.438,101.22-78.438l0,0c55.901,0,101.22,22.535,101.22,78.438
	v56.747c0,55.902-45.318,101.22-101.22,101.22l0,0c-55.901,0-101.22-45.317-101.22-101.22V174.21z"/>
<g style="opacity:0.15;">
	<path style="fill:#3D0072;" d="M178,230.957V174.21c0-51.963,39.158-75.091,89.572-78.094c-3.799-0.226-7.658-0.344-11.572-0.344
		c-55.901,0-101.22,22.535-101.22,78.438v56.747c0,55.902,45.318,101.22,101.22,101.22c3.914,0,7.772-0.236,11.57-0.672
		C217.156,325.727,178,282.919,178,230.957z"/>
</g>
<g>
	<ellipse style="fill:#312F56;" cx="200.52" cy="218.499" rx="13.477" ry="13.529"/>
	<ellipse style="fill:#312F56;" cx="306.01" cy="218.499" rx="13.477" ry="13.529"/>
</g>
<circle style="fill:#98E8F9;" cx="138.81" cy="290.559" r="14"/>
<g>
	<path style="fill:#FCDB67;" d="M140.926,336.441c-1.166,1.166-3.076,1.166-4.242,0l-13.562-13.563
		c-1.166-1.166-1.166-3.076,0-4.242l13.562-13.563c1.166-1.166,3.076-1.166,4.242,0l13.563,13.563c1.166,1.166,1.166,3.076,0,4.242
		L140.926,336.441z"/>
	<path style="fill:#FCDB67;" d="M375.316,336.441c-1.166,1.166-3.076,1.166-4.242,0l-13.563-13.563
		c-1.166-1.166-1.166-3.076,0-4.242l13.563-13.563c1.166-1.166,3.076-1.166,4.242,0l13.563,13.563c1.166,1.166,1.166,3.076,0,4.242
		L375.316,336.441z"/>
</g>
<g>
	<circle style="fill:#98E8F9;" cx="373.19" cy="290.559" r="14"/>
	<path style="fill:#98E8F9;" d="M258.121,423.46c-1.166,1.166-3.076,1.166-4.242,0l-8.549-8.549c-1.166-1.166-1.166-3.076,0-4.242
		l8.549-8.549c1.166-1.166,3.076-1.166,4.242,0l8.549,8.549c1.166,1.166,1.166,3.076,0,4.242L258.121,423.46z"/>
</g>
<path style="fill:#FCDB67;" d="M258.121,399.487c-1.166,1.166-3.076,1.166-4.242,0l-13.563-13.563c-1.166-1.166-1.166-3.076,0-4.242
	l13.563-13.563c1.166-1.166,3.076-1.166,4.242,0l13.563,13.563c1.166,1.166,1.166,3.076,0,4.242L258.121,399.487z"/>
<path d="M400.229,237.346v-25.701c0-17.174-13.972-31.145-31.145-31.145h-4.365v-30.75c0-16.056-3.443-31.514-10.235-45.945
	c-1.764-3.748-6.233-5.357-9.979-3.593c-3.748,1.764-5.357,6.232-3.593,9.979c1.299,2.76,2.438,5.566,3.451,8.41
	c-3.695-3.946-7.877-7.539-12.535-10.749c-3.392-2.337-7.043-4.468-10.926-6.397c-3.882-11.793-9.078-22.194-15.271-30.887
	c2.99,1.87,5.902,3.904,8.709,6.131c3.245,2.574,7.963,2.03,10.537-1.215c2.574-3.245,2.03-7.963-1.215-10.537
	c-2.75-2.181-5.588-4.199-8.49-6.086c1.998-5.009,3.057-10.359,3.057-15.861c0-23.71-19.29-43-43-43h-38.457
	c-23.71,0-43,19.29-43,43c0,5.516,1.064,10.881,3.072,15.901c-29.811,19.34-49.563,52.837-49.563,90.849v30.75h-4.365
	c-17.174,0-31.146,13.972-31.146,31.145v25.701c0,13.07,8.097,24.278,19.534,28.892v4.201c-8.162,3.054-14,10.909-14,20.124
	c0,6.381,2.81,12.104,7.238,16.045l-6.726,6.726c-4.094,4.094-4.094,10.756,0,14.85l13.563,13.563
	c1.98,1.98,4.617,3.071,7.425,3.071s5.444-1.091,7.425-3.071l13.563-13.563c4.094-4.094,4.094-10.756,0-14.85l-6.726-6.726
	c4.429-3.94,7.238-9.664,7.238-16.045c0-9.215-5.838-17.07-14-20.124v-1.947h7.656c11.34,30.731,36.188,54.977,67.304,65.495v19.512
	h-51.142c-20.678,0-37.5,16.822-37.5,37.5v108.5c0,6.893,5.607,12.5,12.5,12.5h221.754c6.892,0,12.5-5.607,12.5-12.5v-108.5
	c0-20.678-16.822-37.5-37.5-37.5h-51.141v-19.51c6.57-2.21,12.93-5.046,18.974-8.486c3.6-2.049,4.857-6.628,2.808-10.228
	c-2.049-3.6-6.629-4.859-10.228-2.808c-14.032,7.987-30.039,12.209-46.29,12.209c-51.678,0-93.72-42.043-93.72-93.72v-56.747
	c0-23.765,8.883-41.935,26.402-54.006c16.075-11.077,39.353-16.932,67.317-16.932s51.242,5.854,67.317,16.932
	c17.52,12.071,26.402,30.241,26.402,54.006v56.747c0,21.449-7.051,41.633-20.39,58.367c-2.582,3.239-2.05,7.958,1.189,10.539
	c3.238,2.584,7.957,2.05,10.54-1.189c7.368-9.243,13.061-19.4,17.026-30.183h7.609v1.947c-8.162,3.054-14,10.909-14,20.124
	c0,6.381,2.81,12.104,7.238,16.045l-6.726,6.726c-4.094,4.094-4.094,10.756,0,14.85l13.563,13.563
	c1.98,1.98,4.617,3.071,7.425,3.071c2.808,0,5.444-1.091,7.425-3.071l13.563-13.563c4.094-4.094,4.094-10.756,0-14.85l-6.726-6.726
	c4.429-3.94,7.238-9.664,7.238-16.045c0-9.215-5.838-17.07-14-20.124v-4.201C392.133,261.624,400.229,250.416,400.229,237.346z
	 M364.377,496.999H147.623v-4.275c0-29.158,23.711-52.881,52.854-52.881c21.204,0,40.291,12.61,48.625,32.126
	c1.18,2.763,3.894,4.555,6.898,4.555c3.004,0,5.718-1.792,6.897-4.555c8.334-19.516,27.421-32.126,48.625-32.126
	c29.143,0,52.855,23.723,52.855,52.881V496.999z M332,368.499v59.51c-6.465-2.052-13.343-3.166-20.478-3.166
	c-4.181,0-8.298,0.383-12.311,1.12l21.49-57.464L332,368.499L332,368.499z M280.886,432.145
	c-9.857,4.986-18.437,12.345-24.886,21.532c-6.449-9.188-15.027-16.546-24.886-21.532l-6.271-16.771
	c-1.451-3.88-5.773-5.849-9.651-4.397c-3.88,1.45-5.849,5.771-4.398,9.651l1.994,5.335c-4.013-0.737-8.13-1.12-12.311-1.12
	c-7.135,0-14.013,1.114-20.477,3.166v-59.51h11.298l7.154,19.13c1.451,3.882,5.774,5.85,9.651,4.397
	c3.88-1.45,5.849-5.771,4.398-9.651l-5.19-13.876h16.453c0.299,0,0.591-0.024,0.885-0.045c2.409,4.228,5.196,7.895,8.278,10.927
	c-1.802,3.885-1.114,8.648,2.085,11.848l9.575,9.575l-4.562,4.562c-1.98,1.98-3.071,4.617-3.071,7.425
	c0,2.808,1.091,5.444,3.071,7.425l8.549,8.549c1.98,1.98,4.617,3.071,7.425,3.071c2.808,0,5.444-1.091,7.425-3.071l8.549-8.549
	c1.98-1.98,3.071-4.617,3.071-7.425c0-2.808-1.091-5.444-3.071-7.425l-4.561-4.562l9.575-9.575
	c3.199-3.199,3.886-7.963,2.085-11.847c3.083-3.033,5.869-6.699,8.278-10.928c0.294,0.02,0.587,0.045,0.886,0.045h16.452
	L280.886,432.145z M253.815,412.79l2.185-2.185l2.185,2.185L256,414.975L253.815,412.79z M263.198,383.804L256,391.002l-7.198-7.198
	l7.198-7.198L263.198,383.804z M147.623,390.999c0-10.644,7.432-19.578,17.377-21.904v65.794
	c-6.635,4.088-12.509,9.288-17.377,15.335V390.999z M364.377,390.999v59.225c-4.868-6.047-10.742-11.247-17.377-15.335v-65.794
	C356.945,371.421,364.377,380.355,364.377,390.999z M275.736,337.86v18.139c0,0.67,0.068,1.322,0.17,1.965
	c-1.974,4.14-4.366,7.63-7.018,10.316l-5.464-5.464c-1.98-1.98-4.617-3.071-7.425-3.071c-2.808,0-5.444,1.091-7.425,3.071
	l-5.464,5.464c-2.651-2.686-5.044-6.176-7.017-10.315c0.102-0.643,0.17-1.296,0.17-1.967v-18.122c6.402,1.179,12.997,1.8,19.735,1.8
	C262.644,339.677,269.25,339.056,275.736,337.86z M138.805,284.063c3.584,0,6.5,2.916,6.5,6.5s-2.916,6.5-6.5,6.5
	s-6.5-2.916-6.5-6.5C132.305,286.978,135.221,284.063,138.805,284.063z M138.805,327.956l-7.198-7.198l7.198-7.198l7.198,7.198
	L138.805,327.956z M145.866,253.491c-1.033-2.907-3.8-4.992-7.061-4.992c-1.995,0-3.803,0.783-5.146,2.054
	c-4.158-2.924-6.888-7.749-6.888-13.207v-25.701c0-8.902,7.243-16.145,16.146-16.145h4.365l-0.001,20.951h-5.291
	c-4.143,0-7.5,3.357-7.5,7.5s3.357,7.5,7.5,7.5h5.298c0.033,7.552,0.842,14.924,2.348,22.041L145.866,253.491L145.866,253.491z
	 M191.1,101.452c-3.883,1.932-7.535,4.063-10.928,6.399c-4.633,3.192-8.793,6.764-12.473,10.685
	c7.129-19.936,20.867-36.77,38.593-47.86C200.133,79.347,194.965,89.71,191.1,101.452z M228.238,16.333
	c-2.989,7.179-4.708,16.33-4.708,26.666c0,1.117,0.032,2.225,0.08,3.326c-4.642,1.446-9.146,3.201-13.499,5.229
	c-0.88-2.74-1.34-5.616-1.34-8.555C208.771,30.534,216.959,19.951,228.238,16.333z M230.044,90.016
	c-7.028,0.982-13.7,2.378-19.974,4.177c6.808-14.66,16.15-25.885,26.66-32.152C234.069,69.405,231.839,78.744,230.044,90.016z
	 M256,88.272c-3.565,0-7.06,0.1-10.494,0.277c3.649-20.478,8.229-29.177,10.495-31.627c2.265,2.45,6.845,11.149,10.494,31.627
	C263.06,88.372,259.565,88.272,256,88.272z M256.001,41.415c-5.946,0-11.779,0.485-17.469,1.405
	c0.044-18.87,6.98-27.821,8.695-27.821h17.544c1.716,0,8.646,8.945,8.696,27.802C267.75,41.891,261.918,41.415,256.001,41.415z
	 M281.957,90.017c-1.795-11.273-4.025-20.611-6.686-27.977c10.511,6.269,19.852,17.492,26.661,32.152
	C295.658,92.394,288.986,90.998,281.957,90.017z M301.906,51.503c-4.389-2.045-8.897-3.794-13.514-5.225
	c0.047-1.086,0.077-2.178,0.077-3.279c0-10.336-1.72-19.487-4.708-26.666c11.279,3.618,19.467,14.201,19.467,26.666
	C303.228,45.92,302.775,48.778,301.906,51.503z M364.709,231.45h5.302c4.143,0,7.5-3.357,7.5-7.5s-3.357-7.5-7.5-7.5h-5.291v-20.951
	h4.365c8.902,0,16.145,7.243,16.145,16.145v25.701c0,5.458-2.729,10.283-6.888,13.207c-1.344-1.27-3.151-2.054-5.146-2.054
	c-3.262,0-6.028,2.085-7.062,4.992h-3.729C363.902,246.325,364.677,238.956,364.709,231.45z M373.195,284.063
	c3.584,0,6.5,2.916,6.5,6.5s-2.916,6.5-6.5,6.5s-6.5-2.916-6.5-6.5C366.695,286.978,369.611,284.063,373.195,284.063z
	 M373.195,327.956l-7.198-7.198l7.198-7.198l7.198,7.198L373.195,327.956z"/>
<path d="M247.407,212.583c-4.143,0-7.5,3.357-7.5,7.5v24.916c0,9.649,7.283,17.5,16.235,17.5h8.735c4.143,0,7.5-3.357,7.5-7.5
	s-3.357-7.5-7.5-7.5h-8.735c-0.298,0-1.235-0.914-1.235-2.5v-24.916C254.907,215.94,251.55,212.583,247.407,212.583z"/>
<path d="M200.524,239.528c11.566,0,20.976-9.434,20.976-21.029s-9.409-21.029-20.976-21.029s-20.977,9.434-20.977,21.029
	C179.547,230.094,188.957,239.528,200.524,239.528z M200.524,212.47c3.295,0,5.976,2.705,5.976,6.029s-2.681,6.029-5.976,6.029
	c-3.296,0-5.977-2.705-5.977-6.029S197.229,212.47,200.524,212.47z"/>
<path d="M326.988,218.499c0-11.596-9.409-21.029-20.976-21.029c-11.567,0-20.978,9.434-20.978,21.029
	c0,11.595,9.41,21.029,20.978,21.029C317.579,239.528,326.988,230.095,326.988,218.499z M300.035,218.499
	c0-3.324,2.682-6.029,5.978-6.029c3.295,0,5.976,2.705,5.976,6.029s-2.681,6.029-5.976,6.029
	C302.717,224.528,300.035,221.823,300.035,218.499z"/>
<path d="M201.342,166.743c-14.216,0-27.191,7.213-34.71,19.295c-2.188,3.518-1.111,8.143,2.405,10.331
	c3.517,2.186,8.142,1.112,10.331-2.405c4.762-7.652,12.976-12.221,21.974-12.221c13.245,0,24.297,9.912,25.708,23.057
	c0.413,3.847,3.665,6.7,7.448,6.7c0.267,0,0.537-0.015,0.81-0.044c4.118-0.442,7.099-4.139,6.656-8.258
	C239.733,182.416,222.27,166.743,201.342,166.743z"/>
<path d="M339.47,196.369c3.517-2.189,4.594-6.814,2.405-10.331c-7.519-12.082-20.494-19.295-34.71-19.295
	c-20.928,0-38.392,15.673-40.622,36.455c-0.442,4.119,2.538,7.815,6.656,8.258c0.273,0.029,0.542,0.044,0.81,0.044
	c3.783-0.001,7.035-2.855,7.448-6.7c1.411-13.145,12.463-23.057,25.708-23.057c8.998,0,17.212,4.568,21.974,12.221
	C331.328,197.479,335.953,198.556,339.47,196.369z"/>
<path d="M256,298.462c14.177,0,28.353-5.396,39.147-16.188c2.929-2.93,2.929-7.678,0-10.607c-2.93-2.928-7.678-2.928-10.607,0
	c-15.736,15.738-41.342,15.738-57.078,0c-2.93-2.928-7.678-2.928-10.607,0c-2.929,2.93-2.929,7.678,0,10.607
	C227.646,293.065,241.823,298.462,256,298.462z"/>
<g>
</g>
<g>
</g>
<g>
</g>
<g>
</g>
<g>
</g>
<g>
</g>
<g>
</g>
<g>
</g>
<g>
</g>
<g>
</g>
<g>
</g>
<g>
</g>
<g>
</g>
<g>
</g>
<g>
</g>
</svg>
