<?xml version="1.0" encoding="iso-8859-1"?>
<!-- Generator: Adobe Illustrator 19.0.0, SVG Export Plug-In . SVG Version: 6.00 Build 0)  -->
<svg version="1.1" id="Capa_1" xmlns="http://www.w3.org/2000/svg" xmlns:xlink="http://www.w3.org/1999/xlink" x="0px" y="0px"
	 viewBox="0 0 512 512" style="enable-background:new 0 0 512 512;" xml:space="preserve">
<path style="fill:#775436;" d="M286.219,34c-1.676,0-3.333,0.079-4.979,0.193C268.229,17.929,248.228,7.5,225.78,7.5
	c-39.212,0-71,31.788-71,71v57c0,2.865,0.189,5.684,0.519,8.46C160.465,95.553,203.579,77,256,77
	c55.901,0,101.219,21.098,101.219,77v-49C357.219,65.788,325.431,34,286.219,34z"/>
<path style="opacity:0.15;fill:#490089;enable-background:new    ;" d="M184,94.831V78.5c0-34.203,24.188-62.751,56.39-69.488
	c-4.716-0.986-9.601-1.512-14.61-1.512c-39.212,0-71,31.788-71,71v57c0,2.865,0.189,5.684,0.519,8.46
	C157.689,121.566,168.204,105.565,184,94.831z"/>
<g>
	<path style="fill:#312F56;" d="M281,355.25v-37.96c-7.997,2.031-16.372,3.114-25,3.114s-17.003-1.083-25-3.114v37.96H281z"/>
	<rect x="231" y="355.25" style="fill:#312F56;" width="50" height="149.25"/>
</g>
<path style="fill:#FFFFFF;" d="M227.822,461.587l-46.793-65.338c-1.998-2.79-1.14-6.365,1.908-7.943l14.835-7.682
	c3.049-1.578,2.997-4.057-0.115-5.508l-24.054-11.214c-3.112-1.45-4.331-5.112-2.712-8.138l0.275-0.515h-38.524
	c-8.25,0-15,6.75-15,15V494.5c0,5.5,4.5,10,10,10H231v-40.851C229.838,463.506,228.706,462.821,227.822,461.587z"/>
<g style="opacity:0.15;">
	<path style="fill:#3D0072;" d="M146.643,494.5V370.25c0-8.25,6.75-15,15-15h-29c-8.25,0-15,6.75-15,15V494.5c0,5.5,4.5,10,10,10h29
		C151.143,504.5,146.643,500,146.643,494.5z"/>
</g>
<circle style="fill:#FFFFFF;" cx="183.56" cy="466.13" r="18.444"/>
<circle style="fill:#9EA7AF;" cx="183.56" cy="466.13" r="18.444"/>
<path style="fill:#FFFFFF;" d="M379.357,355.25h-38.524l0.275,0.515c1.619,3.025,0.4,6.688-2.712,8.138l-24.054,11.214
	c-3.112,1.451-3.164,3.93-0.115,5.508l14.835,7.682c3.048,1.578,3.906,5.153,1.908,7.943l-46.793,65.338
	c-0.884,1.234-2.016,1.919-3.178,2.063V504.5h103.357c5.5,0,10-4.5,10-10V370.25C394.357,362,387.607,355.25,379.357,355.25z"/>
<g>
	<path style="fill:#E6E9ED;" d="M319.017,314.501c-1.621-3.025-5.754-5.501-9.186-5.501h-7.124
		c-6.818,3.553-14.089,6.354-21.707,8.29v146.359c1.162-0.144,2.294-0.828,3.178-2.063l46.793-65.338
		c1.998-2.79,1.14-6.365-1.908-7.943l-14.835-7.682c-3.049-1.578-2.997-4.057,0.115-5.508l24.054-11.214
		c3.112-1.45,4.331-5.112,2.712-8.138L319.017,314.501z"/>
	<path style="fill:#E6E9ED;" d="M209.292,309h-7.124c-3.432,0-7.564,2.476-9.186,5.501l-22.092,41.264
		c-1.619,3.025-0.4,6.688,2.712,8.138l24.054,11.214c3.112,1.451,3.164,3.93,0.115,5.508l-14.835,7.682
		c-3.048,1.578-3.906,5.153-1.908,7.943l46.793,65.338c0.884,1.234,2.016,1.919,3.178,2.063V317.29
		C223.382,315.354,216.111,312.553,209.292,309z"/>
</g>
<g>
	<path style="fill:#FFB98A;" d="M369.084,174.615h-11.865v44.569c0,9.868-1.419,19.405-4.052,28.423h15.917
		c13.06,0,23.644-10.587,23.644-23.646V198.26C392.728,185.202,382.144,174.615,369.084,174.615z"/>
	<path style="fill:#FFB98A;" d="M154.78,219.185v-44.569h-11.864c-13.06,0-23.646,10.587-23.646,23.645v25.701
		c0,13.059,10.586,23.646,23.646,23.646h15.916C156.199,238.59,154.78,229.053,154.78,219.185z"/>
</g>
<path style="fill:#FFC7A9;" d="M154.78,154c0-55.902,45.318-77,101.22-77l0,0c55.901,0,101.219,21.098,101.219,77v65.185
	c0,55.902-45.317,101.22-101.219,101.22l0,0c-55.901,0-101.22-45.317-101.22-101.22V154z"/>
<g style="opacity:0.15;">
	<path style="fill:#3D0072;" d="M183.562,219.185V154c0-51.016,37.745-73.042,86.829-76.504C265.69,77.165,260.885,77,256,77
		c-55.901,0-101.22,21.098-101.22,77v65.185c0,55.902,45.318,101.22,101.22,101.22c4.886,0,9.69-0.353,14.391-1.023
		C221.306,312.394,183.562,270.2,183.562,219.185z"/>
</g>
<g>
	<ellipse style="fill:#203A74;" cx="205.48" cy="209.12" rx="13.477" ry="13.529"/>
	<ellipse style="fill:#203A74;" cx="302.52" cy="209.12" rx="13.477" ry="13.529"/>
</g>
<path d="M199.34,146.5c-10.179,0-19.753,3.969-26.959,11.175c-2.929,2.929-2.928,7.678,0,10.606
	c2.93,2.928,7.678,2.929,10.607-0.001c4.372-4.372,10.179-6.78,16.352-6.78s11.98,2.408,16.353,6.781
	c1.464,1.464,3.384,2.196,5.303,2.196s3.839-0.732,5.303-2.196c2.929-2.93,2.929-7.678,0-10.607
	C219.094,150.469,209.52,146.5,199.34,146.5z"/>
<path d="M292.196,168.28c4.372-4.372,10.179-6.78,16.352-6.78s11.98,2.408,16.353,6.781c1.464,1.464,3.384,2.196,5.303,2.196
	s3.839-0.732,5.303-2.196c2.929-2.93,2.929-7.678,0-10.607c-7.206-7.205-16.78-11.174-26.959-11.174s-19.754,3.969-26.959,11.175
	c-2.929,2.929-2.928,7.678,0,10.606C284.519,171.209,289.268,171.21,292.196,168.28z"/>
<path d="M232.912,273.847c-4.142,0-7.5,3.357-7.5,7.5s3.358,7.5,7.5,7.5h48.463c4.142,0,7.5-3.357,7.5-7.5s-3.358-7.5-7.5-7.5
	H232.912z"/>
<path d="M379.357,347.75h-34.033l-19.697-36.791c-1.002-1.871-2.454-3.549-4.155-4.969c3.374-2.553,6.62-5.311,9.716-8.276
	c2.992-2.865,3.094-7.613,0.229-10.604c-2.865-2.99-7.612-3.095-10.604-0.229c-17.523,16.782-40.542,26.024-64.813,26.024
	c-42.791,0-78.976-28.827-90.155-68.081c4.719,2.448,10.07,3.841,15.743,3.841h36.05c8.494,0,16.271-3.11,22.27-8.243v3.722
	c0,9.649,7.283,17.5,16.235,17.5h8.734c4.142,0,7.5-3.357,7.5-7.5s-3.358-7.5-7.5-7.5h-8.734c-0.298,0-1.235-0.914-1.235-2.5
	v-26.061h5.353c1.863,17.171,16.443,30.582,34.101,30.582h36.05c5.684,0,11.044-1.397,15.77-3.854
	c-1.357,4.778-3.099,9.456-5.23,14.015c-1.754,3.752-0.134,8.216,3.618,9.97c3.753,1.754,8.216,0.135,9.971-3.618
	c1.544-3.304,2.906-6.663,4.101-10.068h10.445c17.173,0,31.144-13.972,31.144-31.146v-25.701c0-17.174-13.971-31.145-31.144-31.145
	h-4.365V105c0-43.285-35.215-78.5-78.5-78.5c-0.561,0-1.117,0.02-1.675,0.031C270.151,10.275,249.148,0,225.78,0
	c-43.285,0-78.5,35.215-78.5,78.5v88.615h-4.364c-17.174,0-31.146,13.972-31.146,31.145v25.701
	c0,17.174,13.972,31.146,31.146,31.146h10.471c7.164,20.403,20.247,38.043,37.185,50.847c-1.722,1.428-3.189,3.119-4.2,5.007
	l-19.697,36.789h-34.032c-12.407,0-22.5,10.094-22.5,22.5V494.5c0,9.649,7.851,17.5,17.5,17.5h256.715c9.649,0,17.5-7.851,17.5-17.5
	V370.25C401.857,357.844,391.764,347.75,379.357,347.75z M364.719,219.185v-1.118h5.291c4.142,0,7.5-3.357,7.5-7.5
	s-3.358-7.5-7.5-7.5h-5.291v-20.951h4.365c8.902,0,16.144,7.243,16.144,16.145v25.701c0,8.902-7.242,16.146-16.144,16.146h-6.368
	C364.047,233.273,364.719,226.287,364.719,219.185z M349.719,214.355c0,10.646-8.662,19.309-19.309,19.309h-36.05
	c-10.646,0-19.307-8.662-19.307-19.309V189.5h19.984c-7.876,3.031-13.491,10.672-13.491,19.621c0,11.596,9.41,21.029,20.977,21.029
	s20.977-9.434,20.977-21.029c0-8.949-5.615-16.59-13.491-19.621h39.71V214.355z M308.5,209.121c0,3.324-2.681,6.029-5.977,6.029
	c-3.295,0-5.977-2.705-5.977-6.029s2.681-6.029,5.977-6.029S308.5,205.797,308.5,209.121z M349.719,105v0.19
	c-10.257-13.595-25.601-23.546-45.49-29.435c-0.419-12.084-3.593-23.477-8.894-33.586C326.043,46.606,349.719,73.083,349.719,105z
	 M162.28,78.5c0-35.014,28.486-63.5,63.5-63.5c32.885,0,60.007,25.128,63.185,57.189C278.882,70.41,267.876,69.5,256,69.5
	c-44.165,0-76.288,12.586-93.72,35.691V78.5z M142.916,240.107c-8.903,0-16.146-7.243-16.146-16.146V198.26
	c0-8.902,7.243-16.145,16.146-16.145h4.364v20.951h-5.291c-4.142,0-7.5,3.357-7.5,7.5s3.358,7.5,7.5,7.5h5.291v1.118
	c0,7.155,0.702,14.149,2.028,20.923H142.916z M162.28,154c0-23.631,8.855-41.54,26.319-53.23C204.498,90.126,227.805,84.5,256,84.5
	s51.501,5.626,67.4,16.269c17.463,11.691,26.318,29.6,26.318,53.231v20.5h-77.542c-6.685,0-12.123,5.438-12.123,12.122v16.46h-8.109
	v-16.46c0-6.685-5.438-12.122-12.121-12.122H162.28V154z M211.453,209.121c0,3.324-2.681,6.029-5.976,6.029
	c-3.296,0-5.977-2.705-5.977-6.029s2.682-6.029,5.977-6.029C208.773,203.092,211.453,205.797,211.453,209.121z M162.281,189.5h35.71
	c-7.876,3.031-13.492,10.672-13.492,19.621c0,11.596,9.411,21.029,20.977,21.029c11.566,0,20.976-9.434,20.976-21.029
	c0-8.949-5.615-16.59-13.491-19.621h23.982v24.855c0,10.646-8.661,19.309-19.307,19.309h-36.05
	c-10.646,0-19.307-8.662-19.307-19.309V189.5H162.281z M223.5,497h-95.857c-1.355,0-2.5-1.145-2.5-2.5V370.25
	c0-4.136,3.364-7.5,7.5-7.5h30.703c0.005,0.016,0.008,0.031,0.013,0.046c1.155,3.466,3.734,6.347,7.076,7.904l5.621,2.62v10.876
	c-1.586,1.634-2.723,3.651-3.257,5.874c-0.865,3.602-0.088,7.444,2.133,10.546l1.124,1.569V441.3
	c-10.659,3.226-18.443,13.137-18.443,24.835c0,14.306,11.638,25.943,25.943,25.943c14.306,0,25.944-11.638,25.944-25.943
	c0-11.698-7.785-21.609-18.444-24.835v-18.169l30.668,42.822c0.536,0.748,1.132,1.422,1.776,2.021V497z M183.556,455.19
	c6.035,0,10.944,4.909,10.944,10.944c0,6.034-4.91,10.943-10.944,10.943s-10.943-4.909-10.943-10.943
	C172.612,460.1,177.521,455.19,183.556,455.19z M273.5,472.133V497h-35v-80c0-4.143-3.358-7.5-7.5-7.5s-7.5,3.357-7.5,7.5v25.671
	l-34.962-48.819l12.683-6.567c4.028-2.085,6.385-5.68,6.304-9.616c-0.081-3.937-2.585-7.432-6.698-9.35L178.3,357.816l21.291-39.768
	c0.363-0.626,1.861-1.523,2.578-1.549h5.398c5.098,2.548,10.42,4.711,15.933,6.441v57.058c0,4.143,3.358,7.5,7.5,7.5
	s7.5-3.357,7.5-7.5V362.75h35V472.133z M238.5,347.75v-21.261c5.699,0.926,11.543,1.415,17.5,1.415c5.913,0,11.761-0.478,17.5-1.406
	v21.252L238.5,347.75L238.5,347.75z M386.857,494.5c0,1.355-1.145,2.5-2.5,2.5H288.5v-29.026c0.644-0.599,1.24-1.272,1.775-2.02
	l13.311-18.587c2.412-3.368,1.637-8.053-1.731-10.465c-3.367-2.411-8.052-1.637-10.464,1.73l-2.892,4.038V322.964
	c5.512-1.722,10.873-3.883,16.038-6.464h5.287c0.723,0.025,2.221,0.923,2.58,1.541l21.295,39.775l-22.526,10.502
	c-4.112,1.918-6.616,5.413-6.697,9.35c-0.081,3.936,2.275,7.531,6.303,9.616l12.684,6.567l-9.87,13.781
	c-2.412,3.368-1.637,8.053,1.73,10.465c3.369,2.412,8.054,1.638,10.465-1.73l11.281-15.751c2.221-3.102,2.998-6.944,2.133-10.546
	c-0.865-3.601-3.304-6.671-6.69-8.425l-6.834-3.538l14.031-6.542v45.853c-13.875,3.379-24.208,15.903-24.208,30.803v38.328
	c0,4.143,3.358,7.5,7.5,7.5h8.574c4.142,0,7.5-3.357,7.5-7.5c0-4.142-3.358-7.5-7.5-7.5H330.5v-30.828
	c0-9.212,7.495-16.707,16.708-16.707c9.212,0,16.707,7.495,16.707,16.707v30.828h-1.073c-4.142,0-7.5,3.358-7.5,7.5
	c0,4.143,3.358,7.5,7.5,7.5h8.573c4.142,0,7.5-3.357,7.5-7.5v-38.328c0-14.899-10.333-27.424-24.207-30.803V362.75h24.649
	c4.135,0,7.5,3.364,7.5,7.5V494.5z"/>
<g>
</g>
<g>
</g>
<g>
</g>
<g>
</g>
<g>
</g>
<g>
</g>
<g>
</g>
<g>
</g>
<g>
</g>
<g>
</g>
<g>
</g>
<g>
</g>
<g>
</g>
<g>
</g>
<g>
</g>
</svg>
