<?xml version="1.0" encoding="iso-8859-1"?>
<!-- Generator: Adobe Illustrator 19.0.0, SVG Export Plug-In . SVG Version: 6.00 Build 0)  -->
<svg version="1.1" id="Capa_1" xmlns="http://www.w3.org/2000/svg" xmlns:xlink="http://www.w3.org/1999/xlink" x="0px" y="0px"
	 viewBox="0 0 512 512" style="enable-background:new 0 0 512 512;" xml:space="preserve">
<g>
	<path style="fill:#FFB98A;" d="M119.604,499.5c0,2.75,2.25,5,5,5h15.519V468h-20.519C119.605,468,119.605,499.5,119.604,499.5z"/>
	<path style="fill:#FFB98A;" d="M371.878,468v36.5h15.519c2.75,0,5-2.25,5-5V468H371.878z"/>
</g>
<g>
	<path style="fill:#693FBA;" d="M145.486,185.822h9.294v-59.787c0-2.762,2.239-5,5-5h192.44c2.761,0,5,2.238,5,5v59.787h9.295
		c5.566,0,10.672,1.969,14.662,5.248v-58.393C381.176,63.544,325.133,7.5,256,7.5S130.825,63.544,130.825,132.677v58.393
		C134.814,187.791,139.92,185.822,145.486,185.822z"/>
	<path style="fill:#693FBA;" d="M222.617,358v-40.675c-28.331-9.93-50.952-32.11-61.453-60.171h-15.677
		c-5.567,0-10.673-1.969-14.663-5.248V382.77c3.97-2.421,8.256-4.378,12.786-5.785c5.041-9.498,15.033-15.984,26.514-15.984h52.86
		C222.758,359.934,222.617,358.845,222.617,358z"/>
	<path style="fill:#693FBA;" d="M366.516,257.154h-15.678c-10.501,28.061-33.122,50.24-61.452,60.17V358
		c0,0.845-0.142,1.934-0.367,3h52.86c11.481,0,21.472,6.486,26.514,15.984c4.529,1.407,8.816,3.364,12.786,5.785V251.906
		C377.188,255.186,372.081,257.154,366.516,257.154z"/>
</g>
<g style="opacity:0.15;">
	<path style="fill:#030007;" d="M145.486,185.822h9.294v-59.787c0-2.762,2.239-5,5-5h0.404
		c5.434-58.913,51.692-105.993,110.228-112.704C265.682,7.788,260.875,7.5,256,7.5c-69.133,0-125.176,56.044-125.176,125.177v58.393
		C134.814,187.791,139.92,185.822,145.486,185.822z"/>
	<path style="fill:#030007;" d="M145.486,257.154c-5.567,0-10.673-1.969-14.663-5.248V382.77c3.97-2.421,8.256-4.378,12.786-5.785
		c3.424-6.45,9.13-11.51,16.038-14.094V257.154H145.486z"/>
</g>
<g>
	<path style="fill:#C0272D;" d="M371.878,445.588V468H397c1.65,0,3-1.35,3-3v-19.412H371.878z"/>
	<path style="fill:#C0272D;" d="M112.001,465c0,1.65,1.35,3,3,3h25.123v-22.412h-28.123V465z"/>
</g>
<g>
	<path style="fill:#312F56;" d="M140.124,391c0-5.06,1.265-9.829,3.486-14.016c-23.215,7.212-40.109,28.771-40.109,54.176v10.58
		c0,2.125,1.734,3.848,3.873,3.848h32.75L140.124,391L140.124,391z"/>
	<path style="fill:#312F56;" d="M368.391,376.984c2.222,4.186,3.486,8.955,3.486,14.016v54.588h32.75
		c2.139,0,3.873-1.723,3.873-3.848v-10.58C408.5,405.755,391.605,384.196,368.391,376.984z"/>
</g>
<path style="fill:#C0272D;" d="M341.878,361H170.124c-16.541,0-30,13.458-30,30v113.5h231.754V391
	C371.878,374.458,358.418,361,341.878,361z"/>
<path style="fill:#FFB98A;" d="M256,323c-11.693,0-22.926-2-33.384-5.664V358c0,1.65,0.537,4.238,1.193,5.752l28.901,66.652h6.579
	l28.901-66.652c0.656-1.514,1.193-4.102,1.193-5.752v-40.664C278.926,321,267.693,323,256,323z"/>
<path style="fill:#C0272D;" d="M170.124,361c-16.541,0-30,13.458-30,30v87.413L220.533,361H170.124z"/>
<path style="opacity:0.15;fill:#490089;enable-background:new    ;" d="M169.247,435.888V391c0-16.542,13.459-30,30-30h-29.123
	c-16.541,0-30,13.458-30,30v87.413L169.247,435.888z"/>
<path style="fill:#C0272D;" d="M341.878,361h-50.409l80.409,117.413V391C371.878,374.458,358.418,361,341.878,361z"/>
<g>
	<path style="fill:#312F56;" d="M222.984,361h-2.452l-55.652,81.264C175.68,435.15,188.603,431,202.501,431
		c2.284,0,4.54,0.118,6.767,0.337V417.49c0-1.65,1.238-2.463,2.752-1.806l31.174,13.525c0.572,0.249,1.104,0.674,1.546,1.194h7.971
		l-28.901-66.652C223.49,363.013,223.199,362.018,222.984,361z"/>
	<path style="fill:#312F56;" d="M291.468,361h-2.451c-0.215,1.018-0.506,2.013-0.826,2.752l-28.901,66.652h7.971
		c0.441-0.521,0.974-0.945,1.546-1.194l31.175-13.525c1.514-0.657,2.752,0.155,2.752,1.806v13.847
		c2.227-0.219,4.483-0.337,6.767-0.337c13.898,0,26.821,4.15,37.621,11.264L291.468,361z"/>
</g>
<path style="fill:#EF5050;" d="M347.121,442.264C336.322,435.15,323.398,431,309.5,431c-2.284,0-4.54,0.118-6.767,0.337v38.505
	c0,1.65-1.238,2.463-2.752,1.806l-31.175-13.527c-0.572-0.249-1.105-0.674-1.546-1.194H244.74c-0.441,0.52-0.974,0.945-1.546,1.194
	l-31.174,13.527c-1.514,0.657-2.752-0.155-2.752-1.806v-38.505c-2.227-0.219-4.483-0.337-6.767-0.337
	c-13.898,0-26.821,4.15-37.621,11.264l-24.756,36.149V504.5h231.754v-26.087L347.121,442.264z"/>
<g>
	<path style="fill:#FFB98A;" d="M366.516,185.822h-9.295v35.958c0,12.438-2.26,24.356-6.383,35.374h15.678
		c12.762,0,23.107-10.346,23.107-23.107V208.93C389.622,196.168,379.276,185.822,366.516,185.822z"/>
	<path style="fill:#FFB98A;" d="M154.781,221.78v-35.958h-9.294c-12.763,0-23.108,10.346-23.108,23.107v25.117
		c0,12.762,10.346,23.107,23.108,23.107h15.677C157.04,246.137,154.781,234.219,154.781,221.78z"/>
</g>
<path style="fill:#FFC7A9;" d="M256,323c-55.813,0-101.22-45.407-101.22-101.22v-95.745c0-2.762,2.239-5,5-5h192.44
	c2.761,0,5,2.238,5,5v95.745C357.22,277.593,311.813,323,256,323z"/>
<path style="opacity:0.15;fill:#490089;enable-background:new    ;" d="M183.562,221.78v-6.304
	c-5.909-5.412-9.962-12.736-11.266-20.915c-0.163-1.024,0.214-2.059,0.997-2.738c3.097-2.686,6.575-4.78,10.269-6.254v-59.534
	c0-2.762,2.239-5,5-5h-28.78c-2.761,0-5,2.238-5,5v95.745C154.781,277.593,200.188,323,256,323c4.885,0,9.688-0.355,14.39-1.027
	C221.37,314.965,183.562,272.708,183.562,221.78z"/>
<path style="fill:#FFFFFF;" d="M316.461,222.754c-12.277,4.469-26.044,1.918-35.927-6.656c-0.783-0.68-1.16-1.715-0.997-2.738
	c2.06-12.92,10.966-23.725,23.243-28.193c12.277-4.468,26.044-1.916,35.928,6.657c0.783,0.679,1.16,1.714,0.997,2.738
	C337.645,207.482,328.74,218.286,316.461,222.754z"/>
<ellipse transform="matrix(0.342 0.9397 -0.9397 0.342 388.2124 -158.6793)" style="fill:#FFC7A9;" cx="307.412" cy="197.866" rx="13.529" ry="13.476"/>
<path style="fill:#FFFFFF;" d="M195.54,222.754c12.277,4.469,26.044,1.918,35.927-6.656c0.783-0.68,1.16-1.715,0.997-2.738
	c-2.06-12.92-10.966-23.725-23.243-28.193c-12.277-4.468-26.044-1.916-35.928,6.657c-0.783,0.679-1.16,1.714-0.997,2.738
	C174.355,207.482,183.262,218.286,195.54,222.754z"/>
<g>
	
		<ellipse transform="matrix(0.342 -0.9397 0.9397 0.342 -51.3196 322.4649)" style="fill:#046699;" cx="204.599" cy="197.878" rx="13.529" ry="13.476"/>
	
		<ellipse transform="matrix(0.342 0.9397 -0.9397 0.342 388.2124 -158.6793)" style="fill:#046699;" cx="307.412" cy="197.866" rx="13.529" ry="13.476"/>
</g>
<g>
	<rect x="222.62" y="340.02" style="fill:#C0272D;" width="66.768" height="17.977"/>
	<path style="fill:#C0272D;" d="M299.981,415.685l-31.175,13.525c-0.572,0.249-1.105,0.674-1.546,1.194h4.036v26.522h-4.036
		c0.441,0.52,0.974,0.945,1.546,1.194l31.175,13.527c1.514,0.657,2.752-0.155,2.752-1.806V417.49
		C302.733,415.84,301.495,415.027,299.981,415.685z"/>
	<path style="fill:#C0272D;" d="M240.031,456.926v-26.522h4.71c-0.441-0.521-0.974-0.945-1.546-1.194l-31.174-13.525
		c-1.514-0.657-2.752,0.155-2.752,1.806v52.352c0,1.65,1.238,2.463,2.752,1.806l31.174-13.527c0.572-0.249,1.104-0.674,1.546-1.194
		h-4.71V456.926z"/>
</g>
<rect x="240.031" y="430.4" style="fill:#EF5050;" width="31.27" height="26.521"/>
<path d="M300.215,178.118c-14.834,5.399-25.596,18.451-28.084,34.061c-0.575,3.607,0.73,7.189,3.489,9.584
	c7.5,6.507,16.989,10.241,26.88,10.62V253c0,4.143,3.358,7.5,7.5,7.5s7.5-3.357,7.5-7.5v-22.68c0.511-0.165,1.021-0.334,1.526-0.518
	c14.834-5.398,25.596-18.449,28.086-34.061c0.575-3.609-0.731-7.193-3.489-9.584c-7.923-6.872-18.064-10.657-28.555-10.657
	C309.987,175.5,304.99,176.381,300.215,178.118z M287.461,212.025c0.372-1.468,0.868-2.887,1.457-4.258
	c2.12,3.962,5.438,7.104,9.394,9.025C294.414,215.976,290.711,214.368,287.461,212.025z M309.471,203.546
	c-0.659,0.239-1.341,0.361-2.027,0.361h-0.001c-2.514,0-4.785-1.601-5.651-3.981c-1.136-3.122,0.455-6.578,3.544-7.709
	c0.003,0,0.006-0.002,0.009-0.003c0.001,0,0.002-0.001,0.003-0.001c0.658-0.238,1.338-0.36,2.024-0.36
	c2.514,0,4.785,1.601,5.651,3.984C314.161,198.96,312.567,202.419,309.471,203.546z M327.91,193.551
	c1.345,0.676,2.641,1.458,3.871,2.345c-0.999,3.946-2.819,7.581-5.284,10.7C328.309,202.602,328.865,198.047,327.91,193.551z"/>
<path d="M192.974,229.802c4.775,1.737,9.773,2.619,14.855,2.619c0.001,0,0.001,0,0.002,0c10.489,0,20.629-3.785,28.552-10.659
	c2.758-2.394,4.063-5.977,3.487-9.583c-2.488-15.609-13.25-28.661-28.085-34.061c-4.774-1.737-9.771-2.618-14.853-2.618
	c-10.49,0-20.631,3.785-28.552,10.655c-2.761,2.393-4.067,5.977-3.492,9.587C167.378,211.352,178.14,224.403,192.974,229.802z
	 M223.081,207.767c0.589,1.372,1.086,2.791,1.457,4.259c-3.25,2.343-6.952,3.95-10.85,4.768
	C217.646,214.87,220.963,211.73,223.081,207.767z M198.978,195.836c0.866-2.383,3.137-3.983,5.651-3.983
	c0.682,0,1.358,0.122,2.011,0.357c0.005,0.002,0.01,0.003,0.015,0.005c0.008,0.003,0.016,0.007,0.024,0.01
	c3.08,1.138,4.664,4.586,3.53,7.701c-0.867,2.382-3.138,3.982-5.65,3.982c-0.687,0-1.37-0.122-2.027-0.361
	C199.434,202.419,197.84,198.96,198.978,195.836z M184.09,193.55c-0.956,4.497-0.398,9.054,1.414,13.047
	c-2.466-3.119-4.287-6.755-5.286-10.701C181.45,195.008,182.745,194.227,184.09,193.55z"/>
<path d="M245.184,240.691c0,9.649,6.8,17.5,15.159,17.5H268c4.142,0,7.5-3.357,7.5-7.5s-3.358-7.5-7.5-7.5h-7.115
	c-0.267-0.352-0.702-1.181-0.702-2.5v-24.826c0-4.143-3.358-7.5-7.5-7.5c-4.142,0-7.5,3.357-7.5,7.5L245.184,240.691
	L245.184,240.691z"/>
<path d="M280.231,269.5h-48.462c-4.142,0-7.5,3.357-7.5,7.5s3.358,7.5,7.5,7.5h48.462c4.142,0,7.5-3.357,7.5-7.5
	S284.373,269.5,280.231,269.5z"/>
<path d="M180.777,165.286c34.895-8.51,50.233,13.748,50.938,14.807c1.436,2.206,3.838,3.408,6.292,3.408
	c1.389,0,2.794-0.386,4.049-1.192c3.484-2.239,4.493-6.88,2.253-10.364c-0.854-1.327-21.418-32.376-67.086-21.23
	c-4.024,0.981-6.491,5.039-5.509,9.063C172.696,163.801,176.752,166.271,180.777,165.286z"/>
<path d="M268.944,182.309c1.255,0.807,2.66,1.192,4.049,1.192c2.466,0,4.883-1.216,6.316-3.445
	c0.151-0.235,15.522-23.401,50.914-14.77c4.024,0.98,8.083-1.485,9.064-5.509c0.982-4.024-1.485-8.082-5.509-9.063
	c-45.669-11.142-66.233,19.902-67.086,21.23C264.451,175.429,265.46,180.069,268.944,182.309z"/>
<path d="M388.676,378.753V334c0-4.143-3.358-7.5-7.5-7.5s-7.5,3.357-7.5,7.5v36.891c-0.077-0.028-0.151-0.06-0.228-0.088
	c-6.674-10.395-18.328-17.303-31.572-17.303h-44.993v-30.986c26.45-10.775,47.735-31.673,59.017-57.859h10.613
	c2.466,0,4.863-0.301,7.162-0.854V297c0,4.143,3.358,7.5,7.5,7.5s7.5-3.357,7.5-7.5v-41.875c5.227-5.494,8.446-12.915,8.446-21.078
	V208.93c0-8.163-3.219-15.584-8.446-21.078v-55.175C388.676,59.519,329.158,0,256,0S123.325,59.519,123.325,132.677v55.176
	c-5.227,5.493-8.446,12.914-8.446,21.077v25.117c0,8.163,3.219,15.584,8.446,21.077v123.629
	c-16.519,11.644-27.324,30.787-27.324,52.407v10.58c0,5.266,3.618,9.691,8.5,10.967V465c0,4.785,3.22,8.823,7.604,10.084V499.5
	c0,6.893,5.607,12.5,12.5,12.5h52.396c4.142,0,7.5-3.357,7.5-7.5s-3.358-7.5-7.5-7.5h-29.377v-16.265l22.587-32.983
	c9.476-5.929,20.343-9.106,31.557-9.24v31.329c0,5.346,4.059,9.533,9.241,9.534c1.357,0,2.702-0.286,3.997-0.849L246.182,465
	c0.388-0.168,0.762-0.363,1.126-0.574h17.387c0.365,0.211,0.739,0.406,1.127,0.574l31.173,13.527
	c1.296,0.563,2.642,0.849,3.998,0.849c5.182,0,9.241-4.189,9.241-9.534v-31.329c11.214,0.134,22.081,3.311,31.557,9.24
	l22.587,32.983V497H215.999c-4.142,0-7.5,3.357-7.5,7.5s3.358,7.5,7.5,7.5h171.396c6.893,0,12.5-5.607,12.5-12.5v-24.416
	c4.384-1.261,7.604-5.299,7.604-10.084v-12.293c4.882-1.275,8.5-5.701,8.5-10.967v-10.58
	C416,409.54,405.195,390.397,388.676,378.753z M349.72,221.78c0,51.677-42.043,93.72-93.72,93.72s-93.72-42.043-93.72-93.72v-93.245
	h187.44V221.78z M230.117,332.523v-5.146c8.299,2.035,16.966,3.122,25.884,3.122c8.918,0,17.585-1.087,25.884-3.122v5.146H230.117z
	 M281.884,347.523v2.977h-51.768v-2.977H281.884z M382.122,208.93v25.117c0,8.605-7.001,15.607-15.607,15.607h-5.423
	c1.813-6.832,2.975-13.926,3.418-21.211h5.501c4.142,0,7.5-3.357,7.5-7.5s-3.358-7.5-7.5-7.5h-5.291v-20.121h1.795
	C375.121,193.322,382.122,200.324,382.122,208.93z M138.325,132.677C138.325,67.79,191.114,15,256,15s117.676,52.79,117.676,117.677
	v46.5c-2.299-0.554-4.695-0.855-7.162-0.855h-1.795v-52.287c0-6.893-5.607-12.5-12.5-12.5h-6.985V98.108c0-4.143-3.358-7.5-7.5-7.5
	s-7.5,3.357-7.5,7.5v15.427H317.99V98.108c0-4.143-3.358-7.5-7.5-7.5s-7.5,3.357-7.5,7.5v15.427h-12.245V98.108
	c0-4.143-3.358-7.5-7.5-7.5s-7.5,3.357-7.5,7.5v15.427H263.5V98.108c0-4.143-3.358-7.5-7.5-7.5c-4.142,0-7.5,3.357-7.5,7.5v15.427
	h-12.245V98.108c0-4.143-3.358-7.5-7.5-7.5s-7.5,3.357-7.5,7.5v15.427H209.01V98.108c0-4.143-3.358-7.5-7.5-7.5s-7.5,3.357-7.5,7.5
	v15.427h-12.245V98.108c0-4.143-3.358-7.5-7.5-7.5s-7.5,3.357-7.5,7.5v15.427h-6.985c-6.893,0-12.5,5.607-12.5,12.5v52.287h-1.794
	c-2.467,0-4.863,0.301-7.163,0.855v-46.5H138.325z M132.624,478.35c0,0.008,0,0.014,0,0.021v0.042V497h-5.519v-21.5h5.519V478.35z
	 M132.624,460.5h-13.123v-7.412h13.123V460.5z M132.624,391v47.088h-21.623v-6.928c0-16.855,8.583-31.748,21.635-40.627
	C132.633,390.69,132.624,390.844,132.624,391z M129.879,234.047V208.93c0-8.605,7.002-15.607,15.608-15.607h1.794v20.121h-5.291
	c-4.142,0-7.5,3.357-7.5,7.5s3.358,7.5,7.5,7.5h5.501c0.443,7.285,1.604,14.379,3.418,21.211h-5.422
	C136.881,249.654,129.879,242.652,129.879,234.047z M138.551,370.803c-0.077,0.027-0.151,0.06-0.228,0.088V263.8
	c2.299,0.554,4.696,0.854,7.163,0.854h10.612c11.282,26.188,32.567,47.085,59.018,57.859V353.5h-44.993
	C156.88,353.5,145.226,360.408,138.551,370.803z M232.531,454.572l-15.763,6.839V425.92l15.763,6.839V454.572z M215.007,408.805
	c-1.296-0.563-2.642-0.849-3.998-0.849c-5.182,0-9.241,4.188-9.241,9.534v6.023c-5.515,0.053-10.963,0.695-16.266,1.91l6.291-9.186
	c2.34-3.417,1.467-8.085-1.95-10.426c-3.417-2.339-8.085-1.467-10.426,1.951l-31.794,46.426V391c0-12.406,10.093-22.5,22.5-22.5
	h36.183l-4.974,7.263c-2.34,3.417-1.467,8.085,1.95,10.426c3.418,2.339,8.086,1.467,10.426-1.951l6.619-9.665l19.516,45.009
	L215.007,408.805z M263.796,449.426h-16.266v-11.522h16.267v11.522H263.796z M256,419.138L232.743,365.5h46.516L256,419.138z
	 M295.233,461.411l-16.437-7.132v-21.228l16.437-7.131V461.411z M310.233,423.514v-6.023c0-5.346-4.059-9.534-9.241-9.534
	c-1.356,0-2.702,0.286-3.996,0.849l-24.839,10.775l19.516-45.007l34.824,50.851C321.195,424.209,315.748,423.566,310.233,423.514z
	 M364.378,454.189L305.694,368.5h36.183c12.407,0,22.5,10.094,22.5,22.5V454.189z M384.896,497h-5.519v-18.587V475.5h5.519V497z
	 M392.5,460.5h-13.123v-7.412H392.5V460.5z M401,438.088h-21.623V391c0-0.156-0.01-0.31-0.012-0.467
	C392.417,399.412,401,414.305,401,431.16V438.088z"/>
<g>
</g>
<g>
</g>
<g>
</g>
<g>
</g>
<g>
</g>
<g>
</g>
<g>
</g>
<g>
</g>
<g>
</g>
<g>
</g>
<g>
</g>
<g>
</g>
<g>
</g>
<g>
</g>
<g>
</g>
</svg>
