<svg id="Layer_1" enable-background="new 0 0 512 512" height="512" viewBox="0 0 512 512" width="512" xmlns="http://www.w3.org/2000/svg"><g><g><path clip-rule="evenodd" d="m44.294 360.984 40.62-72.059-40.62-54.001h-18.397c-10.12 0-18.397 8.277-18.397 18.397v89.265c0 10.12 8.277 18.397 18.397 18.397h18.397z" fill="#365e7d" fill-rule="evenodd"/></g><g><path clip-rule="evenodd" d="m44.294 270.216v-35.292h-18.397v35.292 90.768h18.397z" fill="#2b4d66" fill-rule="evenodd"/></g><g><path clip-rule="evenodd" d="m61.812 168.96c-9.638-.028-17.518 7.881-17.518 17.519v174.506 28.829c0 9.638 7.88 17.519 17.518 17.519h425.169c9.581 0 17.461-7.824 17.518-17.405v-.113c0-30.332.085-60.691 0-91.023-.057-9.581-7.994-16.186-17.518-17.434l-86.457-11.14-41.953-70.84c-17.15-28.999-23.987-30.388-33.936-30.417-87.619-.143-175.714.141-262.823-.001z" fill="#dd636e" fill-rule="evenodd"/></g><g><path clip-rule="evenodd" d="m117.258 217.972c4.535-7.455-3.033-13.068-8.306-13.068h-64.658v30.02 35.292h31.011c10.743 0 15.307-8.589 16.809-11.027z" fill="#90d8f9" fill-rule="evenodd"/></g><g><path clip-rule="evenodd" d="m270.868 204.904h-100.687c-1.899 0-6.066.907-8.957 6.095l-25.087 45.1c-4.139 7.455 2.098 14.117 6.661 14.117h128.069v-40.905-24.407z" fill="#90d8f9" fill-rule="evenodd"/></g><g><path clip-rule="evenodd" d="m400.524 270.216-38.664-65.312h-90.992v24.407 40.905z" fill="#90d8f9" fill-rule="evenodd"/></g><g><path clip-rule="evenodd" d="m504.499 307.663h-37.049c-2.863 0-5.187 2.324-5.187 5.188v10.829c0 8.788 7.2 15.988 15.987 15.988h26.249z" fill="#90d8f9" fill-rule="evenodd"/></g><g><path clip-rule="evenodd" d="m465.721 407.332c0-32.004-25.965-57.97-57.969-57.97-32.031 0-57.969 25.966-57.969 57.97 0 32.032 25.937 57.97 57.969 57.97 32.004 0 57.969-25.938 57.969-57.97zm-57.968-23.954c13.21 0 23.953 10.744 23.953 23.953 0 13.238-10.743 23.953-23.953 23.953-13.238 0-23.953-10.715-23.953-23.953 0-13.209 10.715-23.953 23.953-23.953z" fill="#365e7d" fill-rule="evenodd"/></g><g><path clip-rule="evenodd" d="m431.706 407.332c0-13.21-10.743-23.953-23.953-23.953-13.238 0-23.953 10.744-23.953 23.953 0 13.238 10.715 23.953 23.953 23.953 13.209 0 23.953-10.715 23.953-23.953z" fill="#f9f6f6" fill-rule="evenodd"/></g><g><path clip-rule="evenodd" d="m166.836 401.521c0-13.238-10.715-23.953-23.953-23.953s-23.953 10.715-23.953 23.953c0 2.013.255 3.969.709 5.811 2.608 10.432 12.019 18.142 23.244 18.142s20.636-7.71 23.244-18.142c.454-1.843.709-3.799.709-5.811z" fill="#f9f6f6" fill-rule="evenodd"/></g><g><path clip-rule="evenodd" d="m200.852 401.521c0-32.004-25.965-57.97-57.969-57.97-32.032 0-57.969 25.966-57.969 57.97 0 1.956.085 3.912.283 5.811 2.92 29.283 27.638 52.159 57.685 52.159s54.765-22.876 57.685-52.159c.2-1.9.285-3.855.285-5.811zm-81.921 0c0-13.238 10.715-23.953 23.953-23.953s23.953 10.715 23.953 23.953c0 2.013-.255 3.969-.709 5.811-2.608 10.432-12.019 18.142-23.244 18.142s-20.636-7.71-23.244-18.142c-.454-1.843-.709-3.799-.709-5.811z" fill="#365e7d" fill-rule="evenodd"/></g><g><path clip-rule="evenodd" d="m187.614 46.698h-97.512c-7.682 0-13.975 6.265-13.975 13.947v13.947l60.491 16.328 64.97-16.328v-13.947c.001-7.682-6.292-13.947-13.974-13.947z" fill="#365e7d" fill-rule="evenodd"/></g><g><path clip-rule="evenodd" d="m358.572 199.376c-17.15-28.999-23.987-30.388-33.936-30.417h-27.518c8.787 1.701 19.814 12.303 34.752 35.944h29.991z" fill="#da4a54" fill-rule="evenodd"/></g><g><path clip-rule="evenodd" d="m486.981 281.357-86.457-11.14h-29.168l4.337 7.314c10.205 17.235 19.191 14.599 39.685 17.235l54.51 7.03c4.904.652 9.411 2.721 12.614 5.868h21.997v-8.759-.113c-.056-9.583-7.993-16.188-17.518-17.435z" fill="#da4a54" fill-rule="evenodd"/></g><g><path clip-rule="evenodd" d="m504.499 339.667v-32.004h-21.997c3.005 2.976 4.876 6.917 4.904 11.566v.113 1.758 18.567z" fill="#75cef8" fill-rule="evenodd"/></g><g><path clip-rule="evenodd" d="m504.499 389.813v-50.146h-17.093v33.11 34.555c9.411-.227 17.036-7.966 17.093-17.405z" fill="#da4a54" fill-rule="evenodd"/></g><g><path clip-rule="evenodd" d="m201.589 60.645c0-7.682-6.293-13.947-13.975-13.947h-36.283c7.682 0 13.946 6.265 13.946 13.947v13.947h36.312z" fill="#2b4d66" fill-rule="evenodd"/></g><g><path clip-rule="evenodd" d="m270.868 204.904h-100.687c-1.899 0-6.066.907-8.957 6.095l-7.965 14.344h100.545 17.065v-20.439z" fill="#75cef8" fill-rule="evenodd"/></g><g><path clip-rule="evenodd" d="m400.524 270.216-38.665-65.312h-29.991-61.002v20.438h62.731c12.869 0 14.995 6.463 21.515 17.434l16.243 27.44z" fill="#75cef8" fill-rule="evenodd"/></g><g><path clip-rule="evenodd" d="m108.953 204.904h-64.659v20.438h68.457l4.507-7.37c4.536-7.455-3.033-13.068-8.305-13.068z" fill="#75cef8" fill-rule="evenodd"/></g><g><path clip-rule="evenodd" d="m465.721 407.332c0-32.004-25.965-57.97-57.969-57.97-4.054 0-7.994.425-11.82 1.219 26.362 5.443 46.148 28.801 46.148 56.751 0 27.979-19.786 51.309-46.148 56.78 3.827.794 7.767 1.191 11.82 1.191 32.004-.001 57.969-25.939 57.969-57.971z" fill="#2b4d66" fill-rule="evenodd"/></g><g><path clip-rule="evenodd" d="m200.852 401.521c0-32.004-25.965-57.97-57.969-57.97-4.11 0-8.107.425-11.962 1.219 26.277 5.528 46.035 28.829 46.035 56.751 0 1.956-.113 3.912-.312 5.811-2.494 25.314-21.288 45.809-45.723 50.94 3.855.794 7.852 1.219 11.962 1.219 30.047 0 54.765-22.876 57.685-52.159.199-1.9.284-3.855.284-5.811z" fill="#2b4d66" fill-rule="evenodd"/></g><g><path clip-rule="evenodd" d="m166.836 401.521c0-13.238-10.715-23.953-23.953-23.953-3.572 0-6.973.794-10.035 2.183 8.249 3.799 13.946 12.104 13.946 21.771 0 2.013-.255 3.969-.709 5.811-1.786 7.115-6.718 12.955-13.238 15.96 3.061 1.389 6.463 2.183 10.035 2.183 11.225 0 20.636-7.71 23.244-18.142.455-1.845.71-3.801.71-5.813z" fill="#ecdaec" fill-rule="evenodd"/></g><g><path clip-rule="evenodd" d="m431.706 407.332c0-13.21-10.743-23.953-23.953-23.953-3.572 0-6.973.794-10.035 2.211 8.22 3.77 13.946 12.104 13.946 21.742 0 9.666-5.726 17.972-13.946 21.771 3.061 1.417 6.463 2.183 10.035 2.183 13.209-.001 23.953-10.716 23.953-23.954z" fill="#ecdaec" fill-rule="evenodd"/></g><g><path clip-rule="evenodd" d="m263.894 74.592h-62.306-125.461c-17.15 0-31.181 14.06-31.181 31.21v22.99c0 4.507 3.685 8.221 8.192 8.221h25.654 209.509 50.967c4.507 0 8.22-3.713 8.22-8.221 0-38.581-66.444-54.2-83.594-54.2z" fill="#f9f6f6" fill-rule="evenodd"/></g><g><path clip-rule="evenodd" d="m347.488 128.792c0-38.581-66.444-54.2-83.594-54.2h-36.283c17.15 0 83.594 15.619 83.594 54.2 0 4.507-3.713 8.221-8.22 8.221h36.284c4.506-.001 8.219-3.714 8.219-8.221z" fill="#ecdaec" fill-rule="evenodd"/></g><g><path d="m142.884 432.974c17.343 0 31.453-14.11 31.453-31.454s-14.11-31.454-31.453-31.454c-17.344 0-31.453 14.11-31.453 31.454s14.109 31.454 31.453 31.454zm0-47.906c9.071 0 16.452 7.381 16.452 16.453s-7.38 16.453-16.452 16.453-16.452-7.381-16.452-16.453 7.38-16.453 16.452-16.453z"/><path d="m487.94 273.918-82.826-10.673-40.085-67.687c-17.117-28.944-25.919-33.632-40.375-33.673l-26.216-.042v-17.329h40.83c8.669 0 15.721-7.052 15.721-15.721 0-19.556-13.729-36.282-39.702-48.368-19.762-9.196-41.949-13.333-51.392-13.333h-54.805v-6.446c0-11.826-9.634-21.447-21.476-21.447h-97.512c-11.842 0-21.476 9.621-21.476 21.447v7.183c-17.751 3.505-31.181 19.197-31.181 37.974v22.99c0 8.669 7.04 15.721 15.693 15.721h20.818v16.966l-12.122-.02c-.025 0-.049 0-.075 0-6.624 0-12.869 2.59-17.591 7.298-4.756 4.742-7.375 11.035-7.375 17.721v18.426 22.519h-10.896c-14.279-.001-25.897 11.617-25.897 25.897v89.265c0 14.28 11.618 25.898 25.897 25.898h10.896v21.329c0 13.796 11.223 25.019 25.018 25.019h16.966c6.167 29.739 32.566 52.159 64.106 52.159 31.539 0 57.938-22.419 64.105-52.159h47.665c4.142 0 7.501-3.358 7.501-7.501s-3.358-7.501-7.501-7.501h-46.344c-.902-35.321-29.893-63.782-65.426-63.782s-64.525 28.461-65.426 63.782h-15.645c-5.524 0-10.017-4.494-10.017-10.018v-28.829-83.267h23.511c9.56 0 17.287-4.783 22.967-14.217l25.394-41.63c3.085-5.072 3.3-10.747.588-15.571-2.945-5.238-9.237-8.896-15.302-8.896h-57.158v-10.925c0-2.67 1.053-5.191 2.966-7.098 1.889-1.883 4.374-2.92 7.01-2.92h.029 262.752c6.625.019 11.257.475 24.046 20.943h-178.417c-2.338 0-10.366.717-15.512 9.949l-25.09 45.106c-3.092 5.571-3.077 11.804.042 17.101 2.917 4.955 8.089 8.157 13.178 8.157h257.245l85.967 11.077c5.47.714 10.989 4.117 10.989 10.109v1.259h-29.55c-6.996 0-12.688 5.692-12.688 12.688v10.828c0 12.952 10.537 23.489 23.488 23.489h18.748v42.646c0 5.524-4.494 10.018-10.018 10.018h-14.202c-3.735-32.579-31.464-57.97-65.027-57.97s-61.292 25.391-65.026 57.97h-48.585c-4.142 0-7.501 3.358-7.501 7.501s3.358 7.501 7.501 7.501h48.586c3.735 32.579 31.464 57.97 65.026 57.97s61.292-25.391 65.027-57.97h14.202c13.795 0 25.019-11.223 25.019-25.019v-50.146-32.004-8.759c0-12.861-9.889-23.135-24.06-24.985zm-345.056 77.133c27.828 0 50.468 22.64 50.468 50.47s-22.64 50.47-50.468 50.47-50.468-22.64-50.468-50.47 22.639-50.47 50.468-50.47zm-116.987 2.432c-6.008 0-10.896-4.888-10.896-10.897v-89.265c0-6.009 4.888-10.897 10.896-10.897h10.896v27.792 83.267zm83.055-141.078c.628.004 1.802.639 2.162 1.141-.037.105-.112.279-.259.521l-25.126 41.188-.308.508c-2.174 3.611-4.905 6.953-10.115 6.953h-23.511v-27.792-22.519zm174.484-50.587-29.446-.048v-17.258h29.446zm-199.808-101.173c0-3.554 2.905-6.446 6.475-6.446h97.512c3.57 0 6.475 2.892 6.475 6.446v6.446h-110.462zm-30.49 68.867c-.355 0-.691-.35-.691-.72v-22.99c0-13.074 10.623-23.71 23.68-23.71h187.767c7.833 0 27.571 3.792 45.063 11.932 14.155 6.587 31.03 17.966 31.03 34.768 0 .363-.356.72-.72.72h-137.253c-4.142 0-7.501 3.358-7.501 7.501s3.358 7.501 7.501 7.501h36.975l-.013 17.062h-105.543v-17.062h33.97c4.142 0 7.501-3.358 7.501-7.501s-3.358-7.501-7.501-7.501zm35.819 15.001h29.474v17.038l-29.474-.048zm174.41 118.203h-120.117c-.271-.183-.689-.6-.876-1.139-.125-.36-.203-.895.318-1.832l25.083-45.095c1.16-2.082 2.336-2.236 2.406-2.246h93.186zm15.001-50.311h79.202l29.795 50.311h-108.997zm129.385 245.396c-27.828 0-50.468-22.64-50.468-50.47s22.64-50.47 50.468-50.47 50.468 22.64 50.468 50.47-22.64 50.47-50.468 50.47zm70.497-125.635c-4.68 0-8.487-3.807-8.487-8.487v-8.515h27.235v17.003h-18.748z"/><path d="m407.753 375.878c-17.343 0-31.453 14.11-31.453 31.454s14.11 31.454 31.453 31.454c17.344 0 31.453-14.11 31.453-31.454s-14.11-31.454-31.453-31.454zm0 47.907c-9.071 0-16.452-7.381-16.452-16.453s7.38-16.453 16.452-16.453 16.452 7.381 16.452 16.453-7.38 16.453-16.452 16.453z"/><path d="m309.861 300.774c0-4.142-3.358-7.501-7.501-7.501h-17.632c-4.142 0-7.501 3.358-7.501 7.501s3.358 7.501 7.501 7.501h17.632c4.143 0 7.501-3.358 7.501-7.501z"/><path d="m145.973 293.274c-4.142 0-7.501 3.358-7.501 7.501s3.358 7.501 7.501 7.501h17.603c4.142 0 7.501-3.358 7.501-7.501s-3.358-7.501-7.501-7.501z"/></g></g></svg>