<svg id="Capa_1" enable-background="new 0 0 512 512" height="512" viewBox="0 0 512 512" width="512" xmlns="http://www.w3.org/2000/svg"><g><path d="m448.507 157.209c-11.666-12.128-27.769-18.981-44.596-18.981h-101.744-223.121c-39.513 0-71.545 32.032-71.545 71.545v139.568h294.667v1.009h202.332v-110.001c0-15.997-6.195-31.372-17.284-42.9z" fill="#92e0c4"/><path d="m487.216 198.037-38.709-40.24c-11.666-12.128-27.769-18.981-44.596-18.981h-21.61c13.714 1.877 26.498 8.3 36.207 18.393l38.709 40.24c11.09 11.528 17.284 26.903 17.284 42.9v110.001l30 .588v-110.001c-.001-15.996-6.195-31.371-17.285-42.9z" fill="#77d1b3"/><path d="m504.5 317.639v-42.496h-29.191c-5.259 0-9.523 4.264-9.523 9.523v23.451c0 5.259 4.264 9.523 9.523 9.523h29.191z" fill="#faeaa3"/><g fill="#fff"><path d="m339.78 244.877h-61.797c-4.023 0-7.285-3.261-7.285-7.285v-39.914c0-4.023 3.262-7.285 7.285-7.285h61.797c4.023 0 7.285 3.261 7.285 7.285v39.914c0 4.024-3.261 7.285-7.285 7.285z"/><path d="m226.973 244.877h-61.797c-4.023 0-7.285-3.261-7.285-7.285v-39.914c0-4.023 3.261-7.285 7.285-7.285h61.797c4.023 0 7.285 3.261 7.285 7.285v39.914c0 4.024-3.261 7.285-7.285 7.285z"/><path d="m114.166 244.877h-61.796c-4.023 0-7.285-3.261-7.285-7.285v-39.914c0-4.023 3.262-7.285 7.285-7.285h61.797c4.023 0 7.285 3.261 7.285 7.285v39.914c-.001 4.024-3.263 7.285-7.286 7.285z"/><path d="m480.429 190.394h-92.802c-4.242 0-7.681 3.439-7.681 7.681v39.122c0 4.242 3.439 7.681 7.681 7.681h116.873v-4.529c0-15.997-6.195-31.372-17.284-42.9z"/></g><path d="m160.206 349.341h344.294v20.884c0 6.208-5.033 11.241-11.241 11.241h-474.518c-6.208 0-11.241-5.033-11.241-11.241v-20.884h72.706" fill="#e3e0e4"/><ellipse cx="405.164" cy="381.465" fill="#8c818f" rx="51.78" ry="51.471"/><ellipse cx="405.164" cy="381.465" fill="#c8c3ca" rx="18.167" ry="18.058"/><ellipse cx="121.451" cy="381.465" fill="#8c818f" rx="51.78" ry="51.471"/><ellipse cx="121.451" cy="381.465" fill="#c8c3ca" rx="18.167" ry="18.058"/><path d="m369.692 138.228h-247.384v-37.52l247.384-20z" fill="#fef6d6"/><path d="m339.78 190.394h-30c4.023 0 7.285 3.261 7.285 7.285v39.914c0 4.023-3.261 7.285-7.285 7.285h30c4.023 0 7.285-3.261 7.285-7.285v-39.914c0-4.024-3.261-7.285-7.285-7.285z" fill="#e7e7e7"/><path d="m226.973 190.394h-30c4.023 0 7.285 3.261 7.285 7.285v39.914c0 4.023-3.262 7.285-7.285 7.285h30c4.023 0 7.285-3.261 7.285-7.285v-39.914c0-4.024-3.261-7.285-7.285-7.285z" fill="#e7e7e7"/><path d="m114.166 190.394h-30c4.023 0 7.285 3.261 7.285 7.285v39.914c0 4.023-3.261 7.285-7.285 7.285h30c4.023 0 7.285-3.261 7.285-7.285v-39.914c0-4.024-3.262-7.285-7.285-7.285z" fill="#e7e7e7"/><path d="m487.216 197.449-6.786-7.055h-30l6.786 7.055c11.09 11.528 17.284 26.904 17.284 42.9v4.529h30v-4.529c0-15.997-6.194-31.372-17.284-42.9z" fill="#e7e7e7"/><path d="m405.164 329.994c-5.217 0-10.251.775-15 2.202 21.281 6.394 36.78 26.029 36.78 49.269s-15.499 42.875-36.78 49.269c4.749 1.427 9.783 2.202 15 2.202 28.597 0 51.78-23.044 51.78-51.471.001-28.426-23.182-51.471-51.78-51.471z" fill="#766d78"/><path d="m121.451 329.994c-5.217 0-10.251.775-15 2.202 21.281 6.394 36.78 26.029 36.78 49.269s-15.499 42.875-36.78 49.269c4.749 1.427 9.783 2.202 15 2.202 28.597 0 51.78-23.044 51.78-51.471 0-28.426-23.183-51.471-51.78-51.471z" fill="#766d78"/><path d="m339.692 83.133v55.095h30v-57.52z" fill="#faeaa3"/><path d="m492.622 192.249-38.709-40.24c-13.01-13.525-31.235-21.282-50.002-21.282h-26.718v-43.101l13.434-1.086c4.129-.334 7.205-3.951 6.871-8.08-.334-4.128-3.95-7.203-8.08-6.871l-285.64 23.092c-4.128.334-7.205 3.951-6.871 8.08.317 3.923 3.599 6.896 7.467 6.896.203 0 .407-.008.613-.025l9.821-.794v21.89h-35.763c-43.585 0-79.045 35.46-79.045 79.045v160.452c0 10.334 8.407 18.741 18.741 18.741h43.926c3.717 28.986 28.652 51.471 58.784 51.471s55.066-22.485 58.784-51.471h60.464c4.142 0 7.5-3.358 7.5-7.5s-3.358-7.5-7.5-7.5h-60.464c-.775-6.04-2.467-11.794-4.94-17.125h176.026c-2.473 5.33-4.166 11.085-4.94 17.125h-75.681c-4.143 0-7.5 3.358-7.5 7.5s3.357 7.5 7.5 7.5h75.681c3.717 28.986 28.652 51.471 58.784 51.471s55.067-22.485 58.784-51.471h29.311c10.334 0 18.741-8.407 18.741-18.741v-129.876c-.001-18.026-6.882-35.107-19.379-48.1zm4.378 117.89h-21.691c-1.115 0-2.023-.907-2.023-2.023v-23.451c0-1.116.907-2.023 2.023-2.023h21.691zm-.086-72.761h-109.287c-.1 0-.181-.081-.181-.181v-39.122c0-.1.081-.181.181-.181h89.61l4.573 4.754c9.106 9.466 14.402 21.704 15.104 34.73zm-481.914 132.847v-13.384h52.607c-2.473 5.33-4.165 11.085-4.94 17.125h-43.926c-2.063 0-3.741-1.678-3.741-3.741zm106.451 55.211c-24.416 0-44.28-19.725-44.28-43.971s19.864-43.971 44.28-43.971 44.28 19.725 44.28 43.971-19.864 43.971-44.28 43.971zm43.866-83.595c-10.852-11.878-26.499-19.346-43.867-19.346s-33.014 7.469-43.867 19.346h-62.583v-132.068c0-35.315 28.73-64.045 64.045-64.045h146.955c4.142 0 7.5-3.358 7.5-7.5s-3.358-7.5-7.5-7.5h-96.192v-23.103l232.385-18.787v41.89h-106.193c-4.142 0-7.5 3.358-7.5 7.5s3.358 7.5 7.5 7.5h147.91c14.71 0 28.994 6.08 39.191 16.681l19.706 20.485h-75.181c-8.371 0-15.181 6.81-15.181 15.181v39.122c0 8.371 6.81 15.181 15.181 15.181h109.374v15.265h-21.691c-9.386 0-17.023 7.637-17.023 17.023v23.451c0 9.386 7.637 17.023 17.023 17.023h21.691v16.702h-47.47c-.161 0-.319.014-.477.024-10.853-11.892-26.509-19.371-43.888-19.371-17.368 0-33.015 7.469-43.867 19.346zm239.848 83.595c-24.416 0-44.28-19.725-44.28-43.971s19.864-43.971 44.28-43.971 44.28 19.725 44.28 43.971-19.864 43.971-44.28 43.971zm91.835-55.211c0 2.063-1.679 3.741-3.741 3.741h-29.311c-.775-6.04-2.467-11.794-4.94-17.125h37.992z"/><path d="m339.781 182.894h-61.797c-8.152 0-14.784 6.632-14.784 14.785v39.914c0 8.152 6.632 14.785 14.784 14.785h61.797c8.152 0 14.784-6.633 14.784-14.785v-39.914c0-8.153-6.632-14.785-14.784-14.785zm-.216 54.484h-61.365v-39.484h61.365z"/><path d="m226.973 182.894h-61.796c-8.152 0-14.785 6.632-14.785 14.785v39.914c0 8.152 6.632 14.785 14.785 14.785h61.796c8.152 0 14.785-6.633 14.785-14.785v-39.914c0-8.153-6.632-14.785-14.785-14.785zm-.215 54.484h-61.366v-39.484h61.366z"/><path d="m114.166 182.894h-61.796c-8.152 0-14.785 6.632-14.785 14.785v39.914c0 8.152 6.632 14.785 14.785 14.785h61.796c8.152 0 14.785-6.633 14.785-14.785v-39.914c0-8.153-6.633-14.785-14.785-14.785zm-.215 54.484h-61.366v-39.484h61.366z"/><path d="m385.303 282.642h15.652c4.143 0 7.5-3.358 7.5-7.5s-3.357-7.5-7.5-7.5h-15.652c-4.143 0-7.5 3.358-7.5 7.5s3.358 7.5 7.5 7.5z"/><path d="m405.165 355.907c-14.152 0-25.667 11.465-25.667 25.558s11.515 25.558 25.667 25.558 25.667-11.465 25.667-25.558-11.515-25.558-25.667-25.558zm0 36.117c-5.882 0-10.667-4.737-10.667-10.558 0-5.822 4.785-10.558 10.667-10.558s10.667 4.737 10.667 10.558-4.786 10.558-10.667 10.558z"/><path d="m121.451 355.907c-14.152 0-25.666 11.465-25.666 25.558s11.514 25.558 25.666 25.558c14.153 0 25.667-11.465 25.667-25.558s-11.514-25.558-25.667-25.558zm0 36.117c-5.881 0-10.666-4.737-10.666-10.558 0-5.822 4.785-10.558 10.666-10.558 5.882 0 10.667 4.737 10.667 10.558s-4.786 10.558-10.667 10.558z"/></g></svg>