<?xml version="1.0" encoding="iso-8859-1"?>
<!-- Generator: Adobe Illustrator 19.0.0, SVG Export Plug-In . SVG Version: 6.00 Build 0)  -->
<svg version="1.1" id="Capa_1" xmlns="http://www.w3.org/2000/svg" xmlns:xlink="http://www.w3.org/1999/xlink" x="0px" y="0px"
	 viewBox="0 0 512 512" style="enable-background:new 0 0 512 512;" xml:space="preserve">
<g>
	<path style="fill:#FFC502;" d="M355.748,108h-5.586l-1.73,2.207v22.367h7.316c6.785,0,12.285-5.502,12.285-12.287
		C368.034,113.502,362.534,108,355.748,108z"/>
	<path style="fill:#FFC502;" d="M145.995,110.207L144.264,108h-5.584c-6.785,0-12.287,5.502-12.287,12.287
		s5.502,12.287,12.287,12.287h7.315V110.207z"/>
</g>
<g>
	<path style="fill:#046699;" d="M267.77,473.09l-13.846-58.432h-13.418l-14.439,60.926l4.336,26.396
		c0.221,1.346,0.032,2.176-0.45,2.432c0.001,0,0.001,0,0.001,0l0.018,0.088h34.484l0.038-0.186c0.001-0.001,0.002-0.001,0.002-0.001
		c-1.179,0.588-1.813-0.258-1.472-2.332L267.77,473.09z"/>
	<path style="fill:#046699;" d="M248.803,366.775c-1.654-2.197-4.26-2.125-5.79,0.16l-16.549,24.715l11.884,23.008h17.732
		l11.71-22.67L248.803,366.775z"/>
</g>
<path style="fill:#FFFFFF;" d="M279.332,402.709l13.87-84.427c-13.799,7.051-29.43,11.028-45.989,11.028
	c-17,0-33.018-4.198-47.084-11.603l13.48,82.057l0.936,1.587c1.396,2.369,3.791,2.439,5.321,0.153l23.146-34.568
	c1.53-2.285,4.136-2.357,5.79-0.16l26.273,34.889C276.307,403.298,277.989,403.626,279.332,402.709z"/>
<path style="fill:#FFB98A;" d="M247.213,329.31c-10.951,0-21.494-1.746-31.372-4.964c-0.423,0.63-0.683,1.414-0.683,2.333v8.84
	c0,2.75,1.824,6.317,4.054,7.927l23.947,17.285c2.229,1.609,5.878,1.609,8.107,0l23.947-17.285c2.23-1.609,4.054-5.177,4.054-7.927
	v-8.84c0-0.919-0.26-1.703-0.683-2.333C268.707,327.565,258.165,329.31,247.213,329.31z"/>
<path style="fill:#203A74;" d="M227.699,503.357l-81.971-82.932c-1.933-1.956-1.702-4.89,0.514-6.518l26.943-19.805
	c2.216-1.628,2.158-4.212-0.128-5.74l-28.688-19.18c-0.371-0.248-0.687-0.553-0.975-0.879h-20.432c-1.65,0-3-1.35-3-3v-10.057
	h-10.107c-8.25,0-15,6.75-15,15V494.5c0,5.5,4.5,10,10,10H229.97l-0.018-0.088C229.464,504.673,228.672,504.344,227.699,503.357z"/>
<path style="opacity:0.15;fill:#490089;enable-background:new    ;" d="M124.887,494.5V370.248c0-0.66,0.058-1.306,0.142-1.943
	h-2.066c-1.65,0-3-1.35-3-3v-10.057h-10.107c-8.25,0-15,6.75-15,15V494.5c0,5.5,4.5,10,10,10h30.031
	C129.387,504.5,124.887,500,124.887,494.5z"/>
<path style="fill:#203A74;" d="M399.571,370.248c0-8.25-6.75-15-15-15h-10.107v10.057c0,1.65-1.35,3-3,3h-21.431l-0.003,0.003
	c-0.116,0.132-0.237,0.258-0.368,0.378c-0.188,0.18-0.384,0.351-0.605,0.498l-28.688,19.18c-2.286,1.528-2.344,4.112-0.128,5.74
	l26.943,19.805c2.216,1.628,2.446,4.561,0.514,6.518l-36.458,36.886h39.359l-9.935,9.934c-1.166,1.167-1.166,3.075,0,4.242
	l6.422,6.422h-38.557c-1.65,0-3.557-1.23-4.236-2.733l-3.362-7.434l-35.203,35.615c-0.225,0.228-0.438,0.417-0.643,0.575
	c-0.005,0.003-0.009,0.007-0.013,0.011c-0.204,0.157-0.396,0.278-0.576,0.368c0,0-0.002,0.001-0.003,0.002l-0.038,0.186H389.57
	c5.5,0,10-4.5,10-10V477.91h-32.303l6.422-6.422c1.167-1.167,1.166-3.075,0-4.242l-9.934-9.934h35.814v-87.064H399.571z"/>
<g>
	<path style="fill:#046699;" d="M142.644,362.035l10.758-19.34h-30.439c-1.65,0-3,1.35-3,3v19.609c0,1.65,1.35,3,3,3h20.432
		C141.903,366.62,141.524,364.048,142.644,362.035z"/>
	<path style="fill:#046699;" d="M371.463,342.695h-31.438l10.758,19.34c1.12,2.013,0.741,4.585-0.75,6.27h21.431c1.65,0,3-1.35,3-3
		v-19.609C374.463,344.045,373.114,342.695,371.463,342.695z"/>
	<path style="fill:#046699;" d="M200.129,317.707c-8.492-4.472-16.273-10.111-23.124-16.712c-0.486,0.413-0.909,0.9-1.223,1.465
		l-33.139,59.575c-1.337,2.402-0.561,5.62,1.726,7.148l28.688,19.18c2.286,1.528,2.344,4.112,0.128,5.74l-26.943,19.805
		c-2.216,1.628-2.446,4.561-0.514,6.518l81.971,82.932c1.933,1.956,3.149,1.336,2.704-1.377L200.129,317.707z"/>
	<path style="fill:#046699;" d="M297.45,460.045c-0.68-1.504,0.113-2.733,1.764-2.733h12.027l36.458-36.886
		c1.933-1.956,1.702-4.89-0.514-6.518l-26.943-19.805c-2.216-1.628-2.158-4.212,0.128-5.74l28.688-19.18
		c2.286-1.528,3.063-4.746,1.726-7.148l-33.139-59.575c-0.2-0.359-0.451-0.68-0.726-0.979c-7.023,6.674-15.004,12.351-23.716,16.802
		L263.024,501.98c-0.445,2.713,0.772,3.333,2.704,1.377l35.203-35.615L297.45,460.045z"/>
</g>
<g>
	<path style="fill:#FFC502;" d="M340.664,471.487c-1.166-1.167-1.166-3.075,0-4.242l9.935-9.934h-51.386
		c-1.65,0-2.443,1.229-1.764,2.733l6.844,15.131c0.68,1.504,2.586,2.733,4.236,2.733h38.557L340.664,471.487z"/>
	<path style="fill:#FFC502;" d="M415.141,457.311h-51.385l9.934,9.934c1.166,1.167,1.167,3.075,0,4.242l-6.422,6.422h38.559
		c1.65,0,3.557-1.23,4.236-2.733l6.842-15.131C417.584,458.542,416.791,457.311,415.141,457.311z"/>
</g>
<path style="fill:#FCDB67;" d="M340.664,471.487c-1.166-1.167-1.166-3.075,0-4.242l14.393-14.391c1.166-1.167,3.076-1.167,4.242,0
	l14.391,14.391c1.166,1.167,1.167,3.075,0,4.242l-14.391,14.392c-1.167,1.166-3.076,1.167-4.242,0L340.664,471.487z"/>
<path style="fill:#203A74;" d="M381.498,45.391L261.577,9.283c-7.9-2.378-20.826-2.378-28.726,0L112.931,45.39
	c-7.9,2.378-10.198,9.637-5.108,16.129l38.173,48.688v-0.074h202.437v0.074l38.175-48.688
	C391.697,55.026,389.399,47.769,381.498,45.391z"/>
<path style="opacity:0.15;fill:#490089;enable-background:new    ;" d="M145.995,110.133h38.219
	c-0.621-0.643-1.215-1.297-1.738-1.965l-45.27-57.738c-3.063-3.908-3.854-8.047-2.67-11.544l-21.605,6.505
	c-7.9,2.378-10.198,9.637-5.108,16.129l38.173,48.688L145.995,110.133L145.995,110.133z"/>
<g>
	<path style="fill:#FFB98A;" d="M145.995,228.09V181h-11.866c-13.059,0-23.645,10.587-23.645,23.645v25.701
		c0,13.059,10.586,23.646,23.645,23.646h15.216C147.163,245.724,145.995,237.044,145.995,228.09z"/>
	<path style="fill:#FFB98A;" d="M360.297,181h-11.865v47.09c0,8.954-1.168,17.634-3.351,25.902h15.216
		c13.061,0,23.645-10.587,23.645-23.646v-25.701C383.942,191.587,373.358,181,360.297,181z"/>
</g>
<path style="fill:#FFC7A9;" d="M324.084,156.467c-21.376,13.117-47.996,20.907-76.871,20.907c-28.869,0-55.483-7.787-76.857-20.901
	c0.034,0.021,0.067,0.043,0.102,0.064L145.995,181v47.09c0,55.902,45.318,101.221,101.219,101.221
	c55.902,0,101.219-45.318,101.219-101.221V181l-24.462-24.462C324.008,156.515,324.045,156.49,324.084,156.467z"/>
<g style="opacity:0.15;">
	<path style="fill:#330068;" d="M175.002,228.09v-68.9c-1.574-0.879-3.124-1.783-4.646-2.718c0.034,0.021,0.067,0.043,0.102,0.064
		L145.995,181v47.09c0,55.902,45.318,101.221,101.219,101.221c4.926,0,9.767-0.359,14.504-1.039
		C212.689,321.235,175.002,279.066,175.002,228.09z"/>
</g>
<g style="opacity:0.15;">
	<path style="fill:#330068;" d="M339.458,145.354c0.686-0.582,1.362-1.171,2.031-1.766
		C340.821,144.183,340.144,144.771,339.458,145.354z"/>
	<path style="fill:#330068;" d="M339.1,145.654c-0.656,0.552-1.318,1.1-1.988,1.64C337.783,146.754,338.444,146.206,339.1,145.654z"
		/>
	<path style="fill:#330068;" d="M336.491,147.786c0.03-0.024,0.062-0.048,0.092-0.073
		C336.552,147.738,336.52,147.762,336.491,147.786L336.491,147.786z"/>
	<path style="fill:#330068;" d="M154.987,145.367c-0.698-0.592-1.387-1.191-2.067-1.797
		C153.6,144.176,154.288,144.775,154.987,145.367z"/>
	<path style="fill:#330068;" d="M150.644,141.492c0.678,0.636,1.363,1.265,2.06,1.887
		C152.008,142.757,151.321,142.128,150.644,141.492z"/>
	<path style="fill:#330068;" d="M343.778,141.498c-0.671,0.63-1.351,1.253-2.04,1.869
		C342.427,142.751,343.107,142.128,343.778,141.498z"/>
	<path style="fill:#330068;" d="M157.333,147.308c-0.689-0.555-1.368-1.116-2.042-1.685
		C155.965,146.19,156.644,146.753,157.333,147.308z"/>
	<path style="fill:#330068;" d="M157.937,147.786h0.002c-0.05-0.04-0.101-0.078-0.15-0.117
		C157.838,147.708,157.888,147.747,157.937,147.786z"/>
</g>
<g>
	<path style="fill:#775436;" d="M145.995,141.419V181l24.463-24.463c-7.277-4.454-13.945-9.526-19.892-15.118H145.995z"/>
	<path style="fill:#775436;" d="M323.97,156.538L348.432,181v-39.581h-4.569C337.914,147.011,331.247,152.083,323.97,156.538z"/>
</g>
<path style="fill:#203A74;" d="M150.564,141.419c23.398,22.007,58.007,35.955,96.649,35.955c38.645,0,73.253-13.948,96.651-35.955
	H150.564z"/>
<g>
	<ellipse style="fill:#9EA7AF;" cx="191.559" cy="224.78" rx="13.477" ry="13.529"/>
	<ellipse style="fill:#9EA7AF;" cx="297.729" cy="224.78" rx="13.477" ry="13.529"/>
	<rect x="145.999" y="110.13" style="fill:#9EA7AF;" width="202.44" height="31.29"/>
</g>
<g style="opacity:0.15;">
	<rect x="145.999" y="110.13" style="fill:#3D0072;" width="29.01" height="31.29"/>
</g>
<g>
	<path style="fill:#FFC502;" d="M230.702,71.887c-1.167-1.166-1.166-3.076,0-4.242l9.934-9.934h-51.385
		c-1.65,0-2.443,1.23-1.764,2.733l6.842,15.131c0.68,1.503,2.586,2.733,4.236,2.733h38.559L230.702,71.887z"/>
	<path style="fill:#FFC502;" d="M305.178,57.711h-51.386l9.935,9.934c1.166,1.166,1.166,3.075,0,4.242l-6.422,6.422h38.557
		c1.65,0,3.557-1.23,4.236-2.733l6.844-15.131C307.621,58.941,306.829,57.711,305.178,57.711z"/>
</g>
<path style="fill:#FCDB67;" d="M230.702,71.887c-1.167-1.166-1.166-3.076,0-4.242l14.391-14.391c1.166-1.166,3.076-1.166,4.242,0
	l14.393,14.391c1.166,1.166,1.166,3.075,0,4.242l-14.393,14.392c-1.166,1.167-3.075,1.167-4.242,0L230.702,71.887z"/>
<path d="M305.178,50.211h-48.279l-2.261-2.261c-1.981-1.98-4.617-3.07-7.425-3.07s-5.443,1.09-7.425,3.07l-2.261,2.261H189.25
	c-3.334,0-6.346,1.584-8.058,4.236c-1.712,2.653-1.913,6.05-0.54,9.087l6.842,15.132c1.902,4.205,6.454,7.143,11.07,7.143h35.451
	l5.772,5.773c1.981,1.98,4.618,3.071,7.425,3.071c2.809,0,5.446-1.092,7.424-3.071l5.773-5.773h35.451
	c4.616,0,9.168-2.938,11.07-7.143l6.844-15.131c1.373-3.038,1.172-6.435-0.54-9.088C311.524,51.795,308.512,50.211,305.178,50.211z
	 M222.377,70.809h-21.973l-2.531-5.598h25.498c-0.676,1.403-1.045,2.948-1.045,4.554C222.327,70.115,222.344,70.464,222.377,70.809z
	 M247.213,77.793l-8.026-8.027l8.026-8.026l8.028,8.026L247.213,77.793z M294.023,70.809h-21.976
	c0.188-1.902-0.149-3.842-0.994-5.598h25.501L294.023,70.809z"/>
<path d="M238.621,208.852c-4.143,0-7.5,3.358-7.5,7.5v28.369c0,9.649,7.282,17.5,16.234,17.5h8.734c4.143,0,7.5-3.357,7.5-7.5
	s-3.357-7.5-7.5-7.5h-8.734c-0.298,0-1.234-0.914-1.234-2.5v-28.369C246.121,212.21,242.764,208.852,238.621,208.852z"/>
<path d="M218.516,204.045c2.93-2.929,2.93-7.678,0.001-10.606c-7.205-7.206-16.779-11.175-26.959-11.175
	s-19.754,3.969-26.959,11.175c-2.929,2.929-2.929,7.678,0.001,10.606c2.928,2.928,7.677,2.929,10.606-0.001
	c4.372-4.372,10.179-6.78,16.352-6.78s11.98,2.408,16.352,6.78c1.465,1.465,3.384,2.197,5.304,2.197
	C215.132,206.241,217.052,205.509,218.516,204.045z"/>
<path d="M324.687,204.044c2.929-2.929,2.929-7.678-0.001-10.606c-7.206-7.205-16.78-11.174-26.96-11.174
	s-19.754,3.969-26.959,11.175c-2.929,2.929-2.929,7.678,0.001,10.606c2.928,2.928,7.677,2.929,10.607-0.001
	c4.372-4.372,10.179-6.78,16.352-6.78s11.982,2.408,16.354,6.781c1.464,1.464,3.384,2.196,5.303,2.196
	C321.302,206.241,323.222,205.509,324.687,204.044z"/>
<path d="M191.559,203.749c-11.566,0-20.977,9.434-20.977,21.028c0,11.596,9.41,21.029,20.977,21.029s20.977-9.434,20.977-21.029
	C212.536,213.183,203.125,203.749,191.559,203.749z M191.559,230.807c-3.296,0-5.977-2.705-5.977-6.029s2.681-6.028,5.977-6.028
	s5.977,2.704,5.977,6.028S194.855,230.807,191.559,230.807z"/>
<path d="M318.704,224.777c0-11.595-9.41-21.028-20.977-21.028c-11.566,0-20.977,9.434-20.977,21.028
	c0,11.596,9.41,21.029,20.977,21.029C309.293,245.807,318.704,236.373,318.704,224.777z M291.75,224.777
	c0-3.324,2.681-6.028,5.977-6.028s5.977,2.704,5.977,6.028s-2.681,6.029-5.977,6.029C294.431,230.807,291.75,228.102,291.75,224.777
	z"/>
<path d="M423.199,454.048c-1.712-2.652-4.724-4.236-8.058-4.236h-8.07V429c0-4.143-3.357-7.5-7.5-7.5s-7.5,3.357-7.5,7.5v20.811
	h-25.208l-2.258-2.258c-1.98-1.982-4.618-3.074-7.427-3.074s-5.446,1.092-7.424,3.071l-2.261,2.261h-18.294l23.835-24.114
	c2.455-2.484,3.709-5.854,3.44-9.246c-0.268-3.391-2.035-6.521-4.847-8.586l-22.355-16.432l23.376-15.629h18.815
	c5.79,0,10.5-4.71,10.5-10.5v-2.557h2.607c4.136,0,7.5,3.364,7.5,7.5V391c0,4.143,3.357,7.5,7.5,7.5s7.5-3.357,7.5-7.5v-20.752
	c0-12.406-10.094-22.5-22.5-22.5h-2.607v-2.053c0-5.79-4.71-10.5-10.5-10.5h-27.028l-18.103-32.545
	c0.833-0.883,1.655-1.777,2.461-2.691c2.739-3.107,2.44-7.847-0.666-10.586c-3.108-2.74-7.848-2.441-10.586,0.666
	c-17.801,20.191-43.434,31.771-70.327,31.771c-51.677,0-93.719-42.043-93.719-93.721v-43.983l18.177-18.177
	c22.08,12.235,48.292,18.944,75.542,18.944s53.463-6.709,75.543-18.943l18.176,18.176v43.983c0,10.108-1.599,20.05-4.75,29.549
	c-1.305,3.932,0.825,8.176,4.756,9.48c3.932,1.307,8.176-0.824,9.48-4.756c0.096-0.289,0.177-0.582,0.27-0.871h9.609
	c17.173,0,31.145-13.972,31.145-31.145v-25.701c0-17.174-13.972-31.145-31.145-31.145h-4.365v-33.436
	c10.824-0.1,19.602-8.928,19.602-19.777c0-7.924-4.692-14.752-11.435-17.905l28.41-36.235c3.979-5.076,5.278-11.09,3.564-16.501
	c-1.714-5.409-6.238-9.578-12.413-11.437L263.738,2.102C259.236,0.746,253.367,0,247.213,0c-6.153,0-12.022,0.746-16.525,2.102
	L110.769,38.209c-6.176,1.858-10.7,6.027-12.414,11.438c-1.714,5.411-0.415,11.425,3.564,16.501l28.409,36.234
	c-6.743,3.153-11.436,9.981-11.436,17.905c0,10.849,8.776,19.677,19.602,19.777V173.5h-4.365c-17.173,0-31.145,13.972-31.145,31.145
	v25.701c0,17.174,13.972,31.145,31.145,31.145h9.621c4.923,15.211,13.135,28.942,23.764,40.404l-18.523,33.299h-26.027
	c-5.79,0-10.5,4.71-10.5,10.5v2.053h-2.607c-12.406,0-22.5,10.094-22.5,22.5V494.5c0,9.649,7.851,17.5,17.5,17.5h114.357h10.758
	h34.484h10.758h0.02h114.338c9.649,0,17.5-7.851,17.5-17.5v-9.169c4.17-0.47,8.096-3.238,9.826-7.065l6.842-15.13
	C425.112,460.098,424.911,456.701,423.199,454.048z M366.963,350.195v10.609h-8.599c-0.257-0.825-0.594-1.636-1.027-2.415
	l-4.559-8.194H366.963z M153.495,162.894v-9.05c1.685,1.334,3.409,2.627,5.168,3.882L153.495,162.894z M247.213,169.874
	c-27.486,0-53.699-7.486-74.785-20.955H322C300.914,162.388,274.701,169.874,247.213,169.874z M340.932,162.894l-5.167-5.167
	c1.759-1.255,3.482-2.548,5.167-3.881V162.894z M340.932,133.919H153.495v-16.286h187.437L340.932,133.919L340.932,133.919z
	 M360.297,188.5c8.902,0,16.145,7.243,16.145,16.145v25.701c0,8.902-7.242,16.146-16.145,16.146h-5.933
	c1.032-6.052,1.567-12.199,1.567-18.402v-3.639h5.291c4.143,0,7.5-3.357,7.5-7.5s-3.357-7.5-7.5-7.5h-5.291V188.5H360.297z
	 M355.932,125.056v-9.537c2.552,0.099,4.602,2.191,4.602,4.769C360.534,122.864,358.484,124.957,355.932,125.056z M133.893,120.287
	c0-2.576,2.05-4.668,4.602-4.769v9.537C135.943,124.955,133.893,122.863,133.893,120.287z M134.129,246.492
	c-8.902,0-16.145-7.243-16.145-16.146v-25.701c0-8.902,7.242-16.145,16.145-16.145h4.365v20.951h-5.291c-4.143,0-7.5,3.357-7.5,7.5
	s3.357,7.5,7.5,7.5h5.291v3.639c0,6.271,0.541,12.418,1.565,18.402H134.129z M113.724,56.892c-0.949-1.21-1.222-2.236-1.069-2.715
	c0.151-0.479,0.964-1.161,2.438-1.604l119.919-36.107c3.094-0.931,7.541-1.465,12.202-1.465c4.66,0,9.108,0.534,12.201,1.465
	l119.922,36.107c1.474,0.443,2.286,1.125,2.438,1.604c0.152,0.479-0.12,1.505-1.069,2.716l-35.864,45.741H149.586L113.724,56.892z
	 M357.178,461.34l8.026,8.026l-8.026,8.027l-8.028-8.027L357.178,461.34z M333.338,464.811c-0.844,1.756-1.181,3.695-0.992,5.598
	h-21.977l-2.531-5.598H333.338z M280.601,348.725l-6.447,39.246l-16.837-22.356l22.287-16.087
	C279.946,349.281,280.276,349.008,280.601,348.725z M258.963,392.734l-7.45,14.424h-8.598l-7.755-15.015l10.993-16.419
	L258.963,392.734z M222.659,333.992c7.895,1.83,16.11,2.818,24.555,2.818c8.34,0,16.571-0.969,24.557-2.822v1.468
	c-0.049,0.515-0.607,1.606-0.945,1.909l-23.611,17.043l-23.561-17.004c-0.389-0.342-0.947-1.434-0.994-1.885L222.659,333.992
	L222.659,333.992z M214.823,349.527l20.778,14.998l-16.204,24.199l-6.76-41.147C213.319,348.313,214.051,348.971,214.823,349.527z
	 M127.463,350.195h13.184l-4.557,8.192c-0.434,0.78-0.771,1.591-1.027,2.417h-7.6V350.195z M200.058,464.724
	c-2.912-2.946-7.661-2.974-10.607-0.061c-2.945,2.912-2.974,7.66-0.061,10.606L210.87,497H104.856c-1.355,0-2.5-1.145-2.5-2.5
	V370.248c0-4.136,3.364-7.5,7.5-7.5h2.607v2.557c0,5.79,4.71,10.5,10.5,10.5h17.814l23.377,15.629L141.8,407.865
	c-2.813,2.066-4.58,5.196-4.849,8.587c-0.269,3.392,0.985,6.762,3.441,9.247l21.323,21.573c2.912,2.947,7.661,2.974,10.606,0.061
	c2.946-2.912,2.974-7.66,0.062-10.606l-18.735-18.955l23.976-17.624c3.055-2.243,4.761-5.566,4.682-9.117
	c-0.078-3.551-1.931-6.796-5.081-8.902l-27.099-18.117l28.673-51.548c4.554,3.697,9.392,7.057,14.509,9.99l26.687,162.441
	L200.058,464.724z M227.4,437.436l-4.67-28.427c1.069-0.696,2.043-1.592,2.876-2.678l6.078,11.768
	c0.064,0.123,0.145,0.234,0.215,0.353L227.4,437.436z M256.241,497h-19.056l-3.475-21.147l12.726-53.694h1.557l12.133,51.199
	L256.241,497z M266.437,434.936l-3.906-16.485c0.069-0.118,0.15-0.229,0.214-0.352l6.233-12.067l0.107,0.143
	c0.532,0.708,1.126,1.339,1.767,1.893L266.437,434.936z M273.431,484.895l26.579-161.787c5.24-2.91,10.25-6.253,14.968-10.013
	l28.321,50.916l-27.098,18.117c-3.151,2.107-5.004,5.352-5.082,8.902c-0.079,3.551,1.627,6.874,4.68,9.116l23.977,17.625
	l-31.669,32.04h-8.895c-3.333,0-6.345,1.583-8.057,4.235c-1.712,2.652-1.914,6.049-0.54,9.089l1.356,2.999L273.431,484.895z
	 M392.071,494.5c0,1.355-1.145,2.5-2.5,2.5H282.557l16.274-16.465c2.281,2.955,5.968,4.874,9.698,4.874h35.451l5.771,5.77
	c1.98,1.982,4.618,3.074,7.426,3.074c2.806,0,5.442-1.09,7.426-3.072l5.772-5.772h21.695v9.091H392.071z M403.987,470.409H382.01
	c0.188-1.901-0.149-3.842-0.994-5.598h25.502L403.987,470.409z"/>
<path d="M240.04,300.538c4.301,1.355,8.705,2.028,13.088,2.028c6.866,0,13.677-1.651,19.938-4.911
	c10.256-5.34,17.821-14.36,21.301-25.401c1.245-3.95-0.948-8.162-4.9-9.407c-3.948-1.244-8.162,0.947-9.407,4.899
	c-2.274,7.218-7.219,13.115-13.921,16.604c-6.702,3.49-14.367,4.157-21.589,1.881c-3.949-1.243-8.162,0.948-9.408,4.898
	C233.897,295.08,236.09,299.292,240.04,300.538z"/>
<g>
</g>
<g>
</g>
<g>
</g>
<g>
</g>
<g>
</g>
<g>
</g>
<g>
</g>
<g>
</g>
<g>
</g>
<g>
</g>
<g>
</g>
<g>
</g>
<g>
</g>
<g>
</g>
<g>
</g>
</svg>
