<svg id="Capa_1" enable-background="new 0 0 512.011 512.011" height="512" viewBox="0 0 512.011 512.011" width="512" xmlns="http://www.w3.org/2000/svg"><g><path d="m136.281 252.946v-94.109c0-5.4-4.377-9.777-9.777-9.777h-26.996c-5.4 0-9.777 4.377-9.777 9.777v53.223 112.669h46.55 102.262v-62.005c0-5.4-4.377-9.777-9.777-9.777h-92.485z" fill="#e3e0e4"/><path d="m455.01 326.078h-362.156c-10.013 0-19.704 3.543-27.356 10.001l-57.216 48.285c-1.541 1.301-.621 3.816 1.395 3.816h383.741c11.993 0 23.213-5.923 29.979-15.826z" fill="#62a4fb"/><path d="m455.01 326.078h-92.282l92.64-73.63c1.278-1.016 2.863-1.569 4.495-1.569h37.408c5.964 0 9.36 6.818 5.766 11.578z" fill="#f8e076"/><path d="m228.766 252.946h-30c5.4 0 9.777 4.377 9.777 9.777v62.005h30v-62.005c0-5.4-4.377-9.777-9.777-9.777z" fill="#c8c3ca"/><path d="m425.01 326.078-31.613 46.276c-6.765 9.903-17.985 15.826-29.979 15.826h30c11.994 0 23.213-5.923 29.979-15.826l31.613-46.276z" fill="#5392f9"/><path d="m497.272 250.879h-30c5.964 0 9.36 6.818 5.766 11.578l-48.028 63.62h30l48.028-63.62c3.594-4.76.198-11.578-5.766-11.578z" fill="#f5d339"/><path d="m206.577 222.634h-25.621c-3.964 0-7.176-3.213-7.176-7.177v-51.973c0-17.63-14.292-31.922-31.922-31.922h-3.119c-1.357 0-2.458 1.1-2.458 2.458v88.613 30.311h37.498 54.75v-8.359c0-12.122-9.828-21.951-21.952-21.951z" fill="#a29aa5"/><path d="m347.989 293.229h-25.621c-3.964 0-7.177-3.213-7.177-7.177v-51.972c0-17.63-14.292-31.922-31.922-31.922h-3.119c-1.357 0-2.458 1.101-2.458 2.458v88.613 30.312h37.498 54.75v-8.359c.001-12.124-9.827-21.953-21.951-21.953z" fill="#a29aa5"/><path d="m10.045 259.549v67.752h.753c18.769 0 33.983-15.215 33.983-33.983v-67.752h-.754c-18.768 0-33.982 15.215-33.982 33.983z" fill="#5392f9"/><path d="m10.045 191.583v-67.752h.753c18.769 0 33.983 15.215 33.983 33.983v67.752h-.754c-18.768 0-33.982-15.215-33.982-33.983z" fill="#80b6fc"/><path d="m44.781 200.992h44.95v50.582h-44.95z" fill="#faeaa3"/><path d="m510.453 251.54c-2.507-5.034-7.558-8.161-13.182-8.161h-37.407c-3.315 0-6.569 1.136-9.162 3.198l-74.741 59.403c-3.874-11.746-14.945-20.251-27.972-20.251h-25.298v-51.649c0-21.737-17.685-39.422-39.422-39.422h-3.118c-5.491 0-9.958 4.467-9.958 9.958v52.47c0 4.142 3.357 7.5 7.5 7.5s7.5-3.358 7.5-7.5v-47.353c12.57.985 22.498 11.528 22.498 24.347v51.973c0 8.092 6.584 14.677 14.677 14.677h25.621c7.969 0 14.452 6.483 14.452 14.452v3.396h-77.248v-31.492c0-4.142-3.357-7.5-7.5-7.5s-7.5 3.358-7.5 7.5v31.492h-24.15v-55.855c0-6.93-4.111-12.904-10.014-15.654v-2.482c0-16.24-13.212-29.452-29.452-29.452h-25.297v-51.65c0-21.737-17.685-39.422-39.422-39.422h-3.119c-5.491 0-9.958 4.467-9.958 9.958v7.707c-.747-.099-1.503-.168-2.276-.168h-26.997c-9.526 0-17.276 7.75-17.276 17.277v34.656h-29.95v-35.678c0-22.874-18.609-41.483-41.483-41.483h-.753c-4.143 0-7.5 3.358-7.5 7.5v20.868c0 4.142 3.357 7.5 7.5 7.5 4.142 0 7.5-3.358 7.5-7.5v-12.497c11.346 2.991 19.736 13.34 19.736 25.613v59.381c-11.346-2.991-19.736-13.34-19.736-25.613v-16.884c0-4.142-3.358-7.5-7.5-7.5-4.143 0-7.5 3.358-7.5 7.5v16.884c0 14.046 7.023 26.475 17.736 33.983-10.712 7.509-17.736 19.938-17.736 33.983v67.752c0 4.142 3.357 7.5 7.5 7.5h.753c22.874 0 41.483-18.609 41.483-41.483v-34.243h29.95v60.655c-7.897 1.723-15.323 5.345-21.57 10.617l-57.217 48.284c-3.137 2.647-4.253 6.848-2.844 10.703s4.972 6.345 9.076 6.345h146.717c4.143 0 7.5-3.358 7.5-7.5s-3.357-7.5-7.5-7.5h-132.118l46.059-38.87c6.291-5.309 14.288-8.232 22.52-8.232h347.949l-10.913 15.543c-.867-.021-211.873-.052-211.873-.052-4.143 0-7.5 3.358-7.5 7.5s3.357 7.5 7.5 7.5h201.956l-2.769 4.053c-5.372 7.863-14.264 12.557-23.786 12.557h-207.025c-4.143 0-7.5 3.358-7.5 7.5s3.357 7.5 7.5 7.5h207.024c14.48 0 28.003-7.139 36.171-19.096l79.434-109.608c3.389-4.486 3.937-10.401 1.43-15.435zm-366.672-112.402c12.571.983 22.499 11.527 22.499 24.347v51.973c0 8.093 6.584 14.677 14.677 14.677h25.62c7.969 0 14.452 6.483 14.452 14.452v.859h-77.248v-86.609zm-44.273 17.422h26.997c1.255 0 2.276 1.021 2.276 2.277v94.109c0 4.142 3.357 7.5 7.5 7.5h92.248.237c1.255 0 2.276 1.021 2.276 2.277v55.855h-133.811v-159.741c0-1.256 1.022-2.277 2.277-2.277zm-62.227 136.758c0 12.272-8.391 22.622-19.736 25.612v-59.381c0-12.272 8.391-22.621 19.736-25.612zm15-49.243v-35.583h29.95v35.583zm398.994 74.503h-67.055l75.741-60.199h36.759z"/></g></svg>