<?xml version="1.0" encoding="iso-8859-1"?>
<!-- Generator: Adobe Illustrator 19.0.0, SVG Export Plug-In . SVG Version: 6.00 Build 0)  -->
<svg version="1.1" id="Capa_1" xmlns="http://www.w3.org/2000/svg" xmlns:xlink="http://www.w3.org/1999/xlink" x="0px" y="0px"
	 viewBox="0 0 512 512" style="enable-background:new 0 0 512 512;" xml:space="preserve">
<path style="fill:#D19546;" d="M379.357,355.25h-9.953V363c0,1.65-1.35,3-3,3h-45.62l1.114,5.435
	c0.331,1.616-0.748,2.939-2.398,2.939h-30c-1.65,0-2.318,1.165-1.486,2.59l9.972,17.053c0.833,1.425,0.517,3.499-0.703,4.61
	l-39.065,35.608c-1.22,1.111-3.215,1.111-4.435,0l-39.065-35.608c-1.22-1.111-1.536-3.186-0.703-4.61l9.972-17.053
	c0.833-1.425,0.164-2.59-1.486-2.59h-30c-1.65,0-2.729-1.322-2.398-2.939l1.114-5.435h-45.62c-1.65,0-3-1.35-3-3v-7.75h-9.953
	c-8.25,0-15,6.75-15,15V494.5c0,5.5,4.5,10,10,10h256.715c5.5,0,10-4.5,10-10V370.25C394.357,362,387.607,355.25,379.357,355.25z"/>
<path style="opacity:0.15;fill:#490089;enable-background:new    ;" d="M146.285,494.5V370.25c0-1.476,0.224-2.9,0.626-4.25h-1.315
	c-1.65,0-3-1.35-3-3v-7.75h-9.953c-8.25,0-15,6.75-15,15V494.5c0,5.5,4.5,10,10,10h28.643C150.785,504.5,146.285,500,146.285,494.5z
	"/>
<g>
	<path style="fill:#775436;" d="M366.404,346h-49.718l4.098,20h45.62c1.65,0,3-1.35,3-3v-14C369.404,347.35,368.054,346,366.404,346
		z"/>
	<path style="fill:#775436;" d="M195.313,346h-49.718c-1.65,0-3,1.35-3,3v14c0,1.65,1.35,3,3,3h45.62L195.313,346z"/>
</g>
<path style="fill:#B2762F;" d="M316.102,343.148c-0.331-1.616-1.573-3.877-2.759-5.023l-19.808-19.14
	c-11.608,4.638-24.272,7.192-37.535,7.192s-25.927-2.555-37.535-7.192l-19.808,19.14c-1.186,1.147-2.428,3.407-2.759,5.023
	l-5.796,28.287c-0.331,1.616,0.748,2.939,2.398,2.939h30c1.65,0,2.318,1.165,1.486,2.59l-9.972,17.053
	c-0.833,1.425-0.517,3.499,0.703,4.61l39.065,35.608c1.22,1.111,3.215,1.111,4.435,0l39.065-35.608
	c1.22-1.111,1.536-3.186,0.703-4.61l-9.972-17.053c-0.833-1.425-0.164-2.59,1.486-2.59h30c1.65,0,2.729-1.322,2.398-2.939
	L316.102,343.148z"/>
<path style="fill:#FFB98A;" d="M256,326.178c-10.095,0-19.842-1.485-29.043-4.236v25.353c0,2.75,1.52,6.659,3.377,8.687
	l22.288,24.332c1.857,2.027,4.897,2.027,6.755,0l22.288-24.332c1.857-2.027,3.378-5.937,3.378-8.687v-25.353
	C275.843,324.692,266.095,326.178,256,326.178z"/>
<path style="opacity:0.15;fill:#490089;enable-background:new    ;" d="M256.914,347.295v-21.129
	c-0.305,0.003-0.608,0.012-0.914,0.012c-10.095,0-19.842-1.485-29.043-4.236v25.353c0,2.75,1.52,6.659,3.377,8.687l22.288,24.332
	c1.857,2.027,4.897,2.027,6.755,0l11.601-12.665l-10.687-11.667C258.434,353.954,256.914,350.045,256.914,347.295z"/>
<g>
	<path style="fill:#FFB98A;" d="M154.781,224.959v-44.57h-11.865c-13.059,0-23.646,10.588-23.646,23.646v25.701
		c0,13.059,10.586,23.645,23.646,23.645h15.916C156.199,244.363,154.781,234.827,154.781,224.959z"/>
	<path style="fill:#FFB98A;" d="M369.085,180.389h-11.866v44.57c0,9.868-1.418,19.404-4.051,28.422h15.917
		c13.059,0,23.645-10.586,23.645-23.645v-25.701C392.729,190.977,382.144,180.389,369.085,180.389z"/>
</g>
<path style="fill:#FFC7A9;" d="M154.781,171.73v53.229c0,55.902,45.318,101.219,101.219,101.219
	c55.902,0,101.219-45.316,101.219-101.219V171.73H154.781z"/>
<path style="opacity:0.15;fill:#490089;enable-background:new    ;" d="M183.561,224.959V171.73H154.78v53.229
	c0,55.902,45.318,101.219,101.219,101.219c4.886,0,9.689-0.354,14.391-1.023C221.306,318.167,183.561,275.975,183.561,224.959z"/>
<g>
	<path style="fill:#D19546;" d="M237,26h38c5.836,0,11.551,0.521,17.1,1.52C287.324,15.78,275.81,7.5,262.354,7.5h-12.709
		c-13.455,0-24.97,8.28-29.745,20.02C225.449,26.521,231.164,26,237,26z"/>
	<path style="fill:#D19546;" d="M370.975,120C369.909,67.904,327.351,26,275,26h-38c-52.351,0-94.909,41.904-95.975,94H370.975z"/>
</g>
<g style="opacity:0.15;">
	<path style="fill:#330068;" d="M249.563,26H237c-52.351,0-94.909,41.904-95.975,94h30c0.879-42.994,30.022-79.043,69.604-90.328
		C243.469,27.283,246.465,26,249.563,26z"/>
</g>
<path style="fill:#B2762F;" d="M294.95,120c-0.361-52.096-14.778-94-32.514-94h-12.873c-17.735,0-32.153,41.904-32.514,94H294.95z"
	/>
<path style="fill:#368C0E;" d="M371,143v-21c0-0.669-0.018-1.334-0.031-2H141.031c-0.014,0.666-0.031,1.331-0.031,2v21H371z"/>
<g>
	<ellipse style="fill:#775436;" cx="204.75" cy="228.26" rx="13.477" ry="13.529"/>
	<ellipse style="fill:#775436;" cx="307.25" cy="228.26" rx="13.477" ry="13.529"/>
</g>
<path style="fill:#D19546;" d="M117,143c-2.75,0-6.333,1.813-7.963,4.027L93.83,167.703c-1.63,2.215-0.713,4.027,2.037,4.027
	h320.266c2.75,0,3.667-1.813,2.037-4.027l-15.207-20.676C401.333,144.813,397.75,143,395,143H117z"/>
<g style="opacity:0.15;">
	<path style="fill:#3D0072;" d="M138.808,167.703l15.207-20.676c1.63-2.215,5.213-4.027,7.963-4.027H117
		c-2.75,0-6.333,1.813-7.963,4.027L93.83,167.703c-1.63,2.215-0.713,4.027,2.037,4.027h44.977
		C138.095,171.73,137.178,169.918,138.808,167.703z"/>
</g>
<g>
	<ellipse style="fill:#368C0E;" cx="173.21" cy="412.16" rx="18.79" ry="11.631"/>
	<path style="fill:#368C0E;" d="M360.343,420.274c0,1.65-1.35,3-3,3h-36.687c-1.65,0-3-1.35-3-3v-11.549c0-1.65,1.35-3,3-3h36.687
		c1.65,0,3,1.35,3,3V420.274z"/>
</g>
<g>
	<rect x="152.33" y="466.55" style="fill:#B2762F;" width="64.34" height="37.951"/>
	<path style="fill:#B2762F;" d="M223.5,463.549c0,1.65-1.35,3-3,3h-72c-1.65,0-3-1.35-3-3v-18.098c0-1.65,1.35-3,3-3h72
		c1.65,0,3,1.35,3,3V463.549z"/>
	<rect x="295.33" y="466.55" style="fill:#B2762F;" width="64.34" height="37.951"/>
	<path style="fill:#B2762F;" d="M366.5,463.549c0,1.65-1.35,3-3,3h-72c-1.65,0-3-1.35-3-3v-18.098c0-1.65,1.35-3,3-3h72
		c1.65,0,3,1.35,3,3V463.549z"/>
</g>
<path d="M247.408,219.573c-4.142,0-7.5,3.357-7.5,7.5V248c0,9.649,7.283,17.5,16.235,17.5h8.735c4.142,0,7.5-3.357,7.5-7.5
	s-3.358-7.5-7.5-7.5h-8.735c-0.298,0-1.235-0.914-1.235-2.5v-20.927C254.908,222.931,251.55,219.573,247.408,219.573z"/>
<path d="M226.804,206.645c1.464,1.464,3.383,2.196,5.303,2.196c1.919,0,3.839-0.732,5.304-2.197
	c2.929-2.929,2.928-7.678-0.001-10.606c-18.012-18.011-47.318-18.009-65.328,0c-2.929,2.93-2.929,7.678,0,10.607
	c2.929,2.928,7.678,2.928,10.606,0C194.85,194.483,214.639,194.483,226.804,206.645z"/>
<path d="M334.615,208.842c1.919,0,3.839-0.732,5.304-2.197c2.929-2.929,2.928-7.678-0.001-10.606
	c-18.012-18.011-47.318-18.009-65.328,0c-2.929,2.93-2.929,7.678,0,10.607c2.929,2.928,7.678,2.928,10.607,0
	c12.161-12.162,31.951-12.162,44.116,0C330.776,208.109,332.695,208.842,334.615,208.842z"/>
<path d="M204.747,249.289c11.566,0,20.976-9.434,20.976-21.029c0-11.595-9.41-21.028-20.976-21.028
	c-11.567,0-20.978,9.434-20.978,21.028C183.769,239.855,193.18,249.289,204.747,249.289z M204.747,222.231
	c3.295,0,5.976,2.704,5.976,6.028s-2.681,6.029-5.976,6.029c-3.296,0-5.978-2.705-5.978-6.029
	C198.769,224.936,201.451,222.231,204.747,222.231z"/>
<path d="M328.23,228.26c0-11.595-9.41-21.028-20.976-21.028c-11.567,0-20.978,9.434-20.978,21.028
	c0,11.596,9.411,21.029,20.978,21.029C318.82,249.289,328.23,239.855,328.23,228.26z M301.277,228.26
	c0-3.324,2.682-6.028,5.978-6.028c3.295,0,5.976,2.704,5.976,6.028s-2.681,6.029-5.976,6.029
	C303.958,234.289,301.277,231.584,301.277,228.26z"/>
<path d="M256.001,300.667c12.579,0,25.158-4.788,34.733-14.364c2.929-2.929,2.929-7.677,0-10.606
	c-2.929-2.928-7.678-2.929-10.607,0.001c-13.303,13.303-34.951,13.302-48.256-0.001c-2.929-2.927-7.678-2.928-10.606,0.001
	c-2.929,2.93-2.928,7.678,0.001,10.606C230.843,295.879,243.422,300.667,256.001,300.667z"/>
<path d="M173.21,393.026c-14.742,0-26.29,8.403-26.29,19.132c0,10.728,11.548,19.131,26.29,19.131s26.29-8.403,26.29-19.131
	C199.5,401.43,187.952,393.026,173.21,393.026z M173.21,416.289c-7.276,0-11.079-3.156-11.292-4.104
	c0.213-1.003,4.016-4.159,11.292-4.159c7.276,0,11.079,3.156,11.292,4.104C184.289,413.133,180.486,416.289,173.21,416.289z"/>
<path d="M357.343,398.226h-36.687c-5.789,0-10.5,4.71-10.5,10.5v11.549c0,5.79,4.711,10.5,10.5,10.5h36.687
	c5.789,0,10.5-4.71,10.5-10.5v-11.549C367.843,402.935,363.133,398.226,357.343,398.226z M352.843,415.774h-27.687v-2.549h27.687
	V415.774z"/>
<path d="M424.212,163.26l-15.208-20.678c-3.02-4.104-8.909-7.082-14.003-7.082h-16.5V122c0-49.433-34.836-90.874-81.247-101.084
	C290.567,8.479,277.436,0,262.354,0h-12.709c-15.082,0-28.213,8.479-34.899,20.916C168.336,31.126,133.5,72.567,133.5,122v13.5H117
	c-5.094,0-10.984,2.979-14.005,7.084L87.79,163.258c-2.477,3.366-2.954,7.357-1.276,10.674c1.678,3.318,5.175,5.299,9.354,5.299
	h28.24c-7.49,5.693-12.337,14.692-12.337,24.805v25.701c0,17.173,13.972,31.145,31.146,31.145h10.479
	c9.14,26.023,27.907,47.557,52.019,60.286l-11.968,11.564c-1.54,1.488-2.924,3.599-3.866,5.769h-43.984
	c-5.366,0-9.797,4.048-10.419,9.25h-2.535c-12.407,0-22.5,10.094-22.5,22.5V494.5c0,9.649,7.851,17.5,17.5,17.5h256.715
	c9.649,0,17.5-7.851,17.5-17.5V444c0-4.143-3.358-7.5-7.5-7.5s-7.5,3.357-7.5,7.5v50.5c0,1.355-1.145,2.5-2.5,2.5h-17.187v-23.627
	c3.982-1.492,6.829-5.327,6.829-9.824v-18.098c0-5.79-4.71-10.5-10.5-10.5h-72c-5.79,0-10.5,4.71-10.5,10.5v18.098
	c0,4.497,2.847,8.332,6.829,9.824V497H263.5v-57.432l38.834-35.397c3.821-3.481,4.736-9.474,2.126-13.94l-4.886-8.357H319.5
	c3.049,0,5.875-1.32,7.753-3.622c1.124-1.377,1.825-3.018,2.084-4.752h37.067c5.79,0,10.5-4.71,10.5-10.5v-0.25h2.453
	c4.136,0,7.5,3.364,7.5,7.5V404c0,4.143,3.358,7.5,7.5,7.5s7.5-3.357,7.5-7.5v-33.75c0-12.406-10.093-22.5-22.5-22.5h-2.535
	c-0.621-5.202-5.053-9.25-10.419-9.25H322.42c-0.942-2.17-2.326-4.28-3.866-5.769l-11.949-11.546
	c2.886-1.521,5.719-3.16,8.475-4.947c3.476-2.254,4.466-6.898,2.212-10.374c-2.254-3.475-6.898-4.464-10.374-2.212
	c-15.158,9.83-32.766,15.025-50.919,15.025c-51.677,0-93.719-42.042-93.719-93.719V179.23h187.438v45.729
	c0.001,18.959-5.631,37.221-16.285,52.81c-2.337,3.419-1.46,8.086,1.96,10.424c3.419,2.338,8.087,1.46,10.424-1.961
	c5.413-7.921,9.709-16.436,12.829-25.351h10.438c17.173,0,31.145-13.972,31.145-31.145v-25.701c0-10.112-4.847-19.111-12.336-24.805
	h28.24c4.179,0,7.676-1.98,9.354-5.299C427.165,170.614,426.687,166.624,424.212,163.26z M320,497h-17.171v-22.951H320V497z
	 M352.171,497H335v-22.951h17.171V497z M296,449.951h63v9.098h-63V449.951z M361.904,353.5v5h-35.001l-1.024-5H361.904z
	 M150.096,353.5h36.025l-1.024,5h-35.001L150.096,353.5L150.096,353.5z M177,497h-17.171v-22.951H177V497z M209.171,497H192v-22.951
	h17.171V497z M216,459.049h-63v-9.098h63V459.049z M248.5,497h-24.329v-23.627c3.982-1.492,6.829-5.327,6.829-9.824v-18.098
	c0-5.79-4.71-10.5-10.5-10.5h-72c-5.79,0-10.5,4.71-10.5,10.5v18.098c0,4.497,2.847,8.332,6.829,9.824V497h-17.187
	c-1.355,0-2.5-1.145-2.5-2.5V370.25c0-4.136,3.364-7.5,7.5-7.5h2.453V363c0,5.79,4.71,10.5,10.5,10.5h37.067
	c0.259,1.734,0.96,3.375,2.084,4.752c1.878,2.302,4.704,3.622,7.753,3.622h19.926l-4.888,8.359
	c-2.608,4.464-1.694,10.456,2.126,13.936l38.835,35.398V497H248.5z M292.543,347.295v-18.84l15.523,14.996
	c0.228,0.261,0.613,0.961,0.689,1.203l4.553,22.22H289.5c-3.494,0-6.552,1.692-8.179,4.527c-1.627,2.835-1.546,6.329,0.219,9.349
	l8.421,14.402l-26.461,24.12v-32.601c0.496-0.396,0.973-0.818,1.408-1.292l22.288-24.332
	C290.344,357.611,292.543,351.956,292.543,347.295z M234.457,331.53c6.966,1.406,14.169,2.147,21.543,2.147
	c7.288,0,14.497-0.739,21.543-2.157v15.774c-0.002,0.876-0.817,2.974-1.408,3.62L256,372.897l-20.136-21.982
	c-0.59-0.646-1.406-2.744-1.407-3.62V331.53z M224.804,361.048l22.289,24.332c0.434,0.474,0.911,0.896,1.407,1.292v32.601
	l-26.461-24.12l8.423-14.405c1.763-3.017,1.844-6.511,0.217-9.346c-1.627-2.835-4.685-4.527-8.179-4.527h-23.808l4.532-22.129
	c0.097-0.333,0.482-1.033,0.645-1.227l15.588-15.063v18.839C219.457,351.956,221.656,357.611,224.804,361.048z M249.645,15h12.709
	c4.609,0,8.918,1.285,12.609,3.5h-37.927C240.727,16.285,245.036,15,249.645,15z M249.563,33.5h12.873
	c4.866,0,12.702,9.831,18.407,31.416c1.058,4.005,5.163,6.396,9.167,5.335c4.004-1.059,6.393-5.163,5.335-9.167
	c-2.933-11.098-6.59-20.176-10.829-27.057c41.215,4.429,74.053,37.254,78.473,78.473h-60.706c-0.15-4.768-0.404-9.494-0.789-14.122
	c-0.344-4.129-3.957-7.2-8.097-6.853c-4.128,0.345-7.195,3.97-6.852,8.097c0.351,4.22,0.586,8.529,0.73,12.878h-62.558
	c0.717-21.228,3.824-40.836,8.952-55.976C239.058,40.619,245.535,33.5,249.563,33.5z M227.449,34.031
	C216.728,51.506,210.72,81.52,209.7,112.5h-60.689C153.429,71.293,186.249,38.475,227.449,34.031z M148.5,127.5h215v8h-215V127.5z
	 M142.916,245.881c-8.903,0-16.146-7.242-16.146-16.145v-25.701c0-8.903,7.243-16.146,16.146-16.146h4.365v20.951h-5.291
	c-4.142,0-7.5,3.357-7.5,7.5s3.358,7.5,7.5,7.5h5.291v1.119c0,7.156,0.711,14.148,2.037,20.922H142.916z M385.229,229.736
	c0,8.902-7.243,16.145-16.145,16.145h-6.386c1.332-6.84,2.02-13.838,2.02-20.922v-1.119h5.291c4.142,0,7.5-3.357,7.5-7.5
	s-3.358-7.5-7.5-7.5h-5.291v-20.951h4.366c8.902,0,16.145,7.243,16.145,16.146V229.736z M105.693,164.23l9.349-12.713
	c0.354-0.399,1.484-0.974,1.958-1.02h277.942c0.531,0.048,1.662,0.62,1.978,0.973l9.385,12.76H105.693z"/>
<path d="M256,72.5c1.97,0,3.91-0.8,5.3-2.2c1.4-1.4,2.2-3.33,2.2-5.3s-0.8-3.9-2.2-5.3c-1.39-1.4-3.33-2.2-5.3-2.2
	c-1.97,0-3.91,0.8-5.3,2.2c-1.4,1.39-2.2,3.33-2.2,5.3c0,1.979,0.8,3.91,2.2,5.3C252.09,71.7,254.03,72.5,256,72.5z"/>
<path d="M208.3,59.7c-1.39-1.4-3.33-2.2-5.3-2.2s-3.91,0.8-5.3,2.2c-1.4,1.39-2.2,3.33-2.2,5.3c0,1.979,0.8,3.91,2.2,5.3
	c1.39,1.4,3.33,2.2,5.3,2.2s3.91-0.8,5.3-2.2c1.4-1.39,2.2-3.32,2.2-5.3C210.5,63.03,209.7,61.09,208.3,59.7z"/>
<path d="M309,72.5c1.97,0,3.91-0.8,5.3-2.2c1.4-1.39,2.2-3.32,2.2-5.3c0-1.97-0.8-3.91-2.2-5.3c-1.39-1.4-3.32-2.2-5.3-2.2
	c-1.97,0-3.91,0.8-5.3,2.2c-1.4,1.39-2.2,3.33-2.2,5.3c0,1.979,0.8,3.91,2.2,5.3C305.09,71.7,307.03,72.5,309,72.5z"/>
<g>
</g>
<g>
</g>
<g>
</g>
<g>
</g>
<g>
</g>
<g>
</g>
<g>
</g>
<g>
</g>
<g>
</g>
<g>
</g>
<g>
</g>
<g>
</g>
<g>
</g>
<g>
</g>
<g>
</g>
</svg>
