<svg id="Capa_1" enable-background="new 0 0 506.52 506.52" height="512" viewBox="0 0 506.52 506.52" width="512" xmlns="http://www.w3.org/2000/svg"><g><ellipse cx="408.438" cy="368.962" fill="#766d78" rx="66.343" ry="65.947"/><path d="m408.438 303.015c-5.161 0-10.177.605-15 1.714 29.412 6.761 51.343 32.942 51.343 64.233s-21.931 57.472-51.343 64.233c4.823 1.108 9.839 1.714 15 1.714 36.64 0 66.343-29.525 66.343-65.947s-29.703-65.947-66.343-65.947z" fill="#655e67"/><ellipse cx="408.438" cy="368.962" fill="#fff" rx="22.362" ry="22.228"/><path d="m499.019 362.405c-1.157-48.758-41.253-87.937-90.581-87.937s-89.424 39.179-90.581 87.937z" fill="#9ec8fc"/><path d="m408.438 274.468c-5.111 0-10.12.427-15 1.235 42.217 6.992 74.545 42.996 75.581 86.702h30c-1.156-48.758-41.252-87.937-90.581-87.937z" fill="#80b6fc"/><path d="m200.165 362.405h123.772l107.037-112.431c16.331-17.154 19.725-42.888 8.4-63.689l-29.152-53.544h-41.181l.992 78.695c.117 9.256-3.724 18.121-10.557 24.366l-36.702 33.543c-12.405 11.337-31.411 11.329-43.807-.017l-14.936-13.671c-17.139-15.688-26.9-37.854-26.9-61.089v-12.189l-82.292-28.409-82.292 28.409c-24.588 37.375-32.693 83.229-22.409 126.769l5.047 21.365z" fill="#80b6fc"/><path d="m439.373 186.285-29.152-53.544h-30l29.152 53.544c11.325 20.802 7.932 46.535-8.399 63.689l-107.037 112.431h30l107.037-112.431c16.331-17.154 19.724-42.887 8.399-63.689z" fill="#62a4fb"/><path d="m440.365 71.927-77.679 20.482v39.84h79.114c2.867 0 5.591-1.255 7.454-3.434l1.065-1.246c12.932-15.123 12.932-37.41 0-52.533-2.445-2.86-6.314-4.068-9.954-3.109z" fill="#80b6fc"/><path d="m450.32 75.037c-2.447-2.861-6.315-4.07-9.955-3.11l-23.024 6.071c10.575 14.961 9.808 35.407-2.304 49.571l-1.065 1.246c-1.863 2.179-4.587 3.434-7.454 3.434h35.283c2.867 0 5.591-1.255 7.454-3.434l1.065-1.246c12.932-15.122 12.932-37.409 0-52.532z" fill="#fff"/><circle cx="362.687" cy="110.775" fill="#4981f8" r="20.285"/><ellipse cx="98.081" cy="368.962" fill="#766d78" rx="66.343" ry="65.947"/><path d="m98.081 303.015c-5.161 0-10.177.605-15 1.714 29.411 6.761 51.343 32.942 51.343 64.233s-21.931 57.472-51.343 64.233c4.823 1.108 9.839 1.714 15 1.714 36.64 0 66.343-29.525 66.343-65.947s-29.703-65.947-66.343-65.947z" fill="#655e67"/><ellipse cx="98.081" cy="368.962" fill="#fff" rx="22.362" ry="22.228"/><path d="m171.35 241.728c-25.293-8.414-50.882-6.433-74.175.326-53.33 15.477-89.675 64.822-89.675 120.351h180.421s65.354-93.423-16.571-120.677z" fill="#80b6fc"/><path d="m171.35 241.728c-16.888-5.618-33.907-6.597-50.287-4.619 6.751.871 13.529 2.371 20.287 4.619 81.925 27.254 16.571 120.677 16.571 120.677h30s65.354-93.423-16.571-120.677z" fill="#62a4fb"/><path d="m237.129 182.377h-166.976c-11.067 0-20.038-8.971-20.038-20.038v-15.052c0-16.277 13.195-29.471 29.471-29.471h128.072c16.277 0 29.471 13.195 29.471 29.471z" fill="#f8e076"/><path d="m207.658 117.816h-30c16.277 0 29.471 13.195 29.471 29.471v35.09h30v-35.09c0-16.277-13.194-29.471-29.471-29.471z" fill="#f7d958"/><path d="m477.022 294.777c-14.678-14.278-33.112-23.442-53.035-26.586l12.418-13.044c18.645-19.585 22.484-48.698 9.555-72.447l-23.384-42.95h19.225c5.067 0 9.861-2.209 13.154-6.059l1.065-1.246c15.429-18.044 15.429-44.237 0-62.281-4.29-5.018-11.19-7.17-17.567-5.488 0 0-73.677 18.315-75.767 18.315-15.32 0-27.784 12.464-27.784 27.784 0 14.96 11.886 27.19 26.71 27.758l.92 72.998c.09 7.109-2.869 13.937-8.117 18.734l-36.703 33.543c-9.604 8.777-24.086 8.772-33.683-.013l-14.936-13.671c-15.547-14.231-24.464-34.481-24.464-55.557v-47.28c0-20.386-16.585-36.971-36.971-36.971h-98.179c-4.143 0-7.5 3.358-7.5 7.5 0 3.805 2.835 6.94 6.507 7.427v49.635h-36.01c-.009 0-.018 0-.027 0h-2.295c-6.913 0-12.538-5.625-12.538-12.539v-15.051c0-12.115 9.856-21.971 21.971-21.971 4.143 0 7.5-3.358 7.5-7.5s-3.357-7.5-7.5-7.5h-.106c-.029 0-.059 0-.088 0-20.297.105-36.776 16.649-36.776 36.971v15.051c0 11.715 7.356 21.739 17.69 25.711-13.669 24.177-21.232 51.341-21.966 79.237-.012.456.023.901.09 1.336-4.317 4.386-8.374 9.083-12.111 14.116-17.219 23.184-26.32 50.732-26.32 79.666 0 4.142 3.358 7.5 7.5 7.5h16.762c.512 40.063 33.42 72.503 73.819 72.503s73.307-32.44 73.819-72.503h110.71c4.143 0 7.5-3.358 7.5-7.5s-3.357-7.5-7.5-7.5h-81.284c2.764-4.937 5.956-11.171 8.917-18.228h68.081c4.143 0 7.5-3.358 7.5-7.5s-3.357-7.5-7.5-7.5h-62.687c4.549-15.306 6.603-32.498 1.412-48.184-6.038-18.245-20.616-31.327-43.331-38.883-24.055-8.002-50.512-7.92-78.632.241-14.894 4.322-28.641 11.131-40.872 20.106 2.511-23.076 10.161-45.297 22.459-65.081h152.957v4.689c0 25.274 10.692 49.557 29.336 66.622l14.936 13.671c15.365 14.066 38.551 14.075 53.93.021l36.703-33.543c8.403-7.681 13.141-18.614 12.996-29.996l-.897-71.1h29.131l27.021 49.631c9.804 18.007 6.893 40.082-7.244 54.932l-104.82 110.102h-8.112c-4.143 0-7.5 3.358-7.5 7.5s3.357 7.5 7.5 7.5h22.01c.512 40.063 33.42 72.503 73.819 72.503 40.398 0 73.307-32.44 73.819-72.503h16.762c2.02 0 3.954-.815 5.366-2.26 1.411-1.445 2.18-3.398 2.132-5.417-.608-25.586-11.082-49.54-29.496-67.451zm-247.393-147.49v27.59h-50.871v-49.561h28.9c12.115 0 21.971 9.856 21.971 21.971zm-106.143-21.971h40.272v49.561h-40.272zm-25.405 302.092c-32.128 0-58.307-25.711-58.819-57.503h28.981c.504 15.956 13.689 28.784 29.837 28.784s29.334-12.828 29.837-28.784h28.983c-.512 31.793-26.691 57.503-58.819 57.503zm14.813-57.503c-.495 7.681-6.94 13.784-14.813 13.784s-14.318-6.103-14.813-13.784zm-13.628-120.648c25.146-7.298 48.602-7.437 69.717-.413 17.963 5.976 29.341 15.845 33.815 29.335 5.656 17.048-.162 37.585-6.04 51.813-4.61 11.161-10 20.318-12.893 24.914h-168.634c1.417-22.937 9.341-44.657 23.129-63.224 15.328-20.64 36.388-35.31 60.906-42.425zm343.012-170.078c.848-.224 1.77.063 2.342.732 10.599 12.395 10.599 30.389 0 42.784l-1.066 1.246c-.439.513-1.078.808-1.754.808h-15.37c6.97-12.363 7.89-28.133 2.093-41.943zm-92.376 31.596c0-7.049 5.735-12.784 12.784-12.784s12.784 5.735 12.784 12.784c0 7.05-5.735 12.785-12.784 12.785-7.048 0-12.784-5.736-12.784-12.785zm36.496 14.466c2.582-4.216 4.073-9.17 4.073-14.466 0-6.174-2.026-11.882-5.446-16.499l28.765-7.585c6.105 12.326 4.064 27.86-5.056 36.756-.555.541-1.007 1.147-1.358 1.794zm22.041 302.167c-32.128 0-58.307-25.711-58.819-57.503h28.98c.504 15.956 13.69 28.784 29.838 28.784s29.334-12.828 29.837-28.784h28.981c-.51 31.793-26.69 57.503-58.817 57.503zm14.812-57.503c-.495 7.681-6.94 13.784-14.813 13.784-7.874 0-14.319-6.103-14.814-13.784zm-81.819-15 69.384-72.88c20.978.585 40.698 8.863 55.748 23.503 13.723 13.349 22.234 30.657 24.421 49.377z"/><path d="m77.817 336.678h63.37c4.143 0 7.5-3.358 7.5-7.5s-3.357-7.5-7.5-7.5h-63.37c-4.143 0-7.5 3.358-7.5 7.5s3.358 7.5 7.5 7.5z"/><path d="m94.414 306.787h63.37c4.143 0 7.5-3.358 7.5-7.5s-3.357-7.5-7.5-7.5h-63.37c-4.143 0-7.5 3.358-7.5 7.5s3.357 7.5 7.5 7.5z"/></g></svg>