<?xml version="1.0" encoding="iso-8859-1"?>
<!-- Generator: Adobe Illustrator 19.0.0, SVG Export Plug-In . SVG Version: 6.00 Build 0)  -->
<svg version="1.1" id="Capa_1" xmlns="http://www.w3.org/2000/svg" xmlns:xlink="http://www.w3.org/1999/xlink" x="0px" y="0px"
	 viewBox="0 0 512 512" style="enable-background:new 0 0 512 512;" xml:space="preserve">
<path style="fill:#775436;" d="M201.398,316.185c-20.348-13.063-35.713-33.208-42.608-56.961c0.015,0.052,0.027,0.104,0.043,0.156
	h-14.838C139.57,266.54,137,274.964,137,284c0,25.957,21.042,47,47,47c6.151,0,12.018-1.194,17.398-3.347V316.185z"/>
<path style="fill:#E6E9ED;" d="M310.602,361v-44.799c-15.753,10.112-34.492,15.977-54.602,15.977
	c-20.109,0-38.848-5.865-54.602-15.977V361H310.602z"/>
<path style="fill:#FFFFFF;" d="M269.277,361v-29.69c-4.346,0.569-8.776,0.867-13.277,0.867c-20.109,0-38.848-5.865-54.602-15.977
	V361H269.277z"/>
<path style="opacity:0.15;fill:#490089;enable-background:new    ;" d="M201.398,316.201V361h25.723v-33.01
	C217.934,325.26,209.29,321.267,201.398,316.201z"/>
<path style="fill:#FFFFFF;" d="M145.123,504.5c-2.762,0-5-2.238-5-5V391c0-16.542,13.459-30,30-30h171.754c16.541,0,30,13.458,30,30
	v108.5c0,2.762-2.238,5-5,5H145.123z"/>
<path style="fill:#E6E9ED;" d="M308.754,499.5V391c0-16.542-13.459-30-30-30H170.123c-16.541,0-30,13.458-30,30v108.5
	c0,2.762,2.238,5,5,5h158.631C306.516,504.5,308.754,502.262,308.754,499.5z"/>
<path style="opacity:0.15;fill:#490089;enable-background:new    ;" d="M169,499.5v-77.443l-1.094-1.066
	c-0.817-0.797-1.112-1.989-0.759-3.075c0.291-0.896,0.985-1.587,1.853-1.895V391c0-16.542,13.459-30,30-30h-28.877
	c-16.541,0-30,13.458-30,30v108.5c0,2.762,2.238,5,5,5H174C171.238,504.5,169,502.262,169,499.5z"/>
<g>
	<path style="fill:#FFB98A;" d="M154.781,230.958v-44.569h-11.865c-13.059,0-23.646,10.587-23.646,23.645v25.701
		c0,13.059,10.586,23.645,23.646,23.645h15.917C156.199,250.363,154.781,240.826,154.781,230.958z"/>
	<path style="fill:#FFB98A;" d="M369.085,186.389h-11.866v44.569c0,9.868-1.418,19.405-4.052,28.423h15.917
		c13.059,0,23.645-10.587,23.645-23.645v-25.701C392.729,196.976,382.144,186.389,369.085,186.389z"/>
</g>
<path style="fill:#FFC7A9;" d="M154.781,158.3v72.658c0,55.902,45.318,101.22,101.219,101.22
	c55.902,0,101.219-45.317,101.219-101.22V158.3H154.781z"/>
<rect id="SVGCleanerId_0" x="154.78" y="137" style="fill:#E6E9ED;" width="202.44" height="21.3"/>
<g style="opacity:0.15;">
	<path style="fill:#330068;" d="M179.561,230.958v-53.089c-6.583,6.72-15.158,11.48-24.781,13.3v39.789
		c0,55.902,45.318,101.22,101.219,101.22c4.195,0,8.329-0.26,12.391-0.756C218.335,325.311,179.561,282.665,179.561,230.958z"/>
</g>
<g>
	<path style="fill:#775436;" d="M154.781,158.3v32.869c17.378-3.286,31.37-16.135,36.302-32.869H154.781z"/>
	<path style="fill:#775436;" d="M320.918,158.3c4.932,16.734,18.923,29.583,36.302,32.869V158.3H320.918z"/>
</g>
<g>
	<ellipse style="fill:#046699;" cx="206.45" cy="233.47" rx="13.477" ry="13.529"/>
	<ellipse style="fill:#046699;" cx="305.55" cy="233.47" rx="13.477" ry="13.529"/>
</g>
<path style="fill:#FFFFFF;" d="M397.5,81.5c0-23.472-19.028-42.5-42.5-42.5h-31.445C318.706,20.861,302.167,7.5,282.5,7.5h-53
	c-19.667,0-36.206,13.361-41.055,31.5H157c-23.472,0-42.5,19.028-42.5,42.5c0,22.728,17.84,41.288,40.281,42.442V158.3h202.438
	v-34.357C379.66,122.788,397.5,104.228,397.5,81.5z"/>
<g>
	<rect id="SVGCleanerId_0_1_" x="154.78" y="137" style="fill:#E6E9ED;" width="202.44" height="21.3"/>
</g>
<g style="opacity:0.15;">
	<path style="fill:#3D0072;" d="M174.281,158.3v-48.657c0-2.661-2.085-4.856-4.743-4.993C149.61,103.624,134,87.175,134,67.2
		c0-10.315,4.188-19.67,10.951-26.457C127.349,45.939,114.5,62.215,114.5,81.5c0,22.728,17.84,41.288,40.281,42.442V158.3H174.281z"
		/>
</g>
<path style="fill:#FFC502;" d="M210.626,451.358c-0.478,0-0.957-0.114-1.396-0.345l-14.122-7.424l-14.122,7.424
	c-0.439,0.23-0.918,0.345-1.395,0.345c-0.622,0-1.241-0.193-1.764-0.573c-0.924-0.671-1.387-1.809-1.194-2.934l2.697-15.726
	l-11.425-11.136c-0.817-0.797-1.112-1.989-0.759-3.075c0.352-1.086,1.292-1.878,2.421-2.042l15.789-2.295l7.061-14.307
	c0.505-1.024,1.548-1.672,2.69-1.672s2.185,0.648,2.69,1.672l7.061,14.307l15.789,2.295c1.13,0.164,2.069,0.956,2.421,2.042
	c0.353,1.086,0.059,2.278-0.759,3.075l-11.425,11.136l2.697,15.726c0.193,1.125-0.27,2.263-1.194,2.934
	C211.867,451.165,211.248,451.358,210.626,451.358z"/>
<path d="M250,229.477c-4.142,0-7.5,3.358-7.5,7.5v17.209c0,9.649,7.283,17.5,16.235,17.5h8.735c4.142,0,7.5-3.357,7.5-7.5
	s-3.358-7.5-7.5-7.5h-8.735c-0.298,0-1.235-0.914-1.235-2.5v-17.209C257.5,232.835,254.142,229.477,250,229.477z"/>
<path d="M222.803,209.88c1.464,1.464,3.384,2.196,5.303,2.196c1.919,0,3.839-0.732,5.303-2.196c2.929-2.93,2.929-7.678,0-10.607
	c-7.206-7.205-16.78-11.174-26.959-11.174s-19.753,3.969-26.959,11.175c-2.929,2.929-2.928,7.678,0,10.606
	c2.93,2.928,7.678,2.929,10.607-0.001c4.372-4.372,10.179-6.78,16.352-6.78C212.623,203.099,218.43,205.507,222.803,209.88z"/>
<path d="M332.509,209.88c2.929-2.93,2.929-7.678,0-10.607c-7.206-7.205-16.78-11.174-26.96-11.174
	c-10.179,0-19.753,3.969-26.959,11.175c-2.929,2.929-2.928,7.678,0,10.606c2.93,2.928,7.678,2.929,10.607-0.001
	c4.372-4.372,10.179-6.78,16.351-6.78c6.173,0,11.98,2.408,16.353,6.781c1.464,1.464,3.384,2.196,5.303,2.196
	C329.125,212.076,331.044,211.344,332.509,209.88z"/>
<path d="M206.451,254.5c11.566,0,20.977-9.434,20.977-21.029s-9.41-21.029-20.977-21.029s-20.978,9.434-20.978,21.029
	S194.884,254.5,206.451,254.5z M206.451,227.441c3.295,0,5.977,2.705,5.977,6.029s-2.681,6.029-5.977,6.029
	s-5.978-2.705-5.978-6.029S203.155,227.441,206.451,227.441z"/>
<path d="M305.55,254.5c11.566,0,20.977-9.434,20.977-21.029s-9.41-21.029-20.977-21.029s-20.977,9.434-20.977,21.029
	S293.983,254.5,305.55,254.5z M305.55,227.441c3.295,0,5.977,2.705,5.977,6.029s-2.681,6.029-5.977,6.029s-5.977-2.705-5.977-6.029
	S302.254,227.441,305.55,227.441z"/>
<path d="M232.913,300.5h48.462c4.142,0,7.5-3.357,7.5-7.5s-3.358-7.5-7.5-7.5h-48.462c-4.142,0-7.5,3.357-7.5,7.5
	S228.77,300.5,232.913,300.5z"/>
<path d="M369.085,178.889h-4.366v-48.331C387.804,126.026,405,105.704,405,81.5c0-10.92-3.458-21.295-10-30.005
	c-2.487-3.311-7.189-3.98-10.501-1.492s-3.98,7.19-1.492,10.502C387.582,66.596,390,73.855,390,81.5
	c0,18.643-14.568,33.996-33.167,34.952c-3.987,0.205-7.115,3.498-7.115,7.49v5.558h-35.603V116c0-4.143-3.358-7.5-7.5-7.5
	s-7.5,3.357-7.5,7.5v13.5h-20.744V116c0-4.143-3.358-7.5-7.5-7.5s-7.5,3.357-7.5,7.5v13.5h-20.743V116c0-4.143-3.358-7.5-7.5-7.5
	s-7.5,3.357-7.5,7.5v13.5h-20.744V116c0-4.143-3.358-7.5-7.5-7.5s-7.5,3.357-7.5,7.5v13.5H162.28v-5.558
	c0-3.992-3.127-7.285-7.115-7.49C136.568,115.496,122,100.143,122,81.5c0-19.299,15.701-35,35-35h31.445
	c3.396,0,6.369-2.282,7.246-5.563C199.773,25.666,213.676,15,229.5,15h53c15.824,0,29.727,10.666,33.809,25.937
	c0.877,3.281,3.85,5.563,7.246,5.563H355c4.142,0,7.5-3.357,7.5-7.5s-3.358-7.5-7.5-7.5h-26.043C321.476,12.693,303.131,0,282.5,0
	h-53c-20.631,0-38.976,12.693-46.458,31.5H157c-27.57,0-50,22.43-50,50c0,24.204,17.196,44.526,40.281,49.058v48.331h-4.365
	c-17.174,0-31.146,13.972-31.146,31.145v25.701c0,13.653,8.834,25.274,21.084,29.468c-2.177,5.925-3.355,12.264-3.355,18.797
	c0,30.052,24.449,54.5,54.5,54.5c3.339,0,6.65-0.323,9.898-0.929V353.5h-23.775c-20.678,0-37.5,16.822-37.5,37.5v108.5
	c0,6.893,5.607,12.5,12.5,12.5h221.754c6.893,0,12.5-5.607,12.5-12.5V391c0-20.678-16.822-37.5-37.5-37.5h-23.775v-33.303
	c3.807-2.652,7.463-5.555,10.939-8.709c3.067-2.784,3.297-7.527,0.513-10.594c-2.783-3.068-7.526-3.299-10.594-0.514
	c-17.264,15.668-39.623,24.297-62.96,24.297c-51.677,0-93.719-42.043-93.719-93.72V197.01c15.491-4.826,27.967-16.301,34.102-31.21
	h119.243c6.136,14.906,18.604,26.385,34.093,31.21v33.948c0,13.581-2.839,26.677-8.438,38.924c-1.723,3.767-0.065,8.217,3.702,9.939
	c3.767,1.719,8.217,0.064,9.939-3.703c1.388-3.035,2.621-6.117,3.715-9.237h10.447c17.173,0,31.145-13.972,31.145-31.145v-25.701
	C400.229,192.86,386.258,178.889,369.085,178.889z M126.771,235.735v-25.701c0-8.902,7.243-16.145,16.146-16.145h4.365v6.331v14.62
	h-5.291c-4.142,0-7.5,3.357-7.5,7.5s3.358,7.5,7.5,7.5h5.291v1.118c0,7.155,0.702,14.149,2.028,20.923h-6.393
	C134.013,251.881,126.771,244.638,126.771,235.735z M308.734,368.5h33.143c12.407,0,22.5,10.094,22.5,22.5v106h-48.123v-22
	c0-4.143-3.358-7.5-7.5-7.5s-7.5,3.357-7.5,7.5v22H147.623V391c0-12.406,10.093-22.5,22.5-22.5h108.631
	c12.407,0,22.5,10.094,22.5,22.5v43.999c0,4.143,3.358,7.5,7.5,7.5s7.5-3.357,7.5-7.5V391
	C316.254,382.565,313.453,374.772,308.734,368.5z M276.777,337.679c9.132-1.772,17.974-4.706,26.324-8.722V353.5h-26.324V337.679z
	 M208.898,328.898c14.259,6.893,30.23,10.779,47.102,10.779c1.933,0,3.858-0.057,5.777-0.158v13.98h-52.879L208.898,328.898
	L208.898,328.898z M193.898,320.118v2.104c-3.213,0.835-6.537,1.277-9.898,1.277c-21.78,0-39.5-17.72-39.5-39.5
	c0-6.046,1.373-11.869,3.901-17.119h4.986C161.011,288.596,175.357,307.161,193.898,320.118z M162.281,181.001V165.8h17.322
	C175.488,172.453,169.463,177.765,162.281,181.001z M162.281,150.8v-6.3h187.437v6.3H162.281z M349.719,181.001
	c-7.183-3.236-13.208-8.548-17.322-15.201h17.322V181.001z M385.229,235.735c0,8.902-7.242,16.146-16.145,16.146h-6.374
	c1.332-6.836,2.008-13.822,2.008-20.923v-1.118h5.291c4.142,0,7.5-3.357,7.5-7.5s-3.358-7.5-7.5-7.5h-5.291v-14.62v-6.331h4.366
	c8.902,0,16.145,7.243,16.145,16.145V235.735z"/>
<path d="M280,387.5c-1.97,0-3.91,0.8-5.3,2.2c-1.4,1.39-2.2,3.319-2.2,5.3c0,1.979,0.8,3.91,2.2,5.3c1.39,1.4,3.33,2.2,5.3,2.2
	s3.91-0.8,5.3-2.2c1.4-1.39,2.2-3.32,2.2-5.3c0-1.98-0.8-3.91-2.2-5.3C283.91,388.3,281.97,387.5,280,387.5z"/>
<path d="M280,428.5c-1.97,0-3.91,0.8-5.3,2.2c-1.4,1.39-2.2,3.319-2.2,5.3c0,1.979,0.8,3.91,2.2,5.3c1.39,1.4,3.33,2.2,5.3,2.2
	s3.91-0.8,5.3-2.2c1.4-1.39,2.2-3.33,2.2-5.3c0-1.98-0.8-3.91-2.2-5.3C283.91,429.3,281.97,428.5,280,428.5z"/>
<path d="M280,469.5c-1.97,0-3.9,0.8-5.3,2.2c-1.4,1.39-2.2,3.319-2.2,5.3c0,1.97,0.8,3.91,2.2,5.3c1.39,1.4,3.33,2.2,5.3,2.2
	s3.91-0.8,5.3-2.2c1.4-1.39,2.2-3.32,2.2-5.3c0-1.98-0.8-3.91-2.2-5.3C283.91,470.3,281.97,469.5,280,469.5z"/>
<path d="M250,387.5c-1.97,0-3.91,0.8-5.3,2.2c-1.4,1.39-2.2,3.33-2.2,5.3s0.8,3.91,2.2,5.3c1.39,1.4,3.33,2.2,5.3,2.2
	s3.91-0.8,5.3-2.2c1.4-1.39,2.2-3.33,2.2-5.3s-0.8-3.91-2.2-5.3C253.91,388.3,251.97,387.5,250,387.5z"/>
<path d="M250,428.5c-1.97,0-3.91,0.8-5.3,2.2c-1.4,1.39-2.2,3.319-2.2,5.3c0,1.97,0.8,3.91,2.2,5.3c1.39,1.4,3.33,2.2,5.3,2.2
	s3.91-0.8,5.3-2.2c1.4-1.39,2.2-3.33,2.2-5.3c0-1.98-0.8-3.91-2.2-5.3C253.91,429.3,251.97,428.5,250,428.5z"/>
<path d="M250,469.5c-1.97,0-3.91,0.8-5.3,2.2c-1.4,1.39-2.2,3.319-2.2,5.3c0,1.97,0.8,3.91,2.2,5.3c1.39,1.4,3.33,2.2,5.3,2.2
	s3.91-0.8,5.3-2.2c1.4-1.39,2.2-3.33,2.2-5.3c0-1.98-0.8-3.91-2.2-5.3C253.91,470.3,251.97,469.5,250,469.5z"/>
<path d="M221.727,408.451l-11.887-1.728l-5.316-10.772c-1.782-3.609-5.39-5.852-9.415-5.852s-7.633,2.242-9.416,5.852l-5.315,10.772
	l-11.886,1.728c-3.985,0.578-7.234,3.317-8.477,7.146c-1.245,3.829-0.227,7.953,2.657,10.765l8.601,8.383l-2.031,11.84
	c-0.681,3.969,0.921,7.903,4.175,10.268c1.806,1.313,3.941,2.007,6.174,2.007c1.693,0,3.381-0.416,4.885-1.206l10.632-5.589
	l10.636,5.591c1.501,0.788,3.189,1.204,4.882,1.204c2.233,0,4.368-0.694,6.171-2.005c3.258-2.366,4.859-6.301,4.179-10.269
	l-2.031-11.84l8.602-8.384c2.883-2.811,3.901-6.935,2.657-10.761C228.96,411.769,225.711,409.029,221.727,408.451z M205.651,426.755
	c-1.768,1.724-2.575,4.206-2.157,6.639l1.156,6.739l-6.052-3.182c-1.092-0.574-2.291-0.861-3.49-0.861s-2.397,0.287-3.49,0.861
	l-6.052,3.182l1.156-6.739c0.417-2.433-0.389-4.915-2.157-6.639l-4.895-4.772l6.766-0.983c2.443-0.354,4.555-1.89,5.647-4.103
	l3.025-6.131l3.025,6.131c1.092,2.213,3.204,3.748,5.647,4.103l6.766,0.983L205.651,426.755z"/>
<g>
</g>
<g>
</g>
<g>
</g>
<g>
</g>
<g>
</g>
<g>
</g>
<g>
</g>
<g>
</g>
<g>
</g>
<g>
</g>
<g>
</g>
<g>
</g>
<g>
</g>
<g>
</g>
<g>
</g>
</svg>
