<svg id="Capa_1" enable-background="new 0 0 510.06 510.06" height="512" viewBox="0 0 510.06 510.06" width="512" xmlns="http://www.w3.org/2000/svg"><g><circle cx="450.979" cy="424.549" fill="#8c818f" r="51.581"/><path d="m450.979 372.968c-5.218 0-10.253.782-15 2.223 21.17 6.426 36.581 26.089 36.581 49.358s-15.411 42.933-36.581 49.358c4.747 1.441 9.782 2.223 15 2.223 28.487 0 51.581-23.094 51.581-51.581s-23.094-51.581-51.581-51.581z" fill="#766d78"/><path d="m125.007 426.451-.375 1.643 43.455 9.904c7.279-43.431-20.509-85.525-63.996-95.436-40.563-9.245-80.938 12.669-96.134 49.982-1.408 3.458.565 7.358 4.205 8.188z" fill="#ecb822"/><path d="m433.746 344.317-76.086 47.378c-10.762 6.701-23.186 10.254-35.865 10.254h-187.273-42.128c-5.543 0-10.453 3.985-11.179 9.481-.716 5.418 2.613 10.42 7.706 11.947l76.934 23.055c24.528 7.35 49.997 11.085 75.603 11.085h29.974c20.258 0 40.408-2.337 60.056-6.939 19.03-4.457 37.048-12.47 53.291-23.341l62.683-41.947v-35.66z" fill="#fef6d6"/><circle cx="85.738" cy="424.549" fill="#8c818f" r="51.581"/><path d="m85.738 372.968c-5.218 0-10.253.782-15 2.223 21.17 6.426 36.581 26.089 36.581 49.358s-15.411 42.933-36.581 49.358c4.747 1.441 9.782 2.223 15 2.223 28.487 0 51.581-23.094 51.581-51.581s-23.094-51.581-51.581-51.581z" fill="#766d78"/><circle cx="85.738" cy="424.549" r="7.5"/><path d="m452.184 428.762-.725.083c-8.615.98-16.393-5.209-17.374-13.824l-47.268-348.434 31.923-3.632 47.269 348.434c.979 8.614-5.21 16.393-13.825 17.373z" fill="#e3e0e4"/><ellipse cx="402.09" cy="60.753" fill="#8c818f" rx="26.823" ry="26.823" transform="matrix(.146 -.989 .989 .146 283.264 449.659)"/><path d="m467.674 367.874-26.548-195.697c-.557-4.104-4.335-6.982-8.44-6.424-4.104.557-6.98 4.336-6.424 8.44l3.031 22.343-16.908 2.729-14.165-104.413c1.271.143 2.561.224 3.87.224 4.632 0 9.05-.927 13.086-2.598l6.975 51.413c.511 3.763 3.728 6.493 7.423 6.493.335 0 .675-.023 1.018-.069 4.104-.557 6.98-4.336 6.424-8.441l-8.104-59.74c4.69-5.87 7.503-13.302 7.503-21.382 0-18.926-15.398-34.323-34.324-34.323s-34.323 15.398-34.323 34.323c0 11.539 5.729 21.758 14.486 27.984l34.878 257.092-63.434 39.5c-9.582 5.966-20.613 9.12-31.9 9.12h-66.051c-4.142 0-7.5 3.358-7.5 7.5s3.358 7.5 7.5 7.5h66.051c14.093 0 27.865-3.938 39.829-11.387l57.716-35.939 4.099 30.217-42.833 28.663c-15.813 10.582-32.915 18.075-50.831 22.272-19.098 4.473-38.728 6.741-58.345 6.741h-29.974c-24.892 0-49.604-3.623-73.45-10.769l-23.693-7.1c.321-2.49.505-5.022.505-7.597 0-5.218-.687-10.278-1.964-15.1h82.889c4.142 0 7.5-3.358 7.5-7.5s-3.358-7.5-7.5-7.5h-54.09c-.072-.361-.162-.721-.291-1.078-10.603-29.447-35.128-51.175-65.606-58.122-21.224-4.838-43.507-1.922-62.741 8.208-19.02 10.018-33.938 26.446-42.008 46.259-1.511 3.71-1.32 7.87.524 11.412 1.83 3.515 5.097 6.036 8.961 6.917l17.508 3.991c-.874 4.036-1.347 8.22-1.347 12.514 0 32.577 26.503 59.081 59.081 59.081 24.759 0 45.996-15.315 54.77-36.964l23.193 6.95c25.244 7.565 51.405 11.4 77.756 11.4h29.974c20.767 0 41.548-2.401 61.766-7.136 19.678-4.608 38.436-12.821 55.752-24.41l3.338-2.234c3.333 29.439 28.376 52.394 58.692 52.394 32.578 0 59.081-26.503 59.081-59.081.001-26.147-17.388-49.322-42.385-56.676zm-65.584-326.444c10.655 0 19.324 8.669 19.324 19.323 0 10.655-8.669 19.323-19.324 19.323s-19.323-8.668-19.323-19.323 8.668-19.323 19.323-19.323zm-316.352 427.2c-24.306 0-44.081-19.774-44.081-44.081 0-24.306 19.775-44.081 44.081-44.081s44.081 19.775 44.081 44.081-19.775 44.081-44.081 44.081zm50.81-74.181c-10.308-17.334-29.221-28.981-50.811-28.981-22.955 0-42.88 13.168-52.656 32.339l-17.523-3.994c6.875-15.848 19.053-28.975 34.448-37.083 16.068-8.463 34.683-10.897 52.418-6.855 24.065 5.485 43.685 22.006 53.251 44.575h-19.127zm277.854-180.315 16.908-2.729 27.255 200.899c.471 4.465-2.758 8.498-7.228 9.006l-.725.082c-4.488.518-8.563-2.727-9.074-7.22-.006-.053-.013-.107-.02-.16zm36.576 254.496c-24.306 0-44.081-19.774-44.081-44.081 0-.495.008-.988.024-1.479.017-.531-.023-1.05-.112-1.553l18.874-12.63.959 7.069c1.385 11.78 11.423 20.492 23.023 20.491.872 0 1.754-.049 2.641-.15l.725-.082c12.71-1.447 21.874-12.964 20.428-25.673-.006-.054-.013-.107-.02-.161l-3.476-25.622c15.08 7.215 25.095 22.647 25.095 39.79.002 24.306-19.773 44.081-44.08 44.081z"/></g></svg>