<?xml version="1.0" encoding="iso-8859-1"?>
<!-- Generator: Adobe Illustrator 19.0.0, SVG Export Plug-In . SVG Version: 6.00 Build 0)  -->
<svg version="1.1" id="Capa_1" xmlns="http://www.w3.org/2000/svg" xmlns:xlink="http://www.w3.org/1999/xlink" x="0px" y="0px"
	 viewBox="0 0 512 512" style="enable-background:new 0 0 512 512;" xml:space="preserve">
<path style="fill:#FFC502;" d="M204.038,105.956l-11.382,14.356c2.791,12.356,4.979,24.523,6.363,35.688H312.98
	c1.385-11.165,3.572-23.332,6.363-35.688l-11.855-14.952c3.33-2.888,5.446-7.14,5.446-11.895c0-8.697-7.051-15.748-15.748-15.748
	s-15.748,7.051-15.748,15.748c0,4.246,1.688,8.092,4.421,10.924l-10.23,15.728l-11.097-17.062c4.338-2.805,7.215-7.674,7.215-13.224
	c0-8.697-7.051-15.748-15.748-15.748s-15.748,7.051-15.748,15.748c0,5.55,2.878,10.419,7.215,13.224l-11.097,17.062l-10.734-16.505
	c2.314-2.74,3.714-6.277,3.714-10.146c0-8.697-7.051-15.748-15.748-15.748s-15.748,7.051-15.748,15.748
	C197.854,98.562,200.284,103.078,204.038,105.956z"/>
<path style="fill:#D2957D;" d="M327.435,355.261C319.914,357.049,312.068,358,304,358h-96c-8.068,0-15.914-0.951-23.436-2.739
	C163.813,355.496,147,372.442,147,393.25V499.5c0,2.762,2.239,5,5,5h208c2.762,0,5-2.238,5-5V393.25
	C365,372.443,348.188,355.496,327.435,355.261z"/>
<g>
	<circle style="fill:#FFC502;" cx="227.5" cy="394" r="14"/>
	<circle style="fill:#FFC502;" cx="284.5" cy="394" r="14"/>
</g>
<path style="fill:#693FBA;" d="M192.231,356.772c0.127,0.02,0.256,0.033,0.382,0.053c-2.719-0.417-5.405-0.936-8.049-1.564
	C163.813,355.496,147,372.442,147,393.25V499.5c0,2.762,2.239,5,5,5h20.5V384.25C172.5,371.477,180.762,360.64,192.231,356.772z"/>
<path style="fill:#FFFFFF;" d="M208,358c-5.365,0-10.631-0.422-15.769-1.228c-11.47,3.867-19.731,14.704-19.731,27.478V504.5h23
	V384.25c0-11.606,6.82-21.615,16.67-26.25H208z"/>
<path style="fill:#693FBA;" d="M327.435,355.261c-2.645,0.629-5.333,1.148-8.055,1.565c0.129-0.021,0.26-0.033,0.389-0.054
	c11.469,3.867,19.73,14.704,19.73,27.478V504.5H360c2.762,0,5-2.238,5-5V393.25C365,372.443,348.188,355.496,327.435,355.261z"/>
<path style="fill:#FFFFFF;" d="M319.77,356.772C314.631,357.578,309.365,358,304,358h-4.17c9.85,4.635,16.67,14.644,16.67,26.25
	V504.5h23V384.25C339.5,371.477,331.238,360.64,319.77,356.772z"/>
<path style="fill:#D2957D;" d="M359.199,172.412c14.484-22.431,29.126-51.973,38.912-78.86c20.022-55.011,12.134-78.057-5.596-84.51
	s-38.586,6.131-58.608,61.142C324.072,97.205,316.274,129.43,312.98,156H199.02c-3.295-26.57-11.092-58.795-20.928-85.816
	C158.07,15.173,137.213,2.589,119.484,9.042s-25.618,29.499-5.595,84.51c9.785,26.888,24.428,56.431,38.912,78.861
	C125.225,190.445,107,221.592,107,257c0,55.781,45.22,101,101,101h96c55.781,0,101-45.219,101-101
	C405,221.592,386.775,190.444,359.199,172.412z"/>
<path style="opacity:0.15;fill:#490089;enable-background:new    ;" d="M182.741,168.737c-1.685-2.608-3.365-5.315-5.041-8.08
	c-2.394,0.751-4.759,1.564-7.073,2.486c-1.742-2.655-3.571-5.553-5.485-8.713c-12.443-20.548-24.274-45.23-32.459-67.719
	c-10.278-28.24-11.279-43.396-10.309-51.137c0.827-6.602,2.782-7.314,3.95-7.739c0.611-0.223,1.15-0.335,1.602-0.335
	c0.345,0,0.77,0.077,1.268,0.25c0.061-1.754,0.179-3.446,0.38-5.049c0.739-5.894,2.402-10.607,5.011-14.22
	c-5.212-1.539-10.272-1.197-15.101,0.56c-17.729,6.453-25.618,29.499-5.595,84.51c9.785,26.888,24.428,56.431,38.912,78.861
	C125.225,190.445,107,221.592,107,257c0,21.943,7,42.251,18.886,58.815c0.001,0,0.001,0,0.001,0
	c1.827-7.855,7.715-14.134,15.326-16.545c-4.383-11.432-6.797-23.83-6.797-36.785c0-34.921,17.479-67.197,46.753-86.341
	C183.641,174.527,184.344,171.218,182.741,168.737z"/>
<g>
	<path style="fill:#FB8276;" d="M148.096,298.191c-10.813,0-19.86,7.525-22.209,17.622c7.738,10.786,17.551,19.981,28.852,27.01
		c9.356-2.845,16.166-11.537,16.166-21.823C170.904,308.402,160.692,298.191,148.096,298.191z"/>
	<path style="fill:#FB8276;" d="M386.113,315.815c-2.349-10.098-11.397-17.623-22.209-17.623c-12.597,0-22.809,10.211-22.809,22.809
		c0,10.286,6.81,18.978,16.166,21.823C368.563,335.795,378.375,326.6,386.113,315.815z"/>
</g>
<g>
	<path style="fill:#FFC7A9;" d="M165.142,154.431c1.914,3.16,3.743,6.058,5.485,8.713c2.855-1.138,5.774-2.145,8.75-3.023
		c-0.375-3.198-0.842-6.645-1.416-10.357c-3.676-23.739-10.478-50.252-18.663-72.739c-14.787-40.627-27.66-49.523-31.372-49.523
		c-0.451,0-0.99,0.112-1.602,0.335c-1.168,0.425-3.123,1.137-3.95,7.739c-0.971,7.741,0.03,22.896,10.309,51.137
		C140.867,109.2,152.698,133.883,165.142,154.431z"/>
	<path style="fill:#FFC7A9;" d="M341.373,163.144c1.742-2.655,3.572-5.553,5.486-8.714c12.442-20.547,24.273-45.229,32.458-67.719
		c10.278-28.238,11.279-43.393,10.309-51.135c-0.828-6.603-2.782-7.315-3.95-7.74c-0.611-0.223-1.15-0.335-1.602-0.335
		c-3.713,0-16.586,8.896-31.373,49.523c-8.185,22.487-14.987,49-18.662,72.739c-0.574,3.713-1.041,7.159-1.416,10.357
		C335.599,160.999,338.519,162.006,341.373,163.144z"/>
</g>
<path style="fill:#FFFFFF;" d="M230.941,307v19c0,1.65,1.35,3,3,3h44.117c1.65,0,3-1.35,3-3v-19H230.941z"/>
<g>
	<ellipse style="fill:#775436;" cx="333.5" cy="245.47" rx="13.477" ry="13.529"/>
	<ellipse style="fill:#775436;" cx="178.5" cy="245.47" rx="13.477" ry="13.529"/>
</g>
<path style="fill:#FFC7A9;" d="M310,279c0,15.464-12.536,28-28,28h-52c-15.464,0-28-12.536-28-28l0,0c0-15.464,12.536-28,28-28h52
	C297.464,251,310,263.536,310,279L310,279z"/>
<g style="opacity:0.15;">
	<path style="fill:#3D0072;" d="M232,279c0-15.464,12.536-28,28-28h-30c-15.464,0-28,12.536-28,28s12.536,28,28,28h30
		C244.536,307,232,294.464,232,279z"/>
</g>
<path style="fill:#775436;" d="M278.5,263c0,6.627-5.372,12-12,12h-21c-6.627,0-12-5.373-12-12l0,0c0-6.627,5.373-12,12-12h21
	C273.128,251,278.5,256.373,278.5,263L278.5,263z"/>
<path style="fill:#FFC7A9;" d="M289.129,504.5v-52.241c0-18.297-14.832-33.129-33.129-33.129s-33.129,14.832-33.129,33.129V504.5
	H289.129z"/>
<g style="opacity:0.15;">
	<path style="fill:#3D0072;" d="M267.565,421.209c-3.601-1.342-7.496-2.079-11.565-2.079c-18.297,0-33.129,14.832-33.129,33.129
		V504.5H246v-52.241C246,438.03,254.971,425.9,267.565,421.209z"/>
</g>
<path d="M170.63,170.645c0.928,0,1.868-0.173,2.773-0.533c2.616-1.043,5.34-1.983,8.096-2.797c3.503-1.033,5.752-4.439,5.327-8.066
	c-0.398-3.388-0.887-6.964-1.453-10.632c-3.748-24.205-10.684-51.234-19.027-74.157c-12.412-34.1-26.774-54.458-38.42-54.458
	c-1.331,0-2.733,0.265-4.165,0.787c-5.14,1.869-7.862,6.142-8.828,13.854c-1.562,12.451,2.039,30.833,10.702,54.636
	c8.345,22.927,20.405,48.09,33.092,69.039c1.89,3.12,3.784,6.129,5.63,8.941C165.776,169.423,168.161,170.645,170.63,170.645z
	 M139.73,84.146c-9.859-27.089-10.58-40.82-9.996-46.899c4.263,4.206,12.632,15.187,22.516,42.343
	c7.706,21.17,14.163,45.981,17.855,68.535C158.439,128.477,147.436,105.319,139.73,84.146z"/>
<path d="M330.501,167.314c2.76,0.814,5.483,1.755,8.096,2.796c0.905,0.361,1.845,0.534,2.773,0.534c2.468,0,4.854-1.222,6.273-3.387
	c1.856-2.829,3.751-5.838,5.631-8.943c6.003-9.912,11.837-20.692,17.34-32.043c1.807-3.727,0.25-8.213-3.478-10.021
	c-3.726-1.805-8.214-0.25-10.02,3.478c-4.855,10.013-9.969,19.553-15.222,28.398c3.69-22.549,10.146-47.361,17.854-68.537
	c9.885-27.159,18.255-38.138,22.517-42.343c0.584,6.077-0.136,19.808-9.995,46.897c-0.624,1.712-1.268,3.438-1.933,5.172
	c-1.482,3.867,0.451,8.204,4.318,9.687c3.873,1.484,8.206-0.452,9.688-4.318c0.695-1.813,1.369-3.617,2.021-5.408
	c8.663-23.801,12.264-42.182,10.702-54.634c-0.967-7.713-3.69-11.986-8.825-13.854c-1.435-0.524-2.838-0.788-4.168-0.788
	c-11.646,0-26.009,20.358-38.421,54.458c-8.346,22.93-15.28,49.959-19.026,74.158c-0.567,3.667-1.056,7.243-1.453,10.631
	C324.749,162.875,326.998,166.281,330.501,167.314z"/>
<path d="M333.501,224.441c-11.567,0-20.978,9.434-20.978,21.029s9.41,21.029,20.978,21.029c11.566,0,20.977-9.434,20.977-21.029
	S345.067,224.441,333.501,224.441z M333.501,251.5c-3.296,0-5.978-2.705-5.978-6.029s2.682-6.029,5.978-6.029
	s5.977,2.705,5.977,6.029S336.797,251.5,333.501,251.5z"/>
<path d="M178.501,224.441c-11.567,0-20.978,9.434-20.978,21.029s9.41,21.029,20.978,21.029c11.566,0,20.976-9.434,20.976-21.029
	S190.067,224.441,178.501,224.441z M178.501,251.5c-3.296,0-5.978-2.705-5.978-6.029s2.682-6.029,5.978-6.029
	c3.296,0,5.976,2.705,5.976,6.029S181.797,251.5,178.501,251.5z"/>
<path d="M282,243.5h-52c-19.575,0-35.5,15.925-35.5,35.5c0,17.334,12.49,31.796,28.941,34.883V326c0,5.79,4.71,10.5,10.5,10.5
	h44.117c5.79,0,10.5-4.71,10.5-10.5v-12.117C305.01,310.796,317.5,296.334,317.5,279C317.5,259.425,301.575,243.5,282,243.5z
	 M245.5,258.5h21c2.481,0,4.5,2.019,4.5,4.5s-2.019,4.5-4.5,4.5h-21c-2.481,0-4.5-2.019-4.5-4.5S243.019,258.5,245.5,258.5z
	 M238.441,314.5H248.5v7h-10.059V314.5z M263.5,321.5v-7h10.059v7H263.5z M282,299.5h-52c-11.304,0-20.5-9.196-20.5-20.5
	c0-10.099,7.347-18.494,16.971-20.174C226.174,260.172,226,261.565,226,263c0,10.752,8.748,19.5,19.5,19.5h21
	c10.752,0,19.5-8.748,19.5-19.5c0-1.435-0.174-2.828-0.471-4.174c9.624,1.68,16.971,10.075,16.971,20.174
	C302.5,290.304,293.304,299.5,282,299.5z"/>
<path d="M432.237,271.5c4.143,0,7.5-3.357,7.5-7.5s-3.357-7.5-7.5-7.5h-19.745c-0.154-34.095-16.127-65.746-43.151-86.123
	c13.605-22.166,26.772-49.405,35.818-74.26c9.759-26.812,13.713-48.331,11.753-63.962c-2.412-19.238-13.203-27.02-21.831-30.161
	C391.446,0.671,387.742,0,384.073,0c-10.714,0-20.917,5.559-30.324,16.521c-9.553,11.132-18.601,28.323-26.89,51.098
	c-2.447,6.724-4.77,13.776-6.939,20.989c-2.24-10.495-11.58-18.391-22.733-18.391c-8.263,0-15.532,4.333-19.656,10.846
	c-3.468-8.485-11.813-14.479-21.531-14.479c-10.19,0-18.871,6.59-22.002,15.733c-3.954-7.205-11.614-12.1-20.396-12.1
	c-10.382,0-19.194,6.841-22.17,16.251c-1.982-6.468-4.087-12.792-6.292-18.85c-8.289-22.773-17.336-39.964-26.89-51.097
	C148.842,5.559,138.64,0,127.926,0c-3.669,0-7.373,0.671-11.008,1.994c-8.628,3.141-19.419,10.923-21.831,30.161
	c-1.96,15.631,1.995,37.15,11.754,63.961c9.045,24.854,22.211,52.094,35.818,74.262c-27.024,20.377-42.997,52.027-43.151,86.122
	H79.763c-4.143,0-7.5,3.357-7.5,7.5s3.357,7.5,7.5,7.5h20.718c0.316,2.358,0.711,4.691,1.177,7H86.25c-4.143,0-7.5,3.357-7.5,7.5
	s3.357,7.5,7.5,7.5h19.584c9.63,26.869,29.56,48.877,55.023,61.212c-12.816,8.057-21.357,22.314-21.357,38.538V499.5
	c0,6.893,5.607,12.5,12.5,12.5h208c6.893,0,12.5-5.607,12.5-12.5V393.25c0-16.224-8.541-30.482-21.357-38.538
	c25.463-12.335,45.393-34.343,55.023-61.212h19.584c4.143,0,7.5-3.357,7.5-7.5s-3.357-7.5-7.5-7.5h-15.407
	c0.466-2.309,0.86-4.642,1.177-7H432.237z M275.659,102.248c0.328,0.802,0.701,1.586,1.119,2.348l-1.148,1.766l-1.382-2.126
	C274.754,103.597,275.225,102.934,275.659,102.248z M235.596,100.983c0.625,1.141,1.346,2.228,2.156,3.252l-1.382,2.125
	l-1.828-2.811C234.944,102.716,235.296,101.858,235.596,100.983z M211.481,105.034c-0.247-1.995-1.285-3.807-2.88-5.03
	c-2.064-1.582-3.248-3.966-3.248-6.539c0-4.548,3.7-8.248,8.248-8.248s8.248,3.7,8.248,8.248c0,2.483-1.058,4.258-1.944,5.309
	c-2.134,2.527-2.36,6.154-0.557,8.927l10.734,16.505c1.384,2.128,3.749,3.411,6.287,3.411s4.903-1.283,6.287-3.411l11.097-17.062
	c1.086-1.67,1.464-3.704,1.048-5.652c-0.415-1.949-1.589-3.652-3.262-4.734c-2.372-1.534-3.788-4.123-3.788-6.926
	c0-4.548,3.7-8.248,8.248-8.248c4.548,0,8.248,3.7,8.248,8.248c0,2.804-1.416,5.393-3.787,6.926
	c-1.673,1.081-2.848,2.785-3.263,4.733c-0.416,1.949-0.039,3.983,1.048,5.653l11.097,17.062c1.384,2.128,3.749,3.411,6.287,3.411
	c2.537,0,4.903-1.283,6.287-3.41l10.23-15.728c1.904-2.929,1.535-6.783-0.89-9.298c-1.495-1.549-2.318-3.579-2.318-5.716
	c0-4.548,3.7-8.248,8.248-8.248s8.248,3.7,8.248,8.248c0,2.382-1.042,4.652-2.86,6.229c-3.032,2.63-3.457,7.181-0.963,10.325
	l9.633,12.149c-1.952,8.985-3.587,17.859-4.82,26.332h-100.85c-1.233-8.473-2.867-17.347-4.819-26.33l9.16-11.555
	C211.164,109.04,211.729,107.029,211.481,105.034z M155.555,334.368c-8.089-5.501-15.273-12.236-21.282-19.933
	c2.48-5.27,7.78-8.744,13.823-8.744c8.441,0,15.309,6.867,15.309,15.309C163.404,326.677,160.349,331.714,155.555,334.368z
	 M188,384.25V497h-8v-58c0-4.143-3.357-7.5-7.5-7.5s-7.5,3.357-7.5,7.5v58h-10.5V393.25c0-11.07,5.93-20.78,14.778-26.125
	C166.55,372.234,165,378.064,165,384.25V402c0,4.143,3.357,7.5,7.5,7.5s7.5-3.357,7.5-7.5v-17.75c0-8.891,5.44-16.503,13.154-19.771
	c0.214,0.029,0.427,0.063,0.641,0.09C190.139,370.254,188,377.004,188,384.25z M309,497h-12.371v-5c0-4.143-3.357-7.5-7.5-7.5
	s-7.5,3.357-7.5,7.5v5h-51.258v-44.741c0-14.132,11.497-25.629,25.629-25.629c14.132,0,25.629,11.497,25.629,25.629V458
	c0,4.143,3.357,7.5,7.5,7.5s7.5-3.357,7.5-7.5v-5.741c0-22.403-18.226-40.629-40.629-40.629s-40.629,18.226-40.629,40.629V497H203
	V384.25c0-8.047,4.449-15.065,11.012-18.75h25.023l-7.408,7.407c-1.336-0.262-2.715-0.407-4.127-0.407
	c-11.855,0-21.5,9.645-21.5,21.5s9.645,21.5,21.5,21.5S249,405.855,249,394c0-4.846-1.631-9.308-4.346-12.907L256,369.748
	l11.346,11.345c-2.715,3.6-4.346,8.061-4.346,12.907c0,11.855,9.645,21.5,21.5,21.5S306,405.855,306,394s-9.645-21.5-21.5-21.5
	c-1.412,0-2.791,0.146-4.127,0.407l-7.408-7.407h25.023c6.563,3.685,11.012,10.703,11.012,18.75V497z M234,394
	c0,3.584-2.916,6.5-6.5,6.5s-6.5-2.916-6.5-6.5s2.916-6.5,6.5-6.5S234,390.416,234,394z M278,394c0-3.584,2.916-6.5,6.5-6.5
	s6.5,2.916,6.5,6.5s-2.916,6.5-6.5,6.5S278,397.584,278,394z M332,497h-8V384.25c0-7.246-2.139-13.996-5.795-19.681
	c0.214-0.027,0.427-0.061,0.641-0.09C326.56,367.747,332,375.359,332,384.25V497z M357.5,393.25V497H347V384.25
	c0-6.196-1.566-12.027-4.305-17.141C351.559,372.451,357.5,382.169,357.5,393.25z M356.445,334.368
	c-4.794-2.654-7.85-7.691-7.85-13.368c0-8.441,6.867-15.309,15.309-15.309c6.043,0,11.342,3.475,13.823,8.745
	C371.719,322.132,364.534,328.867,356.445,334.368z M386.559,300.848c-5.582-6.308-13.706-10.156-22.654-10.156
	c-16.712,0-30.309,13.597-30.309,30.309c0,8.228,3.252,15.77,8.716,21.285C330.613,347.56,317.644,350.5,304,350.5h-96
	c-13.644,0-26.613-2.94-38.311-8.215c5.464-5.516,8.716-13.057,8.716-21.285c0-16.712-13.597-30.309-30.309-30.309
	c-8.947,0-17.071,3.85-22.654,10.156C118.463,287.763,114.5,272.836,114.5,257c0-31.672,15.852-60.946,42.405-78.31
	c3.453-2.258,4.434-6.88,2.196-10.346c-14.366-22.247-28.633-51.166-38.165-77.358c-8.938-24.553-12.627-43.719-10.966-56.966
	c0.763-6.088,2.846-14.57,12.078-17.931c1.985-0.723,3.963-1.09,5.877-1.09c14.251,0,29.564,20.509,43.118,57.749
	c9.587,26.336,17.263,57.803,20.532,84.174c0.466,3.757,3.658,6.577,7.443,6.577H312.98c3.785,0,6.978-2.82,7.443-6.577
	c3.269-26.365,10.943-57.832,20.531-84.174C354.509,35.509,369.822,15,384.073,15c1.914,0,3.892,0.367,5.877,1.09
	c21.8,7.935,10.055,50.331,1.113,74.896c-9.533,26.194-23.801,55.113-38.165,77.357c-2.237,3.466-1.257,8.088,2.196,10.346
	C381.647,196.053,397.5,225.327,397.5,257C397.5,272.836,393.537,287.763,386.559,300.848z"/>
<g>
</g>
<g>
</g>
<g>
</g>
<g>
</g>
<g>
</g>
<g>
</g>
<g>
</g>
<g>
</g>
<g>
</g>
<g>
</g>
<g>
</g>
<g>
</g>
<g>
</g>
<g>
</g>
<g>
</g>
</svg>
