<svg id="Capa_1" enable-background="new 0 0 512.042 512.042" height="512" viewBox="0 0 512.042 512.042" width="512" xmlns="http://www.w3.org/2000/svg"><g><path d="m236.9 169.276v-132.354h38.247v161.606h-38.247z" fill="#c8c3ca"/><path d="m255.147 36.922h20v161.606h-20z" fill="#b1abb4"/><ellipse cx="256.024" cy="363.498" fill="#766d78" rx="140.964" ry="140.964" transform="matrix(.707 -.707 .707 .707 -182.044 287.502)"/><path d="m306.957 232.057c-21.725-8.418-44.261-11.084-65.931-8.747 12.037 1.296 24.104 4.164 35.931 8.747 72.593 28.13 108.637 109.781 80.508 182.374-19.711 50.868-65.704 83.784-116.443 89.255 61.846 6.657 122.896-28.489 146.443-89.255 28.129-72.593-7.915-154.244-80.508-182.374z" fill="#655e67"/><ellipse cx="256.024" cy="363.498" fill="#fbfbfb" rx="99.677" ry="99.677" transform="matrix(.707 -.707 .707 .707 -182.044 287.502)"/><path d="m292.039 270.555c-16.839-6.525-34.368-8.167-51.024-5.615 7.052 1.079 14.096 2.93 21.024 5.615 51.331 19.891 76.818 77.627 56.927 128.958-13.365 34.491-43.819 57.314-77.934 62.542 45.202 6.919 90.728-18.139 107.934-62.542 19.891-51.331-5.596-109.067-56.927-128.958z" fill="#e7e7e7"/><path d="m257.901 385.962h-3.755c-18.337 0-33.202-14.865-33.202-33.202v-170.869c0-4.773 3.869-8.642 8.642-8.642h52.875c4.773 0 8.642 3.869 8.642 8.642v170.869c0 18.337-14.865 33.202-33.202 33.202z" fill="#9ec8fc"/><path d="m155.16 24.971c0 9.649 7.822 17.471 17.471 17.471 23.748 0 46.729 8.412 64.864 23.745l4.188 3.54c6.45 5.453 14.622 8.445 23.068 8.445h35.277c19.733 0 35.73-15.997 35.73-35.73v-20.084c0-8.206-6.652-14.858-14.858-14.858h-148.27c-9.648 0-17.47 7.822-17.47 17.471z" fill="#f7d958"/><path d="m282.461 173.249h-30c4.773 0 8.642 3.869 8.642 8.642v170.869c0 13.675-8.27 25.416-20.08 30.503 4.026 1.734 8.461 2.699 13.123 2.699h3.755c18.337 0 33.202-14.865 33.202-33.202v-170.869c0-4.773-3.869-8.642-8.642-8.642z" fill="#80b6fc"/><path d="m320.898 7.5h-30c8.206 0 14.858 6.652 14.858 14.858v20.083c0 19.733-15.997 35.729-35.729 35.729h30c19.733 0 35.729-15.997 35.729-35.729v-20.083c.001-8.206-6.652-14.858-14.858-14.858z" fill="#f3c625"/><path d="m384.126 288.444c-2.092-3.575-6.684-4.778-10.261-2.686-3.575 2.092-4.778 6.686-2.686 10.261 20.693 35.369 24.08 77.541 9.292 115.702-12.881 33.241-37.936 59.477-70.549 73.874-32.611 14.397-68.881 15.232-102.122 2.351s-59.477-37.936-73.873-70.549-15.231-68.881-2.351-102.122c14.459-37.314 44.127-65.573 81.867-78.26v28.131c-.017.007-.035.012-.052.019-26.513 11.495-46.863 32.664-57.304 59.607-21.354 55.105 6.105 117.308 61.21 138.661 12.568 4.87 25.674 7.299 38.76 7.299 14.707-.001 29.39-3.069 43.248-9.187 26.189-11.561 46.31-32.629 56.653-59.323 20.715-53.457-4.089-113.499-56.466-136.693-.293-.13-.591-.232-.89-.322v-28.199c1.896.64 3.782 1.321 5.644 2.042 20.217 7.834 37.678 19.998 51.899 36.154 1.483 1.684 3.553 2.544 5.633 2.544 1.76 0 3.527-.616 4.953-1.871 3.108-2.737 3.41-7.476.674-10.585-15.605-17.728-35.571-31.639-57.739-40.229-3.63-1.407-7.348-2.676-11.064-3.792v-39.381c0-8.838-7.142-16.032-15.957-16.133v-80.086h17.38c23.837 0 43.23-19.393 43.23-43.23v-20.083c.002-12.328-10.028-22.358-22.356-22.358h-121.834c-4.143 0-7.5 3.358-7.5 7.5s3.357 7.5 7.5 7.5h121.834c4.058 0 7.358 3.301 7.358 7.358v20.082c0 15.566-12.664 28.23-28.23 28.23h-35.277c-6.663 0-13.137-2.37-18.227-6.672l-4.188-3.54c-19.464-16.455-44.219-25.518-69.706-25.518-5.498 0-9.971-4.473-9.971-9.97 0-5.498 4.473-9.971 9.971-9.971 4.143 0 7.5-3.358 7.5-7.5s-3.357-7.5-7.5-7.5h-3.565c-1.493 0-2.884.436-4.053 1.188-10.055 3.229-17.353 12.669-17.353 23.783 0 13.769 11.202 24.97 24.971 24.97 20.551 0 40.549 6.844 56.771 19.349v96.469c-8.815.101-15.957 7.294-15.957 16.133v39.384c-44.255 13.273-79.163 45.504-95.854 88.58-14.329 36.977-13.4 77.321 2.614 113.6 16.015 36.278 45.198 64.149 82.176 78.478 17.41 6.747 35.563 10.11 53.691 10.11 20.373 0 40.712-4.25 59.909-12.726 36.279-16.015 64.149-45.199 78.478-82.176 16.451-42.45 12.685-89.359-10.331-128.697zm-198.567 134.45c-12.352-14.705-19.895-33.016-21.425-52.223l53.602.251c2.178 4.349 5.111 8.254 8.629 11.546zm27.885-141.124v28.237l-16.853-17.012c5.137-4.318 10.783-8.075 16.853-11.225zm-27.499 21.793 27.498 27.758v21.439c0 1.058.053 2.104.133 3.142l-49.4-.231c.723-8.532 2.652-17.1 5.898-25.478 3.824-9.867 9.206-18.822 15.871-26.63zm10.17 129.988 43.273-42.87c2.727 1.065 5.591 1.855 8.565 2.311v62.35c-8.538-.763-17.021-2.711-25.235-5.894-9.981-3.868-18.902-9.298-26.603-15.897zm97.133 14.273c-9.75 4.304-19.974 6.845-30.295 7.631v-62.317c3.273-.407 6.426-1.201 9.412-2.34l42.923 43.327c-6.583 5.508-13.969 10.136-22.04 13.699zm32.722-24.231-40.521-40.902c3.525-3.247 6.47-7.109 8.679-11.411l53.754.252c-.753 8.462-2.688 16.959-5.909 25.272-3.846 9.925-9.271 18.942-16.003 26.789zm.711-119.392c12.387 14.753 19.858 33.097 21.304 52.33l-49.545-.231c.101-1.168.164-2.346.164-3.54v-21.073c.521-.308 1.016-.677 1.466-1.122zm-10.552-10.66-17.525 17.362v-29.161c6.39 3.312 12.251 7.282 17.525 11.799zm-51.379-207.87h2.896v80.078h-23.246v-85.177c6.226 3.319 13.215 5.099 20.35 5.099zm-36.306 96.22c0-.63.513-1.142 1.143-1.142h52.875c.63 0 1.143.512 1.143 1.142v170.869c0 14.172-11.53 25.702-25.702 25.702h-3.756c-14.172 0-25.702-11.53-25.702-25.702v-170.869z"/></g></svg>