<?xml version="1.0" encoding="iso-8859-1"?>
<!-- Generator: Adobe Illustrator 19.0.0, SVG Export Plug-In . SVG Version: 6.00 Build 0)  -->
<svg version="1.1" id="Capa_1" xmlns="http://www.w3.org/2000/svg" xmlns:xlink="http://www.w3.org/1999/xlink" x="0px" y="0px"
	 viewBox="0 0 512 512" style="enable-background:new 0 0 512 512;" xml:space="preserve">
<path style="fill:#312F56;" d="M418.19,210.395c11.148-5.177,17.9-16.444,17.203-28.706c-0.647-11.416-7.916-21.584-18.516-25.905
	c-1.605-0.654-2.789-2.055-3.162-3.749c-0.375-1.693,0.105-3.462,1.285-4.733c8.357-9.01,10.346-21.995,5.063-33.083
	c-4.914-10.313-15.48-16.976-26.941-16.976c0,0-0.002,0-0.004,0c-1.732,0-3.355-0.849-4.342-2.273
	c-0.986-1.426-1.213-3.247-0.602-4.868c4.332-11.501,1.258-24.273-7.826-32.537c-5.494-4.997-12.606-7.749-20.027-7.749
	c-3.912,0-7.727,0.749-11.33,2.228c-0.645,0.264-1.326,0.394-2.004,0.394c-1.008,0-2.012-0.288-2.881-0.855
	c-1.453-0.945-2.35-2.544-2.398-4.278c-0.344-12.286-8.02-22.946-19.557-27.16c-3.297-1.205-6.732-1.816-10.205-1.816
	c-7.752,0-15.375,3.124-20.914,8.569c-0.996,0.979-2.33,1.516-3.701,1.516c-0.33,0-0.662-0.031-0.994-0.096
	c-1.703-0.324-3.137-1.468-3.84-3.053C277.733,14.474,267.044,7.5,255.269,7.5c-0.381,0-0.764,0.008-1.148,0.023
	c-11.426,0.434-21.73,7.508-26.252,18.025c-0.682,1.594-2.107,2.749-3.809,3.091c-0.346,0.071-0.695,0.104-1.043,0.104
	c-1.354,0-2.672-0.521-3.666-1.479c-5.506-5.309-13.055-8.355-20.707-8.355c-4.242,0-8.369,0.898-12.27,2.666
	c-10.41,4.723-17.273,15.17-17.484,26.615c-0.029,1.735-0.91,3.343-2.354,4.303c-0.881,0.584-1.9,0.884-2.926,0.884
	c-0.66,0-1.324-0.123-1.953-0.376c-3.518-1.399-7.23-2.11-11.037-2.11c-8.277,0-15.963,3.311-21.641,9.323
	c-7.854,8.311-10.252,20.576-6.111,31.249c0.627,1.618,0.418,3.439-0.553,4.875c-0.975,1.436-2.592,2.302-4.324,2.318
	c-12.291,0.109-23.096,7.583-27.525,19.038c-4.123,10.665-1.705,22.927,6.166,31.239c1.189,1.26,1.689,3.024,1.33,4.721
	c-0.357,1.697-1.527,3.112-3.125,3.782c-11.336,4.751-18.51,15.754-18.275,28.037c0.215,11.429,7.094,21.864,17.523,26.584
	c1.582,0.714,2.709,2.161,3.02,3.867c0.311,1.706-0.236,3.456-1.465,4.682c-8.693,8.688-11.172,21.586-6.307,32.867
	c4.521,10.499,14.836,17.557,26.277,17.979c1.734,0.065,3.326,0.974,4.258,2.437c0.934,1.462,1.09,3.289,0.416,4.888
	c-4.76,11.331-2.174,24.21,6.592,32.812c5.6,5.494,13.006,8.519,20.852,8.52h0.002c3.523,0,6.982-0.611,10.279-1.818
	c0.588-0.215,1.203-0.322,1.814-0.322c1.076,0,2.145,0.329,3.047,0.968c1.418,1.001,2.254,2.632,2.236,4.367
	c-0.123,12.29,7.143,23.232,18.51,27.877c2.607,1.066,5.309,1.746,8.063,2.044l11.964-31.397
	c-19.567-11.85-34.794-30.143-42.747-51.936c0.043,0.118,0.082,0.239,0.126,0.357c-2.683,4.065-7.286,6.752-12.522,6.752
	c-8.283,0-15-6.716-15-15c0-3.023,0.902-5.833,2.441-8.188c-6.29-4.007-10.467-11.037-10.467-19.048V210.23
	c0-12.466,10.105-22.573,22.572-22.573h6.734v-41.218c0-55.902,45.318-78.438,101.219-78.438
	c55.902,0,101.221,22.535,101.221,78.438v41.218h6.734c12.467,0,22.572,10.107,22.572,22.573v24.535
	c0,8.011-4.177,15.042-10.468,19.049c1.538,2.355,2.44,5.164,2.44,8.187c0,8.284-6.715,15-15,15c-5.234,0-9.838-2.685-12.522-6.75
	c0.059-0.159,0.112-0.32,0.17-0.48c-7.768,21.365-22.523,39.374-41.509,51.261l10.717,31.685c3.996-0.239,7.855-1.277,11.495-3.098
	c10.229-5.112,16.689-15.811,16.463-27.254c-0.033-1.732,0.785-3.374,2.191-4.39c0.912-0.656,1.994-0.996,3.09-0.996
	c0.594,0,1.191,0.1,1.766,0.304c3.201,1.137,6.557,1.713,9.975,1.713c8.592,0,16.76-3.701,22.41-10.155
	c7.535-8.602,9.469-20.949,4.93-31.457c-0.689-1.594-0.551-3.422,0.367-4.892c0.918-1.471,2.5-2.398,4.232-2.48
	c12.277-0.574,22.789-8.451,26.787-20.064c3.719-10.812,0.836-22.973-7.344-30.983c-1.238-1.214-1.803-2.96-1.508-4.669
	C415.503,212.583,416.616,211.126,418.19,210.395z"/>
<path style="fill:#EF5050;" d="M341.876,360.999h-20.459c-0.296,1.273-0.784,2.471-1.455,3.374l-26.984,36.385
	c-1.639,2.208-4.336,2.222-5.995,0.028l-3.209-4.242c-8.169,4.735-17.651,7.455-27.774,7.455c-10.262,0-19.864-2.796-28.107-7.652
	l-3.027,4.329c-1.576,2.254-4.208,2.292-5.85,0.086l-27.07-36.393c-0.674-0.905-1.15-2.102-1.424-3.37h-20.398
	c-16.541,0-30,13.458-30,30v108.5c0,2.762,2.238,5,5,5h221.754c2.762,0,5-2.238,5-5v-108.5
	C371.876,374.457,358.417,360.999,341.876,360.999z"/>
<path style="fill:#E6E9ED;" d="M257.678,362.045c-1.659-2.192-4.306-2.144-5.882,0.11l-23.904,34.19v0.001
	c8.243,4.856,17.846,7.652,28.107,7.652c10.123,0,19.605-2.72,27.774-7.455l0,0L257.678,362.045z"/>
<path style="fill:#FFFFFF;" d="M309.638,321.029c-15.553,9.738-33.936,15.374-53.64,15.374c-19.162,0-37.08-5.326-52.356-14.577
	l-12.902,33.859c-0.98,2.569-0.438,6.478,1.204,8.684l27.07,36.393c1.642,2.206,4.273,2.168,5.85-0.086l26.932-38.521
	c1.576-2.254,4.223-2.303,5.882-0.11l29.305,38.741c1.659,2.193,4.356,2.18,5.995-0.028l26.984-36.385
	c1.639-2.208,2.258-6.147,1.377-8.752L309.638,321.029z"/>
<path style="opacity:0.15;fill:#490089;enable-background:new    ;" d="M190.852,362.202c-0.134-0.389-0.243-0.791-0.332-1.203
	h-20.398c-16.541,0-30,13.458-30,30v108.5c0,2.762,2.238,5,5,5h29.123c-2.762,0-5-2.238-5-5v-108.5
	C169.245,377.37,178.384,365.842,190.852,362.202z"/>
<path style="fill:#FFFFFF;" d="M309.638,321.029c-15.553,9.738-33.936,15.374-53.64,15.374c-19.162,0-37.08-5.326-52.356-14.577
	l-12.902,33.859c-0.98,2.569-0.438,6.478,1.204,8.684l27.07,36.393c1.642,2.206,4.273,2.168,5.85-0.086l26.932-38.521
	c1.576-2.254,4.223-2.303,5.882-0.11l29.305,38.741c1.659,2.193,4.356,2.18,5.995-0.028l26.984-36.385
	c1.639-2.208,2.258-6.147,1.377-8.752L309.638,321.029z"/>
<path style="opacity:0.15;fill:#490089;enable-background:new    ;" d="M219.487,355.685l8.811-23.12
	c-8.761-2.487-17.036-6.126-24.655-10.739l-12.902,33.859c-0.98,2.569-0.438,6.478,1.204,8.684l27.07,36.393
	c1.642,2.206,4.273,2.168,5.85-0.086l11.064-15.823l-15.236-20.483C219.05,362.163,218.508,358.255,219.487,355.685z"/>
<g>
	<path style="fill:#FFC502;" d="M155.7,248.84c-2.138-1.173-4.591-1.842-7.201-1.842c-8.283,0-15,6.716-15,15
		c0,8.284,6.717,15,15,15c5.236,0,9.84-2.686,12.522-6.752C158.503,263.427,156.702,256.26,155.7,248.84z"/>
	<path style="fill:#FFC502;" d="M363.499,246.999c-2.609,0-5.063,0.669-7.199,1.841c-1.001,7.421-2.803,14.589-5.322,21.409
		c2.684,4.065,7.287,6.75,12.522,6.75c8.285,0,15-6.716,15-15C378.499,253.714,371.784,246.999,363.499,246.999z"/>
</g>
<path style="fill:#775436;" d="M363.954,187.654h-6.734v-9.218c0-55.902-45.318-78.438-101.221-78.438
	c-55.9,0-101.219,22.535-101.219,78.438v9.218h-6.734c-12.467,0-22.572,10.107-22.572,22.573v24.535
	c0,8.011,4.177,15.041,10.467,19.048c2.678-4.098,7.299-6.811,12.559-6.811c2.61,0,5.063,0.669,7.201,1.842
	c0.001,0.009,0.003,0.017,0.004,0.025c6.681,49.43,49.035,87.537,100.295,87.537c51.264,0,93.621-38.111,100.298-87.546
	c0.001-0.006,0.002-0.012,0.003-0.018c2.137-1.172,4.59-1.841,7.199-1.841c5.262,0,9.882,2.714,12.56,6.813
	c6.291-4.007,10.468-11.038,10.468-19.049v-24.535C386.526,197.761,376.421,187.654,363.954,187.654z"/>
<path style="fill:#312F56;" d="M265.034,100.206c-15.06,15.616-36.384,31.932-64.826,41.181c-0.037,0.095-0.078,0.186-0.115,0.281
	c42.277-2.215,74.812-17.917,98.823-36.348C287.197,102.065,263.567,100.139,265.034,100.206z"/>
<g style="opacity:0.15;">
	<path style="fill:#330068;" d="M180.39,235.183v-56.747c0-12.875,2.404-23.98,6.788-33.447c-8.506,1.947-17.564,3.266-27.213,3.771
		c-3.361,8.61-5.186,18.472-5.186,29.676v56.747c0,55.902,45.318,101.22,101.219,101.22c4.309,0,8.549-0.29,12.716-0.813
		C218.903,329.255,180.39,286.717,180.39,235.183z"/>
</g>
<path style="fill:#312F56;" d="M159.966,148.76c49.422-2.589,83.6-26.293,105.068-48.555c-2.977-0.136-5.988-0.207-9.035-0.207
	C211.302,99.999,173.374,114.409,159.966,148.76z"/>
<path id="SVGCleanerId_0" style="fill:#FFC502;" d="M255.999,67.999c-55.9,0-101.219,22.535-101.219,78.438v32
	c0-55.902,45.318-78.438,101.219-78.438c55.902,0,101.221,22.535,101.221,78.438v-32C357.22,90.534,311.901,67.999,255.999,67.999z"
	/>
<g>
	<ellipse style="fill:#203A74;" cx="202.47" cy="220.5" rx="13.477" ry="13.529"/>
	<ellipse style="fill:#203A74;" cx="307.48" cy="220.5" rx="13.477" ry="13.529"/>
</g>
<path style="fill:#FB8276;" d="M255.999,317.383c-21.043,0-38.164-17.12-38.164-38.163c0-2.144,1.738-3.882,3.881-3.882h68.566
	c2.143,0,3.881,1.738,3.881,3.882C294.163,300.263,277.042,317.383,255.999,317.383z"/>
<path style="fill:#C0272D;" d="M281.805,307.306c-6.799-6.253-15.863-10.077-25.807-10.077c-9.941,0-19.006,3.824-25.805,10.077
	c6.799,6.252,15.863,10.077,25.805,10.077C265.942,317.383,275.007,313.558,281.805,307.306z"/>
<g>
	<path id="SVGCleanerId_0_1_" style="fill:#FFC502;" d="M255.999,67.999c-55.9,0-101.219,22.535-101.219,78.438v32
		c0-55.902,45.318-78.438,101.219-78.438c55.902,0,101.221,22.535,101.221,78.438v-32C357.22,90.534,311.901,67.999,255.999,67.999z
		"/>
</g>
<g style="opacity:0.15;">
	<path style="fill:#3D0072;" d="M270.388,68.526c-4.701-0.351-9.504-0.527-14.39-0.527c-55.9,0-101.219,22.535-101.219,78.438v32
		c0-30.412,13.416-50.946,34.648-63.352C201.852,85.625,232.792,71.338,270.388,68.526z"/>
</g>
<path d="M290.282,267.838h-68.566c-6.275,0-11.381,5.105-11.381,11.382c0,25.179,20.484,45.663,45.664,45.663
	s45.664-20.484,45.664-45.663C301.663,272.944,296.557,267.838,290.282,267.838z M255.999,309.883c-4.366,0-8.521-0.92-12.284-2.571
	c3.839-1.688,8.01-2.583,12.284-2.583c4.275,0,8.445,0.896,12.285,2.583C264.52,308.963,260.365,309.883,255.999,309.883z
	 M280.872,297.13c-7.363-4.802-15.966-7.4-24.873-7.4s-17.51,2.599-24.872,7.401c-2.975-4.119-4.955-9-5.58-14.292h60.904
	C285.826,288.13,283.846,293.011,280.872,297.13z"/>
<path d="M182.988,175.301c4.372-4.372,10.179-6.78,16.352-6.78s11.98,2.408,16.352,6.78c1.465,1.465,3.384,2.197,5.304,2.197
	c1.919,0,3.839-0.732,5.303-2.196c2.93-2.929,2.93-7.678,0.001-10.606c-7.205-7.206-16.779-11.175-26.959-11.175
	s-19.754,3.969-26.959,11.175c-2.929,2.929-2.929,7.678,0.001,10.606C175.309,178.23,180.058,178.231,182.988,175.301z"/>
<path d="M292.194,175.302c4.373-4.373,10.182-6.781,16.355-6.781s11.979,2.408,16.352,6.78c1.465,1.465,3.384,2.197,5.304,2.197
	c1.919,0,3.839-0.732,5.303-2.196c2.93-2.929,2.93-7.678,0.001-10.606c-7.205-7.206-16.779-11.175-26.959-11.175
	c-10.18,0-19.754,3.969-26.96,11.174c-2.93,2.929-2.93,7.678-0.001,10.606C284.516,178.23,289.265,178.231,292.194,175.302z"/>
<path d="M202.477,241.534c11.565,0,20.975-9.434,20.975-21.029s-9.409-21.029-20.975-21.029c-11.567,0-20.979,9.434-20.979,21.029
	S190.91,241.534,202.477,241.534z M202.477,214.475c3.294,0,5.975,2.705,5.975,6.029s-2.681,6.029-5.975,6.029
	c-3.297,0-5.979-2.705-5.979-6.029C196.499,217.18,199.18,214.475,202.477,214.475z"/>
<path d="M307.475,241.534c11.566,0,20.977-9.434,20.977-21.029s-9.41-21.029-20.977-21.029s-20.977,9.434-20.977,21.029
	S295.909,241.534,307.475,241.534z M307.475,214.475c3.296,0,5.977,2.705,5.977,6.029s-2.681,6.029-5.977,6.029
	s-5.977-2.705-5.977-6.029C301.499,217.18,304.18,214.475,307.475,214.475z"/>
<path d="M442.882,181.265c-0.752-13.274-8.655-25.201-20.41-31.165c8.778-11.116,10.538-26.148,4.362-39.108
	c-5.715-11.993-17.542-20.043-30.686-21.124c3.925-13.609-0.132-28.189-10.754-37.852c-6.877-6.256-15.782-9.701-25.073-9.701
	c-3.876,0-7.674,0.588-11.321,1.75c-1.521-14.081-10.791-26.043-24.273-30.967c-4.123-1.507-8.423-2.272-12.78-2.272
	c-8.69,0-17.251,3.136-23.923,8.687c-6.702-12.361-19.876-20.019-34.187-19.487c-13.286,0.505-25.358,8.18-31.548,19.827
	c-6.621-5.397-15.08-8.445-23.645-8.445c-5.313,0-10.482,1.122-15.368,3.336c-12.104,5.491-20.376,17.161-21.703,30.281
	c-3.54-1.086-7.212-1.636-10.952-1.636c-10.363,0-19.985,4.146-27.092,11.672c-9.133,9.666-12.374,23.604-8.633,36.241
	c-14.11,1.251-26.246,10.294-31.425,23.687c-4.796,12.405-2.521,26.534,5.72,36.812c-12.591,6.495-20.401,19.458-20.128,33.813
	c0.25,13.29,7.695,25.505,19.22,31.912c-9.197,10.777-11.522,25.732-5.838,38.914c5.259,12.211,16.775,20.702,29.863,22.271
	c-4.434,13.454-0.93,28.178,9.315,38.232c7.009,6.877,16.28,10.665,26.107,10.666c3.39,0,6.73-0.453,9.967-1.348
	c0.764,10.977,6.268,20.834,14.908,27.239h-2.482c-20.678,0-37.5,16.822-37.5,37.5v108.5c0,6.893,5.607,12.5,12.5,12.5h221.754
	c6.893,0,12.5-5.607,12.5-12.5V458c0-4.143-3.357-7.5-7.5-7.5s-7.5,3.357-7.5,7.5v39H147.622V391c0-12.406,10.094-22.5,22.5-22.5
	h15.566c0.08,0.115,0.155,0.235,0.238,0.347l27.071,36.393c2.2,2.956,5.452,4.652,8.922,4.652c3.163,0,6.108-1.393,8.26-3.859
	c7.908,3.527,16.656,5.467,25.819,5.467c9.105,0,17.801-1.913,25.671-5.397c2.181,2.434,5.149,3.821,8.303,3.821
	c3.522,0,6.814-1.712,9.029-4.697l26.982-36.383c0.082-0.11,0.157-0.229,0.236-0.344h15.655c12.406,0,22.5,10.094,22.5,22.5v27
	c0,4.143,3.357,7.5,7.5,7.5s7.5-3.357,7.5-7.5v-27c0-20.678-16.822-37.5-37.5-37.5h-1.965c9.219-6.482,15.129-16.929,15.837-28.253
	c3.117,0.828,6.33,1.247,9.587,1.247c10.754,0,20.979-4.635,28.052-12.713c8.762-10.002,11.475-24.05,7.261-36.541
	c14.048-1.783,25.832-11.278,30.506-24.855c4.325-12.573,1.519-26.605-7.108-36.57C436.38,208.846,443.696,195.598,442.882,181.265z
	 M255.999,396.499c-5.939,0-11.638-1.092-16.92-3.066l15.82-22.628l17.315,22.892C267.132,395.504,261.675,396.499,255.999,396.499z
	 M313.937,359.905l-23.998,32.358l-26.281-34.745c-2.206-2.914-5.448-4.586-8.895-4.586c-3.603,0-6.925,1.795-9.113,4.925
	l-23.839,34.097l-23.806-32.003c-0.19-0.374-0.312-1.252-0.23-1.663l9.82-25.772c14.586,7.283,31.023,11.388,48.404,11.388
	c2.854,0,5.742-0.112,8.584-0.334c4.129-0.322,7.216-3.932,6.894-8.061c-0.322-4.128-3.919-7.222-8.062-6.894
	c-2.454,0.192-4.949,0.289-7.416,0.289c-45.747,0-83.937-32.949-92.101-76.361c5.169,3.123,11.222,4.924,17.688,4.924h36.051
	c8.522,0,16.322-3.131,22.328-8.294c0.602,9.063,7.618,16.243,16.177,16.243h8.735c4.143,0,7.5-3.357,7.5-7.5s-3.357-7.5-7.5-7.5
	h-8.735c-0.298,0-1.235-0.914-1.235-2.5v-21.031h5.352c1.863,17.171,16.443,30.582,34.101,30.582h36.051
	c6.476,0,12.536-1.805,17.71-4.935c-5.313,28.642-23.638,53.293-50.461,66.629c-3.709,1.844-5.221,6.346-3.377,10.055
	c1.311,2.637,3.964,4.163,6.722,4.163c1.121,0,2.261-0.253,3.333-0.786c0.372-0.185,0.731-0.387,1.101-0.576l8.774,25.938
	C314.317,358.422,314.14,359.55,313.937,359.905z M200.411,149.161l0.074-0.004c37.033-1.939,70.563-13.891,99.906-35.557
	c8.706,2.73,16.416,6.344,22.926,10.83c17.52,12.071,26.402,30.241,26.402,54.006v4.865h-77.543
	c-6.685,0-12.123,5.438-12.123,12.122v16.46h-8.109v-16.46c0-6.685-5.438-12.122-12.121-12.122H162.28v-4.865
	c0-8.188,1.08-15.693,3.179-22.532C178.108,154.864,189.747,152.477,200.411,149.161z M173.062,139.95
	c4.069-5.955,9.269-11.144,15.62-15.52c14.073-9.698,33.67-15.393,57.098-16.66C228.525,121.907,204.474,135.495,173.062,139.95z
	 M248.894,124.38c7.312-5.438,13.664-11.074,19.095-16.49c4.216,0.271,8.312,0.679,12.263,1.238
	C270.265,115.354,259.805,120.444,248.894,124.38z M349.72,198.301v24.855c0,10.646-8.662,19.309-19.309,19.309H294.36
	c-10.646,0-19.307-8.662-19.307-19.309v-24.855H349.72z M236.944,198.301v24.855c0,10.646-8.661,19.309-19.307,19.309h-36.051
	c-10.645,0-19.307-8.662-19.307-19.309v-24.855H236.944z M415.033,203.591c-3.809,1.768-6.506,5.294-7.214,9.425
	c-0.714,4.137,0.649,8.361,3.65,11.303c6.123,5.996,8.282,15.097,5.5,23.184c-2.992,8.691-10.86,14.585-20.05,15.015
	c-4.191,0.198-8.02,2.441-10.24,6c-2.223,3.561-2.556,7.988-0.89,11.837c3.398,7.866,1.95,17.106-3.688,23.543
	c-4.227,4.827-10.338,7.596-16.768,7.596c-2.561,0-5.072-0.431-7.463-1.279c-1.375-0.489-2.814-0.737-4.277-0.737
	c-2.697,0-5.28,0.833-7.481,2.416c-3.397,2.454-5.379,6.422-5.298,10.618c0.169,8.566-4.666,16.572-12.319,20.397
	c-1.016,0.508-2.055,0.925-3.11,1.27l-6.793-20.082c15.383-10.782,27.503-25.148,35.444-41.691c2.878,1.342,6.083,2.095,9.462,2.095
	c12.406,0,22.5-10.094,22.5-22.5c0-2.071-0.287-4.075-0.814-5.981c5.453-5.445,8.841-12.958,8.841-21.255V210.23
	c0-16.325-13.078-29.645-29.307-30.054v-33.737c0-21.937-6.48-40.258-19.259-54.453c-2.77-3.077-7.514-3.328-10.592-0.557
	c-3.079,2.771-3.328,7.514-0.557,10.592c6.082,6.757,10.381,14.783,12.865,23.991c-4.342-5.218-9.466-9.877-15.35-13.932
	c-18.589-12.809-44.811-19.579-75.829-19.579s-57.238,6.771-75.827,19.579c-5.884,4.055-11.01,8.716-15.351,13.934
	c3.778-13.993,11.759-25.242,23.861-33.581c16.074-11.077,39.352-16.932,67.316-16.932c16.344,0,31.081,1.981,43.803,5.889
	c3.964,1.213,8.155-1.009,9.372-4.968c1.216-3.96-1.009-8.155-4.968-9.372c-14.149-4.346-30.369-6.549-48.207-6.549
	c-31.018,0-57.238,6.771-75.827,19.579c-21.518,14.827-32.892,37.773-32.892,66.358v33.737
	c-16.229,0.409-29.307,13.729-29.307,30.054v24.535c0,8.296,3.388,15.808,8.84,21.253c-0.527,1.906-0.814,3.911-0.814,5.983
	c0,12.406,10.094,22.5,22.5,22.5c3.418,0,6.657-0.769,9.561-2.139c8.273,17.105,20.9,31.728,36.43,42.423L187,344.432
	c-0.183-0.069-0.369-0.121-0.55-0.195c-8.504-3.476-13.94-11.663-13.847-20.858c0.042-4.197-1.98-8.149-5.403-10.565
	c-2.168-1.534-4.721-2.346-7.38-2.346c-1.5,0-2.976,0.262-4.393,0.779c-2.468,0.903-5.059,1.361-7.702,1.361
	c-5.872-0.001-11.412-2.264-15.6-6.373c-6.558-6.435-8.492-16.072-4.934-24.545c1.632-3.871,1.256-8.296-1.001-11.829
	c-2.255-3.54-6.107-5.747-10.307-5.903c-8.564-0.316-16.283-5.596-19.668-13.454c-3.639-8.438-1.785-18.09,4.717-24.588
	c2.973-2.966,4.299-7.203,3.547-11.334c-0.753-4.135-3.486-7.634-7.307-9.357c-7.808-3.533-12.956-11.341-13.116-19.894
	c-0.176-9.188,5.192-17.422,13.677-20.979c3.871-1.623,6.698-5.045,7.562-9.143c0.869-4.102-0.332-8.372-3.221-11.433
	c-5.891-6.22-7.702-15.396-4.617-23.377c3.315-8.57,11.399-14.161,20.603-14.243c4.192-0.041,8.102-2.136,10.465-5.617
	c2.349-3.474,2.847-7.879,1.332-11.789c-3.099-7.987-1.305-17.167,4.572-23.387c4.246-4.496,9.994-6.973,16.188-6.973
	c2.851,0,5.631,0.531,8.238,1.568c3.846,1.547,8.345,1.092,11.831-1.221c3.498-2.326,5.628-6.222,5.699-10.409
	c0.157-8.569,5.294-16.39,13.081-19.923c2.925-1.325,6.011-1.997,9.174-1.997c5.729,0,11.379,2.279,15.506,6.259
	c2.395,2.306,5.544,3.575,8.867,3.575c0.863,0,1.724-0.087,2.521-0.251c4.125-0.829,7.574-3.631,9.222-7.482
	c3.384-7.872,11.096-13.168,19.646-13.493c9.181-0.344,17.55,4.937,21.236,13.289c1.702,3.837,5.176,6.596,9.267,7.374
	c0.797,0.155,1.612,0.233,2.423,0.233c3.372,0,6.555-1.303,8.959-3.667c4.148-4.079,9.855-6.418,15.656-6.418
	c2.595,0,5.162,0.457,7.632,1.36c8.632,3.152,14.376,11.131,14.633,20.326c0.118,4.195,2.289,8.067,5.796,10.348
	c3.478,2.269,7.972,2.701,11.831,1.12c2.695-1.105,5.549-1.666,8.483-1.666c5.55,0,10.87,2.059,14.98,5.797
	c6.798,6.184,9.096,15.74,5.855,24.343c-1.48,3.925-0.938,8.329,1.452,11.783c2.387,3.447,6.314,5.505,10.513,5.505
	c8.576,0,16.494,4.985,20.171,12.702c3.952,8.295,2.465,18.013-3.79,24.755c-2.855,3.077-4.017,7.359-3.111,11.447
	c0.902,4.102,3.765,7.496,7.655,9.082c7.935,3.234,13.375,10.844,13.858,19.386C428.428,191.289,423.374,199.719,415.033,203.591z
	 M369.294,214.463h-4.574v-19.039v-0.23c7.954,0.402,14.307,6.982,14.307,15.034v24.535c0,3.244-1.039,6.243-2.79,8.702
	c-3.334-2.298-7.314-3.724-11.608-3.938c0.057-1.442,0.092-2.89,0.092-4.344v-5.721h4.574c4.143,0,7.5-3.357,7.5-7.5
	C376.794,217.82,373.436,214.463,369.294,214.463z M370.999,261.999c0,4.136-3.364,7.5-7.5,7.5c-1.432,0-2.767-0.41-3.906-1.109
	c1.435-4.515,2.584-9.143,3.424-13.866c0.16-0.01,0.319-0.024,0.482-0.024C367.635,254.499,370.999,257.863,370.999,261.999z
	 M142.706,229.463h4.574v5.721c0,1.455,0.037,2.902,0.095,4.344c-4.296,0.213-8.276,1.638-11.611,3.937
	c-1.751-2.459-2.79-5.458-2.79-8.701v-24.535c0-8.053,6.352-14.632,14.307-15.034v0.23v19.039h-4.574c-4.143,0-7.5,3.357-7.5,7.5
	C135.206,226.105,138.563,229.463,142.706,229.463z M148.499,254.499c0.171,0,0.338,0.015,0.506,0.025
	c0.852,4.724,2.015,9.339,3.457,13.83c-1.151,0.721-2.507,1.145-3.963,1.145c-4.136,0-7.5-3.364-7.5-7.5
	C140.999,257.863,144.363,254.499,148.499,254.499z"/>
<path d="M261.299,421.718c-1.39-1.39-3.33-2.189-5.3-2.189c-1.97,0-3.91,0.8-5.3,2.189c-1.4,1.4-2.2,3.33-2.2,5.311
	c0,1.97,0.8,3.899,2.2,5.3c1.39,1.399,3.33,2.2,5.3,2.2c1.97,0,3.899-0.801,5.3-2.2c1.4-1.4,2.2-3.33,2.2-5.3
	C263.499,425.048,262.699,423.119,261.299,421.718z"/>
<path d="M261.299,448.699c-1.39-1.4-3.33-2.2-5.3-2.2c-1.97,0-3.91,0.8-5.3,2.2c-1.4,1.39-2.2,3.33-2.2,5.3s0.8,3.91,2.2,5.3
	c1.39,1.4,3.33,2.2,5.3,2.2c1.97,0,3.899-0.8,5.3-2.2c1.4-1.4,2.2-3.33,2.2-5.3S262.699,450.088,261.299,448.699z"/>
<path d="M255.999,473.468c-1.97,0-3.91,0.8-5.3,2.2c-1.4,1.399-2.2,3.33-2.2,5.3c0,1.98,0.8,3.91,2.2,5.3c1.39,1.4,3.33,2.2,5.3,2.2
	s3.899-0.8,5.3-2.2c1.4-1.39,2.2-3.319,2.2-5.3c0-1.97-0.8-3.9-2.2-5.3C259.909,474.268,257.969,473.468,255.999,473.468z"/>
<g>
</g>
<g>
</g>
<g>
</g>
<g>
</g>
<g>
</g>
<g>
</g>
<g>
</g>
<g>
</g>
<g>
</g>
<g>
</g>
<g>
</g>
<g>
</g>
<g>
</g>
<g>
</g>
<g>
</g>
</svg>
