<svg id="Capa_1" enable-background="new 0 0 512 512" height="512" viewBox="0 0 512 512" width="512" xmlns="http://www.w3.org/2000/svg"><g><path d="m475.647 357.392h-157.891v-205.692h90.814c3.796 0 7.427 1.547 10.046 4.279l68.554 71.539c2.457 2.564 3.828 5.977 3.828 9.528v104.996c0 8.477-6.873 15.35-15.351 15.35z" fill="#fbfbfb"/><path d="m487.169 227.518-68.554-71.539c-2.619-2.733-6.249-4.279-10.046-4.279h-30c3.796 0 7.427 1.547 10.046 4.279l68.554 71.539c2.457 2.564 3.828 5.977 3.828 9.528v104.996c0 8.478-6.873 15.35-15.35 15.35h30c8.478 0 15.35-6.873 15.35-15.35v-104.997c.001-3.55-1.371-6.964-3.828-9.527z" fill="#e7e7e7"/><path d="m44.052 73.306h247.54c14.45 0 26.164 11.714 26.164 26.164v257.922h-299.868v-257.922c0-14.45 11.714-26.164 26.164-26.164z" fill="#fbfbfb"/><path d="m291.592 73.306h-30c14.45 0 26.164 11.714 26.164 26.164v257.922h30v-257.922c0-14.45-11.714-26.164-26.164-26.164z" fill="#e7e7e7"/><path d="m486.731 313.317h-23.101c-4.516 0-8.177-3.661-8.177-8.177v-23.785c0-4.516 3.661-8.177 8.177-8.177h22.008" fill="#f5d339"/><path d="m490.633 229.802-43.468-45.361h-68.978c-6.935 0-12.556 5.622-12.556 12.557v36.236c0 6.935 5.622 12.556 12.556 12.556h112.811v-15.08c0-.338-.131-.664-.365-.908z" fill="#9ec8fc"/><path d="m490.633 229.802-43.468-45.361h-30l43.468 45.361c.234.244.365.57.365.908v15.081h30v-15.081c0-.338-.131-.664-.365-.908z" fill="#80b6fc"/><path d="m17.888 274.669h299.868v82.723h-299.868z" fill="#e27f86"/><path d="m287.756 274.669h30v82.723h-30z" fill="#df646e"/><path d="m489.826 388.023h-467.652c-8.104 0-14.674-6.57-14.674-14.674v-2.276c0-8.104 6.57-14.674 14.674-14.674h467.651c8.104 0 14.674 6.57 14.674 14.674v2.276c.001 8.104-6.569 14.674-14.673 14.674z" fill="#c8c3ca"/><ellipse cx="402.338" cy="388.023" fill="#8c818f" rx="50.975" ry="50.671"/><ellipse cx="402.338" cy="388.023" fill="#c8c3ca" rx="17.884" ry="17.778"/><ellipse cx="152.901" cy="388.023" fill="#8c818f" rx="50.975" ry="50.671"/><path d="m402.338 337.353c-5.221 0-10.257.784-15 2.233 20.831 6.367 35.975 25.642 35.975 48.437s-15.144 42.07-35.975 48.437c4.743 1.45 9.779 2.233 15 2.233 28.153 0 50.975-22.686 50.975-50.671 0-27.983-22.823-50.669-50.975-50.669z" fill="#766d78"/><path d="m152.901 337.353c-5.221 0-10.257.784-15 2.233 20.831 6.367 35.975 25.642 35.975 48.437s-15.144 42.07-35.975 48.437c4.743 1.45 9.779 2.233 15 2.233 28.153 0 50.975-22.686 50.975-50.671-.001-27.983-22.823-50.669-50.975-50.669z" fill="#766d78"/><ellipse cx="152.901" cy="388.023" fill="#c8c3ca" rx="17.884" ry="17.778"/><path d="m395.595 151.7h-47.535v-20.653c0-6.084 4.932-11.015 11.015-11.015h25.505c6.084 0 11.015 4.932 11.015 11.015z" fill="#e27f86"/><path d="m206.854 158.003h-14.663c-2.686 0-4.864-2.177-4.864-4.864v-14.663c0-2.648-2.146-4.794-4.794-4.794h-29.423c-2.648 0-4.794 2.146-4.794 4.794v14.663c0 2.686-2.177 4.864-4.864 4.864h-14.663c-2.648 0-4.794 2.146-4.794 4.794v29.424c0 2.648 2.146 4.794 4.794 4.794h14.663c2.686 0 4.864 2.177 4.864 4.864v14.663c0 2.648 2.147 4.794 4.794 4.794h29.424c2.648 0 4.794-2.146 4.794-4.794v-14.663c0-2.686 2.178-4.864 4.864-4.864h14.663c2.648 0 4.794-2.146 4.794-4.794v-29.424c0-2.648-2.147-4.794-4.795-4.794z" fill="#e27f86"/><path d="m497.016 350.102c.959-2.546 1.481-5.261 1.481-8.06v-104.997c0-5.511-2.1-10.737-5.913-14.717l-68.554-71.538c-4.013-4.188-9.649-6.59-15.461-6.59h-5.475v-13.153c0-10.209-8.306-18.515-18.515-18.515h-25.505c-10.21 0-18.515 8.306-18.515 18.515v13.153h-15.303v-44.73c0-18.562-15.102-33.664-33.664-33.664h-152.942c-4.142 0-7.5 3.358-7.5 7.5s3.358 7.5 7.5 7.5h152.941c10.292 0 18.664 8.372 18.664 18.664v167.699h-284.867v-167.699c0-10.291 8.373-18.664 18.664-18.664h64.599c4.142 0 7.5-3.358 7.5-7.5s-3.358-7.5-7.5-7.5h-64.599c-18.563 0-33.664 15.102-33.664 33.664v252.834c-6.234 3.929-10.388 10.871-10.388 18.769v2.276c0 12.227 9.947 22.175 22.174 22.175h72.754c3.712 28.543 28.285 50.67 57.972 50.67s54.26-22.127 57.973-50.67h29.375c4.142 0 7.5-3.358 7.5-7.5s-3.358-7.5-7.5-7.5h-29.375c-.762-5.858-2.4-11.443-4.785-16.625h143.062c-2.384 5.182-4.023 10.767-4.785 16.625h-74.117c-4.142 0-7.5 3.358-7.5 7.5s3.358 7.5 7.5 7.5h74.117c3.712 28.543 28.285 50.67 57.972 50.67s54.26-22.127 57.973-50.67h29.515c12.227 0 22.174-9.947 22.174-22.175v-2.276c.001-9.71-6.276-17.977-14.983-20.971zm-13.518-113.057v1.245h-105.312c-2.788 0-5.056-2.268-5.056-5.056v-36.236c0-2.788 2.268-5.056 5.056-5.056h63.854c.209 0 .415-.014.62-.031l39.094 40.796c1.124 1.173 1.744 2.714 1.744 4.338zm-127.939-105.998c0-1.938 1.577-3.515 3.515-3.515h25.505c1.939 0 3.515 1.577 3.515 3.515v13.153h-32.536v-13.153zm-340.559 242.302v-2.276c0-3.956 3.218-7.174 7.174-7.174h77.538c-2.384 5.182-4.023 10.767-4.785 16.625h-72.753c-3.956-.001-7.174-3.219-7.174-7.175zm137.9 57.845c-23.972 0-43.475-19.366-43.475-43.17s19.502-43.171 43.475-43.171 43.475 19.366 43.475 43.171c0 23.804-19.502 43.17-43.475 43.17zm0-101.341c-17.113 0-32.531 7.352-43.235 19.046h-84.277v-66.729h284.868v66.729h-114.121c-10.703-11.695-26.122-19.046-43.235-19.046zm172.356 19.045v-189.698h83.313c1.744 0 3.432.717 4.631 1.968l15.115 15.773h-50.129c-11.059 0-20.056 8.997-20.056 20.056v36.236c0 11.059 8.997 20.056 20.056 20.056h105.312v12.388h-19.868c-8.644 0-15.677 7.033-15.677 15.676v23.784c0 8.644 7.033 15.677 15.677 15.677h19.868v21.225c0 5.065-3.024 6.385-3.317 6.857h-34.608c-10.703-11.694-26.122-19.046-43.235-19.046s-32.531 7.352-43.235 19.046h-33.847zm157.811-68.219v25.138h-19.437c-.373 0-.677-.303-.677-.677v-23.784c0-.373.304-.676.677-.676h19.437zm-80.729 150.515c-23.972 0-43.475-19.366-43.475-43.17s19.502-43.171 43.475-43.171 43.475 19.366 43.475 43.171c0 23.804-19.503 43.17-43.475 43.17zm94.662-57.845c0 3.956-3.218 7.175-7.174 7.175h-29.516c-.762-5.858-2.4-11.443-4.785-16.625h34.3c3.956 0 7.174 3.219 7.174 7.174v2.276z"/><path d="m402.338 362.746c-13.997 0-25.384 11.339-25.384 25.278 0 13.938 11.387 25.277 25.384 25.277s25.384-11.339 25.384-25.277c0-13.939-11.387-25.278-25.384-25.278zm0 35.555c-5.726 0-10.384-4.61-10.384-10.277s4.658-10.278 10.384-10.278 10.384 4.611 10.384 10.278c0 5.666-4.658 10.277-10.384 10.277z"/><path d="m152.9 362.746c-13.997 0-25.384 11.339-25.384 25.278 0 13.938 11.387 25.277 25.384 25.277s25.385-11.339 25.385-25.277c0-13.939-11.388-25.278-25.385-25.278zm0 35.555c-5.726 0-10.384-4.61-10.384-10.277s4.658-10.278 10.384-10.278 10.385 4.611 10.385 10.278c0 5.666-4.659 10.277-10.385 10.277z"/><path d="m377.359 290.694c4.142 0 7.5-3.358 7.5-7.5s-3.358-7.5-7.5-7.5h-11.065c-4.142 0-7.5 3.358-7.5 7.5s3.358 7.5 7.5 7.5z"/><path d="m128.789 204.515h12.026v12.026c0 6.779 5.515 12.294 12.294 12.294h29.424c6.779 0 12.294-5.515 12.294-12.294v-12.026h12.026c6.779 0 12.294-5.515 12.294-12.294v-29.424c0-6.779-5.515-12.294-12.294-12.294h-12.026v-12.026c0-6.779-5.515-12.294-12.294-12.294h-29.423c-6.779 0-12.294 5.515-12.294 12.294v12.026h-12.026c-6.779 0-12.294 5.515-12.294 12.294v29.424c-.001 6.779 5.514 12.294 12.293 12.294zm2.706-39.012h11.957c6.817 0 12.364-5.546 12.364-12.364v-11.957h24.013v11.957c0 6.817 5.546 12.364 12.364 12.364h11.956v24.013h-11.956c-6.817 0-12.364 5.546-12.364 12.364v11.957h-24.013v-11.957c0-6.817-5.546-12.364-12.364-12.364h-11.957z"/></g></svg>