<?xml version="1.0" encoding="iso-8859-1"?>
<!-- Generator: Adobe Illustrator 19.0.0, SVG Export Plug-In . SVG Version: 6.00 Build 0)  -->
<svg version="1.1" id="Capa_1" xmlns="http://www.w3.org/2000/svg" xmlns:xlink="http://www.w3.org/1999/xlink" x="0px" y="0px"
	 viewBox="0 0 512 512" style="enable-background:new 0 0 512 512;" xml:space="preserve">
<path style="fill:#FFFFFF;" d="M283.994,408.006l-26.273-34.89c-1.655-2.196-4.26-2.124-5.79,0.16l-23.147,34.569
	c-1.53,2.285-3.924,2.216-5.321-0.153l-17.461-29.621V504.5h100V378.873l-16.513,28.79
	C288.121,410.048,285.648,410.203,283.994,408.006z"/>
<g>
	<path style="fill:#42238E;" d="M264.215,421h-16.423l-17.187,72.517c7.833,7.072,16.407,10.983,25.397,10.983
		c8.99,0,17.564-3.911,25.397-10.984L264.215,421z"/>
	<path style="fill:#42238E;" d="M257.721,373.116c-1.655-2.196-4.26-2.124-5.79,0.16l-16.623,24.826L247.135,421h17.733
		l11.763-22.772L257.721,373.116z"/>
</g>
<path style="fill:#FFFFFF;" d="M288.058,314.37v27.49c0,2.75-1.824,6.317-4.054,7.927l-23.948,17.286
	c-2.229,1.609-5.878,1.609-8.108,0l-23.947-17.286c-2.23-1.609-4.054-5.177-4.054-7.927v-27.491
	c-6.276-1.688-12.282-3.875-17.945-6.539v70.241l17.461,29.621c1.396,2.369,3.791,2.438,5.321,0.153l23.147-34.569
	c1.53-2.284,4.135-2.357,5.79-0.16l26.273,34.89c1.654,2.197,4.127,2.042,5.495-0.343l16.513-28.79v-71.041
	C300.34,310.496,294.334,312.682,288.058,314.37z"/>
<path style="fill:#B2762F;" d="M256.002,318.5c-11.204,0-21.981-1.413-32.055-4.118v27.479c0,2.75,1.824,6.317,4.054,7.927
	l23.947,17.286c2.23,1.609,5.878,1.609,8.108,0l23.948-17.286c2.229-1.609,4.054-5.177,4.054-7.927v-27.479
	C277.983,317.087,267.206,318.5,256.002,318.5z"/>
<path style="opacity:0.15;fill:#490089;enable-background:new    ;" d="M248.891,341.86v-23.557
	c-8.66-0.47-17.02-1.794-24.944-3.922v27.479c0,2.75,1.824,6.317,4.054,7.927l23.947,17.286c2.23,1.609,5.878,1.609,8.108,0
	l8.419-6.077l-15.529-11.209C250.715,348.178,248.891,344.61,248.891,341.86z"/>
<g>
	<path style="fill:#775436;" d="M206.002,455.17v49.33h50C236.125,504.5,218.272,485.436,206.002,455.17z"/>
	<path style="fill:#775436;" d="M256.002,504.5h50v-49.33C293.731,485.436,275.879,504.5,256.002,504.5z"/>
</g>
<path style="fill:#312F56;" d="M171.114,378.389l-18.607-21.357l1.511-1.781h-34.195c-8.25,0-15,6.75-15,15V494.5
	c0,5.5,4.5,10,10,10h65.594L148.63,397.712L171.114,378.389z"/>
<g style="opacity:0.15;">
	<path style="fill:#030007;" d="M133.993,494.5V370.25c0-8.25,6.75-15,15-15h-29.169c-8.25,0-15,6.75-15,15V494.5
		c0,5.5,4.5,10,10,10h29.169C138.493,504.5,133.993,500,133.993,494.5z"/>
</g>
<path style="fill:#312F56;" d="M392.181,355.25h-34.195l1.511,1.781l-18.607,21.357l22.484,19.323L331.586,504.5h65.595
	c5.5,0,10-4.5,10-10V370.25C407.181,362,400.431,355.25,392.181,355.25z"/>
<g>
	<path style="fill:#D2957D;" d="M197.874,303.556l-45.366,53.476l18.607,21.357l-22.483,19.323L180.417,504.5h25.585V307.845
		C203.207,306.53,200.495,305.099,197.874,303.556z"/>
	<path style="fill:#D2957D;" d="M340.889,378.389l18.607-21.357l-45.366-53.476c-2.62,1.543-5.332,2.975-8.128,4.289V504.5h25.584
		l31.787-106.788L340.889,378.389z"/>
</g>
<path style="fill:#203A74;" d="M294.622,35c-8.031,0-15.702,1.529-22.758,4.285C261.11,20.312,240.748,7.5,217.381,7.5
	c-34.571,0-62.599,28.025-62.599,62.599v79.473c0,0.443,0.024,0.88,0.034,1.321C156.207,96.786,200.978,71.5,256.002,71.5
	c55.902,0,101.219,26.098,101.219,82V97.599C357.221,63.025,329.194,35,294.622,35z"/>
<path style="opacity:0.15;fill:#030007;enable-background:new    ;" d="M183.805,92.011V70.099c0-29.575,20.517-54.342,48.088-60.89
	c-4.659-1.106-9.514-1.709-14.511-1.709c-34.571,0-62.599,28.025-62.599,62.599v79.473c0,0.443,0.024,0.88,0.034,1.321
	C155.492,124.586,166.427,105.098,183.805,92.011z"/>
<g>
	<path style="fill:#B2762F;" d="M154.783,227.5v-54.789h-11.865c-13.059,0-23.646,10.587-23.646,23.645v25.701
		c0,13.059,10.586,23.645,23.646,23.645h13.57C155.372,239.916,154.783,233.844,154.783,227.5z"/>
	<path style="fill:#B2762F;" d="M369.087,172.711h-11.866V227.5c0,6.344-0.59,12.416-1.706,18.203h13.572
		c13.059,0,23.645-10.587,23.645-23.645v-25.701C392.732,183.298,382.147,172.711,369.087,172.711z"/>
</g>
<path style="fill:#D19546;" d="M154.783,153.5c0-55.902,45.318-82,101.219-82l0,0c55.902,0,101.219,26.098,101.219,82v74
	c0,55.902-45.316,91-101.219,91l0,0c-55.901,0-101.219-35.098-101.219-91V153.5z"/>
<g style="opacity:0.15;">
	<path style="fill:#3D0072;" d="M183.564,227.5v-74c0-51.016,37.745-77.205,86.828-81.395c-4.701-0.401-9.503-0.605-14.39-0.605
		c-55.901,0-101.219,26.098-101.219,82v74c0,55.902,45.318,91,101.219,91c4.887,0,9.689-0.274,14.391-0.801
		C221.309,312.199,183.564,278.516,183.564,227.5z"/>
</g>
<g>
	<ellipse style="fill:#775436;" cx="205.842" cy="198.27" rx="13.477" ry="13.529"/>
	<ellipse style="fill:#775436;" cx="306.162" cy="198.27" rx="13.477" ry="13.529"/>
</g>
<path d="M392.181,347.75h-30.724l-36.096-42.548c3.022-2.151,5.914-4.455,8.653-6.916c3.081-2.768,3.334-7.51,0.565-10.591
	c-2.769-3.082-7.511-3.335-10.591-0.565C306.859,302.522,282.714,311,256.002,311c-25.972,0-49.653-8.069-66.681-22.722
	c-17.689-15.222-27.038-36.238-27.038-60.778v-74c0-24.091,8.949-42.908,26.599-55.928C205.353,85.422,228.562,79,256.002,79
	s50.65,6.422,67.12,18.572c17.649,13.019,26.599,31.837,26.599,55.928v74c0,9.898-1.543,19.325-4.587,28.023
	c-1.368,3.91,0.692,8.188,4.602,9.557c3.91,1.368,8.189-0.691,9.557-4.602c0.833-2.382,1.562-4.811,2.204-7.274h7.591
	c17.173,0,31.145-13.972,31.145-31.145v-25.701c0-17.174-13.972-31.145-31.145-31.145h-4.366V153.5V97.599
	c0-38.652-31.446-70.099-70.099-70.099c-6.795,0-13.358,0.991-19.576,2.806C262.384,12.014,241.264,0,217.381,0
	c-38.652,0-70.099,31.446-70.099,70.099v79.473c0,0.595,0.012,1.186,0.027,1.776c-0.015,0.715-0.027,1.431-0.027,2.152v11.711
	h-4.365c-17.174,0-31.146,13.972-31.146,31.145v25.701c0,17.174,13.972,31.145,31.146,31.145h7.629
	c4.769,18.118,14.662,34.115,28.991,46.445c2.271,1.954,4.651,3.796,7.111,5.545l-5.9,6.955c-2.68,3.158-2.291,7.891,0.867,10.57
	c3.16,2.681,7.892,2.292,10.571-0.867l6.315-7.443V497h-12.492l-28.804-96.769l18.797-16.155c1.515-1.302,2.448-3.154,2.592-5.147
	c0.144-1.992-0.513-3.96-1.826-5.467l-14.371-16.495l5.187-6.115c2.68-3.158,2.292-7.891-0.867-10.57
	c-3.158-2.679-7.891-2.291-10.571,0.866l-5.601,6.603h-30.723c-12.407,0-22.5,10.094-22.5,22.5V494.5c0,9.649,7.851,17.5,17.5,17.5
	h282.357c9.649,0,17.5-7.851,17.5-17.5V370.25C414.681,357.844,404.587,347.75,392.181,347.75z M385.232,196.356v25.701
	c0,8.902-7.242,16.145-16.145,16.145h-4.921c0.355-3.516,0.555-7.082,0.555-10.703v-11.338h5.291c4.143,0,7.5-3.357,7.5-7.5
	s-3.357-7.5-7.5-7.5h-5.291V180.21h4.366C377.989,180.211,385.232,187.454,385.232,196.356z M294.622,42.5
	c30.382,0,55.099,24.717,55.099,55.099v5.773c-4.794-6.723-10.701-12.713-17.693-17.871c-12.175-8.981-27.304-15.244-44.626-18.609
	c-0.369-8.102-2.126-15.845-5.026-23.009C286.315,42.982,290.413,42.5,294.622,42.5z M162.283,70.099
	C162.283,39.717,187,15,217.382,15c28.572,0,52.128,21.861,54.835,49.735C266.964,64.252,261.558,64,256.002,64
	c-3.597,0-7.127,0.111-10.599,0.314c-8.429-5.433-14.027-14.896-14.027-25.648c0-4.143-3.358-7.5-7.5-7.5s-7.5,3.357-7.5,7.5
	c0,10.54,3.616,20.243,9.657,27.963c-3.119,0.573-6.169,1.237-9.144,1.996c-8.702-5.376-14.513-15-14.513-25.959
	c0-4.143-3.358-7.5-7.5-7.5s-7.5,3.357-7.5,7.5c0,12.232,4.865,23.338,12.748,31.52c-2.795,1.173-5.494,2.449-8.103,3.818
	c-3.71-3.879-6.448-8.773-7.698-14.384c-0.9-4.043-4.906-6.6-8.951-5.69c-4.043,0.899-6.591,4.907-5.691,8.95
	c1.632,7.329,4.963,13.847,9.479,19.242c-6.634,5.018-12.273,10.793-16.877,17.251V70.099z M142.918,238.203
	c-8.903,0-16.146-7.243-16.146-16.145v-25.701c0-8.902,7.243-16.145,16.146-16.145h4.365v20.951h-5.291c-4.142,0-7.5,3.357-7.5,7.5
	s3.358,7.5,7.5,7.5h5.291V227.5c0,3.619,0.184,7.189,0.546,10.703H142.918z M114.823,497c-1.355,0-2.5-1.145-2.5-2.5V370.25
	c0-0.517,0.053-1.022,0.153-1.51c0.7-3.414,3.729-5.99,7.347-5.99h27.719l12.957,14.872l-16.757,14.402
	c-2.243,1.927-3.143,4.993-2.3,7.827L170.36,497H114.823z M231.447,323.735c7.916,1.48,16.133,2.265,24.555,2.265
	c8.431,0,16.651-0.759,24.557-2.232l0.001,18.029c-0.049,0.515-0.607,1.606-0.945,1.909l-23.613,17.044l-23.561-17.006
	c-0.389-0.341-0.947-1.433-0.994-1.884L231.447,323.735L231.447,323.735z M267.804,398.974l-7.503,14.526h-8.599l-7.698-14.905
	l11.067-16.529L267.804,398.974z M213.502,318.979c0.972,0.341,1.959,0.655,2.945,0.972v21.909c0,5.121,3.013,11.012,7.165,14.008
	l20.864,15.061l-18.069,26.986l-12.905-21.89V318.979z M213.502,497v-11.969c3.157,4.499,6.489,8.518,9.988,11.969H213.502z
	 M215.455,458.196c-0.67-1.475-1.317-2.985-1.953-4.514v-48.119l3.5,5.938c2.035,3.453,5.452,5.515,9.141,5.515
	c3.218,0,6.191-1.542,8.303-4.239l5.201,10.068l-13.016,54.92C222.644,472.293,218.881,465.739,215.455,458.196z M298.502,497
	h-9.988c3.499-3.45,6.832-7.47,9.988-11.969V497z M298.502,453.684c-0.636,1.527-1.282,3.039-1.952,4.513
	c-3.427,7.543-7.19,14.097-11.177,19.568l-2.486-10.493c-0.954-4.029-4.994-6.522-9.027-5.568c-4.03,0.955-6.523,4.997-5.568,9.027
	l4.727,19.946c-5.553,4.136-11.301,6.323-17.017,6.323s-11.464-2.186-17.016-6.323l14.736-62.177h4.563l2.189,9.235
	c0.955,4.03,4.998,6.526,9.027,5.568c4.03-0.955,6.523-4.997,5.568-9.027l-2.71-11.436l5.459-10.568l0.184,0.244
	c2.174,2.887,5.339,4.542,8.685,4.541c3.794,0,7.274-2.117,9.308-5.663l2.507-4.37V453.684z M298.502,376.875l-12.349,21.53
	l-19.963-26.511l22.203-16.026c4.151-2.996,7.164-8.888,7.164-14.008v-21.873c0.988-0.317,1.97-0.645,2.944-0.986v57.874H298.502z
	 M313.502,497V314.409l36.104,42.557l-14.372,16.496c-1.311,1.507-1.969,3.475-1.825,5.467c0.143,1.993,1.077,3.846,2.592,5.148
	l18.798,16.154L325.993,497H313.502z M399.681,494.5c0,1.355-1.145,2.5-2.5,2.5h-55.537l28.918-97.148
	c0.844-2.834-0.058-5.9-2.3-7.828l-16.758-14.401l12.957-14.872h27.72c4.136,0,7.5,3.364,7.5,7.5L399.681,494.5L399.681,494.5z"/>
<path d="M247.41,192.22c-4.142,0-7.5,3.357-7.5,7.5v33.576c0,9.649,7.283,17.5,16.234,17.5h8.734c4.142,0,7.5-3.357,7.5-7.5
	s-3.358-7.5-7.5-7.5h-8.734c-0.297,0-1.234-0.914-1.234-2.5V199.72C254.91,195.577,251.552,192.22,247.41,192.22z"/>
<path d="M177.826,154.406c-3.441,2.306-4.36,6.965-2.054,10.405c2.306,3.441,6.964,4.36,10.406,2.054
	c14.505-9.722,34.215-5.829,43.939,8.675c1.447,2.159,3.82,3.325,6.237,3.325c1.435,0,2.887-0.412,4.169-1.271
	c3.441-2.306,4.36-6.965,2.054-10.405C228.249,145.813,199.202,140.077,177.826,154.406z"/>
<path d="M336.232,164.811c2.306-3.44,1.386-8.1-2.055-10.406c-21.375-14.326-50.423-8.594-64.75,12.783
	c-2.307,3.44-1.387,8.1,2.054,10.405c1.282,0.86,2.733,1.271,4.169,1.271c2.417,0,4.79-1.167,6.236-3.325
	c9.724-14.506,29.435-18.397,43.939-8.674C329.268,169.172,333.925,168.251,336.232,164.811z"/>
<path d="M205.847,219.304c11.566,0,20.976-9.434,20.976-21.029s-9.41-21.029-20.976-21.029c-11.567,0-20.977,9.434-20.977,21.029
	S194.28,219.304,205.847,219.304z M205.847,192.245c3.295,0,5.976,2.705,5.976,6.029s-2.681,6.029-5.976,6.029
	c-3.296,0-5.977-2.705-5.977-6.029S202.551,192.245,205.847,192.245z"/>
<path d="M306.158,219.304c11.566,0,20.977-9.434,20.977-21.029s-9.41-21.029-20.977-21.029s-20.978,9.434-20.978,21.029
	S294.591,219.304,306.158,219.304z M306.158,192.245c3.296,0,5.977,2.705,5.977,6.029s-2.681,6.029-5.977,6.029
	s-5.978-2.705-5.978-6.029S302.862,192.245,306.158,192.245z"/>
<path d="M232.915,278h48.462c4.143,0,7.5-3.357,7.5-7.5s-3.357-7.5-7.5-7.5h-48.462c-4.142,0-7.5,3.357-7.5,7.5
	S228.772,278,232.915,278z"/>
<g>
</g>
<g>
</g>
<g>
</g>
<g>
</g>
<g>
</g>
<g>
</g>
<g>
</g>
<g>
</g>
<g>
</g>
<g>
</g>
<g>
</g>
<g>
</g>
<g>
</g>
<g>
</g>
<g>
</g>
</svg>
