<svg id="Capa_1" enable-background="new 0 0 505 505" height="512" viewBox="0 0 505 505" width="512" xmlns="http://www.w3.org/2000/svg"><g><path d="m421.869 146.944v118.517h-184.385c-46.408 0-92.026-12.004-132.423-34.845l-25.249-14.276c-27.87-15.758-45.102-45.297-45.102-77.313v-52.451c0-1.408 1.141-2.549 2.549-2.549h20.486c15.456 0 29.65 8.529 36.905 22.176l10.859 20.425c3.415 6.423 9.353 11.13 16.385 12.99l53.121 14.048c2.24.592 4.553.856 6.869.784z" fill="#df646e"/><path d="m62.103 106.203 10.859 20.425c3.415 6.423 9.353 11.13 16.385 12.99l53.121 14.048c2.24.592 4.553.856 6.869.784l25.614-.801-53.056-14.031c-7.032-1.86-12.97-6.567-16.385-12.99l-10.859-20.425c-7.255-13.647-21.449-22.176-36.905-22.176h-20.486c-.916 0-1.713.487-2.162 1.213 11.429 2.789 21.337 10.303 27.005 20.963z" fill="#dc4955"/><path d="m389.321 147.962v117.499h32.548v-118.517z" fill="#dc4955"/><path d="m71.467 210.974c34.195-13.528 64.558-34.797 90.289-60.814l-39.861-10.542c-7.032-1.86-12.97-6.567-16.385-12.99l-10.859-20.425c-7.255-13.647-21.449-22.176-36.905-22.176h-20.486c-1.408 0-2.549 1.141-2.549 2.549v52.451c-.001 28.683 13.837 55.369 36.756 71.947z" fill="#fbfbfb"/><path d="m53.145 163.645h-42.388c-1.799 0-3.257-1.458-3.257-3.257v-24.693c0-1.799 1.458-3.257 3.257-3.257h42.388c8.618 0 15.604 6.986 15.604 15.604-.001 8.617-6.986 15.603-15.604 15.603z" fill="#b1abb4"/><path d="m439.189 122.388h-9.199c-4.485 0-8.121 3.636-8.121 8.121v145.45c0 4.485 3.636 8.121 8.121 8.121h9.198c11.04 0 19.99-8.95 19.99-19.99v-121.712c.001-11.04-8.949-19.99-19.989-19.99z" fill="#a29aa5"/><path d="m201.211 372.637-74.865.224c-6.819.02-12.363-5.491-12.383-12.309l-.043-14.279c-.02-6.819 5.491-12.363 12.309-12.383l74.865-.224z" fill="#c8c3ca"/><path d="m207.308 209.688 152.636-.457c7.42-.022 11.379 8.832 6.46 14.448l-175.986 200.912c-4.092 4.672-9.964 7.355-16.137 7.373-14.068.042-24.437-13.284-21.083-27.095l45.79-188.565c.941-3.876 4.372-6.604 8.32-6.616z" fill="#df646e"/><path d="m359.944 209.23-21.881.066c.608 2.566.108 5.424-1.919 7.738l-175.986 200.912c-1.27 1.45-2.713 2.708-4.282 3.755 3.795 6.109 10.518 10.287 18.404 10.263 6.173-.019 12.045-2.701 16.137-7.373l175.986-200.913c4.92-5.615.961-14.47-6.459-14.448z" fill="#dc4955"/><path d="m478.344 224.042h-19.157v-38.313h19.157c10.58 0 19.156 8.577 19.156 19.156 0 10.581-8.577 19.157-19.156 19.157z" fill="#fbfbfb"/><path d="m214.15 153.441c2.936 17.111 17.834 30.136 35.783 30.136 18.728 0 34.141-14.178 36.103-32.385z" fill="#fbfbfb"/><path d="m505 204.886c0-6.056-2.034-11.644-5.449-16.125.013-.181.027-.362.027-.546v-115.18c0-4.142-3.358-7.5-7.5-7.5s-7.5 3.358-7.5 7.5v105.938c-2.001-.482-4.088-.744-6.235-.744h-11.665v-35.852c0-15.158-12.332-27.49-27.49-27.49h-9.198c-8.614 0-15.622 7.008-15.622 15.621v9.16l-28.602.834c-4.14.121-7.399 3.575-7.278 7.715.118 4.066 3.452 7.281 7.493 7.281.074 0 .148-.001.223-.003l28.164-.821v103.286h-68.024l25.7-29.34c4.261-4.864 5.24-11.548 2.556-17.443-2.654-5.831-8.256-9.446-14.629-9.446-.017 0-.035 0-.051 0l-152.636.457c-7.417.022-13.826 5.099-15.586 12.346l-9.127 37.586c-25.91-5.562-50.729-14.978-73.82-28.033l-21.109-11.935c27.396-12.761 52.993-30.707 76.196-53.481.053-.052.099-.109.15-.163l9.11 2.409c2.625.694 35.29.208 35.29.208.039.141.074.281.122.421 6.089 17.663 22.736 29.531 41.423 29.531 19.903 0 37.268-13.38 42.35-32.577l61.389-1.92c4.14-.129 7.392-3.59 7.262-7.731s-3.629-7.417-7.73-7.262l-171.552 5.366c-1.592.05-3.179-.131-4.717-.538l-53.121-14.048c-4.997-1.322-9.254-4.697-11.681-9.261l-10.859-20.425c-8.577-16.133-25.256-26.155-43.527-26.155h-20.487c-5.541 0-10.049 4.508-10.049 10.049v38.361h-16.454c-5.931.002-10.757 4.827-10.757 10.759v24.693c0 5.932 4.826 10.757 10.757 10.757h21.992c7.756 21.932 23.066 40.243 43.371 51.724l25.249 14.276c24.298 13.738 50.407 23.666 77.661 29.558l-14.466 59.572-34.317.103c-13.172.04-23.856 10.788-23.816 23.96l.019 6.195c.019 6.38 2.521 12.372 7.047 16.871 4.508 4.481 10.485 6.946 16.838 6.946h.074l21.039-.063-5.54 22.813c-2.16 8.893-.156 18.104 5.497 25.271 5.563 7.055 13.872 11.095 22.809 11.095h.088c8.319-.025 16.249-3.645 21.753-9.927l78.086-88.993c2.732-3.114 2.422-7.853-.691-10.585-3.114-2.731-7.851-2.422-10.585.691l-78.09 88.997c-2.67 3.048-6.504 4.803-10.518 4.815-.014 0-.028 0-.043 0-4.313 0-8.333-1.961-11.032-5.383-2.779-3.524-3.763-8.059-2.698-12.442l45.79-188.564c.127-.521.56-.885 1.055-.887l152.637-.457c.199-.005.681-.001.983.662.338.744-.058 1.196-.188 1.344l-80.152 91.506c-2.729 3.116-2.416 7.854.7 10.583 3.115 2.729 7.854 2.416 10.583-.7l41.766-47.682c.844.329 80.71.516 80.71.516v2.998c0 8.614 7.008 15.622 15.622 15.622h9.198c15.158 0 27.49-12.332 27.49-27.49v-32.548h11.665c2.147 0 4.233-.262 6.235-.744v105.885c0 4.142 3.358 7.5 7.5 7.5s7.5-3.358 7.5-7.5v-114.835c0-.275-.017-.547-.046-.814 3.427-4.485 5.468-10.081 5.468-16.148zm-255.066-28.809c-10.83 0-20.612-6.065-25.524-15.453l51.85-1.622c-4.56 10.251-14.796 17.075-26.326 17.075zm-234.934-36.139h38.145c4.468 0 8.104 3.635 8.104 8.104 0 4.468-3.635 8.104-8.104 8.104h-38.145zm33.822 31.207h4.323c12.739 0 23.103-10.364 23.103-23.104s-10.364-23.104-23.103-23.104h-10.935v-33.41h15.536c12.711 0 24.315 6.973 30.283 18.197l10.859 20.425c4.38 8.239 12.067 14.334 21.089 16.72l26.989 7.137c-22.687 20.964-47.581 37.207-74.122 48.31-.076.032-.145.071-.22.105-10.359-8.306-18.536-19.008-23.802-31.276zm106.272 194.13-24.729.074c-.009 0-.019 0-.028 0-2.363 0-4.587-.917-6.265-2.584-1.684-1.673-2.615-3.903-2.622-6.277l-.019-6.195c-.015-4.901 3.961-8.9 8.861-8.915l30.626-.092zm296.585-101.184c0 6.887-5.603 12.49-12.49 12.49h-9.198c-.343 0-.622-.279-.622-.622v-145.45c0-.342.279-.621.622-.621h9.198c6.887 0 12.49 5.603 12.49 12.49zm15-47.549v-23.313h11.665c6.427 0 11.656 5.229 11.656 11.657 0 6.427-5.229 11.656-11.656 11.656z"/></g></svg>