<?xml version="1.0" encoding="iso-8859-1"?>
<!-- Generator: Adobe Illustrator 19.0.0, SVG Export Plug-In . SVG Version: 6.00 Build 0)  -->
<svg version="1.1" id="Capa_1" xmlns="http://www.w3.org/2000/svg" xmlns:xlink="http://www.w3.org/1999/xlink" x="0px" y="0px"
	 viewBox="0 0 512 512" style="enable-background:new 0 0 512 512;" xml:space="preserve">
<g>
	<path style="fill:#FFB98A;" d="M369.197,187.934h-11.878v73.063h11.878c13.072,0,23.667-10.597,23.667-23.668v-25.726
		C392.864,198.531,382.269,187.934,369.197,187.934z"/>
	<path style="fill:#FFB98A;" d="M154.683,187.934h-11.877c-13.072,0-23.669,10.597-23.669,23.668v25.726
		c0,13.072,10.597,23.668,23.669,23.668h11.877V187.934z"/>
</g>
<path style="fill:#FFC502;" d="M390.311,355.097h-86.426c-4.129,2.219-8.428,4.161-12.877,5.799
	c0.004-0.001,0.009-0.002,0.013-0.004v16.502c0,11.011-9.009,20.02-20.02,20.02h-29.998c-11.011,0-20.02-9.009-20.02-20.02v-16.502
	h0.001c-4.443-1.637-8.74-3.578-12.866-5.795h-86.427c-8.258,0-15.015,6.757-15.015,15.015v124.371c0,5.505,4.504,10.01,10.01,10.01
	h278.629c5.505,0,10.01-4.504,10.01-10.01V370.111C405.326,361.853,398.569,355.097,390.311,355.097z"/>
<g style="opacity:0.15;">
	<path style="fill:#3D0072;" d="M135.526,494.483V370.111c0-8.258,6.757-15.015,15.015-15.015h-28.849
		c-8.258,0-15.015,6.757-15.015,15.015v124.371c0,5.505,4.504,10.01,10.01,10.01h28.849
		C140.031,504.493,135.526,499.988,135.526,494.483z"/>
</g>
<rect x="154.922" y="355.097" style="fill:#046699;" width="38.037" height="65.564"/>
<rect x="154.922" y="355.097" style="opacity:0.15;fill:#490089;enable-background:new    ;" width="22.003" height="65.564"/>
<rect x="319.043" y="355.097" style="fill:#046699;" width="38.037" height="65.564"/>
<rect x="154.922" y="420.661" style="fill:#203A74;" width="202.167" height="84.332"/>
<g style="opacity:0.15;">
	<rect x="154.922" y="420.661" style="fill:#030007;" width="22.003" height="84.332"/>
</g>
<path style="fill:#FFC7A9;" d="M256.001,367.108c-12.309,0-24.105-2.197-35.017-6.217v16.502c0,11.011,9.009,20.02,20.02,20.02
	h29.998c11.011,0,20.02-9.009,20.02-20.02v-16.502C280.107,364.911,268.311,367.108,256.001,367.108z"/>
<path style="opacity:0.15;fill:#490089;enable-background:new    ;" d="M246.992,377.394v-10.688
	c-9.065-0.8-17.788-2.786-26.008-5.815v16.502c0,11.011,9.009,20.02,20.02,20.02h26.008
	C256.001,397.413,246.992,388.404,246.992,377.394z"/>
<g>
	<path style="fill:#FFC7A9;" d="M281.038,280.565h-50.074c-4.909,0-8.903,3.993-8.903,8.903v36.953
		c10.612,3.772,22.035,5.832,33.939,5.832c11.906,0,23.329-2.06,33.939-5.832v-36.953
		C289.94,284.558,285.947,280.565,281.038,280.565z"/>
	<path style="fill:#FFC7A9;" d="M357.262,170.917H154.74c-0.034,1.061-0.057,2.129-0.057,3.214v56.802
		c0,31.991,14.831,60.514,37.988,79.082v-28.574c0-15.339,12.48-27.818,27.819-27.818h22.954c1.276,4.062,5.085,7.029,9.553,7.029
		h11.261c5.505,0,10.01-2.173,10.01-4.829c0-0.796,0-1.537,0-2.2h17.243c15.339,0,27.819,12.479,27.819,27.818v28.575
		c23.158-18.568,37.988-47.091,37.988-79.083v-56.802C357.319,173.046,357.296,171.978,357.262,170.917z"/>
</g>
<path id="SVGCleanerId_0" style="fill:#B2762F;" d="M319.331,310.017v-28.575c0-15.339-12.48-27.818-27.819-27.818h-17.243
	c0,0.664,0,1.404,0,2.2c0,2.656-4.504,4.829-10.01,4.829h-11.261c-4.468,0-8.277-2.968-9.553-7.029H220.49
	c-15.339,0-27.819,12.479-27.819,27.818v28.574c-23.157-18.568-37.988-47.091-37.988-79.082v34.856
	c0,55.957,45.362,101.319,101.318,101.319c55.957,0,101.318-45.361,101.318-101.319v-34.856
	C357.319,262.926,342.487,291.449,319.331,310.017z M289.94,326.421c-10.611,3.772-22.035,5.832-33.939,5.832
	c-11.906,0-23.328-2.06-33.939-5.832v-36.953c0-4.909,3.993-8.903,8.903-8.903h50.074c4.909,0,8.903,3.993,8.903,8.903v36.953
	H289.94z"/>
<g>
	<path id="SVGCleanerId_0_1_" style="fill:#B2762F;" d="M319.331,310.017v-28.575c0-15.339-12.48-27.818-27.819-27.818h-17.243
		c0,0.664,0,1.404,0,2.2c0,2.656-4.504,4.829-10.01,4.829h-11.261c-4.468,0-8.277-2.968-9.553-7.029H220.49
		c-15.339,0-27.819,12.479-27.819,27.818v28.574c-23.157-18.568-37.988-47.091-37.988-79.082v34.856
		c0,55.957,45.362,101.319,101.318,101.319c55.957,0,101.318-45.361,101.318-101.319v-34.856
		C357.319,262.926,342.487,291.449,319.331,310.017z M289.94,326.421c-10.611,3.772-22.035,5.832-33.939,5.832
		c-11.906,0-23.328-2.06-33.939-5.832v-36.953c0-4.909,3.993-8.903,8.903-8.903h50.074c4.909,0,8.903,3.993,8.903,8.903v36.953
		H289.94z"/>
</g>
<g style="opacity:0.15;">
	<path style="fill:#330068;" d="M192.671,310.016v-25.711c-9.625-15.497-15.185-33.785-15.185-53.371v-56.802
		c0-1.085,0.023-2.153,0.057-3.214h-22.804c-0.034,1.061-0.057,2.129-0.057,3.214v56.802
		C154.683,262.925,169.516,291.448,192.671,310.016z"/>
</g>
<path style="fill:#FFC502;" d="M329.573,117.865c-4.415,0-8.008-3.593-8.008-8.008V46.726c-7.601-5.116-15.885-9.294-24.682-12.382
	v58.808c0,2.753-2.252,5.005-5.005,5.005h-71.754c-2.753,0-5.005-2.252-5.005-5.005V34.344c-8.798,3.088-17.081,7.266-24.682,12.381
	v63.133c0,4.415-3.593,8.008-8.008,8.008h-38.509c-1.128,6.289-1.718,12.765-1.718,19.379v12.652H369.8v-12.652
	c0-6.613-0.59-13.09-1.718-19.379H329.573z"/>
<g>
	<ellipse style="fill:#046699;" cx="205.432" cy="223.498" rx="13.49" ry="13.542"/>
	<ellipse style="fill:#046699;" cx="302.566" cy="223.498" rx="13.49" ry="13.542"/>
</g>
<path style="fill:#FCDB67;" d="M390.632,160.907c0,5.505-4.504,10.01-10.01,10.01H131.379c-5.505,0-10.01-4.504-10.01-10.01v-1.001
	c0-5.505,4.504-10.01,10.01-10.01h249.243c5.505,0,10.01,4.504,10.01,10.01V160.907z"/>
<g style="opacity:0.15;">
	<path style="fill:#3D0072;" d="M150.898,160.907v-1.001c0-5.505,4.504-10.01,10.01-10.01h-29.529c-5.505,0-10.01,4.504-10.01,10.01
		v1.001c0,5.505,4.504,10.01,10.01,10.01h29.529C155.403,170.917,150.898,166.413,150.898,160.907z"/>
</g>
<path style="fill:#FCDB67;" d="M296.883,93.152c0,2.753-2.252,5.005-5.005,5.005h-71.754c-2.753,0-5.005-2.252-5.005-5.005v-80.64
	c0-2.753,2.252-5.005,5.005-5.005h71.754c2.753,0,5.005,2.252,5.005,5.005V93.152z"/>
<g style="opacity:0.15;">
	<path style="fill:#3D0072;" d="M240.302,93.152v-80.64c0-2.753,2.252-5.005,5.005-5.005h-25.183c-2.753,0-5.005,2.252-5.005,5.005
		v80.64c0,2.753,2.252,5.005,5.005,5.005h25.183C242.554,98.157,240.302,95.905,240.302,93.152z"/>
</g>
<path style="fill:#FCDB67;" d="M141.418,117.865c-0.89,0-1.733-0.394-2.303-1.076c-0.571-0.683-0.81-1.582-0.653-2.456
	c5.266-29.355,22.499-55.872,47.281-72.752c0.508-0.346,1.098-0.522,1.691-0.522c0.48,0,0.963,0.115,1.403,0.348
	c0.983,0.522,1.6,1.543,1.6,2.655v65.794c0,4.415-3.593,8.008-8.008,8.008L141.418,117.865L141.418,117.865z"/>
<g style="opacity:0.15;">
	<path style="fill:#3D0072;" d="M190.437,61.946V44.063c0-1.112-0.616-2.134-1.6-2.655c-0.44-0.232-0.923-0.348-1.403-0.348
		c-0.593,0-1.183,0.175-1.691,0.522c-24.783,16.879-42.016,43.396-47.281,72.752c-0.156,0.875,0.082,1.774,0.653,2.456
		c0.57,0.683,1.413,1.076,2.303,1.076h14.4C161.483,96.297,173.644,76.701,190.437,61.946z"/>
</g>
<path style="fill:#FCDB67;" d="M370.584,117.865c0.89,0,1.733-0.394,2.303-1.076c0.571-0.683,0.81-1.582,0.653-2.456
	c-5.266-29.355-22.499-55.872-47.281-72.752c-0.508-0.346-1.098-0.522-1.691-0.522c-0.48,0-0.963,0.115-1.403,0.348
	c-0.983,0.522-1.6,1.543-1.6,2.655v65.794c0,4.415,3.592,8.008,8.008,8.008L370.584,117.865L370.584,117.865z"/>
<g style="opacity:0.15;">
	<path style="fill:#3D0072;" d="M341.084,109.857v-56.18c-4.568-4.428-9.523-8.485-14.825-12.097
		c-0.508-0.346-1.098-0.522-1.691-0.522c-0.48,0-0.963,0.115-1.403,0.348c-0.983,0.522-1.6,1.543-1.6,2.655v65.794
		c0,4.415,3.592,8.008,8.008,8.008h19.519C344.677,117.865,341.084,114.273,341.084,109.857z"/>
</g>
<path style="fill:#FFC502;" d="M275.969,50.8c0,2.753-2.252,5.005-5.005,5.005h-29.927c-2.753,0-5.005-2.252-5.005-5.005V38.956
	c0-2.753,2.252-5.005,5.005-5.005h29.927c2.753,0,5.005,2.252,5.005,5.005V50.8z"/>
<path d="M205.43,244.548c11.577,0,20.998-9.443,20.998-21.05s-9.419-21.05-20.998-21.05s-20.998,9.443-20.998,21.05
	S193.851,244.548,205.43,244.548z M205.43,217.462c3.298,0,5.983,2.708,5.983,6.035s-2.684,6.035-5.983,6.035
	s-5.983-2.708-5.983-6.035S202.13,217.462,205.43,217.462z"/>
<path d="M302.569,202.448c-11.578,0-20.999,9.443-20.999,21.05s9.42,21.05,20.999,21.05c11.577,0,20.997-9.443,20.997-21.05
	S314.148,202.448,302.569,202.448z M302.569,229.533c-3.299,0-5.984-2.708-5.984-6.035s2.685-6.035,5.984-6.035
	c3.298,0,5.983,2.708,5.983,6.035S305.869,229.533,302.569,229.533z"/>
<path d="M237.983,126.374h36.035c4.146,0,7.507-3.36,7.507-7.507s-3.361-7.507-7.507-7.507h-36.035c-4.146,0-7.507,3.36-7.507,7.507
	S233.837,126.374,237.983,126.374z"/>
<path d="M236.482,188.935c0-4.147-3.361-7.507-7.507-7.507h-48.047c-4.146,0-7.507,3.36-7.507,7.507
	c0,4.147,3.361,7.507,7.507,7.507h48.047C233.121,196.442,236.482,193.082,236.482,188.935z"/>
<path d="M279.023,196.442h48.047c4.146,0,7.507-3.36,7.507-7.507c0-4.147-3.361-7.507-7.507-7.507h-48.047
	c-4.146,0-7.507,3.36-7.507,7.507C271.516,193.082,274.877,196.442,279.023,196.442z"/>
<path d="M405.326,445.935c4.146,0,7.507-3.36,7.507-7.507v-68.317c0-12.418-10.103-22.522-22.522-22.522h-62.618
	c22.113-19.405,36.323-47.607,37.099-79.085h4.404c17.19,0,31.174-13.986,31.174-31.175v-25.726
	c0-17.191-13.985-31.175-31.174-31.175h-4.37v-2.002h15.796c9.658,0,17.517-7.859,17.517-17.517v-1.001
	c0-9.658-7.859-17.517-17.517-17.517h-3.316v-5.145c0-4.638-0.282-9.209-0.812-13.707c0.791-0.54,1.521-1.178,2.15-1.931
	c2.001-2.392,2.834-5.525,2.284-8.599c-5.62-31.329-24.006-59.623-50.441-77.629c-1.752-1.194-3.8-1.826-5.921-1.826
	c-1.704,0-3.4,0.42-4.919,1.222c-0.563,0.298-1.076,0.657-1.566,1.041c-4.396-2.493-8.97-4.707-13.694-6.622V12.512
	c0-6.9-5.612-12.512-12.512-12.512h-71.754c-6.9,0-12.512,5.612-12.512,12.512v16.689c-4.726,1.915-9.301,4.121-13.696,6.614
	c-0.491-0.387-1.008-0.748-1.575-1.048c-1.506-0.796-3.204-1.216-4.907-1.216c-2.121,0-4.169,0.632-5.917,1.823
	c-26.439,18.008-44.825,46.303-50.445,77.636c-0.549,3.07,0.284,6.203,2.281,8.59c0.63,0.755,1.361,1.394,2.154,1.936
	c-0.53,4.497-0.813,9.07-0.813,13.707v5.145h-3.315c-9.658,0-17.517,7.859-17.517,17.517v1.001c0,9.658,7.859,17.517,17.517,17.517
	h15.796v2.002h-4.369c-17.191,0-31.176,13.986-31.176,31.175v25.726c0,17.191,13.986,31.175,31.176,31.175h4.403
	c0.775,31.479,14.987,59.68,37.099,79.085h-62.618c-12.419,0-22.522,10.104-22.522,22.522v124.372
	c0,9.658,7.859,17.517,17.517,17.517h278.629c9.658,0,17.517-7.859,17.517-17.517v-16.017c0-4.147-3.361-7.507-7.507-7.507
	c-4.146,0-7.507,3.36-7.507,7.507v16.017c0,1.356-1.146,2.502-2.502,2.502h-30.725v-31.781v-44.544v-58.057h25.72
	c4.14,0,7.507,3.367,7.507,7.507v68.317C397.818,442.575,401.18,445.935,405.326,445.935z M147.176,216.412h-5.296
	c-4.146,0-7.507,3.36-7.507,7.507c0,4.147,3.361,7.507,7.507,7.507h5.296v22.063h-4.369c-8.912,0-16.162-7.25-16.162-16.162v-25.726
	c0-8.911,7.25-16.161,16.162-16.161h4.369V216.412z M369.197,195.441c8.911,0,16.16,7.25,16.16,16.161v25.726
	c0,8.911-7.25,16.162-16.16,16.162h-4.37v-22.063h5.296c4.146,0,7.507-3.36,7.507-7.507c0-4.147-3.361-7.507-7.507-7.507h-5.296
	v-20.971H369.197z M329.072,53.031c17.935,14.584,30.715,34.903,35.981,57.327h-35.481c-0.271,0-0.5-0.229-0.5-0.5V53.031z
	 M222.626,15.015h66.749V90.65h-66.749L222.626,15.015L222.626,15.015z M182.93,53.032v56.825c0,0.271-0.229,0.5-0.5,0.5h-35.48
	C152.217,87.934,164.994,67.617,182.93,53.032z M131.379,163.41c-1.356,0-2.502-1.146-2.502-2.502v-1.001
	c0-1.356,1.146-2.502,2.502-2.502h58.557c4.146,0,7.507-3.36,7.507-7.507c0-4.147-3.361-7.507-7.507-7.507h-40.227v-5.145
	c0-4.017,0.241-7.977,0.699-11.872h32.02c8.555,0,15.515-6.96,15.515-15.515V50.88c3.115-1.929,6.341-3.695,9.667-5.282v47.554
	c0,6.9,5.612,12.512,12.512,12.512h71.754c6.9,0,12.512-5.612,12.512-12.512V45.616c3.321,1.592,6.554,3.337,9.667,5.264v58.978
	c0,8.555,6.96,15.515,15.515,15.515h32.02c0.458,3.896,0.699,7.856,0.699,11.872v5.145H227.974c-4.146,0-7.507,3.36-7.507,7.507
	c0,4.147,3.361,7.507,7.507,7.507h152.649c1.356,0,2.502,1.146,2.502,2.502v1.001c0,1.356-1.146,2.502-2.502,2.502H131.379z
	 M162.19,178.424h187.621v52.509c0,22.909-8.22,44.587-22.973,61.519v-11.011c0-19.479-15.847-35.326-35.326-35.326h-11.543
	c-1.376-1.608-3.417-2.629-5.699-2.629c-4.146,0-7.507,3.36-7.507,7.507v1.896c-0.66,0.143-1.508,0.255-2.502,0.255h-11.261
	c-1.356,0-2.502-1.146-2.502-2.502v-32.681c0-4.147-3.361-7.507-7.507-7.507s-7.507,3.36-7.507,7.507v28.153h-14.991
	c-19.479,0-35.327,15.846-35.327,35.325v11.01c-14.753-16.932-22.973-38.61-22.973-61.518L162.19,178.424L162.19,178.424z
	 M165.941,292.085c6.032,8.857,13.424,16.882,22.035,23.788c2.252,1.806,5.343,2.159,7.945,0.911
	c2.604-1.249,4.259-3.881,4.259-6.769v-28.574c0-11.2,9.112-20.311,20.312-20.311h18.51c3.198,4.258,8.274,7.029,13.997,7.029
	h11.261c7.4,0,13.305-2.765,15.971-7.029h11.282c11.2,0,20.312,9.111,20.312,20.311v28.575c0,2.888,1.656,5.519,4.259,6.769
	c2.602,1.248,5.692,0.896,7.945-0.911c8.61-6.904,16.002-14.93,22.034-23.787c-11.396,38.971-47.456,67.514-90.06,67.514
	S177.337,331.054,165.941,292.085z M241.003,404.92h29.998c15.178,0,27.527-12.349,27.527-27.527v-11.44
	c2.422-1.032,4.8-2.15,7.129-3.35h5.881v50.549H200.465v-50.549h5.88c2.33,1.2,4.709,2.317,7.131,3.351v11.439
	C213.476,392.572,225.825,404.92,241.003,404.92z M228.491,377.394v-6.307c8.791,2.299,18.009,3.528,27.51,3.528
	c9.502,0,18.721-1.23,27.512-3.528v6.307c0,6.9-5.613,12.512-12.512,12.512h-29.998
	C234.104,389.906,228.491,384.293,228.491,377.394z M162.428,362.604h23.022v50.549h-23.022V362.604z M147.413,420.661v44.544
	v31.781h-30.726c-1.356,0-2.502-1.146-2.502-2.502V370.111c0-4.14,3.367-7.507,7.507-7.507h25.721V420.661z M349.575,496.985
	h-23.891v-38.037c0-6.9-5.612-12.512-12.512-12.512h-59.173c-4.146,0-7.507,3.36-7.507,7.507s3.361,7.507,7.507,7.507h56.67v35.535
	H201.333v-35.535h12.626c4.146,0,7.507-3.36,7.507-7.507s-3.361-7.507-7.507-7.507H198.83c-6.9,0-12.512,5.612-12.512,12.512v38.037
	h-23.891v-68.817h187.149L349.575,496.985L349.575,496.985z M349.575,413.153h-23.022v-50.549h23.022V413.153z"/>
<path d="M173.921,447.437c1.972,0,3.914-0.801,5.305-2.202c1.401-1.391,2.202-3.333,2.202-5.305c0-1.982-0.801-3.914-2.202-5.305
	c-1.391-1.401-3.323-2.202-5.305-2.202c-1.972,0-3.914,0.801-5.305,2.202c-1.401,1.391-2.202,3.322-2.202,5.305
	c0,1.981,0.801,3.914,2.202,5.305C170.007,446.636,171.949,447.437,173.921,447.437z"/>
<path d="M337.08,447.437c1.972,0,3.914-0.801,5.305-2.202c1.401-1.391,2.202-3.333,2.202-5.305c0-1.982-0.801-3.914-2.202-5.305
	c-1.391-1.401-3.333-2.202-5.305-2.202s-3.914,0.801-5.305,2.202c-1.401,1.391-2.202,3.322-2.202,5.305
	c0,1.981,0.801,3.914,2.202,5.305C333.166,446.636,335.108,447.437,337.08,447.437z"/>
<path d="M219.546,333.494c11.696,4.158,23.961,6.266,36.455,6.266c12.494,0,24.759-2.108,36.454-6.266
	c2.993-1.064,4.993-3.897,4.993-7.073v-36.953c0-9.048-7.361-16.41-16.41-16.41h-50.074c-9.049,0-16.41,7.362-16.41,16.41v36.953
	C214.555,329.597,216.553,332.43,219.546,333.494z M229.569,289.468c0-0.77,0.626-1.395,1.395-1.395h50.074
	c0.77,0,1.395,0.626,1.395,1.395v31.499c-8.554,2.509-17.422,3.779-26.432,3.779c-9.01,0-17.877-1.269-26.432-3.78v-31.498H229.569z
	"/>
<path d="M276.593,305.352c2.932-2.933,2.932-7.686,0-10.617c-2.932-2.931-7.686-2.931-10.617,0c-5.5,5.502-14.45,5.5-19.952,0
	c-2.932-2.931-7.686-2.931-10.616,0.001c-2.932,2.933-2.931,7.685,0.001,10.616c5.678,5.677,13.136,8.515,20.592,8.515
	C263.458,313.867,270.917,311.029,276.593,305.352z"/>
<path d="M270.965,26.444h-29.927c-6.9,0-12.512,5.612-12.512,12.512V50.8c0,6.9,5.612,12.512,12.512,12.512h29.927
	c6.9,0,12.512-5.612,12.512-12.512V38.956C283.477,32.056,277.864,26.444,270.965,26.444z M268.462,48.297H243.54v-6.839h24.922
	V48.297z"/>
<g>
</g>
<g>
</g>
<g>
</g>
<g>
</g>
<g>
</g>
<g>
</g>
<g>
</g>
<g>
</g>
<g>
</g>
<g>
</g>
<g>
</g>
<g>
</g>
<g>
</g>
<g>
</g>
<g>
</g>
</svg>
