<svg id="Capa_1" enable-background="new 0 0 512 512" height="512" viewBox="0 0 512 512" width="512" xmlns="http://www.w3.org/2000/svg"><g><path d="m155.719 415.181h193.265v28.336h-193.265z" fill="#c8c3ca"/><path d="m433.656 180.842h-366.703v-15.257c0-12.715 10.308-23.023 23.023-23.023h320.657c12.715 0 23.023 10.308 23.023 23.023z" fill="#f8e076"/><path d="m410.633 142.561h-30c12.715 0 23.023 10.308 23.023 23.023v15.257h30v-15.257c0-12.715-10.308-23.023-23.023-23.023z" fill="#f5d339"/><path d="m486.472 415.181h-460.943c-9.957 0-18.028-8.072-18.028-18.028v-177.795c0-21.272 17.244-38.516 38.517-38.516h419.967c21.272 0 38.517 17.244 38.517 38.516v177.794c-.002 9.957-8.073 18.029-18.03 18.029z" fill="#a9e8d1"/><path d="m465.984 180.842h-30c21.272 0 38.517 17.244 38.517 38.516v177.794c0 9.957-8.072 18.029-18.029 18.029h30c9.957 0 18.029-8.072 18.029-18.029v-177.794c-.001-21.272-17.245-38.516-38.517-38.516z" fill="#77d1b3"/><path d="m7.5 256h497v79.143h-497z" fill="#fbfbfb"/><path d="m302.065 415.181h-92.13v-156.145c0-9.151 7.418-16.569 16.569-16.569h58.992c9.151 0 16.569 7.418 16.569 16.569z" fill="#f8e076"/><path d="m285.496 242.467h-28.575v172.714h45.144v-156.145c0-9.151-7.418-16.569-16.569-16.569z" fill="#f7d958"/><g fill="#8c818f"><ellipse cx="75.517" cy="422.425" rx="25.985" ry="25.985" transform="matrix(.707 -.707 .707 .707 -276.581 177.124)"/><ellipse cx="155.719" cy="422.425" rx="25.985" ry="25.985" transform="matrix(.232 -.973 .973 .232 -291.326 475.739)"/><ellipse cx="356.122" cy="422.425" rx="25.985" ry="25.985" transform="matrix(.232 -.973 .973 .232 -137.484 670.658)"/><ellipse cx="436.323" cy="422.425" rx="25.985" ry="25.985" transform="matrix(.232 -.973 .973 .232 -75.916 748.664)"/></g><path d="m465.984 173.341h-24.828v-7.757c0-16.831-13.693-30.523-30.523-30.523h-39.023l23.824-23.824c4.273-4.275 4.273-11.23-.001-15.504l-24.643-24.643h66.5c4.142 0 7.5-3.358 7.5-7.5s-3.358-7.5-7.5-7.5h-362.579c-4.142 0-7.5 3.358-7.5 7.5s3.358 7.5 7.5 7.5h55.108l-24.643 24.643c-4.274 4.274-4.274 11.229 0 15.505l23.823 23.823h-39.023c-16.831 0-30.523 13.693-30.523 30.523v7.757h-13.436c-25.374 0-46.017 20.643-46.017 46.017v177.795c0 14.077 11.452 25.529 25.529 25.529h16.51c.139 18.346 15.101 33.229 33.478 33.229 18.378 0 33.34-14.883 33.479-33.229h13.244c.139 18.346 15.101 33.229 33.479 33.229 6.622 0 12.796-1.94 17.998-5.27.737.242 1.522.377 2.339.377h44.249c4.142 0 7.5-3.358 7.5-7.5s-3.358-7.5-7.5-7.5h-33.995c1.821-4.083 2.851-8.592 2.887-13.336h133.446c.036 4.744 1.066 9.253 2.888 13.336h-75.227c-4.142 0-7.5 3.358-7.5 7.5s3.358 7.5 7.5 7.5h88.408c5.076 3.103 11.038 4.893 17.41 4.893 18.378 0 33.34-14.883 33.479-33.229h13.244c.139 18.346 15.101 33.229 33.479 33.229s33.34-14.883 33.479-33.229h16.67c14.077 0 25.529-11.452 25.529-25.529v-177.795c-.002-25.374-20.645-46.017-46.018-46.017zm-156.419 93.827h49.061v62.476h-49.061zm64.061 0h52.53v62.476h-52.53zm67.53 0h55.844v62.476h-55.844zm-91.446-195.945 32.263 32.263-31.576 31.575h-20.768l-31.575-31.575 32.262-32.263c.043-.043.079-.089.12-.133h19.153c.042.044.078.09.121.133zm-231.074 32.263 32.263-32.263c.043-.043.079-.089.12-.133h19.153c.042.043.077.09.12.133l32.262 32.263-31.575 31.575h-20.768zm-44.183 62.099c0-8.56 6.964-15.523 15.523-15.523h165.375c4.142 0 7.5-3.358 7.5-7.5s-3.358-7.5-7.5-7.5h-63.159l23.823-23.823c2.071-2.071 3.212-4.824 3.212-7.752 0-2.929-1.141-5.683-3.212-7.752l-24.643-24.645h117.864l-24.642 24.642c-2.072 2.071-3.212 4.824-3.212 7.753 0 2.928 1.141 5.682 3.211 7.752l23.823 23.823h-23.065c-4.142 0-7.5 3.358-7.5 7.5s3.358 7.5 7.5 7.5h125.282c8.56 0 15.523 6.964 15.523 15.523v7.757h-351.703zm-28.436 22.756h20.936 366.704 32.328c17.103 0 31.017 13.914 31.017 31.017v32.81h-188.441c-2.964-9.935-12.18-17.201-23.065-17.201h-58.992c-10.886 0-20.101 7.266-23.065 17.201h-188.439v-32.81c0-17.103 13.914-31.017 31.017-31.017zm-31.017 78.827h49.57v62.476h-49.57zm64.57 0h52.529v62.476h-52.529zm67.529 0h55.336v62.476h-55.336zm-132.099 129.984v-52.509h187.435v63.038h-16.661c-5.463-11.09-16.88-18.741-30.055-18.741s-24.593 7.651-30.055 18.741h-20.091c-5.463-11.09-16.88-18.741-30.056-18.741-13.175 0-24.592 7.651-30.055 18.741h-19.933c-5.806 0-10.529-4.723-10.529-10.529zm60.517 43.758c-10.192 0-18.485-8.292-18.485-18.485 0-10.192 8.292-18.485 18.485-18.485s18.485 8.292 18.485 18.485-8.292 18.485-18.485 18.485zm61.716-18.485c0-10.192 8.292-18.485 18.485-18.485s18.485 8.292 18.485 18.485-8.293 18.485-18.485 18.485-18.485-8.292-18.485-18.485zm127.188-14.744v-18.221c0-4.142-3.358-7.5-7.5-7.5s-7.5 3.358-7.5 7.5v18.221h-31.986v-148.644c0-5.001 4.068-9.069 9.069-9.069h22.917v109.493c0 4.142 3.358 7.5 7.5 7.5s7.5-3.358 7.5-7.5v-109.494h21.075c5.001 0 9.069 4.068 9.069 9.069v148.645zm91.701 33.229c-10.192 0-18.485-8.292-18.485-18.485 0-10.192 8.292-18.485 18.485-18.485s18.485 8.292 18.485 18.485-8.293 18.485-18.485 18.485zm80.201 0c-10.193 0-18.485-8.292-18.485-18.485 0-10.192 8.292-18.485 18.485-18.485s18.485 8.292 18.485 18.485c.001 10.193-8.292 18.485-18.485 18.485zm50.149-33.229h-20.093c-5.463-11.09-16.88-18.741-30.055-18.741-13.183 0-24.606 7.66-30.065 18.76-.123-.006-.245-.018-.369-.018h-19.036c-.223 0-.442.014-.659.033-5.456-11.108-16.884-18.774-30.073-18.774-13.175 0-24.592 7.651-30.055 18.741h-16.501v-63.038h187.434v52.509c0 5.805-4.723 10.528-10.528 10.528z"/></g></svg>