<?xml version="1.0" encoding="iso-8859-1"?>
<!-- Generator: Adobe Illustrator 19.0.0, SVG Export Plug-In . SVG Version: 6.00 Build 0)  -->
<svg version="1.1" id="Capa_1" xmlns="http://www.w3.org/2000/svg" xmlns:xlink="http://www.w3.org/1999/xlink" x="0px" y="0px"
	 viewBox="0 0 512 512" style="enable-background:new 0 0 512 512;" xml:space="preserve">
<g>
	<path style="fill:#FFC502;" d="M199.884,27h-27.885c-5.246,0-9.5,4.253-9.5,9.5s4.254,9.5,9.5,9.5h28.951
		C198.37,39.073,198.128,32.595,199.884,27z"/>
	<path style="fill:#FFC502;" d="M339.999,27h-27.885c1.756,5.595,1.515,12.073-1.065,19h28.95c5.247,0,9.5-4.253,9.5-9.5
		S345.246,27,339.999,27z"/>
</g>
<path style="fill:#312F56;" d="M208.731,60.228C223.57,56.269,239.467,54,255.999,54c16.532,0,32.429,2.269,47.268,6.228
	c2.692-3.772,5.016-7.772,6.845-11.912c9.92-22.449-4.464-40.816-31.964-40.816h-44.299c-27.5,0-41.883,18.367-31.963,40.816
	C203.716,52.456,206.04,56.455,208.731,60.228z"/>
<path style="opacity:0.15;fill:#490089;enable-background:new    ;" d="M208.731,60.228c8.214-2.191,16.755-3.859,25.547-4.917
	c-1.358-2.276-2.59-4.609-3.644-6.995C220.714,25.867,235.097,7.5,262.597,7.5H233.85c-27.5,0-41.883,18.367-31.963,40.816
	C203.716,52.456,206.04,56.455,208.731,60.228z"/>
<path style="fill:#FFB98A;" d="M400.589,405.287c-20.992-27.372-50.725-47.603-83.72-56.965c-2.14-0.607-3.635-2.585-3.635-4.81
	v-13.651c-16.685,7.43-36.284,11.717-57.235,11.717s-40.55-4.287-57.235-11.717v13.651c0,2.225-1.494,4.203-3.635,4.81
	c-32.995,9.362-62.728,29.593-83.72,56.965c-20.885,27.233-32.327,59.773-33.09,94.102c-0.03,1.345,0.483,2.645,1.424,3.607
	s2.229,1.504,3.575,1.504h345.361c1.346,0,2.634-0.542,3.574-1.504c0.941-0.962,1.454-2.262,1.425-3.607
	C432.917,465.064,421.475,432.524,400.589,405.287z"/>
<path style="fill:#FFC7A9;" d="M255.999,341.578c-60.653,0-110-35.917-110-80.067c0-10.537,2.81-20.796,8.352-30.492
	c0.544-0.952,1.285-2.251,1.285-10.839v-62.474c0-16.545,5.693-28.997,16.922-37.009c8.512-6.074,20.537-9.557,32.992-9.557
	c18.145,0,35.204,8.926,45.634,23.876c0.98,1.405,2.582,2.242,4.292,2.242c1.709,0,3.312-0.837,4.291-2.242
	c10.43-14.951,27.489-23.876,45.633-23.876c20.485,0,50.962,12.401,50.962,46.566v62.474c0,8.586,0.742,9.886,1.284,10.835
	c5.543,9.699,8.354,19.96,8.354,30.496C365.999,305.661,316.653,341.578,255.999,341.578z"/>
<path style="opacity:0.15;fill:#490089;enable-background:new    ;" d="M198.764,329.861v13.651c0,2.225-1.494,4.203-3.635,4.81
	c-32.995,9.362-62.728,29.593-83.72,56.965c-20.885,27.233-32.327,59.773-33.09,94.102c-0.03,1.345,0.483,2.645,1.424,3.607
	s2.229,1.504,3.575,1.504h24.162c2.461-30.858,13.639-59.975,32.61-84.713c20.992-27.372,50.725-47.603,83.72-56.965
	c2.141-0.607,3.635-2.585,3.635-4.81v-19.175C217.224,336.835,207.585,333.79,198.764,329.861z"/>
<path style="fill:#312F56;" d="M136.623,187.242c2.004-0.552,4.112-0.853,6.292-0.853h12.721v-28.682
	c0-16.545,5.693-28.997,16.922-37.009c8.512-6.074,20.537-9.557,32.992-9.557c18.145,0,35.204,8.926,45.634,23.876
	c0.98,1.405,2.582,2.242,4.292,2.242c1.709,0,3.312-0.837,4.291-2.242c10.43-14.951,27.489-23.876,45.633-23.876
	c20.485,0,50.962,12.401,50.962,46.566v28.682h12.723c2.18,0,4.288,0.301,6.292,0.853c17.683-8.792,28.122-20.981,28.122-37.242
	c0-40.914-66.038-96-147.5-96s-147.5,55.086-147.5,96C108.499,166.261,118.939,178.451,136.623,187.242z"/>
<path style="opacity:0.15;fill:#490089;enable-background:new    ;" d="M136.623,187.242c2.004-0.552,4.112-0.853,6.292-0.853
	h12.721v-4.676c-11.868-8.166-18.637-18.62-18.637-31.713c0-38.499,58.475-89.54,133.25-95.432c-4.69-0.37-9.442-0.568-14.25-0.568
	c-81.462,0-147.5,55.086-147.5,96C108.499,166.261,118.939,178.451,136.623,187.242z"/>
<g>
	<path style="fill:#FFB98A;" d="M154.351,231.019c0.544-0.952,1.285-2.251,1.285-10.839v-33.792h-12.721
		c-13.059,0-23.646,10.587-23.646,23.646v25.701c0,13.058,10.587,23.645,23.646,23.645h3.125
		C146.394,249.592,149.183,240.061,154.351,231.019z"/>
	<path style="fill:#FFB98A;" d="M369.084,186.389h-12.723v33.792c0,8.586,0.742,9.886,1.284,10.835
		c5.169,9.044,7.959,18.576,8.313,28.365h3.126c13.06,0,23.645-10.587,23.645-23.645v-25.701
		C392.729,196.976,382.144,186.389,369.084,186.389z"/>
</g>
<g style="opacity:0.15;">
	<path style="fill:#3D0072;" d="M175.999,261.511c0-10.537,2.81-20.796,8.352-30.492c0.544-0.952,1.285-2.251,1.285-10.839v-62.474
		c0-16.545,5.693-28.997,16.922-37.009c4.817-3.438,10.761-6.044,17.27-7.659c-4.611-1.233-9.402-1.897-14.278-1.897
		c-12.455,0-24.48,3.483-32.992,9.557c-11.229,8.012-16.922,20.464-16.922,37.009v62.474c0,8.587-0.741,9.887-1.285,10.839
		c-5.542,9.696-8.352,19.956-8.352,30.492c0,44.149,49.347,80.067,110,80.067c5.088,0,10.094-0.258,15-0.747
		C217.417,335.489,175.999,301.957,175.999,261.511z"/>
</g>
<g>
	<ellipse style="fill:#775436;" cx="207.479" cy="220.9" rx="13.477" ry="13.529"/>
	<ellipse style="fill:#775436;" cx="301.799" cy="220.9" rx="13.477" ry="13.529"/>
</g>
<path d="M151.999,497h-37.132c1.432-20.23,6.736-39.583,15.831-57.624c1.864-3.699,0.377-8.208-3.321-10.073
	c-3.699-1.865-8.209-0.377-10.073,3.321c-10.157,20.148-16.009,41.773-17.468,64.376h-13.94
	c1.224-31.783,12.076-61.865,31.465-87.149c20.017-26.1,48.362-45.389,79.816-54.314c5.351-1.519,9.087-6.463,9.087-12.025v-2.678
	c15.113,5.284,31.968,8.244,49.735,8.244c17.768,0,34.623-2.96,49.735-8.244v2.678c0,5.561,3.736,10.506,9.088,12.025
	c6.812,1.933,13.583,4.389,20.125,7.301c3.783,1.685,8.217-0.018,9.901-3.801c1.685-3.784-0.018-8.217-3.802-9.902
	c-6.608-2.942-13.433-5.462-20.313-7.501v-7.082c29.993-14.814,50.376-39.6,52.563-67.964c15.187-2.064,26.932-15.108,26.932-30.853
	v-25.701c0-9.071-3.9-17.247-10.109-22.944c16.648-11.969,20.88-25.984,20.88-37.09c0-7.382-1.788-15.139-5.315-23.054
	c-1.684-3.784-6.12-5.483-9.902-3.799c-3.784,1.685-5.484,6.119-3.799,9.903c2.664,5.981,4.016,11.684,4.016,16.95
	c0,11.789-7.446,21.656-21.6,29.352c-1.728-0.299-3.503-0.463-5.315-0.463h-5.223v-21.182c0-22.346-11.366-35.266-20.9-42.169
	c-10.441-7.561-24.132-11.896-37.561-11.896c-19.547,0-37.982,9.123-49.924,24.555c-11.941-15.432-30.376-24.555-49.925-24.555
	c-13.982,0-27.595,3.992-37.349,10.952c-13.314,9.501-20.065,24.006-20.065,43.114v21.182h-5.221c-1.813,0-3.587,0.165-5.316,0.463
	c-14.155-7.697-21.601-17.564-21.601-29.353c0-34.812,60.118-88.5,140-88.5c42.974,0,85.913,16.221,114.864,43.391
	c3.022,2.836,7.768,2.683,10.602-0.336c2.835-3.021,2.684-7.767-0.336-10.601c-18.112-16.998-41.176-30.068-66.335-38.149
	c0.402-0.763,0.794-1.529,1.168-2.304h24.037c9.374,0,17-7.626,17-17s-7.626-17-17-17h-22.932c-0.434-0.812-0.891-1.615-1.4-2.397
	C308.589,6.234,294.913,0,278.148,0h-44.299c-16.764,0-30.439,6.233-37.519,17.102c-0.509,0.782-0.966,1.585-1.399,2.398h-22.932
	c-9.374,0-17,7.626-17,17s7.626,17,17,17h24.038c0.369,0.763,0.754,1.519,1.15,2.27c-17.848,5.753-34.728,14.088-49.817,24.765
	c-29.036,20.543-46.371,46.511-46.371,69.465c0,16.625,9.002,28.564,20.887,37.083c-6.213,5.698-10.116,13.877-10.116,22.951v25.701
	c0,15.744,11.745,28.788,26.932,30.852c2.187,28.365,22.569,53.151,52.563,67.964v7.082c-33.811,10.02-64.224,30.948-85.806,59.089
	c-21.861,28.506-33.838,62.567-34.637,98.497c-0.075,3.341,1.222,6.628,3.562,9.022c2.337,2.388,5.594,3.758,8.936,3.758h68.679
	c4.142,0,7.5-3.358,7.5-7.5S156.141,497,151.999,497z M339.999,34.5c1.103,0,2,0.897,2,2s-0.897,2-2,2h-19.472
	c0.149-1.348,0.223-2.682,0.222-4H339.999z M169.999,36.5c0-1.103,0.897-2,2-2h19.25c-0.001,1.318,0.073,2.652,0.222,4h-19.472
	C170.896,38.5,169.999,37.603,169.999,36.5z M208.747,45.285c-3.403-7.703-3.351-14.617,0.153-19.996
	C213.159,18.751,222.253,15,233.85,15h44.299c11.598,0,20.691,3.751,24.951,10.29c3.503,5.378,3.556,12.292,0.151,19.995
	c-0.959,2.171-2.081,4.302-3.333,6.38c-14.326-3.379-29.126-5.165-43.919-5.165c-14.843,0-29.62,1.753-43.942,5.127
	C210.815,49.561,209.7,47.442,208.747,45.285z M385.229,235.735c0,7.649-5.353,14.058-12.505,15.716
	c-1.138-7.409-3.537-14.641-7.181-21.612h4.466c4.142,0,7.5-3.358,7.5-7.5s-3.358-7.5-7.5-7.5h-6.147v-20.951h5.223
	c8.902,0,16.145,7.243,16.145,16.146L385.229,235.735L385.229,235.735z M126.77,235.735v-25.701c0-8.903,7.243-16.146,16.146-16.146
	h5.221v20.951h-6.146c-4.142,0-7.5,3.358-7.5,7.5s3.358,7.5,7.5,7.5h4.465c-3.644,6.971-6.043,14.202-7.181,21.611
	C132.122,249.794,126.77,243.384,126.77,235.735z M153.499,261.511c0-9.215,2.477-18.222,7.363-26.77
	c1.54-2.695,2.274-5.561,2.274-14.561v-62.474c0-14.18,4.507-24.289,13.778-30.904c7.269-5.187,17.706-8.162,28.636-8.162
	c15.695,0,30.455,7.726,39.483,20.668c2.381,3.413,6.285,5.451,10.443,5.451c4.159,0,8.063-2.039,10.442-5.451
	c9.027-12.941,23.787-20.667,39.482-20.667c10.189,0,20.941,3.382,28.765,9.046c9.752,7.061,14.697,17.162,14.697,30.02v62.474
	c0,8.994,0.732,11.859,2.272,14.557c4.888,8.552,7.365,17.56,7.365,26.774c0,18.891-10.358,36.835-29.168,50.526
	c-19.527,14.213-45.57,22.041-73.332,22.041c-27.761,0-53.804-7.828-73.332-22.041C163.858,298.346,153.499,280.402,153.499,261.511
	z"/>
<path d="M406.54,400.723c-8.602-11.218-18.668-21.37-29.918-30.175c-3.26-2.553-7.975-1.979-10.528,1.284
	c-2.553,3.262-1.979,7.976,1.284,10.529c10.254,8.026,19.426,17.275,27.26,27.49c19.391,25.287,30.242,55.372,31.466,87.149h-13.94
	c-1.458-22.601-7.311-44.226-17.468-64.376c-1.864-3.699-6.374-5.186-10.073-3.321s-5.185,6.374-3.321,10.073
	c9.096,18.042,14.399,37.395,15.831,57.624H197.999c-4.142,0-7.5,3.358-7.5,7.5s3.358,7.5,7.5,7.5H428.68
	c3.343,0,6.601-1.371,8.935-3.758c2.337-2.388,3.636-5.674,3.563-9.019C440.38,463.294,428.402,429.233,406.54,400.723z"/>
<path d="M238.765,222.339v33.577c0,9.649,7.851,17.5,17.5,17.5h11.734c4.143,0,7.5-3.358,7.5-7.5s-3.357-7.5-7.5-7.5h-11.734
	c-1.355,0-2.5-1.145-2.5-2.5v-33.577c0-4.142-3.358-7.5-7.5-7.5C242.123,214.839,238.765,218.197,238.765,222.339z"/>
<path d="M228.453,220.895c0-11.595-9.41-21.029-20.977-21.029s-20.977,9.434-20.977,21.029c0,11.596,9.411,21.029,20.977,21.029
	C219.043,241.924,228.453,232.49,228.453,220.895z M207.477,226.924c-3.296,0-5.977-2.705-5.977-6.029s2.682-6.029,5.977-6.029
	s5.977,2.705,5.977,6.029C213.453,224.219,210.772,226.924,207.477,226.924z"/>
<path d="M301.798,199.866c-11.567,0-20.978,9.434-20.978,21.029c0,11.596,9.41,21.029,20.978,21.029
	c11.566,0,20.977-9.434,20.977-21.029C322.774,209.299,313.364,199.866,301.798,199.866z M301.798,226.924
	c-3.296,0-5.978-2.705-5.978-6.029s2.682-6.029,5.978-6.029s5.977,2.705,5.977,6.029
	C307.774,224.219,305.094,226.924,301.798,226.924z"/>
<path d="M295.767,293.12c0-4.142-3.357-7.5-7.5-7.5h-64.535c-4.142,0-7.5,3.358-7.5,7.5s3.358,7.5,7.5,7.5h64.535
	C292.409,300.62,295.767,297.262,295.767,293.12z"/>
<path d="M275.491,191.502c0.515,0,1.037-0.053,1.56-0.164l52-11c4.053-0.857,6.643-4.837,5.786-8.89
	c-0.858-4.053-4.846-6.645-8.89-5.785l-52,11c-4.053,0.857-6.644,4.837-5.786,8.89C268.908,189.082,272.022,191.502,275.491,191.502
	z"/>
<path d="M236.506,191.502c3.469,0,6.584-2.42,7.33-5.949c0.857-4.053-1.733-8.033-5.785-8.89l-52-11
	c-4.054-0.86-8.033,1.733-8.89,5.785c-0.857,4.053,1.733,8.033,5.785,8.89l52,11C235.47,191.448,235.992,191.502,236.506,191.502z"
	/>
<g>
</g>
<g>
</g>
<g>
</g>
<g>
</g>
<g>
</g>
<g>
</g>
<g>
</g>
<g>
</g>
<g>
</g>
<g>
</g>
<g>
</g>
<g>
</g>
<g>
</g>
<g>
</g>
<g>
</g>
</svg>
