<svg id="Capa_1" enable-background="new 0 0 512 512" height="512" viewBox="0 0 512 512" width="512" xmlns="http://www.w3.org/2000/svg"><g><path d="m15.05 307.74c-4.17 0-7.551 3.381-7.551 7.551v26.141c0 4.17 3.381 7.551 7.551 7.551h19.094c8.933 0 16.962 5.45 20.26 13.752l16.062 40.431c5.735 14.437 19.698 23.915 35.233 23.915h327.306c19.66 0 37.647-11.067 46.508-28.617l22.952-45.453c1.337-2.649 2.034-5.574 2.034-8.541v-36.73z" fill="#8c818f"/><path d="m474.5 307.74v36.729c0 2.967-.697 5.893-2.034 8.541l-22.951 45.453c-8.862 17.55-26.848 28.617-46.509 28.617h30c19.66 0 37.647-11.067 46.509-28.617l22.951-45.453c1.337-2.648 2.034-5.574 2.034-8.541v-36.729z" fill="#766d78"/><path d="m482.173 307.74h-136.089v-52.483c0-8.583 6.958-15.54 15.54-15.54h105.008c8.583 0 15.54 6.958 15.54 15.54v52.483z" fill="#e3e0e4"/><path d="m466.633 239.717h-30c8.582 0 15.54 6.958 15.54 15.54v52.483h30v-52.483c0-8.583-6.958-15.54-15.54-15.54z" fill="#c8c3ca"/><path d="m443.493 239.717h-59.798l8.272-125.591h43.253z" fill="#fbfbfb"/><path d="m438.087 157.647-2.867-43.521h-43.253l-2.866 43.521z" fill="#e27f86"/><path d="m386.133 202.692-2.438 37.025h59.798l-2.439-37.025z" fill="#e27f86"/><path d="m438.685 114.126h-51.108c-2.656 0-4.808-2.153-4.808-4.808v-19.589c0-2.656 2.153-4.808 4.808-4.808h51.108c2.656 0 4.808 2.153 4.808 4.808v19.589c0 2.655-2.153 4.808-4.808 4.808z" fill="#fbfbfb"/><path d="m127.905 308.258h-97.405v-38.051c0-5.275 4.276-9.55 9.55-9.55h87.854v47.601z" fill="#80b6fc"/><path d="m127.905 304.058v-43.402h97.404v43.402" fill="#e27f86"/><path d="m317.801 308.258h-92.492v-47.602h82.942c5.275 0 9.55 4.276 9.55 9.55z" fill="#f7d958"/><path d="m176.607 260.656h-85.963v-38.051c0-5.274 4.276-9.55 9.55-9.55h76.413z" fill="#80b6fc"/><path d="m97.905 260.656h30v47.602h-30z" fill="#62a4fb"/><path d="m195.309 260.656h30v43.402h-30z" fill="#df646e"/><path d="m146.607 213.055h30v47.602h-30z" fill="#62a4fb"/><path d="m262.57 260.656h-85.963v-47.602h76.413c5.275 0 9.55 4.276 9.55 9.55z" fill="#f8e076"/><path d="m214.418 213.055h-85.963v-38.602c0-5.275 4.276-9.55 9.55-9.55h66.862c5.275 0 9.55 4.276 9.55 9.55v38.602z" fill="#e27f86"/><path d="m308.25 260.656h-30c5.275 0 9.55 4.276 9.55 9.55v38.052h30v-38.052c.001-5.274-4.275-9.55-9.55-9.55z" fill="#f3c625"/><path d="m253.019 213.055h-30c5.274 0 9.55 4.276 9.55 9.55v38.051h30v-38.051c.001-5.274-4.275-9.55-9.55-9.55z" fill="#f5d339"/><path d="m204.867 164.903h-30c5.275 0 9.55 4.276 9.55 9.55v38.602h30v-38.602c.001-5.275-4.275-9.55-9.55-9.55z" fill="#df646e"/><g fill="#e3e0e4"><circle cx="211.846" cy="367.41" r="19.072"/><circle cx="283.598" cy="367.41" r="19.072"/><circle cx="355.349" cy="367.41" r="19.072"/><circle cx="427.1" cy="367.41" r="19.072"/></g><path d="m504.5 300.24h-14.827v-44.982c0-12.705-10.336-23.041-23.04-23.041h-16.118l-7.341-111.45c4.571-1.799 7.819-6.247 7.819-11.449v-19.589c0-6.787-5.521-12.309-12.309-12.309h-51.108c-6.787 0-12.309 5.521-12.309 12.309v19.589c0 5.54 3.68 10.234 8.724 11.773l-7.32 111.126h-15.048c-12.704 0-23.04 10.336-23.04 23.041v44.982h-13.283v-30.033c0-9.401-7.648-17.05-17.05-17.05h-38.182v-30.551c0-9.402-7.648-17.051-17.05-17.051h-31.102v-31.102c0-9.401-7.649-17.05-17.051-17.05h-3.431c-4.143 0-7.5 3.358-7.5 7.5s3.357 7.5 7.5 7.5h3.431c1.131 0 2.051.92 2.051 2.05v31.102h-70.963v-31.102c0-1.13.92-2.05 2.05-2.05h33.432c4.143 0 7.5-3.358 7.5-7.5s-3.357-7.5-7.5-7.5h-33.432c-9.401 0-17.05 7.649-17.05 17.05v31.102h-20.761c-9.401 0-17.051 7.649-17.051 17.051v30.551h-43.09c-9.401 0-17.051 7.649-17.051 17.05v30.033h-7.949c-8.299 0-15.051 6.751-15.051 15.05v26.141c0 8.299 6.752 15.051 15.051 15.051h19.094c5.896 0 11.114 3.541 13.291 9.021l16.062 40.431c6.912 17.402 23.478 28.646 42.202 28.646h187.318c4.143 0 7.5-3.358 7.5-7.5s-3.357-7.5-7.5-7.5h-187.319c-12.539 0-23.633-7.53-28.263-19.184l-16.061-40.431c-4.461-11.228-15.149-18.483-27.231-18.483l-19.144-.051.051-26.191h481.949v29.229c0 1.783-.425 3.568-1.228 5.161l-22.953 45.453c-7.63 15.111-22.885 24.497-39.813 24.497h-109.988c-4.143 0-7.5 3.358-7.5 7.5s3.357 7.5 7.5 7.5h109.988c22.621 0 43.007-12.544 53.203-32.736l22.952-45.454c1.857-3.679 2.839-7.802 2.839-11.921v-36.729c0-4.143-3.357-7.5-7.5-7.5zm-76.301-178.614 1.879 28.521h-32.968l1.879-28.521zm-32.077 43.521h34.943l1.979 30.045h-38.901zm-5.853-72.727h45.725v14.206h-45.725zm2.886 117.772h40.877l1.451 22.024h-43.779zm-82.854 60.015v30.033h-77.492v-32.083h75.442c1.13-.001 2.05.919 2.05 2.05zm-174.897-2.051h41.202 41.202v32.083h-82.404zm117.616-47.602c1.13 0 2.05.92 2.05 2.051v30.551h-70.963v-32.602zm-154.876 2.051c0-1.131.92-2.051 2.051-2.051h68.912v32.602h-70.963zm-60.144 47.602c0-1.13.92-2.05 2.051-2.05h80.354v32.083h-82.405zm315.584 30.033v-44.982c0-4.434 3.606-8.041 8.04-8.041h105.009c4.434 0 8.04 3.607 8.04 8.041v44.982z"/><path d="m185.275 367.409c0 14.652 11.92 26.572 26.571 26.572s26.571-11.92 26.571-26.572c0-14.651-11.92-26.571-26.571-26.571s-26.571 11.92-26.571 26.571zm38.143 0c0 6.381-5.191 11.572-11.571 11.572-6.381 0-11.571-5.191-11.571-11.572 0-6.38 5.19-11.571 11.571-11.571 6.38 0 11.571 5.191 11.571 11.571z"/><path d="m283.598 340.838c-14.651 0-26.571 11.92-26.571 26.571 0 14.652 11.92 26.572 26.571 26.572s26.571-11.92 26.571-26.572c0-14.651-11.92-26.571-26.571-26.571zm0 38.143c-6.381 0-11.571-5.191-11.571-11.572 0-6.38 5.19-11.571 11.571-11.571s11.571 5.191 11.571 11.571c0 6.381-5.191 11.572-11.571 11.572z"/><path d="m381.921 367.409c0-14.651-11.92-26.571-26.572-26.571-14.651 0-26.571 11.92-26.571 26.571 0 14.652 11.92 26.572 26.571 26.572 14.652 0 26.572-11.92 26.572-26.572zm-38.144 0c0-6.38 5.19-11.571 11.571-11.571s11.572 5.191 11.572 11.571c0 6.381-5.191 11.572-11.572 11.572-6.38 0-11.571-5.191-11.571-11.572z"/><path d="m453.672 367.409c0-14.651-11.92-26.571-26.571-26.571-14.652 0-26.572 11.92-26.572 26.571 0 14.652 11.92 26.572 26.572 26.572 14.651 0 26.571-11.92 26.571-26.572zm-38.144 0c0-6.38 5.191-11.571 11.572-11.571s11.571 5.191 11.571 11.571c0 6.381-5.19 11.572-11.571 11.572-6.38 0-11.572-5.191-11.572-11.572z"/></g></svg>