<svg id="Capa_1" enable-background="new 0 0 512 512" height="512" viewBox="0 0 512 512" width="512" xmlns="http://www.w3.org/2000/svg"><g><path d="m195.685 125.784h-151.058l7.455-26.55c1.505-5.359 6.391-9.063 11.958-9.063h112.231c5.566 0 10.453 3.703 11.958 9.063z" fill="#a29aa5"/><path d="m504.5 341.997h-497v-195.265c0-11.57 9.379-20.949 20.949-20.949h455.103c11.57 0 20.949 9.379 20.949 20.949v195.265z" fill="#80b6fc"/><path d="m483.551 125.784h-30c11.57 0 20.949 9.379 20.949 20.949v195.265h30v-195.266c0-11.569-9.379-20.948-20.949-20.948z" fill="#62a4fb"/><path d="m504.5 162.73v-15.998c0-11.57-9.379-20.949-20.949-20.949h-455.103c-11.569 0-20.948 9.379-20.948 20.949v15.998z" fill="#5392f9"/><path d="m497.712 372.675h-483.424c-3.749 0-6.788-3.039-6.788-6.788v-23.89h497v23.89c0 3.749-3.039 6.788-6.788 6.788z" fill="#c8c3ca"/><ellipse cx="355.397" cy="372.675" fill="#8c818f" rx="49.449" ry="49.153"/><ellipse cx="355.397" cy="372.675" fill="#c8c3ca" rx="17.349" ry="17.245"/><ellipse cx="118.996" cy="372.675" fill="#8c818f" rx="49.449" ry="49.153"/><ellipse cx="118.996" cy="372.675" fill="#c8c3ca" rx="17.349" ry="17.245"/><path d="m278.329 341.997h-70.017v-133.798c0-7.061 5.724-12.786 12.786-12.786h44.445c7.061 0 12.786 5.724 12.786 12.786z" fill="#4981f8"/><g fill="#fbfbfb"><path d="m504.5 283.705v-88.292h-81.544c-10.59 0-19.174 8.585-19.174 19.174v49.202c0 11 8.917 19.917 19.917 19.917h80.801z"/><path d="m321.065 279.167h36.503c4.601 0 8.331-3.73 8.331-8.331v-67.091c0-4.601-3.73-8.331-8.331-8.331h-36.503c-4.601 0-8.331 3.73-8.331 8.331v67.091c0 4.601 3.73 8.331 8.331 8.331z"/><path d="m127.353 279.167h36.503c4.601 0 8.331-3.73 8.331-8.331v-67.091c0-4.601-3.73-8.331-8.331-8.331h-36.503c-4.601 0-8.331 3.73-8.331 8.331v67.091c-.001 4.601 3.729 8.331 8.331 8.331z"/><path d="m43.111 279.167h36.503c4.601 0 8.331-3.73 8.331-8.331v-67.091c0-4.601-3.73-8.331-8.331-8.331h-36.503c-4.601 0-8.331 3.73-8.331 8.331v67.091c-.001 4.601 3.729 8.331 8.331 8.331z"/></g><path d="m188.23 99.234c-1.505-5.359-6.392-9.063-11.958-9.063h-30c5.566 0 10.453 3.703 11.958 9.063l7.455 26.55h30z" fill="#8c818f"/><path d="m483.551 125.784h-30c11.57 0 20.949 9.379 20.949 20.949v15.998h30v-15.998c0-11.57-9.379-20.949-20.949-20.949z" fill="#4981f8"/><path d="m355.397 323.522c-5.23 0-10.268.813-15 2.309 19.975 6.315 34.449 24.897 34.449 46.844s-14.474 40.529-34.449 46.844c4.732 1.496 9.77 2.309 15 2.309 27.31 0 49.449-22.007 49.449-49.153-.001-27.146-22.14-49.153-49.449-49.153z" fill="#766d78"/><path d="m118.996 323.522c-5.23 0-10.268.813-15 2.309 19.975 6.315 34.449 24.897 34.449 46.844s-14.474 40.529-34.449 46.844c4.732 1.496 9.77 2.309 15 2.309 27.31 0 49.449-22.007 49.449-49.153-.001-27.146-22.14-49.153-49.449-49.153z" fill="#766d78"/><path d="m474.5 195.413h30v88.293h-30z" fill="#e7e7e7"/><path d="m357.568 195.413h-30c4.601 0 8.331 3.73 8.331 8.331v67.091c0 4.601-3.73 8.332-8.331 8.332h30c4.601 0 8.331-3.73 8.331-8.332v-67.091c0-4.601-3.73-8.331-8.331-8.331z" fill="#e7e7e7"/><path d="m163.855 195.413h-30c4.601 0 8.331 3.73 8.331 8.331v67.091c0 4.601-3.73 8.332-8.331 8.332h30c4.601 0 8.331-3.73 8.331-8.332v-67.091c.001-4.601-3.73-8.331-8.331-8.331z" fill="#e7e7e7"/><path d="m79.613 195.413h-30c4.601 0 8.331 3.73 8.331 8.331v67.091c0 4.601-3.73 8.332-8.331 8.332h30c4.601 0 8.331-3.73 8.331-8.332v-67.091c.001-4.601-3.729-8.331-8.331-8.331z" fill="#e7e7e7"/><path d="m483.551 118.284h-167.275c-4.142 0-7.5 3.358-7.5 7.5s3.358 7.5 7.5 7.5h167.275c7.415 0 13.449 6.033 13.449 13.449v8.498h-482v-8.498c0-7.415 6.033-13.449 13.449-13.449h257.827c4.142 0 7.5-3.358 7.5-7.5s-3.358-7.5-7.5-7.5h-84.907l-5.918-21.078c-2.403-8.558-10.29-14.535-19.178-14.535h-112.233c-8.889 0-16.776 5.977-19.179 14.535l-5.919 21.078h-10.493c-15.687 0-28.449 12.762-28.449 28.449v219.155c0 7.878 6.409 14.287 14.288 14.287h48.274c3.702 27.705 27.59 49.154 56.434 49.154 28.845 0 52.733-21.449 56.435-49.154h48.443c4.142 0 7.5-3.358 7.5-7.5s-3.358-7.5-7.5-7.5h-48.444c-.737-5.515-2.272-10.779-4.49-15.678h132.513c-2.22 4.905-3.757 10.176-4.493 15.699-.138-.008-.273-.021-.413-.021h-44.674c-4.142 0-7.5 3.358-7.5 7.5s3.358 7.5 7.5 7.5h44.674c.139 0 .275-.013.412-.021 3.693 27.715 27.585 49.174 56.437 49.174 28.845 0 52.733-21.449 56.434-49.154h85.882c7.878 0 14.288-6.409 14.288-14.287v-219.154c0-15.687-12.762-28.449-28.449-28.449zm-424.248-17.023c.594-2.114 2.542-3.59 4.737-3.59h112.232c2.195 0 4.143 1.476 4.737 3.59l4.78 17.023h-131.266zm437.697 174.944h-73.302c-6.847 0-12.417-5.57-12.417-12.417v-49.202c0-6.437 5.237-11.674 11.674-11.674h74.045zm-85.719 12.015c3.731 1.904 7.949 2.985 12.417 2.985h73.302v43.292h-85.719zm-396.281 61.277h52.052c-2.218 4.899-3.753 10.163-4.49 15.678h-47.562zm103.996 64.832c-23.13 0-41.948-18.686-41.948-41.653 0-22.968 18.818-41.654 41.948-41.654s41.949 18.686 41.949 41.654c-.001 22.967-18.819 41.653-41.949 41.653zm151.833-149.38h-19.936c-1.905 0-3.649-1.042-4.551-2.72l-2.781-5.175c-3.52-6.55-10.327-10.619-17.764-10.619h-9.985v-38.236c0-2.915 2.371-5.286 5.286-5.286h44.445c2.915 0 5.286 2.371 5.286 5.286zm-55.016 69.548v-73.063h9.985c1.905 0 3.649 1.043 4.551 2.72l2.781 5.175c3.52 6.55 10.327 10.619 17.763 10.619h19.936v54.548h-55.016zm96.921 0h-26.905v-126.298c0-11.186-9.1-20.286-20.286-20.286h-44.445c-11.186 0-20.286 9.1-20.286 20.286v126.299h-39.781c-10.421-11.346-25.406-18.476-42.036-18.476s-31.615 7.13-42.036 18.476h-61.959v-164.268h482v17.683h-74.044c-14.708 0-26.674 11.966-26.674 26.674v49.202 69.507c-10.359-10.641-24.854-17.274-40.885-17.274-16.645 0-31.642 7.142-42.065 18.506-.198-.016-.396-.031-.598-.031zm42.662 79.832c-23.13 0-41.948-18.686-41.948-41.653 0-22.968 18.818-41.654 41.948-41.654s41.949 18.686 41.949 41.654c0 22.967-18.818 41.653-41.949 41.653zm141.604-49.154h-85.169c-.737-5.515-2.272-10.779-4.49-15.678h89.659z"/><path d="m355.396 347.93c-13.702 0-24.849 11.101-24.849 24.746s11.147 24.745 24.849 24.745 24.849-11.101 24.849-24.745-11.147-24.746-24.849-24.746zm0 34.491c-5.431 0-9.849-4.372-9.849-9.745s4.418-9.746 9.849-9.746 9.849 4.372 9.849 9.746c.001 5.373-4.418 9.745-9.849 9.745z"/><path d="m118.996 347.93c-13.702 0-24.849 11.101-24.849 24.746s11.147 24.745 24.849 24.745 24.849-11.101 24.849-24.745-11.148-24.746-24.849-24.746zm0 34.491c-5.431 0-9.849-4.372-9.849-9.745s4.418-9.746 9.849-9.746 9.849 4.372 9.849 9.746c0 5.373-4.419 9.745-9.849 9.745z"/><path d="m357.568 286.667c8.729 0 15.831-7.102 15.831-15.832v-67.091c0-8.729-7.102-15.832-15.831-15.832h-36.503c-8.729 0-15.832 7.102-15.832 15.832v67.091c0 8.73 7.102 15.832 15.832 15.832zm-37.334-15.832v-67.091c0-.458.373-.832.832-.832h36.503c.458 0 .831.373.831.832v67.091c0 .459-.373.832-.831.832h-36.503c-.459 0-.832-.373-.832-.832z"/><path d="m163.855 187.913h-36.503c-8.729 0-15.831 7.102-15.831 15.832v67.091c0 8.73 7.102 15.832 15.831 15.832h36.503c8.73 0 15.831-7.102 15.831-15.832v-67.091c0-8.73-7.101-15.832-15.831-15.832zm.831 82.922c0 .459-.373.832-.831.832h-36.503c-.458 0-.831-.373-.831-.832v-67.091c0-.458.373-.832.831-.832h36.503c.458 0 .831.373.831.832z"/><path d="m79.613 187.913h-36.502c-8.729 0-15.832 7.102-15.832 15.832v67.091c0 8.73 7.102 15.832 15.832 15.832h36.502c8.729 0 15.832-7.102 15.832-15.832v-67.091c0-8.73-7.102-15.832-15.832-15.832zm.832 82.922c0 .459-.373.832-.832.832h-36.502c-.458 0-.832-.373-.832-.832v-67.091c0-.458.373-.832.832-.832h36.502c.459 0 .832.373.832.832z"/><path d="m443.863 300.521h-11.674c-4.142 0-7.5 3.358-7.5 7.5s3.358 7.5 7.5 7.5h11.674c4.142 0 7.5-3.358 7.5-7.5s-3.358-7.5-7.5-7.5z"/></g></svg>