<svg id="Capa_1" enable-background="new 0 0 512 512" height="512" viewBox="0 0 512 512" width="512" xmlns="http://www.w3.org/2000/svg"><g><path d="m504.5 306.955c0-31.664-4.292-63.181-12.759-93.691l-17.157-61.827c-3.992-14.386-17.089-24.344-32.02-24.344h-414.326c-11.453 0-20.738 9.285-20.738 20.738v193.303h497z" fill="#fbfbfb"/><path d="m491.741 213.263-17.157-61.827c-3.992-14.386-17.089-24.344-32.019-24.344h-30c14.93 0 28.027 9.958 32.019 24.344l17.157 61.827c8.467 30.51 12.759 62.028 12.759 93.691v34.179h30v-34.179c0-31.663-4.292-63.18-12.759-93.691z" fill="#e7e7e7"/><path d="m470.038 331.478h34.462v-24.523c0-25.158-2.72-50.221-8.08-74.762-25.03 21.831-38.511 58.842-31.76 91.015 1.673 2.841 3.477 5.591 5.378 8.27z" fill="#8c818f"/><path d="m426.09 288.693h-34.979v-92.671h7.664c15.086 0 27.315 12.23 27.315 27.315z" fill="#c8c3ca"/><path d="m504.5 327.131-99.92-61.564c-5.694-3.508-12.25-5.366-18.937-5.366h-378.143v80.932h497z" fill="#e27f86"/><path d="m478.266 164.705-3.682-13.269c-3.992-14.386-17.089-24.344-32.02-24.344h-414.326c-11.453 0-20.738 9.285-20.738 20.738v16.875z" fill="#e27f86"/><path d="m504.5 341.133h-497v23.65c0 3.711 3.008 6.719 6.719 6.719h478.028c6.767 0 12.253-5.486 12.253-12.253z" fill="#c8c3ca"/><ellipse cx="379.62" cy="371.503" fill="#8c818f" rx="48.952" ry="48.66"/><ellipse cx="379.62" cy="371.503" fill="#c8c3ca" rx="17.175" ry="17.072"/><ellipse cx="117.875" cy="371.503" fill="#8c818f" rx="48.952" ry="48.66"/><ellipse cx="117.875" cy="371.503" fill="#c8c3ca" rx="17.175" ry="17.072"/><path d="m432.481 127.092h-149.54l7.38-26.284c1.49-5.305 6.327-8.971 11.838-8.971h111.104c5.51 0 10.348 3.666 11.838 8.971z" fill="#a29aa5"/><path d="m472.015 151.931c-3.992-14.386-17.089-24.344-32.019-24.344h-21.726c12.471 2.169 22.84 11.33 26.314 23.849l3.682 13.269h-443.334v.495h470.766z" fill="#df646e"/><path d="m379.62 322.844c-5.234 0-10.272.825-15 2.337 19.696 6.297 33.952 24.651 33.952 46.323 0 21.671-14.256 40.025-33.952 46.323 4.728 1.512 9.766 2.337 15 2.337 27.035 0 48.952-21.786 48.952-48.66 0-26.875-21.916-48.66-48.952-48.66z" fill="#766d78"/><path d="m117.875 322.844c-5.234 0-10.272.825-15 2.337 19.696 6.297 33.952 24.651 33.952 46.323 0 21.671-14.256 40.025-33.952 46.323 4.728 1.512 9.766 2.337 15 2.337 27.035 0 48.952-21.786 48.952-48.66 0-26.875-21.916-48.66-48.952-48.66z" fill="#766d78"/><path d="m425.1 100.809c-1.49-5.305-6.327-8.971-11.838-8.971h-30c5.51 0 10.348 3.666 11.838 8.971l7.38 26.284h30z" fill="#8c818f"/><path d="m498.968 211.258-17.158-61.828c-4.875-17.568-21.014-29.838-39.246-29.838h-4.4l-5.844-20.81c-2.388-8.505-10.225-14.445-19.059-14.445h-111.102c-8.833 0-16.67 5.939-19.058 14.444l-5.844 20.811h-56.953c-4.142 0-7.5 3.358-7.5 7.5s3.358 7.5 7.5 7.5h222.261c11.518 0 21.712 7.751 24.792 18.849l1.045 3.764h-453.402v-9.375c0-7.3 5.939-13.238 13.238-13.238h162.066c4.142 0 7.5-3.358 7.5-7.5s-3.358-7.5-7.5-7.5h-162.066c-15.57 0-28.238 12.668-28.238 28.238v216.954c0 7.84 6.379 14.219 14.219 14.219h47.723c3.699 27.431 27.363 48.66 55.933 48.66s52.235-21.228 55.933-48.66h149.878c3.698 27.431 27.363 48.66 55.933 48.66s52.235-21.228 55.933-48.66h56.694c10.892 0 19.753-8.861 19.753-19.753v-52.295c.001-32.339-4.384-64.536-13.031-95.697zm-201.426-108.422c.579-2.06 2.477-3.499 4.617-3.499h111.104c2.14 0 4.038 1.438 4.617 3.499l4.705 16.755h-129.748zm123.887 230.973c-6.178-6.775-13.995-12.041-22.819-15.186v-47.596c1.317.606 98.39 60.293 98.39 60.293v2.314h-73.971c-.549 0-1.084.063-1.6.175zm-83.454-.175h-117.671c-4.142 0-7.5 3.358-7.5 7.5s3.358 7.5 7.5 7.5h107.777c-2.164 4.807-3.666 9.966-4.394 15.37h-149.878c-.729-5.403-2.23-10.563-4.394-15.37h20.889c4.142 0 7.5-3.358 7.5-7.5s-3.358-7.5-7.5-7.5h-29.098c-.527 0-1.04.055-1.536.159-10.335-11.326-25.244-18.449-41.795-18.449-16.472 0-31.317 7.058-41.646 18.29h-61.229v-65.932h368.512c.033 0 .066.003.099.003v47.795c-1.32-.092-2.647-.156-3.99-.156-16.473 0-31.317 7.057-41.646 18.29zm80.615-68.244-8.261-5.09c-3.686-2.271-7.625-4.046-11.719-5.312v-51.466h.439c10.775 0 19.541 8.766 19.541 19.541zm-34.98-12.686c-.033 0-.066-.002-.099-.002h-56.589v-80.497h56.688zm-71.687-.002h-64.108v-80.497h64.108zm-79.109 0h-64.108v-80.497h64.108zm-79.108 0h-64.108v-80.497h64.108zm-79.108 0h-59.598v-80.497h59.598zm422.402 54.253v6.746l-26.106-16.085c1.851-18.085 9.428-35.982 20.935-49.926 3.431 19.549 5.171 39.378 5.171 59.265zm-12.486-91.686c1.319 4.755 2.523 9.537 3.635 14.339-16.061 15.414-27.333 37.015-31.221 59.403l-23.338-14.38v-51.569c0-19.046-15.495-34.541-34.541-34.541h-.439v-16.316h73.953zm-469.514 133.365h51.336c-2.164 4.807-3.666 9.966-4.394 15.37h-46.942zm102.876 64.029c-22.857 0-41.452-18.464-41.452-41.16 0-22.695 18.595-41.16 41.452-41.16 22.856 0 41.452 18.464 41.452 41.16-.001 22.695-18.596 41.16-41.452 41.16zm261.744 0c-22.856 0-41.452-18.464-41.452-41.16 0-22.695 18.595-41.16 41.452-41.16s41.452 18.464 41.452 41.16c0 22.695-18.595 41.16-41.452 41.16zm117.38-53.413c0 2.621-2.132 4.753-4.753 4.753h-56.694c-.729-5.403-2.23-10.563-4.394-15.37h65.841z"/><path d="m379.62 346.931c-13.605 0-24.674 11.023-24.674 24.572s11.069 24.572 24.674 24.572c13.606 0 24.675-11.023 24.675-24.572s-11.069-24.572-24.675-24.572zm0 34.144c-5.335 0-9.674-4.294-9.674-9.572s4.34-9.572 9.674-9.572 9.675 4.294 9.675 9.572-4.34 9.572-9.675 9.572z"/><path d="m117.876 346.931c-13.606 0-24.675 11.023-24.675 24.572s11.069 24.572 24.675 24.572c13.605 0 24.674-11.023 24.674-24.572s-11.069-24.572-24.674-24.572zm0 34.144c-5.335 0-9.675-4.294-9.675-9.572s4.34-9.572 9.675-9.572c5.334 0 9.674 4.294 9.674 9.572s-4.34 9.572-9.674 9.572z"/></g></svg>