<?xml version="1.0" encoding="iso-8859-1"?>
<!-- Generator: Adobe Illustrator 19.0.0, SVG Export Plug-In . SVG Version: 6.00 Build 0)  -->
<svg version="1.1" id="Capa_1" xmlns="http://www.w3.org/2000/svg" xmlns:xlink="http://www.w3.org/1999/xlink" x="0px" y="0px"
	 viewBox="0 0 512 512" style="enable-background:new 0 0 512 512;" xml:space="preserve">
<path style="fill:#B2762F;" d="M341.878,361h-58.641v-32.534c-8.666,2.416-17.8,3.712-27.236,3.712s-18.569-1.296-27.235-3.711V361
	h-58.642c-16.541,0-30,13.458-30,30v108.5c0,2.761,2.238,5,5,5h221.754c2.762,0,5-2.239,5-5V391
	C371.878,374.458,358.419,361,341.878,361z"/>
<g>
	<path style="fill:#EF5050;" d="M160.985,298.875c5.907,0,10.884-4.01,12.384-9.447c-3.523-4.971-6.604-10.275-9.198-15.853
		c-1.021-0.262-2.084-0.416-3.186-0.416c-7.09,0-12.858,5.768-12.858,12.858S153.896,298.875,160.985,298.875z"/>
	<path style="fill:#EF5050;" d="M351.018,298.875c7.09,0,12.857-5.768,12.857-12.858s-5.768-12.858-12.857-12.858
		c-1.102,0-2.166,0.154-3.186,0.416c-2.594,5.578-5.675,10.882-9.198,15.853C340.133,294.865,345.11,298.875,351.018,298.875z"/>
	<path style="fill:#EF5050;" d="M351.018,319c-10.912,0-20.581-5.301-26.585-13.465c-11.574,10.626-25.629,18.592-41.195,22.931V361
		h58.641c16.541,0,30,13.458,30,30v18.618c6.671-1.518,11.693-7.505,11.693-14.618V291.318C381.034,307.013,367.429,319,351.018,319
		z"/>
	<path style="fill:#EF5050;" d="M140.124,391c0-16.542,13.459-30,30-30h58.642v-32.534c-15.567-4.339-29.621-12.305-41.195-22.931
		C181.566,313.699,171.896,319,160.985,319c-16.412,0-30.018-11.987-32.555-27.682V395c0,7.113,5.022,13.1,11.693,14.618V391
		H140.124z"/>
</g>
<path style="opacity:0.15;fill:#490089;enable-background:new    ;" d="M140.124,391c0-12.174,7.294-22.669,17.736-27.368v-44.783
	c-14.989-1.409-27.056-12.844-29.43-27.531V395c0,7.113,5.022,13.1,11.693,14.618L140.124,391L140.124,391z"/>
<path id="SVGCleanerId_0" style="fill:#693FBA;" d="M351.001,425h-58c-13.108,0-25.404,6.447-32.891,17.246
	c-0.935,1.348-2.47,2.151-4.109,2.151c-1.64,0-3.175-0.804-4.109-2.151C244.405,431.447,232.109,425,219.001,425h-58
	c-7.646,0-14.795,2.16-20.877,5.897V499.5c0,2.761,2.238,5,5,5h221.754c2.762,0,5-2.239,5-5v-68.603
	C365.796,427.16,358.648,425,351.001,425z"/>
<g>
	<path id="SVGCleanerId_0_1_" style="fill:#693FBA;" d="M351.001,425h-58c-13.108,0-25.404,6.447-32.891,17.246
		c-0.935,1.348-2.47,2.151-4.109,2.151c-1.64,0-3.175-0.804-4.109-2.151C244.405,431.447,232.109,425,219.001,425h-58
		c-7.646,0-14.795,2.16-20.877,5.897V499.5c0,2.761,2.238,5,5,5h221.754c2.762,0,5-2.239,5-5v-68.603
		C365.796,427.16,358.648,425,351.001,425z"/>
</g>
<g style="opacity:0.15;">
	<path style="fill:#3D0072;" d="M169.247,499.5V391c0-16.542,13.459-30,30-30h-29.123c-16.541,0-30,13.458-30,30v108.5
		c0,2.761,2.238,5,5,5h29.123C171.485,504.5,169.247,502.261,169.247,499.5z"/>
</g>
<g>
	<path style="fill:#B2762F;" d="M157.264,253.248c-1.614-7.173-2.482-14.629-2.482-22.29V194h-11.864
		c-13.06,0-23.646,10.587-23.646,23.646v25.701c0,10.301,6.589,19.059,15.781,22.3C140.369,258.888,148.267,254.259,157.264,253.248
		z"/>
	<path style="fill:#B2762F;" d="M369.086,194h-11.865v36.958c0,7.661-0.868,15.117-2.482,22.29
		c8.997,1.011,16.895,5.64,22.212,12.399c9.191-3.242,15.78-11.999,15.78-22.3v-25.701C392.73,204.587,382.145,194,369.086,194z"/>
</g>
<g>
	<path style="fill:#FFC502;" d="M173.369,289.428c-1.5,5.437-6.477,9.447-12.384,9.447c-7.09,0-12.858-5.768-12.858-12.858
		s5.768-12.858,12.858-12.858c1.102,0,2.165,0.154,3.186,0.416c-2.992-6.437-5.328-13.239-6.921-20.325
		c-16.458,1.855-29.249,15.814-29.249,32.767c0,18.216,14.767,32.983,32.984,32.983c10.911,0,20.581-5.301,26.585-13.465
		C182.29,300.688,177.524,295.29,173.369,289.428z"/>
	<path style="fill:#FFC502;" d="M354.753,253.25c-1.594,7.085-3.93,13.888-6.922,20.325c1.02-0.262,2.085-0.416,3.186-0.416
		c7.09,0,12.857,5.768,12.857,12.858s-5.768,12.858-12.857,12.858c-5.907,0-10.885-4.01-12.385-9.447
		c-4.155,5.862-8.921,11.26-14.2,16.108c6.004,8.163,15.673,13.465,26.585,13.465c18.217-0.001,32.984-14.768,32.984-32.984
		C384.001,269.064,371.21,255.105,354.753,253.25z"/>
</g>
<path style="fill:#D19546;" d="M154.781,192.161v38.797c0,55.902,45.318,101.22,101.22,101.22s101.22-45.317,101.22-101.22v-38.797
	L154.781,192.161L154.781,192.161z"/>
<rect id="SVGCleanerId_1" x="128.431" y="153.84" style="fill:#046699;" width="255.14" height="40.16"/>
<rect id="SVGCleanerId_2" x="128.431" y="153.84" style="opacity:0.15;fill:#490089;enable-background:new    ;" width="44.43" height="40.16"/>
<g style="opacity:0.15;">
	<path style="fill:#330068;" d="M183.562,230.958v-38.797h-28.78v38.797c0,55.902,45.318,101.22,101.22,101.22
		c4.886,0,9.69-0.353,14.391-1.023C221.307,324.168,183.562,281.974,183.562,230.958z"/>
</g>
<ellipse style="fill:#775436;" cx="200.521" cy="231.47" rx="13.477" ry="13.529"/>
<g>
	<rect id="SVGCleanerId_1_1_" x="128.431" y="153.84" style="fill:#046699;" width="255.14" height="40.16"/>
</g>
<g>
	
		<rect id="SVGCleanerId_2_1_" x="128.431" y="153.84" style="opacity:0.15;fill:#490089;enable-background:new    ;" width="44.43" height="40.16"/>
</g>
<path style="fill:#203A74;" d="M81.024,153.839c-2.762,0-5-2.239-5-5v-21.66c0-2.671,2.101-4.871,4.769-4.995
	c41.827-1.936,63.885-30.072,85.216-57.283C188.134,36.678,211.007,7.5,256.001,7.5s67.867,29.178,89.988,57.396
	c21.335,27.216,43.393,55.353,85.22,57.288c2.668,0.123,4.769,2.323,4.769,4.995v21.66c0,2.761-2.238,5-5,5L81.024,153.839
	L81.024,153.839z"/>
<path style="opacity:0.15;fill:#040007;enable-background:new    ;" d="M96.001,140.679c0-2.671,2.101-4.871,4.769-4.995
	c41.827-1.936,63.885-30.072,85.216-57.283C208.11,50.178,230.983,21,275.978,21c5.152,0,10.005,0.396,14.608,1.117
	c6.346,0.294,12.24,1.182,17.744,2.578C294.468,14.389,277.846,7.5,256.001,7.5c-44.994,0-67.867,29.178-89.992,57.401
	c-21.331,27.21-43.389,55.347-85.216,57.283c-2.668,0.123-4.769,2.323-4.769,4.995v21.66c0,2.761,2.238,5,5,5h14.977V140.679z"/>
<path style="fill:#203A74;" d="M302.821,258c-18.439,0-33.439-15-33.439-33.439v-1.967c0-3.621,2.935-6.557,6.557-6.557h53.765
	c3.621,0,6.557,2.936,6.557,6.557v1.967C336.261,243,321.26,258,302.821,258z"/>
<g style="opacity:0.15;">
	<path style="fill:#3D0072;" d="M293.001,224.561v-1.967c0-3.621,2.935-6.557,6.557-6.557H275.94c-3.622,0-6.557,2.936-6.557,6.557
		v1.967c0,18.439,15,33.439,33.439,33.439c4.156,0,8.135-0.768,11.809-2.16C302.004,251.057,293.001,238.843,293.001,224.561z"/>
</g>
<g>
	<circle style="fill:#FFFFFF;" cx="306.881" cy="73.844" r="9.802"/>
	<circle style="fill:#FFFFFF;" cx="205.121" cy="121.3" r="9.803"/>
	<circle style="fill:#FFFFFF;" cx="205.121" cy="73.844" r="9.802"/>
	<circle style="fill:#FFFFFF;" cx="306.881" cy="121.3" r="9.803"/>
	<path style="fill:#FFFFFF;" d="M258.229,63.323h-4.455c-14.765,0-26.734,11.969-26.734,26.734v4.456
		c0,9.744,5.215,18.267,13.003,22.94c0.207,7.965,6.713,14.363,14.73,14.363h2.457c8.016,0,14.524-6.398,14.731-14.363
		c7.788-4.673,13.003-13.196,13.003-22.94v-4.456C284.963,75.293,272.993,63.323,258.229,63.323z"/>
</g>
<circle style="fill:#FFC502;" cx="256.001" cy="396" r="15.637"/>
<path d="M256.144,273.417h8.735c4.143,0,7.5-3.358,7.5-7.5s-3.357-7.5-7.5-7.5h-8.735c-0.298,0-1.235-0.914-1.235-2.5V231
	c0-4.142-3.357-7.5-7.5-7.5s-7.5,3.358-7.5,7.5v24.917C239.908,265.566,247.191,273.417,256.144,273.417z"/>
<path d="M200.525,252.5c11.566,0,20.976-9.434,20.976-21.029c0-11.595-9.409-21.029-20.976-21.029s-20.977,9.434-20.977,21.029
	S188.958,252.5,200.525,252.5z M200.525,225.442c3.295,0,5.976,2.705,5.976,6.029c0,3.325-2.681,6.029-5.976,6.029
	c-3.296,0-5.977-2.705-5.977-6.029C194.548,228.146,197.23,225.442,200.525,225.442z"/>
<path d="M239.5,302.5h35.29c4.143,0,7.5-3.358,7.5-7.5s-3.357-7.5-7.5-7.5H239.5c-4.143,0-7.5,3.358-7.5,7.5
	S235.357,302.5,239.5,302.5z"/>
<path d="M431.556,114.692c-38.394-1.776-58.44-27.349-79.665-54.425C329.745,32.018,304.645,0,256.001,0
	s-73.746,32.021-95.895,60.274c-21.222,27.071-41.268,52.641-79.66,54.417c-6.685,0.31-11.922,5.794-11.922,12.487v21.66
	c0,6.893,5.607,12.5,12.5,12.5h39.906v34.299c-5.647,5.639-9.159,13.414-9.159,22.007v25.701c0,8.592,3.513,16.367,9.159,22.006
	v14.787c-0.28,1.919-0.43,3.881-0.43,5.877c0,1.991,0.15,3.947,0.43,5.861V395c0,8.492,4.73,15.895,11.693,19.724V499.5
	c0,6.893,5.607,12.5,12.5,12.5h221.754c6.892,0,12.5-5.607,12.5-12.5v-84.776c6.963-3.829,11.693-11.232,11.693-19.724v-27
	c0-4.142-3.357-7.5-7.5-7.5s-7.5,3.358-7.5,7.5v7.633c-5.881-13.034-18.99-22.133-34.193-22.133h-51.141v-19.513
	c12.102-4.091,23.25-10.262,33.029-18.079c7.199,6.57,16.761,10.592,27.251,10.592c9.455,0,18.155-3.267,25.054-8.719V329
	c0,4.142,3.357,7.5,7.5,7.5s7.5-3.358,7.5-7.5v-37.122c0.279-1.914,0.43-3.871,0.43-5.861c0-1.997-0.149-3.958-0.43-5.878v-14.786
	c5.646-5.639,9.159-13.414,9.159-22.006v-25.701c0-8.593-3.512-16.369-9.159-22.007V161.34h39.906c6.893,0,12.5-5.607,12.5-12.5
	v-21.66C443.478,120.486,438.241,115.002,431.556,114.692z M206.167,201.5l55.716,21.319v1.742
	c0,22.574,18.365,40.939,40.939,40.939c12.704,0,24.075-5.817,31.59-14.927l12.121,4.638
	c-10.715,39.958-47.238,69.467-90.531,69.467c-51.678,0-93.72-42.042-93.72-93.72V201.5H206.167z M328.761,224.561
	c0,14.303-11.637,25.939-25.939,25.939c-14.303,0-25.939-11.636-25.939-25.939v-1.024h51.878V224.561z M385.23,217.646v25.701
	c0,5.361-2.634,10.109-6.669,13.044c-4.278-3.977-9.414-7.045-15.098-8.885c0.507-3.305,0.856-6.66,1.058-10.055h5.49
	c4.143,0,7.5-3.358,7.5-7.5s-3.357-7.5-7.5-7.5h-5.291V201.5h4.365C377.988,201.5,385.23,208.743,385.23,217.646z M356.375,286.017
	c0,2.955-2.403,5.358-5.357,5.358c-1.433,0-2.729-0.573-3.691-1.492c1.878-2.9,3.62-5.895,5.22-8.975
	C354.753,281.571,356.375,283.597,356.375,286.017z M159.456,280.908c1.6,3.08,3.342,6.075,5.22,8.975
	c-0.962,0.919-2.258,1.492-3.69,1.492c-2.955,0-5.358-2.403-5.358-5.358C155.627,283.597,157.249,281.571,159.456,280.908z
	 M147.281,222.451h-5.291c-4.143,0-7.5,3.358-7.5,7.5s3.357,7.5,7.5,7.5h5.49c0.201,3.395,0.551,6.75,1.058,10.055
	c-5.684,1.84-10.819,4.907-15.098,8.885c-4.035-2.935-6.669-7.683-6.669-13.044v-25.701c0-8.903,7.243-16.146,16.146-16.146h4.364
	V222.451z M135.931,281.371c1.627-8.79,7.778-16.006,15.941-19.142c0.496,1.647,1.029,3.277,1.6,4.89
	c-7.514,2.997-12.845,10.327-12.845,18.897c0,11.226,9.133,20.358,20.358,20.358c4.804,0,9.213-1.682,12.694-4.479
	c1.12,1.298,2.273,2.57,3.452,3.814c-4.4,3.614-10.023,5.79-16.146,5.79c-12.47,0-22.869-9.004-25.055-20.851v-9.277H135.931z
	 M135.931,375.633V317.78c6.898,5.453,15.6,8.72,25.055,8.72c10.49,0,20.051-4.022,27.25-10.592
	c9.779,7.817,20.929,13.989,33.03,18.079V353.5h-51.142C154.921,353.5,141.812,362.599,135.931,375.633z M248.501,485.974
	l-11.436-4.159c-3.896-1.415-8.196,0.594-9.612,4.485c-1.415,3.893,0.593,8.196,4.485,9.611l2.117,0.77L233.18,497h-85.556v-61.599
	c4.187-1.899,8.74-2.901,13.377-2.901h58c10.65,0,20.642,5.241,26.727,14.02c0.616,0.888,1.342,1.675,2.144,2.362l-10.808-3.93
	c-3.896-1.416-8.196,0.594-9.612,4.485c-1.415,3.893,0.593,8.196,4.485,9.611l2.117,0.77l-2.117,0.77
	c-3.893,1.415-5.9,5.719-4.485,9.611c1.108,3.047,3.985,4.939,7.05,4.939c0.851,0,1.716-0.146,2.563-0.454l11.436-4.159
	L248.501,485.974L248.501,485.974z M364.378,391v28.431c-4.322-1.271-8.822-1.931-13.377-1.931c-4.143,0-7.5,3.358-7.5,7.5
	s3.357,7.5,7.5,7.5c4.637,0,9.19,1.002,13.377,2.901V497h-85.556l-0.875-0.318l2.117-0.77c3.893-1.415,5.9-5.719,4.485-9.611
	c-1.416-3.893-5.716-5.902-9.612-4.485l-11.436,4.159v-15.447l11.436,4.159c0.847,0.308,1.712,0.454,2.563,0.454
	c3.065,0,5.941-1.893,7.05-4.939c1.415-3.893-0.593-8.196-4.485-9.611l-2.117-0.77l2.117-0.77c3.893-1.415,5.9-5.719,4.485-9.611
	c-1.416-3.893-5.716-5.903-9.612-4.485l-10.808,3.93c0.803-0.688,1.528-1.474,2.145-2.363c6.084-8.781,16.076-14.022,26.726-14.022
	h16c4.143,0,7.5-3.358,7.5-7.5s-3.357-7.5-7.5-7.5h-16c-14.422,0-28.013,6.568-37,17.726c-8.988-11.158-22.579-17.726-37-17.726h-58
	c-4.555,0-9.056,0.657-13.377,1.929V391c0-12.407,10.094-22.5,22.5-22.5h51.387c1.066,8.335,5.87,15.503,12.683,19.78
	c-0.857,2.416-1.329,5.014-1.329,7.72c0,12.757,10.379,23.136,23.137,23.136s23.137-10.379,23.137-23.136
	c0-2.706-0.472-5.304-1.329-7.719c6.814-4.277,11.616-11.445,12.683-19.781h51.387C354.284,368.5,364.378,378.593,364.378,391z
	 M256.001,387.864c4.486,0,8.137,3.65,8.137,8.136s-3.65,8.136-8.137,8.136s-8.137-3.65-8.137-8.136
	S251.515,387.864,256.001,387.864z M275.737,365c0,5.089-3.061,9.47-7.435,11.418c-3.566-2.248-7.783-3.554-12.301-3.554
	s-8.734,1.307-12.3,3.554c-4.374-1.948-7.436-6.329-7.436-11.418v-27.123c6.402,1.179,12.997,1.8,19.735,1.8
	s13.334-0.621,19.736-1.8V365H275.737z M351.018,311.5c-6.124,0-11.747-2.176-16.147-5.79c1.18-1.244,2.331-2.516,3.452-3.814
	c3.48,2.796,7.891,4.479,12.694,4.479c11.226,0,20.357-9.132,20.357-20.358c0-8.57-5.331-15.901-12.845-18.897
	c0.57-1.613,1.104-3.243,1.6-4.89c8.163,3.136,14.314,10.352,15.941,19.142v9.278C373.886,302.496,363.487,311.5,351.018,311.5z
	 M376.071,186.5h-48.07c-4.143,0-7.5,3.358-7.5,7.5s3.357,7.5,7.5,7.5h21.72v29.458c0,3.117-0.156,6.198-0.455,9.238l-7.548-2.888
	c1.319-4.015,2.043-8.296,2.043-12.747v-1.967c0-7.751-6.306-14.057-14.057-14.057h-53.765c-2.121,0-4.126,0.486-5.931,1.331
	l-21.869-8.368h35.862c4.143,0,7.5-3.358,7.5-7.5s-3.357-7.5-7.5-7.5h-148.07v-25.161h240.14V186.5z M428.478,146.339H83.524
	v-16.801c43.733-3.047,67.433-33.28,88.388-60.011C193.895,41.486,214.658,15,256.001,15s62.103,26.483,84.086,54.523
	c20.956,26.732,44.657,56.968,88.391,60.015V146.339z"/>
<path d="M306.889,91.148c2.538,0,4.997-0.546,7.306-1.623c4.189-1.953,7.366-5.42,8.947-9.763c1.581-4.344,1.376-9.043-0.577-13.229
	c-2.83-6.071-8.987-9.994-15.689-9.994c-2.537,0-4.995,0.546-7.306,1.624c-4.189,1.953-7.367,5.421-8.947,9.764
	c-0.677,1.859-1.006,3.784-1.03,5.705l-1.073,0.501c-5.741-10.876-17.161-18.309-30.291-18.309h-4.455
	c-13.13,0-24.55,7.433-30.291,18.309l-1.073-0.501c-0.025-1.921-0.354-3.845-1.03-5.704c-1.58-4.344-4.758-7.812-8.947-9.765
	c-2.311-1.077-4.769-1.623-7.306-1.623c-6.701,0-12.858,3.923-15.688,9.992c-1.954,4.189-2.159,8.888-0.578,13.232
	c1.581,4.343,4.758,7.81,8.945,9.762c2.311,1.078,4.77,1.624,7.308,1.624c4.056,0,7.907-1.445,10.948-3.927l3.508,1.636
	c-0.014,0.399-0.03,0.797-0.03,1.199v4.456c0,3.761,0.643,7.447,1.827,10.932l-5.304,2.474c-3.041-2.482-6.893-3.927-10.949-3.927
	c-2.538,0-4.997,0.546-7.306,1.623c-4.189,1.953-7.366,5.42-8.947,9.763c-1.581,4.344-1.376,9.043,0.577,13.229
	c2.83,6.071,8.987,9.994,15.688,9.994c2.537,0,4.996-0.546,7.306-1.624c6.209-2.895,9.875-9.032,9.968-15.463l6.827-3.184
	c1.177,1.219,2.438,2.363,3.794,3.402c2.123,10.133,11.004,17.583,21.753,17.583h2.457c10.749,0,19.63-7.45,21.753-17.583
	c1.356-1.039,2.617-2.184,3.794-3.402l6.826,3.183c0.093,6.431,3.76,12.568,9.969,15.463c2.31,1.077,4.768,1.624,7.306,1.624
	c6.7,0,12.857-3.923,15.686-9.991c1.954-4.189,2.159-8.888,0.578-13.232c-1.581-4.343-4.758-7.81-8.945-9.762
	c-2.311-1.078-4.77-1.624-7.308-1.624c-4.056,0-7.907,1.445-10.949,3.927l-5.304-2.474c1.184-3.485,1.827-7.171,1.827-10.932v-4.456
	c0-0.402-0.017-0.8-0.03-1.199l3.508-1.636C298.98,89.704,302.833,91.148,306.889,91.148z M206.093,123.383
	c-0.311,0.145-0.637,0.218-0.968,0.218c-0.679,0-1.634-0.349-2.093-1.333c-0.333-0.713-0.226-1.351-0.077-1.759
	c0.149-0.409,0.477-0.966,1.192-1.3c0.31-0.145,0.635-0.218,0.966-0.218c0.68,0,1.635,0.349,2.093,1.33
	C207.743,121.474,207.243,122.847,206.093,123.383z M304.794,120.325c0.459-0.984,1.415-1.332,2.095-1.332
	c0.331,0,0.656,0.073,0.968,0.218c0.714,0.333,1.041,0.891,1.19,1.299c0.148,0.408,0.256,1.045-0.078,1.761
	c-0.458,0.982-1.413,1.331-2.092,1.331c-0.331,0-0.656-0.073-0.968-0.218C304.759,122.847,304.259,121.474,304.794,120.325z
	 M304.719,73.056c0.148-0.409,0.476-0.966,1.189-1.298c0.311-0.145,0.637-0.219,0.968-0.219c0.68,0,1.635,0.349,2.094,1.333
	c0.333,0.713,0.225,1.351,0.077,1.759c-0.149,0.409-0.477,0.966-1.192,1.3c-0.31,0.145-0.635,0.218-0.966,0.218
	c-0.679,0-1.634-0.348-2.093-1.333C304.463,74.101,304.569,73.464,304.719,73.056z M207.205,74.818
	c-0.458,0.982-1.413,1.331-2.092,1.331c-0.331,0-0.656-0.073-0.968-0.218c-0.714-0.333-1.041-0.891-1.19-1.299
	c-0.148-0.408-0.256-1.046,0.078-1.761c0.458-0.982,1.413-1.331,2.093-1.331c0.331,0,0.657,0.074,0.968,0.218
	c0.714,0.333,1.041,0.89,1.189,1.298C207.432,73.464,207.539,74.102,207.205,74.818z M268.102,111.022
	c-2.2,1.32-3.572,3.672-3.639,6.236c-0.104,3.958-3.28,7.058-7.233,7.058h-2.457c-3.953,0-7.13-3.1-7.233-7.058
	c-0.066-2.564-1.439-4.916-3.639-6.236c-5.861-3.517-9.361-9.688-9.361-16.509v-4.456c0-10.605,8.629-19.234,19.234-19.234h4.455
	c10.605,0,19.234,8.629,19.234,19.234v4.456C277.463,101.334,273.963,107.505,268.102,111.022z"/>
<path d="M247.535,79.782c-4.143,0-7.5,3.358-7.5,7.5v7.575c0,4.142,3.357,7.5,7.5,7.5s7.5-3.358,7.5-7.5v-7.575
	C255.035,83.14,251.678,79.782,247.535,79.782z"/>
<path d="M264.467,79.782c-4.143,0-7.5,3.358-7.5,7.5v7.575c0,4.142,3.357,7.5,7.5,7.5s7.5-3.358,7.5-7.5v-7.575
	C271.967,83.14,268.609,79.782,264.467,79.782z"/>
<g>
</g>
<g>
</g>
<g>
</g>
<g>
</g>
<g>
</g>
<g>
</g>
<g>
</g>
<g>
</g>
<g>
</g>
<g>
</g>
<g>
</g>
<g>
</g>
<g>
</g>
<g>
</g>
<g>
</g>
</svg>
