<?xml version="1.0" encoding="iso-8859-1"?>
<!-- Generator: Adobe Illustrator 19.0.0, SVG Export Plug-In . SVG Version: 6.00 Build 0)  -->
<svg version="1.1" id="Capa_1" xmlns="http://www.w3.org/2000/svg" xmlns:xlink="http://www.w3.org/1999/xlink" x="0px" y="0px"
	 viewBox="0 0 512 512" style="enable-background:new 0 0 512 512;" xml:space="preserve">
<path style="fill:#203A74;" d="M341.874,360.999h-7.04c0.227,0.57,0.361,1.186,0.361,1.834v10.238c0,2.75-2.25,5-5,5h-39.151
	c-2.123,0-3.935-1.347-4.657-3.223l0,0c-0.437,2.492-1.716,5.351-3.234,6.981l-23.749,25.51c-1.874,2.013-4.94,2.013-6.814,0
	l-23.749-25.51c-1.519-1.631-2.798-4.494-3.235-6.987c0.001,0.002,0.001,0.004,0.001,0.007c-0.722,1.876-2.534,3.222-4.656,3.222
	H181.8c-2.75,0-5-2.25-5-5v-10.238c0-0.648,0.134-1.264,0.361-1.834h-7.04c-16.541,0-30,13.458-30,30V499.5c0,2.761,2.238,5,5,5
	h221.754c2.762,0,5-2.239,5-5V390.999C371.874,374.457,358.415,360.999,341.874,360.999z"/>
<path style="fill:#046699;" d="M376.14,79.22c-14.791-28.121-39.876-49.437-72.543-61.644c-23.943-8.946-43.377-9.982-45.514-10.07
	C258.021,7.504,257.2,7.5,257.197,7.5c-1.846,0-3.542,1.018-4.411,2.646l-76.089,142.603c-0.105,0.197-0.195,0.399-0.272,0.606
	c16.479-2.403,33.129-4.071,49.797-4.982c-0.815-2.659-1.268-5.476-1.268-8.402v-4.776c0-15.826,12.83-28.655,28.655-28.655h4.775
	c15.826,0,28.655,12.829,28.655,28.655v4.776c0,2.926-0.453,5.743-1.268,8.402c16.668,0.911,33.318,2.579,49.797,4.982
	c-0.077-0.206-0.167-0.409-0.272-0.606l-42.254-79.212l0.616-0.006c29.121,0,74.814,12.316,76.746,12.841
	c0.434,0.118,0.874,0.175,1.31,0.175c1.494,0,2.938-0.67,3.901-1.872C376.86,83.123,377.066,80.98,376.14,79.22z"/>
<g style="opacity:0.15;">
	<path style="fill:#3D0072;" d="M202.987,150.123l74.681-139.966c-10.875-2.207-18.311-2.598-19.586-2.651
		c-0.062-0.002-0.883-0.006-0.886-0.006c-1.846,0-3.542,1.018-4.411,2.646l-76.088,142.603c-0.105,0.197-0.195,0.399-0.272,0.606
		C185.239,152.069,194.098,150.981,202.987,150.123z"/>
</g>
<g>
	<path style="fill:#203A74;" d="M345.747,178.391v-19.91c0-2.063-1.5-3.819-3.538-4.142c-18.64-2.953-37.529-4.931-56.44-5.957
		c-2.096,6.827-6.66,12.572-12.666,16.175c-0.062,2.388-0.668,4.634-1.674,6.646C299.401,171.927,324.199,174.583,345.747,178.391z"
		/>
	<path style="fill:#203A74;" d="M240.569,171.213c-1.009-2.014-1.616-4.264-1.678-6.656c-6.006-3.603-10.57-9.349-12.666-16.175
		c-18.911,1.026-37.8,3.004-56.44,5.957c-2.038,0.322-3.538,2.079-3.538,4.142v20.189
		C187.944,174.732,212.787,171.97,240.569,171.213z"/>
</g>
<path style="opacity:0.15;fill:#490089;enable-background:new    ;" d="M194.997,174.42v-22.939c0-0.177,0.025-0.347,0.047-0.518
	c-8.455,0.939-16.884,2.049-25.259,3.376c-2.038,0.322-3.538,2.079-3.538,4.142v20.189
	C175.289,177.028,184.877,175.593,194.997,174.42z"/>
<g>
	<path style="fill:#203A74;" d="M125.483,238.896c0-12.465,10.105-22.57,22.571-22.57h6.724v-12.753
		c-55.967,4.302-93.329,12.065-93.329,20.926c0,7.207,24.708,13.686,64.034,18.169V238.896z"/>
	<path style="fill:#203A74;" d="M357.216,203.573v12.753h6.725c12.465,0,22.57,10.105,22.57,22.57v3.771
		c39.326-4.483,64.034-10.962,64.034-18.169C450.545,215.638,413.183,207.875,357.216,203.573z"/>
</g>
<path style="fill:#046699;" d="M334.956,452.438c-5.493,7.668-12.954,13.959-21.856,18.022c-0.787,0.36-1.634,0.54-2.481,0.54
	c-0.846,0-1.693-0.18-2.481-0.54c-19.545-8.922-32.175-28.556-32.175-50.02c0-7.802,1.688-15.352,4.752-22.243l-6.628-6.628
	l-14.683,15.771c-1.874,2.013-4.94,2.013-6.814,0l-23.749-25.51c-1.519-1.631-2.798-4.494-3.235-6.987
	c0.001,0.002,0.001,0.004,0.001,0.007c-0.722,1.876-2.534,3.222-4.656,3.222h-39.151c-2.75,0-5-2.25-5-5v-10.238
	c0-0.648,0.134-1.264,0.361-1.834h-7.04c-16.541,0-30,13.458-30,30v108.5c0,2.761,2.238,5,5,5h221.754c2.762,0,5-2.239,5-5v-10.145
	L334.956,452.438z"/>
<path style="opacity:0.15;fill:#490089;enable-background:new    ;" d="M169.243,499.5v-62.668
	c-1.644-5.231-2.525-10.747-2.525-16.392c0-5.631,0.889-11.128,2.525-16.346V391c0-7.619,2.86-14.579,7.556-19.875v-8.291
	c0-0.648,0.134-1.264,0.361-1.834h-7.04c-16.541,0-30,13.458-30,30v108.5c0,2.761,2.238,5,5,5h29.123
	C171.481,504.5,169.243,502.261,169.243,499.5z"/>
<g>
	<path style="fill:#693FBA;" d="M325.292,378.071h-29.347c-12.44,10.303-19.982,25.787-19.982,42.368
		c0,21.465,12.629,41.099,32.175,50.02c0.788,0.36,1.635,0.54,2.481,0.54c0.847,0,1.694-0.18,2.481-0.54
		c19.545-8.922,32.176-28.556,32.176-50.02C345.276,403.858,337.733,388.374,325.292,378.071z"/>
	<path style="fill:#693FBA;" d="M347.545,285.999c0.008-0.017,0.015-0.034,0.023-0.051c-11.955,25.313-34.093,44.87-61.132,53.387
		c0.041-0.013,0.083-0.024,0.125-0.037v14.442c1.803,1.53,3.683,2.912,5.648,4.093h36.837c15.593-9.377,26.452-30.27,26.452-54.557
		c0-6.009-0.675-11.806-1.913-17.277L347.545,285.999L347.545,285.999z"/>
</g>
<path style="fill:#5DC647;" d="M330.195,357.833h-39.151c-1.972,0-3.671,1.166-4.483,2.835v12.502c0,0.523-0.071,1.094-0.173,1.679
	c0.722,1.876,2.534,3.223,4.657,3.223h39.151c2.75,0,5-2.25,5-5v-10.238C335.195,360.083,332.945,357.833,330.195,357.833z"/>
<path style="fill:#693FBA;" d="M216.047,378.071H186.7c-12.44,10.303-19.982,25.787-19.982,42.368
	c0,21.465,12.629,41.099,32.175,50.02c0.788,0.36,1.635,0.54,2.481,0.54c0.847,0,1.694-0.18,2.481-0.54
	c19.545-8.922,32.176-28.556,32.176-50.02C236.031,403.858,228.488,388.374,216.047,378.071z"/>
<path style="opacity:0.15;fill:#030007;enable-background:new    ;" d="M190.685,420.44c0-16.584,7.548-32.067,19.992-42.368
	h-23.976c-12.44,10.303-19.982,25.787-19.982,42.368c0,21.465,12.629,41.099,32.175,50.02c0.788,0.36,1.635,0.54,2.481,0.54
	c0.847,0,1.694-0.18,2.481-0.54c3.387-1.546,6.561-3.42,9.503-5.563C199.322,454.672,190.685,438.185,190.685,420.44z"/>
<path style="fill:#693FBA;" d="M164.431,285.957c0.006,0.014,0.013,0.028,0.019,0.042h-6.041
	c-1.237,5.472-1.912,11.268-1.912,17.277c0,24.287,10.859,45.18,26.452,54.557h36.837c1.964-1.182,3.845-2.564,5.647-4.093v-14.443
	c0.04,0.013,0.081,0.023,0.12,0.036C198.52,330.816,176.386,311.264,164.431,285.957z"/>
<path style="fill:#5DC647;" d="M225.433,373.17v-12.503c-0.813-1.668-2.512-2.833-4.483-2.833h-39.151c-2.75,0-5,2.25-5,5v10.238
	c0,2.75,2.25,5,5,5h39.151c2.123,0,3.934-1.346,4.656-3.222C225.504,374.264,225.433,373.693,225.433,373.17z"/>
<g>
	<path style="fill:#FFB98A;" d="M255.997,343.999c-10.653,0-20.92-1.65-30.564-4.702v33.872c0,2.75,1.533,6.647,3.407,8.66
		l23.749,25.51c1.874,2.013,4.94,2.013,6.814,0l23.749-25.51c1.874-2.013,3.407-5.91,3.407-8.66v-33.872
		C276.916,342.349,266.65,343.999,255.997,343.999z"/>
	<path style="fill:#FFB98A;" d="M154.778,242.779v-26.453h-6.724c-12.465,0-22.571,10.105-22.571,22.57v24.533
		c0,12.465,10.105,22.569,22.571,22.569h16.396C158.25,272.891,154.778,258.242,154.778,242.779z"/>
	<path style="fill:#FFB98A;" d="M363.941,216.326h-6.725v26.453c0,15.462-3.473,30.112-9.671,43.22h16.396
		c12.465,0,22.57-10.104,22.57-22.569v-24.533C386.511,226.432,376.407,216.326,363.941,216.326z"/>
</g>
<path style="fill:#FFC7A9;" d="M278.826,205.742c-5.189,8.957-14.855,14.996-25.952,14.996h-98.097v22.041
	c0,55.902,45.318,101.22,101.219,101.22c55.902,0,101.219-45.317,101.219-101.22v-22.041h-52.438
	C293.681,220.738,284.015,214.699,278.826,205.742z"/>
<g style="opacity:0.15;">
	<path style="fill:#330068;" d="M177.19,272.738c2.647,0,5.15,0.598,7.405,1.641c-3.266-9.943-5.037-20.564-5.037-31.6v-22.041
		h-24.781v22.041c0,13.522,2.658,26.422,7.47,38.213C165.382,276.038,170.894,272.738,177.19,272.738z"/>
	<path style="fill:#330068;" d="M194.202,295.236c-1.973,6.977-8.119,12.196-15.575,12.798
		c18.567,21.992,46.335,35.965,77.37,35.965c4.195,0,8.329-0.26,12.391-0.756C236.925,339.402,209.923,321.124,194.202,295.236z"/>
</g>
<g>
	<path style="fill:#FB8276;" d="M177.19,272.738c-6.296,0-11.809,3.3-14.943,8.255c4.037,9.893,9.592,19.002,16.379,27.041
		c9.093-0.733,16.248-8.33,16.248-17.612C194.874,280.655,186.957,272.738,177.19,272.738z"/>
	<path style="fill:#FB8276;" d="M350.036,280.284c-3.199-4.559-8.485-7.546-14.477-7.546c-9.767,0-17.685,7.917-17.685,17.684
		c0,9.044,6.792,16.488,15.551,17.543C340.348,299.751,345.989,290.423,350.036,280.284z"/>
</g>
<path style="fill:#693FBA;" d="M255.997,199.999c-37.078,0-71.73,1.307-101.219,3.574v17.165h98.097
	c11.097,0,20.763-6.039,25.952-14.996c5.189,8.957,14.855,14.996,25.952,14.996h52.438v-17.165
	C327.727,201.306,293.075,199.999,255.997,199.999z"/>
<g>
	<path style="fill:#046699;" d="M271.429,171.204c-2.591,5.182-7.926,8.749-14.115,8.749h-2.634c-6.187,0-11.518-3.563-14.111-8.74
		c-114.514,3.12-179.121,40.327-179.121,53.286c0-13.53,87.102-24.5,194.548-24.5s194.548,10.97,194.548,24.5
		C450.545,211.525,389.079,174.247,271.429,171.204z"/>
	<ellipse style="fill:#046699;" cx="206.397" cy="252.21" rx="13.477" ry="13.529"/>
	<ellipse style="fill:#046699;" cx="301.347" cy="252.21" rx="13.477" ry="13.529"/>
</g>
<path style="fill:#FFFFFF;" d="M258.385,106.538h-4.775c-15.826,0-28.655,12.829-28.655,28.655v4.776
	c0,10.444,5.589,19.58,13.937,24.588c0.222,8.538,7.195,15.395,15.789,15.395h2.634c8.591,0,15.567-6.857,15.789-15.395
	c8.348-5.008,13.937-14.144,13.937-24.588v-4.776C287.04,119.367,274.21,106.538,258.385,106.538z"/>
<path d="M246.923,147.838c4.142,0,7.5-3.358,7.5-7.5v-8.119c0-4.142-3.358-7.5-7.5-7.5s-7.5,3.358-7.5,7.5v8.119
	C239.423,144.48,242.781,147.838,246.923,147.838z"/>
<path d="M265.071,147.838c4.142,0,7.5-3.358,7.5-7.5v-8.119c0-4.142-3.358-7.5-7.5-7.5s-7.5,3.358-7.5,7.5v8.119
	C257.571,144.48,260.929,147.838,265.071,147.838z"/>
<path d="M256.14,280.033h8.735c4.142,0,7.5-3.358,7.5-7.5s-3.358-7.5-7.5-7.5h-8.735c-0.298,0-1.235-0.914-1.235-2.5v-14.795
	c0-4.142-3.358-7.5-7.5-7.5s-7.5,3.358-7.5,7.5v14.795C239.905,272.183,247.187,280.033,256.14,280.033z"/>
<path d="M206.398,231.18c-11.567,0-20.978,9.434-20.978,21.029c0,11.596,9.411,21.029,20.978,21.029
	c11.566,0,20.976-9.434,20.976-21.029C227.374,240.613,217.965,231.18,206.398,231.18z M206.398,258.238
	c-3.296,0-5.978-2.705-5.978-6.029s2.682-6.029,5.978-6.029c3.295,0,5.976,2.705,5.976,6.029S209.694,258.238,206.398,258.238z"/>
<path d="M280.374,252.209c0,11.596,9.41,21.029,20.977,21.029c11.566,0,20.977-9.434,20.977-21.029
	c0-11.596-9.41-21.029-20.977-21.029C289.785,231.18,280.374,240.613,280.374,252.209z M307.328,252.209
	c0,3.325-2.681,6.029-5.977,6.029s-5.977-2.705-5.977-6.029s2.681-6.029,5.977-6.029S307.328,248.884,307.328,252.209z"/>
<path d="M457.715,221.768c-3.217-13.503-29.413-27.353-54.028-36.155c-12.657-4.526-29.413-9.438-50.441-13.482v-13.65
	c0-5.788-4.149-10.645-9.864-11.549c-0.974-0.154-1.951-0.297-2.926-0.447l-11.21-21.015c-1.95-3.655-6.494-5.037-10.147-3.088
	c-3.655,1.95-5.037,6.493-3.087,10.147l6.118,11.47c-9.178-1.088-18.393-1.958-27.624-2.595c0.02-0.477,0.034-0.955,0.034-1.435
	v-4.776c0-19.936-16.219-36.155-36.155-36.155h-4.775c-19.936,0-36.155,16.219-36.155,36.155v4.776c0,0.48,0.015,0.958,0.034,1.435
	c-9.229,0.637-18.444,1.506-27.622,2.595l68.805-128.952c4.371,0.267,21.459,1.768,42.3,9.555
	c28.914,10.805,51.516,29.083,65.708,53.055c-13.664-3.44-48.732-11.625-73.092-11.625l-0.616,0.006
	c-2.622,0.025-5.04,1.417-6.378,3.671c-1.338,2.255-1.402,5.044-0.168,7.358l11.981,22.461c1.95,3.655,6.493,5.034,10.148,3.088
	c3.655-1.95,5.037-6.493,3.087-10.147l-5.777-10.831c27.272,2.452,60.939,11.528,62.569,11.971c1.068,0.291,2.172,0.438,3.282,0.438
	c3.814,0,7.369-1.707,9.752-4.68c3.113-3.881,3.628-9.235,1.311-13.639c-15.662-29.777-42.134-52.315-76.556-65.178
	C281.2,1.2,260.657,0.106,258.321,0.009C258.24,0.007,257.2,0,257.196,0c-4.625,0-8.851,2.535-11.028,6.616l-74.629,139.869
	c-0.975,0.149-1.952,0.292-2.925,0.446c-5.717,0.904-9.866,5.761-9.866,11.549v13.947c-20.213,3.983-36.561,8.763-49.068,13.175
	c-15.905,5.61-29.538,12.033-39.426,18.574c-9.981,6.602-15.296,12.7-16.174,18.579c-0.087,0.569-0.13,1.15-0.13,1.744
	c0,12.063,17.816,19.007,63.545,24.766c0.161,0.021,0.328,0.04,0.489,0.06v14.105c0,16.58,13.49,30.069,30.071,30.069h1.504
	c-0.365,3.193-0.56,6.456-0.56,9.777c0,20.045,6.868,38.042,17.716,50.384c-19.086,1.728-34.093,17.81-34.093,37.338V499.5
	c0,6.893,5.607,12.5,12.5,12.5h221.754c6.893,0,12.5-5.607,12.5-12.5V390.999c0-19.477-14.928-35.529-33.943-37.327
	c0.877-1,1.736-2.032,2.566-3.116c2.516-3.29,1.889-7.997-1.401-10.514c-3.29-2.516-7.997-1.888-10.514,1.401
	c-2.782,3.637-5.893,6.611-9.22,8.889h-32.568c-0.078-0.053-0.155-0.109-0.232-0.164v-5.555
	c22.372-8.395,41.266-23.963,53.869-43.89c0.029,0.848,0.067,1.693,0.067,2.551c0,4.201-0.361,8.38-1.072,12.424
	c-0.718,4.079,2.008,7.968,6.087,8.686c4.079,0.712,7.968-2.008,8.687-6.087c0.862-4.899,1.299-9.954,1.299-15.023
	c0-3.321-0.195-6.584-0.56-9.777h1.504c16.581,0,30.07-13.489,30.07-30.069v-14.105c0.162-0.02,0.328-0.039,0.489-0.06
	c45.729-5.759,63.545-12.703,63.545-24.766C458.045,223.558,457.937,222.648,457.715,221.768z M290.65,156.193
	c15.944,1.015,31.857,2.71,47.597,5.119v8.214c-15.668-2.443-33.333-4.351-53.078-5.319
	C287.348,161.789,289.189,159.088,290.65,156.193z M232.454,135.193c0-11.665,9.49-21.155,21.155-21.155h4.775
	c11.665,0,21.155,9.49,21.155,21.155v4.776c0,7.502-3.849,14.289-10.295,18.156c-2.2,1.32-3.572,3.672-3.639,6.236
	c-0.118,4.537-3.76,8.091-8.292,8.091h-2.634c-4.531,0-8.173-3.554-8.292-8.091c-0.067-2.564-1.439-4.917-3.639-6.236
	c-6.447-3.867-10.295-10.655-10.295-18.156v-4.776H232.454z M173.748,161.312c15.739-2.408,31.651-4.104,47.596-5.119
	c1.467,2.907,3.317,5.617,5.507,8.043c-19.691,1.008-37.38,2.988-53.103,5.513L173.748,161.312L173.748,161.312z M118.345,234.249
	c-28.184-3.595-40.741-7.414-46.162-9.751c5.946-2.563,20.444-6.907,54.736-10.784c1.881-0.213,3.798-0.419,5.736-0.622
	C125.143,217.59,119.745,225.263,118.345,234.249z M148.054,278.499c-8.31,0-15.071-6.76-15.071-15.069v-24.533
	c0-8.048,6.346-14.623,14.295-15.031v18.914c0,0.122,0.004,0.242,0.004,0.363h-0.113c-4.142,0-7.5,3.358-7.5,7.5s3.358,7.5,7.5,7.5
	h1.199c0.998,7.022,2.668,13.83,4.944,20.356H148.054z M163.997,303.276c0-0.858,0.038-1.703,0.067-2.551
	c12.604,19.927,31.494,35.495,53.869,43.889v5.56c-0.081,0.056-0.165,0.104-0.246,0.159H185.03
	C172.589,341.827,163.997,323.932,163.997,303.276z M171.043,282.326c1.744-1.333,3.882-2.088,6.147-2.088
	c5.616,0,10.184,4.568,10.184,10.184c0,4.01-2.389,7.544-5.846,9.189C177.443,294.27,173.919,288.479,171.043,282.326z
	 M217.933,365.333v5.238h-33.634v-5.238H217.933z M364.374,497H147.62V390.999c0-12.131,9.651-22.045,21.679-22.479v4.551
	c0,3.339,1.324,6.37,3.465,8.614c-8.581,10.844-13.545,24.433-13.545,38.754c0,24.393,14.351,46.705,36.556,56.841
	c1.769,0.809,3.653,1.219,5.6,1.219c1.949,0,3.833-0.411,5.596-1.217c7.931-3.621,14.898-8.768,20.708-15.297
	c2.753-3.095,2.476-7.836-0.618-10.589s-7.835-2.477-10.589,0.618c-4.258,4.786-9.331,8.593-15.096,11.328
	c-16.52-7.837-27.156-24.6-27.156-42.903c0-11.357,4.101-22.114,11.156-30.519v16.079c0,4.142,3.358,7.5,7.5,7.5s7.5-3.358,7.5-7.5
	v-20.428h2v20.428c0,4.142,3.358,7.5,7.5,7.5s7.5-3.358,7.5-7.5v-16.078c7.056,8.405,11.156,19.163,11.156,30.52
	c0,2.172-0.152,4.366-0.453,6.521c-0.573,4.103,2.288,7.893,6.39,8.466c4.107,0.575,7.893-2.288,8.466-6.39
	c0.397-2.841,0.598-5.735,0.598-8.599c0-4.57-0.52-9.062-1.486-13.42l5.056,5.43c2.307,2.478,5.55,3.898,8.896,3.898
	c3.347,0,6.589-1.421,8.897-3.899l5.056-5.43c-0.966,4.358-1.486,8.85-1.486,13.42c0,24.393,14.351,46.705,36.556,56.841
	c1.769,0.809,3.653,1.219,5.6,1.219c1.949,0,3.833-0.411,5.595-1.217c7.361-3.36,13.852-8.064,19.25-13.731l28.91,28.91V497H364.374
	z M232.933,373.17v-24.143c7.436,1.616,15.151,2.472,23.064,2.472c7.914,0,15.627-0.864,23.064-2.477v24.148
	c-0.004,0.861-0.813,2.917-1.397,3.55l-21.667,23.272l-21.667-23.273C233.746,376.086,232.937,374.03,232.933,373.17z
	 M342.695,373.071v-4.551c12.027,0.434,21.679,10.348,21.679,22.479v80.25l-19.854-19.854c5.297-9.265,8.256-19.893,8.256-30.955
	c0-14.32-4.965-27.91-13.546-38.754C341.371,379.441,342.695,376.411,342.695,373.071z M337.776,420.44
	c0,18.3-10.632,35.06-27.157,42.903c-16.52-7.837-27.156-24.6-27.156-42.903c0-11.357,4.101-22.114,11.156-30.519V406
	c0,4.142,3.358,7.5,7.5,7.5s7.5-3.358,7.5-7.5v-20.428h2V406c0,4.142,3.358,7.5,7.5,7.5s7.5-3.358,7.5-7.5v-16.078
	C333.675,398.326,337.776,409.083,337.776,420.44z M327.695,365.333v5.238H294.06v-5.238H327.695z M330.669,299.344
	c-3.175-1.738-5.295-5.108-5.295-8.922c0-5.615,4.569-10.184,10.185-10.184c2.007,0,3.939,0.607,5.579,1.687
	C338.276,288.125,334.757,293.961,330.669,299.344z M349.716,242.779c0,8.623-1.176,16.975-3.367,24.911
	c-3.329-1.587-7.005-2.452-10.79-2.452c-13.887,0-25.185,11.297-25.185,25.184c0,8.221,3.98,15.603,10.201,20.215
	c-16.822,16.017-39.572,25.862-64.579,25.862c-24.855,0-47.479-9.729-64.27-25.575c6.446-4.597,10.647-12.134,10.647-20.502
	c0-13.886-11.297-25.184-25.184-25.184c-4.07,0-7.976,0.977-11.461,2.766c-2.247-8.029-3.452-16.488-3.452-25.225v-14.541h90.597
	c9.764,0,19.052-3.86,25.952-10.476c6.9,6.616,16.188,10.476,25.952,10.476h44.938v14.541H349.716z M162.278,213.238v-2.694
	c28.436-1.985,60.61-3.045,93.719-3.045c3.942,0,7.87,0.017,11.781,0.046c-4.063,3.603-9.354,5.693-14.904,5.693H162.278z
	 M349.716,213.238h-44.938c-5.375,0-10.509-1.958-14.519-5.355c20.887,0.472,40.963,1.371,59.458,2.662v2.693H349.716z
	 M255.997,192.499c-52.269,0-101.456,2.569-138.503,7.235c-1.493,0.188-2.954,0.377-4.388,0.568
	c1.869-0.671,3.809-1.343,5.824-2.017c24.189-8.089,63.411-17.562,117.632-19.443c4.258,5.269,10.764,8.612,18.119,8.612h2.634
	c7.365,0,13.879-3.353,18.137-8.635c56.537,1.843,97.867,11.542,125.353,21.741c-2.039-0.278-4.141-0.553-6.304-0.826
	C357.454,195.068,308.266,192.499,255.997,192.499z M379.011,263.43c0,8.309-6.76,15.069-15.07,15.069h-5.26
	c2.277-6.527,3.946-13.334,4.944-20.356h1.199c4.142,0,7.5-3.358,7.5-7.5s-3.358-7.5-7.5-7.5h-0.113
	c0-0.121,0.004-0.242,0.004-0.363v-18.914c7.949,0.407,14.295,6.983,14.295,15.031v24.533H379.011z M393.649,234.249
	c-1.401-8.987-6.798-16.66-14.311-21.156c1.939,0.202,3.855,0.409,5.736,0.622c34.292,3.877,48.791,8.221,54.736,10.784
	C434.39,226.836,421.833,230.654,393.649,234.249z"/>
<path d="M281.874,286.238c-4.142,0-7.5,3.358-7.5,7.5c0,10.201-8.299,18.5-18.5,18.5c-10.201,0-18.5-8.299-18.5-18.5
	c0-4.142-3.358-7.5-7.5-7.5s-7.5,3.358-7.5,7.5c0,18.472,15.028,33.5,33.5,33.5s33.5-15.028,33.5-33.5
	C289.374,289.596,286.017,286.238,281.874,286.238z"/>
<g>
</g>
<g>
</g>
<g>
</g>
<g>
</g>
<g>
</g>
<g>
</g>
<g>
</g>
<g>
</g>
<g>
</g>
<g>
</g>
<g>
</g>
<g>
</g>
<g>
</g>
<g>
</g>
<g>
</g>
</svg>
