<svg id="Capa_1" enable-background="new 0 0 512.937 512.937" height="512" viewBox="0 0 512.937 512.937" width="512" xmlns="http://www.w3.org/2000/svg"><g><path d="m164.178 84.224h-50.132c-7.299 0-13.217 5.917-13.217 13.217v12.075c0 7.299 5.917 13.217 13.217 13.217h10.091c6.972 0 13.798-1.992 19.675-5.741 5.878-3.749 12.704-5.741 19.675-5.741h.69c5.973 0 10.815-4.842 10.815-10.815v-5.395c.001-5.975-4.841-10.817-10.814-10.817z" fill="#f8e076"/><ellipse cx="102.219" cy="333.994" fill="#b1abb4" rx="94.719" ry="94.719" transform="matrix(.707 -.707 .707 .707 -206.23 170.104)"/><circle cx="102.219" cy="333.994" fill="#fbfbfb" r="63.077"/><circle cx="102.219" cy="333.994" fill="#fbfbfb" r="20.529"/><ellipse cx="410.717" cy="333.994" fill="#b1abb4" rx="94.719" ry="94.719" transform="matrix(.707 -.707 .707 .707 -115.873 388.245)"/><path d="m102.219 239.274c-5.105 0-10.114.409-15 1.187 45.183 7.19 79.719 46.326 79.719 93.533s-34.536 86.343-79.719 93.533c4.886.778 9.895 1.187 15 1.187 52.312 0 94.719-42.408 94.719-94.72.001-52.313-42.407-94.72-94.719-94.72z" fill="#a29aa5"/><path d="m410.717 239.274c-5.105 0-10.114.409-15 1.187 45.183 7.19 79.719 46.326 79.719 93.533s-34.536 86.343-79.719 93.533c4.886.778 9.895 1.187 15 1.187 52.312 0 94.719-42.408 94.719-94.72.001-52.313-42.407-94.72-94.719-94.72z" fill="#a29aa5"/><circle cx="410.717" cy="333.994" fill="#fbfbfb" r="63.077"/><path d="m98.967 270.917c-4.591 0-9.062.503-13.374 1.434 28.41 6.136 49.703 31.397 49.703 61.643s-21.293 55.507-49.703 61.643c4.312.931 8.783 1.434 13.374 1.434 34.836 0 63.077-28.241 63.077-63.077 0-34.837-28.24-63.077-63.077-63.077z" fill="#e7e7e7"/><path d="m410.717 270.917c-5.171 0-10.191.636-15 1.81 27.592 6.733 48.077 31.602 48.077 61.267 0 29.666-20.485 54.534-48.077 61.267 4.809 1.173 9.829 1.81 15 1.81 34.836 0 63.077-28.241 63.077-63.077 0-34.837-28.24-63.077-63.077-63.077z" fill="#e7e7e7"/><ellipse cx="254.748" cy="346.903" fill="#a29aa5" rx="26.575" ry="26.575" transform="matrix(.213 -.977 .977 .213 -138.535 521.736)"/><path d="m410.717 231.774c-8.426 0-16.614 1.032-24.452 2.963l-26.385-80.983-.687-31.526h49.583v1.092c0 9.838-8.003 17.841-17.841 17.841h-.23c-4.142 0-7.5 3.358-7.5 7.5s3.358 7.5 7.5 7.5h.23c18.108 0 32.841-14.732 32.841-32.841v-8.592c0-4.142-3.358-7.5-7.5-7.5h-64.749c-.028 0-.055.004-.083.004-.027 0-.054-.003-.081-.002-.026 0-.051.009-.077.01-4.03.128-7.259 3.427-7.259 7.488 0 .051.007.1.008.151-.001.001-.006.013-.006.013l.705 32.376c-.071-.002-.141-.011-.213-.011h-178.531l-14.563-25.888c3.772-1.721 7.876-2.62 12.062-2.62h.689c10.1 0 18.316-8.216 18.316-18.315v-5.395c0-10.1-8.216-18.316-18.316-18.316h-16.956c-4.142 0-7.5 3.358-7.5 7.5s3.358 7.5 7.5 7.5h16.956c1.829 0 3.316 1.487 3.316 3.316v5.395c0 1.828-1.487 3.315-3.316 3.315h-.689c-8.416 0-16.614 2.392-23.709 6.918-4.681 2.986-10.089 4.564-15.642 4.564h-10.091c-3.152 0-5.716-2.564-5.716-5.716v-12.075c0-3.152 2.564-5.717 5.716-5.717h5.175c4.142 0 7.5-3.358 7.5-7.5s-3.358-7.5-7.5-7.5h-5.175c-11.423 0-20.716 9.293-20.716 20.717v12.076c0 11.423 9.293 20.716 20.716 20.716h10.091c4.725 0 9.372-.78 13.802-2.242l15.484 27.524-26.931 79.18c-7.784-1.903-15.912-2.92-24.274-2.92-56.364 0-102.219 45.856-102.219 102.219 0 56.364 45.855 102.22 102.219 102.22 42.258 0 78.609-25.776 94.157-62.432l50.57 6.284c.101.024.201.047.302.07v9.435h-2.477c-4.142 0-7.5 3.358-7.5 7.5s3.358 7.5 7.5 7.5h19.954c4.142 0 7.5-3.358 7.5-7.5s-3.358-7.5-7.5-7.5h-2.477v-9.435c15.191-3.427 26.575-17.021 26.575-33.233 0-13.903-8.374-25.881-20.34-31.174l92.762-109.367 10.762 33.031c-37.225 15.288-63.509 51.929-63.509 94.599 0 56.364 45.855 102.22 102.219 102.22s102.219-45.855 102.219-102.22c.001-56.361-45.855-102.217-102.219-102.217zm-247.419-58.708 78.275 139.139-39.902-1.861c-7.676-32.281-30.702-58.675-60.91-71.019zm26.14 160.927c0 8.108-1.116 15.959-3.196 23.413l-16.749-2.082c2.14-6.734 3.303-13.898 3.303-21.332 0-3.4-.256-6.741-.723-10.014l16.878.787c.32 3.035.487 6.112.487 9.228zm-87.219 13.029c-7.184 0-13.028-5.845-13.028-13.029 0-5.222 3.095-9.724 7.541-11.8l-1.613 4.744c-1.334 3.921.764 8.182 4.686 9.516.801.272 1.615.401 2.415.401 3.123 0 6.039-1.966 7.1-5.087l2.302-6.768c2.24 2.341 3.626 5.506 3.626 8.994-.001 7.184-5.845 13.029-13.029 13.029zm15.716-40.584 7.757-22.805c10.954 5.126 19.97 13.718 25.629 24.362zm-15.683-.472c-.011 0-.021-.001-.032-.001-15.455 0-28.028 12.573-28.028 28.028 0 15.259 12.258 27.701 27.444 28.014l44.828 5.571c-10.16 13.352-26.209 21.992-44.243 21.992-30.645 0-55.577-24.932-55.577-55.577s24.932-55.577 55.577-55.577c3.115 0 6.166.27 9.142.765zm23.073 43.87c3.102-4.51 4.923-9.966 4.923-15.842 0-4.328-.987-8.43-2.746-12.093l29.246 1.364c.682 3.473 1.049 7.058 1.049 10.729 0 6.837-1.248 13.386-3.517 19.441zm42.797-41.057c-6.762-17.612-20.381-31.842-37.579-39.41l5.38-15.818c24.056 10.117 42.654 30.723 50.042 56.06zm-65.903 112.434c-48.093 0-87.219-39.126-87.219-87.22 0-48.093 39.126-87.219 87.219-87.219 6.674 0 13.174.756 19.423 2.183l-5.396 15.864c-4.535-.918-9.225-1.404-14.027-1.404-38.916 0-70.577 31.661-70.577 70.577 0 38.917 31.661 70.577 70.577 70.577 25.916 0 48.6-14.051 60.873-34.926l17.697 2.199c-14.118 29.189-44.031 49.369-78.57 49.369zm101.861-95.74 23.348 1.089c-4.241 5.681-6.755 12.723-6.755 20.341 0 5.473 1.304 10.644 3.607 15.23l-23.008-2.859c2.065-8.088 3.166-16.558 3.166-25.281 0-2.869-.125-5.71-.358-8.52zm58.169 38.964v-17.534c0-4.142-3.358-7.5-7.5-7.5s-7.5 3.358-7.5 7.5v17.534c-6.799-2.919-11.575-9.678-11.575-17.534 0-10.515 8.552-19.07 19.066-19.074.005 0 .01.001.016.001.003 0 .007-.001.01-.001 10.51.009 19.058 8.561 19.058 19.074-.001 7.856-4.777 14.614-11.575 17.534zm-6.248-57.179-81.572-145s171.628-.12 172.336-.341l9.023 27.693zm154.716 113.955c-48.093 0-87.219-39.126-87.219-87.22 0-36.018 21.947-67.006 53.169-80.296l5.186 15.917c-24.561 11.056-41.713 35.744-41.713 64.379 0 4.142 3.358 7.5 7.5 7.5s7.5-3.358 7.5-7.5c0-21.98 12.828-41.018 31.388-50.029l17.057 52.352c1.032 3.167 3.97 5.179 7.129 5.179.77 0 1.553-.12 2.325-.371 3.939-1.283 6.091-5.516 4.808-9.454l-17.056-52.348c3.223-.584 6.536-.905 9.925-.905 30.645 0 55.577 24.932 55.577 55.577 0 30.646-24.932 55.577-55.577 55.577-21.413 0-40.559-11.959-49.967-31.211-1.819-3.722-6.312-5.264-10.031-3.445-3.722 1.818-5.264 6.31-3.445 10.031 11.944 24.441 36.254 39.625 63.443 39.625 38.916 0 70.577-31.661 70.577-70.577s-31.661-70.577-70.577-70.577c-5.008 0-9.893.533-14.609 1.53l-5.182-15.906c6.361-1.481 12.986-2.266 19.791-2.266 48.093 0 87.219 39.127 87.219 87.219.002 48.093-39.125 87.219-87.218 87.219z"/></g></svg>