<svg id="Capa_1" enable-background="new 0 0 507.117 507.117" height="512" viewBox="0 0 507.117 507.117" width="512" xmlns="http://www.w3.org/2000/svg"><g><path d="m280.615 400.946h-21.106c-22.93 0-42.887-15.677-48.317-37.954l-17.539-71.95h136.695v60.172c0 27.466-22.266 49.732-49.733 49.732z" fill="#c8c3ca"/><path d="m300.348 291.042v60.172c0 26.217-20.291 47.681-46.023 49.58 1.258.096 2.525.152 3.803.152h21.107c27.466 0 49.732-22.266 49.732-49.732v-60.172z" fill="#b1abb4"/><path d="m108.574 219.502h-39.984c-33.739 0-61.089-27.351-61.089-61.089v-39.985c55.821 0 101.073 45.252 101.073 101.074z" fill="#56988c"/><path d="m26.376 236.433c-11.631 11.123-18.876 26.794-18.876 44.158v39.985c30.681 0 58.17-13.671 76.707-35.253" fill="#56988c"/><path d="m499.617 213.996c0 59.55-72.406 107.825-215.727 107.825s-259.507-48.275-259.507-107.825 116.185-107.825 259.506-107.825 215.728 48.274 215.728 107.825z" fill="#a9e8d1"/><path d="m499.617 213.996c0 27.346-72.406 49.514-215.727 49.514s-259.507-22.169-259.507-49.514 116.185-49.514 259.506-49.514 215.728 22.168 215.728 49.514z" fill="#77d1b3"/><path d="m283.889 106.171c-5.064 0-10.09.067-15.083.186 133.421 3.246 200.81 50.193 200.81 107.639s-67.39 104.393-200.81 107.639c4.992.119 10.019.186 15.083.186 143.321 0 215.727-48.275 215.727-107.825.001-59.55-72.405-107.825-215.727-107.825z" fill="#77d1b3"/><path d="m283.889 164.482c-5.064 0-10.09.031-15.083.085 133.421 1.491 200.81 23.049 200.81 49.428s-67.39 47.938-200.81 49.428c4.992.054 10.019.085 15.083.085 143.321 0 215.727-22.168 215.727-49.514s-72.405-49.512-215.727-49.512z" fill="#67b59f"/><path d="m449.071 131.157c-39.229-21.252-96.349-32.486-165.182-32.486-70.281 0-136.471 11.419-186.376 32.155-6.13 2.547-11.924 5.208-17.396 7.967-19.961-17.972-45.718-27.865-72.617-27.865-4.143 0-7.5 3.358-7.5 7.5v39.985c0 16.804 6.139 32.972 17.286 45.526.151.17.312.326.475.479-.573 3.164-.877 6.358-.877 9.578 0 6.168 1.073 12.242 3.159 18.187-.176.149-.347.305-.512.473-12.594 12.888-19.531 29.911-19.531 47.935v39.984c0 4.142 3.357 7.5 7.5 7.5 30.534 0 59.522-12.814 80.085-35.268 3.21 1.485 6.516 2.94 9.929 4.358 27.719 11.517 60.466 20.155 96.143 25.564l10.249 42.04c6.268 25.717 29.134 43.678 55.603 43.678h21.106c31.558 0 57.232-25.674 57.232-57.232v-24.381c28.883-2.811 54.766-7.997 77.33-15.525 3.929-1.31 6.052-5.559 4.74-9.488-1.311-3.929-5.552-6.052-9.488-4.741-34.287 11.439-76.861 17.24-126.54 17.24-68.352 0-132.497-11.012-180.621-31.007-29.783-12.375-51.227-27.515-62.445-43.587 13.535 6.296 32.864 11.821 58.162 16.648 49.464 9.438 115.131 14.635 184.904 14.635 68.191 0 124.7-5.091 163.42-14.724 15.77-3.923 28.434-8.538 37.988-13.812-9.067 18.12-26.987 33.88-52.625 45.819-3.755 1.748-5.382 6.21-3.633 9.965 1.748 3.754 6.209 5.381 9.965 3.633 43.923-20.453 68.112-51.669 68.112-87.895.001-33.14-20.613-62.559-58.045-82.838zm-126.223 196.897v23.16c0 23.287-18.945 42.232-42.232 42.232h-21.106c-19.532 0-36.404-13.253-41.03-32.23l-8.851-36.308c23.83 2.904 48.774 4.413 74.262 4.413 13.49-.001 26.474-.431 38.957-1.267zm-307.848-169.641v-32.187c18.693 1.492 36.432 8.555 51.062 20.313-20.308 12.264-34.667 26.153-42.433 41.022-5.599-8.629-8.629-18.729-8.629-29.148zm58.549 127.335c-15.723 15.674-36.444 25.256-58.549 27.028v-32.185c0-12.557 4.319-24.486 12.23-34.063 9.386 14.305 25.026 27.582 46.319 39.22zm370.14-44.019c-37.553 9.342-92.811 14.28-159.799 14.28-68.859 0-133.527-5.103-182.093-14.369-57.353-10.943-69.913-23.666-69.913-27.645 0-5.468 21.602-23.601 117.58-34.811 4.114-.48 7.06-4.205 6.579-8.319-.48-4.115-4.218-7.06-8.319-6.579-37.726 4.406-69.38 10.637-91.542 18.019-5.785 1.927-10.903 3.93-15.393 6.013 11.208-16.092 32.664-31.252 62.48-43.64 48.123-19.995 112.27-31.007 180.621-31.007 66.346 0 120.994 10.607 158.037 30.675 21.038 11.398 35.709 25.383 43.544 41.265-9.574-5.313-22.298-9.959-38.162-13.905-38.72-9.633-95.229-14.724-163.42-14.724-37.909 0-74.474 1.517-108.678 4.509-4.127.361-7.179 3.999-6.818 8.125.362 4.126 4.004 7.181 8.125 6.817 33.771-2.954 69.896-4.452 107.371-4.452 66.988 0 122.246 4.938 159.799 14.28 23.412 5.825 48.429 16.169 48.429 27.733 0 11.566-25.016 21.91-48.428 27.735z"/><path d="m245.002 367.269c4.143 0 7.5-3.358 7.5-7.5v-13.774c0-4.142-3.357-7.5-7.5-7.5s-7.5 3.358-7.5 7.5v13.774c0 4.142 3.357 7.5 7.5 7.5z"/><path d="m271.51 367.269c4.143 0 7.5-3.358 7.5-7.5v-13.774c0-4.142-3.357-7.5-7.5-7.5s-7.5 3.358-7.5 7.5v13.774c0 4.142 3.357 7.5 7.5 7.5z"/><path d="m298.018 367.269c4.143 0 7.5-3.358 7.5-7.5v-13.774c0-4.142-3.357-7.5-7.5-7.5s-7.5 3.358-7.5 7.5v13.774c0 4.142 3.357 7.5 7.5 7.5z"/></g></svg>