<?xml version="1.0" encoding="iso-8859-1"?>
<!-- Generator: Adobe Illustrator 19.0.0, SVG Export Plug-In . SVG Version: 6.00 Build 0)  -->
<svg version="1.1" id="Capa_1" xmlns="http://www.w3.org/2000/svg" xmlns:xlink="http://www.w3.org/1999/xlink" x="0px" y="0px"
	 viewBox="0 0 512 512" style="enable-background:new 0 0 512 512;" xml:space="preserve">
<path style="fill:#D2957D;" d="M347.855,345.985c21.741-13.314,40.587-31.578,54.5-52.82c18.091-27.62,27.653-59.669,27.653-92.683
	c0-94.45-78.06-171.29-174.009-171.29S81.99,106.032,81.99,200.482c0,33.014,9.563,65.063,27.654,92.683
	c13.914,21.242,32.759,39.507,54.5,52.82c1.909,1.169,2.809,3.465,2.201,5.621c-0.607,2.155-2.573,3.644-4.813,3.644H153
	c-17.645,0-32,14.355-32,32V499.5c0,2.757,2.243,5,5,5h260c2.757,0,5-2.243,5-5V387.25c0-17.645-14.355-32-32-32h-8.533
	c-2.239,0-4.205-1.488-4.813-3.644C345.047,349.451,345.946,347.155,347.855,345.985z M256,337.804
	c-61.957,0-112.362-50.405-112.362-112.362c0-42.472,23.688-79.512,58.545-98.611C203.758,112.86,215.608,102,230,102h52
	c14.392,0,26.242,10.86,27.816,24.831c34.857,19.099,58.545,56.14,58.545,98.611C368.362,287.399,317.956,337.804,256,337.804z"/>
<path style="fill:#FFC7A9;" d="M309.816,126.831c0.117,1.041,0.184,2.097,0.184,3.169c0,15.464-12.536,28-28,28h-52
	c-15.464,0-28-12.536-28-28c0-1.072,0.066-2.128,0.184-3.169c-34.857,19.099-58.545,56.14-58.545,98.611
	c0,61.956,50.405,112.362,112.362,112.362s112.362-50.405,112.362-112.362C368.362,182.971,344.673,145.93,309.816,126.831z"/>
<path style="opacity:0.15;fill:#490089;enable-background:new    ;" d="M209.885,316.861C183.685,295.049,167,262.199,167,225.442
	c0-33.765,14.076-64.238,36.675-85.885C202.592,136.575,202,133.356,202,130c0-1.071,0.061-2.127,0.179-3.166
	c-34.854,19.1-58.54,56.139-58.54,98.609c0,51.247,34.488,94.581,81.472,108.033C218.935,329.084,213.732,323.419,209.885,316.861z"
	/>
<path style="fill:#FB8276;" d="M304.003,284.479h-96.006c-3,0-5.434,2.433-5.434,5.434c0,15.544,6.687,29.542,17.319,39.313
	c9.519-8.746,22.203-14.096,36.118-14.096s26.599,5.351,36.118,14.096c10.632-9.771,17.319-23.769,17.319-39.313
	C309.436,286.912,307.003,284.479,304.003,284.479z"/>
<g style="opacity:0.15;">
	<path style="fill:#330068;" d="M236.54,318.806c-5.39-8.336-8.54-18.247-8.54-28.893c0-3.001,2.433-5.434,5.434-5.434h-25.437
		c-3,0-5.434,2.433-5.434,5.434c0,15.544,6.687,29.542,17.319,39.313C224.706,324.794,230.344,321.239,236.54,318.806z"/>
</g>
<path style="fill:#EF5050;" d="M256,315.129c-13.922,0-26.613,5.356-36.133,14.11c1.661,1.527,3.423,2.943,5.266,4.253
	c9.811,2.807,20.166,4.312,30.867,4.312s21.056-1.505,30.867-4.312c1.843-1.31,3.605-2.726,5.266-4.253
	C282.613,320.485,269.922,315.129,256,315.129z"/>
<path style="fill:#775436;" d="M114.999,100.229c13.78-18.727,31.305-34.614,51.492-46.583C166.299,28.129,145.562,7.5,120,7.5
	C94.319,7.5,73.5,28.319,73.5,54C73.5,77.99,91.67,97.733,114.999,100.229z"/>
<path style="fill:#D2957D;" d="M120,75.877c-12.063,0-21.877-9.814-21.877-21.877S107.937,32.124,120,32.124
	c12.062,0,21.876,9.814,21.876,21.876S132.062,75.877,120,75.877z"/>
<path style="fill:#775436;" d="M397.001,100.229C420.329,97.733,438.5,77.991,438.5,54c0-25.681-20.819-46.5-46.5-46.5
	c-25.562,0-46.299,20.628-46.491,46.146C365.695,65.614,383.221,81.502,397.001,100.229z"/>
<path style="fill:#D2957D;" d="M392,75.877c-12.063,0-21.877-9.814-21.877-21.877S379.938,32.124,392,32.124
	S413.876,41.938,413.876,54S404.063,75.877,392,75.877z"/>
<path style="fill:#FFFFFF;" d="M282,102h-15.5c6.627,0,12,5.373,12,12s-5.373,12-12,12h-21c-6.627,0-12-5.373-12-12s5.373-12,12-12
	H230c-15.464,0-28,12.536-28,28s12.536,28,28,28h52c15.464,0,28-12.536,28-28S297.464,102,282,102z"/>
<path style="fill:#775436;" d="M334,504.5V470c0-43.078-34.922-78-78-78s-78,34.922-78,78v34.5H334z"/>
<g style="opacity:0.15;">
	<path style="fill:#3D0072;" d="M271,393.457c-4.855-0.946-9.868-1.456-15-1.456c-43.078,0-78,34.922-78,78v34.5h30V470
		C208,432.055,235.101,400.452,271,393.457z"/>
</g>
<g>
	<ellipse style="fill:#046699;" cx="204.67" cy="228.53" rx="13.477" ry="13.529"/>
	<ellipse style="fill:#046699;" cx="307.33" cy="228.53" rx="13.477" ry="13.529"/>
</g>
<path style="opacity:0.15;fill:#490089;enable-background:new    ;" d="M232,130c0-4.057,0.87-7.908,2.421-11.388
	c-0.592-1.42-0.921-2.977-0.921-4.612c0-6.627,5.373-12,12-12H230c-15.464,0-28,12.536-28,28s12.536,28,28,28h30
	C244.536,158,232,145.464,232,130z"/>
<path style="fill:#775436;" d="M278.5,114c0,6.627-5.373,12-12,12h-21c-6.627,0-12-5.373-12-12l0,0c0-6.627,5.373-12,12-12h21
	C273.127,102,278.5,107.373,278.5,114L278.5,114z"/>
<path d="M446,54c0-29.776-24.224-54-54-54c-25.556,0-47.005,17.85-52.574,41.734c-5.415-2.766-10.976-5.291-16.692-7.524
	c-3.86-1.506-8.207,0.399-9.715,4.256c-1.507,3.858,0.398,8.208,4.256,9.715c30.674,11.984,56.863,32.499,75.737,59.324
	c19.297,27.427,29.497,59.578,29.497,92.977c0,31.55-9.138,62.178-26.427,88.574c-13.309,20.32-31.34,37.794-52.143,50.534
	c-4.751,2.91-7.014,8.688-5.503,14.051c1.512,5.363,6.459,9.109,12.031,9.109H359c13.509,0,24.5,10.991,24.5,24.5V497h-42v-27
	c0-47.145-38.355-85.5-85.5-85.5s-85.5,38.355-85.5,85.5v27h-42v-40c0-4.142-3.358-7.5-7.5-7.5s-7.5,3.358-7.5,7.5v42.5
	c0,6.893,5.607,12.5,12.5,12.5h260c6.893,0,12.5-5.607,12.5-12.5V387.25c0-21.78-17.72-39.5-39.5-39.5h-0.056
	c19.655-13.369,36.722-30.684,49.685-50.475c18.893-28.844,28.879-62.314,28.879-96.792c0-34.016-9.681-66.84-28.059-95.404
	C430.685,97.806,446,77.669,446,54z M326.5,497h-141v-27c0-38.874,31.626-70.5,70.5-70.5s70.5,31.626,70.5,70.5V497z M392,15
	c21.505,0,39,17.495,39,39c0,18.672-13.192,34.313-30.744,38.112c-2.323-2.998-4.719-5.928-7.214-8.762
	c15.717-0.552,28.335-13.501,28.335-29.35c0-16.198-13.178-29.376-29.376-29.376S362.624,37.802,362.624,54
	c0,0.637,0.027,1.267,0.068,1.894c-3.075-2.205-6.219-4.317-9.432-6.329C355.469,30.142,371.996,15,392,15z M377.623,54
	c0-7.927,6.449-14.376,14.377-14.376c7.927,0,14.376,6.449,14.376,14.376S399.927,68.377,392,68.377S377.623,61.927,377.623,54z"/>
<path d="M153.055,347.75H153c-21.78,0-39.5,17.72-39.5,39.5V416c0,4.142,3.358,7.5,7.5,7.5s7.5-3.358,7.5-7.5v-28.75
	c0-13.509,10.991-24.5,24.5-24.5h8.533c5.572,0,10.52-3.746,12.031-9.109s-0.752-11.141-5.504-14.051
	c-20.801-12.738-38.831-30.212-52.142-50.533c-17.289-26.396-26.428-57.024-26.428-88.574c0-90.314,74.696-163.79,166.509-163.79
	c6.075,0,12.198,0.327,18.2,0.971c4.115,0.44,7.816-2.539,8.257-6.657c0.442-4.118-2.538-7.815-6.657-8.257
	c-6.531-0.701-13.193-1.057-19.801-1.057c-30.061,0-58.434,7.243-83.427,20.039C167.003,17.849,145.555,0,120,0
	C90.224,0,66,24.224,66,54c0,23.672,15.319,43.811,36.558,51.081c-17.766,27.626-28.067,60.349-28.067,95.401
	c0,34.478,9.986,67.948,28.88,96.792C116.334,317.067,133.402,334.382,153.055,347.75z M120,68.377
	c-7.927,0-14.377-6.449-14.377-14.377s6.45-14.376,14.377-14.376S134.376,46.073,134.376,54S127.927,68.377,120,68.377z M81,54
	c0-21.505,17.495-39,39-39c20.013,0,36.544,15.154,38.744,34.588c-3.215,2.018-6.358,4.138-9.432,6.345
	c0.042-0.639,0.064-1.284,0.064-1.933c0-16.198-13.178-29.376-29.376-29.376S90.623,37.802,90.623,54
	c0,15.855,12.629,28.81,28.355,29.351c-2.506,2.841-4.916,5.767-7.239,8.761C94.19,88.311,81,72.67,81,54z"/>
<path d="M247.408,224.092c-4.142,0-7.5,3.358-7.5,7.5v19.071c0,9.649,7.283,17.5,16.235,17.5h8.735c4.142,0,7.5-3.358,7.5-7.5
	s-3.358-7.5-7.5-7.5h-8.735c-0.298,0-1.235-0.914-1.235-2.5v-19.071C254.908,227.45,251.55,224.092,247.408,224.092z"/>
<path d="M231.631,200.303c2.929-2.929,2.929-7.678,0-10.606c-7.205-7.206-16.78-11.174-26.959-11.174s-19.753,3.968-26.959,11.174
	c-2.929,2.929-2.928,7.678,0.001,10.607c2.93,2.929,7.678,2.928,10.607-0.001c4.372-4.372,10.179-6.78,16.352-6.78
	s11.98,2.408,16.353,6.78c1.464,1.464,3.384,2.197,5.303,2.197C228.248,202.499,230.167,201.767,231.631,200.303z"/>
<path d="M334.287,200.303c2.929-2.929,2.929-7.678,0-10.606c-7.206-7.206-16.78-11.174-26.96-11.174
	c-10.179,0-19.753,3.968-26.959,11.174c-2.929,2.929-2.928,7.678,0,10.607c2.93,2.929,7.678,2.928,10.607-0.001
	c4.372-4.372,10.179-6.78,16.352-6.78s11.98,2.408,16.353,6.78c1.464,1.464,3.384,2.197,5.303,2.197
	S332.822,201.767,334.287,200.303z"/>
<path d="M204.673,207.5c-11.567,0-20.978,9.434-20.978,21.029c0,11.596,9.411,21.029,20.978,21.029
	c11.566,0,20.976-9.434,20.976-21.029S216.239,207.5,204.673,207.5z M204.673,234.558c-3.296,0-5.978-2.705-5.978-6.029
	s2.682-6.029,5.978-6.029c3.295,0,5.976,2.705,5.976,6.029C210.649,231.854,207.968,234.558,204.673,234.558z"/>
<path d="M307.328,207.5c-11.567,0-20.978,9.434-20.978,21.029c0,11.596,9.411,21.029,20.978,21.029
	c11.566,0,20.977-9.434,20.977-21.029S318.895,207.5,307.328,207.5z M307.328,234.558c-3.296,0-5.978-2.705-5.978-6.029
	s2.682-6.029,5.978-6.029c3.295,0,5.977,2.705,5.977,6.029C313.305,231.854,310.623,234.558,307.328,234.558z"/>
<path d="M282,94.5h-52c-16.854,0-30.992,11.81-34.6,27.586c-35.425,20.849-59.262,59.363-59.262,103.356
	c0,66.092,53.77,119.862,119.862,119.862c33.627,0,65.935-14.308,88.641-39.256c2.788-3.063,2.565-7.807-0.499-10.595
	c-3.063-2.788-7.807-2.564-10.595,0.499c-6.41,7.043-13.698,13.111-21.613,18.108c3.214-7.408,5.002-15.571,5.002-24.147
	c0-7.132-5.802-12.934-12.934-12.934h-96.006c-7.132,0-12.934,5.802-12.934,12.934c0,8.597,1.796,16.78,5.025,24.202
	c-29.392-18.599-48.95-51.393-48.95-88.673c0-35.448,17.691-66.83,44.698-85.818C200.043,154.536,213.761,165.5,230,165.5h52
	c16.239,0,29.956-10.964,34.164-25.876c27.006,18.988,44.698,50.37,44.698,85.819c0,13.39-2.499,26.435-7.429,38.774
	c-1.537,3.847,0.336,8.21,4.182,9.748c3.849,1.537,8.211-0.335,9.748-4.182c5.64-14.118,8.5-29.036,8.5-44.34
	c0-43.993-23.837-82.507-59.262-103.356C312.992,106.31,298.854,94.5,282,94.5z M256,330.304c-7.404,0-14.629-0.776-21.603-2.243
	c6.599-3.534,13.99-5.432,21.603-5.432c7.599,0,14.976,1.89,21.564,5.411C270.52,329.532,263.296,330.304,256,330.304z
	 M301.891,291.979c-0.457,10.256-4.301,19.641-10.427,27.081c-10.306-7.405-22.65-11.431-35.463-11.431
	c-12.814,0-25.158,4.026-35.463,11.431c-6.126-7.44-9.971-16.825-10.427-27.081H301.891z M245.5,109.5h21c2.481,0,4.5,2.019,4.5,4.5
	s-2.019,4.5-4.5,4.5h-21c-2.481,0-4.5-2.019-4.5-4.5S243.019,109.5,245.5,109.5z M282,150.5h-52c-11.304,0-20.5-9.196-20.5-20.5
	c0-10.098,7.346-18.494,16.971-20.174C226.174,111.172,226,112.564,226,114c0,10.752,8.748,19.5,19.5,19.5h21
	c10.752,0,19.5-8.748,19.5-19.5c0-1.436-0.174-2.828-0.471-4.174c9.625,1.68,16.971,10.076,16.971,20.174
	C302.5,141.304,293.304,150.5,282,150.5z"/>
<path d="M188.5,108V97.862c0-4.142-3.358-7.5-7.5-7.5s-7.5,3.358-7.5,7.5V108c0,4.142,3.358,7.5,7.5,7.5S188.5,112.142,188.5,108z"
	/>
<path d="M338.5,108V97.862c0-4.142-3.358-7.5-7.5-7.5s-7.5,3.358-7.5,7.5V108c0,4.142,3.358,7.5,7.5,7.5S338.5,112.142,338.5,108z"
	/>
<g>
</g>
<g>
</g>
<g>
</g>
<g>
</g>
<g>
</g>
<g>
</g>
<g>
</g>
<g>
</g>
<g>
</g>
<g>
</g>
<g>
</g>
<g>
</g>
<g>
</g>
<g>
</g>
<g>
</g>
</svg>
