<?xml version="1.0" encoding="iso-8859-1"?>
<!-- Generator: Adobe Illustrator 19.0.0, SVG Export Plug-In . SVG Version: 6.00 Build 0)  -->
<svg version="1.1" id="Capa_1" xmlns="http://www.w3.org/2000/svg" xmlns:xlink="http://www.w3.org/1999/xlink" x="0px" y="0px"
	 viewBox="0 0 512 512" style="enable-background:new 0 0 512 512;" xml:space="preserve">
<g>
	<path style="fill:#FFC502;" d="M192.771,341.964c0-1.65,1.258-2.509,2.794-1.909l27.934,10.906v-24.114
		c-39.96-13.539-68.72-51.355-68.72-95.889V197.81c-5.892-2.956-11.416-6.765-16.424-11.32c-9.331,8.643-16.216,20.104-19.16,33.436
		c-5.722,25.917,4.741,52.356,26.656,67.359c4.918,3.367,6.687,9.791,4.185,15.2c-1.978,4.275-3.489,8.743-4.49,13.278
		c-3.916,17.739-0.1,35.408,9.176,49.503c4.505-2.706,9.773-4.266,15.399-4.266h22.648v-19.036H192.771z"/>
	<path style="fill:#FFC502;" d="M366.147,287.285c21.915-15.003,32.378-41.442,26.656-67.359
		c-3.618-16.389-13.194-29.953-25.946-38.926h-9.638v49.958c0,44.534-28.76,82.35-68.72,95.889v24.114l27.934-10.905
		c1.537-0.6,2.795,0.259,2.795,1.909V361h22.649c5.627,0,10.895,1.56,15.399,4.266c9.276-14.095,13.093-31.764,9.177-49.503
		c-1.001-4.535-2.513-9.003-4.489-13.278C359.46,297.076,361.229,290.651,366.147,287.285z"/>
</g>
<path style="fill:#FFB98A;" d="M239.601,357.247c0.563,0.22,1.086,0.608,1.526,1.091h29.745c0.439-0.482,0.963-0.871,1.526-1.091
	l16.102-6.286v-24.114c-10.201,3.456-21.132,5.331-32.5,5.331c-11.369,0-22.299-1.875-32.5-5.331v24.114L239.601,357.247z"/>
<path style="fill:#693FBA;" d="M341.877,361h-22.649v46c0,1.65-1.258,2.509-2.795,1.909l-44.035-17.192
	c-0.563-0.22-1.087-0.608-1.527-1.091h-29.743c-0.44,0.482-0.964,0.871-1.527,1.091l-44.035,17.192
	c-1.537,0.6-2.794-0.259-2.794-1.909v-46h-22.648c-16.541,0-30,13.458-30,30v108.5c0,2.762,2.238,5,5,5h221.754c2.762,0,5-2.238,5-5
	V391C371.877,374.458,358.418,361,341.877,361z"/>
<path style="fill:#203A74;" d="M304.814,404.373l-17.352-6.774L264.69,443.92l42.819-7.101c2.713-0.45,4.405-3.005,3.76-5.678
	L304.814,404.373z"/>
<path style="opacity:0.15;fill:#0B0016;enable-background:new    ;" d="M169.246,499.5v-19.157h-0.441c-1.65,0-3-1.35-3-3v-13.687
	c0-1.65,1.35-3,3-3h0.441V391c0-14.319,10.087-26.319,23.525-29.289V361h-22.648c-16.541,0-30,13.458-30,30v108.5
	c0,2.762,2.238,5,5,5h29.123C171.484,504.5,169.246,502.262,169.246,499.5z"/>
<path style="fill:#203A74;" d="M224.538,397.598l-17.351,6.774l-6.457,26.767c-0.645,2.673,1.047,5.229,3.76,5.678l42.818,7.101
	L224.538,397.598z"/>
<path style="fill:#C0272D;" d="M316.434,340.055l-44.035,17.191c-0.563,0.22-1.087,0.608-1.526,1.091h5.823v32.289h-5.824h-29.743
	h-6.735v-32.289h6.735c-0.44-0.482-0.963-0.871-1.526-1.091l-44.035-17.191c-1.537-0.6-2.794,0.259-2.794,1.909V407
	c0,1.65,1.258,2.509,2.794,1.909l28.972-11.312l31.462,64l31.462-64l28.972,11.311c1.537,0.6,2.795-0.259,2.795-1.909v-65.036
	C319.228,340.315,317.971,339.455,316.434,340.055z"/>
<path style="fill:#FFFFFF;" d="M272.398,391.717c-0.563-0.22-1.087-0.608-1.527-1.091h-29.743c-0.44,0.482-0.964,0.871-1.527,1.091
	l-15.063,5.881l31.462,64l31.462-64L272.398,391.717z"/>
<path style="fill:#FFC7A9;" d="M277.617,181c-9.556,10.689-21.838,18.561-35.978,22.056c-12.464,3.081-24.896,2.397-36.357-1.361
	c-1.552,0.506-3.125,0.965-4.726,1.361c-15.969,3.948-31.888,1.72-45.776-5.246v33.148c0,55.902,45.318,101.22,101.22,101.22
	s101.22-45.317,101.22-101.22V181H277.617z"/>
<path style="opacity:0.15;fill:#490089;enable-background:new    ;" d="M183.56,230.958v-25.972
	c-10.082-0.178-19.851-2.692-28.78-7.17v33.143c0,55.902,45.318,101.22,101.22,101.22c4.886,0,9.689-0.354,14.391-1.023
	C221.306,324.168,183.56,281.974,183.56,230.958z"/>
<path style="fill:#FFC502;" d="M236.535,181c-8.474,9.48-19.096,16.735-31.253,20.695c11.461,3.758,23.893,4.442,36.357,1.361
	c14.14-3.496,26.422-11.367,35.978-22.056H236.535z"/>
<path style="fill:#693FBA;" d="M405,176c0,2.75-2.25,5-5,5H112c-2.75,0-5-2.25-5-5v-14c0-2.75,2.25-5,5-5h288c2.75,0,5,2.25,5,5V176
	z"/>
<path style="fill:#FFC502;" d="M132.887,181c17.163,19.068,42.356,28.314,67.67,22.056c14.14-3.496,26.423-11.367,35.979-22.056
	H132.887z"/>
<g>
	<ellipse style="fill:#046699;" cx="207.48" cy="229.53" rx="13.477" ry="13.529"/>
	<ellipse style="fill:#046699;" cx="304.52" cy="229.53" rx="13.477" ry="13.529"/>
</g>
<path style="fill:#42238E;" d="M348.361,124.18V12.5c0-2.75-2.25-5-5-5H168.639c-2.75,0-5,2.25-5,5v111.68H348.361z"/>
<path style="opacity:0.15;fill:#0B0016;enable-background:new    ;" d="M192.277,124.18V12.5c0-2.75,2.25-5,5-5h-28.638
	c-2.75,0-5,2.25-5,5v111.68H192.277z"/>
<path style="fill:#9EA7AF;" d="M357.097,157v-27.82c0-2.75-2.25-5-5-5H159.902c-2.75,0-5,2.25-5,5V157H357.097z"/>
<path style="opacity:0.15;fill:#490089;enable-background:new    ;" d="M184,157v-27.82c0-2.75,2.25-5,5-5h-29.098
	c-2.75,0-5,2.25-5,5V157H184z"/>
<g style="opacity:0.15;">
	<path style="fill:#0B0016;" d="M137,176v-14c0-2.75,2.25-5,5-5h-30c-2.75,0-5,2.25-5,5v14c0,2.75,2.25,5,5,5h30
		C139.25,181,137,178.75,137,176z"/>
</g>
<g>
	<path style="fill:#C0272D;" d="M316.434,340.055l-44.035,17.191c-0.563,0.22-1.087,0.608-1.526,1.091h5.823v32.289h-5.824
		c0.44,0.482,0.964,0.871,1.527,1.091l44.035,17.192c1.537,0.6,2.795-0.259,2.795-1.909v-65.036
		C319.228,340.315,317.971,339.455,316.434,340.055z"/>
	<path style="fill:#C0272D;" d="M234.393,390.626v-32.289h6.735c-0.44-0.482-0.963-0.871-1.526-1.091l-44.035-17.191
		c-1.537-0.6-2.794,0.259-2.794,1.909V407c0,1.65,1.258,2.509,2.794,1.909l44.035-17.192c0.563-0.22,1.087-0.608,1.527-1.091
		H234.393z"/>
</g>
<rect x="234.39" y="358.34" style="fill:#EF5050;" width="42.3" height="32.29"/>
<path style="fill:#42238E;" d="M225.321,477.343c0,1.65-1.35,3-3,3h-53.516c-1.65,0-3-1.35-3-3v-13.687c0-1.65,1.35-3,3-3h53.516
	c1.65,0,3,1.35,3,3L225.321,477.343L225.321,477.343z"/>
<path d="M256.143,269.558h8.734c4.142,0,7.5-3.358,7.5-7.5s-3.358-7.5-7.5-7.5h-8.734c-0.298,0-1.235-0.914-1.235-2.5V230.2
	c0-4.142-3.358-7.5-7.5-7.5s-7.5,3.358-7.5,7.5v21.858C239.908,261.707,247.19,269.558,256.143,269.558z"/>
<path d="M304.523,208.5c-11.567,0-20.978,9.433-20.978,21.028c0,11.596,9.41,21.029,20.978,21.029
	c11.566,0,20.977-9.434,20.977-21.029C325.5,217.933,316.09,208.5,304.523,208.5z M304.523,235.558
	c-3.296,0-5.978-2.705-5.978-6.029s2.682-6.028,5.978-6.028c3.296,0,5.977,2.704,5.977,6.028S307.819,235.558,304.523,235.558z"/>
<path d="M400,149.5h-35.403v-20.32c0-5.581-3.677-10.317-8.735-11.918V12.5c0-6.893-5.607-12.5-12.5-12.5H168.639
	c-6.893,0-12.5,5.607-12.5,12.5v104.762c-5.059,1.601-8.737,6.337-8.737,11.919v20.32H112c-6.893,0-12.5,5.607-12.5,12.5v14
	c0,6.893,5.607,12.5,12.5,12.5h14.249c-6.84,8.425-11.881,18.51-14.376,29.809c-6.385,28.921,5.29,58.425,29.743,75.165
	c1.904,1.303,2.583,3.769,1.614,5.863c-1.092,2.361-2.067,4.803-2.898,7.258c-1.329,3.923,0.774,8.181,4.698,9.509
	c3.925,1.332,8.182-0.775,9.509-4.698c0.661-1.952,1.436-3.894,2.305-5.772c4.055-8.763,1.214-19.083-6.754-24.538
	c-19.377-13.264-28.628-36.64-23.569-59.553c2.097-9.497,6.457-17.917,12.388-24.826c2.689,2.047,5.487,3.902,8.372,5.573v28.668
	c0,45.831,28.507,85.128,68.72,101.095v7.929l-17.706-6.913c-1.198-0.468-2.435-0.705-3.677-0.705c-5.241,0-9.346,4.217-9.346,9.601
	V353.5h-15.148c-4.334,0-8.494,0.748-12.37,2.106c-1.705-3.355-3.104-6.905-4.141-10.622c-1.114-3.989-5.248-6.32-9.24-5.208
	c-3.99,1.114-6.321,5.25-5.208,9.24c1.402,5.023,3.328,9.803,5.693,14.299c-7.513,6.862-12.234,16.732-12.234,27.685v108.5
	c0,6.893,5.607,12.5,12.5,12.5h221.754c6.892,0,12.5-5.607,12.5-12.5V478c0-4.142-3.358-7.5-7.5-7.5c-4.143,0-7.5,3.358-7.5,7.5v19
	h-81.954c0.046-0.331,0.077-0.664,0.077-1c0-1.97-0.8-3.91-2.2-5.3c-1.39-1.4-3.33-2.2-5.3-2.2c-1.981,0-3.91,0.8-5.3,2.2
	c-1.4,1.4-2.2,3.33-2.2,5.3c0,0.336,0.031,0.669,0.077,1H263.5v-33.659l6.221-12.654l39.016-6.47
	c3.342-0.554,6.318-2.473,8.167-5.265c1.848-2.791,2.452-6.281,1.657-9.571l-3.132-12.982c0.646,0.131,1.299,0.201,1.953,0.201
	c5.241,0,9.347-4.217,9.347-9.6v-38.5h15.149c12.406,0,22.5,10.093,22.5,22.5v48c0,4.142,3.357,7.5,7.5,7.5
	c4.142,0,7.5-3.358,7.5-7.5v-48c0-10.965-4.73-20.844-12.258-27.707c7.688-14.58,10.48-31.83,6.658-49.146
	c-1.116-5.057-2.801-10.04-5.008-14.812c-0.968-2.093-0.289-4.558,1.614-5.861c24.453-16.74,36.129-46.244,29.743-75.165
	c-2.469-11.18-7.547-21.305-14.487-29.809H400c6.893,0,12.5-5.607,12.5-12.5v-14C412.5,155.107,406.893,149.5,400,149.5z
	 M171.139,15h169.722v101.68H171.139V15z M162.402,131.68h187.194v17.82H162.402V131.68z M207.477,223.5
	c3.295,0,5.976,2.704,5.976,6.028c0,3.325-2.681,6.029-5.976,6.029c-3.296,0-5.977-2.705-5.977-6.029S204.182,223.5,207.477,223.5z
	 M198.756,195.775c-4.63,1.145-9.357,1.725-14.05,1.725c-11.057,0-21.769-3.189-31.259-9h62.591
	C210.655,191.804,204.852,194.269,198.756,195.775z M231,336.772c8.03,1.896,16.399,2.905,25,2.905c8.585,0,16.956-1.018,25-2.929
	v9.088l-11.329,4.423c-0.424,0.165-0.835,0.359-1.234,0.577h-24.874c-0.399-0.218-0.81-0.412-1.234-0.577L231,345.837V336.772z
	 M311.728,399.021l-27.533-10.749v-27.579l27.533-10.749V399.021z M213.56,409.935l7.287-2.845l13.294,27.043l-25.401-4.213
	L213.56,409.935z M242.328,398.704c0.424-0.166,0.837-0.36,1.236-0.578h24.872c0.4,0.218,0.812,0.412,1.235,0.577l7.46,2.913
	L256,444.598l-21.13-42.982L242.328,398.704z M241.893,383.126v-17.289h27.303v17.289H241.893z M200.271,349.943l26.621,10.393
	v28.291l-26.621,10.393V349.943z M147.623,497V391c0-12.407,10.093-22.5,22.5-22.5h15.148V407c0,5.383,4.105,9.6,9.346,9.6
	c0.001,0,0.001,0,0.001,0c0.654,0,1.307-0.07,1.953-0.201l-3.131,12.981c-0.795,3.292-0.19,6.781,1.658,9.572
	c1.849,2.792,4.825,4.71,8.166,5.264l39.016,6.47l6.221,12.654V497H147.623z M277.858,434.133l13.295-27.043l7.287,2.845
	l4.82,19.985L277.858,434.133z M361.911,281.096c-7.97,5.456-10.81,15.776-6.755,24.537c1.753,3.791,3.09,7.743,3.974,11.747
	c2.966,13.436,0.901,26.821-4.905,38.219c-3.869-1.354-8.023-2.099-12.348-2.099h-15.149v-11.536c0-5.383-4.105-9.601-9.347-9.601
	c-1.241,0-2.478,0.237-3.676,0.705L296,339.981v-7.973c37.806-15.063,65.526-50.795,68.461-93.495
	c0.284-4.132-2.836-7.712-6.968-7.997c-4.146-0.288-7.713,2.835-7.997,6.968c-3.36,48.893-44.429,87.192-93.496,87.192
	c-51.677,0-93.72-42.042-93.72-93.72v-21.997c7.203,2.311,14.739,3.539,22.425,3.539h0.001c4.019,0,8.052-0.345,12.05-1.013
	c-6.13,3.675-10.256,10.376-10.256,18.042c0,11.596,9.411,21.029,20.977,21.029c11.566,0,20.976-9.434,20.976-21.029
	c0-7.184-3.617-13.532-9.116-17.327c2.137,0.19,4.287,0.298,6.451,0.298h0.001c5.905,0,11.844-0.727,17.65-2.163
	c14.151-3.498,26.989-11.069,37.414-21.837h68.866V199c0,4.142,3.357,7.5,7.5,7.5s7.5-3.358,7.5-7.5v-10.163
	c10.255,7.995,17.826,19.415,20.761,32.705C390.539,244.456,381.287,267.832,361.911,281.096z M229.69,197.357
	c3.561-2.645,6.931-5.604,10.081-8.857h17.35c-5.383,3.304-11.186,5.769-17.282,7.275
	C236.491,196.603,233.091,197.126,229.69,197.357z M397.5,173.5h-283v-9h283V173.5z"/>
<path d="M298.767,267.97c-3.95-1.248-8.163,0.947-9.408,4.898c-2.275,7.219-7.22,13.116-13.922,16.605
	c-6.7,3.49-14.368,4.159-21.588,1.882c-3.95-1.247-8.163,0.948-9.408,4.898c-1.246,3.95,0.947,8.163,4.898,9.408
	c4.301,1.356,8.705,2.028,13.087,2.028c6.867,0,13.678-1.651,19.938-4.911c10.257-5.339,17.821-14.36,21.302-25.4
	C304.91,273.427,302.717,269.215,298.767,267.97z"/>
<path d="M269.7,465.2c-1.4,1.4-2.2,3.33-2.2,5.3s0.8,3.9,2.2,5.3c1.39,1.4,3.319,2.2,5.3,2.2c1.97,0,3.91-0.8,5.3-2.2
	c1.4-1.4,2.2-3.33,2.2-5.3s-0.8-3.91-2.2-5.3c-1.39-1.4-3.33-2.2-5.3-2.2C273.019,463,271.09,463.8,269.7,465.2z"/>
<path d="M222.321,453.157h-53.516c-5.79,0-10.5,4.71-10.5,10.5v13.687c0,5.79,4.71,10.5,10.5,10.5h53.516
	c5.79,0,10.5-4.71,10.5-10.5v-13.687C232.821,457.867,228.11,453.157,222.321,453.157z M217.821,472.843h-44.516v-4.687h44.516
	L217.821,472.843L217.821,472.843z"/>
<g>
</g>
<g>
</g>
<g>
</g>
<g>
</g>
<g>
</g>
<g>
</g>
<g>
</g>
<g>
</g>
<g>
</g>
<g>
</g>
<g>
</g>
<g>
</g>
<g>
</g>
<g>
</g>
<g>
</g>
</svg>
