<svg id="Capa_1" enable-background="new 0 0 511.992 511.992" height="512" viewBox="0 0 511.992 511.992" width="512" xmlns="http://www.w3.org/2000/svg"><g><path d="m352.682 238.417h-79.912v-14.199c0-18.5 14.997-33.497 33.497-33.497h12.918c18.5 0 33.497 14.997 33.497 33.497z" fill="#655e67"/><path d="m386.298 303.749h-147.144v-49.246c0-18.5 14.997-33.497 33.497-33.497h80.15c18.5 0 33.497 14.997 33.497 33.497z" fill="#8c818f"/><path d="m357.727 221.006h-25.589c15.78 0 28.572 12.792 28.572 28.572v54.171h25.589v-54.171c-.001-15.78-12.793-28.572-28.572-28.572z" fill="#766d78"/><path d="m504.492 336.598c0-37.185-30.144-67.329-67.329-67.329h-305.591c-11.471 0-22.843 2.118-33.544 6.249-26.707 10.308-47.192 32.323-55.553 59.703l-34.76 92.922c-.982 3.214 1.423 6.463 4.784 6.463h14.224c20.808 0 28.685-58.602 107.377-58.602l30.736 8.199c83.29 22.217 194.025 28.768 279.707 19.319 34.122-3.763 59.949-32.595 59.949-66.924z" fill="#8c818f"/><path d="m437.163 269.269h-30c37.185 0 67.329 30.144 67.329 67.329 0 33.985-25.318 62.567-58.932 66.787v2.663c9.915-.65 19.6-1.492 28.983-2.527 34.122-3.763 59.949-32.595 59.949-66.923 0-37.185-30.144-67.329-67.329-67.329z" fill="#766d78"/><circle cx="430.431" cy="336.3" fill="#e3e0e4" r="25.124"/><circle cx="349.443" cy="336.3" fill="#e3e0e4" r="25.124"/><path d="m437.163 261.769h-43.408c.028-.262.043-.527.043-.795v-11.396c0-19.22-15.111-34.974-34.076-36.014-2.753-17.176-17.672-30.342-35.612-30.342h-3.885v-71.984c0-14.53 11.821-26.351 26.351-26.351h19.315c4.142 0 7.5-3.358 7.5-7.5s-3.358-7.5-7.5-7.5h-19.315c-22.801 0-41.351 18.55-41.351 41.351v71.984h-3.884c-17.94 0-32.858 13.166-35.611 30.342-18.965 1.04-34.076 16.794-34.076 36.014v12.191h-46.079c-4.142 0-7.5 3.358-7.5 7.5s3.358 7.5 7.5 7.5h251.587c32.99 0 59.829 26.839 59.829 59.829 0 30.554-22.902 56.12-53.272 59.469-88.238 9.731-196.95 2.229-276.952-19.111l-30.736-8.199c-.631-.168-1.28-.253-1.933-.253-55.504 0-78.163 27.468-93.158 45.645-5.497 6.664-10.689 12.958-14.22 12.958h-10.611l33.389-89.257c.054-.145.103-.29.148-.438 7.74-25.345 26.359-45.354 51.081-54.896 9.878-3.813 20.255-5.746 30.844-5.746h24.004c4.142 0 7.5-3.358 7.5-7.5s-3.358-7.5-7.5-7.5h-24.004c-12.442 0-24.637 2.272-36.245 6.752-28.979 11.185-50.821 34.607-59.957 64.285l-34.68 92.709c-.054.144-.104.29-.148.437-1.152 3.772-.439 7.918 1.908 11.089s6.104 5.065 10.049 5.065h14.224c10.602 0 17.641-8.532 25.791-18.412 13.898-16.847 32.896-39.878 80.615-40.187l29.774 7.942c57.95 15.457 130.603 23.806 200.06 23.804 28.409-.001 56.296-1.398 82.403-4.276 37.983-4.189 66.627-36.165 66.627-74.378 0-41.263-33.568-74.831-74.829-74.831zm-190.509-12.191c0-11.619 9.453-21.072 21.072-21.072h38.593c4.142 0 7.5-3.358 7.5-7.5s-3.358-7.5-7.5-7.5h-25.222c2.523-8.811 10.634-15.285 20.244-15.285h22.769c9.61 0 17.721 6.474 20.245 15.285h-12.447c-4.142 0-7.5 3.358-7.5 7.5s3.358 7.5 7.5 7.5h25.818c11.619 0 21.072 9.453 21.072 21.072v11.396c0 .269.015.534.043.795h-132.187z"/><path d="m463.055 336.3c0-17.989-14.635-32.624-32.624-32.624s-32.624 14.635-32.624 32.624 14.635 32.624 32.624 32.624c17.988 0 32.624-14.635 32.624-32.624zm-50.248 0c0-9.718 7.906-17.624 17.624-17.624s17.624 7.906 17.624 17.624-7.906 17.624-17.624 17.624-17.624-7.906-17.624-17.624z"/><path d="m382.067 336.3c0-17.989-14.635-32.624-32.624-32.624s-32.624 14.635-32.624 32.624 14.635 32.624 32.624 32.624 32.624-14.635 32.624-32.624zm-50.248 0c0-9.718 7.906-17.624 17.624-17.624s17.624 7.906 17.624 17.624-7.906 17.624-17.624 17.624-17.624-7.906-17.624-17.624z"/><path d="m280.347 340.664c4.142 0 7.5-3.358 7.5-7.5s-3.358-7.5-7.5-7.5h-24.354c-4.142 0-7.5 3.358-7.5 7.5s3.358 7.5 7.5 7.5z"/><path d="m229.196 340.664c4.142 0 7.5-3.358 7.5-7.5s-3.358-7.5-7.5-7.5h-24.354c-4.142 0-7.5 3.358-7.5 7.5s3.358 7.5 7.5 7.5z"/><path d="m146.19 333.164c0 4.142 3.358 7.5 7.5 7.5h24.355c4.142 0 7.5-3.358 7.5-7.5s-3.358-7.5-7.5-7.5h-24.355c-4.142 0-7.5 3.357-7.5 7.5z"/></g></svg>