<svg id="Capa_1" enable-background="new 0 0 512 512" height="512" viewBox="0 0 512 512" width="512" xmlns="http://www.w3.org/2000/svg"><g><path d="m446.492 470.966h-380.985c-10.031 0-18.163-8.132-18.163-18.163v-259.068c0-10.031 8.132-18.163 18.163-18.163h380.985c10.031 0 18.163 8.132 18.163 18.163v259.069c0 10.03-8.132 18.162-18.163 18.162z" fill="#faeaa3"/><path d="m446.492 175.572h-30c10.031 0 18.163 8.132 18.163 18.163v259.069c0 10.031-8.132 18.163-18.163 18.163h30c10.031 0 18.163-8.132 18.163-18.163v-259.069c0-10.031-8.132-18.163-18.163-18.163z" fill="#f8e076"/><path d="m307.695 112.042h-103.39c-8.218 0-14.88-6.662-14.88-14.88v-10.332c0-8.218 6.662-14.88 14.88-14.88h103.39c8.218 0 14.88 6.662 14.88 14.88v10.332c0 8.218-6.662 14.88-14.88 14.88z" fill="#b1abb4"/><path d="m307.695 71.95h-30c8.218 0 14.88 6.662 14.88 14.88v10.332c0 8.218-6.662 14.88-14.88 14.88h30c8.218 0 14.88-6.662 14.88-14.88v-10.332c0-8.218-6.662-14.88-14.88-14.88z" fill="#8c818f"/><path d="m322.575 175.572v-13.542c0-8.218-6.662-14.88-14.88-14.88h-103.39c-8.218 0-14.88 6.662-14.88 14.88v13.542z" fill="#b1abb4"/><path d="m307.695 147.15h-30c8.218 0 14.88 6.662 14.88 14.88v13.542h30v-13.542c0-8.218-6.662-14.88-14.88-14.88z" fill="#8c818f"/><path d="m239.79 112.042h32.419v35.108h-32.419z" fill="#9ec8fc"/><path d="m148.878 334.806h210.435v136.159h-210.435z" fill="#f5d339"/><path d="m47.345 223.548h417.31v109.435h-417.31z" fill="#bed9fd"/><path d="m329.313 334.806h30v136.159h-30z" fill="#f3c625"/><path d="m434.655 223.548h30v109.435h-30z" fill="#9ec8fc"/><path d="m75.13 418.067h-27.785v-53.898h27.785c6.538 0 11.838 5.3 11.838 11.838v30.222c0 6.538-5.3 11.838-11.838 11.838z" fill="#fff"/><circle cx="230.965" cy="64.95" fill="#655e67" r="23.916"/><circle cx="278.796" cy="64.95" fill="#655e67" r="23.916"/><path d="m504.5 64.496h-194.3c-.245-17.113-14.233-30.962-31.404-30.962-9.57 0-18.149 4.307-23.916 11.078-5.767-6.771-14.346-11.078-23.916-11.078-17.171 0-31.159 13.848-31.404 30.962h-192.06c-4.142 0-7.5 3.358-7.5 7.5s3.358 7.5 7.5 7.5h175.665c-.8 2.299-1.241 4.766-1.241 7.334v10.332c0 12.34 10.04 22.38 22.38 22.38h27.985v20.108h-27.985c-12.34 0-22.38 10.039-22.38 22.38v6.042h-38.964c-4.142 0-7.5 3.358-7.5 7.5s3.358 7.5 7.5 7.5h303.531c5.879 0 10.663 4.783 10.663 10.663v22.313h-402.309v-22.313c0-5.879 4.783-10.663 10.663-10.663h47.454c4.142 0 7.5-3.358 7.5-7.5s-3.358-7.5-7.5-7.5h-47.455c-14.15 0-25.663 11.512-25.663 25.663v259.069c0 14.15 11.512 25.663 25.663 25.663h380.985c14.15 0 25.663-11.512 25.663-25.663v-259.069c0-14.15-11.512-25.663-25.663-25.663h-116.417v-6.042c0-12.34-10.039-22.38-22.38-22.38h-27.985v-20.108h27.985c12.34 0 22.38-10.04 22.38-22.38v-10.332c0-2.568-.44-5.035-1.24-7.334h175.665c4.142 0 7.5-3.358 7.5-7.5s-3.358-7.5-7.5-7.5zm-257.905 275.987v122.983h-90.217v-122.983zm-90.217-15v-94.435h90.217v94.435zm105.217 15h90.218v122.983h-90.218zm0-15v-94.435h90.218v94.435zm-120.217-94.435v94.435h-86.533v-94.435zm-86.533 140.62h20.285c2.392 0 4.338 1.946 4.338 4.338v30.222c0 2.392-1.946 4.338-4.338 4.338h-20.285zm0 81.135v-27.237h20.285c10.663 0 19.338-8.675 19.338-19.338v-30.222c0-10.663-8.675-19.338-19.338-19.338h-20.285v-16.185h86.533v122.983h-75.871c-5.879 0-10.662-4.783-10.662-10.663zm391.647 10.663h-79.679v-122.983h49.887c4.142 0 7.5-3.358 7.5-7.5s-3.358-7.5-7.5-7.5h-49.887v-94.435h90.342v94.435h-10.455c-4.142 0-7.5 3.358-7.5 7.5s3.358 7.5 7.5 7.5h10.455v112.32c0 5.88-4.783 10.663-10.663 10.663zm-167.696-414.932c9.052 0 16.415 7.364 16.415 16.416 0 9.051-7.364 16.415-16.415 16.415-9.052 0-16.415-7.364-16.415-16.415-.001-9.052 7.363-16.416 16.415-16.416zm-47.832 0c9.052 0 16.416 7.364 16.416 16.416 0 9.051-7.364 16.415-16.416 16.415s-16.416-7.364-16.416-16.415c.001-9.052 7.365-16.416 16.416-16.416zm84.111 113.496v6.042h-118.15v-6.042c0-4.069 3.311-7.38 7.38-7.38h35.485 32.42 35.485c4.069 0 7.38 3.31 7.38 7.38zm-50.365-22.38h-17.42v-20.108h17.42zm50.365-52.82v10.332c0 4.069-3.311 7.38-7.38 7.38h-35.485-32.42-35.485c-4.069 0-7.38-3.311-7.38-7.38v-10.332c0-3.679 2.709-6.729 6.235-7.282 5.266 9.989 15.75 16.817 27.805 16.817 9.57 0 18.149-4.307 23.916-11.078 5.767 6.771 14.345 11.078 23.916 11.078 12.076 0 22.575-6.853 27.832-16.87h1.871c3.691.403 6.575 3.537 6.575 7.335z"/><path d="m209.254 372.508h9.672c4.142 0 7.5-3.358 7.5-7.5s-3.358-7.5-7.5-7.5h-9.672c-4.142 0-7.5 3.358-7.5 7.5s3.358 7.5 7.5 7.5z"/><path d="m298.937 357.508h-9.672c-4.142 0-7.5 3.358-7.5 7.5s3.358 7.5 7.5 7.5h9.672c4.142 0 7.5-3.358 7.5-7.5s-3.358-7.5-7.5-7.5z"/><path d="m435.114 401.998h-18.414c-4.142 0-7.5 3.358-7.5 7.5s3.358 7.5 7.5 7.5h18.414c4.142 0 7.5-3.358 7.5-7.5s-3.358-7.5-7.5-7.5z"/><path d="m435.114 429.882h-18.414c-4.142 0-7.5 3.358-7.5 7.5s3.358 7.5 7.5 7.5h18.414c4.142 0 7.5-3.358 7.5-7.5s-3.358-7.5-7.5-7.5z"/></g></svg>