<?xml version="1.0" encoding="iso-8859-1"?>
<!-- Generator: Adobe Illustrator 19.0.0, SVG Export Plug-In . SVG Version: 6.00 Build 0)  -->
<svg version="1.1" id="Capa_1" xmlns="http://www.w3.org/2000/svg" xmlns:xlink="http://www.w3.org/1999/xlink" x="0px" y="0px"
	 viewBox="0 0 512 512" style="enable-background:new 0 0 512 512;" xml:space="preserve">
<path style="fill:#FFB98A;" d="M338.461,355.25h-90.633v-28.482c-10.266,3.505-21.272,5.41-32.725,5.41
	c-11.451,0-22.458-1.904-32.723-5.41v28.481H91.747c-8.25,0-15,6.75-15,15V494.5c0,5.5,4.5,10,10,10h256.715c5.5,0,10-4.5,10-10
	V370.25C353.461,362,346.711,355.25,338.461,355.25z"/>
<g>
	<path style="fill:#046699;" d="M422.23,125.953h-94.822v20.753c0,2.924-2.366,5.294-5.286,5.294H422.23
		c7.193,0,13.023-5.831,13.023-13.023C435.254,131.784,429.424,125.953,422.23,125.953z"/>
	<path style="fill:#046699;" d="M235.417,27.44c-0.211-11.046-9.216-19.94-20.312-19.94s-20.102,8.894-20.313,19.94H235.417z"/>
</g>
<g>
	<path style="fill:#FFB98A;" d="M113.886,230.958v-44.569h-11.865c-13.059,0-23.646,10.587-23.646,23.645v25.701
		c0,13.059,10.587,23.645,23.646,23.645h15.917C115.304,250.363,113.886,240.827,113.886,230.958z"/>
	<path style="fill:#FFB98A;" d="M328.189,186.389h-11.866v44.569c0,9.869-1.418,19.405-4.052,28.422h15.918
		c13.059,0,23.645-10.587,23.645-23.645v-25.701C351.833,196.976,341.248,186.389,328.189,186.389z"/>
</g>
<g>
	<path style="fill:#FFC7A9;" d="M113.886,152v78.958c0,55.902,45.318,101.22,101.219,101.22c55.902,0,101.219-45.317,101.219-101.22
		V152H113.886z"/>
	<path style="fill:#FFC7A9;" d="M181.594,128.003h67.021c0.915,0,1.655-0.742,1.655-1.657V114.45
		c0-14.033-11.439-25.45-25.499-25.45h-19.334c-14.059,0-25.499,11.416-25.499,25.45v11.896
		C179.939,127.261,180.678,128.003,181.594,128.003z"/>
</g>
<g style="opacity:0.15;">
	<path style="fill:#330068;" d="M113.904,191.981c0.245,25.628,10.013,48.969,25.937,66.671c-2.498-8.802-3.84-18.091-3.84-27.694
		v-61.073L113.904,191.981z"/>
</g>
<g>
	<path style="fill:#F7931E;" d="M253.114,284.833c-4.157-9.655-13.384-16.633-24.315-17.597c-1.8,1.089-4.235,1.764-6.912,1.764
		h-9.886c-2.167,0-4.173-0.706-5.815-1.889h-2.18c-12.054,0-22.428,7.311-26.911,17.722c-37.064-15.03-63.209-51.375-63.209-93.833
		v39.958c0,55.902,45.318,101.22,101.219,101.22c55.902,0,101.219-45.317,101.219-101.22V191
		C316.322,233.458,290.178,269.804,253.114,284.833z"/>
	<polygon style="fill:#F7931E;" points="113.886,152 113.886,192 153.885,152 	"/>
	<polygon style="fill:#F7931E;" points="276.322,152 316.322,192 316.322,152 	"/>
</g>
<path style="fill:#C5CCD3;" d="M245.976,27.44h-61.743c-44.902,0-81.433,36.459-81.433,81.275v37.991
	c0,2.924,2.366,5.294,5.286,5.294h214.037c2.92,0,5.286-2.37,5.286-5.294v-37.991C327.408,63.899,290.878,27.44,245.976,27.44z
	 M250.271,126.346c0,0.915-0.74,1.657-1.655,1.657h-67.021c-0.915,0-1.655-0.742-1.655-1.657V114.45
	c0-14.033,11.439-25.45,25.499-25.45h19.334c14.06,0,25.499,11.416,25.499,25.45L250.271,126.346L250.271,126.346z"/>
<path style="fill:#F7931E;" d="M248.615,128.003c0.915,0,1.655-0.742,1.655-1.657V114.45c0-14.033-11.439-25.45-25.499-25.45
	h-19.334c-14.059,0-25.499,11.416-25.499,25.45v11.896c0,0.915,0.74,1.657,1.655,1.657L248.615,128.003L248.615,128.003z"/>
<g style="opacity:0.15;">
	<path style="fill:#3D0072;" d="M131.392,146.706v-37.991c0-44.816,36.53-81.275,81.433-81.275h-28.592
		c-44.902,0-81.433,36.459-81.433,81.275v37.991c0,2.924,2.366,5.294,5.286,5.294h28.592
		C133.758,152,131.392,149.63,131.392,146.706z"/>
</g>
<g>
	<ellipse style="fill:#9EA7AF;" cx="168.101" cy="224.47" rx="13.477" ry="13.529"/>
	<ellipse style="fill:#9EA7AF;" cx="262.1" cy="224.47" rx="13.477" ry="13.529"/>
</g>
<path style="fill:#FFFFFF;" d="M207.726,405.879l7.379-7.379l-43.251-43.25H91.747c-8.25,0-15,6.75-15,15V494.5c0,5.5,4.5,10,10,10
	h118.857V411C205.605,409.351,206.56,407.046,207.726,405.879z"/>
<path style="fill:#C0272D;" d="M144.564,355.25H91.747c-8.25,0-15,6.75-15,15v102.464L144.564,355.25z"/>
<g style="opacity:0.15;">
	<path style="fill:#3D0072;" d="M100.819,494.5V370.25c0-8.25,6.75-15,15-15H91.747c-8.25,0-15,6.75-15,15V494.5c0,5.5,4.5,10,10,10
		h24.072C105.319,504.5,100.819,500,100.819,494.5z"/>
</g>
<path style="fill:#C5CCD3;" d="M172.105,504.5V463c0-2.2-1.8-4-4-4h-50c-2.2,0-4,1.8-4,4v41.5H172.105z"/>
<path style="fill:#FFFFFF;" d="M353.461,494.5V370.25c0-8.25-6.75-15-15-15h-80.106l-50.63,50.629
	c-1.166,1.167-2.121,3.472-2.121,5.122v93.5h137.857C348.961,504.5,353.461,500,353.461,494.5z"/>
<path style="fill:#C0272D;" d="M285.645,355.25h52.817c8.25,0,15,6.75,15,15v102.464L285.645,355.25z"/>
<path d="M168.105,203.442c-11.567,0-20.978,9.434-20.978,21.029c0,11.596,9.41,21.029,20.978,21.029
	c11.566,0,20.977-9.434,20.977-21.029C189.081,212.876,179.672,203.442,168.105,203.442z M168.105,230.5
	c-3.296,0-5.978-2.705-5.978-6.029s2.682-6.029,5.978-6.029c3.296,0,5.977,2.705,5.977,6.029
	C174.081,227.795,171.4,230.5,168.105,230.5z"/>
<path d="M262.104,203.442c-11.567,0-20.977,9.434-20.977,21.029c0,11.596,9.41,21.029,20.977,21.029
	c11.566,0,20.977-9.434,20.977-21.029C283.081,212.876,273.671,203.442,262.104,203.442z M262.104,230.5
	c-3.296,0-5.977-2.705-5.977-6.029s2.682-6.029,5.977-6.029s5.977,2.705,5.977,6.029S265.4,230.5,262.104,230.5z"/>
<path d="M227.101,426.5c1.98,0,3.91-0.8,5.311-2.2c1.39-1.39,2.189-3.33,2.189-5.3s-0.8-3.91-2.189-5.3c-1.4-1.4-3.33-2.2-5.311-2.2
	c-1.97,0-3.899,0.8-5.3,2.2c-1.4,1.39-2.2,3.33-2.2,5.3s0.8,3.91,2.2,5.3C223.201,425.7,225.131,426.5,227.101,426.5z"/>
<path d="M227.101,458.5c1.98,0,3.91-0.8,5.311-2.2c1.39-1.39,2.189-3.33,2.189-5.3s-0.8-3.91-2.189-5.3c-1.4-1.4-3.33-2.2-5.311-2.2
	c-1.97,0-3.899,0.8-5.3,2.2c-1.4,1.39-2.2,3.32-2.2,5.3c0,1.97,0.8,3.91,2.2,5.3C223.201,457.7,225.131,458.5,227.101,458.5z"/>
<path d="M227.101,490.5c1.98,0,3.91-0.8,5.311-2.2c1.39-1.39,2.189-3.33,2.189-5.3s-0.8-3.91-2.189-5.3c-1.4-1.4-3.33-2.2-5.311-2.2
	c-1.97,0-3.899,0.8-5.3,2.2c-1.4,1.39-2.2,3.33-2.2,5.3c0,1.98,0.8,3.91,2.2,5.3C223.201,489.7,225.131,490.5,227.101,490.5z"/>
<path d="M191.046,186.255l-40.568-10.87c-4.001-1.07-8.113,1.302-9.186,5.304c-1.072,4.001,1.302,8.113,5.303,9.186l40.568,10.87
	c0.65,0.174,1.304,0.257,1.946,0.257c3.312,0,6.342-2.21,7.239-5.561C197.421,191.44,195.047,187.328,191.046,186.255z"/>
<path d="M233.859,195.441c0.897,3.351,3.928,5.561,7.239,5.561c0.643,0,1.296-0.083,1.946-0.257l40.568-10.87
	c4.001-1.072,6.375-5.185,5.303-9.186c-1.071-4.001-5.183-6.374-9.185-5.304l-40.568,10.87
	C235.161,187.328,232.788,191.44,233.859,195.441z"/>
<path d="M224.771,81.5h-19.334c-18.195,0-32.999,14.781-32.999,32.95v11.896c0,5.049,4.107,9.157,9.155,9.157h67.021
	c5.048,0,9.155-4.108,9.155-9.157V114.45C257.77,96.281,242.967,81.5,224.771,81.5z M242.771,120.503h-55.332v-6.053
	c0-9.897,8.074-17.95,17.999-17.95h19.334c9.925,0,17.999,8.052,17.999,17.95L242.771,120.503L242.771,120.503z"/>
<path d="M198.118,291.5c-4.143,0-7.5,3.358-7.5,7.5s3.357,7.5,7.5,7.5h33.973c4.143,0,7.5-3.358,7.5-7.5s-3.357-7.5-7.5-7.5H198.118
	z"/>
<path d="M422.23,118.453h-87.322v-9.737c0-48.951-39.896-88.775-88.934-88.775h-4.193C238.372,8.427,227.71,0,215.105,0
	s-23.268,8.427-26.678,19.94h-4.194c-49.038,0-88.933,39.825-88.933,88.775v37.991c0,6.476,4.838,11.831,11.086,12.667v19.515
	h-4.365c-17.174,0-31.146,13.972-31.146,31.145v25.701c0,17.173,13.972,31.145,31.146,31.145h10.472
	c10.409,29.647,33.331,53.445,62.39,65.063v15.806H91.747c-12.406,0-22.5,10.093-22.5,22.5V494.5c0,9.649,7.851,17.5,17.5,17.5
	h256.715c9.65,0,17.5-7.851,17.5-17.5V370.25c0-12.407-10.094-22.5-22.5-22.5h-83.133v-15.78c3.836-1.524,7.589-3.258,11.226-5.215
	c3.647-1.963,5.014-6.511,3.051-10.159c-1.962-3.647-6.512-5.014-10.158-3.05c-13.533,7.283-28.866,11.132-44.343,11.132
	c-45.432,0-83.417-32.498-91.935-75.466c11.862,18.75,29.479,33.802,51.107,42.572c3.783,1.533,8.094-0.237,9.707-3.984
	c3.45-8.012,11.31-13.188,20.022-13.188h0.129c2.368,1.198,5.036,1.889,7.866,1.889h9.886c2.958,0,5.716-0.559,8.135-1.54
	c7.133,1.267,13.269,6.019,16.204,12.838c1.613,3.747,5.925,5.518,9.707,3.984c21.615-8.765,39.224-23.805,51.086-42.54
	c-3.059,15.36-9.937,29.828-20.1,41.934c-2.663,3.172-2.251,7.903,0.922,10.566c3.172,2.664,7.903,2.251,10.566-0.922
	c8.484-10.106,14.975-21.636,19.283-33.942h10.499c17.173,0,31.145-13.972,31.145-31.145v-25.701
	c0-17.174-13.972-31.145-31.145-31.145h-4.366V159.5h98.408c11.316,0,20.523-9.206,20.523-20.523
	C442.754,127.66,433.547,118.453,422.23,118.453z M164.605,497h-43v-30.5h43V497z M202.42,400.578
	c-2.581,2.583-4.315,6.772-4.315,10.423v86h-18.5v-34c0-6.341-5.159-11.5-11.5-11.5h-50c-6.341,0-11.5,5.159-11.5,11.5v34H86.747
	c-1.355,0-2.5-1.145-2.5-2.5v-19.777l31.162-53.973c2.071-3.587,0.842-8.174-2.745-10.245c-3.59-2.072-8.175-0.843-10.245,2.745
	l-18.172,31.474V370.25c0-4.136,3.364-7.5,7.5-7.5h39.827l-7.217,12.5c-2.071,3.587-0.842,8.174,2.745,10.245
	c1.182,0.682,2.471,1.006,3.743,1.006c2.592,0,5.113-1.346,6.502-3.751l11.547-20h19.852l35.751,35.75L202.42,400.578z
	 M338.461,362.75c4.136,0,7.5,3.364,7.5,7.5v74.473l-47.327-81.973H338.461z M261.461,362.75h19.853l64.647,111.973V494.5
	c0,1.355-1.145,2.5-2.5,2.5H213.105v-85.731c0.029-0.087,0.073-0.194,0.114-0.277L261.461,362.75z M189.882,355.25v-18.536
	c8.098,1.932,16.541,2.964,25.223,2.964c8.513,0,16.988-1.017,25.225-2.976v18.548c0,2.05,0.824,3.907,2.158,5.261l-27.383,27.382
	l-27.382-27.381C189.057,359.158,189.882,357.301,189.882,355.25z M215.105,15c4.098,0,7.736,1.94,10.084,4.94h-20.168
	C207.368,16.94,211.007,15,215.105,15z M102.021,251.88c-8.902,0-16.146-7.243-16.146-16.145v-25.701
	c0-8.903,7.243-16.145,16.146-16.145h4.365v20.951h-5.291c-4.143,0-7.5,3.358-7.5,7.5s3.357,7.5,7.5,7.5h5.291v1.119
	c0,7.156,0.702,14.149,2.028,20.922L102.021,251.88L102.021,251.88z M110.3,144.5v-35.784c0-32.551,21.245-60.227,50.618-69.995
	c-8.244,20.12-12.978,46.972-12.978,75.227V144.5H110.3z M121.386,159.5h14.394l-14.394,14.394
	C121.386,173.894,121.386,159.5,121.386,159.5z M256.283,275.213c-4.224-5.999-10.127-10.548-16.896-13.142v-5.668
	c0-4.142-3.357-7.5-7.5-7.5s-7.5,3.358-7.5,7.5v4.675c-0.539,0.208-1.378,0.422-2.5,0.422h-9.886c-1.355,0-2.5-1.145-2.5-2.5
	v-32.498c0-4.142-3.357-7.5-7.5-7.5s-7.5,3.358-7.5,7.5V259c0,0.625,0.036,1.242,0.101,1.851
	c-8.345,2.203-15.683,7.27-20.675,14.362c-30.932-15.088-50.998-45.668-52.448-80.2l35.514-35.513h116.225l35.514,35.513
	C307.279,229.545,287.214,260.125,256.283,275.213z M308.822,173.894L294.429,159.5h14.394v14.394H308.822z M319.908,144.5h-37.64
	v-30.552c0-5.863-0.201-11.74-0.599-17.467c-0.288-4.133-3.877-7.247-8.002-6.963c-4.132,0.287-7.249,3.869-6.963,8.001
	c0.374,5.383,0.563,10.91,0.563,16.428V144.5H162.939v-30.552c0-31.319,6.033-60.384,16.245-78.816
	c1.67-0.113,3.349-0.191,5.047-0.191h61.743c1.695,0,3.371,0.078,5.039,0.191c3.611,6.552,6.821,14.711,9.358,23.867
	c0.921,3.322,3.936,5.499,7.224,5.499c0.663,0,1.337-0.089,2.007-0.274c3.992-1.106,6.331-5.239,5.225-9.231
	c-1.622-5.854-3.471-11.28-5.522-16.267c29.366,9.773,50.604,37.445,50.604,69.99L319.908,144.5L319.908,144.5z M328.189,193.889
	c8.902,0,16.145,7.243,16.145,16.145v25.701c0,8.902-7.242,16.145-16.145,16.145h-6.429c1.347-6.857,2.063-13.859,2.063-20.922
	v-1.119h5.291c4.143,0,7.5-3.358,7.5-7.5s-3.357-7.5-7.5-7.5h-5.291v-20.951L328.189,193.889L328.189,193.889z M422.23,144.5
	h-87.322v-11.047h87.322c3.046,0,5.523,2.478,5.523,5.523C427.754,142.022,425.276,144.5,422.23,144.5z"/>
<g>
</g>
<g>
</g>
<g>
</g>
<g>
</g>
<g>
</g>
<g>
</g>
<g>
</g>
<g>
</g>
<g>
</g>
<g>
</g>
<g>
</g>
<g>
</g>
<g>
</g>
<g>
</g>
<g>
</g>
</svg>
