<?xml version="1.0" encoding="iso-8859-1"?>
<!-- Generator: Adobe Illustrator 19.0.0, SVG Export Plug-In . SVG Version: 6.00 Build 0)  -->
<svg version="1.1" id="Capa_1" xmlns="http://www.w3.org/2000/svg" xmlns:xlink="http://www.w3.org/1999/xlink" x="0px" y="0px"
	 viewBox="0 0 512 512" style="enable-background:new 0 0 512 512;" xml:space="preserve">
<g>
	<path style="fill:#9EA7AF;" d="M163.339,230.958v-64.649c-1.235-0.188-2.493-0.309-3.781-0.309c-13.807,0-25,11.193-25,25v30
		c0,13.807,11.193,25,25,25c1.651,0,3.263-0.164,4.825-0.47C163.696,240.771,163.339,235.906,163.339,230.958z"/>
	<path style="fill:#9EA7AF;" d="M369.558,166c-1.758,0-3.466,0.201-5.12,0.547v64.41c0,4.849-0.349,9.616-1.008,14.283
		c1.961,0.495,4.013,0.76,6.128,0.76c13.807,0,25-11.193,25-25v-30C394.558,177.193,383.364,166,369.558,166z"/>
</g>
<path style="fill:#64CBFF;" d="M387.915,355.249h-63.574l-26.426,46.073c-1.368,2.386-3.841,2.54-5.495,0.343l-26.273-34.89
	c-1.654-2.197-4.26-2.124-5.79,0.161l-23.146,34.568c-1.53,2.285-3.925,2.216-5.321-0.152l-27.177-46.103H141.2
	c-8.25,0-15,6.75-15,15V494.5c0,5.5,4.5,10,10,10h256.715c5.5,0,10-4.5,10-10V370.249
	C402.915,361.999,396.165,355.249,387.915,355.249z"/>
<g style="opacity:0.15;">
	<path style="fill:#3D0072;" d="M155.285,494.5V370.249c0-8.25,6.75-15,15-15H141.2c-8.25,0-15,6.75-15,15V494.5c0,5.5,4.5,10,10,10
		h29.085C159.785,504.5,155.285,500,155.285,494.5z"/>
</g>
<path style="fill:#FCDB67;" d="M360.334,437v-14.338c0-1.65-1.35-3-3-3h-21.887c-1.65,0-3,1.35-3,3V437H360.334z"/>
<g>
	<polygon style="fill:#EF5050;" points="271.269,414.659 257.85,414.659 236.558,504.5 292.558,504.5 	"/>
	<path style="fill:#EF5050;" d="M266.147,366.775c-1.654-2.197-4.26-2.124-5.79,0.161l-16.549,24.715l11.884,23.008h17.733
		l11.709-22.67L266.147,366.775z"/>
</g>
<path style="fill:#64CBFF;" d="M330.513,337.992l-4.852-26.339c-16.98,12.879-38.147,20.525-61.104,20.525
	c-10.809,0-21.218-1.703-30.983-4.842c1.485,2.239,2.355,4.922,2.355,7.811c0,7.813-6.334,14.146-14.146,14.146h-20.079
	c-0.175,0-0.345-0.02-0.519-0.026l30.703,52.086c1.396,2.369,3.791,2.438,5.321,0.152l23.146-34.568
	c1.53-2.285,4.136-2.357,5.79-0.161l26.273,34.89c1.654,2.197,4.127,2.042,5.495-0.343l31.016-54.075
	C330.299,344.861,331.011,340.696,330.513,337.992z"/>
<path style="fill:#9EA7AF;" d="M235.93,335.147c0,7.813-6.334,14.146-14.146,14.146h-20.079c-7.813,0-14.146-6.333-14.146-14.146
	l0,0c0-7.813,6.334-14.147,14.146-14.147h20.079C229.596,321,235.93,327.333,235.93,335.147L235.93,335.147z"/>
<path style="fill:#775436;" d="M264.558,332.178c-10.813,0-21.222-1.714-30.991-4.854c1.49,2.241,2.363,4.93,2.363,7.823
	c0,2.198-0.516,4.269-1.41,6.125c0.602,0.871,1.292,1.637,2.036,2.175l23.947,17.286c2.229,1.61,5.878,1.61,8.108,0.001
	l23.948-17.287c2.229-1.609,4.054-5.176,4.054-7.926v-8.527C286.538,330.353,275.762,332.178,264.558,332.178z"/>
<path style="fill:#312F56;" d="M264.558,44c-55.9,0-101.219,23.098-101.219,79v41c0-55.902,45.318-79,101.219-79
	c55.902,0,101.219,23.098,101.219,79v-41.001C365.776,67.097,320.46,44,264.558,44z"/>
<path style="opacity:0.15;fill:#490089;enable-background:new    ;" d="M194.288,102.655c8.839-37.084,42.556-54.92,84.601-58.12
	C274.206,44.179,269.423,44,264.558,44c-55.9,0-101.219,23.098-101.219,79v41C163.339,135.394,175.209,115.382,194.288,102.655z"/>
<path style="fill:#775436;" d="M264.558,85c-55.9,0-101.219,23.098-101.219,79v66.958c0,39.227,22.315,73.24,54.942,90.042h3.502
	c4.926,0,9.26,2.522,11.793,6.341c9.766,3.137,20.174,4.837,30.981,4.837c55.902,0,101.219-45.318,101.219-101.22V164
	C365.776,108.098,320.46,85,264.558,85z"/>
<path style="opacity:0.15;fill:#490089;enable-background:new    ;" d="M192,230.958V164c0-51.037,37.775-74.727,86.889-78.464
	C274.206,85.179,269.423,85,264.558,85c-55.9,0-101.219,23.098-101.219,79v66.958c0,39.227,22.315,73.24,54.942,90.042h3.502
	c4.926,0,9.26,2.522,11.793,6.341c9.766,3.137,20.174,4.837,30.981,4.837c4.865,0,9.648-0.351,14.331-1.015
	C229.775,324.201,192,281.994,192,230.958z"/>
<g>
	<ellipse style="fill:#368C0E;" cx="212.08" cy="202.53" rx="13.477" ry="13.529"/>
	<ellipse style="fill:#368C0E;" cx="313.04" cy="202.53" rx="13.477" ry="13.529"/>
</g>
<path style="fill:#FB8276;" d="M253.225,309c-11.41,0-20.693-9.284-20.693-20.694v-28.578c0-1.632,1.323-2.956,2.956-2.956h58.14
	c1.633,0,2.957,1.324,2.957,2.956v28.578c0,11.41-9.283,20.694-20.694,20.694H253.225z"/>
<g>
	<path style="fill:#FFFFFF;" d="M293.627,256.772h-58.14c-1.633,0-2.956,1.324-2.956,2.956v15.658h64.053v-15.658
		C296.584,258.096,295.26,256.772,293.627,256.772z"/>
	<path style="fill:#FFFFFF;" d="M380.891,477c0,1.65-1.35,3-3,3h-63c-1.65,0-3-1.35-3-3v-37c0-1.65,1.35-3,3-3h63c1.65,0,3,1.35,3,3
		V477z"/>
</g>
<path d="M387.915,347.749H378c-4.143,0-7.5,3.358-7.5,7.5s3.357,7.5,7.5,7.5h9.915c4.136,0,7.5,3.364,7.5,7.5V494.5
	c0,1.355-1.145,2.5-2.5,2.5h-94.427l-18.604-78.506l6.436-12.46l0.107,0.143c2.173,2.885,5.338,4.54,8.684,4.54
	c3.795,0,7.274-2.117,9.309-5.664l24.264-42.304H340c4.143,0,7.5-3.358,7.5-7.5s-3.357-7.5-7.5-7.5h-3.137
	c1.203-3.555,1.638-7.792,1.025-11.116l-4.047-21.969c18.548-15.381,31.927-36.79,37.086-61.199
	c17.287-0.721,31.13-15.004,31.13-32.465v-30c0-8.805-3.524-16.798-9.23-22.656V101.76c0-33.634-13.343-60.708-38.585-78.296
	C332.212,8.114,301.199,0,264.558,0s-67.653,8.113-89.685,23.463c-25.243,17.588-38.586,44.662-38.586,78.296v66.585
	c-5.705,5.858-9.229,13.851-9.229,22.655v10.481c-14.308,1.59-25.473,13.751-25.473,28.476v84.63
	c0,15.802,12.855,28.657,28.657,28.657h51.393c0.651,1.608,1.499,3.114,2.498,4.504H141.2c-12.406,0-22.5,10.093-22.5,22.5V494.5
	c0,9.649,7.851,17.5,17.5,17.5h256.715c9.65,0,17.5-7.851,17.5-17.5V370.249C410.415,357.842,400.321,347.749,387.915,347.749z
	 M322.425,343.515l-27.846,48.549l-19.918-26.449l22.287-16.088c4.151-2.997,7.164-8.887,7.164-14.007v-3.316
	c5.658-2.219,11.084-4.897,16.236-7.991l2.788,15.138C323.311,340.301,322.906,342.676,322.425,343.515z M221.783,356.793
	c5.184,0,9.933-1.848,13.662-4.898l17.498,12.631l-18.111,27.05l-20.504-34.783H221.783z M201.704,341.793
	c-3.665,0-6.646-2.982-6.646-6.646c0-3.665,2.981-6.647,6.646-6.647h20.079c3.665,0,6.646,2.981,6.646,6.647
	c0,3.665-2.982,6.646-6.646,6.646H201.704z M243.077,338.906c0.078-0.441,0.162-0.88,0.213-1.33
	c6.88,1.372,13.989,2.102,21.268,2.102c8.201,0,16.192-0.915,23.879-2.645c-0.095,0.142-0.188,0.26-0.268,0.331l-23.612,17.045
	L243.077,338.906z M263.497,375.725l12.81,17.011l-7.449,14.423h-8.599l-7.756-15.015L263.497,375.725z M387.058,191v30
	c0,8.46-6.035,15.535-14.025,17.151c0.156-2.378,0.244-4.776,0.244-7.193V223c0-4.142-3.357-7.5-7.5-7.5s-7.5,3.358-7.5,7.5v7.958
	c0,51.678-42.042,93.72-93.719,93.72c-9.218,0-18.127-1.344-26.548-3.836c-3.97-4.497-9.77-7.342-16.227-7.342h-1.576
	c-29.367-15.843-49.368-46.899-49.368-82.542V164c0-23.816,8.894-42.089,26.435-54.31c16.141-11.246,39.407-17.19,67.284-17.19
	c27.878,0,51.145,5.944,67.285,17.19c17.54,12.221,26.434,30.493,26.434,54.31v20c0,4.142,3.357,7.5,7.5,7.5s7.5-3.358,7.5-7.5
	v-10.093C381.145,175.618,387.058,182.627,387.058,191z M171.302,114.12c1.986-19.512,10.683-34.777,25.972-45.43
	c16.141-11.246,39.407-17.19,67.284-17.19c27.878,0,51.145,5.944,67.285,17.19c15.289,10.652,23.984,25.917,25.971,45.43
	c-17.691-23.506-49.91-36.62-93.256-36.62S188.993,90.613,171.302,114.12z M151.287,101.759c0-28.919,10.82-51.12,32.161-65.989
	C202.951,22.183,230.998,15,264.558,15s61.607,7.183,81.109,20.771c21.34,14.869,32.16,37.07,32.16,65.989v57.81
	c-1.478-0.389-2.999-0.672-4.551-0.85V123c0-54.164-40.643-86.5-108.719-86.5S155.838,68.836,155.838,123v35.72
	c-1.553,0.178-3.073,0.461-4.552,0.851L151.287,101.759L151.287,101.759z M142.058,191c0-8.373,5.914-15.382,13.781-17.093v57.051
	c0,2.417,0.088,4.815,0.244,7.193c-7.99-1.616-14.025-8.691-14.025-17.151L142.058,191L142.058,191z M181.192,328.245h-50.95
	c-7.53,0-13.657-6.126-13.657-13.657v-84.63c0-6.433,4.476-11.827,10.473-13.267V221c0,17.461,13.843,31.744,31.13,32.465
	c5.145,24.341,18.466,45.692,36.934,61.062C188.579,316.62,183.385,321.747,181.192,328.245z M246.043,497l4.804-20.271
	c0.955-4.03-1.538-8.072-5.568-9.027c-4.029-0.955-8.072,1.539-9.027,5.568L230.627,497H136.2c-1.355,0-2.5-1.145-2.5-2.5V370.249
	c0-4.136,3.364-7.5,7.5-7.5h59.227l25.001,42.412c2.035,3.452,5.452,5.513,9.141,5.513c3.258,0,6.264-1.582,8.381-4.342
	l6.283,12.165l-3.738,15.773c-0.955,4.03,1.538,8.072,5.568,9.027c4.033,0.955,8.072-1.538,9.027-5.568l3.689-15.57h1.559
	L283.072,497H246.043z"/>
<path d="M357.334,412.163h-21.887c-5.79,0-10.5,4.71-10.5,10.5v6.838H314.89c-5.79,0-10.5,4.71-10.5,10.5v37
	c0,5.79,4.71,10.5,10.5,10.5h63c5.79,0,10.5-4.71,10.5-10.5v-37c0-5.79-4.71-10.5-10.5-10.5h-10.057v-6.838
	C367.834,416.873,363.124,412.163,357.334,412.163z M339.947,427.163h12.887v2.338h-12.887V427.163z M373.391,444.5v28h-54v-28
	H373.391z"/>
<path d="M264.7,239.974h8.734c4.142,0,7.5-3.358,7.5-7.5s-3.358-7.5-7.5-7.5H264.7c-0.298,0-1.234-0.914-1.234-2.5v-28.37
	c0-4.142-3.357-7.5-7.5-7.5s-7.5,3.358-7.5,7.5v28.37C248.466,232.123,255.748,239.974,264.7,239.974z"/>
<path d="M207.898,167.993c6.172,0,11.979,2.408,16.352,6.78c1.465,1.464,3.385,2.197,5.304,2.197s3.839-0.732,5.304-2.197
	c2.929-2.929,2.929-7.678,0-10.606c-7.206-7.206-16.78-11.174-26.959-11.174c-10.18,0-19.754,3.968-26.959,11.174
	c-2.929,2.929-2.929,7.678,0.001,10.607c2.928,2.929,7.677,2.928,10.607,0C195.919,170.401,201.726,167.993,207.898,167.993z"/>
<path d="M317.105,152.993c-10.18,0-19.754,3.968-26.959,11.174c-2.929,2.929-2.929,7.678,0.001,10.607
	c2.928,2.929,7.677,2.928,10.606,0c4.372-4.373,10.179-6.78,16.352-6.78s11.981,2.408,16.354,6.781
	c1.464,1.464,3.384,2.196,5.303,2.196s3.839-0.732,5.304-2.197c2.929-2.929,2.929-7.678-0.001-10.607
	C336.859,156.961,327.285,152.993,317.105,152.993z"/>
<path d="M233.058,202.529c0-11.595-9.41-21.029-20.977-21.029s-20.978,9.434-20.978,21.029c0,11.596,9.41,21.029,20.978,21.029
	C223.648,223.558,233.058,214.124,233.058,202.529z M212.081,208.558c-3.296,0-5.978-2.705-5.978-6.029s2.682-6.029,5.978-6.029
	s5.977,2.705,5.977,6.029C218.058,205.854,215.377,208.558,212.081,208.558z"/>
<path d="M313.035,181.5c-11.567,0-20.978,9.434-20.978,21.029c0,11.596,9.41,21.029,20.978,21.029
	c11.566,0,20.977-9.434,20.977-21.029S324.602,181.5,313.035,181.5z M313.035,208.558c-3.296,0-5.978-2.705-5.978-6.029
	s2.682-6.029,5.978-6.029s5.977,2.705,5.977,6.029C319.012,205.854,316.331,208.558,313.035,208.558z"/>
<path d="M293.627,249.272h-58.14c-5.766,0-10.456,4.691-10.456,10.456v28.578c0,15.546,12.647,28.194,28.193,28.194h22.665
	c15.547,0,28.194-12.648,28.194-28.194v-28.578C304.084,253.963,299.393,249.272,293.627,249.272z M289.084,288.306
	c0,7.275-5.919,13.194-13.194,13.194h-22.665c-7.274,0-13.193-5.919-13.193-13.194v-5.42h49.053v5.42H289.084z M289.084,267.886
	h-49.053v-3.614h49.053V267.886z"/>
<path d="M335.891,465.5h21c4.143,0,7.5-3.358,7.5-7.5s-3.357-7.5-7.5-7.5h-21c-4.143,0-7.5,3.358-7.5,7.5
	S331.748,465.5,335.891,465.5z"/>
<g>
</g>
<g>
</g>
<g>
</g>
<g>
</g>
<g>
</g>
<g>
</g>
<g>
</g>
<g>
</g>
<g>
</g>
<g>
</g>
<g>
</g>
<g>
</g>
<g>
</g>
<g>
</g>
<g>
</g>
</svg>
