<svg id="Capa_1" enable-background="new 0 0 497.317 497.317" height="512" viewBox="0 0 497.317 497.317" width="512" xmlns="http://www.w3.org/2000/svg"><g><path d="m326.9 391.381h127.847v-94.705c0-6.58-5.334-11.914-11.914-11.914h-37.373c-20.645 0-39.266 12.409-47.214 31.463z" fill="#bed9fd"/><path d="m442.832 284.762h-30c6.58 0 11.915 5.334 11.915 11.915v94.705h30v-94.705c0-6.581-5.335-11.915-11.915-11.915z" fill="#9ec8fc"/><path d="m251.139 347.708h-119.228v-43.374h106.276c14.657 0 26.538 11.882 26.538 26.538v3.25c.001 7.503-6.082 13.586-13.586 13.586z" fill="#c8c3ca"/><path d="m173.046 324.147h-64.928v-174.086h10.021c19.892 0 36.621 14.917 38.892 34.679z" fill="#c8c3ca"/><path d="m216.788 391.381h-176.847v-131.002c0-9.102 7.379-16.481 16.481-16.481h51.696c28.558 0 54.316 17.166 65.309 43.522z" fill="#bed9fd"/><path d="m437.179 435.325h-379.671c-9.702 0-17.567-7.865-17.567-17.567v-26.377h414.806v26.377c-.001 9.702-7.866 17.567-17.568 17.567z" fill="#62a4fb"/><ellipse cx="437.882" cy="412.122" fill="#8c818f" rx="51.935" ry="51.625"/><ellipse cx="437.882" cy="412.122" fill="#c8c3ca" rx="18.221" ry="18.112"/><ellipse cx="59.435" cy="413.353" fill="#8c818f" rx="51.935" ry="51.625"/><path d="m437.882 360.498c-5.217 0-10.25.773-15 2.196 21.368 6.399 36.935 26.103 36.935 49.429s-15.567 43.03-36.935 49.429c4.75 1.422 9.783 2.196 15 2.196 28.683 0 51.935-23.113 51.935-51.625s-23.252-51.625-51.935-51.625z" fill="#766d78"/><path d="m59.434 361.729c-5.217 0-10.25.773-15 2.196 21.368 6.399 36.935 26.103 36.935 49.429s-15.567 43.03-36.935 49.429c4.75 1.422 9.783 2.196 15 2.196 28.683 0 51.935-23.113 51.935-51.625s-23.252-51.625-51.935-51.625z" fill="#766d78"/><ellipse cx="59.434" cy="413.353" fill="#c8c3ca" rx="18.221" ry="18.112"/><path d="m400.4 66.757h-346.911c-7.923 0-14.347-6.423-14.347-14.346v-5.725c0-7.923 6.423-14.347 14.347-14.347h346.911c7.923 0 14.346 6.423 14.346 14.347v5.725c0 7.923-6.423 14.346-14.346 14.346z" fill="#e3e0e4"/><path d="m173.427 287.42c-10.993-26.357-36.752-43.522-65.309-43.522h-30c28.557 0 54.316 17.165 65.309 43.522l43.361 103.961h30z" fill="#9ec8fc"/><path d="m400.4 32.339h-30c7.923 0 14.347 6.423 14.347 14.347v5.725c0 7.923-6.423 14.346-14.347 14.346h30c7.923 0 14.347-6.423 14.347-14.346v-5.725c0-7.924-6.424-14.347-14.347-14.347z" fill="#c8c3ca"/><path d="m66.081 66.757h42.036v177.14h-42.036z" fill="#9ec8fc"/><path d="m462.247 358.215v-61.539c0-10.705-8.71-19.415-19.415-19.415h-31.754l-57.816-203.004h47.138c12.046 0 21.847-9.8 21.847-21.847v-5.725c0-12.046-9.8-21.847-21.847-21.847h-208.356c-4.142 0-7.5 3.358-7.5 7.5s3.358 7.5 7.5 7.5h208.356c3.775 0 6.847 3.071 6.847 6.847v5.725c0 3.775-3.071 6.847-6.847 6.847h-346.911c-3.775 0-6.846-3.071-6.846-6.847v-5.725c0-3.775 3.071-6.847 6.846-6.847h108.556c4.142 0 7.5-3.358 7.5-7.5s-3.358-7.5-7.5-7.5h-108.556c-12.046 0-21.846 9.8-21.846 21.847v5.725c0 12.046 9.8 21.847 21.846 21.847h5.092v162.14h-2.159c-13.223 0-23.981 10.758-23.981 23.981v99.97c0 .117.012.231.018.348-19.246 9.797-32.459 29.715-32.459 52.658 0 32.602 26.662 59.125 59.434 59.125 21.988 0 41.211-11.949 51.491-29.653h192.757c4.142 0 7.5-3.358 7.5-7.5s-3.358-7.5-7.5-7.5h-186.62c1.176-4.633 1.808-9.48 1.808-14.472s-.631-9.839-1.808-14.472h262.908c-.984 4.26-1.521 8.688-1.521 13.241 0 5.437.757 10.699 2.144 15.703h-46.91c-4.142 0-7.5 3.358-7.5 7.5s3.358 7.5 7.5 7.5h53.426c10.444 17.029 29.296 28.422 50.774 28.422 32.773 0 59.435-26.523 59.435-59.125-.001-23.967-14.419-44.634-35.071-53.908zm-66.533-80.137c-19.68 3.288-36.522 16.396-44.389 35.26l-.275.659-51.405-63.441 13.589-12.487c3.05-2.803 3.25-7.547.448-10.597-2.803-3.05-7.548-3.25-10.597-.448l-38.434 35.316c-3.05 2.803-3.25 7.547-.448 10.597 1.479 1.609 3.499 2.425 5.524 2.425 1.814 0 3.632-.654 5.073-1.978l13.779-12.661 55.91 69.002-19.699 47.231-15.322-18.73 5.572-4.874c3.118-2.727 3.435-7.465.708-10.583-2.726-3.118-7.466-3.435-10.583-.707l-22.886 20.018c-3.118 2.727-3.435 7.465-.708 10.583 1.483 1.695 3.56 2.562 5.648 2.562 1.752 0 3.512-.61 4.935-1.855l6.017-5.263 12.904 15.774h-89.447c-.096-.475-.238-.949-.431-1.413l-11.37-27.26h41.312c11.627 0 21.086-9.46 21.086-21.087v-3.249c0-18.769-15.27-34.039-34.038-34.039h-52.708l-5.131-12.301c-1.663-3.986-3.635-7.773-5.866-11.353.09-.626.111-1.271.035-1.928l-10.037-87.367c-2.707-23.558-22.63-41.323-46.343-41.323h-2.521v-68.304h222.048zm-203.978 33.755h46.452c10.497 0 19.038 8.541 19.038 19.039v3.249c0 3.356-2.73 6.087-6.086 6.087h-47.57zm-76.118-154.271h2.521c16.088 0 29.604 12.053 31.44 28.035l7.84 68.247c-11.768-9.548-26.236-15.597-41.801-17.078zm-42.037-83.305h27.037v162.14h-27.037zm-14.147 383.221c-24.501 0-44.434-19.794-44.434-44.124 0-24.331 19.933-44.125 44.434-44.125s44.435 19.794 44.435 44.125c0 24.33-19.933 44.124-44.435 44.124zm0-103.249c-4.107 0-8.119.417-11.994 1.21v-95.061c0-4.952 4.029-8.981 8.981-8.981h51.696c25.61 0 48.528 15.273 58.387 38.91l39.029 93.574h-94.608c-10.279-17.704-29.502-29.652-51.491-29.652zm278.72 29.652 27.014-64.769c6.803-16.311 22.619-26.85 40.292-26.85h37.372c2.434 0 4.415 1.98 4.415 4.415v57.061c-3.052-.482-6.178-.74-9.364-.74-22.497 0-42.113 12.5-52.203 30.884h-47.526zm99.728 72.366c-24.501 0-44.435-19.794-44.435-44.125s19.933-44.125 44.435-44.125 44.435 19.794 44.435 44.125-19.933 44.125-44.435 44.125z"/><path d="m437.882 386.51c-14.183 0-25.721 11.49-25.721 25.612s11.539 25.612 25.721 25.612c14.183 0 25.721-11.49 25.721-25.612s-11.538-25.612-25.721-25.612zm0 36.225c-5.912 0-10.721-4.761-10.721-10.612s4.81-10.612 10.721-10.612 10.721 4.761 10.721 10.612-4.809 10.612-10.721 10.612z"/><path d="m59.434 387.741c-14.183 0-25.721 11.49-25.721 25.613 0 14.122 11.539 25.612 25.721 25.612 14.183 0 25.721-11.489 25.721-25.612.001-14.124-11.538-25.613-25.721-25.613zm0 36.224c-5.912 0-10.721-4.76-10.721-10.612s4.81-10.613 10.721-10.613c5.912 0 10.721 4.761 10.721 10.613.001 5.852-4.809 10.612-10.721 10.612z"/></g></svg>