<?xml version="1.0" encoding="iso-8859-1"?>
<!-- Generator: Adobe Illustrator 19.0.0, SVG Export Plug-In . SVG Version: 6.00 Build 0)  -->
<svg version="1.1" id="Capa_1" xmlns="http://www.w3.org/2000/svg" xmlns:xlink="http://www.w3.org/1999/xlink" x="0px" y="0px"
	 viewBox="0 0 512.002 512.002" style="enable-background:new 0 0 512.002 512.002;" xml:space="preserve">
<path style="fill:#FCDB67;" d="M360.311,110.562c0.146,1.721,1.149,3.256,2.669,4.082c0.768,0.418,1.615,0.627,2.462,0.627
	c0.831,0,1.663-0.201,2.419-0.604c5.946-3.16,12.193-4.832,18.069-4.832c4.047,0,7.956,0.76,11.62,2.258
	c4.872,1.99,9.128,5.266,12.554,9.529c26.698-23.396,37.788-61.662,24.93-96.957c-1.373-3.771-3.059-7.549-5.013-11.236
	c-2.234-4.215-6.906-6.543-11.622-5.787c-0.708,0.115-1.393,0.293-2.049,0.533c-3.714,1.35-6.496,4.602-7.177,8.598
	c-4.649,27.271-28.213,52.498-60.222,64.663C355.178,88.714,359.317,98.896,360.311,110.562z"/>
<path style="fill:#FFFFFF;" d="M430.021,13.429c-2.234-4.215-6.906-6.543-11.622-5.787c-0.708,0.115-1.393,0.293-2.049,0.533
	c-3.714,1.35-6.496,4.602-7.177,8.598c-3.427,20.1-17.13,39.088-36.911,52.559c11.231,9.814,30.594,22.453,58.304,26.037
	c10.863-21.178,13.237-46.631,4.468-70.703C433.661,20.894,431.976,17.116,430.021,13.429z"/>
<g>
	<path style="fill:#FCDB67;" d="M430.021,13.429c-2.234-4.215-6.906-6.543-11.622-5.787c-0.708,0.115-1.393,0.293-2.049,0.533
		c-3.714,1.35-6.496,4.602-7.177,8.598c-1.726,10.123-6.067,19.963-12.47,28.961c10.446,5.746,25.193,11.592,43.587,13.129
		c0.514-11.314-1.143-22.908-5.257-34.197C433.661,20.894,431.976,17.116,430.021,13.429z"/>
	<path style="fill:#FCDB67;" d="M104.886,124.132c3.687-5.495,8.603-9.675,14.389-12.039c3.662-1.498,7.57-2.256,11.618-2.256
		c6.022,0,12.105,1.619,18.074,4.813c0.759,0.406,1.595,0.609,2.431,0.609c0.843,0,1.686-0.207,2.45-0.621
		c1.521-0.82,2.528-2.354,2.68-4.074c0.962-10.962,4.684-20.612,10.286-27.775c-0.739-0.252-1.479-0.496-2.214-0.764
		c-32.801-11.93-57.049-37.541-61.774-65.252c-0.681-3.996-3.462-7.248-7.176-8.598c-0.655-0.24-1.341-0.418-2.05-0.533
		c-4.715-0.756-9.388,1.572-11.622,5.787c-1.953,3.687-3.64,7.465-5.013,11.236C63.637,61.251,76.037,101.034,104.886,124.132z"/>
</g>
<path style="fill:#FFFFFF;" d="M81.977,13.429c2.234-4.215,6.907-6.543,11.622-5.787c0.709,0.115,1.395,0.293,2.05,0.533
	c3.714,1.35,6.495,4.602,7.176,8.598c3.428,20.1,17.13,39.088,36.912,52.559c-11.232,9.814-30.595,22.453-58.305,26.037
	C70.569,74.19,68.195,48.737,76.965,24.665C78.338,20.894,80.024,17.116,81.977,13.429z"/>
<path style="fill:#FCDB67;" d="M81.977,13.429c2.234-4.215,6.907-6.543,11.622-5.787c0.709,0.115,1.395,0.293,2.05,0.533
	c3.714,1.35,6.495,4.602,7.176,8.598c1.727,10.123,6.067,19.963,12.47,28.961c-10.446,5.745-25.193,11.591-43.586,13.128
	c-0.515-11.314,1.144-22.908,5.256-34.197C78.338,20.894,80.024,17.116,81.977,13.429z"/>
<path style="opacity:0.15;fill:#490089;enable-background:new    ;" d="M104.886,124.132c3.687-5.495,8.603-9.675,14.389-12.039
	c0.428-0.175,0.859-0.338,1.293-0.492c-25.3-23.521-35.546-60.787-23.003-95.222c0.669-1.838,1.415-3.676,2.228-5.505
	c-1.156-1.182-2.556-2.122-4.144-2.699c-0.655-0.24-1.341-0.418-2.05-0.533c-4.715-0.756-9.388,1.572-11.622,5.787
	c-1.953,3.687-3.64,7.465-5.013,11.236C63.637,61.251,76.037,101.034,104.886,124.132z"/>
<path style="fill:#6BC1DD;" d="M93.26,504.501c-2.84,0-5.149-2.309-5.149-5.145v-23.361c0-2.619-1.972-4.822-4.578-5.113
	c-9.726-1.086-17.713-5.252-23.098-12.051c-11.775-14.863-7.81-38.785,9.43-56.881c1.081-1.135,1.585-2.699,1.371-4.25
	c-0.214-1.553-1.123-2.922-2.471-3.721c-3.216-1.91-6.02-4.357-8.33-7.275c-6.636-8.377-8.487-20.113-5.082-32.205
	c2.844-10.102,9.2-20.045,17.897-28c1.286-1.178,1.89-2.926,1.602-4.642c-0.287-1.719-1.427-3.176-3.026-3.871
	c-10.955-4.756-18.414-12.793-21.004-22.627c-3.796-14.416,3.803-30.775,19.358-41.682c1.198-0.84,1.982-2.15,2.155-3.604
	c0.173-1.455-0.281-2.912-1.249-4.01c-14.491-16.43-17.911-37.555-8.317-51.373c6.347-9.141,17.148-14.174,30.412-14.174
	c1.155,0,2.345,0.043,3.538,0.121c0.117,0.01,0.233,0.014,0.35,0.014c1.621,0,3.156-0.766,4.132-2.076
	c1.045-1.404,1.305-3.242,0.688-4.881c-4.554-12.094-5.567-24.891-2.856-36.031c2.971-12.207,10.349-21.527,20.243-25.57
	c3.662-1.498,7.57-2.256,11.618-2.256c6.022,0,12.105,1.619,18.074,4.813c0.759,0.406,1.595,0.609,2.431,0.609
	c0.843,0,1.686-0.207,2.45-0.621c1.521-0.82,2.528-2.354,2.68-4.074c1.84-20.961,13.756-37.145,29.651-40.266
	c1.909-0.377,3.864-0.568,5.814-0.568c7.984,0,15.957,3.109,23.057,8.996c0.933,0.771,2.099,1.186,3.288,1.186
	c0.358,0,0.718-0.039,1.074-0.115c1.541-0.328,2.849-1.344,3.545-2.756c7.347-14.887,19.694-23.773,33.034-23.773
	c14.164,0,27.324,10.195,34.343,26.607c0.669,1.566,2.068,2.699,3.739,3.027c0.331,0.066,0.664,0.098,0.996,0.098
	c1.339,0,2.641-0.521,3.613-1.479c7.728-7.604,17.014-11.791,26.15-11.791c1.949,0,3.905,0.191,5.815,0.568
	c15.96,3.135,27.881,19.314,29.664,40.264c0.146,1.721,1.149,3.256,2.669,4.082c0.768,0.418,1.615,0.627,2.462,0.627
	c0.831,0,1.663-0.201,2.419-0.604c5.946-3.16,12.193-4.832,18.069-4.832c4.047,0,7.956,0.76,11.62,2.258
	c9.895,4.043,17.272,13.363,20.243,25.57c2.379,9.773,1.929,20.641-1.301,31.428c-0.472,1.574-0.162,3.277,0.832,4.586
	c0.975,1.283,2.493,2.035,4.102,2.035c0.031,0,0.564-0.008,0.799-0.008c6.541,0,12.452,1.707,17.571,5.076
	c8.805,5.797,14.075,15.803,14.843,28.178c0.767,12.377-3.064,25.639-10.783,37.342c-0.385,0.584-0.78,1.164-1.188,1.74
	c-1.596,2.264-1.115,5.381,1.087,7.059c14.389,10.957,21.058,26.385,17.403,40.26c-2.59,9.834-10.049,17.871-21.004,22.627
	c-1.6,0.695-2.739,2.152-3.027,3.871c-0.287,1.719,0.316,3.467,1.603,4.642c8.697,7.953,15.054,17.897,17.897,28
	c3.405,12.092,1.553,23.83-5.082,32.203c-2.313,2.92-5.115,5.367-8.331,7.277c-1.347,0.799-2.257,2.168-2.471,3.721
	c-0.214,1.551,0.291,3.115,1.372,4.25c17.239,18.096,21.205,42.016,9.43,56.881c-5.385,6.797-13.371,10.965-23.098,12.051
	c-2.606,0.291-4.578,2.494-4.578,5.113v23.361c0,2.836-2.31,5.145-5.149,5.145L93.26,504.501L93.26,504.501z"/>
<path style="fill:#FFFFFF;" d="M306.422,163.718H205.578c-44.556,0-80.675,36.119-80.675,80.676v20.168
	c0,39.094,27.811,71.687,64.727,79.09v-54.301c0-4.342,3.532-7.873,7.874-7.873h116.992c4.342,0,7.874,3.531,7.874,7.873v54.301
	c36.916-7.403,64.727-39.996,64.727-79.09v-20.168C387.097,199.837,350.977,163.718,306.422,163.718z"/>
<path style="fill:#F7931E;" d="M387.097,264.561v-10.824c-2.124-0.477-4.329-0.736-6.597-0.736c-16.568,0-30,13.432-30,30
	c0,13.56,9.001,25.016,21.352,28.728C381.434,298.462,387.097,282.177,387.097,264.561z"/>
<g style="opacity:0.15;">
	<path style="fill:#330068;" d="M154,263.169v-18.775c0-44.557,36.119-80.676,80.675-80.676h-29.097
		c-44.556,0-80.675,36.119-80.675,80.676v9.344c2.124-0.477,4.329-0.736,6.597-0.736C140.463,253.001,148.503,256.936,154,263.169z"
		/>
	<path style="fill:#330068;" d="M159.469,293.805c-3.317,8.576-10.442,15.256-19.322,17.925h-0.001
		c11.683,16.174,29.202,27.855,49.483,31.922v-12.154C176.091,322.367,165.475,309.237,159.469,293.805z"/>
</g>
<path id="SVGCleanerId_0" style="fill:#F7931E;" d="M131.5,253.001c-2.268,0-4.473,0.26-6.597,0.736v10.824
	c0,17.615,5.663,33.9,15.244,47.168c12.353-3.713,21.353-15.168,21.353-28.728C161.5,266.433,148.068,253.001,131.5,253.001z"/>
<g>
	<path id="SVGCleanerId_0_1_" style="fill:#F7931E;" d="M131.5,253.001c-2.268,0-4.473,0.26-6.597,0.736v10.824
		c0,17.615,5.663,33.9,15.244,47.168c12.353-3.713,21.353-15.168,21.353-28.728C161.5,266.433,148.068,253.001,131.5,253.001z"/>
</g>
<g>
	<circle style="fill:#046699;" cx="193.002" cy="236.48" r="18"/>
	<circle style="fill:#046699;" cx="319.002" cy="236.48" r="18"/>
</g>
<path style="fill:#FB8276;" d="M194.63,403.001c-2.762,0-5-2.238-5-5v-108.65c0-4.342,3.532-7.873,7.874-7.873h116.992
	c4.342,0,7.874,3.531,7.874,7.873v108.65c0,2.762-2.239,5-5,5H194.63z"/>
<path style="fill:#EF5050;" d="M296.816,403.001v-11.553c0-12.397-10.051-22.447-22.449-22.447c-7.596,0-14.306,3.775-18.367,9.549
	c-4.063-5.773-10.771-9.549-18.367-9.549c-12.398,0-22.449,10.051-22.449,22.447v11.553H296.816z"/>
<g style="opacity:0.15;">
	<path style="fill:#330068;" d="M213,398.001v-98.746l-7.334,16.336c-0.498,1.109-1.601,1.822-2.815,1.822
		c-1.216,0-2.318-0.713-2.816-1.822l-10.404-23.176v105.586c0,2.762,2.238,5,5,5h23.37C215.238,403.001,213,400.763,213,398.001z"/>
</g>
<g>
	<path style="fill:#D5E962;" d="M200.034,315.591c0.498,1.109,1.601,1.822,2.816,1.822s2.317-0.713,2.815-1.822l15.315-34.113
		h-23.478c-4.331,0-7.874,3.543-7.874,7.873v3.065L200.034,315.591z"/>
	<path style="fill:#D5E962;" d="M241.099,315.591l15.316-34.113h-36.263l15.315,34.113c0.498,1.109,1.601,1.822,2.815,1.822
		C239.498,317.413,240.601,316.7,241.099,315.591z"/>
	<path style="fill:#D5E962;" d="M276.532,315.591l15.316-34.113h-36.263l15.315,34.113c0.498,1.109,1.601,1.822,2.816,1.822
		C274.932,317.413,276.034,316.7,276.532,315.591z"/>
	<path style="fill:#D5E962;" d="M322.37,289.351c0-4.33-3.544-7.873-7.874-7.873h-23.478l15.315,34.113
		c0.498,1.109,1.601,1.822,2.815,1.822c1.215,0,2.317-0.713,2.815-1.822l10.405-23.176v-3.064H322.37z"/>
</g>
<path d="M457.424,391.359c2.557-3.228,4.568-6.878,5.978-10.85c1.386-3.903-0.655-8.19-4.559-9.576
	c-3.901-1.387-8.191,0.654-9.577,4.559c-0.857,2.415-2.069,4.62-3.601,6.554c-1.741,2.198-3.854,4.043-6.278,5.483
	c-3.332,1.976-5.546,5.311-6.074,9.147c-0.529,3.835,0.7,7.644,3.372,10.447c14.633,15.36,18.41,35.147,8.981,47.051
	c-4.116,5.195-10.358,8.396-18.051,9.254c-6.412,0.716-11.246,6.119-11.246,12.567v21.006H196c-4.142,0-7.5,3.357-7.5,7.5
	s3.358,7.5,7.5,7.5h222.72c6.975,0,12.649-5.672,12.649-12.644v-21.298c10.821-1.662,19.798-6.673,26.055-14.57
	c13.653-17.235,10.22-44.037-7.961-64.622C452.469,396.761,455.139,394.244,457.424,391.359z"/>
<path d="M450.058,250.519c0.02-0.03,0.039-0.06,0.059-0.089c8.61-13.053,12.875-27.946,12.008-41.936
	c-0.917-14.786-7.382-26.854-18.205-33.979c-5.755-3.788-12.277-5.888-19.414-6.254c2.842-11.086,3.047-22.218,0.575-32.372
	c-1.165-4.787-2.929-9.202-5.19-13.16c7.738-7.785,14.16-16.931,18.944-27.181c10.867-23.284,12.02-49.369,3.247-73.449
	c-1.489-4.092-3.317-8.19-5.434-12.184C433.406,3.8,427.092,0,420.17,0c-0.986,0-1.981,0.08-2.975,0.239
	c-1.178,0.191-2.33,0.492-3.406,0.887c-6.285,2.283-10.886,7.797-12.008,14.386c-3.993,23.419-23.724,45.304-50.971,57.085
	c-5.351-4.903-11.703-8.281-18.71-9.657c-2.387-0.471-4.833-0.71-7.267-0.71c-10.149,0-20.33,4.127-28.979,11.688
	c-8.529-17.45-23.561-28.151-39.863-28.151c-15.45,0-29.641,9.438-38.428,25.4c-7.893-5.857-16.678-8.938-25.57-8.938
	c-2.434,0-4.879,0.239-7.259,0.709c-7.637,1.5-14.5,5.395-20.137,11.064c-29.001-11.385-50.22-34.106-54.378-58.49
	c-1.123-6.591-5.724-12.104-11.988-14.38c-1.096-0.401-2.25-0.702-3.444-0.896C93.811,0.08,92.816,0,91.83,0
	c-6.922,0-13.236,3.8-16.48,9.918c-2.118,3.998-3.945,8.097-5.432,12.18c-8.773,24.082-7.62,50.167,3.248,73.451
	c5.429,11.634,12.97,21.842,22.151,30.252c-1.496,3.132-2.701,6.507-3.573,10.089c-2.814,11.565-2.108,24.625,1.961,37.13
	c-0.176-0.002-0.351-0.003-0.524-0.003c-15.795,0-28.784,6.178-36.573,17.396c-11.173,16.094-8.157,39.896,7.182,58.645
	c-16.733,12.728-24.646,31.41-20.222,48.211c2.925,11.106,10.72,20.272,22.107,26.104c-8.43,8.457-14.609,18.676-17.542,29.094
	c-4.065,14.435-1.724,28.611,6.421,38.895c2.284,2.884,4.953,5.399,7.962,7.506c-18.182,20.586-21.615,47.388-7.961,64.621
	c6.255,7.897,15.232,12.909,26.055,14.571v21.298c0,6.973,5.674,12.644,12.649,12.644h54.74c4.142,0,7.5-3.357,7.5-7.5
	s-3.358-7.5-7.5-7.5h-52.39v-21.006c0-6.448-4.835-11.852-11.246-12.567c-7.694-0.858-13.936-4.059-18.051-9.254
	c-9.43-11.902-5.652-31.689,8.981-47.051c2.671-2.804,3.899-6.611,3.371-10.446c-0.528-3.839-2.743-7.174-6.07-9.145
	c-2.429-1.442-4.542-3.287-6.281-5.484c-5.123-6.467-6.487-15.767-3.742-25.516c2.47-8.773,8.059-17.473,15.743-24.501
	c3.174-2.907,4.645-7.174,3.934-11.409c-0.708-4.242-3.488-7.799-7.437-9.516c-8.801-3.82-14.746-10.092-16.738-17.657
	c-2.988-11.346,3.454-24.546,16.41-33.63c2.943-2.063,4.873-5.291,5.298-8.86c0.424-3.568-0.695-7.16-3.072-9.855
	c-12.201-13.833-15.401-31.16-7.781-42.135c4.903-7.062,13.516-10.951,24.252-10.951c0.945,0,1.956,0.034,3.006,0.103
	c4.294,0.331,8.479-1.637,11.031-5.066c2.582-3.47,3.213-7.956,1.689-12.001c-4.027-10.696-4.946-21.924-2.588-31.615
	c2.396-9.843,8.152-17.278,15.796-20.402c2.753-1.126,5.707-1.697,8.778-1.697c4.776,0,9.667,1.32,14.534,3.925
	c3.676,1.968,8.334,1.952,11.98-0.022c3.754-2.024,6.218-5.769,6.592-10.02c1.545-17.604,11.04-31.091,23.633-33.563
	c7.528-1.487,15.545,0.968,22.637,6.849c2.945,2.437,6.948,3.426,10.704,2.627c3.813-0.813,6.987-3.281,8.708-6.772
	c6.055-12.269,15.89-19.593,26.309-19.593c11.112,0,21.629,8.451,27.445,22.053c1.645,3.853,5.082,6.635,9.162,7.436
	c0.808,0.162,1.639,0.244,2.471,0.244c3.341,0,6.493-1.29,8.874-3.633c7.606-7.483,16.769-10.885,25.259-9.209
	c12.641,2.483,22.14,15.962,23.636,33.536c0.359,4.248,2.812,8.001,6.555,10.037c3.665,1.996,8.315,2.014,11.987,0.06
	c4.869-2.588,9.9-3.955,14.55-3.955c3.068,0,6.023,0.572,8.783,1.7c7.641,3.123,13.397,10.559,15.793,20.401
	c2.064,8.48,1.649,17.99-1.198,27.502c-1.155,3.854-0.391,8.07,2.044,11.274c2.377,3.13,6.143,4.999,10.074,4.999l0.799-0.008
	c5.051,0,9.575,1.292,13.447,3.841c6.786,4.468,10.863,12.415,11.481,22.377c0.667,10.763-2.727,22.394-9.56,32.752
	c-0.34,0.516-0.689,1.028-1.055,1.545c-3.938,5.586-2.764,13.205,2.673,17.347c11.932,9.086,17.563,21.494,14.694,32.383
	c-1.992,7.565-7.936,13.837-16.741,17.659c-3.944,1.714-6.724,5.27-7.435,9.514c-0.709,4.243,0.764,8.51,3.938,11.413
	c3.106,2.84,5.892,5.977,8.28,9.322c2.407,3.372,7.09,4.154,10.461,1.748c3.372-2.406,4.154-7.09,1.748-10.461
	c-2.335-3.272-4.969-6.381-7.853-9.272c11.387-5.832,19.182-14.997,22.106-26.103C472.695,281.004,465.677,263.267,450.058,250.519z
	 M85.831,87.085c-3.03-6.992-5.045-14.255-6.024-21.62c11.628-1.715,22.805-5.131,33.369-10.211
	c4.18,5.084,8.979,9.854,14.296,14.226C117.608,76.59,103.782,83.837,85.831,87.085z M88.604,16.941
	C89.239,15.744,90.475,15,91.83,15c0.193,0,0.39,0.016,0.567,0.045c0.241,0.039,0.467,0.097,0.691,0.179
	c1.227,0.446,2.124,1.521,2.344,2.809c1.453,8.523,4.564,16.853,9.069,24.71c-8.06,3.643-16.515,6.196-25.273,7.632
	c0.446-7.81,2.034-15.595,4.785-23.145C85.264,23.792,86.81,20.33,88.604,16.941z M149.437,106.518
	c-6.097-2.775-12.321-4.181-18.544-4.181c-5.028,0-9.893,0.947-14.455,2.813c-4.636,1.895-8.81,4.703-12.401,8.257
	c-3.955-3.803-7.523-8.016-10.653-12.591c20.664-4.626,36.264-13.816,46.908-22.21c4.831,2.96,9.952,5.615,15.316,7.919
	C152.573,92.445,150.441,99.199,149.437,106.518z M416.567,18.032c0.219-1.286,1.118-2.362,2.365-2.816
	c0.205-0.075,0.43-0.134,0.654-0.17c1.545-0.25,3.084,0.526,3.808,1.894c1.794,3.384,3.338,6.847,4.593,10.292
	c2.75,7.55,4.338,15.333,4.784,23.143c-8.762-1.436-17.22-3.991-25.283-7.636C411.994,34.882,415.114,26.555,416.567,18.032z
	 M398.814,55.25c10.567,5.082,21.748,8.499,33.379,10.215c-0.979,7.365-2.995,14.628-6.024,21.62
	c-17.949-3.248-31.773-10.493-41.637-17.602C389.849,65.112,394.634,60.333,398.814,55.25z M410.251,111.114
	c-2.977-2.479-6.278-4.499-9.863-5.964c-4.57-1.868-9.434-2.815-14.458-2.815c-6.07,0-12.41,1.444-18.518,4.201
	c-1.088-8.075-3.558-15.467-7.109-21.806c3.945-1.864,7.762-3.9,11.399-6.129c10.643,8.395,26.244,17.588,46.911,22.214
	C416.099,104.49,413.301,107.93,410.251,111.114z"/>
<path d="M104.727,394.939c4.142,0,7.5-3.357,7.5-7.5v-11.375c0-4.143-3.358-7.5-7.5-7.5s-7.5,3.357-7.5,7.5v11.375
	C97.227,391.581,100.584,394.939,104.727,394.939z"/>
<path d="M125.168,404.939v11.375c0,4.143,3.358,7.5,7.5,7.5s7.5-3.357,7.5-7.5v-11.375c0-4.143-3.358-7.5-7.5-7.5
	S125.168,400.796,125.168,404.939z"/>
<path d="M386.095,404.939c0-4.143-3.358-7.5-7.5-7.5s-7.5,3.357-7.5,7.5v11.375c0,4.143,3.358,7.5,7.5,7.5s7.5-3.357,7.5-7.5
	V404.939z"/>
<path d="M159.595,370.751c-4.142,0-7.5,3.357-7.5,7.5v11.375c0,4.143,3.358,7.5,7.5,7.5s7.5-3.357,7.5-7.5v-11.375
	C167.095,374.108,163.737,370.751,159.595,370.751z"/>
<path d="M358.095,389.626v-11.375c0-4.143-3.358-7.5-7.5-7.5s-7.5,3.357-7.5,7.5v11.375c0,4.143,3.358,7.5,7.5,7.5
	S358.095,393.769,358.095,389.626z"/>
<path d="M414.773,389.626v-11.375c0-4.143-3.358-7.5-7.5-7.5s-7.5,3.357-7.5,7.5v11.375c0,4.143,3.358,7.5,7.5,7.5
	S414.773,393.769,414.773,389.626z"/>
<path d="M105.689,463.189c4.142,0,7.5-3.357,7.5-7.5v-11.375c0-4.143-3.358-7.5-7.5-7.5s-7.5,3.357-7.5,7.5v11.375
	C98.189,459.831,101.547,463.189,105.689,463.189z"/>
<path d="M391.856,463.189c4.142,0,7.5-3.357,7.5-7.5v-11.375c0-4.143-3.358-7.5-7.5-7.5s-7.5,3.357-7.5,7.5v11.375
	C384.356,459.831,387.714,463.189,391.856,463.189z"/>
<path d="M150.012,456.064c-4.142,0-7.5,3.357-7.5,7.5v11.375c0,4.143,3.358,7.5,7.5,7.5s7.5-3.357,7.5-7.5v-11.375
	C157.512,459.421,154.154,456.064,150.012,456.064z"/>
<path d="M355.243,482.439c4.142,0,7.5-3.357,7.5-7.5v-11.375c0-4.143-3.358-7.5-7.5-7.5s-7.5,3.357-7.5,7.5v11.375
	C347.743,479.081,351.101,482.439,355.243,482.439z"/>
<path d="M193.095,444.376v11.375c0,4.143,3.358,7.5,7.5,7.5s7.5-3.357,7.5-7.5v-11.375c0-4.143-3.358-7.5-7.5-7.5
	S193.095,440.233,193.095,444.376z"/>
<path d="M293.095,444.376v11.375c0,4.143,3.358,7.5,7.5,7.5s7.5-3.357,7.5-7.5v-11.375c0-4.143-3.358-7.5-7.5-7.5
	S293.095,440.233,293.095,444.376z"/>
<path d="M242.095,461.626v11.375c0,4.143,3.358,7.5,7.5,7.5s7.5-3.357,7.5-7.5v-11.375c0-4.143-3.358-7.5-7.5-7.5
	S242.095,457.483,242.095,461.626z"/>
<path d="M167.5,236.478c0,14.061,11.439,25.5,25.5,25.5s25.5-11.439,25.5-25.5s-11.439-25.5-25.5-25.5S167.5,222.417,167.5,236.478z
	 M203.5,236.478c0,5.79-4.71,10.5-10.5,10.5s-10.5-4.71-10.5-10.5s4.71-10.5,10.5-10.5S203.5,230.688,203.5,236.478z"/>
<path d="M319,210.978c-14.06,0-25.5,11.439-25.5,25.5s11.44,25.5,25.5,25.5c14.061,0,25.5-11.439,25.5-25.5
	C344.5,222.417,333.06,210.978,319,210.978z M319,246.978c-5.79,0-10.5-4.71-10.5-10.5s4.71-10.5,10.5-10.5s10.5,4.71,10.5,10.5
	C329.5,242.268,324.79,246.978,319,246.978z"/>
<path d="M317.37,410.501c6.893,0,12.5-5.607,12.5-12.5v-48.436c37.274-10.294,64.727-44.5,64.727-85.003v-20.168
	c0-16.872-4.782-33.273-13.83-47.43c-2.23-3.49-6.869-4.512-10.358-2.28c-3.49,2.23-4.511,6.868-2.28,10.358
	c7.503,11.739,11.469,25.347,11.469,39.352v1.131c-20.261,0.482-36.597,17.102-36.597,37.477c0,12.763,6.644,24.511,16.979,31.336
	c-8.182,8.791-18.493,15.566-30.108,19.507v-44.493c0-8.477-6.897-15.373-15.374-15.373H197.504
	c-8.477,0-15.374,6.896-15.374,15.373v44.493c-11.615-3.941-21.927-10.716-30.108-19.507c10.335-6.826,16.979-18.573,16.979-31.336
	c0-20.375-16.336-36.994-36.597-37.477v-1.131c0-40.35,32.826-73.176,73.175-73.176h100.843c10.978,0,21.527,2.368,31.357,7.038
	c3.741,1.776,8.215,0.186,9.993-3.556c1.777-3.741,0.186-8.216-3.556-9.993c-11.856-5.633-24.572-8.489-37.794-8.489H205.578
	c-48.62,0-88.175,39.556-88.175,88.176v20.168c0,40.503,27.453,74.709,64.727,85.003v48.436c0,6.893,5.607,12.5,12.5,12.5H317.37z
	 M358,283.001c0-12.104,9.607-22.001,21.597-22.477v4.037c0,13.824-3.866,26.756-10.557,37.793
	C362.35,298.36,358,291.008,358,283.001z M289.316,395.501h-66.633v-4.053c0-8.242,6.706-14.947,14.949-14.947
	c4.856,0,9.429,2.379,12.233,6.365c1.405,1.996,3.693,3.184,6.134,3.184c2.441,0,4.729-1.188,6.134-3.185
	c2.803-3.985,7.376-6.364,12.233-6.364c8.243,0,14.949,6.705,14.949,14.947L289.316,395.501L289.316,395.501z M314.496,288.978
	c0.199,0,0.374,0.175,0.374,0.373v1.458l-5.721,12.741l-6.542-14.572H314.496z M280.259,288.978l-6.543,14.573l-6.543-14.573
	H280.259z M244.826,288.978l-6.543,14.572l-6.542-14.572H244.826z M197.13,289.351c0-0.198,0.175-0.373,0.374-0.373h11.889
	l-6.542,14.573l-5.72-12.742L197.13,289.351L197.13,289.351z M197.13,323.229c1.675,1.076,3.651,1.684,5.721,1.684
	c4.162,0,7.953-2.453,9.658-6.25l8.059-17.95l8.059,17.949c1.705,3.798,5.496,6.251,9.658,6.251s7.953-2.453,9.658-6.25l8.059-17.95
	l8.059,17.949c1.705,3.798,5.496,6.251,9.659,6.251c4.162,0,7.953-2.453,9.658-6.25l8.059-17.95l8.059,17.949
	c1.705,3.798,5.496,6.251,9.658,6.251c2.069,0,4.046-0.607,5.721-1.684v72.272h-10.554v-4.053c0-16.513-13.435-29.947-29.949-29.947
	c-6.724,0-13.173,2.271-18.368,6.305c-5.195-4.033-11.644-6.305-18.367-6.305c-16.514,0-29.949,13.435-29.949,29.947v4.053h-10.554
	v-72.272H197.13z M132.403,260.524C144.392,261,154,270.897,154,283.001c0,8.008-4.35,15.359-11.04,19.353
	c-6.691-11.037-10.557-23.969-10.557-37.793V260.524z"/>
<g>
</g>
<g>
</g>
<g>
</g>
<g>
</g>
<g>
</g>
<g>
</g>
<g>
</g>
<g>
</g>
<g>
</g>
<g>
</g>
<g>
</g>
<g>
</g>
<g>
</g>
<g>
</g>
<g>
</g>
</svg>
