<svg id="Capa_1" enable-background="new 0 0 486.428 486.428" height="512" viewBox="0 0 486.428 486.428" width="512" xmlns="http://www.w3.org/2000/svg"><g><path d="m51.199 318.833-42.756 43.569c-2.035 2.074-.566 5.575 2.34 5.575h361.451c19.684 0 35.059-8.085 50.902-23.928l36.427-39.464z" fill="#544f56"/><path d="m428.564 305.666-35.428 38.382c-15.843 15.843-31.219 23.928-50.902 23.928h30c19.684 0 35.059-8.085 50.902-23.928l36.427-39.464z" fill="#444145"/><path d="m146.119 269.536c-3.388-.239-33.033-39.201-33.033-39.201l-74.775-15.57c-3.71-.773-7.134 2.206-6.881 5.988l2.764 41.413c.079 1.191.529 2.327 1.286 3.25l34.444 42.001 67.725-12.836z" fill="#544f56"/><path d="m364.581 177.918-13.713-9.587c-2.493-1.743-5.792-1.807-8.351-.163l-42.048 27.023c-12.135 7.799-25.859 12.782-40.174 14.557-17.853 2.214-42.442 2.982-63.433-4.571-38.106-13.71-125.221-36.574-142.264-1.855-13.778 28.067 66.137 73.462 66.137 73.462l148.953 32.152 121.941-83.684z" fill="#e3e0e4"/><path d="m474.569 257.096c-18.1-32.938-58.078-97.199-96.888-102.241-2.809-.365-5.529 1.159-6.787 3.697l-19.866 40.054c-5.874 11.843-15.284 21.566-26.928 27.824l-39.95 21.472c-21 11.287-45.475 14.269-68.571 8.354-23.797-6.094-49.029-2.737-70.405 9.366l-93.974 53.209 385.376 4.035s16.353-5.006 34.402-26.904c9.055-10.984 10.447-26.389 3.591-38.866z" fill="#f7d958"/><path d="m474.569 257.096c-18.1-32.938-58.078-97.199-96.888-102.241-2.809-.365-5.529 1.159-6.787 3.697l-2.151 4.338c31.51 19.261 61.005 67.233 75.827 94.206 6.856 12.477 5.464 27.881-3.591 38.867-15.62 18.951-29.961 25.247-33.541 26.599l29.138.305s16.353-5.006 34.402-26.904c9.055-10.985 10.447-26.39 3.591-38.867z" fill="#f3c625"/><path d="m348.271 186.71-44.423-33.855c-3.445-2.626-4.812-7.169-3.388-11.26l3.793-10.894c1.819-5.224 7.529-7.984 12.753-6.166l21.109 7.35c18.335 6.384 28.023 26.423 21.639 44.758l-2.571 7.385c-1.286 3.693-5.803 5.052-8.912 2.682z" fill="#544f56"/><circle cx="296.834" cy="137.482" fill="#e3e0e4" r="19.03"/><path d="m481.142 253.484c-7.379-13.428-17.359-30.235-29.043-46.5-.062-.091-.127-.178-.193-.266-20.744-28.82-46.828-55.868-73.259-59.301-4.38-.567-8.675.98-11.719 3.995-4.086-12.023-13.453-22.121-26.348-26.611 0 0-25.346-8.381-27.531-8.296-4.487-3.477-10.112-5.554-16.215-5.554-14.629 0-26.53 11.901-26.53 26.53s11.901 26.53 26.53 26.53c2.699 0 5.304-.408 7.76-1.16l14.787 11.27-22.966 14.76c-11.139 7.158-23.947 11.799-37.043 13.423-16.4 2.034-40.117 2.959-59.971-4.185-22.867-8.227-62.446-17.221-93.849-18.491-4.109-.179-7.63 3.052-7.797 7.19-.167 4.139 3.053 7.63 7.191 7.797 11.936.483 25.116 2.142 38.032 4.457 1.157 9.077 5.764 31.792 23.643 49.873-8.697 2.231-17.147 5.623-25.144 10.151l-18.352 10.392c-4.584-2.731-20.108-12.244-34.596-24.169-20.093-16.538-29.883-30.936-26.86-39.501 2.26-6.402 12.168-9.137 20.081-10.303 4.098-.604 6.93-4.416 6.326-8.514-.605-4.098-4.413-6.928-8.514-6.326-17.447 2.572-28.227 9.352-32.038 20.151-.898 2.546-1.356 5.183-1.39 7.907l-6.293-1.311c-4.086-.852-8.232.231-11.38 2.971-3.146 2.739-4.792 6.697-4.514 10.858l2.764 41.411c.184 2.768 1.211 5.364 2.97 7.509l29.248 35.665-11.279 6.386c-.001 0-.002.001-.002.001s-1.302.846-1.801 1.355l-42.758 43.572c-3.048 3.106-3.93 7.708-2.244 11.721 1.685 4.013 5.585 6.606 9.938 6.606h228.534c4.143 0 7.5-3.358 7.5-7.5s-3.357-7.5-7.5-7.5h-218.477l33.474-34.111 371.348 3.888-7.935 8.596c-15.189 15.157-28.804 21.627-45.494 21.627h-102.917c-4.143 0-7.5 3.358-7.5 7.5s3.357 7.5 7.5 7.5h102.917c20.803 0 38.138-8.057 56.205-26.125.071-.071.141-.143.208-.216l16.905-18.315c.436-.472.791-.989 1.083-1.53 2.89-1.615 13.511-8.393 30.129-28.557 11.06-13.418 12.778-31.964 4.379-47.25zm-128.471-79.307-1.776 5.102-33.266-25.352c3.586-4.525 5.735-10.237 5.735-16.445 0-.961-.055-1.91-.155-2.845l12.439 4.331c14.401 5.014 22.037 20.809 17.023 35.209zm-67.367-36.695c0-6.358 5.173-11.53 11.53-11.53s11.53 5.172 11.53 11.53-5.173 11.53-11.53 11.53-11.53-5.172-11.53-11.53zm-24.087 79.709c15.314-1.898 30.288-7.324 43.307-15.69l27.55-17.705 11.651 8.88c.452.344.927.646 1.413.926l-.829 1.672c-5.213 10.508-13.429 18.997-23.761 24.55l-39.949 21.472c-10.258 5.514-21.367 8.853-32.711 9.989 1.618-5.2 2.342-11.512 2.14-18.932-.146-5.372-.749-10.361-1.31-13.991 4.459-.284 8.669-.696 12.499-1.171zm-102.466-14.948c13.568 3.023 26.079 6.576 35.571 9.991 12.659 4.555 26.438 6.26 39.28 6.492 2.043 11.258 2.5 27.131-2.287 32.635-4.649-.422-9.288-1.194-13.877-2.37-10.291-2.636-20.769-3.644-31.118-3.077-18.708-12.821-25.297-32.741-27.569-43.671zm-117.111 58.858-2.57-38.517 10.723 2.232c.219.045.438.076.656.102 5.074 9.817 14.602 20.503 28.549 31.982 10.739 8.839 21.819 16.31 29.229 21.024l-36.05 20.412zm423.55 30.092c-12.848 15.588-21.455 22.105-24.617 24.216l-361.423-3.784 69.718-39.476c11.049-6.257 23.109-9.969 35.44-11.051.008 0 .015.001.023.001.351 0 .699-.031 1.045-.079 9.411-.709 18.966.1 28.342 2.502 24.988 6.4 51.264 3.198 73.982-9.014l39.949-21.472c13.087-7.034 23.494-17.787 30.097-31.098l19.618-39.555c14.635 2.213 32.159 15.298 50.733 37.893 2.363 2.875 4.67 5.823 6.927 8.807-14.755 9.447-47.574 32.885-56.048 59.258-1.267 3.944.902 8.168 4.847 9.435.763.245 1.535.361 2.296.361 3.17 0 6.116-2.027 7.139-5.207 3.633-11.307 14.363-24.347 31.031-37.708 7.535-6.04 14.742-10.892 19.53-13.938 9.836 14.283 18.175 28.502 24.176 39.424 5.425 9.871 4.323 21.837-2.805 30.485z"/></g></svg>