<svg id="Capa_1" enable-background="new 0 0 492 492" height="512" viewBox="0 0 492 492" width="512" xmlns="http://www.w3.org/2000/svg"><g><path d="m59.028 237.231 26.299-21.442c21.037-17.152 50.553-19.322 73.873-5.432 7.632 4.546 16.118 7.468 24.931 8.585l77.093 9.775-16.723 59.521-78.695-10.204z" fill="#80b6fc"/><path d="m459.834 245.271-54.713-146.268c-1.991-5.322-8.484-7.313-13.116-4.022l-3.345 2.377c-8.003 5.687-12.107 15.408-10.599 25.109l10.386 66.834 12.732 51.637z" fill="#bed9fd"/><path d="m197.472 398.628h-160.718c-16.156 0-29.254-13.097-29.254-29.254v-4.876c0-16.156 13.097-29.254 29.254-29.254h160.718c16.156 0 29.254 13.097 29.254 29.254v4.876c0 16.156-13.097 29.254-29.254 29.254z" fill="#b1abb4"/><path d="m356.244 342.36c17.436 0 34.307-6.183 47.614-17.45l44.337-37.539c19.136-16.202 18.086-46.035-2.142-60.852l-39.66-29.05c-10.56-7.735-25.172-6.67-34.499 2.515l-22.189 21.852-29.382-12.758c-12.395-5.382-25.763-8.159-39.275-8.159-36.024 0-70.93 15.059-93.913 42.799-7.341 8.86-19.684 11.773-30.219 7.11l-58.452-25.87c-28.054-12.417-60.743-7.658-84.092 12.243l-3.772 3.215 164.2 92.464c11.037 6.215 23.489 9.48 36.155 9.48z" fill="#92e0c4"/><path d="m428.981 242.993 30.852 2.279-54.712-146.269c-1.991-5.322-8.484-7.313-13.116-4.021l-3.345 2.377c-4.463 3.171-7.709 7.599-9.45 12.576z" fill="#9ec8fc"/><path d="m197.472 335.244h-30c16.157 0 29.254 13.098 29.254 29.254v4.876c0 16.156-13.097 29.254-29.254 29.254h30c16.157 0 29.254-13.098 29.254-29.254v-4.876c0-16.157-13.097-29.254-29.254-29.254z" fill="#a29aa5"/><path d="m446.053 226.52-39.66-29.051c-9.249-6.774-21.604-6.798-30.796-.529.264.179.537.34.796.529l39.66 29.051c20.228 14.817 21.278 44.65 2.142 60.852l-44.337 37.539c-13.307 11.267-30.178 17.449-47.614 17.449h30c17.436 0 34.307-6.183 47.614-17.449l44.337-37.539c19.136-16.202 18.086-46.035-2.142-60.852z" fill="#77d1b3"/><circle cx="50.903" cy="366.936" r="8.125"/><circle cx="93.653" cy="366.936" r="8.125"/><circle cx="136.403" cy="366.936" r="8.125"/><circle cx="179.152" cy="366.936" r="8.125"/><path d="m490.105 359.425c-2.752-3.095-7.492-3.375-10.589-.622l-32.571 28.959-35.563-59.396 41.658-35.271c10.886-9.217 16.842-22.679 16.34-36.934-.362-10.274-4.055-19.89-10.39-27.621l-46.8-132.042c-.015-.041-.029-.082-.045-.123-1.772-4.735-5.561-8.301-10.395-9.783-4.834-1.481-9.969-.652-14.091 2.277l-3.344 2.376c-10.387 7.38-15.624 19.786-13.667 32.375l9.747 62.725c-2.453.772-4.832 1.829-7.091 3.164l-44.036-57.346c-1.419-1.849-3.617-2.932-5.948-2.932h-42.957c-4.143 0-7.5 3.358-7.5 7.5s3.357 7.5 7.5 7.5h39.26l42.283 55.062-13.859 13.647-24.739-10.742c-13.417-5.826-27.637-8.78-42.263-8.78-26.429 0-51.478 7.479-72.344 21.133-.279-.069-.563-.126-.855-.163l-22.773-2.887c-7.836-.994-15.25-3.547-22.036-7.589-25.927-15.444-59.061-13.007-82.451 6.064l-1.959 1.598c-24.46-3.466-49.874 3.512-69.121 19.918l-3.772 3.215c-1.866 1.59-2.837 3.991-2.601 6.431.235 2.44 1.649 4.61 3.785 5.813l55.508 31.257-30.071 49.808c-18.198 2.181-32.355 17.705-32.355 36.482v4.876c0 20.266 16.487 36.754 36.754 36.754h6.341c4.143 0 7.5-3.358 7.5-7.5s-3.357-7.5-7.5-7.5h-6.341c-11.995 0-21.754-9.759-21.754-21.754v-4.876c0-11.99 9.75-21.745 21.738-21.753h.009c.005 0 .01-.001.015-.001h160.71c11.995 0 21.754 9.759 21.754 21.754v4.876c0 11.995-9.759 21.754-21.754 21.754h-124.377c-4.143 0-7.5 3.358-7.5 7.5s3.357 7.5 7.5 7.5h124.378c20.267 0 36.754-16.488 36.754-36.754v-4.876c0-5.201-1.092-10.149-3.049-14.638h85.734c4.143 0 7.5-3.358 7.5-7.5s-3.357-7.5-7.5-7.5c0 0-97.379.021-97.662.053-6.1-4.501-13.631-7.169-21.777-7.169h-16.671c-.341-.269-156.933-88.463-156.933-88.463 20.636-14.833 48.1-17.848 71.559-7.464l58.451 25.87c13.537 5.99 29.587 2.214 39.029-9.183 21.106-25.474 53.231-40.085 88.138-40.085 12.559 0 24.768 2.536 36.288 7.539l23.05 10.009c-9.74 25.765-34.306 42.869-62.074 42.869h-42.056c-4.143 0-7.5 3.358-7.5 7.5s3.357 7.5 7.5 7.5h42.056c35.304 0 66.392-22.546 77.358-56.104l.598-1.831 20.89-20.572c6.741-6.639 17.173-7.398 24.805-1.809l39.66 29.051c7.775 5.695 12.43 14.486 12.77 24.119.266 7.568-2.171 14.799-6.792 20.574l-11.667-13.495c-2.71-3.133-7.445-3.476-10.579-.769-3.133 2.709-3.478 7.445-.768 10.579l11.958 13.832-10.826 9.166-11.863-13.721c-2.71-3.133-7.445-3.476-10.579-.769-3.133 2.709-3.478 7.445-.769 10.579l11.761 13.605-9.59 8.12-11.677-13.506c-2.709-3.133-7.445-3.476-10.579-.769-3.133 2.709-3.478 7.445-.769 10.579l11.279 13.046c-10.82 7.203-23.591 11.119-36.688 11.119h-9.333c-4.143 0-7.5 3.358-7.5 7.5s3.357 7.5 7.5 7.5h9.333c15.302 0 30.244-4.355 43.098-12.403l31.437 52.504h-96.178c-4.143 0-7.5 3.358-7.5 7.5s3.357 7.5 7.5 7.5h112.724c1.837 0 3.61-.674 4.983-1.895l37.176-33.052c3.096-2.752 3.374-7.493.622-10.589zm-401.615-66.54-20.631 34.859h-17.816l25.46-42.171zm61.902 34.859h-65.104l16.274-27.497zm30.965-88.811c-5.178 6.251-13.981 8.323-21.408 5.036l-58.451-25.87c-1.318-.583-2.65-1.119-3.988-1.632 17.687-10.227 39.941-10.337 57.852.333 8.569 5.104 17.931 8.329 27.825 9.583l8.959 1.136c-3.819 3.557-7.429 7.36-10.789 11.414zm214.028-53.824-9.913-63.793c-1.078-6.939 1.808-13.776 7.533-17.845l3.345-2.377c.307-.218.645-.273 1.005-.163.349.107.594.33.729.664l38.532 108.714-25.791-18.891c-4.709-3.448-10.016-5.538-15.44-6.309z"/></g></svg>