<?xml version="1.0" encoding="iso-8859-1"?>
<!-- Generator: Adobe Illustrator 19.0.0, SVG Export Plug-In . SVG Version: 6.00 Build 0)  -->
<svg version="1.1" id="Capa_1" xmlns="http://www.w3.org/2000/svg" xmlns:xlink="http://www.w3.org/1999/xlink" x="0px" y="0px"
	 viewBox="0 0 512 512" style="enable-background:new 0 0 512 512;" xml:space="preserve">
<g>
	<path style="fill:#046699;" d="M177.421,372.435c-1.716-3.863-3.06-7.929-3.968-12.157h-23.06
		c-16.62,0-30.143,13.522-30.143,30.143V499.44c0,2.775,2.249,5.024,5.024,5.024h37.713v-89.062
		C162.986,399.26,168.365,384.377,177.421,372.435z"/>
	<path style="fill:#046699;" d="M322.967,360.278h-23.061c-0.908,4.228-2.252,8.293-3.968,12.157
		c9.056,11.942,14.435,26.825,14.435,42.968v89.062h37.713c2.775,0,5.024-2.249,5.024-5.024V390.423
		C353.11,373.801,339.587,360.278,322.967,360.278z"/>
</g>
<g style="opacity:0.15;">
	<path style="fill:#3D0072;" d="M149.494,499.44V390.422c0-16.621,13.523-30.143,30.143-30.143h-29.244
		c-16.62,0-30.143,13.522-30.143,30.143V499.44c0,2.775,2.249,5.024,5.024,5.024h29.244
		C151.743,504.464,149.494,502.215,149.494,499.44z"/>
</g>
<path style="fill:#6BC1DD;" d="M295.938,372.435c-9.713,21.866-31.605,37.121-57.073,37.121h-4.372
	c-25.468,0-47.359-15.255-57.073-37.121c-9.056,11.942-14.434,26.825-14.434,42.967v89.062h147.387v-89.062
	C310.373,399.26,304.995,384.377,295.938,372.435z"/>
<path style="fill:#98E8F9;" d="M278.113,333.307c-11.72,4.477-24.437,6.935-37.731,6.935h-7.405c-13.292,0-26.01-2.459-37.729-6.934
	v26.971h-21.795c6.048,28.162,31.074,49.277,61.041,49.277h4.372c29.968,0,54.994-21.115,61.041-49.277h-21.794V333.307z"/>
<path style="fill:#D19546;" d="M299.601,162.431c-3.072,1.968-6.531,2.922-9.961,2.922c-5.277,0-10.486-2.255-14.112-6.538
	c-1.831-2.162-4.295-5.104-7.118-8.487l-4.24,6.296c-3.087,4.584-10.134,8.335-15.66,8.335h-24.812
	c-5.526,0-12.524-3.783-15.55-8.408l-3.689-5.636c-2.617,3.137-4.903,5.863-6.628,7.9c-3.627,4.283-8.836,6.538-14.113,6.538
	c-3.43,0-6.889-0.953-9.961-2.922c-0.947-0.607-1.879-1.201-2.809-1.793c-10.203,10.68-16.48,25.142-16.48,41.078v36.78
	c0,32.858,26.638,59.495,59.496,59.495h45.433c8.341,0,16.276-1.723,23.482-4.822v-28.305c0-2.763,2.261-5.024,5.024-5.024h27.03
	c2.549-6.628,3.961-13.82,3.961-21.346v-36.78c0-15.937-6.279-30.399-16.481-41.078C301.481,161.23,300.548,161.824,299.601,162.431
	z"/>
<path style="fill:#FB8276;" d="M173.106,251.762c-6.059,0-11.474,2.753-15.068,7.074c4.523,12.433,13.081,22.919,24.082,29.905
	c6.282-3.264,10.579-9.817,10.579-17.385C192.699,260.535,183.927,251.762,173.106,251.762z"/>
<g>
	<ellipse style="fill:#775436;" cx="191.611" cy="219.504" rx="13.541" ry="13.594"/>
	<ellipse style="fill:#775436;" cx="277.62" cy="219.504" rx="13.541" ry="13.594"/>
</g>
<g>
	<path style="fill:#046699;" d="M282.878,297.942v-4.773c-7.205,3.099-15.141,4.822-23.482,4.822h-45.433
		c-32.858,0-59.496-26.638-59.496-59.495v-36.78c0-15.937,6.279-30.398,16.48-41.078c-16.627-10.581-30.674-18.856-43.762-25.772
		v99.586c0,58.426,47.364,105.79,105.79,105.79h7.405c32.29,0,61.194-14.471,80.598-37.276h-33.078
		C285.139,302.966,282.878,300.705,282.878,297.942z"/>
	<path style="fill:#046699;" d="M302.411,160.637c10.203,10.68,16.481,25.143,16.481,41.078v36.78
		c0,7.526-1.412,14.718-3.961,21.346h21.2c2.763,0,5.024,2.261,5.024,5.024v1.846c3.253-10.17,5.016-21.009,5.016-32.259v-99.586
		C333.083,141.783,319.037,150.057,302.411,160.637z"/>
</g>
<path style="fill:#98E8F9;" d="M392.251,132.952h-28.134c-0.063,0-0.123-0.017-0.185-0.019v135.54h-22.776v28.505h22.776
	c15.717,0,28.504-12.787,28.504-28.505V132.934C392.372,132.936,392.314,132.952,392.251,132.952z"/>
<path style="fill:#6BC1DD;" d="M341.155,297.942c0,2.763-2.261,5.024-5.024,5.024h-48.229c-2.763,0-5.024-2.261-5.024-5.024v-33.077
	c0-2.763,2.261-5.024,5.024-5.024h48.229c2.763,0,5.024,2.261,5.024,5.024V297.942z"/>
<g style="opacity:0.15;">
	<path style="fill:#3D0072;" d="M306.239,297.942v-33.077c0-2.763,2.261-5.024,5.024-5.024h-23.361
		c-2.763,0-5.024,2.261-5.024,5.024v33.077c0,2.763,2.261,5.024,5.024,5.024h23.361C308.5,302.966,306.239,300.705,306.239,297.942z
		"/>
</g>
<path style="fill:#98E8F9;" d="M237.8,113.392c-0.392-0.474-0.766-0.927-1.121-1.357c-0.379,0.459-0.78,0.944-1.201,1.453
	c-7.549,9.135-21.496,26.014-31.02,37.426l3.689,5.636c3.026,4.625,10.024,8.408,15.55,8.408h24.812
	c5.526,0,12.574-3.75,15.66-8.335l4.24-6.296C258.883,138.906,245.241,122.397,237.8,113.392z"/>
<path style="fill:#FFFFFF;" d="M183.719,165.351c-3.43,0-6.889-0.953-9.961-2.922c-18.953-12.145-34.548-21.322-49.078-28.879
	c-6.116-3.181-9.953-9.501-9.953-16.396V57.681c0-8.6,5.932-16.063,14.31-18.004c35.252-8.166,71.468-12.308,107.641-12.308
	c36.175,0,72.391,4.141,107.646,12.309c8.378,1.94,14.31,9.404,14.31,18.004v59.473c0,6.894-3.837,13.215-9.952,16.395
	c-14.53,7.558-30.125,16.735-49.079,28.88c-3.072,1.968-6.531,2.922-9.961,2.922c-5.277,0-10.486-2.255-14.112-6.538
	c-8.012-9.461-28.082-33.75-37.727-45.422c-0.392-0.474-0.766-0.927-1.121-1.357c-0.379,0.459-0.78,0.944-1.201,1.453
	c-9.625,11.647-29.65,35.883-37.646,45.325C194.205,163.097,188.996,165.351,183.719,165.351z"/>
<path style="fill:#6BC1DD;" d="M182.718,145.292c-0.925,0-1.86-0.255-2.691-0.783c-16.752-10.639-30.779-18.885-44.145-25.95
	c-1.646-0.87-2.676-2.579-2.676-4.441V61.692c0-2.354,1.636-4.393,3.934-4.904c32.638-7.258,66.128-10.937,99.536-10.937
	c33.41,0,66.901,3.681,99.541,10.938c2.298,0.511,3.934,2.55,3.934,4.904v52.423c0,1.862-1.03,3.571-2.676,4.441
	c-13.37,7.069-27.397,15.315-44.145,25.95c-0.831,0.527-1.765,0.783-2.691,0.783c-1.443,0-2.866-0.62-3.851-1.795
	c-9.065-10.803-25.623-30.841-34.519-41.606l-4.921-5.952c-2.642-3.186-6.531-5.014-10.671-5.014c-4.14,0-8.029,1.828-10.672,5.016
	l-4.806,5.813c-8.279,10.021-25.509,30.872-34.632,41.745C185.584,144.672,184.161,145.292,182.718,145.292z"/>
<g>
	<path style="fill:#046699;" d="M152.653,53.63c-5.189,0.967-10.362,2.013-15.513,3.157c-2.298,0.511-3.934,2.55-3.934,4.904v52.424
		c0,1.862,1.03,3.571,2.676,4.441c5.433,2.872,10.98,5.944,16.77,9.288L152.653,53.63L152.653,53.63z"/>
	<path style="fill:#046699;" d="M320.706,53.63c5.189,0.967,10.362,2.013,15.513,3.157c2.298,0.511,3.934,2.55,3.934,4.904v52.424
		c0,1.862-1.03,3.571-2.676,4.441c-5.433,2.872-10.98,5.944-16.77,9.288V53.63H320.706z"/>
</g>
<path style="fill:#F7931E;" d="M359.093,127.928c0,2.763,2.261,5.024,5.024,5.024h28.134c2.763,0,5.024-2.261,5.024-5.024V49.146
	c0-2.763-1.581-6.64-3.514-8.615L362.606,8.681c-1.932-1.975-3.513-1.33-3.513,1.433V127.928z"/>
<g style="opacity:0.15;">
	<path style="fill:#3D0072;" d="M377.579,127.928V23.987L362.606,8.681c-1.932-1.975-3.513-1.33-3.513,1.433v117.814
		c0,2.763,2.261,5.024,5.024,5.024h18.486C379.839,132.952,377.579,130.692,377.579,127.928z"/>
</g>
<path d="M236.822,258.206h8.777c4.162,0,7.536-3.374,7.536-7.536c0-4.162-3.374-7.536-7.536-7.536h-8.777
	c-0.299,0-1.241-0.918-1.241-2.512v-19.668c0-4.162-3.374-7.536-7.536-7.536s-7.536,3.374-7.536,7.536v19.668
	C220.51,250.318,227.828,258.206,236.822,258.206z"/>
<path d="M212.688,219.504c0-11.65-9.455-21.13-21.076-21.13c-11.622,0-21.078,9.479-21.078,21.129
	c0,11.651,9.456,21.129,21.078,21.129C203.234,240.633,212.688,231.155,212.688,219.504z M191.612,225.562
	c-3.312,0-6.007-2.718-6.007-6.058s2.695-6.058,6.007-6.058c3.311,0,6.005,2.718,6.005,6.058
	C197.616,222.845,194.923,225.562,191.612,225.562z"/>
<path d="M298.695,219.504c0-11.65-9.455-21.13-21.077-21.13s-21.078,9.479-21.078,21.129c0,11.651,9.456,21.129,21.078,21.129
	C289.24,240.633,298.695,231.155,298.695,219.504z M277.617,225.562c-3.312,0-6.007-2.718-6.007-6.058s2.695-6.058,6.007-6.058
	s6.006,2.718,6.006,6.058C283.623,222.845,280.929,225.562,277.617,225.562z"/>
<path d="M262.176,268.341h-48.695c-4.162,0-7.536,3.374-7.536,7.536s3.374,7.536,7.536,7.536h48.695
	c4.162,0,7.536-3.374,7.536-7.536S266.338,268.341,262.176,268.341z"/>
<path d="M132.36,125.221c13.185,6.97,27.048,15.121,43.626,25.65c2.016,1.28,4.344,1.957,6.731,1.957
	c3.724,0,7.231-1.635,9.625-4.486c9.178-10.939,26.395-31.775,34.667-41.787l4.8-5.805c1.206-1.455,2.981-2.289,4.87-2.289
	s3.663,0.834,4.862,2.28l4.941,5.975c8.897,10.767,25.458,30.809,34.534,41.624c2.392,2.852,5.9,4.487,9.625,4.487
	c2.387,0,4.714-0.677,6.731-1.957c16.578-10.528,30.44-18.679,43.626-25.65c4.127-2.181,6.689-6.437,6.689-11.104V61.693
	c0-5.93-4.043-10.972-9.834-12.26c-11.034-2.454-22.318-4.532-33.536-6.176c-4.119-0.601-7.946,2.245-8.55,6.363
	c-0.604,4.118,2.246,7.946,6.363,8.55c3.676,0.54,7.359,1.142,11.039,1.775v63.569c-6.899,4.05-14.165,8.491-22.019,13.456
	c-9.265-11.069-24.613-29.641-33.072-39.88l-4.927-5.961c-4.078-4.919-10.082-7.74-16.472-7.74c-6.389,0-12.394,2.822-16.478,7.749
	l-4.808,5.815c-7.854,9.505-23.778,28.778-33.185,40.017c-7.853-4.965-15.12-9.406-22.019-13.456V59.933
	c25.255-4.344,50.893-6.547,76.488-6.547c6.306,0,12.7,0.136,19.004,0.402c4.162,0.183,7.672-3.053,7.848-7.21
	c0.176-4.158-3.052-7.671-7.21-7.848c-6.515-0.276-13.124-0.416-19.641-0.416c-33.96,0-67.999,3.741-101.173,11.117
	c-5.79,1.288-9.833,6.329-9.833,12.26v52.424C125.672,118.784,128.234,123.039,132.36,125.221z M328.242,62.801
	c1.459,0.302,2.923,0.596,4.375,0.912v48.894c-1.448,0.772-2.908,1.561-4.375,2.362V62.801z M140.743,63.712
	c1.456-0.318,2.915-0.619,4.375-0.921v52.178c-1.467-0.801-2.926-1.591-4.375-2.362V63.712z"/>
<path d="M399.147,35.261L367.992,3.411C365.234,0.592,362.434,0,360.571,0c-4.479,0-9.014,3.474-9.014,10.113v24.196
	c-1.737-0.842-3.581-1.52-5.532-1.972c-35.81-8.295-72.599-12.502-109.347-12.502c-36.745,0-73.533,4.206-109.342,12.501
	c-11.861,2.747-20.145,13.17-20.145,25.346v59.474c0,9.144,4.731,17.497,12.46,22.206v95.091c0,46.404,28.039,86.376,68.061,103.882
	v14.409h-37.319c-20.777,0-37.679,16.902-37.679,37.679V499.44c0,6.926,5.635,12.56,12.56,12.56h222.814
	c6.926,0,12.56-5.634,12.56-12.56V390.422c0-20.777-16.902-37.679-37.679-37.679h-37.318v-14.404
	c14.799-6.476,27.958-16.027,38.668-27.837h11.814c4.515,0,8.469-2.402,10.683-5.988h17.117c19.873,0,36.039-16.168,36.039-36.04
	v-31.782c0-4.162-3.374-7.536-7.536-7.536c-4.162,0-7.536,3.374-7.536,7.536v31.782c0,11.562-9.406,20.969-20.968,20.969h-15.24
	v-13.433h15.24c4.162,0,7.536-3.374,7.536-7.536V140.488h13.432v59.026c0,4.162,3.374,7.536,7.536,7.536
	c4.162,0,7.536-3.374,7.536-7.536v-61.7c2.939-2.301,4.839-5.872,4.839-9.885V49.146C404.81,44.378,402.481,38.668,399.147,35.261z
	 M366.629,23.569l21.744,22.229c0.563,0.592,1.354,2.532,1.365,3.347v76.272h-23.11V23.569z M338.635,234.452
	c0,6.112-0.577,12.09-1.652,17.896c-0.282-0.019-0.565-0.043-0.852-0.043H324.98c0.943-4.457,1.448-9.075,1.448-13.81v-36.78
	c0-14.659-4.746-28.222-12.76-39.267c8.987-5.606,17.209-10.506,24.968-14.879V234.452z M275.342,264.865v23.058
	c-5.028,1.632-10.381,2.532-15.946,2.532h-45.433c-6.589,0-12.89-1.246-18.696-3.494c3.123-4.417,4.968-9.798,4.968-15.606
	c0-14.959-12.17-27.129-27.129-27.129c-3.728,0-7.271,0.78-10.506,2.147c-0.393-2.57-0.597-5.201-0.597-7.878v-36.78
	c0-5.616,0.903-11.021,2.561-16.09c4.224-3.665,9.546-5.683,15.184-5.683c6.202,0,12.037,2.42,16.431,6.812
	c1.471,1.471,3.4,2.208,5.328,2.208c1.928,0,3.857-0.735,5.328-2.208c2.943-2.943,2.943-7.715,0-10.657
	c-2.86-2.86-6.094-5.203-9.588-7.002c2.36-1.437,4.503-3.253,6.333-5.415c0.101-0.12,0.21-0.249,0.315-0.374
	c4.879,5.383,12.838,9.184,19.799,9.184h24.812c7.233,0,15.598-4.089,20.453-9.771c0.282,0.334,0.556,0.658,0.814,0.963
	c1.699,2.007,3.671,3.711,5.834,5.095c-3.716,1.81-7.204,4.238-10.287,7.321c-2.943,2.943-2.943,7.715,0,10.657
	c2.943,2.943,7.715,2.943,10.658,0c9.06-9.06,23.801-9.06,32.862,0c0.131,0.131,0.27,0.249,0.408,0.369
	c1.36,4.632,2.106,9.524,2.106,14.59v36.78c0,4.782-0.656,9.412-1.876,13.81h-21.579
	C280.976,252.305,275.342,257.94,275.342,264.865z M182.028,279.437c-6.295-4.92-11.437-11.249-14.93-18.52
	c1.769-1.026,3.819-1.619,6.009-1.619c6.649,0,12.057,5.409,12.057,12.057C185.164,274.468,183.971,277.3,182.028,279.437z
	 M213.819,151.453c7.323-8.801,16.183-19.511,22.861-27.589c6.487,7.847,15.095,18.253,22.322,26.941l-1.083,1.608
	c-1.701,2.527-6.362,5.007-9.409,5.007h-24.812c-2.959,0-7.624-2.522-9.245-4.999L213.819,151.453z M122.262,57.681
	c0-5.122,3.485-9.506,8.474-10.662c34.696-8.037,70.34-12.113,105.941-12.113c35.604,0,71.249,4.075,105.945,12.114
	c4.99,1.155,8.474,5.54,8.474,10.662v59.473c0,4.098-2.258,7.819-5.894,9.71c-14.735,7.664-30.517,16.95-49.668,29.221
	c-1.766,1.131-3.805,1.73-5.895,1.73c-3.23,0-6.278-1.412-8.362-3.872c-7.929-9.362-27.882-33.508-37.471-45.112l-1.319-1.598
	c-1.431-1.732-3.561-2.735-5.808-2.735l0,0c-2.247,0-4.377,1.003-5.808,2.734l-1.255,1.518
	c-9.603,11.621-29.583,35.801-37.536,45.192c-2.084,2.461-5.131,3.872-8.362,3.872c-2.09,0-4.129-0.599-5.896-1.73
	c-19.149-12.271-34.931-21.557-49.666-29.221c-3.636-1.891-5.895-5.612-5.895-9.71L122.262,57.681L122.262,57.681z M229.144,347.707
	v54.04c-20.267-2.009-37.873-15.28-45.504-33.931h11.608c4.162,0,7.536-3.374,7.536-7.536v-16.592
	C211.22,346.022,220.048,347.402,229.144,347.707z M170.522,496.928v-28.134c0-4.162-3.374-7.536-7.536-7.536
	s-7.536,3.374-7.536,7.536v28.134h-27.666V390.422c0-12.466,10.141-22.608,22.608-22.608h17.252c0.379,1.221,0.801,2.421,1.243,3.61
	c-8.673,12.845-13.438,28.072-13.438,43.978v14.205c0,4.162,3.374,7.536,7.536,7.536c4.162,0,7.536-3.374,7.536-7.536v-14.205
	c0-9.972,2.325-19.61,6.634-28.282c12.827,18.25,34.07,29.971,57.338,29.971h4.372c23.268,0,44.511-11.721,57.339-29.971
	c4.309,8.671,6.634,18.309,6.634,28.282v81.526H170.522z M345.575,390.422v106.507h-27.666v-81.526
	c0-15.908-4.764-31.134-13.438-43.979c0.442-1.19,0.864-2.388,1.243-3.609h17.253C335.433,367.814,345.575,377.957,345.575,390.422z
	 M278.113,367.814h11.606c-7.631,18.652-25.236,31.923-45.503,33.931v-54.037c9.097-0.304,17.925-1.685,26.361-4.02v16.59
	C270.577,364.44,273.951,367.814,278.113,367.814z M240.382,332.706h-7.405c-54.178,0-98.254-44.077-98.254-98.254v-86.881
	c7.759,4.373,15.982,9.273,24.97,14.879c-8.015,11.045-12.76,24.608-12.76,39.267v36.78c0,36.961,30.07,67.031,67.032,67.031h45.433
	c5.93,0,11.672-0.799,17.149-2.257c2.01,4.265,6.338,7.232,11.357,7.232h14.605C285.565,324.37,263.932,332.706,240.382,332.706z
	 M333.62,295.43h-43.206v-28.053h43.206V295.43z M350.573,260.938c2.044-8.499,3.134-17.368,3.134-26.486v-95.091
	c0.862-0.524,1.677-1.104,2.463-1.716c0.072,0.06,0.152,0.112,0.226,0.169v123.124L350.573,260.938L350.573,260.938z"/>
<g>
</g>
<g>
</g>
<g>
</g>
<g>
</g>
<g>
</g>
<g>
</g>
<g>
</g>
<g>
</g>
<g>
</g>
<g>
</g>
<g>
</g>
<g>
</g>
<g>
</g>
<g>
</g>
<g>
</g>
</svg>
