<svg id="Capa_1" enable-background="new 0 0 512 512" height="512" viewBox="0 0 512 512" width="512" xmlns="http://www.w3.org/2000/svg"><g><path d="m256 151.854h-82.182v-8.873c0-12.134 9.837-21.97 21.97-21.97h38.241c12.134 0 21.97 9.836 21.97 21.97v8.873z" fill="#e27f86"/><path d="m82.486 235.291 45.969-79.701c1.334-2.312 3.8-3.737 6.469-3.737h150.564c4.952 0 9.701 1.967 13.202 5.468l79.308 79.308-143.084 39.733z" fill="#ddebfd"/><path d="m135.473 151.854h-.549c-2.669 0-5.136 1.425-6.469 3.737l-45.969 79.701 52.988 14.278v-97.716z" fill="#655e67"/><path d="m344.301 232.934h30l-75.611-75.611c-3.501-3.502-8.25-5.469-13.202-5.469h-30c4.952 0 9.701 1.967 13.202 5.469z" fill="#bed9fd"/><path d="m494.115 323.984h-476.23v-59.432c0-16.25 13.173-29.423 29.422-29.423h405.023c23.077 0 41.784 18.708 41.784 41.784v47.071z" fill="#fbfbfb"/><path d="m452.33 235.13h-30c23.077 0 41.784 18.708 41.784 41.784v47.07h30v-47.07c.001-23.077-18.707-41.784-41.784-41.784z" fill="#e7e7e7"/><path d="m494.115 282.019v-5.105c0-23.077-18.708-41.784-41.784-41.784h-6.607v29.939c0 9.361 7.589 16.95 16.95 16.95z" fill="#f8e076"/><path d="m499.666 351.356h-487.332c-2.67 0-4.834-2.164-4.834-4.834v-22.539c0-2.669 2.164-4.834 4.834-4.834h487.333c2.669 0 4.834 2.164 4.834 4.834v22.539c-.001 2.67-2.165 4.834-4.835 4.834z" fill="#c8c3ca"/><ellipse cx="397.998" cy="341.69" fill="#8c818f" rx="49.596" ry="49.3"/><ellipse cx="397.998" cy="341.69" fill="#c8c3ca" rx="17.401" ry="17.297"/><ellipse cx="100.144" cy="341.69" fill="#8c818f" rx="49.596" ry="49.3"/><path d="m397.998 292.389c-5.229 0-10.267.81-15 2.301 20.058 6.32 34.596 24.969 34.596 46.999 0 22.029-14.538 40.679-34.596 46.999 4.733 1.491 9.771 2.301 15 2.301 27.391 0 49.596-22.072 49.596-49.3.001-27.227-22.204-49.3-49.596-49.3z" fill="#766d78"/><path d="m100.144 292.389c-5.229 0-10.267.81-15 2.301 20.058 6.32 34.596 24.969 34.596 46.999 0 22.029-14.539 40.679-34.596 46.999 4.733 1.491 9.771 2.301 15 2.301 27.391 0 49.596-22.072 49.596-49.3.001-27.227-22.205-49.3-49.596-49.3z" fill="#766d78"/><ellipse cx="100.144" cy="341.69" fill="#c8c3ca" rx="17.401" ry="17.297"/><path d="m501.615 311.82v-34.906c0-27.175-22.109-49.284-49.284-49.284h-73.341c-.358-.748-74.997-75.611-74.997-75.611-4.943-4.942-11.515-7.665-18.505-7.665h-21.988v-1.373c0-16.25-13.22-29.47-29.47-29.47h-38.241c-16.25 0-29.471 13.22-29.471 29.47v1.373h-31.394c-5.333 0-10.301 2.87-12.966 7.49 0 0-43.595 75.613-43.678 75.786h-30.972c-20.359 0-36.923 16.563-36.923 36.922v47.268c-5.876.939-10.385 6.028-10.385 12.164v22.539c0 6.801 5.533 12.333 12.333 12.333h33.387c7.332 22.954 28.955 39.633 54.424 39.633 25.47 0 47.093-16.68 54.425-39.633h113.28c4.142 0 7.5-3.358 7.5-7.5s-3.358-7.5-7.5-7.5h-110.664c.027-.72.055-1.44.055-2.167 0-5.207-.722-10.246-2.047-15.039h187.755c-1.325 4.793-2.047 9.832-2.047 15.039 0 .727.028 1.446.055 2.167h-43.106c-4.142 0-7.5 3.358-7.5 7.5s3.358 7.5 7.5 7.5h45.724c7.332 22.954 28.955 39.633 54.424 39.633 25.47 0 47.092-16.68 54.425-39.633h47.243c6.801 0 12.334-5.533 12.334-12.333v-22.539c0-6.136-4.509-11.225-10.385-12.164zm-48.392-69.168c17.691.456 32.084 14.371 33.299 31.867h-23.848c-5.211 0-9.45-4.239-9.45-9.45v-22.417zm-159.836-80.027 65.004 65.004h-37.063c-4.142 0-7.5 3.358-7.5 7.5s3.358 7.5 7.5 7.5h43.217l-48.976 69.021h-120.25l-48.976-69.021h144.985c4.142 0 7.5-3.358 7.5-7.5s-3.358-7.5-7.5-7.5h-68.032v-68.276h62.191c2.984.001 5.79 1.163 7.9 3.272zm-150.963-3.271h65.872v68.276h-65.872zm38.894-16.374c0-7.979 6.492-14.47 14.471-14.47h38.241c7.979 0 14.47 6.491 14.47 14.47v1.373h-67.182zm-53.894 29.383v55.267h-31.863zm-112.424 171.493v-17.206h30.095c-1.325 4.793-2.047 9.832-2.047 15.039 0 .727.028 1.446.055 2.167zm85.144 39.634c-23.212 0-42.096-18.751-42.096-41.8s18.884-41.801 42.096-41.801 42.097 18.752 42.097 41.801c0 23.048-18.885 41.8-42.097 41.8zm0-98.601c-20.401 0-38.327 10.707-48.426 26.762h-26.333v-47.099c0-12.088 9.834-21.922 21.923-21.922h80.642l48.976 69.021h-28.355c-10.1-16.055-28.026-26.762-48.427-26.762zm233.819 26.762 48.976-69.021h55.285v22.439c0 13.482 10.968 24.45 24.45 24.45h23.941v22.132h-39.665c-.172 0-.34.014-.508.025-10.096-16.069-28.031-26.787-48.443-26.787-20.401 0-38.327 10.707-48.426 26.762zm64.036 71.839c-23.212 0-42.096-18.751-42.096-41.8s18.884-41.801 42.096-41.801 42.096 18.752 42.096 41.801c0 23.048-18.885 41.8-42.096 41.8zm99.001-39.634h-41.961c.027-.72.055-1.44.055-2.167 0-5.207-.722-10.246-2.047-15.039h43.953z"/><path d="m397.999 316.893c-13.73 0-24.901 11.124-24.901 24.797s11.17 24.796 24.901 24.796c13.73 0 24.9-11.124 24.9-24.796 0-13.673-11.171-24.797-24.9-24.797zm0 34.593c-5.459 0-9.901-4.395-9.901-9.796 0-5.402 4.441-9.797 9.901-9.797 5.459 0 9.9 4.395 9.9 9.797s-4.442 9.796-9.9 9.796z"/><path d="m100.144 316.893c-13.73 0-24.9 11.124-24.9 24.797s11.17 24.796 24.9 24.796 24.901-11.124 24.901-24.796c0-13.673-11.171-24.797-24.901-24.797zm0 34.593c-5.459 0-9.9-4.395-9.9-9.796 0-5.402 4.441-9.797 9.9-9.797 5.46 0 9.901 4.395 9.901 9.797s-4.441 9.796-9.901 9.796z"/><path d="m230.242 253.153h-14.446c-4.142 0-7.5 3.358-7.5 7.5s3.358 7.5 7.5 7.5h14.446c4.142 0 7.5-3.358 7.5-7.5s-3.358-7.5-7.5-7.5z"/></g></svg>