<?xml version="1.0" encoding="iso-8859-1"?>
<!-- Generator: Adobe Illustrator 19.0.0, SVG Export Plug-In . SVG Version: 6.00 Build 0)  -->
<svg version="1.1" id="Capa_1" xmlns="http://www.w3.org/2000/svg" xmlns:xlink="http://www.w3.org/1999/xlink" x="0px" y="0px"
	 viewBox="0 0 512 512" style="enable-background:new 0 0 512 512;" xml:space="preserve">
<polygon style="fill:#368C0E;" points="354,463 368.849,363 322.138,363 330,382 342,382 "/>
<path style="fill:#D2957D;" d="M379.357,355.25H370L354,463l-12-81h-12l-11.069-26.75h-24.695v8.716c0,11-9,20-20,20h-36.471
	c-11,0-20-9-20-20v-4.224h0.001c-2.819-0.602-5.247-2.24-6.886-4.492h-78.238c-8.25,0-15,6.75-15,15V494.5c0,5.5,4.5,10,10,10
	h256.715c5.5,0,10-4.5,10-10V370.25C394.357,362,387.607,355.25,379.357,355.25z"/>
<g style="opacity:0.15;">
	<path style="fill:#3D0072;" d="M144.356,494.5V370.25c0-8.25,6.75-15,15-15h-26.715c-8.25,0-15,6.75-15,15V494.5
		c0,5.5,4.5,10,10,10h26.715C148.856,504.5,144.356,500,144.356,494.5z"/>
</g>
<path style="fill:#F7931E;" d="M332.117,26.811C313.784,14.178,287.461,7.5,255.999,7.5s-57.783,6.678-76.116,19.311
	c-20.494,14.121-30.884,35.273-30.884,62.871v46.663c0-27.598,10.39-48.751,30.884-62.872c18.333-12.633,44.654-19.31,76.116-19.31
	s57.784,6.678,76.117,19.311C352.609,87.594,363,108.747,363,136.345V89.682C363,62.084,352.609,40.932,332.117,26.811z"/>
<path style="opacity:0.15;fill:#490089;enable-background:new    ;" d="M179.883,73.473c0.161-0.111,0.333-0.213,0.496-0.323
	c3.439-19.64,13.316-35.186,29.504-46.34C225.217,16.244,246.156,9.862,271,8.051c-4.859-0.354-9.853-0.551-15-0.551
	c-31.462,0-57.783,6.678-76.116,19.311c-20.494,14.121-30.884,35.273-30.884,62.871v46.663
	C148.999,108.747,159.389,87.594,179.883,73.473z"/>
<path style="fill:#368C0E;" d="M273.211,323.033h-22.253c-2.076,2.999-5.536,4.967-9.459,4.967c-4.003,0-7.503-2.064-9.561-5.168
	c-0.087-0.007-0.174-0.012-0.261-0.02V348.5c0,6.351-5.149,11.5-11.5,11.5c-0.828,0-1.634-0.092-2.412-0.258v4.224c0,11,9,20,20,20
	h36.471c11,0,20-9,20-20V318.98C287.691,321.595,280.589,323.033,273.211,323.033z"/>
<g style="opacity:0.15;">
	<path style="fill:#330068;" d="M246.529,363.966V326.83c-1.521,0.742-3.223,1.17-5.029,1.17c-4.167,0-7.806-2.224-9.823-5.542
		V348.5c0,6.351-5.149,11.5-11.5,11.5c-0.828,0-1.634-0.092-2.412-0.258v4.224c0,11,9,20,20,20h28.764
		C255.529,383.966,246.529,374.966,246.529,363.966z"/>
</g>
<g>
	<path style="fill:#368C0E;" d="M369.084,155.008H363v43.158c0,10.261-1.426,20.276-4.178,29.834h10.263
		c13.059,0,23.645-10.587,23.645-23.645v-25.701C392.729,165.595,382.143,155.008,369.084,155.008z"/>
	<path style="fill:#368C0E;" d="M148.999,198.166v-43.158h-6.084c-13.059,0-23.646,10.587-23.646,23.645v25.701
		c0,13.059,10.586,23.645,23.646,23.645h10.295C150.439,218.418,148.999,208.396,148.999,198.166z"/>
</g>
<path style="fill:#5DC647;" d="M332.117,73.473c-18.333-12.633-44.655-19.31-76.117-19.31s-57.783,6.678-76.116,19.311
	c-20.494,14.12-30.884,35.273-30.884,62.871v61.821c0,28.12,10.83,54.682,30.494,74.793c0.479,0.49,0.792,1.118,0.894,1.796
	c2.666,17.604,13.521,32.427,28.29,40.833V287.5c0-0.146,0.015-0.288,0.021-0.433c0.113,2.54,2.191,4.569,4.759,4.569h39.542V316.5
	c0,2.428-0.757,4.677-2.041,6.533h22.253c27.087,0,50.546-19.261,55.782-45.799c0.131-0.66,0.461-1.264,0.948-1.729
	C351.26,255.117,363,227.651,363,198.166v-61.821C363,108.747,352.609,87.594,332.117,73.473z"/>
<g style="opacity:0.15;">
	<path style="fill:#330068;" d="M197.161,84.546c3.687-4.07,7.924-7.767,12.722-11.073c3.093-2.131,6.425-4.084,9.96-5.872
		c-0.546-1.941-0.844-3.985-0.844-6.101c0-1.312,0.119-2.597,0.335-3.848c-15.465,3.179-28.811,8.49-39.451,15.821
		c-20.494,14.121-30.884,35.274-30.884,62.872v61.821c0,28.12,10.83,54.682,30.494,74.793c0.479,0.49,0.792,1.118,0.894,1.796
		c2.666,17.604,13.521,32.427,28.29,40.833v-43.485c-19.144-20.006-29.678-46.212-29.678-73.937v-14.22
		c-4.686-5.698-7.5-12.993-7.5-20.946s2.814-15.248,7.5-20.946v-5.71c0-14.064,2.705-26.45,8.064-37.089
		c-0.038-0.414-0.064-0.831-0.064-1.255C186.999,91.601,191.298,86.216,197.161,84.546z"/>
</g>
<path style="fill:#D5E962;" d="M219.335,57.652c-0.216,1.251-0.335,2.536-0.335,3.848c0,12.426,10.073,22.5,22.5,22.5
	S264,73.926,264,61.5c0-2.526-0.423-4.953-1.19-7.22c-2.245-0.071-4.509-0.118-6.81-0.118
	C242.798,54.163,230.516,55.354,219.335,57.652z"/>
<g>
	<circle style="fill:#FFFFFF;" cx="307.5" cy="163" r="33"/>
	<circle style="fill:#FFFFFF;" cx="204.499" cy="163" r="33"/>
</g>
<path style="fill:#5DC647;" d="M174.162,150h60.674c-5.047-11.761-16.728-20-30.337-20S179.21,138.239,174.162,150z"/>
<path style="fill:#EF5050;" d="M213.457,291.636c-2.567,0-4.646-2.029-4.759-4.569c-0.006,0.145-0.021,0.287-0.021,0.433v61
	c0,6.351,5.149,11.5,11.5,11.5s11.5-5.149,11.5-11.5v-26.042c2.017,3.318,5.656,5.542,9.823,5.542c6.351,0,11.5-5.149,11.5-11.5
	v-24.864H213.457z"/>
<path style="fill:#FB8276;" d="M213.457,291.636c-2.64,0-4.78-2.14-4.78-4.78v-26.768c0-15.287,12.437-27.724,27.725-27.724h39.196
	c15.288,0,27.725,12.437,27.725,27.724v26.768c0,2.64-2.141,4.78-4.78,4.78H213.457z"/>
<g style="opacity:0.15;">
	<path style="fill:#3D0072;" d="M228.354,286.856v-26.768c0-15.287,12.437-27.724,27.725-27.724h-19.677
		c-15.288,0-27.725,12.437-27.725,27.724v26.768c0,2.64,2.141,4.78,4.78,4.78h19.677
		C230.494,291.636,228.354,289.496,228.354,286.856z"/>
</g>
<g>
	<path style="fill:#FFFFFF;" d="M237.128,232.364H236.4c-13.982,0-25.573,10.406-27.452,23.879c0.536,1.288,1.808,2.201,3.284,2.201
		h21.338c1.956,0,3.557-1.601,3.557-3.556V232.364z"/>
	<path style="fill:#FFFFFF;" d="M277.338,267.927h-21.338c-1.956,0-3.556,1.601-3.556,3.557v20.152h28.451v-20.152
		C280.894,269.528,279.294,267.927,277.338,267.927z"/>
</g>
<circle style="fill:#D5E962;" cx="200.999" cy="98" r="14"/>
<path d="M379.357,347.75H370c-3.717,0-6.873,2.722-7.418,6.398l-0.201,1.352h-35.229l-1.29-3.118
	c-1.16-2.804-3.896-4.632-6.93-4.632h-17.195v-23.917c17.083-8.477,30.074-24.346,34.341-43.828
	c12.977-12.69,22.534-27.872,28.243-44.505h4.765c17.173,0,31.145-13.972,31.145-31.145v-25.701
	c0-16.699-13.211-30.367-29.729-31.109V96.5h3.5c4.142,0,7.5-3.358,7.5-7.5s-3.358-7.5-7.5-7.5h-3.794
	c-1.322-18.067-7.115-33.386-17.299-45.799l4.06-4.06c2.929-2.929,2.928-7.678,0-10.607c-2.93-2.929-7.677-2.928-10.607,0
	l-4.065,4.066c-1.881-1.551-3.853-3.041-5.921-4.466C316.781,7.135,288.989,0,255.999,0s-60.781,7.135-80.372,20.635
	C155.07,34.799,143.714,55.249,141.793,81.5h-8.294c-4.142,0-7.5,3.358-7.5,7.5s3.358,7.5,7.5,7.5h8v51.044
	c-16.519,0.743-29.729,14.41-29.729,31.109v25.701c0,17.174,13.972,31.145,31.146,31.145h4.796
	c5.309,15.424,13.924,29.636,25.48,41.73c3.091,17.796,13.594,32.969,27.985,42.524v27.996h-6.178c-4.142,0-7.5,3.358-7.5,7.5
	s3.358,7.5,7.5,7.5h12.652c0.818,0.72,1.698,1.367,2.632,1.94c0.386,14.829,12.56,26.776,27.481,26.776h36.471
	c15.164,0,27.5-12.336,27.5-27.5v-1.216h12.182l9.152,22.118c1.16,2.804,3.896,4.632,6.93,4.632h5.529l11.052,74.599
	c0.545,3.677,3.701,6.4,7.417,6.401H354c3.717,0,6.873-2.722,7.418-6.398l15.05-101.352h2.889c4.136,0,7.5,3.364,7.5,7.5V494.5
	c0,1.355-1.145,2.5-2.5,2.5H127.642c-1.355,0-2.5-1.145-2.5-2.5V370.25c0-4.136,3.364-7.5,7.5-7.5h22.357c4.142,0,7.5-3.358,7.5-7.5
	s-3.358-7.5-7.5-7.5h-22.357c-12.407,0-22.5,10.093-22.5,22.5V494.5c0,9.649,7.851,17.5,17.5,17.5h256.715
	c9.649,0,17.5-7.851,17.5-17.5V370.25C401.857,357.843,391.763,347.75,379.357,347.75z M385.229,178.653v25.701
	c0,8.903-7.243,16.145-16.145,16.145h-0.742c1.407-7.184,2.137-14.562,2.154-22.065c3.914-0.252,7.014-3.498,7.014-7.476
	c0-3.977-3.098-7.222-7.01-7.475V162.58C378.74,163.3,385.229,170.228,385.229,178.653z M142.915,220.5
	c-8.903,0-16.146-7.243-16.146-16.145v-25.701c0-8.425,6.488-15.353,14.729-16.074v20.904c-3.913,0.253-7.01,3.499-7.01,7.475
	c0,3.978,3.099,7.224,7.013,7.476c0.018,7.486,0.754,14.868,2.173,22.065L142.915,220.5L142.915,220.5z M187.802,273.633
	c-0.339-2.246-1.358-4.292-2.947-5.918c-18.286-18.701-28.356-43.401-28.356-69.549v-61.821c0-24.983,9.299-44.059,27.639-56.696
	c7.768-5.353,17.162-9.544,27.895-12.538C214.669,80.98,226.876,91.5,241.499,91.5c16.286,0,29.572-13.047,29.98-29.236
	c5.958,0.468,11.694,1.203,17.143,2.219c4.075,0.759,7.989-1.925,8.749-5.997s-1.925-7.989-5.997-8.749
	c-10.937-2.041-22.839-3.076-35.376-3.076c-32.989,0-60.781,7.135-80.372,20.635c-7.611,5.244-13.955,11.354-19.032,18.297
	c0.972-22.981,10.218-40.67,27.543-52.608C201.214,21.22,226.063,15,255.999,15s54.785,6.22,71.861,17.986
	c17.325,11.938,26.57,29.627,27.542,52.608c-5.077-6.943-11.42-13.053-19.031-18.297c-3.41-2.35-8.082-1.49-10.431,1.92
	c-2.35,3.411-1.491,8.081,1.92,10.431c18.34,12.637,27.639,31.712,27.639,56.696v61.821c0,27.418-10.918,52.96-30.737,71.915
	c-1.611,1.539-2.692,3.508-3.127,5.702c-4.544,23.033-24.909,39.751-48.423,39.751H260.5v-16.397h38.043
	c6.771,0,12.28-5.509,12.28-12.28v-26.768c0-19.423-15.802-35.224-35.225-35.224h-39.196c-19.423,0-35.225,15.801-35.225,35.224
	v40.325C194.219,293.253,189.372,284,187.802,273.633z M226.695,63.92c0.003-0.002,0.004-0.003,0.007-0.005
	c9.079-1.481,18.871-2.252,29.298-2.252c0.132,0.074,0.3,0.015,0.456,0.005c0.015,0,0.029,0,0.043,0
	c-0.09,8.194-6.784,14.832-14.999,14.832C234.052,76.5,227.855,71.044,226.695,63.92z M273.394,284.136h-13.451v-8.709h13.451
	V284.136z M277.338,260.427h-21.338c-6.096,0-11.056,4.96-11.056,11.057v12.652h-28.767v-18.192h17.395
	c6.097,0,11.057-4.96,11.057-11.056v-15.024h30.97c11.152,0,20.225,9.073,20.225,20.224v24.048h-7.428v-12.652
	C288.394,265.387,283.435,260.427,277.338,260.427z M218.447,250.817c2.346-4.507,6.389-8.061,11.181-9.762v9.888h-11.242
	C218.408,250.902,218.425,250.859,218.447,250.817C218.674,250.38,218.425,250.859,218.447,250.817z M224.176,322.458V348.5
	c0,2.206-1.794,4-4,4s-4-1.794-4-4v-49.364h29.323V316.5c0,2.206-1.794,4-4,4c-1.4,0-2.676-0.725-3.414-1.938
	c-1.746-2.874-5.19-4.233-8.432-3.327C226.415,316.143,224.176,319.094,224.176,322.458z M274.235,376.466h-36.471
	c-5.95,0-10.933-4.182-12.188-9.759c7.852-2.333,13.6-9.607,13.6-18.207v-13.139c0.764,0.092,1.539,0.139,2.323,0.139
	c4.916,0,9.387-1.893,12.764-4.967h18.948c4.621,0,9.146-0.501,13.524-1.445v34.878
	C286.735,370.858,281.128,376.466,274.235,376.466z M354.008,411.881l-4.59-30.98c-0.545-3.677-3.701-6.401-7.419-6.401h-6.987
	l-1.655-4h26.795L354.008,411.881z"/>
<path d="M244.908,197.544c0,9.813,6.033,17.5,13.735,17.5h6.235c4.142,0,7.5-3.358,7.5-7.5s-3.358-7.5-7.5-7.5h-4.557
	c-0.206-0.545-0.413-1.384-0.413-2.5V182.88c0-4.142-3.358-7.5-7.5-7.5c-4.142,0-7.5,3.358-7.5,7.5L244.908,197.544L244.908,197.544
	z"/>
<path d="M284,119.5h49c4.142,0,7.5-3.358,7.5-7.5s-3.358-7.5-7.5-7.5h-49c-4.142,0-7.5,3.358-7.5,7.5S279.857,119.5,284,119.5z"/>
<path d="M307.5,203.5c2.258,0,4.526-0.188,6.741-0.559c4.085-0.685,6.842-4.551,6.157-8.637c-0.684-4.085-4.549-6.842-8.637-6.157
	c-1.397,0.234-2.831,0.353-4.261,0.353c-14.06,0-25.5-11.439-25.5-25.5c0-14.06,11.44-25.5,25.5-25.5S333,148.94,333,163
	c0,2.641-0.401,5.242-1.191,7.73c-1.254,3.948,0.93,8.164,4.877,9.418s8.164-0.93,9.419-4.877C347.362,171.312,348,167.184,348,163
	c0-22.331-18.168-40.5-40.5-40.5c-22.332,0-40.5,18.169-40.5,40.5S285.167,203.5,307.5,203.5z"/>
<path d="M302.2,157.7c-1.4,1.39-2.2,3.33-2.2,5.3s0.8,3.91,2.2,5.3c1.39,1.4,3.33,2.2,5.3,2.2c1.97,0,3.91-0.8,5.3-2.2
	c1.4-1.39,2.2-3.33,2.2-5.3s-0.8-3.91-2.2-5.3c-1.39-1.4-3.33-2.2-5.3-2.2C305.529,155.5,303.589,156.3,302.2,157.7z"/>
<path d="M204.499,203.5c22.331,0,40.5-18.168,40.5-40.5s-18.169-40.5-40.5-40.5s-40.5,18.169-40.5,40.5S182.169,203.5,204.499,203.5
	z M204.499,137.5c5.667,0,10.907,1.86,15.145,5h-30.291C193.592,139.36,198.832,137.5,204.499,137.5z M179.604,157.5h49.792
	c0.391,1.773,0.604,3.611,0.604,5.5c0,14.061-11.439,25.5-25.5,25.5s-25.5-11.439-25.5-25.5
	C178.999,161.111,179.212,159.273,179.604,157.5z"/>
<path d="M227.447,216.817c3.809-1.628,5.577-6.035,3.949-9.844c-1.628-3.809-6.037-5.576-9.844-3.949
	c-5.396,2.306-11.133,3.476-17.052,3.476c-6.9,0-13.498-1.57-19.61-4.668c-3.693-1.872-8.208-0.396-10.08,3.3
	c-1.873,3.694-0.395,8.208,3.3,10.08c8.233,4.172,17.112,6.288,26.39,6.288C212.456,221.5,220.177,219.924,227.447,216.817z"/>
<path d="M338.7,195.7c-1.4,1.39-2.2,3.33-2.2,5.3s0.8,3.91,2.2,5.3c1.39,1.4,3.33,2.2,5.3,2.2c1.98,0,3.91-0.8,5.3-2.2
	c1.4-1.39,2.2-3.32,2.2-5.3c0-1.97-0.8-3.91-2.2-5.3c-1.39-1.4-3.32-2.2-5.3-2.2C342.029,193.5,340.089,194.3,338.7,195.7z"/>
<path d="M331,210.5c-1.97,0-3.91,0.8-5.3,2.2c-1.4,1.39-2.2,3.32-2.2,5.3c0,1.97,0.8,3.91,2.2,5.3c1.39,1.4,3.33,2.2,5.3,2.2
	c1.97,0,3.91-0.8,5.3-2.2c1.4-1.39,2.2-3.33,2.2-5.3c0-1.98-0.8-3.91-2.2-5.3C334.909,211.3,332.979,210.5,331,210.5z"/>
<path d="M316,230.5c-1.98,0-3.91,0.8-5.3,2.2c-1.4,1.39-2.2,3.33-2.2,5.3s0.8,3.91,2.2,5.3c1.39,1.4,3.33,2.2,5.3,2.2
	c1.97,0,3.91-0.8,5.3-2.2c1.4-1.39,2.2-3.33,2.2-5.3s-0.8-3.91-2.2-5.3C319.909,231.3,317.979,230.5,316,230.5z"/>
<path d="M311.5,215c0-1.97-0.8-3.91-2.2-5.3c-1.39-1.4-3.32-2.2-5.3-2.2s-3.91,0.8-5.3,2.2c-1.4,1.39-2.2,3.33-2.2,5.3
	s0.8,3.91,2.2,5.3c1.39,1.4,3.33,2.2,5.3,2.2c1.97,0,3.91-0.8,5.3-2.2C310.7,218.91,311.5,216.97,311.5,215z"/>
<path d="M200.999,119.5c11.855,0,21.5-9.645,21.5-21.5s-9.645-21.5-21.5-21.5s-21.5,9.645-21.5,21.5S189.145,119.5,200.999,119.5z
	 M200.999,91.5c3.584,0,6.5,2.916,6.5,6.5s-2.916,6.5-6.5,6.5s-6.5-2.916-6.5-6.5S197.415,91.5,200.999,91.5z"/>
<g>
</g>
<g>
</g>
<g>
</g>
<g>
</g>
<g>
</g>
<g>
</g>
<g>
</g>
<g>
</g>
<g>
</g>
<g>
</g>
<g>
</g>
<g>
</g>
<g>
</g>
<g>
</g>
<g>
</g>
</svg>
