<?xml version="1.0" encoding="iso-8859-1"?>
<!-- Generator: Adobe Illustrator 19.0.0, SVG Export Plug-In . SVG Version: 6.00 Build 0)  -->
<svg version="1.1" id="Capa_1" xmlns="http://www.w3.org/2000/svg" xmlns:xlink="http://www.w3.org/1999/xlink" x="0px" y="0px"
	 viewBox="0 0 512 512" style="enable-background:new 0 0 512 512;" xml:space="preserve">
<g>
	<path style="fill:#775436;" d="M145.601,195.33h9.284v-64.72v-0.754c-19.923,23.148-32.03,53.212-32.237,86.099
		C123.876,204.364,133.683,195.33,145.601,195.33z"/>
	<path style="fill:#775436;" d="M389.351,215.956c-0.207-32.888-12.313-62.951-32.236-86.099v0.754v64.72h9.285
		C378.317,195.33,388.124,204.364,389.351,215.956z"/>
	<polygon style="fill:#775436;" points="161.238,266.587 161.238,266.589 161.239,266.589 	"/>
	<path style="fill:#775436;" d="M222.744,326.738c-28.386-9.887-51.021-32.048-61.506-60.149h-15.636
		c-6.035,0-11.526-2.318-15.639-6.109c13.246,38.231,43.405,68.536,81.517,82.032L222.744,326.738z"/>
	<polygon style="fill:#775436;" points="350.762,266.589 350.762,266.589 350.762,266.587 	"/>
	<path style="fill:#775436;" d="M366.4,266.589h-15.637c-10.563,28.309-33.452,50.593-62.134,60.37l11.559,15.67
		c38.27-13.437,68.566-43.805,81.85-82.148C377.925,264.27,372.434,266.589,366.4,266.589z"/>
</g>
<g>
	<path style="fill:#203A74;" d="M288.535,327.016c-1.047,0.356-2.103,0.689-3.165,1.011v23.141c0,1.648-0.993,3.909-2.208,5.024
		l-21.865,20.08l27.863,31.541c1.819,2.059,4.163,1.665,5.208-0.876l17.177-41.741c1.045-2.54,0.561-6.424-1.076-8.63
		L288.535,327.016z"/>
	<path style="fill:#203A74;" d="M228.838,356.193c-1.215-1.115-2.208-3.375-2.208-5.024v-23.141c-1.285-0.39-2.557-0.804-3.82-1.243
		l-21.333,29.735c-1.602,2.232-2.057,6.137-1.012,8.677l17.177,41.741c1.045,2.541,3.388,2.935,5.208,0.876l27.858-31.536
		L228.838,356.193z"/>
</g>
<g>
	<path style="fill:#B2762F;" d="M154.885,231.251V195.33h-9.284c-12.75,0-23.084,10.335-23.084,23.084v25.091
		c0,12.749,10.335,23.084,23.084,23.084h15.637C157.134,255.588,154.885,243.683,154.885,231.251z"/>
	<path style="fill:#B2762F;" d="M366.4,195.33h-9.285v35.921c0,12.432-2.249,24.337-6.352,35.338H366.4
		c12.749,0,23.084-10.335,23.084-23.084v-25.091C389.483,205.665,379.149,195.33,366.4,195.33z"/>
</g>
<g>
	<path style="fill:#203A74;" d="M231.32,398.226l-8.47,9.588c-1.819,2.059-4.163,1.665-5.208-0.876l-17.177-41.741
		c-0.477-1.159-0.627-2.601-0.513-4.039h-29.739c-16.524,0-29.969,13.444-29.969,29.969v108.387c0,2.758,2.236,4.995,4.995,4.995
		h87.108l13.987-91.27L231.32,398.226z"/>
	<path style="fill:#203A74;" d="M341.788,361.157h-29.747c0.126,1.435-0.017,2.877-0.495,4.039l-17.177,41.741
		c-1.045,2.541-3.388,2.935-5.208,0.876l-8.474-9.594l-15.019,15.018l13.987,91.27h87.108c2.759,0,4.995-2.237,4.995-4.995V391.126
		C371.756,374.601,358.311,361.157,341.788,361.157z"/>
</g>
<g style="opacity:0.15;">
	<path style="fill:#040007;" d="M169.336,499.513V391.126c0-16.525,13.445-29.969,29.969-29.969h-29.093
		c-16.524,0-29.969,13.444-29.969,29.969v108.387c0,2.758,2.236,4.995,4.995,4.995h29.093
		C171.573,504.508,169.336,502.271,169.336,499.513z"/>
</g>
<g>
	<path style="fill:#046699;" d="M259.531,419.373c-1.942,1.943-5.121,1.943-7.063,0l-6.135-6.134l-13.987,91.27h47.306
		l-13.987-91.27L259.531,419.373z"/>
	<path style="fill:#046699;" d="M258.208,379.11c-1.215,1.115-3.201,1.115-4.415,0l-3.085-2.833l-19.388,21.948l21.149,21.147
		c1.942,1.943,5.121,1.943,7.063,0l21.154-21.152l-19.388-21.948L258.208,379.11z"/>
</g>
<path style="fill:#203A74;" d="M228.838,356.193c-1.215-1.115-2.208-3.375-2.208-5.024v-23.141c-1.285-0.39-2.557-0.804-3.82-1.243
	l-21.333,29.735c-1.602,2.232-2.057,6.137-1.012,8.677l17.177,41.741c1.045,2.541,3.388,2.935,5.208,0.876l27.858-31.536
	L228.838,356.193z"/>
<path style="fill:#B2762F;" d="M256,332.365c-10.216,0-20.075-1.52-29.369-4.338v23.141c0,1.648,0.993,3.909,2.208,5.024
	l24.954,22.917c1.215,1.115,3.201,1.115,4.415,0l24.954-22.917c1.215-1.115,2.208-3.375,2.208-5.024v-23.141
	C276.075,330.845,266.216,332.365,256,332.365z"/>
<path style="opacity:0.15;fill:#490089;enable-background:new    ;" d="M247.208,346.098v-14.117
	c-7.095-0.611-13.978-1.953-20.579-3.953v23.141c0,1.648,0.993,3.909,2.208,5.024l24.954,22.917c1.215,1.115,3.201,1.115,4.415,0
	l10.842-9.957l-19.633-18.03C248.202,350.007,247.208,347.746,247.208,346.098z"/>
<path id="SVGCleanerId_0" style="fill:#D19546;" d="M154.885,231.251c0,55.844,45.271,101.115,101.115,101.115
	s101.115-45.27,101.115-101.115V130.612H154.885V231.251z"/>
<g>
	<path style="fill:#046699;" d="M218.738,451.064c0,1.648-1.349,2.997-2.997,2.997h-49.148c-1.648,0-2.997-1.349-2.997-2.997
		v-13.985c0-1.648,1.349-2.997,2.997-2.997h49.148c1.648,0,2.997,1.349,2.997,2.997V451.064z"/>
	<path style="fill:#046699;" d="M348.404,451.064c0,1.648-1.349,2.997-2.997,2.997h-49.148c-1.648,0-2.997-1.349-2.997-2.997
		v-13.985c0-1.648,1.349-2.997,2.997-2.997h49.148c1.648,0,2.997,1.349,2.997,2.997V451.064z"/>
</g>
<g>
	<path id="SVGCleanerId_0_1_" style="fill:#D19546;" d="M154.885,231.251c0,55.844,45.271,101.115,101.115,101.115
		s101.115-45.27,101.115-101.115V130.612H154.885V231.251z"/>
</g>
<path style="opacity:0.15;fill:#490089;enable-background:new    ;" d="M183.637,231.251v-72.237
	c-15.012-7.511-24.501-17.444-25.448-28.402h-3.303v100.64c0,55.844,45.271,101.115,101.115,101.115
	c4.881,0,9.679-0.353,14.376-1.022C221.342,324.364,183.637,282.214,183.637,231.251z"/>
<g>
	<path style="fill:#EF5050;" d="M175.084,263.259c-5.005,0-9.676,1.419-13.64,3.871c6.284,16.554,16.785,31.032,30.198,42.112
		c5.751-4.764,9.415-11.959,9.415-20.01C201.057,274.888,189.429,263.259,175.084,263.259z"/>
	<path style="fill:#EF5050;" d="M336.916,263.259c-14.344,0-25.973,11.629-25.973,25.973c0,8.052,3.664,15.246,9.414,20.01
		c13.414-11.081,23.914-25.559,30.199-42.112C346.592,264.678,341.92,263.259,336.916,263.259z"/>
</g>
<g>
	<ellipse style="fill:#775436;" cx="205.526" cy="221.199" rx="13.463" ry="13.515"/>
	<ellipse style="fill:#775436;" cx="302.475" cy="221.199" rx="13.463" ry="13.515"/>
</g>
<path style="fill:#203A74;" d="M256,7.492c-70.618,0-127.867,39.518-127.867,71.074c0,13.175,9.986,21.906,26.752,27.609v-0.252
	h202.228v0.252c16.767-5.703,26.752-14.434,26.752-27.609C383.867,47.01,326.619,7.492,256,7.492z"/>
<path style="opacity:0.15;fill:#0B0016;enable-background:new    ;" d="M154.885,105.925h29.242
	c-16.328-5.707-26.026-14.374-26.026-27.357c0-29.29,49.326-65.435,112.882-70.474c-4.916-0.39-9.915-0.6-14.984-0.6
	c-70.618,0-127.867,39.518-127.867,71.074c0,13.175,9.986,21.906,26.752,27.609v-0.251H154.885z"/>
<path style="fill:#046699;" d="M158.188,130.612c2.045,23.671,43.933,42.571,95.315,42.571s93.27-18.898,95.315-42.571H158.188z"/>
<path style="opacity:0.15;fill:#490089;enable-background:new    ;" d="M188.16,130.612h-29.972
	c2.045,23.671,43.933,42.571,95.315,42.571c5.099,0,10.102-0.188,14.984-0.546C224.169,169.382,190.003,151.934,188.16,130.612z"/>
<g>
	<rect x="154.888" y="105.92" style="fill:#FFC502;" width="202.229" height="24.687"/>
	<path style="fill:#FFC502;" d="M278.535,63.755c0,2.747-1.778,6.369-3.951,8.051l-14.632,11.316c-2.173,1.681-5.728,1.681-7.902,0
		l-14.632-11.316c-2.174-1.681-3.951-5.303-3.951-8.051V38.888c0-2.747,2.248-4.995,4.995-4.995h35.077
		c2.747,0,4.995,2.248,4.995,4.995V63.755z"/>
</g>
<path d="M215.741,426.589h-49.148c-5.784,0-10.489,4.705-10.489,10.489v13.985c0,5.783,4.705,10.489,10.489,10.489h49.148
	c5.784,0,10.489-4.706,10.489-10.489v-13.985C226.23,431.295,221.525,426.589,215.741,426.589z M211.246,446.568h-40.157v-4.995
	h40.157V446.568z"/>
<path d="M285.77,437.078v13.985c0,5.783,4.705,10.489,10.489,10.489h49.148c5.784,0,10.489-4.706,10.489-10.489v-13.985
	c0-5.784-4.705-10.489-10.489-10.489h-49.148C290.475,426.589,285.77,431.295,285.77,437.078z M300.754,441.573h40.157v4.995
	h-40.157V441.573z"/>
<path d="M239.924,256.184c0,9.639,7.275,17.482,16.218,17.482h8.726c4.139,0,7.492-3.354,7.492-7.492
	c0-4.138-3.353-7.492-7.492-7.492h-8.726c-0.298,0-1.234-0.913-1.234-2.497v-29.885c0-4.138-3.354-7.492-7.492-7.492
	s-7.492,3.355-7.492,7.492V256.184z"/>
<path d="M205.531,200.191c-11.555,0-20.956,9.424-20.956,21.007c0,11.584,9.4,21.007,20.956,21.007
	c11.554,0,20.954-9.424,20.954-21.007C226.484,209.615,217.085,200.191,205.531,200.191z M205.531,227.221
	c-3.293,0-5.972-2.702-5.972-6.023s2.679-6.023,5.972-6.023c3.292,0,5.97,2.702,5.97,6.023
	C211.499,224.519,208.822,227.221,205.531,227.221z"/>
<path d="M302.475,200.191c-11.554,0-20.955,9.424-20.955,21.007c0,11.584,9.4,21.007,20.955,21.007
	c11.554,0,20.955-9.424,20.955-21.007C323.43,209.615,314.03,200.191,302.475,200.191z M302.475,227.221
	c-3.293,0-5.971-2.702-5.971-6.023s2.678-6.023,5.971-6.023c3.293,0,5.971,2.702,5.971,6.023
	C308.445,224.519,305.767,227.221,302.475,227.221z"/>
<path d="M281.349,285.856h-48.412c-4.139,0-7.492,3.354-7.492,7.492c0,4.138,3.354,7.492,7.492,7.492h48.412
	c4.139,0,7.492-3.354,7.492-7.492C288.841,289.21,285.487,285.856,281.349,285.856z"/>
<path d="M396.837,215.565c-0.292-33.512-12.348-64.261-32.231-88.324v-15.924c16.607-6.765,26.752-17.091,26.752-32.75
	c0-18.314-15.365-38.427-41.101-53.803C323.529,8.795,290.053,0,256,0s-67.529,8.795-94.258,24.764
	c-25.736,15.376-41.101,35.489-41.101,53.803c0,15.659,10.145,25.985,26.752,32.75v15.924
	c-19.882,24.063-31.94,54.812-32.231,88.324c-0.088,0.939-0.138,1.888-0.138,2.849v25.091c0,8.18,3.235,15.614,8.485,21.106
	c13.189,36.439,41.013,65.914,76.331,81.334l-4.452,6.206c-0.342,0.477-0.65,0.986-0.935,1.514h-24.241
	c-20.656,0-37.461,16.804-37.461,37.461v108.387c0,6.886,5.601,12.487,12.487,12.487h221.523c6.886,0,12.487-5.601,12.487-12.487
	V391.126c0-20.656-16.804-37.461-37.461-37.461h-24.307c-0.303-0.547-0.632-1.074-0.996-1.564l-4.478-6.035
	c8.811-3.821,17.268-8.547,25.242-14.186c3.378-2.39,4.18-7.065,1.79-10.443c-2.391-3.378-7.064-4.18-10.443-1.79
	c-8.095,5.725-16.749,10.396-25.793,14.018l-2.439-3.288c24.789-11.137,44.673-31.308,55.439-56.296c0,0,11.764-0.021,12.341-0.053
	c-3.455,6.748-7.532,13.227-12.245,19.365c-2.52,3.282-1.903,7.986,1.38,10.506c3.281,2.52,7.986,1.901,10.505-1.38
	c8.99-11.707,15.972-24.501,20.84-38.046c5.173-5.478,8.353-12.857,8.353-20.968v-25.091
	C396.975,217.453,396.925,216.504,396.837,215.565z M379.116,190.619c-3.875-1.78-8.179-2.781-12.716-2.781h-1.793v-34.561
	C371.316,164.704,376.279,177.271,379.116,190.619z M147.393,153.278v34.561h-1.792c-4.536,0-8.842,1-12.717,2.781
	C135.721,177.271,140.685,164.704,147.393,153.278z M130.009,243.505v-25.091c0-8.597,6.995-15.592,15.592-15.592h1.792v20.1h-5.285
	c-4.139,0-7.492,3.354-7.492,7.492c0,4.138,3.354,7.492,7.492,7.492h5.505c0.442,7.276,1.588,14.366,3.398,21.189h-5.41
	C137.004,259.097,130.009,252.102,130.009,243.505z M143.921,274.032c0.557,0.03,12.282,0.048,12.282,0.048
	c10.697,24.828,30.394,44.902,54.963,56.083l-2.366,3.298C180.723,322.061,157.658,300.823,143.921,274.032z M171.314,271.14
	c1.233-0.257,2.496-0.389,3.77-0.389c10.19,0,18.481,8.29,18.481,18.481c0,3.337-0.897,6.55-2.544,9.351
	C182.902,290.746,176.194,281.457,171.314,271.14z M225.916,497.016h-78.18v-105.89c0-12.394,10.083-22.477,22.477-22.477h23.572
	l16.928,41.138c1.734,4.218,5.427,6.838,9.636,6.838c3.039,0,5.921-1.368,8.116-3.852l3.193-3.615l6.696,6.695L225.916,497.016z
	 M221.894,397.58l-14.469-35.16c-0.085-0.394,0.013-1.233,0.187-1.596l11.528-16.069v6.414c0,3.762,1.862,7.999,4.632,10.542
	l16.458,15.114L221.894,397.58z M256,370.965l-21.845-20.063c-0.012-0.023-0.022-0.048-0.032-0.072v-13.186
	c7.069,1.451,14.385,2.214,21.877,2.214s14.809-0.762,21.877-2.214v13.186c-0.01,0.024-0.021,0.048-0.031,0.072L256,370.965z
	 M270.407,397.902L256,412.308l-14.403-14.401l10.057-11.384c1.354,0.592,2.826,0.914,4.346,0.914c1.522,0,2.999-0.324,4.352-0.918
	L270.407,397.902z M318.226,368.65h23.561c12.393,0,22.477,10.082,22.477,22.477v105.89h-78.18l-2.51-16.385
	c-0.626-4.091-4.451-6.899-8.54-6.271c-4.091,0.627-6.898,4.45-6.27,8.54l2.163,14.116h-29.851l10.644-69.458
	c1.354,0.492,2.795,0.763,4.281,0.763c1.486,0,2.927-0.271,4.282-0.763l2.358,15.384c0.626,4.091,4.451,6.895,8.54,6.27
	c4.091-0.627,6.898-4.451,6.27-8.541l-3.804-24.819l6.7-6.699l3.198,3.62c2.195,2.483,5.077,3.851,8.115,3.851
	c0.001,0,0.001,0,0.001,0c4.21,0,7.902-2.62,9.635-6.837L318.226,368.65z M304.399,360.96c0.16,0.338,0.256,1.103,0.184,1.469
	l-14.465,35.151l-18.338-20.76l16.451-15.108c2.77-2.544,4.633-6.781,4.633-10.543v-5.751L304.399,360.96z M320.979,298.584
	c-1.646-2.801-2.544-6.015-2.544-9.351c0-10.19,8.29-18.481,18.481-18.481c1.274,0,2.537,0.132,3.77,0.389
	C335.808,281.458,329.098,290.746,320.979,298.584z M349.622,231.251c0,8.937-1.261,17.584-3.609,25.776
	c-2.943-0.831-6.003-1.26-9.096-1.26c-18.453,0-33.465,15.012-33.465,33.465c0,6.852,2.078,13.42,5.865,18.931
	c-15.14,10.527-33.519,16.71-53.315,16.71c-19.796,0-38.175-6.183-53.315-16.71c3.787-5.511,5.865-12.079,5.865-18.931
	c0-18.453-15.012-33.465-33.465-33.465c-3.095,0-6.154,0.429-9.097,1.26c-2.35-8.192-3.609-16.839-3.609-25.776v-77.746
	c5.217,5.013,12.097,9.558,20.506,13.47c18.988,8.834,44.067,13.699,70.618,13.699s51.631-4.865,70.618-13.699
	c11.45-5.327,20.062-11.829,25.5-19.086V231.251z M349.622,123.12H247.009c-4.139,0-7.492,3.354-7.492,7.492
	c0,4.138,3.354,7.492,7.492,7.492h91.174c-3.774,5.506-10.752,10.805-20.382,15.286c-17.049,7.932-39.884,12.3-64.298,12.3
	c-42.663,0-74.654-13.186-84.626-27.586h35.177c4.139,0,7.492-3.354,7.492-7.492c0-4.138-3.354-7.492-7.492-7.492h-41.677v-9.703
	h187.244V123.12z M155.502,98.432c-12.173-4.466-19.875-10.827-19.875-19.865c0-12.796,12.952-28.483,33.802-40.939
	c24.085-14.39,55.64-22.643,86.572-22.643s62.487,8.253,86.573,22.643c20.849,12.456,33.802,28.143,33.802,40.939
	c0,9.039-7.702,15.399-19.876,19.865H155.502z M381.991,243.505c0,8.597-6.995,15.592-15.592,15.592h-5.412
	c1.812-6.824,2.957-13.912,3.399-21.189h5.505c4.139,0,7.492-3.354,7.492-7.492c0-4.138-3.354-7.492-7.492-7.492h-5.285v-20.1h1.793
	c8.596,0,15.592,6.994,15.592,15.592L381.991,243.505L381.991,243.505z"/>
<path d="M273.54,26.401h-35.077c-6.886,0-12.487,5.601-12.487,12.487v24.867c0,5.106,2.821,10.854,6.86,13.977l14.631,11.316
	c2.356,1.822,5.387,2.826,8.534,2.826c3.148,0,6.179-1.004,8.534-2.826l14.634-11.317c4.038-3.124,6.858-8.872,6.858-13.976V38.888
	C286.027,32.003,280.425,26.401,273.54,26.401z M270,65.879l-14,10.827l-13.964-10.799c-0.43-0.388-1.034-1.619-1.077-2.152v-22.37
	h30.083l0.001,22.325C270.999,64.287,270.393,65.52,270,65.879z"/>
<path d="M325.286,175.034l-48.949,10.989c-4.038,0.906-6.576,4.914-5.67,8.951c0.782,3.485,3.876,5.853,7.304,5.853
	c0.543,0,1.096-0.059,1.647-0.184l48.949-10.989c4.038-0.906,6.576-4.914,5.67-8.951C333.33,176.667,329.322,174.13,325.286,175.034
	z"/>
<path d="M234.03,200.827c3.428,0,6.521-2.369,7.304-5.853c0.906-4.038-1.632-8.045-5.67-8.951l-48.949-10.989
	c-4.033-0.904-8.045,1.632-8.952,5.669c-0.906,4.038,1.632,8.045,5.67,8.951l48.949,10.989
	C232.934,200.768,233.487,200.827,234.03,200.827z"/>
<g>
</g>
<g>
</g>
<g>
</g>
<g>
</g>
<g>
</g>
<g>
</g>
<g>
</g>
<g>
</g>
<g>
</g>
<g>
</g>
<g>
</g>
<g>
</g>
<g>
</g>
<g>
</g>
<g>
</g>
</svg>
