<?xml version="1.0" encoding="iso-8859-1"?>
<!-- Generator: Adobe Illustrator 19.0.0, SVG Export Plug-In . SVG Version: 6.00 Build 0)  -->
<svg version="1.1" id="Capa_1" xmlns="http://www.w3.org/2000/svg" xmlns:xlink="http://www.w3.org/1999/xlink" x="0px" y="0px"
	 viewBox="0 0 512 512" style="enable-background:new 0 0 512 512;" xml:space="preserve">
<path style="fill:#9EA7AF;" d="M154.999,287.314v23.463h26.405c-2.11-4.714-3.295-9.934-3.295-15.431v-8.033L154.999,287.314
	L154.999,287.314z"/>
<g>
	<path style="fill:#775436;" d="M172.378,413.482c-0.841-1.42-0.573-3.536,0.593-4.703l16.758-16.758
		c1.166-1.166,1.11-3.016-0.126-4.109l-21.506-19.024c-1.236-1.093-1.462-3.086-0.503-4.429l6.579-9.21H110.82
		c-8.25,0-15,6.75-15,15V494.5c0,5.5,4.5,10,10,10h108.821v-19.709c-0.104-0.131-0.21-0.286-0.32-0.472L172.378,413.482z"/>
	<path style="fill:#775436;" d="M401.178,355.25h-63.353l6.579,9.21c0.959,1.343,0.733,3.336-0.503,4.429l-21.506,19.024
		c-1.236,1.093-1.292,2.942-0.126,4.109l16.758,16.758c1.166,1.167,1.434,3.283,0.593,4.703l-41.943,70.837
		c-0.11,0.186-0.217,0.341-0.32,0.472V504.5h108.821c5.5,0,10-4.5,10-10V370.25C416.178,362,409.428,355.25,401.178,355.25z"/>
</g>
<g style="opacity:0.15;">
	<path style="fill:#3D0072;" d="M124.642,494.5V370.25c0-8.25,6.75-15,15-15h-28.821c-8.25,0-15,6.75-15,15V494.5
		c0,5.5,4.5,10,10,10h28.821C129.143,504.5,124.642,500,124.642,494.5z"/>
</g>
<path style="fill:#E6E9ED;" d="M282.055,410.604h-52.111c-6.126,0-11.626-2.796-15.302-7.169V504.5h82.715V403.435
	C293.682,407.808,288.182,410.604,282.055,410.604z"/>
<path style="opacity:0.15;fill:#490089;enable-background:new    ;" d="M229.943,410.604c-6.126,0-11.626-2.796-15.302-7.169V504.5
	h28.643v-93.896H229.943z"/>
<path style="fill:#368C0E;" d="M297.357,355.25v-22.207c-0.324,0.008-0.645,0.025-0.972,0.025h-80.771
	c-0.326,0-0.648-0.017-0.972-0.025v22.207v48.185c3.676,4.373,9.176,7.169,15.302,7.169h52.111c6.126,0,11.626-2.796,15.302-7.169
	V355.25L297.357,355.25z"/>
<g style="opacity:0.15;">
	<path style="fill:#330068;" d="M239.889,390.604v-57.536c0,0-25.416-0.029-25.246-0.025v70.392
		c3.676,4.373,9.176,7.169,15.302,7.169h29.944C248.889,410.604,239.889,401.604,239.889,390.604z"/>
</g>
<g>
	<path style="fill:#B2762F;" d="M194.636,326.601l-27.042,37.859c-0.959,1.343-0.733,3.336,0.503,4.429l21.506,19.024
		c1.236,1.093,1.292,2.942,0.126,4.109l-16.758,16.758c-1.166,1.167-1.434,3.283-0.593,4.703l41.943,70.837
		c0.11,0.186,0.217,0.341,0.32,0.472V333.043C207.247,332.853,200.376,330.51,194.636,326.601z"/>
	<path style="fill:#B2762F;" d="M317.362,326.601c-5.739,3.91-12.611,6.252-20.006,6.442v151.748c0.104-0.131,0.21-0.286,0.32-0.472
		l41.943-70.837c0.841-1.42,0.573-3.536-0.593-4.703l-16.758-16.758c-1.166-1.166-1.11-3.016,0.126-4.109l21.506-19.024
		c1.236-1.093,1.462-3.086,0.503-4.429L317.362,326.601z"/>
</g>
<g>
	<path style="fill:#368C0E;" d="M154.781,228.411V171h-11.865c-13.059,0-23.646,10.587-23.646,23.646v25.701
		c0,13.059,10.587,23.645,23.646,23.645h14.373C155.654,239.041,154.781,233.795,154.781,228.411z"/>
	<path style="fill:#368C0E;" d="M369.084,171h-11.866v57.411c0,5.384-0.873,10.63-2.508,15.581h14.374
		c13.06,0,23.645-10.586,23.645-23.645v-25.701C392.729,181.587,382.144,171,369.084,171z"/>
</g>
<path style="fill:#5DC647;" d="M356.826,115.004l-44.441-24.106c-0.289-0.156-0.614-0.239-0.941-0.239
	c-0.526,0-1.021,0.203-1.394,0.572L293.27,107.89c-0.554,0.549-1.304,0.858-2.086,0.858c-0.783,0-1.533-0.309-2.086-0.858
	l-16.781-16.66c-0.367-0.363-0.874-0.571-1.392-0.571c-0.525,0-1.02,0.203-1.392,0.572l-16.78,16.659
	c-0.553,0.549-1.303,0.858-2.086,0.858s-1.533-0.309-2.086-0.858L229.67,89.114c-0.371-0.367-0.864-0.571-1.391-0.571
	c-0.518,0-1.024,0.209-1.392,0.572l-18.381,18.247c-0.553,0.548-1.302,0.857-2.085,0.857s-1.533-0.309-2.086-0.857L186.49,89.644
	c-0.372-0.369-0.865-0.571-1.391-0.571c-0.504,0-0.982,0.188-1.347,0.529l-27.973,26.134c-0.293,0.275-0.635,0.476-0.999,0.61
	v112.065c0,16.776,8.374,32.255,22.402,41.406c0.58,0.378,0.927,1.017,0.927,1.711v23.819c0,20.8,16.823,37.722,37.504,37.722
	h80.771c20.681,0,37.504-16.921,37.504-37.722v-23.819c0-0.693,0.347-1.333,0.927-1.711c14.028-9.151,22.402-24.629,22.402-41.406
	V115.157C357.086,115.109,356.951,115.072,356.826,115.004z"/>
<path style="opacity:0.15;fill:#490089;enable-background:new    ;" d="M202.184,259.021c-14.028-9.151-22.402-24.629-22.402-41.406
	V94.108c0-0.274,0.019-0.544,0.023-0.818l-24.024,22.445c-0.293,0.275-0.635,0.476-0.999,0.61V228.41
	c0,16.776,8.374,32.255,22.402,41.406c0.58,0.378,0.927,1.017,0.927,1.711v23.819c0,16.392,10.45,30.367,25,35.558v-70.173
	C203.109,260.038,202.764,259.398,202.184,259.021z"/>
<path style="fill:#FFFFFF;" d="M173.249,190.79L173.249,190.79c0,11.874,9.626,21.5,21.5,21.5h16c11.874,0,21.5-9.626,21.5-21.5l0,0
	v-4.5h-59V190.79z"/>
<path style="fill:#203A74;" d="M153.758,116.531c-0.394,0-0.79-0.079-1.167-0.239c-1.08-0.461-1.779-1.516-1.779-2.682V58.317
	c0-28.021,22.899-50.817,51.048-50.817H310.14c28.148,0,51.048,22.796,51.048,50.817v54.125c0,1.031-0.549,1.986-1.445,2.512
	c-0.462,0.271-0.982,0.408-1.502,0.408c-0.486,0-0.974-0.119-1.414-0.358l-44.441-24.106c-0.289-0.156-0.614-0.239-0.941-0.239
	c-0.526,0-1.021,0.203-1.394,0.572l-16.779,16.659c-0.554,0.549-1.304,0.858-2.086,0.858c-0.783,0-1.533-0.309-2.086-0.858
	l-16.781-16.66c-0.367-0.363-0.874-0.571-1.392-0.571c-0.525,0-1.02,0.203-1.392,0.572l-16.78,16.659
	c-0.553,0.549-1.303,0.858-2.086,0.858s-1.533-0.309-2.086-0.858l-18.911-18.776c-0.371-0.367-0.864-0.571-1.391-0.571
	c-0.518,0-1.024,0.209-1.392,0.572l-18.381,18.247c-0.553,0.548-1.302,0.857-2.085,0.857l0,0c-0.783,0-1.533-0.309-2.086-0.857
	L186.49,89.644c-0.372-0.369-0.865-0.571-1.391-0.571c-0.504,0-0.982,0.188-1.347,0.529l-27.973,26.134
	C155.223,116.257,154.495,116.531,153.758,116.531z"/>
<path style="fill:#083E63;" d="M153.758,116.531c-0.394,0-0.79-0.079-1.167-0.239c-1.08-0.461-1.779-1.516-1.779-2.682V58.317
	c0-28.021,22.899-50.817,51.048-50.817H310.14c28.148,0,51.048,22.796,51.048,50.817v54.125c0,1.031-0.549,1.986-1.445,2.512
	c-0.462,0.271-0.982,0.408-1.502,0.408c-0.486,0-0.974-0.119-1.414-0.358l-44.441-24.106c-0.289-0.156-0.614-0.239-0.941-0.239
	c-0.526,0-1.021,0.203-1.394,0.572l-16.779,16.659c-0.554,0.549-1.304,0.858-2.086,0.858c-0.783,0-1.533-0.309-2.086-0.858
	l-16.781-16.66c-0.367-0.363-0.874-0.571-1.392-0.571c-0.525,0-1.02,0.203-1.392,0.572l-16.78,16.659
	c-0.553,0.549-1.303,0.858-2.086,0.858s-1.533-0.309-2.086-0.858l-18.911-18.776c-0.371-0.367-0.864-0.571-1.391-0.571
	c-0.518,0-1.024,0.209-1.392,0.572l-18.381,18.247c-0.553,0.548-1.302,0.857-2.085,0.857l0,0c-0.783,0-1.533-0.309-2.086-0.857
	L186.49,89.644c-0.372-0.369-0.865-0.571-1.391-0.571c-0.504,0-0.982,0.188-1.347,0.529l-27.973,26.134
	C155.223,116.257,154.495,116.531,153.758,116.531z"/>
<g style="opacity:0.15;">
	<path style="fill:#0F001E;" d="M179.624,58.317c0-28.021,22.899-50.817,51.048-50.817h-28.813
		c-28.148,0-51.048,22.796-51.048,50.817v55.293c0,1.166,0.699,2.22,1.779,2.682c0.377,0.16,0.773,0.239,1.167,0.239
		c0.737,0,1.465-0.274,2.021-0.796l23.845-22.277L179.624,58.317L179.624,58.317z"/>
</g>
<path style="fill:#FFFFFF;" d="M334,191.5c0,11.874-9.626,21.5-21.5,21.5h-16c-11.874,0-21.5-9.626-21.5-21.5l0,0
	c0-11.874,9.626-21.5,21.5-21.5h16C324.373,170,334,179.626,334,191.5L334,191.5z"/>
<path style="fill:#B2762F;" d="M387,473h-54c-2.75,0-5,2.25-5,5v26.5h64V478C392,475.25,389.75,473,387,473z"/>
<path style="fill:#9EA7AF;" d="M357,287.314h-23.11v8.033c0,5.497-1.184,10.717-3.295,15.431H357V287.314z"/>
<g>
	<path style="fill:#C5CCD3;" d="M378,318c0,2.75-2.25,5-5,5h-11c-2.75,0-5-2.25-5-5v-37.909c0-2.75,2.25-5,5-5h11c2.75,0,5,2.25,5,5
		V318z"/>
	<path style="fill:#C5CCD3;" d="M154.999,318c0,2.75-2.25,5-5,5h-11c-2.75,0-5-2.25-5-5v-37.909c0-2.75,2.25-5,5-5h11
		c2.75,0,5,2.25,5,5V318z"/>
	<path style="fill:#C5CCD3;" d="M199.954,147c0,1.65-1.35,3-3,3h-10.91c-1.65,0-3-1.35-3-3v-18.093c0-1.65,1.35-3,3-3h10.91
		c1.65,0,3,1.35,3,3V147z"/>
	<path style="fill:#C5CCD3;" d="M285.954,147c0,1.65-1.35,3-3,3h-10.91c-1.65,0-3-1.35-3-3v-18.093c0-1.65,1.35-3,3-3h10.91
		c1.65,0,3,1.35,3,3V147z"/>
	<path style="fill:#C5CCD3;" d="M328.954,147c0,1.65-1.35,3-3,3h-10.91c-1.65,0-3-1.35-3-3v-18.093c0-1.65,1.35-3,3-3h10.91
		c1.65,0,3,1.35,3,3V147z"/>
</g>
<path d="M296.5,220.5h16c15.99,0,29-13.009,29-29s-13.01-29-29-29h-16c-15.99,0-29,13.009-29,29S280.51,220.5,296.5,220.5z
	 M296.5,177.5h16c7.72,0,14,6.28,14,14s-6.28,14-14,14h-16c-7.72,0-14-6.28-14-14S288.779,177.5,296.5,177.5z"/>
<path d="M304.5,199c1.97,0,3.91-0.8,5.3-2.2c1.4-1.39,2.2-3.33,2.2-5.3s-0.8-3.9-2.2-5.3c-1.39-1.4-3.32-2.2-5.3-2.2
	c-1.98,0-3.91,0.8-5.3,2.2c-1.4,1.39-2.2,3.33-2.2,5.3s0.8,3.91,2.2,5.3C300.589,198.2,302.529,199,304.5,199z"/>
<path d="M298,277c0-4.142-3.357-7.5-7.5-7.5h-69c-4.143,0-7.5,3.358-7.5,7.5s3.357,7.5,7.5,7.5h69
	C294.643,284.5,298,281.142,298,277z"/>
<path d="M230.042,236.897c0,9.155,7.448,16.603,16.604,16.603h18.707c9.155,0,16.604-7.448,16.604-16.603v-7.111
	c0-4.142-3.357-7.5-7.5-7.5c-4.142,0-7.5,3.358-7.5,7.5v7.111c0,0.869-0.734,1.603-1.604,1.603h-18.707
	c-0.869,0-1.604-0.734-1.604-1.603v-43.72c5.013-1.628,8.649-6.338,8.649-11.887V173c0-4.142-3.357-7.5-7.5-7.5s-7.5,3.358-7.5,7.5
	v5.79h-6.442h-59c-4.143,0-7.5,3.358-7.5,7.5v4.5c0,15.991,13.01,29,29,29h16c7.402,0,14.163-2.792,19.293-7.373V236.897z
	 M210.749,204.79h-16c-6.69,0-12.3-4.717-13.677-11h14.188c-0.002,0.07-0.011,0.14-0.011,0.21c0,1.98,0.8,3.91,2.2,5.3
	c1.39,1.4,3.33,2.2,5.3,2.2s3.899-0.8,5.3-2.2c1.4-1.39,2.2-3.33,2.2-5.3c0-0.07-0.009-0.14-0.011-0.21h14.188
	C223.049,200.072,217.439,204.79,210.749,204.79z"/>
<path d="M401.178,347.75h-59.491l-14.151-19.812c2.952-2.851,5.521-6.098,7.616-9.661h14.361
	c0.149,6.764,5.688,12.223,12.486,12.223h11c6.893,0,12.5-5.607,12.5-12.5v-37.909c0-6.893-5.607-12.5-12.5-12.5h-11
	c-6.799,0-12.336,5.459-12.486,12.223h-8.124v-5.424c8.178-5.965,14.483-13.885,18.468-22.898h9.228
	c17.173,0,31.145-13.972,31.145-31.145v-25.701c0-17.174-13.972-31.146-31.145-31.146h-4.366v-42.889
	c2.475-1.959,3.969-4.973,3.969-8.168V58.317C368.688,26.161,342.422,0,310.14,0h-108.28c-32.283,0-58.548,26.161-58.548,58.317
	v55.293c0,3.237,1.498,6.219,3.969,8.167V163.5h-4.365c-17.174,0-31.146,13.972-31.146,31.146v25.701
	c0,17.173,13.972,31.145,31.146,31.145h9.227c3.984,9.012,10.29,16.932,18.468,22.898v5.424h-8.124
	c-0.15-6.764-5.688-12.223-12.486-12.223h-11c-6.893,0-12.5,5.607-12.5,12.5V318c0,6.893,5.607,12.5,12.5,12.5h11
	c6.799,0,12.337-5.459,12.486-12.223h14.361c2.096,3.563,4.664,6.81,7.616,9.661l-14.15,19.812h-59.492
	c-12.406,0-22.5,10.093-22.5,22.5V494.5c0,9.649,7.851,17.5,17.5,17.5h32.178c4.143,0,7.5-3.358,7.5-7.5s-3.357-7.5-7.5-7.5H105.82
	c-1.355,0-2.5-1.145-2.5-2.5V370.25c0-4.136,3.364-7.5,7.5-7.5h49.298c-1.423,4.064-0.327,8.807,3.009,11.757l17.781,15.729
	l-13.242,13.242c-3.612,3.615-4.345,9.429-1.741,13.826l41.217,69.611V497h-24.144c-4.143,0-7.5,3.358-7.5,7.5s3.357,7.5,7.5,7.5
	h223.18c9.649,0,17.5-7.851,17.5-17.5V370.25C423.678,357.843,413.584,347.75,401.178,347.75z M364.5,282.591h6V315.5h-6V282.591z
	 M364.719,228.411v-13.96h5.291c4.143,0,7.5-3.358,7.5-7.5s-3.357-7.5-7.5-7.5h-5.291V178.5h4.366
	c8.902,0,16.145,7.243,16.145,16.146v25.701c0,8.902-7.242,16.145-16.145,16.145h-4.958
	C364.503,233.837,364.719,231.142,364.719,228.411z M142.915,236.492c-8.902,0-16.146-7.243-16.146-16.145v-25.701
	c0-8.903,7.243-16.146,16.146-16.146h4.365v20.951h-5.291c-4.143,0-7.5,3.358-7.5,7.5s3.357,7.5,7.5,7.5h5.291v13.96
	c0,2.731,0.216,5.426,0.592,8.081H142.915z M147.499,315.5h-6v-32.909h6V315.5z M349.5,294.814v8.463h-8.817
	c0.456-2.577,0.707-5.224,0.707-7.931v-0.533L349.5,294.814L349.5,294.814z M349.719,130.454h-13.264v-1.546
	c0-5.79-4.71-10.5-10.5-10.5h-10.91c-5.79,0-10.5,4.71-10.5,10.5v1.546h-11.09v-1.546c0-5.79-4.71-10.5-10.5-10.5h-10.91
	c-5.79,0-10.5,4.71-10.5,10.5v1.546h-54.09v-1.546c0-5.79-4.71-10.5-10.5-10.5h-10.91c-5.79,0-10.5,4.71-10.5,10.5v1.546H162.28
	v-10.528l22.702-21.21l14.068,13.967c1.972,1.958,4.59,3.036,7.371,3.036c2.779,0,5.396-1.077,7.369-3.034l14.488-14.382
	l15.015,14.908c1.972,1.959,4.59,3.038,7.373,3.038s5.401-1.079,7.37-3.035l12.889-12.795l12.885,12.792
	c1.972,1.959,4.59,3.038,7.373,3.038c2.779,0,5.396-1.077,7.37-3.036l13.863-13.764l37.301,20.233v10.772H349.719z M321.454,133.407
	v9.093h-1.91v-9.093H321.454z M278.454,133.407v9.093h-1.91v-9.093H278.454z M192.454,133.407v9.093h-1.91v-9.093H192.454z
	 M158.313,58.317c0-23.885,19.535-43.317,43.547-43.317h108.28c24.013,0,43.548,19.432,43.548,43.317v46.452L315.952,84.3
	c-1.381-0.747-2.94-1.141-4.508-1.141c-2.519,0-4.89,0.976-6.678,2.75l-13.581,13.483l-13.596-13.498
	c-1.761-1.739-4.189-2.736-6.663-2.736c-2.518,0-4.888,0.976-6.676,2.75l-13.582,13.484l-15.722-15.61
	c-1.786-1.767-4.153-2.739-6.666-2.739c-2.474,0-4.902,0.997-6.676,2.749l-15.182,15.071L191.77,84.316
	c-1.786-1.77-4.154-2.744-6.67-2.744c-2.419,0-4.72,0.909-6.467,2.549l-20.32,18.984L158.313,58.317L158.313,58.317z
	 M162.499,303.277v-8.463h8.11v0.533c0,2.706,0.251,5.353,0.707,7.931L162.499,303.277L162.499,303.277z M207.143,347.75v109.724
	l-26.873-45.385l14.765-14.764c2.013-2.013,3.116-4.789,3.029-7.616c-0.087-2.826-1.359-5.528-3.49-7.413l-18.691-16.534
	l20.952-29.334c3.248,1.505,6.701,2.633,10.309,3.326v7.996H207.143z M289.857,497h-67.715v-80.035
	c2.476,0.734,5.092,1.139,7.802,1.139h52.111c2.71,0,5.326-0.404,7.802-1.139V497z M288,340.568h1.857v59.786
	c-2.141,1.716-4.852,2.75-7.802,2.75h-52.111c-2.95,0-5.661-1.033-7.802-2.75v-59.786h20.858c4.143,0,7.5-3.358,7.5-7.5
	s-3.357-7.5-7.5-7.5h-27.386c-16.544,0-30.004-13.558-30.004-30.222v-23.819c0-3.238-1.62-6.227-4.329-7.992
	c-11.897-7.761-19-20.891-19-35.124v-82.957h13.264V147c0,5.79,4.71,10.5,10.5,10.5h10.91c5.79,0,10.5-4.71,10.5-10.5v-1.546h54.09
	V147c0,5.79,4.71,10.5,10.5,10.5h10.91c5.79,0,10.5-4.71,10.5-10.5v-1.546h11.09V147c0,5.79,4.71,10.5,10.5,10.5h10.91
	c5.79,0,10.5-4.71,10.5-10.5v-1.546h13.264v82.957c0,14.233-7.103,27.363-18.996,35.122c-2.713,1.768-4.333,4.756-4.333,7.995
	v23.819c0,16.664-13.46,30.222-30.004,30.222H288c-4.143,0-7.5,3.358-7.5,7.5C280.5,337.21,283.857,340.568,288,340.568z M384.5,497
	h-49v-16.5h49V497z M408.678,494.5c0,1.355-1.145,2.5-2.5,2.5H399.5v-19c0-6.893-5.607-12.5-12.5-12.5h-54
	c-6.893,0-12.5,5.607-12.5,12.5v19h-15.643v-10.086l18.41-31.093c2.11-3.564,0.933-8.165-2.632-10.275
	c-3.562-2.109-8.164-0.932-10.274,2.632l-5.504,9.295V347.75v-7.997c3.607-0.693,7.061-1.821,10.309-3.326l20.952,29.334
	l-18.689,16.533c-2.133,1.886-3.405,4.588-3.492,7.414c-0.087,2.827,1.017,5.602,3.03,7.617l14.764,14.763l-3.607,6.09
	c-2.11,3.564-0.933,8.165,2.632,10.275c3.564,2.112,8.164,0.933,10.274-2.631l5.044-8.518c2.604-4.397,1.871-10.211-1.742-13.827
	l-13.241-13.241l17.779-15.728c3.337-2.951,4.434-7.693,3.011-11.758h49.298c4.136,0,7.5,3.364,7.5,7.5V494.5z"/>
<g>
</g>
<g>
</g>
<g>
</g>
<g>
</g>
<g>
</g>
<g>
</g>
<g>
</g>
<g>
</g>
<g>
</g>
<g>
</g>
<g>
</g>
<g>
</g>
<g>
</g>
<g>
</g>
<g>
</g>
</svg>
