<svg id="Capa_1" enable-background="new 0 0 504.453 504.453" height="512" viewBox="0 0 504.453 504.453" width="512" xmlns="http://www.w3.org/2000/svg"><g><path d="m223.035 217.972h-114.447c-9.072 0-17.508-4.665-22.331-12.349l-34.437-54.862c-1.215-1.936-3.34-3.111-5.626-3.111h-32.046c-4.781 0-7.996 4.898-6.094 9.285l26.462 61.038 8.985 21.42c6.068 14.464 18.792 25.072 34.111 28.439l119.524 26.265c15.125 3.324 25.899 16.723 25.899 32.208v5.919c0 18.213 14.764 32.977 32.977 32.977h203.583c14.834 0 26.86-12.025 26.86-26.86v-40.311c0-44.214-35.843-80.057-80.057-80.057h-183.363z" fill="#92e0c4"/><path d="m402.621 217.557h-30c44.214 0 80.057 35.843 80.057 80.057v40.311c0 14.834-12.025 26.86-26.86 26.86h30c14.834 0 26.86-12.025 26.86-26.86v-40.311c0-44.215-35.843-80.057-80.057-80.057z" fill="#77d1b3"/><path d="m43.501 239.391c1.787 4.261 4.166 8.176 7.005 11.681 3.412-4.742 7.003-9.353 10.759-13.798 8.423-9.968 18.022-19.14 28.457-27.262-1.292-1.323-2.459-2.788-3.464-4.389l-34.438-54.862c-1.215-1.936-3.34-3.111-5.626-3.111h-32.046c-4.781 0-7.996 4.898-6.094 9.284l26.461 61.038z" fill="#56988c"/><path d="m475.325 257.317h-78.49c-9.282 0-16.807 7.525-16.807 16.807v26.548c0 9.282 7.525 16.807 16.807 16.807h89.62v-19.45c0-14.868-4.068-28.781-11.13-40.712z" fill="#fbfbfb"/><path d="m229.646 107.655h-135.546c0-18.768 15.215-33.983 33.983-33.983h135.546c0 18.768-15.215 33.983-33.983 33.983z" fill="#e3e0e4"/><path d="m361.408 107.655h135.546c0-18.768-15.215-33.983-33.983-33.983h-135.546c0 18.768 15.215 33.983 33.983 33.983z" fill="#e3e0e4"/><g fill="#c8c3ca"><path d="m233.629 73.672c0 18.769-15.215 33.983-33.983 33.983h30c18.768 0 33.983-15.214 33.983-33.983z"/><path d="m462.97 73.672h-30c18.768 0 33.983 15.215 33.983 33.983h30c.001-18.768-15.214-33.983-33.983-33.983z"/><path d="m365.312 217.972h-133.71c0-15.991 12.964-28.955 28.955-28.955h75.8c15.991 0 28.955 12.964 28.955 28.955z"/></g><circle cx="291.995" cy="413.517" fill="#544f56" r="17.264"/><circle cx="424.635" cy="413.517" fill="#444145" r="17.264"/><path d="m335.761 365.2h-64.733v-87.694c0-5.892 4.776-10.668 10.668-10.668h43.396c5.892 0 10.668 4.776 10.668 10.668v87.694z" fill="#8c818f"/><path d="m475.325 257.317h-30c7.062 11.931 11.13 25.843 11.13 40.712v19.45h30v-19.45c0-14.868-4.068-28.781-11.13-40.712z" fill="#fbfbfb"/><path d="m325.093 266.837h-30c5.892 0 10.668 4.776 10.668 10.668v87.695h30v-87.694c0-5.893-4.776-10.669-10.668-10.669z" fill="#766d78"/><path d="m462.97 66.172h-78.438c-4.143 0-7.5 3.358-7.5 7.5s3.357 7.5 7.5 7.5h78.438c11.999 0 22.16 8.021 25.402 18.983h-126.964c-11.999 0-22.159-8.022-25.402-18.983h18.525c4.143 0 7.5-3.358 7.5-7.5s-3.357-7.5-7.5-7.5h-27.106c-4.143 0-7.5 3.358-7.5 7.5 0 4.126.614 8.11 1.741 11.874h-18.639v-11.874c0-4.142-3.357-7.5-7.5-7.5s-7.5 3.358-7.5 7.5v11.874h-18.638c1.127-3.764 1.741-7.748 1.741-11.874 0-4.142-3.358-7.5-7.5-7.5h-135.547c-22.874 0-41.483 18.609-41.483 41.483 0 4.142 3.357 7.5 7.5 7.5h21.151c4.143 0 7.5-3.358 7.5-7.5s-3.357-7.5-7.5-7.5h-12.57c3.242-10.962 13.402-18.983 25.402-18.983h126.965c-3.243 10.961-13.403 18.983-25.402 18.983h-84.395c-4.143 0-7.5 3.358-7.5 7.5s3.357 7.5 7.5 7.5h84.395c12.628 0 23.949-5.679 31.563-14.609h26.817v80.972h-27.47c-17.53 0-32.207 12.439-35.675 28.955h-36.272c-4.143 0-7.5 3.358-7.5 7.5s3.357 7.5 7.5 7.5h217.787c21.515 0 40.863 9.422 54.161 24.345h-63.724c-13.402 0-24.307 10.904-24.307 24.307v26.548c0 13.403 10.904 24.307 24.307 24.307h82.12v13.361c0 10.675-8.685 19.359-19.36 19.359h-116.332v-80.194c0-10.018-8.15-18.168-18.168-18.168h-43.397c-10.017 0-18.168 8.15-18.168 18.168v80.194h-7.517c-14.048 0-25.477-11.429-25.477-25.477v-5.918c0-18.86-13.369-35.486-31.79-39.534l-119.522-26.266c-7.2-1.582-13.728-5.075-18.986-9.965 2.197-2.882 4.459-5.706 6.757-8.425 6.781-8.025 14.394-15.54 22.668-22.416 5.493 3.708 12.032 5.773 18.928 5.773h50.022c4.143 0 7.5-3.358 7.5-7.5s-3.357-7.5-7.5-7.5h-50.022c-5.126 0-9.903-2.042-13.402-5.591-.055-.059-.112-.113-.168-.17-.893-.929-1.704-1.954-2.408-3.075l-34.438-54.861c-2.603-4.148-7.081-6.624-11.979-6.624h-32.046c-4.78 0-9.2 2.386-11.823 6.383-2.623 3.996-3.054 9-1.151 13.385l35.411 82.376c7.004 16.692 21.739 28.977 39.419 32.862l119.523 26.265c11.594 2.547 20.009 13.013 20.009 24.883v5.918c0 22.319 18.158 40.477 40.477 40.477h28.483v17.217c-10 3.185-17.265 12.559-17.265 23.601 0 13.655 11.109 24.764 24.765 24.764 13.655 0 24.765-11.109 24.765-24.764 0-11.041-7.265-20.415-17.265-23.601v-17.217h117.64v17.217c-10 3.185-17.265 12.559-17.265 23.601 0 13.655 11.109 24.764 24.765 24.764 13.654 0 24.764-11.109 24.764-24.764 0-11.041-7.265-20.415-17.264-23.601v-17.217h27.46c18.946 0 34.36-15.414 34.36-34.359v-40.311c0-16.074-4.359-31.148-11.949-44.109-.152-.298-.32-.586-.509-.86-15.323-25.494-43.251-42.588-75.1-42.588h-34.366c-3.468-16.515-18.145-28.955-35.675-28.955h-33.33v-80.972h26.818c7.615 8.93 18.935 14.609 31.564 14.609h135.545c4.143 0 7.5-3.358 7.5-7.5-.001-22.874-18.61-41.483-41.484-41.483zm-447.515 88.978h30.265l33.649 53.607c-8.677 7.277-16.681 15.211-23.835 23.677-1.508 1.786-3 3.617-4.472 5.474-.219-.47-.444-.937-.646-1.417zm276.54 268.132c-5.384 0-9.765-4.38-9.765-9.764s4.381-9.765 9.765-9.765 9.765 4.38 9.765 9.765c0 5.383-4.381 9.764-9.765 9.764zm132.64 0c-5.384 0-9.765-4.38-9.765-9.764s4.381-9.765 9.765-9.765 9.764 4.38 9.764 9.765c0 5.383-4.38 9.764-9.764 9.764zm-146.106-65.582v-80.194c0-1.747 1.421-3.168 3.168-3.168h43.397c1.747 0 3.168 1.421 3.168 3.168v80.194zm118.306-47.721c-5.132 0-9.307-4.175-9.307-9.307v-26.548c0-5.132 4.175-9.307 9.307-9.307h74.04c5.151 9.96 8.081 21.247 8.081 33.212v11.95zm-40.376-99.507h-116.004c3.048-8.143 10.908-13.955 20.102-13.955h75.8c9.193 0 17.054 5.812 20.102 13.955z"/></g></svg>