<?xml version="1.0" encoding="iso-8859-1"?>
<!-- Generator: Adobe Illustrator 19.0.0, SVG Export Plug-In . SVG Version: 6.00 Build 0)  -->
<svg version="1.1" id="Capa_1" xmlns="http://www.w3.org/2000/svg" xmlns:xlink="http://www.w3.org/1999/xlink" x="0px" y="0px"
	 viewBox="0 0 512 512" style="enable-background:new 0 0 512 512;" xml:space="preserve">
<path style="fill:#C0272D;" d="M359,355.25h-33.629c0.465,2.293-0.171,5.018-1.71,6.648l-34.071,36.091
	c-1.888,2-4.805,1.853-6.481-0.327l-24.06-31.27c-1.677-2.18-4.421-2.18-6.098,0l-24.059,31.27c-1.677,2.18-4.593,2.327-6.482,0.327
	l-34.073-36.091c-1.54-1.63-2.174-4.355-1.71-6.648H153c-17.645,0-32,14.355-32,32V499.5c0,2.761,2.239,5,5,5h260
	c2.762,0,5-2.239,5-5V387.25C391,369.605,376.645,355.25,359,355.25z"/>
<g style="opacity:0.15;">
	<path style="fill:#3D0072;" d="M151,499.5V387.25c0-17.645,14.355-32,32-32h-30c-17.645,0-32,14.355-32,32V499.5
		c0,2.761,2.239,5,5,5h30C153.239,504.5,151,502.261,151,499.5z"/>
</g>
<g>
	<path style="fill:#C5CCD3;" d="M325.371,355.25c0.465,2.293-0.171,5.018-1.71,6.648l-6.042,6.4V427H347v-71.75H325.371z"/>
	<rect x="317.62" y="467.86" style="fill:#C5CCD3;" width="29.381" height="36.637"/>
	<path style="fill:#C5CCD3;" d="M188.338,361.898c-1.54-1.63-2.174-4.355-1.71-6.648H165V427h29.38v-58.702L188.338,361.898z"/>
	<rect x="165" y="467.86" style="fill:#C5CCD3;" width="29.38" height="36.637"/>
</g>
<g>
	<path style="fill:#FFC502;" d="M161.69,464.863c0,1.65,1.35,3,3,3h30.001c1.65,0,3-1.35,3-3V430c0-1.65-1.35-3-3-3H164.69
		c-1.65,0-3,1.35-3,3V464.863z"/>
	<path style="fill:#FFC502;" d="M314.31,464.863c0,1.65,1.35,3,3,3h30c1.65,0,3-1.35,3-3V430c0-1.65-1.35-3-3-3h-30
		c-1.65,0-3,1.35-3,3V464.863z"/>
</g>
<path style="fill:#C0272D;" d="M317.344,338.291C300.322,351.28,279.064,359,256,359s-44.322-7.72-61.344-20.709l-7.557,15.478
	c-1.206,2.471-0.649,6.129,1.239,8.129l34.073,36.091c1.888,2,4.805,1.853,6.482-0.327l24.059-31.27c1.677-2.18,4.421-2.18,6.098,0
	l24.06,31.27c1.677,2.18,4.594,2.327,6.481,0.327l34.071-36.091c1.888-2,2.445-5.658,1.239-8.129L317.344,338.291z"/>
<g>
	<path style="fill:#B2762F;" d="M154.781,257.78v-9.933c0.02,0.027,0.042,0.052,0.061,0.079c-2.382-3.202-3.813-7.173-3.813-11.489
		v-35.04c0-2.409,1.589-4.421,3.752-5.069v-10.325h-11.865c-13.059,0-23.646,10.587-23.646,23.646v25.701
		c0,13.059,10.586,23.645,23.646,23.645h11.881C154.792,258.589,154.781,258.186,154.781,257.78z"/>
	<path style="fill:#B2762F;" d="M369.085,186.002h-11.866v10.324c2.163,0.648,3.752,2.661,3.752,5.07v35.04
		c0,4.315-1.432,8.287-3.814,11.489c0.021-0.026,0.042-0.051,0.062-0.078v9.933c0,0.406-0.011,0.809-0.016,1.213h11.882
		c13.06,0,23.645-10.586,23.645-23.645v-25.701C392.729,196.589,382.145,186.002,369.085,186.002z"/>
</g>
<path style="fill:#D19546;" d="M154.781,149v47.327c0.468-0.141,0.954-0.239,1.467-0.239h84.562c2.881,0,5.219,2.377,5.219,5.309
	v35.04c0,10.539-8.429,19.113-18.791,19.113h-57.417c-5.161,0-9.84-2.129-13.24-5.565c6.734,35.393,31.886,64.258,65.116,76.227
	C222.797,319.294,228.772,314,236,314h40c7.227,0,13.203,5.294,14.302,12.212c33.231-11.969,58.382-40.833,65.116-76.227
	l0.001-0.001c-3.398,3.438-8.078,5.566-13.238,5.566h-57.417c-10.362,0-18.793-8.575-18.793-19.114v-35.04
	c0-2.931,2.338-5.309,5.219-5.309h84.563c0.513,0,0.998,0.099,1.467,0.239V149H154.781z"/>
<path style="fill:#203A74;" d="M408,144c0,2.75-2.25,5-5,5H109c-2.75,0-5-2.25-5-5v-17c0-2.75,2.25-5,5-5h294c2.75,0,5,2.25,5,5V144
	z"/>
<g style="opacity:0.15;">
	<path style="fill:#330068;" d="M221.698,326.212c0.734-4.618,3.647-8.502,7.648-10.581c-20.957-13.754-36.506-35.071-42.751-60.081
		h-16.772c-5.161,0-9.84-2.129-13.24-5.565C163.316,285.378,188.468,314.243,221.698,326.212z"/>
	<path style="fill:#330068;" d="M156.248,196.088h27.314V149h-28.781v47.327C155.249,196.187,155.735,196.088,156.248,196.088z"/>
</g>
<path style="fill:#C5CCD3;" d="M319.774,278.119c-0.225-0.827-0.84-1.492-1.646-1.781l-38.805-13.934
	c-1.097,3.796-4.605,6.596-8.742,6.596h-18.708c-5.007,0-9.102-4.097-9.102-9.103v-1.118l-48.9,17.559
	c-0.806,0.289-1.421,0.954-1.645,1.781c-0.226,0.826-0.033,1.712,0.516,2.368c0.568,0.683,14.222,16.692,41.386,16.692
	c9.073,0,16.561-3.446,21.872-10.015c5.31,6.569,12.799,10.015,21.872,10.015c27.163,0,40.817-16.01,41.386-16.692
	C319.806,279.831,319.998,278.945,319.774,278.119z"/>
<path style="fill:#203A74;" d="M355.859,122L333.836,17.468c-1.225-5.81-6.35-9.968-12.287-9.968h-45.014
	c-3.545,0-6.924,1.498-9.305,4.125l-11.229,12.39l-11.232-12.39c-2.379-2.626-5.76-4.124-9.305-4.124h-45.012
	c-5.938,0-11.064,4.158-12.289,9.968L156.14,122H355.859z"/>
<polygon style="fill:#FFC502;" points="347.643,83 164.357,83 156.14,122 355.859,122 "/>
<path style="opacity:0.15;fill:#0B0116;enable-background:new    ;" d="M184.859,122l22.023-104.532
	c1.225-5.81,6.352-9.968,12.289-9.968h-28.719c-5.938,0-11.064,4.158-12.289,9.968L156.14,122H184.859z"/>
<g style="opacity:0.15;">
	<path style="fill:#0B0116;" d="M134,144v-17c0-2.75,2.25-5,5-5h-30c-2.75,0-5,2.25-5,5v17c0,2.75,2.25,5,5,5h30
		C136.25,149,134,146.75,134,144z"/>
</g>
<path style="fill:#C5CCD3;" d="M355.418,249.985c-6.734,35.393-31.885,64.258-65.116,76.227C289.203,319.294,283.227,314,276,314
	h-40c-7.228,0-13.203,5.294-14.302,12.212c-33.23-11.969-58.381-40.834-65.116-76.227c-0.655-0.662-1.247-1.384-1.801-2.137v9.933
	C154.781,313.683,200.1,359,256,359c55.902,0,101.219-45.317,101.219-101.22v-9.933
	C356.665,248.601,356.072,249.323,355.418,249.985z"/>
<path style="fill:#98E8F9;" d="M169.822,255.55c-10.363,0-18.792-8.575-18.792-19.113v-35.04c0-2.931,2.338-5.309,5.219-5.309
	h84.562c2.881,0,5.219,2.377,5.219,5.309v35.04c0,10.539-8.429,19.113-18.791,19.113L169.822,255.55L169.822,255.55z"/>
<g style="opacity:0.15;">
	<path style="fill:#3D0072;" d="M174,236.437v-35.04c0-2.931,2.338-5.309,5.219-5.309h-22.971c-2.881,0-5.219,2.377-5.219,5.309
		v35.04c0,10.539,8.429,19.113,18.792,19.113h22.971C182.429,255.55,174,246.975,174,236.437z"/>
</g>
<path style="fill:#98E8F9;" d="M284.764,255.55c-10.362,0-18.793-8.575-18.793-19.114v-35.04c0-2.931,2.338-5.309,5.219-5.309
	h84.563c2.883,0,5.219,2.378,5.219,5.309v35.04c0,10.539-8.429,19.114-18.79,19.114H284.764z"/>
<g style="opacity:0.15;">
	<path style="fill:#3D0072;" d="M288.941,236.437v-35.04c0-2.931,2.338-5.309,5.219-5.309h-22.971c-2.881,0-5.219,2.377-5.219,5.309
		v35.04c0,10.539,8.43,19.113,18.793,19.113h22.971C297.371,255.55,288.941,246.975,288.941,236.437z"/>
</g>
<path d="M290.991,182.303c4.372-4.372,10.179-6.78,16.352-6.78s11.981,2.408,16.354,6.781c1.464,1.464,3.384,2.196,5.303,2.196
	s3.839-0.732,5.304-2.197c2.929-2.929,2.929-7.678-0.001-10.607c-7.206-7.205-16.78-11.173-26.96-11.173
	s-19.754,3.968-26.959,11.174c-2.929,2.929-2.929,7.678,0.001,10.607C283.312,185.232,288.061,185.232,290.991,182.303z"/>
<path d="M173.697,182.304c2.93,2.929,7.677,2.928,10.607-0.001c4.372-4.372,10.179-6.78,16.352-6.78s11.981,2.408,16.354,6.781
	c1.465,1.464,3.384,2.196,5.303,2.196c1.919,0,3.839-0.732,5.304-2.197c2.929-2.929,2.928-7.678-0.001-10.607
	c-7.206-7.205-16.781-11.173-26.96-11.173c-10.179,0-19.753,3.968-26.959,11.174C170.768,174.626,170.768,179.375,173.697,182.304z"
	/>
<path d="M403,114.5h-41.056l-20.77-98.579C339.23,6.696,330.977,0,321.549,0h-45.014c-5.65,0-11.066,2.401-14.862,6.588L256,12.847
	l-5.673-6.257C246.535,2.402,241.118,0,235.464,0h-45.012c-9.429,0-17.684,6.696-19.628,15.922L150.056,114.5H109
	c-6.893,0-12.5,5.607-12.5,12.5v17c0,6.893,5.607,12.5,12.5,12.5h38.281v22.002h-4.365c-17.174,0-31.146,13.972-31.146,31.146
	v25.701c0,17.173,13.972,31.145,31.146,31.145h4.727c2.347,29.456,16.486,55.639,37.679,73.819l-3.63,7.437H153
	c-21.78,0-39.5,17.72-39.5,39.5V499.5c0,6.893,5.607,12.5,12.5,12.5h260c6.893,0,12.5-5.607,12.5-12.5V489
	c0-4.142-3.357-7.5-7.5-7.5s-7.5,3.358-7.5,7.5v8h-29v-24.506c2.032-1.916,3.31-4.624,3.31-7.631V430
	c0-3.007-1.277-5.715-3.31-7.631v-59.62h4.5c13.51,0,24.5,10.991,24.5,24.5V448c0,4.142,3.357,7.5,7.5,7.5s7.5-3.358,7.5-7.5v-60.75
	c0-21.78-17.72-39.5-39.5-39.5h-28.692l-3.631-7.436c21.193-18.181,35.333-44.364,37.681-73.82h4.728
	c17.173,0,31.145-13.972,31.145-31.145v-25.701c0-17.174-13.972-31.146-31.145-31.146h-4.366V156.5H403
	c6.893,0,12.5-5.607,12.5-12.5v-17C415.5,120.107,409.893,114.5,403,114.5z M185.502,19.015c0.49-2.327,2.572-4.015,4.95-4.015
	h45.012c1.426,0,2.791,0.604,3.748,1.662l11.232,12.39c1.422,1.568,3.44,2.462,5.557,2.462c2.117,0,4.135-0.895,5.557-2.463
	l11.229-12.389c0.957-1.056,2.323-1.662,3.748-1.662h45.014c2.377,0,4.458,1.688,4.948,4.015L338.398,75.5H173.602L185.502,19.015z
	 M170.441,90.5h171.117l5.057,24h-181.23L170.441,90.5z M142.916,251.494c-8.903,0-16.146-7.243-16.146-16.145v-25.701
	c0-8.903,7.243-16.146,16.146-16.146h3.337c-1.7,2.178-2.724,4.916-2.724,7.895v13.056h-1.539c-4.142,0-7.5,3.358-7.5,7.5
	s3.358,7.5,7.5,7.5h1.539v6.984c0,5.585,1.712,10.772,4.628,15.057H142.916z M243.924,365.826l-18.663,24.256l-31.274-33.126
	c-0.011-0.048-0.02-0.103-0.023-0.152l3.605-7.384C211.247,358.175,227.005,363.947,243.924,365.826z M342.81,434.5v25.863h-21
	V434.5H342.81z M310.119,422.369c-2.032,1.916-3.31,4.624-3.31,7.631v34.863c0,3.007,1.277,5.715,3.31,7.631V497H263.5v-54
	c0-4.142-3.357-7.5-7.5-7.5c-4.142,0-7.5,3.358-7.5,7.5v54h-46.62v-24.506c2.033-1.916,3.31-4.624,3.31-7.631V430
	c0-3.007-1.277-5.715-3.31-7.631v-35.201l15.078,15.971c2.29,2.424,5.334,3.759,8.573,3.759c3.634,0,7.026-1.7,9.306-4.663
	l13.663-17.759V404c0,4.142,3.358,7.5,7.5,7.5c4.143,0,7.5-3.358,7.5-7.5v-19.524l13.664,17.759
	c2.279,2.963,5.671,4.663,9.306,4.663c3.24,0,6.284-1.335,8.574-3.76l15.075-15.969L310.119,422.369L310.119,422.369z M172.5,497
	v-21.637h14.38V497H172.5z M169.19,460.363V434.5h21.001v25.863H169.19z M180.142,362.75c0.656,1.585,1.57,3.055,2.743,4.297
	l3.996,4.232V419.5H172.5v-56.75H180.142z M128.5,387.25c0-13.509,10.991-24.5,24.5-24.5h4.5v59.619
	c-2.032,1.916-3.31,4.625-3.31,7.631v34.863c0,3.007,1.278,5.715,3.31,7.631V497h-29V387.25z M325.119,497v-21.637H339.5V497
	H325.119z M339.5,419.5h-14.381v-48.221l3.996-4.233c1.173-1.242,2.086-2.712,2.742-4.297h7.643V419.5z M318.035,356.803
	c-0.004,0.049-0.012,0.104-0.023,0.153l-31.272,33.126l-18.664-24.256c16.918-1.879,32.677-7.651,46.355-16.406L318.035,356.803z
	 M256,351.5c-36.168,0-67.616-20.594-83.234-50.671c12.086,14.426,27.939,25.794,46.391,32.44c2.102,0.758,4.433,0.537,6.357-0.599
	c1.924-1.137,3.241-3.073,3.592-5.28c0.542-3.413,3.442-5.889,6.895-5.889h40c3.453,0,6.352,2.477,6.894,5.888
	c0.351,2.207,1.667,4.143,3.591,5.28c1.926,1.138,4.258,1.358,6.357,0.6c18.452-6.646,34.305-18.013,46.392-32.439
	C323.615,330.908,292.168,351.5,256,351.5z M294.43,316.459c-3.939-6.069-10.749-9.959-18.43-9.959h-40
	c-7.68,0-14.49,3.89-18.43,9.959c-23.318-10.494-41.048-30.033-49.61-53.483c0.616,0.044,1.235,0.074,1.861,0.074h38.863
	l-17.345,6.228c-3.113,1.116-5.487,3.688-6.349,6.866c-0.871,3.191-0.126,6.612,1.987,9.143c1.653,1.985,17.018,19.394,47.15,19.394
	c8.402,0,15.833-2.423,21.872-7.077c6.039,4.654,13.47,7.077,21.872,7.077c30.132,0,45.497-17.408,47.145-19.388
	c2.113-2.533,2.859-5.946,1.996-9.138c-0.866-3.189-3.24-5.759-6.35-6.874l-17.347-6.229h38.864c0.626,0,1.244-0.03,1.858-0.074
	C335.478,286.426,317.748,305.966,294.43,316.459z M272.185,259.801v0.096c0,0.869-0.734,1.603-1.603,1.603h-18.708
	c-0.869,0-1.602-0.734-1.602-1.603v-10.645c2.074-3.804,3.257-8.171,3.257-12.815V230.5h4.941v5.937
	C258.471,246.502,264.02,255.28,272.185,259.801z M251.874,276.5h18.708c4.645,0,8.845-1.923,11.861-5.007l25.423,9.129
	c-5.649,4.033-15.581,9.058-29.994,9.058c-6.765,0-12.161-2.433-16.039-7.23c-1.425-1.762-3.568-2.785-5.833-2.785
	c-2.265,0-4.409,1.023-5.833,2.785c-3.878,4.797-9.274,7.23-16.039,7.23c-14.412,0-24.345-5.025-29.995-9.058l33.603-12.066
	C240.659,273.312,245.894,276.5,251.874,276.5z M353.471,236.437c0,6.404-5.064,11.614-11.29,11.614h-57.417
	c-6.227,0-11.293-5.21-11.293-11.614v-32.849h80V236.437z M369.085,193.502c8.902,0,16.145,7.243,16.145,16.146v25.701
	c0,8.902-7.242,16.145-16.145,16.145h-5.242c2.916-4.285,4.628-9.472,4.628-15.057v-6.984h1.539c4.143,0,7.5-3.358,7.5-7.5
	s-3.357-7.5-7.5-7.5h-1.539v-13.056c0-2.979-1.023-5.716-2.724-7.895H369.085z M349.719,188.587H271.19
	c-7.013,0-12.719,5.746-12.719,12.809V215.5h-4.941v-14.103c0-7.063-5.706-12.809-12.719-12.809H228c-4.142,0-7.5,3.358-7.5,7.5
	s3.358,7.5,7.5,7.5h10.529v32.849c0,6.404-5.065,11.613-11.291,11.613h-57.417c-6.227,0-11.292-5.21-11.292-11.613v-32.849H189
	c4.142,0,7.5-3.358,7.5-7.5s-3.358-7.5-7.5-7.5h-26.719V156.5h187.438V188.587z M400.5,141.5h-289v-12h289V141.5z"/>
<path d="M200.096,210.5c-11.96,0-21.69,9.263-21.69,20.649c0,4.142,3.358,7.5,7.5,7.5s7.5-3.358,7.5-7.5
	c0-3.115,3.001-5.649,6.69-5.649c3.688,0,6.689,2.534,6.689,5.649c0,4.142,3.358,7.5,7.5,7.5s7.5-3.358,7.5-7.5
	C221.784,219.763,212.055,210.5,200.096,210.5z"/>
<path d="M297.716,238.649c4.143,0,7.5-3.358,7.5-7.5c0-3.115,3.001-5.649,6.691-5.649c3.688,0,6.688,2.534,6.688,5.649
	c0,4.142,3.357,7.5,7.5,7.5s7.5-3.358,7.5-7.5c0-11.386-9.729-20.649-21.688-20.649c-11.96,0-21.691,9.263-21.691,20.649
	C290.216,235.291,293.573,238.649,297.716,238.649z"/>
<g>
</g>
<g>
</g>
<g>
</g>
<g>
</g>
<g>
</g>
<g>
</g>
<g>
</g>
<g>
</g>
<g>
</g>
<g>
</g>
<g>
</g>
<g>
</g>
<g>
</g>
<g>
</g>
<g>
</g>
</svg>
