<svg id="Capa_1" enable-background="new 0 0 512 512" height="512" viewBox="0 0 512 512" width="512" xmlns="http://www.w3.org/2000/svg"><g><ellipse cx="422.507" cy="409.575" fill="#766d78" rx="60.053" ry="59.694"/><ellipse cx="422.507" cy="409.575" fill="#fff" rx="20.242" ry="20.121"/><path d="m504.5 403.641c-1.047-44.135-37.341-79.6-81.993-79.6s-80.946 35.464-81.993 79.6z" fill="#ecb822"/><path d="m422.507 324.041c-5.126 0-10.135.488-15 1.382 37.513 6.896 66.067 39.149 66.993 78.217h30c-1.047-44.135-37.341-79.599-81.993-79.599z" fill="#dba812"/><ellipse cx="120.945" cy="409.575" fill="#766d78" rx="60.053" ry="59.694"/><ellipse cx="120.945" cy="409.575" fill="#fff" rx="20.241" ry="20.121"/><path d="m446.28 219.39-89.572-132.597v132.597l58.903 39.779z" fill="#fbfbfb"/><path d="m443.535 215.327-86.827-128.534v44.41l56.827 84.124z" fill="#e7e7e7"/><path d="m469.149 261.394-22.87-42.005h-89.571v118.723c0 11.91-9.655 21.565-21.565 21.565h-126.852v-96.067h-174.158v125.197c0 8.193 6.641 14.834 14.834 14.834h159.324 148.585 19.04l86.45-90.807c13.189-13.855 15.93-34.639 6.783-51.44z" fill="#f7d958"/><path d="m469.149 261.394-22.869-42.004h-30l22.869 42.004c9.147 16.801 6.406 37.585-6.784 51.44l-86.45 90.807h10.961 19.039l86.45-90.807c13.19-13.855 15.931-34.639 6.784-51.44z" fill="#f3c625"/><path d="m271.285 42.731h-235.793c-15.46 0-27.992 12.532-27.992 27.991 0 4.101 3.324 7.425 7.425 7.425h249.465c32.413 0 64.771 2.668 96.747 7.977l125.094 20.771c5.071.842 9.858-2.605 10.668-7.681 2.349-14.732-7.65-28.592-22.37-31.011l-107.494-17.66c-31.652-5.199-63.675-7.812-95.75-7.812z" fill="#dba812"/><path d="m474.527 68.203-19.339-3.177c8.525 6.92 13.43 19.434 11.71 32.522-.293 2.233-1.115 4.2-2.277 5.76l21.61 3.588c5.071.842 9.858-2.605 10.668-7.681 2.348-14.734-7.651-28.594-22.372-31.012z" fill="#ca9d1d"/><path d="m67.306 263.611h-33.173v-120.055h16.144c10.137 0 19.103 8.124 22.153 20.072 6.639 26.005 6.639 53.906 0 79.91z" fill="#c8c3ca"/><path d="m251.609 263.61c-5.171 0-8.956-4.873-7.677-9.883l2.602-10.19c6.639-26.005 6.639-53.906 0-79.91-3.051-11.949-12.017-20.072-22.153-20.072h-16.144v120.055 96.067h96.068v-74.526c0-11.897-9.644-21.541-21.541-21.541z" fill="#c8c3ca"/><path d="m282.763 263.611h-30c11.897 0 21.541 9.644 21.541 21.541v74.526h30v-74.526c0-11.897-9.644-21.541-21.541-21.541z" fill="#b1abb4"/><path d="" style="fill:none;stroke:#000;stroke-width:15;stroke-linecap:round;stroke-linejoin:round;stroke-miterlimit:10"/><path d="m460.983 325.164 6.815-7.158c15.491-16.273 18.682-40.464 7.938-60.198l-22.843-41.954c-.002-.003-81.275-120.386-81.275-120.386l113.382 18.826c.931.155 1.861.231 2.785.231 3.484 0 6.872-1.086 9.757-3.164 3.651-2.629 6.053-6.523 6.761-10.966 2.991-18.753-9.821-36.515-28.561-39.593l-107.492-17.659c-31.955-5.25-64.579-7.912-96.965-7.912h-235.794c-19.57 0-35.491 15.921-35.491 35.491 0 8.229 6.695 14.924 14.925 14.924h11.708v303.161c0 12.315 10.019 22.334 22.334 22.334h4.466c.842 36.329 30.792 65.629 67.513 65.629s66.671-29.3 67.513-65.629h99.547c4.143 0 7.5-3.358 7.5-7.5s-3.357-7.5-7.5-7.5h-239.039c-4.044 0-7.334-3.29-7.334-7.334v-32.916l39.99-41.987h37.928c4.143 0 7.5-3.358 7.5-7.5s-3.357-7.5-7.5-7.5h-41.142c-2.053 0-4.016.841-5.431 2.327l-31.346 32.91v-63.031h25.673 47.222c4.143 0 7.5-3.358 7.5-7.5s-3.357-7.5-7.5-7.5h-37.566l2.736-10.717c6.984-27.353 6.984-56.268 0-83.621-3.926-15.382-15.749-25.717-29.419-25.717h-8.645v-50.408h159.104v170.464h-56.209c-4.143 0-7.5 3.358-7.5 7.5s3.357 7.5 7.5 7.5h56.264v88.567c0 4.142 3.357 7.5 7.5 7.5h126.852c16.026 0 29.065-13.038 29.065-29.065v-111.223h77.615l20.739 38.09c7.617 13.992 5.354 31.145-5.629 42.683l-84.234 88.478h-54.695c-4.143 0-7.5 3.358-7.5 7.5s3.357 7.5 7.5 7.5h36.989c.842 36.329 30.792 65.629 67.513 65.629s66.671-29.3 67.513-65.629h14.48c2.02 0 3.954-.815 5.366-2.26 1.411-1.445 2.18-3.399 2.132-5.418-.805-33.945-20.589-63.941-51.015-78.299zm-340.038 136.606c-28.449 0-51.674-22.572-52.513-50.629h24.819c.818 14.504 12.925 26.055 27.694 26.055s26.876-11.551 27.694-26.055h24.819c-.838 28.057-24.064 50.629-52.513 50.629zm12.633-50.629c-.782 6.221-6.143 11.055-12.633 11.055-6.489 0-11.85-4.834-12.632-11.055zm-83.301-260.085c6.596 0 12.717 5.933 14.886 14.428 6.363 24.925 6.363 51.274 0 76.2l-3.684 14.427h-19.846v-105.055zm381.885 60.834h-67.954v-100.596zm-396.671-161.659h235.794c31.573 0 63.379 2.595 94.533 7.714l107.493 17.659c10.615 1.744 17.874 11.806 16.18 22.429-.096.6-.44.959-.712 1.155s-.72.41-1.32.309l-125.094-20.772c-32.287-5.36-65.25-8.079-97.975-8.079h-249.39c.042-11.264 9.218-20.415 20.491-20.415zm203.938 214.917c2.943 3.789 7.383 5.962 12.181 5.962h31.153c7.742 0 14.041 6.299 14.041 14.041v67.026h-81.013v-88.567c0-.296-.021-.586-.055-.872v-111.682h8.645c6.596 0 12.718 5.933 14.887 14.427 6.363 24.925 6.363 51.275 0 76.2l-2.602 10.189c-1.187 4.649-.18 9.487 2.763 13.276zm109.779 72.964c0 7.756-6.31 14.065-14.065 14.065h-23.339v-67.026c0-16.013-13.027-29.041-29.041-29.041h-31.153c-.067 0-.207 0-.334-.164-.127-.163-.093-.299-.076-.364l2.602-10.19c6.983-27.353 6.983-56.268 0-83.621-3.928-15.382-15.75-25.717-29.42-25.717h-8.645v-50.407h48.653c28.298 0 56.778 2.089 84.818 6.208v126.334c0 .203.015.402.03.601-.016.199-.03.398-.03.601zm73.299 123.658c-28.449 0-51.674-22.572-52.513-50.629h5.921 18.898c.818 14.504 12.925 26.055 27.694 26.055s26.875-11.551 27.694-26.055h24.819c-.839 28.057-24.064 50.629-52.513 50.629zm-12.633-50.629h25.265c-.782 6.221-6.143 11.055-12.633 11.055-6.488 0-11.85-4.834-12.632-11.055zm-16.464-15 56.554-59.403c25.485 10.032 43.066 32.765 46.461 59.403z"/></g></svg>