<svg id="Capa_1" enable-background="new 0 0 512 512" height="512" viewBox="0 0 512 512" width="512" xmlns="http://www.w3.org/2000/svg"><g><path d="m466.704 350.118h-138.08v-179.882h79.419c3.32 0 6.495 1.352 8.785 3.742l59.952 62.562c2.148 2.242 3.348 5.227 3.348 8.332v91.822c.001 7.414-6.009 13.424-13.424 13.424z" fill="#fbfbfb"/><path d="m476.781 236.54-59.952-62.562c-2.29-2.39-5.465-3.742-8.785-3.742h-30c3.32 0 6.495 1.352 8.785 3.742l59.952 62.562c2.148 2.242 3.348 5.227 3.348 8.332v91.822c0 7.414-6.01 13.424-13.424 13.424h30c7.414 0 13.424-6.01 13.424-13.424v-91.822c0-3.105-1.2-6.09-3.348-8.332z" fill="#e7e7e7"/><path d="m295.041 239.158h33.584v109.967h-33.584z" fill="#b1abb4"/><path d="m295.041 239.158v-93.553c0-3.707 3.005-6.711 6.712-6.711h105.466c2.44 0 4.687-1.324 5.87-3.458l24.885-44.89c2.48-4.473-.755-9.965-5.87-9.965h-406.912c-3.707 0-6.712 3.005-6.712 6.711v261.834" fill="#f7d958"/><path d="m18.481 349.125h276.56v-109.967" fill="#f7d958"/><path d="m479.81 238.538-38.014-39.669h-60.323c-6.065 0-10.981 4.916-10.981 10.981v31.689c0 6.065 4.916 10.981 10.981 10.981h98.656v-13.188c0-.296-.114-.581-.319-.794z" fill="#9ec8fc"/><path d="m489.826 380.75h-467.652c-8.104 0-14.674-6.57-14.674-14.674v-2.276c0-8.105 6.57-14.674 14.674-14.674h467.651c8.104 0 14.674 6.57 14.674 14.674v2.276c.001 8.104-6.569 14.674-14.673 14.674z" fill="#c8c3ca"/><ellipse cx="402.338" cy="380.75" fill="#8c818f" rx="50.975" ry="50.671"/><ellipse cx="402.338" cy="380.75" fill="#c8c3ca" rx="17.884" ry="17.778"/><ellipse cx="152.901" cy="380.75" fill="#8c818f" rx="50.975" ry="50.671"/><ellipse cx="152.901" cy="380.75" fill="#c8c3ca" rx="17.884" ry="17.778"/><path d="m147.9 147.324c-17.297 0-32.823 7.553-43.483 19.532.127-.001.253-.01.381-.01 21.361 0 38.678 17.317 38.678 38.678s-17.317 38.678-38.678 38.678c-.128 0-.254-.008-.381-.01 10.66 11.979 26.186 19.532 43.483 19.532 61.224 0 90.527-58.201 90.527-58.201s-34.594-58.199-90.527-58.199z" fill="#dba812"/><path d="m432.104 80.58h-30c5.115 0 8.35 5.492 5.87 9.966l-24.885 44.89c-1.183 2.134-3.43 3.458-5.87 3.458h30c2.44 0 4.687-1.324 5.87-3.458l24.885-44.89c2.48-4.474-.755-9.966-5.87-9.966z" fill="#f3c625"/><path d="m479.81 238.538-38.014-39.669h-30l38.014 39.669c.205.214.319.498.319.794v13.188h30v-13.188c0-.296-.114-.581-.319-.794z" fill="#80b6fc"/><path d="m402.338 330.079c-5.221 0-10.257.784-15 2.233 20.831 6.367 35.975 25.642 35.975 48.437s-15.144 42.07-35.975 48.437c4.743 1.45 9.779 2.233 15 2.233 28.153 0 50.975-22.686 50.975-50.671 0-27.983-22.822-50.669-50.975-50.669z" fill="#766d78"/><path d="m152.901 330.079c-5.221 0-10.257.784-15 2.233 20.831 6.367 35.975 25.642 35.975 48.437s-15.144 42.07-35.975 48.437c4.743 1.45 9.779 2.233 15 2.233 28.153 0 50.975-22.686 50.975-50.671 0-27.983-22.823-50.669-50.975-50.669z" fill="#766d78"/><path d="m147.9 147.324c-4.747 0-9.352.587-13.768 1.66 27.644 5.659 48.756 24.705 61.286 39.142 8.822 10.164 9.162 25.211.651 35.637-11.794 14.448-32.121 33.065-61.371 38.442 4.243.986 8.66 1.52 13.203 1.52 61.224 0 90.527-58.201 90.527-58.201s-34.595-58.2-90.528-58.2z" fill="#ca9d1d"/><path d="m489.825 341.625h-2.803c.385-1.599.607-3.247.607-4.931v-91.822c0-5.063-1.93-9.865-5.433-13.522l-59.952-62.561c-3.686-3.848-8.861-6.054-14.201-6.054h-79.418c-4.143 0-7.5 3.358-7.5 7.5v61.422h-18.584v-85.265h104.678c5.164 0 9.927-2.805 12.43-7.321l24.886-44.891c2.466-4.448 2.396-9.72-.185-14.103-2.582-4.382-7.159-6.999-12.245-6.999h-260.683c-4.143 0-7.5 3.358-7.5 7.5s3.357 7.5 7.5 7.5h259.344l-24.011 43.313h-105.002c-7.837 0-14.212 6.375-14.212 14.211v196.021h-90.751c-.211 0-.418.014-.625.031-10.704-11.713-26.136-19.077-43.265-19.077-17.113 0-32.532 7.352-43.235 19.046h-83.685v-253.543h115.441c4.143 0 7.5-3.358 7.5-7.5s-3.357-7.5-7.5-7.5h-116.229c-7.837 0-14.212 6.375-14.212 14.211v257.379c-6.562 3.855-10.98 10.984-10.98 19.129v2.276c0 12.227 9.947 22.175 22.175 22.175h72.753c3.712 28.543 28.285 50.67 57.972 50.67s54.26-22.127 57.972-50.67h68.867c4.143 0 7.5-3.358 7.5-7.5s-3.357-7.5-7.5-7.5h-68.867c-.762-5.858-2.4-11.444-4.785-16.625h143.063c-2.384 5.181-4.023 10.767-4.785 16.625h-34.626c-4.143 0-7.5 3.358-7.5 7.5s3.357 7.5 7.5 7.5h34.626c3.712 28.543 28.285 50.67 57.972 50.67s54.26-22.127 57.972-50.67h29.515c12.228 0 22.175-9.948 22.175-22.175v-2.276c.001-12.227-9.946-22.174-22.174-22.174zm-474.825 24.45v-2.276c0-3.956 3.219-7.174 7.175-7.174h77.538c-2.384 5.181-4.023 10.767-4.785 16.625h-72.753c-3.956 0-7.175-3.219-7.175-7.175zm137.9 57.845c-23.972 0-43.475-19.366-43.475-43.17 0-23.805 19.503-43.171 43.475-43.171s43.475 19.366 43.475 43.171c0 23.804-19.503 43.17-43.475 43.17zm319.729-179.048v.148h-91.156c-1.92 0-3.481-1.561-3.481-3.481v-31.689c0-1.919 1.561-3.481 3.481-3.481h55.841c.054 0 .106-.007.159-.008l33.893 35.368c.815.85 1.263 1.966 1.263 3.143zm-170.088 1.786h18.584v94.967h-18.584zm33.584 94.967v-163.889h71.918c1.271 0 2.498.521 3.37 1.431l11.693 12.202h-41.634c-10.19 0-18.481 8.29-18.481 18.481v31.689c0 10.19 8.291 18.481 18.481 18.481h91.156v76.674c0 1.566-.605 3.043-1.705 4.158-.241.245-.454.505-.655.773h-24.697c-10.703-11.694-26.122-19.046-43.235-19.046s-32.531 7.352-43.235 19.046zm66.213 82.295c-23.972 0-43.475-19.366-43.475-43.17 0-23.805 19.503-43.171 43.475-43.171s43.475 19.366 43.475 43.171c0 23.804-19.503 43.17-43.475 43.17zm94.662-57.845c0 3.956-3.219 7.175-7.175 7.175h-29.515c-.762-5.858-2.4-11.444-4.785-16.625h34.3c3.956 0 7.175 3.219 7.175 7.174z"/><path d="m402.338 355.472c-13.997 0-25.385 11.339-25.385 25.278 0 13.938 11.388 25.277 25.385 25.277s25.385-11.339 25.385-25.277-11.388-25.278-25.385-25.278zm0 35.555c-5.727 0-10.385-4.61-10.385-10.277s4.658-10.278 10.385-10.278 10.385 4.611 10.385 10.278-4.658 10.277-10.385 10.277z"/><path d="m371.073 292.731h9.676c4.143 0 7.5-3.358 7.5-7.5s-3.357-7.5-7.5-7.5h-9.676c-4.143 0-7.5 3.358-7.5 7.5s3.358 7.5 7.5 7.5z"/><path d="m152.9 355.472c-13.997 0-25.384 11.339-25.384 25.278 0 13.938 11.387 25.277 25.384 25.277s25.385-11.339 25.385-25.277-11.387-25.278-25.385-25.278zm0 35.555c-5.726 0-10.384-4.61-10.384-10.277s4.658-10.278 10.384-10.278c5.727 0 10.385 4.611 10.385 10.278s-4.658 10.277-10.385 10.277z"/><path d="m104.863 236.703c-.125-.005-.249-.008-.375-.01-2.967-.054-5.672 1.696-6.899 4.397-1.228 2.701-.747 5.872 1.226 8.089 12.468 14.011 30.359 22.046 49.086 22.046 27.023 0 52.422-10.796 73.448-31.221 15.703-15.254 23.455-30.467 23.777-31.107 1.151-2.287 1.057-5.004-.252-7.205-.376-.632-9.386-15.65-25.627-30.759-21.876-20.352-46.548-31.109-71.347-31.109-18.727 0-36.618 8.035-49.086 22.046-1.973 2.217-2.453 5.388-1.226 8.089 1.218 2.679 3.889 4.397 6.828 4.397h.072c.115-.001.229-.004.374-.01 17.161.036 31.113 14.009 31.113 31.178.002 17.17-13.951 31.143-31.112 31.179zm16.422-74.315c7.928-4.892 17.134-7.564 26.615-7.564 43.188 0 73.385 38.869 81.741 50.979-7.39 12.151-34.43 50.422-81.741 50.422-9.482 0-18.688-2.671-26.615-7.564 17.345-6.652 29.691-23.48 29.691-43.137s-12.346-36.484-29.691-43.136z"/><path d="m75.069 276.992h-18.098c-4.143 0-7.5 3.358-7.5 7.5s3.357 7.5 7.5 7.5h18.099c4.143 0 7.5-3.358 7.5-7.5s-3.358-7.5-7.501-7.5z"/><path d="m75.069 302.329h-18.098c-4.143 0-7.5 3.358-7.5 7.5s3.357 7.5 7.5 7.5h18.099c4.143 0 7.5-3.358 7.5-7.5s-3.358-7.5-7.501-7.5z"/></g></svg>