<svg id="Capa_1" enable-background="new 0 0 512.786 512.786" height="512" viewBox="0 0 512.786 512.786" width="512" xmlns="http://www.w3.org/2000/svg"><g><path d="m474.72 316.324h-129.658v-138.035c0-11.369 9.815-20.586 21.922-20.586h52.653c3.119 0 6.102 1.196 8.26 3.31l56.285 55.158c2.017 1.977 3.144 4.609 3.144 7.348v80.969c0 6.536-5.644 11.836-12.606 11.836z" fill="#67b59f"/><path d="m484.182 216.17-56.285-55.157c-2.158-2.115-5.141-3.311-8.26-3.311h-30c3.119 0 6.102 1.196 8.26 3.311l56.285 55.157c2.018 1.977 3.144 4.609 3.144 7.348v80.969c0 6.538-5.644 11.837-12.606 11.837h30c6.962 0 12.605-5.3 12.605-11.837v-80.969c.001-2.739-1.126-5.371-3.143-7.348z" fill="#56988c"/><path d="m345.062 315.361h-277.803v-110.918c0-2.37 1.245-4.566 3.279-5.783l132.36-75.204c6.411-3.836 13.742-5.862 21.213-5.862h112.755c4.526 0 8.195 3.669 8.195 8.195v189.572z" fill="#67b59f"/><path d="m336.866 117.594h-112.755c-7.471 0-14.802 2.026-21.213 5.862l-31.178 17.714v174.19h173.342v-189.57c0-4.527-3.669-8.196-8.196-8.196z" fill="#4e8a80"/><path d="m336.867 117.594h-122.31c-1.219 0-2.415.33-3.46.956l-140.559 80.11c-2.034 1.217-3.279 3.413-3.279 5.783v30c0-2.37 149.298-85.437 149.298-85.437l128.505-.216v-23c0-4.527-3.669-8.196-8.195-8.196z" fill="#a29aa5"/><path d="m336.866 117.594h-30c4.526 0 8.195 3.669 8.195 8.195v189.571h30v-189.57c.001-4.527-3.668-8.196-8.195-8.196z" fill="#477d73"/><path d="m336.867 117.594h-30c4.526 0 8.195 3.669 8.195 8.195v23h30v-23c0-4.526-3.669-8.195-8.195-8.195z" fill="#8c818f"/><path d="m456.623 268.265v1.366c0 7.108 6.136 12.869 13.704 12.869h16.999v-27.105h-16.999c-7.569.001-13.704 5.763-13.704 12.87z" fill="#f8e076"/><path d="m487.026 217.932-35.696-34.98h-56.644c-5.695 0-10.311 4.335-10.311 9.683v27.944c0 5.348 4.616 9.683 10.311 9.683h92.639v-11.63c.001-.261-.107-.512-.299-.7z" fill="#fbfbfb"/><path d="m487.026 217.932-35.695-34.98h-30l35.695 34.98c.192.188.3.439.3.7v11.63h30v-11.63c0-.261-.108-.512-.3-.7z" fill="#e7e7e7"/><path d="m491.886 346.039h-456.6v-18.273c0-6.851 5.554-12.404 12.404-12.404h444.195c7.401 0 13.4 5.999 13.4 13.4v3.878c.001 7.399-5.998 13.399-13.399 13.399z" fill="#c8c3ca"/><ellipse cx="402.374" cy="346.039" fill="#8c818f" rx="52.656" ry="49.153"/><ellipse cx="402.374" cy="346.039" fill="#c8c3ca" rx="18.474" ry="17.245"/><ellipse cx="166.272" cy="346.039" fill="#8c818f" rx="52.656" ry="49.153"/><path d="m402.374 296.885c-5.213 0-10.245.718-15 2.035 21.771 6.031 37.656 24.838 37.656 47.118s-15.885 41.087-37.656 47.118c4.755 1.317 9.787 2.035 15 2.035 29.081 0 52.656-22.007 52.656-49.153s-23.575-49.153-52.656-49.153z" fill="#766d78"/><path d="m166.272 296.885c-5.213 0-10.245.718-15 2.035 21.771 6.031 37.656 24.838 37.656 47.118s-15.885 41.087-37.656 47.118c4.755 1.317 9.787 2.035 15 2.035 29.081 0 52.656-22.007 52.656-49.153.001-27.146-23.574-49.153-52.656-49.153z" fill="#766d78"/><ellipse cx="166.272" cy="346.039" fill="#c8c3ca" rx="18.474" ry="17.245"/><path d="m494.479 308.039c.223-1.161.346-84.521.346-84.521 0-4.784-1.916-9.296-5.395-12.705l-56.284-55.156c-3.536-3.466-8.46-5.455-13.51-5.455h-52.653c-5.238 0-10.157 1.319-14.422 3.62v-28.032c0-8.654-7.041-15.695-15.695-15.695h-48.476c-4.143 0-7.5 3.358-7.5 7.5s3.357 7.5 7.5 7.5h48.476c.384 0 .695.312.695.695v15.513l-112.079.189c-7.123.012-14.174 1.851-20.391 5.318-7.984 4.452-21.42 11.955-36.926 20.652-.02.01-.039.021-.058.032-32.311 18.124-73.595 41.43-93.348 53.189v-15.795l131.844-74.91c.049-.028.098-.057.146-.086 5.244-3.139 11.248-4.798 17.361-4.798h34.279c4.143 0 7.5-3.358 7.5-7.5s-3.357-7.5-7.5-7.5h-34.279c-8.796 0-17.434 2.379-24.987 6.881l-132.29 75.164c-.049.028-.098.057-.146.085-4.272 2.557-6.927 7.239-6.927 12.218v49.258c0 4.142 3.357 7.5 7.5 7.5 4.142 0 7.5-3.358 7.5-7.5v-15.509c.191-.098.384-.188.569-.304 12.774-8.033 53.766-31.269 88.891-51.009v102.556c-16.742.532-31.774 7.525-42.35 18.426h-47.11v-24.16c0-4.142-3.358-7.5-7.5-7.5-4.143 0-7.5 3.358-7.5 7.5v24.16h-12.07c-10.976 0-19.904 8.929-19.904 19.905v43.509h-20.286c-4.143 0-7.5 3.358-7.5 7.5s3.357 7.5 7.5 7.5h27.786c4.143 0 7.5-3.358 7.5-7.5v-25.235h63.873c3.911 27.704 29.144 49.153 59.613 49.153s55.702-21.449 59.613-49.153h116.876c3.91 27.704 29.144 49.153 59.613 49.153s55.702-21.449 59.613-49.153h29.899c11.524 0 20.9-9.376 20.9-20.9v-3.877c0-10.646-8.004-19.44-18.307-20.723zm-14.654-33.039h-9.498c-3.421 0-6.204-2.409-6.204-5.369v-1.366c0-2.961 2.783-5.37 6.204-5.37h9.498zm-.132-52.238h-85.007c-1.524 0-2.811-.999-2.811-2.183v-27.944c0-1.184 1.287-2.183 2.811-2.183h52.436c.032 0 .063-.004.095-.005l31.716 31.081c.37.362.62.787.76 1.234zm-112.71-57.56h52.653c1.156 0 2.253.425 3.011 1.167l9.268 9.082h-37.229c-9.821 0-17.811 7.708-17.811 17.183v27.944c0 9.475 7.99 17.183 17.811 17.183h85.139v10.134h-9.498c-11.692 0-21.204 9.138-21.204 20.37v1.366c0 11.231 9.512 20.369 21.204 20.369h9.498v14.486c0 1.326-.679 2.27-1.249 2.829-.178.175-.345.357-.502.545h-29.774c-.475 0-.939.049-1.39.134-11.013-11.424-26.9-18.609-44.536-18.609-17.566 0-33.395 7.13-44.403 18.475h-5.409v-129.571c-.001-7.216 6.469-13.087 14.421-13.087zm-24.222 173.337h-116.876c-.779-5.515-2.401-10.779-4.743-15.678h126.362c-2.342 4.898-3.964 10.162-4.743 15.678zm-130.363-178.629c3.996-2.229 8.529-3.411 13.11-3.419l112.054-.189v151.558h-126.886c-8.222-8.474-19.139-14.584-31.456-17.139v-112.261c13.908-7.796 25.847-14.462 33.178-18.55zm-169.612 167.855c0-2.705 2.2-4.905 4.904-4.905h63.712c-2.343 4.899-3.965 10.163-4.743 15.678h-63.873zm123.487 59.927c-24.9 0-45.156-18.686-45.156-41.653s20.257-41.653 45.156-41.653 45.156 18.685 45.156 41.653-20.257 41.653-45.156 41.653zm236.101 0c-24.899 0-45.156-18.686-45.156-41.653s20.257-41.653 45.156-41.653 45.156 18.685 45.156 41.653-20.257 41.653-45.156 41.653zm95.412-55.054c0 3.253-2.647 5.9-5.9 5.9h-29.899c-.778-5.515-2.4-10.779-4.743-15.678h34.642c3.254 0 5.9 2.647 5.9 5.9z"/><path d="m402.374 321.293c-14.322 0-25.974 11.101-25.974 24.745s11.651 24.745 25.974 24.745c14.322 0 25.975-11.101 25.975-24.745s-11.653-24.745-25.975-24.745zm0 34.491c-6.051 0-10.974-4.372-10.974-9.745s4.923-9.745 10.974-9.745c6.052 0 10.975 4.372 10.975 9.745s-4.923 9.745-10.975 9.745z"/><path d="m384.921 266.606h9.087c4.143 0 7.5-3.358 7.5-7.5s-3.357-7.5-7.5-7.5h-9.087c-4.143 0-7.5 3.358-7.5 7.5s3.357 7.5 7.5 7.5z"/><path d="m166.273 321.293c-14.322 0-25.975 11.101-25.975 24.745s11.652 24.745 25.975 24.745c14.322 0 25.975-11.101 25.975-24.745s-11.653-24.745-25.975-24.745zm0 34.491c-6.052 0-10.975-4.372-10.975-9.745s4.923-9.745 10.975-9.745 10.975 4.372 10.975 9.745-4.924 9.745-10.975 9.745z"/><path d="m312.45 291.201c4.143 0 7.5-3.358 7.5-7.5v-84.635c0-4.142-3.357-7.5-7.5-7.5s-7.5 3.358-7.5 7.5v84.635c0 4.142 3.358 7.5 7.5 7.5z"/><path d="m269.958 291.201c4.143 0 7.5-3.358 7.5-7.5v-84.635c0-4.142-3.357-7.5-7.5-7.5s-7.5 3.358-7.5 7.5v84.635c0 4.142 3.357 7.5 7.5 7.5z"/><path d="m227.466 291.201c4.143 0 7.5-3.358 7.5-7.5v-84.635c0-4.142-3.357-7.5-7.5-7.5s-7.5 3.358-7.5 7.5v84.635c0 4.142 3.357 7.5 7.5 7.5z"/></g></svg>