<?xml version="1.0" encoding="iso-8859-1"?>
<!-- Generator: Adobe Illustrator 19.0.0, SVG Export Plug-In . SVG Version: 6.00 Build 0)  -->
<svg version="1.1" id="Capa_1" xmlns="http://www.w3.org/2000/svg" xmlns:xlink="http://www.w3.org/1999/xlink" x="0px" y="0px"
	 viewBox="0 0 512 512" style="enable-background:new 0 0 512 512;" xml:space="preserve">
<g>
	<path style="fill:#FFC7A9;" d="M461.265,394.5c0-15.159-10.433-27.925-24.495-31.5h-13.797c1.198,2.153,1.887,4.624,1.887,7.25
		V504.5h31.405c2.761,0,5-2.239,5-5v-30.503c0-4.926-2.124-9.641-5.827-12.936c3.812-5.469,5.827-11.887,5.827-18.56V394.5z"/>
	<path style="fill:#FFC7A9;" d="M89.028,363H75.23c-14.062,3.575-24.495,16.341-24.495,31.5v43c0,6.673,2.015,13.091,5.827,18.56
		c-3.703,3.295-5.827,8.011-5.827,12.936V499.5c0,2.761,2.239,5,5,5H87.14V370.25C87.141,367.624,87.83,365.153,89.028,363z"/>
</g>
<path style="fill:#775436;" d="M422.972,363H370.29c0.029-0.073,0.056-0.146,0.085-0.219
	c-14.364,35.982-49.561,61.475-90.607,61.475h-47.535c-41.046,0-76.243-25.493-90.607-61.475c0.029,0.073,0.055,0.146,0.085,0.219
	H89.028c-1.198,2.153-1.887,4.624-1.887,7.25V504.5H424.86V370.25C424.859,367.624,424.17,365.153,422.972,363z"/>
<path style="opacity:0.15;fill:#490089;enable-background:new    ;" d="M89.028,363c-1.198,2.153-1.887,4.624-1.887,7.25V504.5
	h29.141V370.25c0-2.626,0.689-5.097,1.887-7.25H89.028z"/>
<path style="fill:#9EA7AF;" d="M448.519,341.707h-72.381c-1.146,7.404-3.13,14.534-5.848,21.293h78.229c2.75,0,5-2.25,5-5v-11.293
	C453.519,343.957,451.269,341.707,448.519,341.707z"/>
<path style="opacity:0.15;fill:#490089;enable-background:new    ;" d="M406.927,358v-11.293c0-2.75,2.25-5,5-5h-35.789
	c-1.146,7.404-3.13,14.534-5.848,21.293h41.637C409.177,363,406.927,360.75,406.927,358z"/>
<path style="fill:#9EA7AF;" d="M135.862,341.707H63.481c-2.75,0-5,2.25-5,5V358c0,2.75,2.25,5,5,5h78.229
	C138.993,356.241,137.008,349.111,135.862,341.707z"/>
<g style="opacity:0.15;">
	<path style="fill:#3D0072;" d="M87.927,358v-11.293c0-2.75,2.25-5,5-5H63.481c-2.75,0-5,2.25-5,5V358c0,2.75,2.25,5,5,5h29.445
		C90.177,363,87.927,360.75,87.927,358z"/>
</g>
<path style="fill:#FCDB67;" d="M140.007,85.335c-5.697-3.168-11.133-6.834-16.223-10.984C104.17,58.358,90.422,36.015,85.072,11.436
	c-0.5-2.297-2.534-3.936-4.885-3.936c-2.352,0-4.385,1.639-4.886,3.936C73.442,19.973,72.5,28.742,72.5,37.5
	c0,37.831,17.308,71.694,44.421,94.089L140.007,85.335z"/>
<g style="opacity:0.15;">
	<path style="fill:#330068;" d="M126.366,112.666C102.178,90.358,87,58.42,87,23c0-1.286,0.027-2.572,0.067-3.857
		c-0.75-2.543-1.43-5.108-1.995-7.706c-0.5-2.298-2.534-3.937-4.885-3.937c-2.352,0-4.385,1.639-4.886,3.936
		C73.442,19.973,72.5,28.742,72.5,37.5c0,37.831,17.308,71.694,44.421,94.089L126.366,112.666z"/>
</g>
<path style="fill:#FCDB67;" d="M436.699,11.436c-0.5-2.298-2.534-3.936-4.886-3.936s-4.385,1.639-4.886,3.936
	c-5.35,24.578-19.098,46.922-38.711,62.915c-5.09,4.15-10.526,7.816-16.223,10.984l23.085,46.254
	C422.192,109.194,439.5,75.331,439.5,37.5C439.5,28.742,438.558,19.973,436.699,11.436z"/>
<g>
	<path style="fill:#C5CCD3;" d="M397.556,136.553l-29.027-58.158c-1.228-2.46-4.246-3.469-6.707-2.241l-17.097,8.533
		c16.15,18.27,27.489,41.76,31.758,67.972l18.832-9.4C397.776,142.031,398.784,139.013,397.556,136.553z"/>
	<path style="fill:#C5CCD3;" d="M167.274,84.688l-17.097-8.533c-2.46-1.228-5.479-0.22-6.706,2.241l-29.027,58.158
		c-1.228,2.461-0.22,5.479,2.241,6.707l18.833,9.4C139.786,126.448,151.125,102.958,167.274,84.688z"/>
</g>
<path style="fill:#B2762F;" d="M279.768,424.256h-47.535c-34.784,0-65.367-18.31-82.633-45.793V504.5h212.8V378.463
	C345.135,405.946,314.551,424.256,279.768,424.256z"/>
<path style="opacity:0.15;fill:#490089;enable-background:new    ;" d="M149.6,378.463V504.5h28.6v-96.623
	C166.719,400.207,156.953,390.167,149.6,378.463z"/>
<path style="fill:#FFC7A9;" d="M279.768,424.256h-47.535c-5.293,0-10.487-0.43-15.554-1.246L256,504.5l39.321-81.49
	C290.255,423.826,285.061,424.256,279.768,424.256z"/>
<polygon style="fill:#E6E9ED;" points="282.889,448.777 229.112,448.777 256,504.5 "/>
<g>
	<path style="fill:#FFB98A;" d="M387.267,208.197c-0.759,0.466-1.64,0.748-2.591,0.748h-7.39v70.956
		c11.923-1.714,21.086-11.967,21.086-24.364v-26.763C398.373,220.169,393.955,212.6,387.267,208.197z"/>
	<path style="fill:#FFB98A;" d="M134.714,208.946h-7.39c-0.95,0-1.832-0.283-2.591-0.748c-6.688,4.402-11.106,11.972-11.106,20.577
		v26.763c0,12.397,9.164,22.649,21.086,24.364v-70.956H134.714z"/>
</g>
<path style="fill:#FFC7A9;" d="M182.755,315.123c0.393,0.389,0.913,0.603,1.466,0.603c0.275,0,0.544-0.054,0.797-0.16
	c0.78-0.325,1.283-1.078,1.283-1.921v-21.847c0-10.325,8.4-18.725,18.725-18.725h37.724c1.35,3.343,4.628,5.72,8.44,5.72h18.708
	c3.812,0,7.09-2.378,8.44-5.72h28.637c10.325,0,18.725,8.4,18.725,18.725v21.848c0,0.843,0.503,1.596,1.281,1.92
	c0.255,0.107,0.523,0.16,0.799,0.16c0.553,0,1.073-0.214,1.465-0.603c19.851-19.685,30.783-45.917,30.783-73.865v-32.313H151.973
	v32.313C151.973,269.206,162.905,295.438,182.755,315.123z"/>
<path style="opacity:0.15;fill:#490089;enable-background:new    ;" d="M182.755,315.123c0.393,0.389,0.913,0.603,1.466,0.603
	c0.275,0,0.544-0.054,0.797-0.16c0.78-0.325,1.283-1.078,1.283-1.921v-21.522c-6.605-14.065-10.3-29.768-10.3-46.336v-36.842
	h-24.027v32.313C151.973,269.206,162.905,295.438,182.755,315.123z"/>
<path style="fill:#F7931E;" d="M360.027,208.946v32.313c0,27.948-10.932,54.18-30.783,73.865c-0.392,0.389-0.912,0.603-1.465,0.603
	c-0.275,0-0.543-0.054-0.799-0.16c-0.778-0.324-1.281-1.078-1.281-1.92v-21.848c0-10.325-8.4-18.725-18.725-18.725h-28.637
	c-1.35,3.343-4.628,5.72-8.44,5.72h-18.708c-3.812,0-7.09-2.378-8.44-5.72h-37.724c-10.325,0-18.725,8.4-18.725,18.725v21.847
	c0,0.843-0.503,1.596-1.283,1.921c-0.253,0.106-0.522,0.16-0.797,0.16c-0.553,0-1.073-0.214-1.466-0.603
	c-19.85-19.685-30.782-45.917-30.782-73.864v-32.313h-17.259v117.792c0,53.772,43.747,97.518,97.519,97.518h47.535
	c53.772,0,97.518-43.746,97.518-97.518V208.946H360.027z"/>
<g>
	<path style="fill:#D19546;" d="M277.473,166h100.545c-4.17-61.138-46.392-110.527-100.545-119.241L277.473,166L277.473,166z"/>
	<path style="fill:#D19546;" d="M234.527,46.759C180.374,55.473,138.153,104.862,133.983,166h100.544L234.527,46.759L234.527,46.759
		z"/>
</g>
<path style="opacity:0.15;fill:#490089;enable-background:new    ;" d="M234.527,46.759C180.374,55.473,138.153,104.862,133.983,166
	h28.638c3.399-49.836,32.085-91.861,71.907-110.415v-8.826H234.527z"/>
<path style="fill:#C5CCD3;" d="M277.473,166V42.14c0-2.75-2.25-5-5-5h-32.945c-2.75,0-5,2.25-5,5V166H277.473z"/>
<g>
	<circle style="fill:#E6E9ED;" cx="256" cy="132.37" r="10.632"/>
	<circle style="fill:#E6E9ED;" cx="256" cy="81.03" r="10.632"/>
</g>
<g>
	<ellipse style="fill:#5DC647;" cx="202.52" cy="241.53" rx="13.477" ry="13.529"/>
	<ellipse style="fill:#5DC647;" cx="309.48" cy="241.53" rx="13.477" ry="13.529"/>
</g>
<path style="fill:#9EA7AF;" d="M127.324,166c-2.75,0-5,2.25-5,5v32.946c0,2.75,2.25,5,5,5h257.352c2.75,0,5-2.25,5-5V171
	c0-2.75-2.25-5-5-5H127.324z"/>
<g>
	<circle style="fill:#E6E9ED;" cx="152.88" cy="187.97" r="10.632"/>
	<circle style="fill:#E6E9ED;" cx="204.44" cy="187.97" r="10.632"/>
	<circle style="fill:#E6E9ED;" cx="256" cy="187.97" r="10.632"/>
	<circle style="fill:#E6E9ED;" cx="307.56" cy="187.97" r="10.632"/>
	<circle style="fill:#E6E9ED;" cx="359.12" cy="187.97" r="10.632"/>
</g>
<path d="M468.765,394.5c0-10.797-4.313-20.595-11.292-27.797c2.19-2.252,3.546-5.32,3.546-8.703v-11.293
	c0-6.892-5.607-12.5-12.5-12.5h-64.021c0.174-2.47,0.288-4.955,0.288-7.469v-41.044c12.291-4.51,21.086-16.322,21.086-30.157
	v-26.763c0-8.472-3.316-16.169-8.697-21.913V171c0-6.826-5.501-12.383-12.302-12.49c-0.059-0.521-0.13-1.039-0.195-1.559
	l13.986-6.981c6.09-3.039,8.606-10.409,5.704-16.532C430.532,109.728,447,75.506,447,37.5c0-9.294-1-18.599-2.973-27.66
	C442.786,4.139,437.649,0,431.814,0c-5.836,0-10.972,4.139-12.214,9.841c-4.99,22.927-17.819,43.773-36.122,58.697
	c-2.706,2.206-5.526,4.249-8.425,6.161c-2.185-4.059-6.365-6.569-11.011-6.569c-1.922,0-3.847,0.454-5.567,1.313l-12.038,6.008
	c-3.359-3.468-6.911-6.762-10.651-9.859c-3.191-2.643-7.919-2.197-10.56,0.993c-2.642,3.19-2.197,7.918,0.993,10.56
	c24.072,19.935,39.453,48.977,43.538,81.355h-84.782V55.982c3.194,0.809,6.359,1.759,9.479,2.886
	c3.895,1.407,8.194-0.611,9.602-4.506c1.407-3.896-0.61-8.195-4.506-9.602c-4.818-1.74-9.723-3.142-14.689-4.219
	c-0.789-6.139-6.037-10.901-12.386-10.901H239.53c-6.342,0-11.584,4.752-12.383,10.88c-22.988,4.978-44.216,16.945-61.561,34.942
	l-12.057-6.018c-1.72-0.859-3.646-1.313-5.567-1.313c-4.646,0-8.826,2.51-11.011,6.569c-2.899-1.912-5.72-3.955-8.425-6.161
	C110.22,53.614,97.391,32.768,92.4,9.84C91.159,4.139,86.022,0,80.187,0c-5.835,0-10.972,4.139-12.214,9.841
	C66,18.901,65,28.206,65,37.5c0,38.006,16.468,72.228,42.631,95.938c-2.902,6.123-0.385,13.493,5.704,16.532l13.986,6.98
	c-0.065,0.518-0.121,1.039-0.18,1.559c-6.808,0.099-12.317,5.66-12.317,12.491v35.862c-5.38,5.743-8.697,13.44-8.697,21.913v26.763
	c0,13.835,8.796,25.646,21.086,30.157V288c0,4.142,3.358,7.5,7.5,7.5s7.5-3.358,7.5-7.5v-71.554h2.259v24.813
	c0,29.962,11.72,58.086,33.002,79.19c1.807,1.791,4.203,2.777,6.746,2.777c1.274,0,2.516-0.249,3.68-0.736
	c3.584-1.493,5.899-4.964,5.899-8.845v-21.847c0-6.189,5.036-11.225,11.225-11.225h33.656c3.046,3.497,7.518,5.72,12.508,5.72
	h18.708c4.99,0,9.462-2.224,12.508-5.72h24.569c6.189,0,11.225,5.036,11.225,11.225v21.848c0,3.879,2.314,7.351,5.895,8.843
	c1.174,0.489,2.414,0.737,3.685,0.737c2.544,0,4.939-0.986,6.747-2.778c21.281-21.104,33.001-49.228,33.001-79.19v-24.813h2.259
	v110.292c0,39.593-25.695,73.297-61.286,85.315V376c0-4.142-3.358-7.5-7.5-7.5s-7.5,3.358-7.5,7.5v39.71
	c-4.478,0.688-9.064,1.046-13.732,1.046H278.5v-34.929c0-4.142-3.358-7.5-7.5-7.5s-7.5,3.358-7.5,7.5v34.929h-15v-34.929
	c0-4.142-3.358-7.5-7.5-7.5s-7.5,3.358-7.5,7.5v34.929h-1.268c-4.668,0-9.254-0.358-13.732-1.046V376c0-4.142-3.358-7.5-7.5-7.5
	s-7.5,3.358-7.5,7.5v36.054c-35.591-12.018-61.286-45.722-61.286-85.315c0-4.142-3.358-7.5-7.5-7.5s-7.5,3.358-7.5,7.5
	c0,2.511,0.091,5.001,0.266,7.469H63.481c-6.892,0-12.5,5.608-12.5,12.5V358c0,3.383,1.356,6.451,3.546,8.703
	c-6.979,7.202-11.292,16.999-11.292,27.797v43c0,6.227,1.426,12.274,4.16,17.769c-2.685,4.037-4.16,8.808-4.16,13.728V499.5
	c0,6.893,5.607,12.5,12.5,12.5h400.529c6.893,0,12.5-5.607,12.5-12.5v-30.503c0-4.92-1.474-9.691-4.16-13.728
	c2.734-5.495,4.16-11.542,4.16-17.769v-43H468.765z M384.786,216.44c0.257-0.002,0.51-0.021,0.763-0.039
	c3.272,3.119,5.324,7.506,5.324,12.373v26.763c0,5.237-2.37,9.923-6.086,13.065V216.44H384.786z M127.214,268.602
	c-3.717-3.142-6.086-7.828-6.086-13.065v-26.763c0-4.867,2.052-9.254,5.324-12.373c0.253,0.017,0.506,0.037,0.763,0.039
	L127.214,268.602L127.214,268.602z M348.247,173.5c-4.396,3.312-7.255,8.558-7.255,14.473c0,5.35,2.343,10.151,6.04,13.473h-27.377
	c3.697-3.322,6.04-8.123,6.04-13.473c0-5.915-2.86-11.161-7.255-14.473H348.247z M307.562,184.841c1.727,0,3.132,1.405,3.132,3.132
	s-1.405,3.132-3.132,3.132s-3.132-1.405-3.132-3.132C304.43,186.246,305.835,184.841,307.562,184.841z M296.685,173.5
	c-4.395,3.312-7.255,8.558-7.255,14.473c0,5.35,2.343,10.151,6.04,13.473h-27.377c3.697-3.322,6.04-8.123,6.04-13.473
	c0-5.915-2.86-11.161-7.255-14.473H296.685z M242.027,44.64h27.945v24.844c-3.329-4.023-8.356-6.59-13.973-6.59
	c-5.616,0-10.644,2.567-13.973,6.59L242.027,44.64L242.027,44.64z M259.132,81.027c0,1.727-1.405,3.132-3.132,3.132
	c-1.727,0-3.132-1.405-3.132-3.132c0-1.727,1.405-3.132,3.132-3.132C257.727,77.895,259.132,79.3,259.132,81.027z M242.027,92.569
	c3.329,4.023,8.357,6.59,13.973,6.59c5.616,0,10.644-2.567,13.973-6.59v28.256c-3.329-4.022-8.356-6.59-13.973-6.59
	c-5.616,0-10.644,2.567-13.973,6.59L242.027,92.569L242.027,92.569z M259.132,132.368c0,1.727-1.405,3.132-3.132,3.132
	c-1.727,0-3.132-1.405-3.132-3.132s1.405-3.132,3.132-3.132C257.727,129.235,259.132,130.641,259.132,132.368z M242.027,143.91
	c3.329,4.022,8.357,6.59,13.973,6.59c5.616,0,10.644-2.567,13.973-6.59v14.59h-27.945v-14.59H242.027z M259.132,187.973
	c0,1.727-1.405,3.132-3.132,3.132c-1.727,0-3.132-1.405-3.132-3.132s1.405-3.132,3.132-3.132
	C257.727,184.841,259.132,186.246,259.132,187.973z M245.123,173.5c-4.395,3.312-7.255,8.558-7.255,14.473
	c0,5.35,2.343,10.151,6.04,13.473H216.53c3.697-3.322,6.04-8.123,6.04-13.473c0-5.915-2.86-11.161-7.255-14.473H245.123z M80,37.5
	c0-4.434,0.257-8.87,0.768-13.273c7.05,21.775,20.373,41.339,38.276,55.937c3.564,2.907,7.304,5.561,11.162,8.015l-15.597,31.248
	C93.275,98.619,80,69.585,80,37.5z M140.784,201.446h-10.96V173.5h12.175c-4.396,3.312-7.255,8.558-7.255,14.473
	C134.744,193.323,137.086,198.124,140.784,201.446z M130.056,141.551l-7.785-3.886l26.794-53.684l6.433,3.211
	C143.313,103.117,134.678,121.641,130.056,141.551z M142.279,158.5c3.369-26.558,14.365-51.053,31.825-70.206
	c14.832-16.269,33.089-27.308,52.923-32.32V158.5H142.279z M207.57,187.973c0,1.727-1.405,3.132-3.132,3.132
	c-1.727,0-3.132-1.405-3.132-3.132s1.405-3.132,3.132-3.132S207.57,186.246,207.57,187.973z M192.346,201.446h-27.377
	c3.697-3.322,6.04-8.123,6.04-13.473c0-5.915-2.86-11.161-7.255-14.473h29.808c-4.396,3.312-7.255,8.558-7.255,14.473
	C186.306,193.323,188.648,198.124,192.346,201.446z M152.876,191.106c-1.727,0-3.132-1.405-3.132-3.132s1.405-3.132,3.132-3.132
	c1.727,0,3.132,1.405,3.132,3.132C156.008,189.7,154.603,191.106,152.876,191.106z M352.527,241.258
	c0,21.206-6.783,41.348-19.328,57.973v-7.433c0-14.46-11.765-26.225-26.225-26.225H286.5v-2.995c0-4.142-3.358-7.5-7.5-7.5
	s-7.5,3.358-7.5,7.5v7.111c0,0.869-0.734,1.604-1.603,1.604h-18.708c-0.869,0-1.603-0.734-1.603-1.604v-38.146
	c0-4.142-3.358-7.5-7.5-7.5s-7.5,3.358-7.5,7.5v34.03h-29.561c-14.461,0-26.225,11.765-26.225,26.225v7.433
	c-12.545-16.625-19.328-36.767-19.328-57.973v-24.813h193.055L352.527,241.258L352.527,241.258z M359.124,191.106
	c-1.727,0-3.132-1.405-3.132-3.132s1.405-3.132,3.132-3.132s3.132,1.405,3.132,3.132C362.256,189.7,360.851,191.106,359.124,191.106
	z M65.981,349.207h63.672c0.465,2.122,0.99,4.221,1.582,6.293H65.981V349.207z M79.641,497H58.235v-28.003
	c0-2.787,1.208-5.46,3.313-7.334c2.838-2.525,3.339-6.774,1.167-9.891c-2.931-4.205-4.48-9.14-4.48-14.272v-43
	c0-11.361,7.62-20.97,18.016-24h3.389L79.641,497L79.641,497z M142.1,497H94.641V370.5h42.166c1.591,3.45,3.353,6.806,5.293,10.044
	V497z M446.019,349.207v6.293h-65.257c0.591-2.073,1.127-4.169,1.592-6.293H446.019z M370.001,173.5h12.175v27.946h-10.96
	c3.697-3.322,6.04-8.123,6.04-13.473C377.256,182.058,374.397,176.812,370.001,173.5z M392.956,80.164
	c17.903-14.598,31.226-34.163,38.276-55.937C431.743,28.63,432,33.066,432,37.5c0,32.085-13.275,61.119-34.609,81.927
	l-15.597-31.248C385.652,85.725,389.392,83.07,392.956,80.164z M356.535,87.176l6.4-3.194l26.794,53.684l-7.773,3.88
	C377.325,121.523,368.666,102.999,356.535,87.176z M232.232,431.756h47.535c1.014,0,2.022-0.018,3.029-0.047l-4.617,9.568h-44.36
	l-4.617-9.568C230.21,431.738,231.219,431.756,232.232,431.756z M157.1,497v-96.97c14.502,14.86,33.357,25.453,54.485,29.683
	L244.054,497H157.1z M241.059,456.277h29.884L256,487.242L241.059,456.277z M417.359,497H369.9v-34c0-4.142-3.358-7.5-7.5-7.5
	s-7.5,3.358-7.5,7.5v34h-86.953l32.468-67.287c21.129-4.229,39.984-14.823,54.485-29.683V420c0,4.142,3.358,7.5,7.5,7.5
	s7.5-3.358,7.5-7.5v-39.456c1.942-3.241,3.722-6.59,5.312-10.044h42.147L417.359,497L417.359,497z M453.765,437.5
	c0,5.131-1.549,10.066-4.48,14.272c-2.172,3.117-1.67,7.365,1.167,9.891c2.105,1.873,3.313,4.547,3.313,7.334V497H432.36V370.5
	h3.389c10.396,3.03,18.016,12.639,18.016,24L453.765,437.5L453.765,437.5z"/>
<path d="M202.524,262.558c11.566,0,20.976-9.434,20.976-21.029c0-11.595-9.41-21.029-20.976-21.029
	c-11.567,0-20.977,9.434-20.977,21.029C181.546,253.125,190.957,262.558,202.524,262.558z M202.524,235.5
	c3.295,0,5.976,2.705,5.976,6.029c0,3.325-2.681,6.029-5.976,6.029c-3.296,0-5.977-2.705-5.977-6.029
	C196.546,238.205,199.228,235.5,202.524,235.5z"/>
<path d="M309.477,262.558c11.566,0,20.977-9.434,20.977-21.029c0-11.595-9.41-21.029-20.977-21.029s-20.977,9.434-20.977,21.029
	C288.5,253.125,297.91,262.558,309.477,262.558z M309.477,235.5c3.295,0,5.977,2.705,5.977,6.029c0,3.325-2.681,6.029-5.977,6.029
	s-5.977-2.705-5.977-6.029S306.181,235.5,309.477,235.5z"/>
<path d="M281,325.5c4.142,0,7.5-3.358,7.5-7.5s-3.358-7.5-7.5-7.5h-50c-4.142,0-7.5,3.358-7.5,7.5s3.358,7.5,7.5,7.5H281z"/>
<g>
</g>
<g>
</g>
<g>
</g>
<g>
</g>
<g>
</g>
<g>
</g>
<g>
</g>
<g>
</g>
<g>
</g>
<g>
</g>
<g>
</g>
<g>
</g>
<g>
</g>
<g>
</g>
<g>
</g>
</svg>
