<?xml version="1.0" encoding="iso-8859-1"?>
<!-- Generator: Adobe Illustrator 19.0.0, SVG Export Plug-In . SVG Version: 6.00 Build 0)  -->
<svg version="1.1" id="Capa_1" xmlns="http://www.w3.org/2000/svg" xmlns:xlink="http://www.w3.org/1999/xlink" x="0px" y="0px"
	 viewBox="0 0 511.999 511.999" style="enable-background:new 0 0 511.999 511.999;" xml:space="preserve">
<g>
	<path style="fill:#5DC647;" d="M140.122,499.5v-92.345l-53.949,89.769c-0.929,1.544-0.954,3.469-0.066,5.038
		c0.887,1.568,2.55,2.538,4.352,2.538h54.664C142.36,504.5,140.122,502.261,140.122,499.5z"/>
	<path style="fill:#5DC647;" d="M425.825,496.924l-53.949-89.769V499.5c0,2.761-2.238,5-5,5h54.664c1.802,0,3.465-0.97,4.352-2.538
		C426.779,500.394,426.754,498.469,425.825,496.924z"/>
</g>
<path style="fill:#C0272D;" d="M348.079,361.649l-67.326,20.669c-3.478,2.916-7.948,4.683-12.814,4.683H244.06
	c-4.866,0-9.337-1.766-12.814-4.683l-67.326-20.669c-13.574,2.866-23.797,14.936-23.797,29.351v108.5c0,2.761,2.238,5,5,5h221.754
	c2.762,0,5-2.239,5-5V391C371.876,376.585,361.653,364.515,348.079,361.649z"/>
<path style="opacity:0.15;fill:#490089;enable-background:new    ;" d="M181.29,366.981l-17.371-5.333
	c-13.574,2.866-23.797,14.936-23.797,29.351v108.5c0,2.761,2.238,5,5,5h29.123c-2.762,0-5-2.239-5-5V391
	C169.245,381.186,173.982,372.458,181.29,366.981z"/>
<g>
	<path style="fill:#FFFFFF;" d="M181.151,462.319c0-0.104,0.022-0.214,0.026-0.319h-41.056v20h41.029L181.151,462.319
		L181.151,462.319z"/>
	<path style="fill:#FFFFFF;" d="M330.82,462c0.004,0.105,0.026,0.215,0.026,0.319V482h41.029v-20H330.82z"/>
</g>
<path id="SVGCleanerId_0" style="fill:#FFC502;" d="M330.847,504.5v-42.181c0-3.274-2.318-7.293-5.156-8.931l-64.535-37.261
	c-2.836-1.638-7.477-1.638-10.313,0l-64.535,37.261c-2.838,1.637-5.156,5.656-5.156,8.931V504.5H330.847z"/>
<g>
	<path style="fill:#5DC647;" d="M224.06,367v-35.127c-47.35,5.353-61.561,29.34-61.561,29.34l68.747,21.105
		C226.862,378.641,224.06,373.134,224.06,367z"/>
	<path style="fill:#5DC647;" d="M287.939,367c0,6.134-2.803,11.641-7.187,15.317l68.747-21.105c0,0-14.211-23.987-61.56-29.34V367z"
		/>
</g>
<g>
	<path style="fill:#203A74;" d="M128.999,142h254c0.613,0,1.182,0.186,1.656,0.501v-25.298c0-44.396-35.988-80.386-80.385-80.386
		h-10.107c-16.222-18-39.714-29.317-65.851-29.317h-12.34c-48.948,0-88.629,39.68-88.629,88.628v46.373
		C127.817,142.186,128.387,142,128.999,142z"/>
	<path style="fill:#203A74;" d="M163.075,247.203h-20.161c-5.813,0-11.135-2.102-15.252-5.583
		c3.809,45.436,41.889,81.126,88.31,81.126h8.088V318c0-1.541,0.193-3.036,0.527-4.478
		C195.031,302.368,172.03,277.758,163.075,247.203z"/>
</g>
<g>
	<path style="fill:#FFB98A;" d="M160.232,234.564c-18.811-11.022-31.957-30.686-33.952-53.508
		c-4.328,4.286-7.011,10.229-7.011,16.801v25.701c0,13.059,10.586,23.645,23.645,23.645h20.153
		C161.862,243.091,160.909,238.873,160.232,234.564z"/>
	<path style="fill:#FFB98A;" d="M385.718,181.055c-1.65,18.872-10.915,35.594-24.715,47.048c-0.603,6.566-1.834,12.953-3.635,19.099
		h11.716c13.059,0,23.645-10.586,23.645-23.645v-25.701C392.729,191.285,390.046,185.341,385.718,181.055z"/>
</g>
<path style="fill:#203A74;" d="M369.084,247.203h-11.719c-9.787,33.401-36.368,59.694-69.939,69.076
	c0.139-0.039,0.279-0.071,0.418-0.111c0.057,0.604,0.094,1.214,0.094,1.832v4.565c1.701,0.108,3.411,0.181,5.14,0.181h11.192
	c44.396,0,80.385-35.99,80.385-80.386v-1.018C380.495,244.988,375.05,247.203,369.084,247.203z"/>
<path style="fill:#FFB98A;" d="M260.218,320c-12.535,0-24.541-2.297-35.63-6.481c-0.335,1.444-0.528,2.939-0.528,4.481v49
	c0,11,9,20,20,20h23.879c11,0,20-9,20-20v-49c0-0.618-0.037-1.228-0.094-1.832C279.06,318.663,269.792,320,260.218,320z"/>
<path style="opacity:0.15;fill:#490089;enable-background:new    ;" d="M253.999,367v-47.197
	c-10.291-0.627-20.171-2.797-29.411-6.284c-0.335,1.444-0.528,2.939-0.528,4.481v49c0,11,9,20,20,20h23.879
	c1.032,0,2.039-0.103,3.03-0.256C261.397,385.269,253.999,376.968,253.999,367z"/>
<g>
	<path style="fill:#FFC7A9;" d="M361.301,142c-1.545-30.323-17.347-50.923-47.049-61.256c-0.538-0.188-1.093-0.278-1.642-0.278
		c-1.464,0-2.888,0.644-3.855,1.815C290.322,104.587,247.159,119,198.792,119c-10.22,0-20.384-0.652-30.21-1.938
		c-0.219-0.029-0.436-0.043-0.652-0.043c-2.094,0-3.998,1.316-4.711,3.333c-2.313,6.543-3.67,13.813-4.076,21.648H361.301z"/>
	<path style="fill:#FFC7A9;" d="M316.999,244c-25.83,0-49.119-14.219-61-36.731c-11.879,22.512-35.17,36.731-61,36.731
		c-12.674,0-24.55-3.449-34.767-9.436C167.834,282.906,209.773,320,260.218,320c52.669,0,96.063-40.438,100.785-91.896
		C349.051,238.025,333.71,244,316.999,244z"/>
</g>
<g style="opacity:0.15;">
	<path style="fill:#330068;" d="M191.178,243.889c-11.239-0.616-21.763-3.944-30.945-9.325c7.601,48.342,49.54,85.436,99.985,85.436
		c4.923,0,9.763-0.36,14.5-1.043C234.091,313.103,201.208,283.026,191.178,243.889z"/>
	<path style="fill:#330068;" d="M188.143,142c0.406-7.835,1.763-15.104,4.076-21.648c0.188-0.53,0.46-1.007,0.794-1.429
		c-8.266-0.199-16.46-0.818-24.431-1.861c-0.219-0.029-0.436-0.043-0.652-0.043c-2.094,0-3.998,1.316-4.711,3.333
		c-2.313,6.543-3.67,13.813-4.076,21.648H188.143z"/>
</g>
<path style="fill:#C0272D;" d="M316.999,244c-25.83,0-49.119-14.219-61-36.731c-11.879,22.512-35.17,36.731-61,36.731
	c-38.047,0-69-30.953-69-69v-30c0-1.657,1.344-3,3-3h254c1.658,0,3,1.343,3,3v30C385.999,213.047,355.046,244,316.999,244z"/>
<path style="opacity:0.15;fill:#490089;enable-background:new    ;" d="M146.999,175v-30c0-1.657,1.344-3,3-3h-21
	c-1.656,0-3,1.343-3,3v30c0,38.047,30.953,69,69,69c3.535,0,7.018-0.289,10.434-0.81C172.384,238.09,146.999,209.455,146.999,175z"
	/>
<g>
	<path style="fill:#203A74;" d="M319.187,215.941c-13.908-0.001-26.373-8.814-31.016-21.931c-0.266-0.75-0.221-1.575,0.121-2.293
		s0.957-1.271,1.707-1.536l56.371-19.952c0.324-0.115,0.664-0.172,1.002-0.172c0.443,0,0.885,0.098,1.291,0.292
		c0.719,0.343,1.271,0.956,1.537,1.706c6.051,17.102-2.938,35.939-20.037,41.991C326.612,215.305,322.921,215.941,319.187,215.941
		L319.187,215.941z"/>
	<path style="fill:#203A74;" d="M192.814,215.941c-3.734,0-7.428-0.637-10.977-1.893c-17.102-6.053-26.09-24.89-20.037-41.991
		c0.266-0.75,0.818-1.364,1.535-1.706c0.408-0.194,0.85-0.292,1.293-0.292c0.338,0,0.676,0.057,1,0.172l56.373,19.952
		c0.75,0.266,1.363,0.818,1.707,1.536c0.342,0.718,0.385,1.543,0.119,2.293C219.185,207.128,206.722,215.941,192.814,215.941z"/>
</g>
<g>
	<path id="SVGCleanerId_0_1_" style="fill:#FFC502;" d="M330.847,504.5v-42.181c0-3.274-2.318-7.293-5.156-8.931l-64.535-37.261
		c-2.836-1.638-7.477-1.638-10.313,0l-64.535,37.261c-2.838,1.637-5.156,5.656-5.156,8.931V504.5H330.847z"/>
</g>
<g style="opacity:0.15;">
	<path style="fill:#3D0072;" d="M200.999,476.819c0-3.274,2.318-7.293,5.156-8.931l70.133-43.023l-15.133-8.737
		c-2.836-1.638-7.477-1.638-10.313,0l-64.535,37.261c-2.838,1.637-5.156,5.656-5.156,8.931v42.18h19.848V476.819z"/>
</g>
<path style="fill:#5DC647;" d="M293.581,504.5v-21.179c0-1.644-1.164-3.662-2.59-4.484l-32.402-18.709
	c-1.424-0.822-3.754-0.822-5.18,0l-32.404,18.709c-1.424,0.822-2.588,2.84-2.588,4.484V504.5H293.581z"/>
<path d="M432.254,493.061l-52.878-87.985V391c0-16.088-10.19-29.829-24.45-35.138c-3.302-4.575-14.861-18.081-40.727-26.18
	c43.111-4.87,76.875-41.051,77.929-85.194c5.031-5.533,8.101-12.88,8.101-20.93v-25.701c0-7.333-2.56-14.073-6.817-19.398
	c0.052-1.147,0.088-2.299,0.088-3.458v-30c0-1.86-0.491-3.606-1.344-5.124v-22.674c0-48.46-39.425-87.886-87.885-87.886h-6.963
	C279.831,11.258,255.372,0,228.312,0h-12.34c-53.006,0-96.129,43.123-96.129,96.128v43.748c-0.853,1.517-1.344,3.263-1.344,5.124v30
	c0,1.16,0.036,2.311,0.088,3.458c-4.258,5.325-6.817,12.064-6.817,19.398v25.701c0,8.365,3.321,15.965,8.707,21.566
	c4.883,42.634,37.763,76.875,79.743,83.824c-27.574,7.99-39.744,22.198-43.147,26.914c-14.261,5.31-24.45,19.05-24.45,35.138v14.075
	l-21.673,36.062c-2.134,3.55-0.985,8.158,2.565,10.292c3.548,2.134,8.157,0.985,10.292-2.565l8.815-14.669V497H94.878l7.895-13.137
	c2.134-3.55,0.985-8.158-2.565-10.292c-3.549-2.133-8.157-0.985-10.292,2.565l-10.17,16.922c-2.318,3.855-2.382,8.682-0.167,12.594
	c2.213,3.915,6.382,6.347,10.88,6.347h331.082c4.498,0,8.667-2.432,10.879-6.344C434.635,501.741,434.571,496.915,432.254,493.061z
	 M327.729,351.823c3.31,1.959,6.01,3.926,8.167,5.721l-40.626,12.472c0.108-0.991,0.169-1.996,0.169-3.016v-26.435
	C310.386,343.21,320.876,347.766,327.729,351.823z M255.999,312.5c-42.248,0-78.032-28.11-89.691-66.604
	c8.866,3.602,18.547,5.604,28.691,5.604c16.418,0,31.986-5.2,44.77-14.419c0.041,9.612,7.304,17.419,16.23,17.419h8.734
	c4.143,0,7.5-3.358,7.5-7.5s-3.357-7.5-7.5-7.5h-8.734c-0.298,0-1.234-0.914-1.234-2.5v-14.204c0.417-0.523,0.83-1.051,1.234-1.586
	c14.298,18.933,36.725,30.29,61,30.29c10.145,0,19.825-2.002,28.691-5.604C334.031,284.39,298.247,312.5,255.999,312.5z
	 M280.439,324.711V367c0,6.893-5.608,12.5-12.5,12.5H244.06c-6.893,0-12.5-5.607-12.5-12.5v-42.289
	c7.859,1.814,16.036,2.789,24.439,2.789C264.402,327.5,272.579,326.524,280.439,324.711z M306.166,315.199
	c24.308-12.703,43.251-34.321,52.44-60.497h10.478c2.457,0,4.846-0.295,7.14-0.835C370.786,287.997,341.587,314.288,306.166,315.199
	z M385.229,223.558c0,8.902-7.242,16.145-16.145,16.145h-6.4c0.254-1.3,0.49-2.608,0.697-3.924
	c9.112-6.97,16.608-15.939,21.847-26.247v14.026H385.229z M377.155,117.202V134.5h-13.237
	c-3.336-25.975-17.388-45.297-41.261-56.677c-2.335-12.057-6.942-23.308-13.334-33.312
	C347.161,47.117,377.155,78.713,377.155,117.202z M134.843,96.128c0-44.734,36.395-81.128,81.129-81.128h12.34
	c36.768,0,67.87,24.597,77.79,58.192c-2.858,0.53-5.46,2.026-7.347,4.311C281.951,97.838,240.084,111.5,194.573,111.5
	c-9.895,0-19.73-0.631-29.231-1.874c-0.539-0.071-1.088-0.107-1.631-0.107c-5.285,0-10.021,3.35-11.782,8.333
	c-1.832,5.182-3.109,10.757-3.855,16.648h-13.23V96.128H134.843z M133.499,149.5h144.5c4.143,0,7.5-3.358,7.5-7.5
	s-3.357-7.5-7.5-7.5h-114.79c0.521-3.412,1.257-6.669,2.226-9.744c9.511,1.157,19.303,1.744,29.139,1.744
	c49.564,0,94.234-14.904,114.6-38.099c23.197,8.532,36.254,23.688,39.644,46.099H324c-4.143,0-7.5,3.358-7.5,7.5s3.357,7.5,7.5,7.5
	h54.499V175c0,33.911-27.589,61.5-61.5,61.5c-22.88,0-43.712-12.542-54.367-32.731c-1.298-2.46-3.852-4-6.633-4
	c-2.782,0-5.335,1.54-6.633,4c-10.653,20.189-31.486,32.731-54.367,32.731c-33.911,0-61.5-27.589-61.5-61.5V149.5z M126.77,223.558
	v-14.026c5.238,10.308,12.734,19.277,21.847,26.247c0.207,1.316,0.443,2.624,0.697,3.924h-6.4
	C134.012,239.703,126.77,232.46,126.77,223.558z M137.383,254.201c1.797,0.323,3.644,0.501,5.531,0.501h10.478
	c9.003,25.644,27.369,46.909,50.968,59.707C171.779,309.718,145.41,285.594,137.383,254.201z M216.56,340.501V367
	c0,1.02,0.061,2.024,0.169,3.016l-40.72-12.501C182.898,351.744,195.496,344.17,216.56,340.501z M173.651,497h-26.029v-7.5h26.029
	L173.651,497L173.651,497z M173.651,474.5h-26.029v-5h26.029L173.651,474.5L173.651,474.5z M286.081,497h-60.164v-12.339
	l30.082-17.368l30.082,17.369V497z M364.376,497h-26.029v-7.5h26.029V497z M364.376,474.5h-26.029v-5h26.029V474.5z M364.376,454.5
	h-8.377V425c0-4.142-3.357-7.5-7.5-7.5s-7.5,3.358-7.5,7.5v29.5h-4.625c-1.593-3.165-4.041-5.938-6.934-7.606l-10.69-6.172
	c-3.59-2.072-8.176-0.842-10.245,2.745c-2.071,3.587-0.842,8.174,2.745,10.245l10.68,6.165c0.563,0.364,1.383,1.787,1.417,2.442V497
	h-22.266v-13.679c0-4.312-2.608-8.828-6.34-10.979l-32.401-18.708c-1.838-1.061-4.03-1.622-6.34-1.622
	c-2.309,0-4.5,0.56-6.341,1.622l-32.405,18.71c-3.732,2.155-6.337,6.669-6.337,10.979V497h-22.266v-34.666
	c0.034-0.669,0.854-2.093,1.406-2.45l64.523-37.254c0.599-0.305,2.242-0.304,2.825-0.007l17.844,10.302
	c3.588,2.07,8.174,0.843,10.245-2.745c2.071-3.587,0.842-8.174-2.745-10.245l-17.843-10.302c-5.162-2.981-12.653-2.98-17.813,0
	l-64.533,37.259c-2.895,1.669-5.342,4.443-6.936,7.608h-4.625V425c0-4.142-3.357-7.5-7.5-7.5s-7.5,3.358-7.5,7.5v29.5h-8.377V391
	c0-10.183,6.801-18.802,16.098-21.566l63.944,19.63c4.582,3.413,10.257,5.436,16.396,5.436h23.879
	c6.139,0,11.813-2.023,16.396-5.436l63.944-19.63c9.297,2.765,16.098,11.384,16.098,21.566L364.376,454.5L364.376,454.5z
	 M379.376,497v-62.805L417.12,497H379.376z"/>
<path d="M319.187,223.441c4.588,0,9.122-0.781,13.48-2.323c20.997-7.433,32.034-30.563,24.603-51.565
	c-0.935-2.644-2.846-4.765-5.37-5.968c-2.484-1.189-5.437-1.343-8.031-0.425l-56.373,19.952c-2.609,0.924-4.787,2.886-5.976,5.383
	c-1.205,2.532-1.353,5.38-0.419,8.018C286.801,212.619,302.106,223.441,319.187,223.441z M344.255,178.935
	c1.95,11.897-4.84,23.883-16.594,28.043c-2.744,0.971-5.596,1.463-8.475,1.463c-9.211-0.001-17.602-5.008-22.064-12.825
	L344.255,178.935z"/>
<path d="M179.334,221.118c4.355,1.542,8.89,2.323,13.48,2.323c17.079,0,32.384-10.822,38.083-26.927
	c0.936-2.641,0.788-5.489-0.423-8.035c-1.21-2.527-3.329-4.433-5.971-5.369l-56.373-19.952c-2.591-0.917-5.525-0.768-8.03,0.425
	c-2.527,1.208-4.435,3.329-5.37,5.97c-3.596,10.16-3.015,21.123,1.637,30.871C161.019,210.174,169.175,217.523,179.334,221.118z
	 M167.742,178.934l47.135,16.682c-4.463,7.817-12.853,12.825-22.063,12.825c-2.88,0-5.732-0.492-8.475-1.463
	c-6.382-2.259-11.509-6.88-14.435-13.012C167.637,189.215,166.906,184.007,167.742,178.934z"/>
<path d="M296.188,260.631c-3.679-1.901-8.204-0.458-10.104,3.223c-5.844,11.319-17.371,18.35-30.084,18.35
	c-12.713,0-24.24-7.031-30.084-18.35c-1.9-3.681-6.429-5.124-10.105-3.223c-3.681,1.9-5.124,6.424-3.224,10.105
	c8.43,16.326,25.064,26.468,43.412,26.468s34.982-10.142,43.412-26.468C301.312,267.056,299.868,262.532,296.188,260.631z"/>
<g>
</g>
<g>
</g>
<g>
</g>
<g>
</g>
<g>
</g>
<g>
</g>
<g>
</g>
<g>
</g>
<g>
</g>
<g>
</g>
<g>
</g>
<g>
</g>
<g>
</g>
<g>
</g>
<g>
</g>
</svg>
