<svg id="Capa_1" enable-background="new 0 0 512 512" height="512" viewBox="0 0 512 512" width="512" xmlns="http://www.w3.org/2000/svg"><g><path d="m446.442 213.687-33.479-34.937c-3.507-3.66-8.357-5.729-13.426-5.729h-24.171v142.119l129.135-.094-.354-77.064c0-9.267-6.823-17.119-15.999-18.413z" fill="#fbfbfb"/><path d="m16.925 315.038h280.589v-174.45c0-3.849-3.121-6.97-6.97-6.97h-265.954c-4.233 0-7.664 3.432-7.664 7.664v173.756z" fill="#fbfbfb"/><path d="m274.043 293.366c-44.251-35.485-95.481-59.144-149.621-75.327-35.273-10.543-71.286-18.125-107.497-24.644v121.642h280.589v-2.81c-7.787-6.416-15.71-12.637-23.471-18.861z" fill="#df646e"/><path d="m290.544 133.618h-30c3.849 0 6.97 3.121 6.97 6.97v174.451h30v-174.451c0-3.85-3.12-6.97-6.97-6.97z" fill="#e3e0e4"/><path d="m274.043 293.366c-44.251-35.485-95.481-59.144-149.621-75.327-35.273-10.543-71.286-18.125-107.497-24.644v5.7c26.082 5.246 51.984 11.318 77.497 18.944 54.14 16.183 105.369 39.842 149.621 75.327 7.761 6.223 15.684 12.445 23.471 18.863v2.81h30v-2.81c-7.787-6.418-15.71-12.639-23.471-18.863z" fill="#dc4955"/><path d="m297.514 192.276h33.91v122.762h-33.91z" fill="#8c818f"/><path d="m504.257 262.037-.11-24.056c0-9.267-6.823-17.119-15.999-18.413l-15.445-2.178v35.124c0 5.259 4.264 9.523 9.523 9.523z" fill="#f7d958"/><path d="m445.816 213.033-32.853-34.283c-3.507-3.66-8.357-5.73-13.426-5.73h-24.171v64.555h57.354c7.233 0 13.097-5.864 13.097-13.097v-11.445z" fill="#9ec8fc"/><path d="m403.327 173.02c0-20.341-16.49-36.831-36.832-36.831h-28.101c-3.85 0-6.97 3.121-6.97 6.97v171.981h43.941v-142.12z" fill="#df646e"/><path d="m373.299 171.918h29.999c-.585-19.83-16.832-35.729-36.804-35.729h-28.101c-.214 0-.424.013-.633.032 19.388.656 34.967 16.289 35.539 35.697z" fill="#dc4955"/><path d="m494.931 339.381h-475.589c-6.54 0-11.842-5.302-11.842-11.842v-.658c0-6.54 5.302-11.842 11.842-11.842h485.158v14.773c0 5.284-4.284 9.569-9.569 9.569z" fill="#c8c3ca"/><ellipse cx="430.547" cy="339.381" fill="#8c818f" rx="39.236" ry="39.002"/><ellipse cx="430.547" cy="339.381" fill="#c8c3ca" rx="13.766" ry="13.684"/><ellipse cx="259.847" cy="339.381" fill="#8c818f" rx="39.236" ry="39.002"/><ellipse cx="259.847" cy="339.381" fill="#c8c3ca" rx="13.766" ry="13.684"/><ellipse cx="80.403" cy="339.381" fill="#8c818f" rx="39.236" ry="39.002"/><path d="m504.146 237.981c0-9.267-6.823-17.119-15.999-18.413l-13.403-1.89v28.598h-.56l.316 68.769h30z" fill="#e7e7e7"/><path d="m412.962 178.75c-3.507-3.66-8.357-5.73-13.426-5.73h-24.171v.95c2.857.944 5.475 2.564 7.597 4.779l32.853 34.283v11.445c0 7.233-5.864 13.097-13.097 13.097h30c7.233 0 13.097-5.864 13.097-13.097v-11.445z" fill="#80b6fc"/><g fill="#766d78"><path d="m430.547 300.379c-5.314 0-10.378 1.056-15 2.958 14.226 5.856 24.236 19.786 24.236 36.044s-10.01 30.187-24.236 36.044c4.622 1.903 9.686 2.958 15 2.958 21.669 0 39.236-17.462 39.236-39.002s-17.567-39.002-39.236-39.002z"/><path d="m259.847 300.379c-5.314 0-10.378 1.056-15 2.958 14.226 5.856 24.236 19.786 24.236 36.044s-10.01 30.187-24.236 36.044c4.622 1.903 9.686 2.958 15 2.958 21.669 0 39.236-17.462 39.236-39.002s-17.567-39.002-39.236-39.002z"/><path d="m80.403 300.379c-5.314 0-10.378 1.056-15 2.958 14.226 5.856 24.236 19.786 24.236 36.044s-10.01 30.187-24.236 36.044c4.622 1.903 9.686 2.958 15 2.958 21.67 0 39.236-17.462 39.236-39.002s-17.566-39.002-39.236-39.002z"/></g><ellipse cx="80.403" cy="339.381" fill="#c8c3ca" rx="13.766" ry="13.684"/><path d="m511.646 237.981c0-12.926-9.652-24.035-22.452-25.84l-39.134-5.518-31.683-33.062c-2.254-2.352-4.929-4.236-7.847-5.592-2.516-22.074-21.3-39.281-44.035-39.281h-28.101c-7.979 0-14.47 6.491-14.47 14.47v41.617h-18.91v-44.189c0-7.979-6.491-14.47-14.47-14.47h-129.044c-4.142 0-7.5 3.358-7.5 7.5s3.358 7.5 7.5 7.5h128.514v155.762c-4.054-3.386-9.798-8.176-11.279-9.364-41.712-33.448-91.485-58.524-152.165-76.661-29.311-8.761-61.817-16.306-102.144-23.714v-45.858c0-.091.074-.164.164-.164h106.91c4.142 0 7.5-3.358 7.5-7.5s-3.358-7.5-7.5-7.5h-106.91c-8.362 0-15.165 6.803-15.165 15.164v169.023c-5.634 3.385-9.425 9.539-9.425 16.577v.658c0 10.665 8.677 19.342 19.342 19.342h14.278c.222 0 .44-.014.657-.033 3.602 22.103 22.91 39.035 46.126 39.035 23.204 0 42.504-16.915 46.119-39.002h87.205c3.616 22.087 22.916 39.002 46.119 39.002 23.204 0 42.504-16.915 46.12-39.002h29.663c4.142 0 7.5-3.358 7.5-7.5s-3.358-7.5-7.5-7.5h-29.663c-.53-3.239-1.401-6.363-2.569-9.342h28.027 55.573c-1.168 2.979-2.039 6.103-2.569 9.342h-18.798c-4.142 0-7.5 3.358-7.5 7.5s3.358 7.5 7.5 7.5h18.798c3.616 22.087 22.916 39.002 46.119 39.002 23.204 0 42.504-16.915 46.119-39.002h18.265c9.412 0 17.069-7.657 17.069-17.069zm-15 .034.076 16.521h-14.497c-1.115 0-2.023-.907-2.023-2.023v-26.492l6.898.973c5.442.768 9.546 5.491 9.546 11.021zm-57.997-21.62c-.067 1.345-.126 3.068-.177 5.354-.103 4.591-3.919 8.327-8.507 8.327h-47.1v-49.555h16.671c3.009 0 5.929 1.246 8.011 3.419zm-99.725-72.706h27.571c13.582 0 25.038 9.28 28.36 21.832h-19.49c-4.142 0-7.5 3.358-7.5 7.5v134.518h-28.941zm-216.65 81.536c54.893 16.408 100.47 38.597 138.974 67.689-.466-.014-.931-.035-1.401-.035-13.395 0-25.484 5.645-34.013 14.66h-111.418c-8.529-9.015-20.618-14.66-34.013-14.66-13.396 0-25.484 5.645-34.014 14.66h-21.964v-105.144c38.524 7.145 69.729 14.425 97.849 22.83zm91.453 106.655h-87.205c-.53-3.239-1.401-6.363-2.569-9.342h92.343c-1.167 2.98-2.038 6.104-2.569 9.342zm-194.385 0c-2.395 0-4.342-1.948-4.342-4.342v-.658c0-2.394 1.948-4.342 4.342-4.342h17.51c-1.172 2.989-2.045 6.125-2.575 9.375-.217-.019-.436-.033-.657-.033zm61.061 39.002c-17.499 0-31.736-14.132-31.736-31.502s14.237-31.502 31.736-31.502 31.736 14.132 31.736 31.502c0 17.371-14.237 31.502-31.736 31.502zm179.444 0c-17.499 0-31.736-14.132-31.736-31.502s14.237-31.502 31.736-31.502c17.5 0 31.736 14.132 31.736 31.502 0 17.371-14.237 31.502-31.736 31.502zm45.167-63.344v-107.762h18.91v107.762zm91.205 0h-13.354v-62.463h47.1c12.62 0 23.123-10.224 23.495-22.825l11.742 1.656v28.607c0 9.387 7.636 17.023 17.023 17.023h14.565l.174 38.002h-30.747c-.518 0-1.024.053-1.512.153-8.537-9.104-20.688-14.812-34.16-14.812-13.403 0-25.498 5.651-34.028 14.675-.098-.004-.197-.016-.298-.016zm34.328 63.344c-17.499 0-31.736-14.132-31.736-31.502s14.237-31.502 31.736-31.502 31.736 14.132 31.736 31.502c0 17.371-14.237 31.502-31.736 31.502zm66.453-41.07c0 1.141-.928 2.069-2.069 2.069h-18.265c-.53-3.239-1.402-6.363-2.569-9.342h22.903z"/><path d="m430.547 318.197c-11.726 0-21.266 9.503-21.266 21.184 0 11.68 9.54 21.183 21.266 21.183s21.266-9.503 21.266-21.183c0-11.681-9.54-21.184-21.266-21.184zm0 27.367c-3.455 0-6.266-2.774-6.266-6.183 0-3.41 2.811-6.184 6.266-6.184s6.266 2.774 6.266 6.184c0 3.409-2.811 6.183-6.266 6.183z"/><path d="m259.847 318.197c-11.726 0-21.266 9.503-21.266 21.184 0 11.68 9.539 21.183 21.266 21.183 11.726 0 21.266-9.503 21.266-21.183 0-11.681-9.54-21.184-21.266-21.184zm0 27.367c-3.455 0-6.266-2.774-6.266-6.183 0-3.41 2.811-6.184 6.266-6.184s6.266 2.774 6.266 6.184c0 3.409-2.811 6.183-6.266 6.183z"/><path d="m80.403 318.197c-11.726 0-21.266 9.503-21.266 21.184 0 11.68 9.54 21.183 21.266 21.183s21.266-9.503 21.266-21.183c0-11.681-9.54-21.184-21.266-21.184zm0 27.367c-3.455 0-6.266-2.774-6.266-6.183 0-3.41 2.81-6.184 6.266-6.184s6.266 2.774 6.266 6.184c0 3.409-2.811 6.183-6.266 6.183z"/><path d="m406.831 269.091c4.142 0 7.5-3.358 7.5-7.5s-3.358-7.5-7.5-7.5h-5.809c-4.142 0-7.5 3.358-7.5 7.5s3.358 7.5 7.5 7.5z"/></g></svg>