<svg id="Capa_1" enable-background="new 0 0 512 512" height="512" viewBox="0 0 512 512" width="512" xmlns="http://www.w3.org/2000/svg"><g><path d="m283.526 310.073h-193.462c-43.536 0-78.829-35.293-78.829-78.829 0-43.536 35.293-78.829 78.829-78.829h193.462c43.536 0 78.829 35.293 78.829 78.829 0 43.536-35.293 78.829-78.829 78.829z" fill="#bed9fd"/><path d="m283.526 152.414h-30c43.536 0 78.829 35.293 78.829 78.829 0 43.536-35.293 78.829-78.829 78.829h30c43.536 0 78.829-35.293 78.829-78.829 0-43.536-35.293-78.829-78.829-78.829z" fill="#9ec8fc"/><path d="m473.336 311.036h-121.76v-158.622h70.032c2.928 0 5.728 1.193 7.747 3.3l52.867 55.168c1.895 1.977 2.952 4.609 2.952 7.348v80.969c-.001 6.538-5.301 11.837-11.838 11.837z" fill="#62a4fb"/><path d="m482.221 210.882-52.867-55.168c-2.019-2.107-4.819-3.3-7.747-3.3h-30c2.928 0 5.728 1.193 7.747 3.3l52.867 55.168c1.895 1.977 2.952 4.609 2.952 7.348v80.969c0 6.538-5.3 11.837-11.838 11.837h30c6.538 0 11.838-5.3 11.838-11.837v-80.969c0-2.739-1.057-5.371-2.952-7.348z" fill="#5392f9"/><path d="m166.056 152.414h-59.002v-21.626c0-4.801 3.892-8.692 8.692-8.692h41.618c4.801 0 8.692 3.892 8.692 8.692z" fill="#8c818f"/><path d="m456.341 262.977v1.366c0 7.108 5.762 12.869 12.87 12.869h15.963v-27.105h-15.964c-7.108.001-12.869 5.763-12.869 12.87z" fill="#f8e076"/><path d="m484.892 212.644-33.521-34.98h-53.194c-5.348 0-9.683 4.335-9.683 9.683v27.944c0 5.348 4.335 9.683 9.683 9.683h86.996v-11.63c0-.261-.1-.512-.281-.7z" fill="#fbfbfb"/><path d="m129.767 310.073h361.333c7.401 0 13.4 5.999 13.4 13.4v3.878c0 7.401-5.999 13.4-13.4 13.4h-470.2c-7.401 0-13.4-6-13.4-13.4v-3.878c0-7.401 5.999-13.4 13.4-13.4h18.867" fill="#c8c3ca"/><ellipse cx="405.397" cy="340.751" fill="#8c818f" rx="49.449" ry="49.153"/><ellipse cx="405.397" cy="340.751" fill="#c8c3ca" rx="17.349" ry="17.245"/><ellipse cx="82.996" cy="340.751" fill="#8c818f" rx="49.449" ry="49.153"/><ellipse cx="82.996" cy="340.751" fill="#c8c3ca" rx="17.349" ry="17.245"/><ellipse cx="217.505" cy="340.751" fill="#8c818f" rx="49.449" ry="49.153"/><path d="m484.892 212.644-33.521-34.98h-30l33.521 34.98c.18.189.281.439.281.7v11.629h30v-11.629c0-.261-.1-.512-.281-.7z" fill="#e7e7e7"/><g fill="#766d78"><path d="m405.397 291.597c-5.23 0-10.268.813-15 2.309 19.975 6.315 34.449 24.896 34.449 46.844 0 21.947-14.474 40.529-34.449 46.844 4.732 1.496 9.77 2.309 15 2.309 27.31 0 49.449-22.007 49.449-49.153-.001-27.146-22.14-49.153-49.449-49.153z"/><path d="m82.996 291.597c-5.23 0-10.268.813-15 2.309 19.975 6.315 34.449 24.896 34.449 46.844 0 21.947-14.474 40.529-34.449 46.844 4.732 1.496 9.77 2.309 15 2.309 27.31 0 49.449-22.007 49.449-49.153-.001-27.146-22.14-49.153-49.449-49.153z"/><path d="m217.505 291.597c-5.23 0-10.268.813-15 2.309 19.975 6.315 34.449 24.896 34.449 46.844 0 21.947-14.474 40.529-34.449 46.844 4.732 1.496 9.77 2.309 15 2.309 27.31 0 49.449-22.007 49.449-49.153-.001-27.146-22.14-49.153-49.449-49.153z"/></g><ellipse cx="217.505" cy="340.751" fill="#c8c3ca" rx="17.349" ry="17.245"/><path d="m143.046 234.677c0 12.521-10.15 22.671-22.671 22.671s-22.671-10.15-22.671-22.671c0-9.794 13.873-31.58 19.914-40.604 1.316-1.965 4.197-1.965 5.513 0 6.043 9.024 19.915 30.81 19.915 40.604z" fill="#62a4fb"/><path d="m405.396 316.005c-13.702 0-24.849 11.101-24.849 24.746s11.147 24.745 24.849 24.745 24.849-11.101 24.849-24.745c.001-13.645-11.147-24.746-24.849-24.746zm0 34.491c-5.431 0-9.849-4.372-9.849-9.745 0-5.374 4.418-9.746 9.849-9.746s9.849 4.372 9.849 9.746c.001 5.373-4.418 9.745-9.849 9.745z"/><path d="m389.007 261.318h8.533c4.142 0 7.5-3.358 7.5-7.5s-3.358-7.5-7.5-7.5h-8.533c-4.142 0-7.5 3.358-7.5 7.5s3.358 7.5 7.5 7.5z"/><path d="m82.996 316.005c-13.702 0-24.849 11.101-24.849 24.746s11.147 24.745 24.849 24.745 24.849-11.101 24.849-24.745c0-13.645-11.148-24.746-24.849-24.746zm0 34.491c-5.431 0-9.849-4.372-9.849-9.745 0-5.374 4.418-9.746 9.849-9.746s9.849 4.372 9.849 9.746c0 5.373-4.419 9.745-9.849 9.745z"/><path d="m217.504 316.005c-13.702 0-24.849 11.101-24.849 24.746s11.147 24.745 24.849 24.745 24.849-11.101 24.849-24.745c.001-13.645-11.147-24.746-24.849-24.746zm0 34.491c-5.431 0-9.849-4.372-9.849-9.745 0-5.374 4.418-9.746 9.849-9.746s9.849 4.372 9.849 9.746c.001 5.373-4.418 9.745-9.849 9.745z"/><path d="m120.375 185.099c-3.615.001-6.975 1.795-8.987 4.801-14.056 20.993-21.183 36.058-21.183 44.776 0 16.636 13.535 30.171 30.171 30.171s30.171-13.535 30.171-30.171c0-8.719-7.126-23.784-21.183-44.777-2.014-3.005-5.374-4.8-8.989-4.8zm15.171 49.578c0 8.365-6.806 15.171-15.171 15.171s-15.171-6.806-15.171-15.171c0-3.866 4.724-14.819 15.171-31.127 10.447 16.308 15.171 27.261 15.171 31.127z"/><path d="m256.368 185.542h-38.863c-4.142 0-7.5 3.358-7.5 7.5s3.358 7.5 7.5 7.5h38.863c4.142 0 7.5-3.358 7.5-7.5s-3.358-7.5-7.5-7.5z"/><path d="m256.368 217.473h-38.863c-4.142 0-7.5 3.358-7.5 7.5s3.358 7.5 7.5 7.5h38.863c4.142 0 7.5-3.358 7.5-7.5s-3.358-7.5-7.5-7.5z"/><path d="m256.368 249.405h-38.863c-4.142 0-7.5 3.358-7.5 7.5s3.358 7.5 7.5 7.5h38.863c4.142 0 7.5-3.358 7.5-7.5s-3.358-7.5-7.5-7.5z"/><path d="m492.356 302.636c.201-1.124.318-2.271.318-3.437v-80.969c0-4.695-1.789-9.147-5.037-12.537l-52.867-55.168c-3.417-3.566-8.214-5.611-13.162-5.611h-70.032c-4.142 0-7.5 3.358-7.5 7.5v17.301c-15.997-15.747-37.646-24.801-60.549-24.801h-16.59c-4.142 0-7.5 3.358-7.5 7.5s3.358 7.5 7.5 7.5h16.59c23.733 0 45.846 11.758 59.151 31.454.4.593.876 1.102 1.398 1.541v76.186c-.193.232-.379.474-.547.735-13.215 20.503-35.646 32.743-60.003 32.743h-23.315-.671c-10.421-11.345-25.406-18.475-42.036-18.475-16.629 0-31.614 7.13-42.035 18.475h-50.438c-10.421-11.345-25.406-18.475-42.036-18.475-10.854 0-21.007 3.04-29.648 8.303-21.391-12.874-34.612-36.144-34.612-61.157 0-39.331 31.998-71.329 71.329-71.329h146.872c4.142 0 7.5-3.358 7.5-7.5s-3.358-7.5-7.5-7.5h-63.38v-14.126c0-8.929-7.264-16.192-16.192-16.192h-41.618c-8.929 0-16.192 7.264-16.192 16.192v14.126h-9.489c-47.602 0-86.329 38.727-86.329 86.329 0 28.49 14.173 55.109 37.417 71.129-.091.098-.188.191-.278.29-.362-.054-.729-.09-1.106-.09h-18.869c-11.524 0-20.9 9.376-20.9 20.9v3.877c0 11.524 9.375 20.9 20.9 20.9h5.661c3.702 27.704 27.59 49.153 56.434 49.153 28.845 0 52.732-21.449 56.434-49.153h21.641c3.702 27.704 27.59 49.153 56.434 49.153 28.845 0 52.733-21.449 56.434-49.153h12.729c4.142 0 7.5-3.358 7.5-7.5s-3.358-7.5-7.5-7.5h-12.729c-.737-5.515-2.273-10.779-4.49-15.678h14.078 69.926c-2.218 4.899-3.753 10.163-4.49 15.678h-32.295c-4.142 0-7.5 3.358-7.5 7.5s3.358 7.5 7.5 7.5h32.295c3.702 27.704 27.59 49.153 56.434 49.153 28.845 0 52.733-21.449 56.434-49.153h29.27c11.524 0 20.9-9.376 20.9-20.9v-3.877c0-11.101-8.705-20.182-19.644-20.837zm-377.803-171.848c0-.658.535-1.192 1.192-1.192h41.618c.657 0 1.192.535 1.192 1.192v14.126h-44.002zm51.008 186.784c-2.218 4.899-3.753 10.163-4.49 15.678h-21.641c-.737-5.515-2.272-10.779-4.49-15.678zm-150.561 9.778v-3.877c0-3.253 2.646-5.9 5.9-5.9h10.152c-2.218 4.899-3.753 10.163-4.49 15.678h-5.662c-3.254 0-5.9-2.647-5.9-5.901zm67.996 55.054c-23.13 0-41.949-18.686-41.949-41.653 0-22.968 18.818-41.653 41.949-41.653 23.13 0 41.949 18.686 41.949 41.653-.001 22.967-18.819 41.653-41.949 41.653zm134.508 0c-23.13 0-41.948-18.686-41.948-41.653 0-22.968 18.818-41.653 41.948-41.653s41.949 18.686 41.949 41.653-18.818 41.653-41.949 41.653zm260.169-112.691h-8.463c-2.961 0-5.37-2.409-5.37-5.369v-1.366c0-2.96 2.409-5.369 5.37-5.369h8.463zm-.104-52.24h-79.392c-1.204 0-2.183-.98-2.183-2.183v-27.944c0-1.204.979-2.183 2.183-2.183h49.011l29.618 30.908c.38.397.633.881.763 1.402zm-133.493 75.334v9.766h-11.862c4.215-2.883 8.188-6.144 11.862-9.766zm15 9.765v-142.658h62.532c.879 0 1.729.36 2.331.989l8.874 9.26h-34.636c-9.475 0-17.183 7.708-17.183 17.183v27.944c0 9.475 7.708 17.183 17.183 17.183h79.496v10.135h-8.463c-11.232 0-20.37 9.138-20.37 20.369v1.366c0 11.232 9.138 20.369 20.37 20.369h8.463v14.486c0 1.158-.451 2.248-1.27 3.067-.099.099-.185.204-.277.307h-28.694c-10.421-11.345-25.406-18.475-42.036-18.475-16.629 0-31.614 7.13-42.035 18.475zm46.32 79.832c-23.13 0-41.948-18.686-41.948-41.653 0-22.968 18.818-41.653 41.948-41.653s41.949 18.686 41.949 41.653-18.818 41.653-41.949 41.653zm91.604-55.054c0 3.253-2.647 5.9-5.9 5.9h-29.269c-.737-5.515-2.273-10.779-4.49-15.678h33.759c3.253 0 5.9 2.647 5.9 5.9z"/></g></svg>