<?xml version="1.0" encoding="iso-8859-1"?>
<!-- Generator: Adobe Illustrator 19.0.0, SVG Export Plug-In . SVG Version: 6.00 Build 0)  -->
<svg version="1.1" id="Capa_1" xmlns="http://www.w3.org/2000/svg" xmlns:xlink="http://www.w3.org/1999/xlink" x="0px" y="0px"
	 viewBox="0 0 512 512" style="enable-background:new 0 0 512 512;" xml:space="preserve">
<path style="fill:#C0272D;" d="M355.182,114.143c5.5,0,10,4.5,10,10v14.714c0,4.618-3.177,8.519-7.449,9.656v38.076
	c11.627,1.488,20.615,11.415,20.615,23.446v17.555c1.133-0.093,2.275-0.153,3.432-0.153c5.596,0,10.929,1.119,15.795,3.136v-94.962
	C397.574,64.857,340.217,7.5,269.461,7.5h-15.87c-63.451,0-116.114,46.131-126.31,106.682
	C127.537,114.162,355.182,114.143,355.182,114.143z"/>
<path style="opacity:0.15;fill:#490089;enable-background:new    ;" d="M156.717,114.143
	c9.848-58.362,59.146-103.318,119.526-106.464c-2.246-0.117-4.507-0.179-6.782-0.179h-15.87
	c-63.451,0-116.114,46.131-126.31,106.682C127.537,114.162,156.717,114.143,156.717,114.143z"/>
<path style="fill:#FFFFFF;" d="M381.779,227.436c-1.156,0-2.299,0.06-3.432,0.153v8.146c0,12.031-8.988,21.957-20.615,23.445v15.413
	c0,8.203-1.688,16.218-4.822,23.623c7.444,7.286,17.629,11.784,28.869,11.784c22.799,0,41.281-18.482,41.281-41.282
	C423.061,245.919,404.578,227.436,381.779,227.436z"/>
<path style="fill:#C0272D;" d="M349.097,355.25h-21.402c-5.946,6.494-14.332,10.735-23.771,11.236
	c-0.799,0.042-1.549,0.402-2.08,0.999c-0.533,0.597-0.805,1.382-0.756,2.181c0.043,0.699,0.064,1.406,0.064,2.102
	c0,19.171-15.596,34.768-34.768,34.768c-8.36,0-16.458-3.03-22.801-8.532c-0.564-0.489-1.266-0.734-1.966-0.734
	c-0.701,0-1.402,0.245-1.966,0.734c-6.343,5.502-14.44,8.532-22.802,8.532c-19.171,0-34.768-15.597-34.768-34.768
	c0-0.698,0.021-1.404,0.064-2.101c0.05-0.799-0.222-1.584-0.754-2.182c-0.533-0.597-1.282-0.958-2.081-0.999
	c-9.439-0.501-17.825-4.742-23.771-11.236h-21.4c-24.964,0-45.201,20.243-45.201,45.213V494.5c0,5.5,4.5,10,10,10h285.357
	c5.5,0,10-4.5,10-10v-94.038C394.297,375.493,374.06,355.25,349.097,355.25z"/>
<path style="opacity:0.15;fill:#490089;enable-background:new    ;" d="M156.064,355.816c-0.178-0.186-0.35-0.377-0.523-0.566h-21.4
	c-24.964,0-45.201,20.243-45.201,45.213V494.5c0,5.5,4.5,10,10,10H128c-5.5,0-10-4.5-10-10v-94.038
	C118,377.922,134.492,359.239,156.064,355.816z"/>
<g>
	<path style="fill:#FFFFFF;" d="M241.618,397.269c-0.701,0-1.402,0.245-1.966,0.734c-6.343,5.502-14.44,8.532-22.802,8.532
		c-5.735,0-11.146-1.405-15.92-3.875V504.5h40.81V397.28C241.7,397.277,241.659,397.269,241.618,397.269z"/>
	<path style="fill:#FFFFFF;" d="M266.385,406.535c-8.36,0-16.458-3.03-22.801-8.532c-0.564-0.489-1.266-0.734-1.966-0.734
		c-0.041,0-0.082,0.009-0.123,0.011V504.5h40.81V402.66C277.531,405.13,272.12,406.535,266.385,406.535z"/>
</g>
<g>
	<path style="fill:#FFC7A9;" d="M125.503,186.589c-11.627,1.489-20.614,11.415-20.614,23.445v25.701
		c0,12.031,8.987,21.956,20.614,23.445V186.589z"/>
	<path style="fill:#FFC7A9;" d="M357.732,186.588v72.592c11.627-1.488,20.615-11.414,20.615-23.445v-25.701
		C378.348,198.003,369.359,188.077,357.732,186.588z"/>
	<path style="fill:#FFC7A9;" d="M179.408,289.017c0.567,0.536,1.308,0.817,2.059,0.817c0.401,0,0.806-0.08,1.189-0.246
		c1.1-0.474,1.811-1.557,1.811-2.754v-34.562c0-9.658,7.857-17.515,17.515-17.515h26.904v3.716c0,5.007,4.096,9.104,9.103,9.104
		h18.708c5.007,0,9.103-4.097,9.103-9.104v-3.716h15.455c9.658,0,17.516,7.857,17.516,17.515v34.562c0,1.197,0.711,2.28,1.811,2.754
		c0.383,0.165,0.787,0.246,1.188,0.246c0.752,0,1.492-0.282,2.061-0.817c18.262-17.224,28.318-40.583,28.318-65.775v-74.386H151.09
		v74.386C151.09,248.434,161.146,271.793,179.408,289.017z"/>
</g>
<path style="opacity:0.15;fill:#490089;enable-background:new    ;" d="M176.398,148.857H151.09v74.386
	c0,25.191,10.057,48.55,28.318,65.774c0.567,0.536,1.308,0.817,2.059,0.817c0.401,0,0.806-0.08,1.189-0.246
	c1.1-0.474,1.811-1.557,1.811-2.754v-24.903c-5.178-11.675-8.068-24.589-8.068-38.184v-74.89H176.398z"/>
<path style="fill:#E6E9ED;" d="M355.182,148.857h-23.035v74.386c0,25.192-10.057,48.551-28.318,65.775
	c-0.568,0.536-1.309,0.817-2.061,0.817c-0.4,0-0.805-0.081-1.188-0.246c-1.1-0.474-1.811-1.557-1.811-2.754v-34.562
	c0-9.658-7.857-17.515-17.516-17.515h-15.455v3.716c0,5.007-4.096,9.104-9.103,9.104h-18.708c-5.007,0-9.103-4.097-9.103-9.104
	v-3.716H201.98c-9.657,0-17.515,7.857-17.515,17.515v34.562c0,1.197-0.712,2.28-1.811,2.754c-0.383,0.165-0.787,0.246-1.189,0.246
	c-0.751,0-1.491-0.282-2.059-0.817c-18.262-17.224-28.318-40.583-28.318-65.774v-74.386h-23.036c-0.882,0-1.734-0.127-2.551-0.344
	v126.081c0,17.559,7.641,34.293,20.964,45.913c0.847,0.737,1.21,1.886,0.942,2.976c-0.664,2.705-1,5.493-1,8.285
	c0,18.49,14.453,33.74,32.903,34.718c0.799,0.042,1.548,0.402,2.081,0.999c0.532,0.598,0.804,1.383,0.754,2.182
	c-0.043,0.696-0.064,1.403-0.064,2.101c0,19.171,15.597,34.768,34.768,34.768c8.361,0,16.459-3.03,22.802-8.532
	c0.564-0.489,1.265-0.734,1.966-0.734c0.7,0,1.402,0.245,1.966,0.734c6.343,5.502,14.44,8.532,22.801,8.532
	c19.172,0,34.768-15.597,34.768-34.768c0-0.696-0.021-1.403-0.064-2.102c-0.049-0.799,0.223-1.583,0.756-2.181
	c0.531-0.597,1.281-0.957,2.08-0.999c18.449-0.979,32.902-16.229,32.902-34.718c0-2.795-0.336-5.582-1-8.284
	c-0.268-1.09,0.096-2.239,0.941-2.977c13.324-11.618,20.965-28.353,20.965-45.913V148.513
	C356.916,148.73,356.065,148.857,355.182,148.857z"/>
<g>
	<ellipse style="fill:#775436;" cx="191.59" cy="203.47" rx="13.477" ry="13.529"/>
	<ellipse style="fill:#775436;" cx="291.64" cy="203.47" rx="13.478" ry="13.529"/>
</g>
<path style="fill:#FFFFFF;" d="M365.182,138.857c0,5.5-4.5,10-10,10H128.054c-5.5,0-10-4.5-10-10v-14.714c0-5.5,4.5-10,10-10
	h227.128c5.5,0,10,4.5,10,10V138.857z"/>
<g style="opacity:0.15;">
	<path style="fill:#3D0072;" d="M148,138.857v-14.714c0-5.5,4.5-10,10-10h-29.946c-5.5,0-10,4.5-10,10v14.714c0,5.5,4.5,10,10,10
		H158C152.5,148.857,148,144.357,148,138.857z"/>
</g>
<path style="fill:#FB8276;" d="M230.285,322.614c-11.41,0-20.693-9.284-20.693-20.694v-28.578c0-1.632,1.323-2.957,2.956-2.957
	h58.14c1.633,0,2.957,1.324,2.957,2.957v28.578c0,11.41-9.283,20.694-20.694,20.694H230.285z"/>
<path style="fill:#FFFFFF;" d="M270.688,270.386h-58.14c-1.633,0-2.956,1.324-2.956,2.957V289h64.053v-15.658
	C273.644,271.71,272.32,270.386,270.688,270.386z"/>
<path d="M166.2,170.697c-2.929,2.929-2.929,7.678,0,10.606c1.464,1.465,3.384,2.197,5.303,2.197c1.92,0,3.839-0.732,5.303-2.197
	c8.054-8.054,21.16-8.054,29.215,0c2.929,2.929,7.678,2.929,10.606-0.001c2.929-2.929,2.928-7.678-0.001-10.606
	C202.723,156.794,180.101,156.794,166.2,170.697z"/>
<path d="M291.82,160.246c-9.521,0-18.476,3.711-25.214,10.451c-2.929,2.929-2.929,7.678,0.001,10.606
	c2.928,2.929,7.677,2.929,10.607-0.001c3.905-3.906,9.093-6.057,14.606-6.057c5.515,0,10.702,2.151,14.609,6.057
	c1.464,1.465,3.384,2.197,5.303,2.197s3.839-0.732,5.304-2.197c2.929-2.929,2.929-7.678-0.001-10.606
	C310.296,163.958,301.341,160.246,291.82,160.246z"/>
<path d="M191.595,182.442c-11.566,0-20.976,9.434-20.976,21.029c0,11.596,9.41,21.029,20.976,21.029
	c11.566,0,20.977-9.434,20.977-21.029C212.571,191.876,203.161,182.442,191.595,182.442z M191.595,209.5
	c-3.295,0-5.976-2.705-5.976-6.029s2.681-6.029,5.976-6.029c3.295,0,5.977,2.705,5.977,6.029
	C197.571,206.795,194.89,209.5,191.595,209.5z"/>
<path d="M291.641,182.442c-11.567,0-20.979,9.434-20.979,21.029c0,11.596,9.411,21.029,20.979,21.029
	c11.566,0,20.977-9.434,20.977-21.029C312.617,191.876,303.207,182.442,291.641,182.442z M291.641,209.5
	c-3.297,0-5.979-2.705-5.979-6.029s2.682-6.029,5.979-6.029c3.296,0,5.977,2.705,5.977,6.029
	C297.617,206.795,294.936,209.5,291.641,209.5z"/>
<path d="M355.44,309.737c7.603,4.902,16.64,7.763,26.34,7.763c26.898,0,48.781-21.883,48.781-48.782
	c0-18.467-10.315-34.569-25.486-42.85v-90.257C405.074,60.835,344.238,0,269.461,0h-15.87c-35.905,0-69.744,13.894-95.285,39.124
	c-19.345,19.109-32.244,43.056-37.56,69.139c-6.006,2.775-10.192,8.841-10.192,15.88v14.714c0,5.909,2.952,11.132,7.449,14.303
	v27.572c-12.005,4.327-20.614,15.825-20.614,29.303v25.701c0,13.478,8.609,24.975,20.614,29.302v9.556
	c0,18.839,7.823,36.828,21.558,49.773c-0.433,2.439-0.652,4.918-0.652,7.4c0,5.649,1.119,11.044,3.136,15.982h-7.905
	c-29.06,0-52.701,23.647-52.701,52.713V494.5c0,9.649,7.851,17.5,17.5,17.5h285.357c9.649,0,17.5-7.851,17.5-17.5v-94.038
	c0-29.066-23.642-52.713-52.7-52.713h-7.906c2.018-4.939,3.136-10.334,3.136-15.982c0-2.485-0.219-4.965-0.651-7.401
	C348.296,320.012,352.23,315.075,355.44,309.737z M415.561,268.718c0,18.627-15.154,33.782-33.781,33.782
	c-7.478,0-14.389-2.452-19.992-6.582c2.25-6.817,3.445-14.004,3.445-21.325v-9.556c12.005-4.326,20.615-15.823,20.615-29.302v-0.546
	C402.563,237.206,415.561,251.469,415.561,268.718z M365.232,247.952v-50.134c3.435,2.96,5.615,7.336,5.615,12.217v25.701
	C370.848,240.616,368.667,244.992,365.232,247.952z M112.389,235.735v-25.701c0-4.88,2.18-9.255,5.614-12.216v50.132
	C114.569,244.99,112.389,240.615,112.389,235.735z M125.554,138.857v-14.714c0-1.355,1.145-2.5,2.5-2.5H186
	c4.142,0,7.5-3.358,7.5-7.5s-3.358-7.5-7.5-7.5h-49.495c5.251-21.391,16.293-40.993,32.342-56.847
	C191.562,27.357,221.658,15,253.591,15h15.87c66.507,0,120.613,54.106,120.613,120.611v85.045c-1.391-0.239-2.799-0.419-4.227-0.538
	v-10.085c0-13.479-8.61-24.976-20.615-29.303v-27.57c4.498-3.17,7.449-8.394,7.449-14.303v-14.714c0-9.649-7.85-17.5-17.5-17.5H233
	c-4.142,0-7.5,3.358-7.5,7.5s3.358,7.5,7.5,7.5h122.182c1.355,0,2.5,1.145,2.5,2.5v14.714c0,1.355-1.145,2.5-2.5,2.5H128.054
	C126.699,141.357,125.554,140.212,125.554,138.857z M96.439,494.5v-94.038c0-20.795,16.913-37.713,37.701-37.713h18.288
	c6.014,5.585,13.662,9.453,22.191,10.779c0.574,13.92,7.916,26.119,18.812,33.4V497H98.939C97.584,497,96.439,495.855,96.439,494.5z
	 M241.495,449.5c4.142,0,7.5-3.358,7.5-7.5v-31.724c5.43,2.456,11.353,3.758,17.39,3.758c2.883,0,5.698-0.293,8.42-0.845V497h-25.81
	v-17c0-4.142-3.358-7.5-7.5-7.5s-7.5,3.358-7.5,7.5v17h-25.564v-83.81c2.722,0.552,5.537,0.845,8.42,0.845
	c5.947,0,11.781-1.266,17.145-3.651V442C233.995,446.142,237.353,449.5,241.495,449.5z M386.797,400.462V494.5
	c0,1.355-1.145,2.5-2.5,2.5h-94.492v-90.071c10.896-7.281,18.238-19.48,18.812-33.4c8.529-1.326,16.178-5.193,22.192-10.779h18.288
	C369.885,362.75,386.797,379.668,386.797,400.462z M331.837,314.854c-2.973,2.593-4.235,6.585-3.294,10.418
	c0.52,2.115,0.783,4.3,0.783,6.494c0,14.501-11.333,26.461-25.796,27.229c-2.782,0.146-5.439,1.423-7.281,3.494
	c-1.852,2.074-2.816,4.856-2.647,7.636c0.034,0.545,0.051,1.098,0.051,1.642c0,15.035-12.232,27.268-27.267,27.268
	c-6.555,0-12.907-2.379-17.884-6.695c-1.909-1.658-4.354-2.571-6.883-2.571c-2.529,0-4.974,0.913-6.88,2.568
	c-4.979,4.319-11.332,6.698-17.887,6.698c-15.035,0-27.268-12.233-27.268-27.268c0-0.544,0.017-1.096,0.05-1.634
	c0.173-2.776-0.789-5.559-2.645-7.644c-1.852-2.075-4.506-3.348-7.278-3.494c-14.468-0.768-25.801-12.728-25.801-27.229
	c0-2.193,0.264-4.379,0.784-6.497c0.941-3.835-0.323-7.827-3.296-10.416c-11.689-10.195-18.394-24.869-18.394-40.261V156.357h10.587
	v66.886c0,27.278,10.893,52.575,30.67,71.228c1.956,1.847,4.516,2.864,7.207,2.864c1.441,0,2.843-0.29,4.158-0.858
	c3.852-1.661,6.342-5.446,6.342-9.642v-34.562c0-5.522,4.493-10.015,10.015-10.015h19.856c1.719,7.335,8.299,12.819,16.151,12.819
	h18.708c7.851,0,14.432-5.484,16.15-12.819h8.407c5.523,0,10.016,4.493,10.016,10.015v34.562c0,4.196,2.489,7.98,6.341,9.642
	c1.321,0.57,2.721,0.858,4.157,0.858c2.689,0,5.248-1.016,7.206-2.861c6.19-5.836,11.574-12.398,16.005-19.504
	c2.192-3.515,1.12-8.141-2.395-10.333c-3.513-2.191-8.14-1.121-10.332,2.395c-1.81,2.901-3.809,5.696-5.983,8.369v-23.129
	c0-13.793-11.222-25.015-25.016-25.015h-9.182c-1.34-2.043-3.648-3.395-6.273-3.395c-4.143,0-7.5,3.358-7.5,7.5v7.111
	c0,0.869-0.733,1.604-1.603,1.604h-18.708c-0.869,0-1.603-0.734-1.603-1.604v-38.146c0-4.142-3.358-7.5-7.5-7.5s-7.5,3.358-7.5,7.5
	v26.931h-19.404c-13.793,0-25.015,11.222-25.015,25.015v23.126c-11.92-14.665-18.377-32.82-18.377-52.156v-66.886h166.057v66.886
	c0,3.621-0.229,7.257-0.682,10.809c-0.524,4.109,2.383,7.864,6.491,8.388c4.106,0.521,7.864-2.383,8.388-6.492
	c0.533-4.178,0.803-8.453,0.803-12.705v-66.886h10.586v118.236C350.232,289.986,343.528,304.66,331.837,314.854z"/>
<path d="M270.688,262.886h-58.14c-5.766,0-10.456,4.691-10.456,10.457v28.578c0,15.546,12.648,28.194,28.193,28.194h22.665
	c15.547,0,28.194-12.648,28.194-28.194v-28.578C281.144,267.577,276.453,262.886,270.688,262.886z M266.144,301.92
	c0,7.275-5.919,13.194-13.194,13.194h-22.665c-7.275,0-13.193-5.919-13.193-13.194v-5.42h49.053v5.42H266.144z M266.144,281.5
	h-49.053v-3.614h49.053V281.5z"/>
<g>
</g>
<g>
</g>
<g>
</g>
<g>
</g>
<g>
</g>
<g>
</g>
<g>
</g>
<g>
</g>
<g>
</g>
<g>
</g>
<g>
</g>
<g>
</g>
<g>
</g>
<g>
</g>
<g>
</g>
</svg>
