<?xml version="1.0" encoding="iso-8859-1"?>
<!-- Generator: Adobe Illustrator 19.0.0, SVG Export Plug-In . SVG Version: 6.00 Build 0)  -->
<svg version="1.1" id="Capa_1" xmlns="http://www.w3.org/2000/svg" xmlns:xlink="http://www.w3.org/1999/xlink" x="0px" y="0px"
	 viewBox="0 0 512 512" style="enable-background:new 0 0 512 512;" xml:space="preserve">
<path style="fill:#D19546;" d="M394.918,355.25H294.095c-1.65,0-3-1.35-3-3v-23.055c0.133-0.048,0.262-0.103,0.394-0.152
	c-11.373,4.189-23.662,6.483-36.489,6.483c-12.829,0-25.121-2.295-36.495-6.485c0.135,0.049,0.266,0.105,0.4,0.154v23.055
	c0,1.65-1.35,3-3,3H115.082c-8.25,0-15,6.75-15,15V494.5c0,5.5,4.5,10,10,10h289.836c5.5,0,10-4.5,10-10V370.25
	C409.918,362,403.168,355.25,394.918,355.25z"/>
<g>
	<path style="fill:#FCDB67;" d="M379.231,215.165v4.764l24.503-43.865c-3.2,1.14-6.644,1.765-10.234,1.765h-32.883v16.065
		C371.123,195.299,379.231,204.274,379.231,215.165z"/>
	<path style="fill:#FCDB67;" d="M130.768,215.165c0-10.89,8.11-19.865,18.615-21.271v-16.065H118.5
		c-3.591,0-7.034-0.626-10.234-1.765l22.502,40.283V215.165z"/>
</g>
<g>
	<path style="fill:#FFC7A9;" d="M149.383,229.909v-36.016c-10.505,1.406-18.615,10.382-18.615,21.271v23.352
		c0,11.865,9.619,21.483,21.484,21.483h1.488C150.91,250.463,149.383,240.365,149.383,229.909z"/>
	<path style="fill:#FFC7A9;" d="M360.617,193.894v36.016c0,10.456-1.527,20.554-4.357,30.091h1.489
		c11.865,0,21.482-9.618,21.482-21.483v-23.352C379.231,204.274,371.123,195.299,360.617,193.894z"/>
</g>
<path style="fill:#FFC502;" d="M349,116.829V101c0-43.63-35.37-79-79-79h-30c-43.63,0-79,35.37-79,79v15.829H349z"/>
<path style="opacity:0.15;fill:#490089;enable-background:new    ;" d="M191,116.829V101c0-43.63,35.37-79,79-79h-30
	c-43.63,0-79,35.37-79,79v15.829H191z"/>
<path style="fill:#FCDB67;" d="M251.057,60.185c2.169-1.69,5.719-1.69,7.889,0l15.067,11.737l2.039-59.425
	c0.094-2.749-2.079-4.997-4.829-4.997h-32.444c-2.75,0-4.923,2.248-4.829,4.997l2.039,59.425L251.057,60.185z"/>
<path style="fill:#FFFFFF;" d="M226.388,116.829h57.224l7.726-25.496c0.798-2.632-0.325-6.168-2.494-7.858l-29.899-23.29
	c-2.169-1.69-5.719-1.69-7.889,0l-29.901,23.291c-2.169,1.689-3.292,5.226-2.494,7.857L226.388,116.829z"/>
<g>
	<path style="fill:#FFC502;" d="M118.5,139.829c-12.775,0-23.709,7.857-28.25,18.999c4.541,11.143,15.475,19.001,28.25,19.001
		h30.883v-38L118.5,139.829L118.5,139.829z"/>
	<path style="fill:#FFC502;" d="M393.5,139.829h-32.883v38H393.5c12.775,0,23.709-7.857,28.25-19.001
		C417.209,147.686,406.275,139.829,393.5,139.829z"/>
	<path style="fill:#FFC502;" d="M100.082,484.294V494.5c0,5.5,4.5,10,10,10h133.14v-20.206H100.082z"/>
	<path style="fill:#FFC502;" d="M296,501.5v-17.206h-29.221V504.5H299C297.35,504.5,296,503.15,296,501.5z"/>
	<path style="fill:#FFC502;" d="M377,484.294V501.5c0,1.65-1.35,3-3,3h25.918c5.5,0,10-4.5,10-10v-10.206H377z"/>
	<rect x="100.08" y="438" style="fill:#FFC502;" width="143.14" height="20.21"/>
	<rect x="266.78" y="438" style="fill:#FFC502;" width="143.14" height="20.21"/>
</g>
<g style="opacity:0.15;">
	<path style="fill:#3D0072;" d="M130,494.5V370.25c0-8.25,6.75-15,15-15h-29.918c-8.25,0-15,6.75-15,15V494.5c0,5.5,4.5,10,10,10
		H140C134.5,504.5,130,500,130,494.5z"/>
</g>
<g>
	<path style="fill:#B2762F;" d="M318.276,314.479c-8.216,6.157-17.359,11.143-27.182,14.715v23.055c0,1.65,1.35,3,3,3h23.039
		c1.65,0,3-1.35,3-3v-35C320.134,316.004,319.363,314.931,318.276,314.479z"/>
	<path style="fill:#B2762F;" d="M191.724,314.479c-1.087,0.452-1.857,1.524-1.857,2.77v35c0,1.65,1.35,3,3,3h23.039
		c1.65,0,3-1.35,3-3v-23.055C209.083,325.623,199.94,320.637,191.724,314.479z"/>
	<rect x="243.22" y="408" style="fill:#B2762F;" width="23.557" height="96.5"/>
	<path style="fill:#B2762F;" d="M266.779,379.077v-44.208c-3.868,0.429-7.796,0.657-11.779,0.657c-3.982,0-7.91-0.228-11.778-0.657
		v44.208H266.779z"/>
</g>
<path style="fill:#FFC7A9;" d="M185.765,139.829l-36.382,45.256v44.825c0,58.33,47.287,105.617,105.617,105.617
	c58.331,0,105.617-47.287,105.617-105.617v-44.825l-36.382-45.256L185.765,139.829L185.765,139.829z"/>
<g style="opacity:0.15;">
	<path style="fill:#330068;" d="M169.784,229.909c0,38.193,16.358,71.648,40.863,90.198c3.944-5.671,9.521-10.121,16.051-12.663
		c-20.859-19.292-33.932-46.881-33.932-77.536v-90.081h-7.001l-15.981,19.879L169.784,229.909L169.784,229.909z"/>
</g>
<path style="fill:#FCDB67;" d="M255,335.526c16.877,0,32.826-3.965,46.976-11.005c-5.717-11.519-17.593-19.441-31.324-19.441
	h-31.304c-13.731,0-25.607,7.922-31.324,19.44C222.174,331.561,238.123,335.526,255,335.526z"/>
<g>
	<path style="fill:#FFC502;" d="M169.784,229.909v-70.202l-20.401,25.377v44.825c0,58.33,47.287,105.617,105.617,105.617
		C207.937,335.526,169.784,288.24,169.784,229.909z"/>
	<path style="fill:#FFC502;" d="M340.216,229.909c0,58.33-38.152,105.617-85.216,105.617c58.331,0,105.617-47.287,105.617-105.617
		v-44.825l-20.401-25.377V229.909z"/>
</g>
<g>
	<polygon style="fill:#F7931E;" points="324.235,139.829 360.617,185.085 360.617,139.829 	"/>
	<polygon style="fill:#F7931E;" points="149.383,139.829 149.383,185.085 185.765,139.829 	"/>
</g>
<g>
	<ellipse style="fill:#046699;" cx="205.52" cy="213.9" rx="13.477" ry="13.529"/>
	<ellipse style="fill:#046699;" cx="300.48" cy="213.9" rx="13.477" ry="13.529"/>
</g>
<path style="fill:#FFC502;" d="M290.316,405c0,1.65-1.35,3-3,3h-64.633c-1.65,0-3-1.35-3-3v-22.923c0-1.65,1.35-3,3-3h64.633
	c1.65,0,3,1.35,3,3V405z"/>
<path style="fill:#FCDB67;" d="M118.5,139.829h275c12.775,0,23.709,7.857,28.25,19c1.446-3.55,2.25-7.43,2.25-11.5
	c0-16.845-13.655-30.5-30.5-30.5h-275c-16.845,0-30.5,13.655-30.5,30.5c0,4.07,0.804,7.95,2.25,11.5
	C94.791,147.686,105.725,139.829,118.5,139.829z"/>
<g>
	<path style="fill:#B2762F;" d="M156,415c0,1.65-1.35,3-3,3h-16c-1.65,0-3-1.35-3-3v-36c0-1.65,1.35-3,3-3h16c1.65,0,3,1.35,3,3V415
		z"/>
	<path style="fill:#B2762F;" d="M377,501.5c0,1.65-1.35,3-3,3h-75c-1.65,0-3-1.35-3-3v-18.093c0-1.65,1.35-3,3-3h75
		c1.65,0,3,1.35,3,3V501.5z"/>
</g>
<path d="M238.908,242.769c0,9.65,7.283,17.5,16.235,17.5h8.735c4.142,0,7.5-3.358,7.5-7.5s-3.358-7.5-7.5-7.5h-8.735
	c-0.298,0-1.235-0.914-1.235-2.5V218c0-4.142-3.358-7.5-7.5-7.5s-7.5,3.358-7.5,7.5L238.908,242.769L238.908,242.769z"/>
<path d="M190.613,182.774c13.086-5.61,28.618-0.534,34.628,11.314c1.322,2.606,3.959,4.108,6.694,4.108
	c1.141,0,2.3-0.261,3.387-0.813c3.694-1.874,5.169-6.387,3.295-10.081c-9.517-18.763-33.706-26.979-53.916-18.314
	c-3.807,1.632-5.57,6.042-3.938,9.848C182.397,182.644,186.807,184.407,190.613,182.774z"/>
<path d="M269.08,187.302c-1.874,3.694-0.398,8.208,3.296,10.082c1.087,0.551,2.246,0.813,3.387,0.813
	c2.735,0,5.372-1.502,6.695-4.109c6.008-11.847,21.541-16.922,34.629-11.313c3.806,1.631,8.216-0.131,9.848-3.939
	c1.632-3.807-0.132-8.216-3.939-9.848C302.784,160.324,278.597,168.54,269.08,187.302z"/>
<path d="M205.524,192.866c-11.567,0-20.978,9.434-20.978,21.029c0,11.596,9.411,21.029,20.978,21.029
	c11.566,0,20.976-9.434,20.976-21.029C226.5,202.299,217.09,192.866,205.524,192.866z M205.524,219.924
	c-3.296,0-5.978-2.705-5.978-6.029s2.682-6.029,5.978-6.029c3.295,0,5.976,2.705,5.976,6.029S208.819,219.924,205.524,219.924z"/>
<path d="M300.477,192.866c-11.567,0-20.977,9.434-20.977,21.029c0,11.596,9.41,21.029,20.977,21.029
	c11.566,0,20.977-9.434,20.977-21.029C321.454,202.299,312.043,192.866,300.477,192.866z M300.477,219.924
	c-3.296,0-5.977-2.705-5.977-6.029s2.681-6.029,5.977-6.029c3.295,0,5.977,2.705,5.977,6.029
	C306.454,217.219,303.772,219.924,300.477,219.924z"/>
<path d="M280.375,270.5h-48.462c-4.142,0-7.5,3.358-7.5,7.5s3.358,7.5,7.5,7.5h48.462c4.142,0,7.5-3.358,7.5-7.5
	S284.517,270.5,280.375,270.5z"/>
<path d="M361.789,267.212c14.075-1.972,24.943-14.085,24.943-28.696v-16.635l22.273-39.874c13.243-5.945,22.495-19.248,22.495-34.68
	c0-20.953-17.047-38-38-38h-37V101c0-18.691-5.868-36.487-16.968-51.463c-2.467-3.328-7.163-4.026-10.491-1.559
	s-4.026,7.163-1.56,10.491C336.652,70.842,341.5,85.549,341.5,101v8.329h-47.778l4.794-15.82c1.707-5.628-0.423-12.336-5.063-15.95
	l-11.814-9.203l1.292-37.667c4.862,0.881,9.617,2.253,14.219,4.144c3.83,1.574,8.213-0.256,9.788-4.087
	c1.574-3.831-0.256-8.213-4.087-9.788c-6.263-2.573-12.754-4.362-19.401-5.392l0.097-2.813c0.116-3.38-1.109-6.575-3.45-8.998
	C277.756,1.334,274.604,0,271.222,0h-32.444c-3.382,0-6.534,1.334-8.874,3.756s-3.565,5.618-3.45,8.998l0.097,2.812
	C185.222,22.049,153.5,57.88,153.5,101v8.329h-35c-20.953,0-38,17.047-38,38c0,15.432,9.252,28.735,22.496,34.68l20.272,36.291
	v20.217c0,14.609,10.868,26.723,24.943,28.695c6.792,19.39,18.723,36.383,34.155,49.341v31.197h-67.284
	c-12.407,0-22.5,10.093-22.5,22.5V494.5c0,9.649,7.851,17.5,17.5,17.5h289.836c9.649,0,17.5-7.851,17.5-17.5V370.25
	c0-12.407-10.093-22.5-22.5-22.5h-14.919c-4.142,0-7.5,3.358-7.5,7.5s3.358,7.5,7.5,7.5h14.919c4.136,0,7.5,3.364,7.5,7.5v60.25
	H274.279v-15h13.038c5.79,0,10.5-4.71,10.5-10.5v-22.923c0-5.789-4.71-10.5-10.5-10.5h-13.038v-30.201
	c3.151-0.544,6.259-1.215,9.316-2.014v12.888c0,5.79,4.71,10.5,10.5,10.5H338c4.142,0,7.5-3.358,7.5-7.5s-3.358-7.5-7.5-7.5h-10.366
	v-30.5c0-0.225-0.022-0.445-0.035-0.668C343.047,303.621,354.991,286.617,361.789,267.212z M353.117,229.909
	c0,20.78-6.495,40.075-17.559,55.956c7.734-16.511,12.158-35.616,12.158-55.956v-48.902l5.401,6.718V229.909z M353.117,163.785
	l-13.23-16.456h13.23V163.785z M393.5,170.329h-25.383v-23H393.5c8.328,0,15.837,4.426,19.908,11.495
	C409.426,165.694,401.996,170.329,393.5,170.329z M389.968,185.329l-7.886,14.118c-3.316-5.116-8.198-9.124-13.965-11.341v-2.777
	H389.968z M371.731,238.517c0,4.431-2.082,8.371-5.308,10.93c1.11-6.349,1.693-12.876,1.693-19.538v-23.525v-0.574
	c2.24,2.48,3.615,5.756,3.615,9.354L371.731,238.517L371.731,238.517z M284.082,89.418l-6.034,19.911h-46.096l-6.034-19.911
	c0.014-0.063,0.037-0.134,0.061-0.193L255,66.619l29.02,22.605C284.045,89.284,284.068,89.355,284.082,89.418z M268.46,15
	l-1.44,41.969l-3.466-2.7c-2.36-1.838-5.398-2.851-8.554-2.851c-3.155,0-6.192,1.012-8.553,2.85l-3.468,2.702L241.54,15H268.46z
	 M168.5,101c0-35.008,25.299-64.188,58.569-70.292l1.292,37.648l-11.813,9.202c-4.639,3.613-6.769,10.321-5.064,15.95l4.794,15.82
	H168.5V101z M129.027,197.851l-6.995-12.522h19.851v2.777C136.73,190.087,132.282,193.496,129.027,197.851z M141.883,170.329H118.5
	c-8.496,0-15.926-4.634-19.908-11.505c4.071-7.069,11.58-11.495,19.908-11.495h23.383V170.329z M138.268,238.517v-23.352
	c0-3.598,1.375-6.874,3.615-9.354v0.573v23.525c0,6.661,0.584,13.189,1.693,19.537C140.35,246.887,138.268,242.947,138.268,238.517z
	 M156.883,229.909v-42.184l5.401-6.718v48.902c0,20.34,4.424,39.445,12.158,55.956C163.378,269.984,156.883,250.689,156.883,229.909
	z M156.883,163.785v-16.456h13.23L156.883,163.785z M211.405,334.284v13.465h-14.039v-20.544
	C201.856,329.875,206.544,332.246,211.405,334.284z M222.008,318.732c4.796-3.92,10.862-6.152,17.34-6.152h31.304
	c6.478,0,12.544,2.232,17.34,6.152c-10.02,5.957-21.202,9.294-32.992,9.294C243.21,328.026,232.028,324.689,222.008,318.732z
	 M115.082,362.75h100.823c5.79,0,10.5-4.71,10.5-10.5v-12.888c3.057,0.799,6.165,1.471,9.317,2.014v30.201h-13.039
	c-5.79,0-10.5,4.711-10.5,10.5V405c0,5.79,4.71,10.5,10.5,10.5h13.039v15h-128.14v-60.25
	C107.582,366.114,110.946,362.75,115.082,362.75z M107.582,494.5v-2.706h128.14V497h-125.64
	C108.727,497,107.582,495.855,107.582,494.5z M107.582,445.5h128.14v5.206h-128.14V445.5z M235.722,465.706v11.088h-128.14v-11.088
	H235.722z M274.279,465.706h128.139v11.088h-20.273c-1.927-2.369-4.861-3.887-8.145-3.887h-75c-3.284,0-6.219,1.518-8.146,3.887
	h-16.576L274.279,465.706L274.279,465.706z M402.418,494.5c0,1.355-1.145,2.5-2.5,2.5H384.5v-5.206h17.918V494.5z M303.5,487.907h66
	V497h-66V487.907z M274.279,491.794H288.5V497h-14.221V491.794z M402.418,445.5v5.206H274.279V445.5H402.418z M259.279,497h-8.557
	v-81.5h8.557V497z M282.816,400.5h-55.633v-13.923h55.633V400.5z M259.279,371.577h-8.557v-28.64
	c1.42,0.053,2.845,0.089,4.278,0.089c1.434,0,2.858-0.036,4.279-0.089V371.577z M312.634,347.75h-14.039v-13.465
	c4.861-2.038,9.549-4.409,14.039-7.079V347.75z M332.716,229.909c0,32.794-12.812,61.879-32.446,79.704
	c-7.779-7.612-18.287-12.033-29.618-12.033h-31.304c-11.332,0-21.839,4.421-29.618,12.033
	c-19.634-17.826-32.446-46.91-32.446-79.705v-67.561l12.075-15.02H264c4.142,0,7.5-3.358,7.5-7.5s-3.358-7.5-7.5-7.5H118.5
	c-7.847,0-15.244,2.391-21.405,6.602c3.362-8.54,11.687-14.602,21.405-14.602h275c9.719,0,18.043,6.063,21.405,14.602
	c-6.162-4.211-13.559-6.602-21.405-6.602h-85.501c-4.142,0-7.5,3.358-7.5,7.5s3.358,7.5,7.5,7.5h12.642l12.075,15.02V229.909z"/>
<path d="M137,425.5h16c5.79,0,10.5-4.71,10.5-10.5v-36c0-5.79-4.71-10.5-10.5-10.5h-16c-5.79,0-10.5,4.71-10.5,10.5v36
	C126.5,420.79,131.21,425.5,137,425.5z M141.5,383.5h7v27h-7V383.5z"/>
<path d="M240.602,92c0,4.142,3.358,7.5,7.5,7.5h13.795c4.142,0,7.5-3.358,7.5-7.5s-3.358-7.5-7.5-7.5h-13.795
	C243.96,84.5,240.602,87.858,240.602,92z"/>
<g>
</g>
<g>
</g>
<g>
</g>
<g>
</g>
<g>
</g>
<g>
</g>
<g>
</g>
<g>
</g>
<g>
</g>
<g>
</g>
<g>
</g>
<g>
</g>
<g>
</g>
<g>
</g>
<g>
</g>
</svg>
