<?xml version="1.0" encoding="iso-8859-1"?>
<!-- Generator: Adobe Illustrator 19.0.0, SVG Export Plug-In . SVG Version: 6.00 Build 0)  -->
<svg version="1.1" id="Capa_1" xmlns="http://www.w3.org/2000/svg" xmlns:xlink="http://www.w3.org/1999/xlink" x="0px" y="0px"
	 viewBox="0 0 512 512" style="enable-background:new 0 0 512 512;" xml:space="preserve">
<rect x="90.464" y="231.838" transform="matrix(-0.7071 0.7071 -0.7071 -0.7071 393.188 413.9502)" style="fill:#9EA7AF;" width="40.796" height="113.139"/>
<rect x="90.652" y="255.128" transform="matrix(-0.7071 0.7071 -0.7071 -0.7071 393.6411 414.1397)" style="fill:#C5CCD3;" width="40.796" height="66.935"/>
<rect x="90.653" y="277.587" transform="matrix(-0.7071 0.7071 -0.7071 -0.7071 393.6445 414.1411)" style="fill:#9EA7AF;" width="40.796" height="22.02"/>
<polygon style="fill:#D2957D;" points="178.688,327.391 151.502,354.576 205.874,354.576 "/>
<g>
	<path style="fill:#B2762F;" d="M88.532,223.658c1.945,1.945,1.945,5.126,0,7.071l-35.353,35.353c-1.945,1.945-5.126,1.945-7.071,0
		l-9.812-9.812c-1.945-1.945-1.945-5.126,0-7.071l35.354-35.352c1.945-1.945,5.127-1.945,7.071,0L88.532,223.658z"/>
	<path style="fill:#B2762F;" d="M134.602,354.576h16.9l30.439-30.438c1.945-1.945,1.945-5.127,0-7.071l-6.338-6.337
		c-1.945-1.944-5.126-1.945-7.071,0l-35.352,35.353c-1.945,1.945-1.945,5.127,0,7.071L134.602,354.576z"/>
</g>
<path style="fill:#046699;" d="M357.656,354.576v-40.76c-18.806,11.021-40.7,17.346-64.076,17.346h-2.063
	c-23.375,0-45.269-6.325-64.075-17.345v40.759H357.656z"/>
<path style="opacity:0.15;fill:#490089;enable-background:new    ;" d="M256,354.576v-28.458
	c-10.096-2.937-19.671-7.094-28.557-12.301v40.759H256z"/>
<path style="fill:#203A74;" d="M112.936,504.5c-2.762,0-5-2.239-5-5V369.576c0-8.271,6.729-15,15-15h339.228c8.27,0,15,6.729,15,15
	V499.5c0,2.761-2.239,5-5,5H112.936z"/>
<g>
	<rect x="107.94" y="418" style="fill:#046699;" width="39.677" height="27.424"/>
	<rect x="437.49" y="418" style="fill:#046699;" width="39.677" height="27.424"/>
</g>
<g>
	<path style="fill:#5DC647;" d="M147.612,354.576h-24.677c-8.271,0-15,6.729-15,15V418h39.677V354.576z"/>
	<path style="fill:#5DC647;" d="M462.163,354.576h-24.677V418h39.677v-48.424C477.163,361.305,470.434,354.576,462.163,354.576z"/>
</g>
<g style="opacity:0.15;">
	<path style="fill:#0B0116;" d="M127.773,499.5V369.576c0-8.271,6.729-15,15-15h-19.837c-8.271,0-15,6.729-15,15V499.5
		c0,2.761,2.238,5,5,5h19.837C130.011,504.5,127.773,502.261,127.773,499.5z"/>
</g>
<rect x="147.61" y="354.58" style="fill:#368C0E;" width="289.87" height="149.92"/>
<polygon style="fill:#203A74;" points="343.559,354.576 242.011,354.576 292.785,405.35 "/>
<g>
	<path style="fill:#368C0E;" d="M167.55,92.779h112.787l8.454,15.447c0.752,1.373,2.192,2.227,3.758,2.227s3.006-0.854,3.757-2.227
		l8.454-15.447h112.79c0.298,0,0.592,0.019,0.884,0.045C407.77,36.989,355.929,7.5,293.581,7.5h-2.063
		c-62.348,0-114.189,29.489-124.853,85.324C166.957,92.798,167.251,92.779,167.55,92.779z"/>
	<path style="fill:#368C0E;" d="M417.55,127.285h-250c-1.006,0-1.978-0.154-2.896-0.434v77.526
		c0,70.021,56.799,126.785,126.864,126.785h2.063c70.065,0,126.864-56.764,126.864-126.785v-77.525
		C419.527,127.131,418.556,127.285,417.55,127.285z"/>
</g>
<g style="opacity:0.15;">
	<path style="fill:#330068;" d="M167.55,92.779h27.686c9.919-51.797,55.28-80.911,111.591-84.822
		C302.473,7.654,298.054,7.5,293.58,7.5h-2.063c-62.348,0-114.189,29.489-124.853,85.324
		C166.957,92.798,167.251,92.779,167.55,92.779z"/>
	<path style="fill:#330068;" d="M235.787,299.128c-26.121-23.222-42.578-57.063-42.578-94.751v-77.092H167.55
		c-1.006,0-1.978-0.154-2.896-0.434v77.526c0,51.618,30.869,96.026,75.162,115.807C238.182,313.165,236.841,306.147,235.787,299.128
		z"/>
</g>
<path style="fill:#5DC647;" d="M339.906,227.902c0,0-20.296-19.916-47.357-19.916s-47.356,19.916-47.356,19.916
	c-2.729,2.678-6.682,5.122-10.955,6.983c-2.898,28.433-1.04,56.866,5.578,85.299c15.792,7.052,33.288,10.978,51.703,10.978h2.063
	c18.415,0,35.911-3.926,51.703-10.978c6.619-28.433,8.477-56.866,5.579-85.299C346.589,233.024,342.635,230.58,339.906,227.902z"/>
<path style="fill:#D19546;" d="M196.321,127.285c-0.847,1.875-1.33,3.946-1.33,6.127v89.996c0,8.25,6.75,15,15,15h9.496
	c8.25,0,19.818-4.728,25.706-10.506c0,0,20.295-19.916,47.356-19.916c27.062,0,47.357,19.916,47.357,19.916
	c5.889,5.778,17.457,10.506,25.707,10.506h9.495c8.25,0,15-6.75,15-15v-89.996c0-2.182-0.483-4.252-1.33-6.127H196.321z"/>
<path style="opacity:0.15;fill:#490089;enable-background:new    ;" d="M217.883,223.408v-89.996c0-2.182,0.483-4.252,1.33-6.127
	h-22.892c-0.847,1.875-1.33,3.946-1.33,6.127v89.996c0,8.25,6.75,15,15,15h9.496c2.387,0,5.053-0.406,7.777-1.108
	C221.778,235.064,217.883,229.672,217.883,223.408z"/>
<path style="fill:#5DC647;" d="M417.55,92.779H304.76l-8.454,15.447c-0.751,1.373-2.192,2.227-3.757,2.227
	c-1.566,0-3.007-0.854-3.758-2.227l-8.454-15.447H167.55c-5.5,0-10,4.5-10,10v14.506c0,5.5,4.5,10,10,10h250c5.5,0,10-4.5,10-10
	v-14.506C427.55,97.279,423.05,92.779,417.55,92.779z"/>
<path style="fill:#9EA7AF;" d="M304.76,92.779l-8.454,15.447c-0.751,1.373-2.192,2.227-3.757,2.227
	c-1.566,0-3.007-0.854-3.758-2.227l-8.454-15.447h-58.53v34.506h141.484V92.779H304.76z"/>
<path style="fill:#C5CCD3;" d="M292.549,110.453c-1.566,0-3.007-0.854-3.758-2.227l-12.742-23.284
	c-0.262-0.48-0.654-0.872-1.135-1.134l-23.299-12.736c-1.375-0.75-2.228-2.19-2.228-3.755c0-1.564,0.854-3.005,2.228-3.756
	l23.299-12.735c0.481-0.263,0.873-0.653,1.135-1.132l12.742-23.287c0.752-1.372,2.192-2.227,3.758-2.227s3.006,0.854,3.757,2.227
	l12.743,23.285c0.264,0.48,0.656,0.872,1.134,1.133l23.302,12.735c1.373,0.751,2.228,2.191,2.228,3.756
	c0,1.564-0.855,3.005-2.228,3.755l-23.3,12.735c-0.48,0.262-0.873,0.655-1.136,1.135l-12.743,23.284
	C295.555,109.599,294.114,110.453,292.549,110.453L292.549,110.453z"/>
<g>
	<circle style="fill:#775436;" cx="345.07" cy="183.33" r="13.477"/>
	<circle style="fill:#775436;" cx="240.03" cy="183.33" r="13.477"/>
</g>
<g>
	<polygon style="fill:#9EA7AF;" points="292.785,405.35 242.011,354.576 194.106,354.576 268.832,429.303 	"/>
	<polygon style="fill:#9EA7AF;" points="193.635,504.5 241.541,504.5 391.464,354.576 343.559,354.576 	"/>
</g>
<path style="fill:#E6E9ED;" d="M357.914,428.189c-0.464-1.583,0.452-2.499,2.036-2.036l20.499,6.005
	c1.583,0.464,4.174,0.464,5.758,0l20.499-6.005c1.583-0.464,2.5,0.452,2.036,2.036l-6.004,20.5c-0.464,1.583-0.464,4.174,0,5.758
	l6.004,20.499c0.464,1.583-0.452,2.499-2.036,2.036l-20.499-6.005c-1.583-0.464-4.174-0.464-5.758,0l-20.499,6.005
	c-1.583,0.464-2.5-0.452-2.036-2.036l6.005-20.5c0.464-1.583,0.464-4.174,0-5.758L357.914,428.189z"/>
<path d="M267.091,255.11h50.917c4.142,0,7.5-3.358,7.5-7.5s-3.358-7.5-7.5-7.5h-50.917c-4.142,0-7.5,3.358-7.5,7.5
	S262.949,255.11,267.091,255.11z"/>
<path d="M267.091,278.724h50.917c4.142,0,7.5-3.358,7.5-7.5s-3.358-7.5-7.5-7.5h-50.917c-4.142,0-7.5,3.358-7.5,7.5
	S262.949,278.724,267.091,278.724z"/>
<path d="M325.508,294.836c0-4.142-3.358-7.5-7.5-7.5h-50.917c-4.142,0-7.5,3.358-7.5,7.5s3.358,7.5,7.5,7.5h50.917
	C322.15,302.336,325.508,298.978,325.508,294.836z"/>
<path d="M345.072,162.357c-11.566,0-20.977,9.41-20.977,20.977c0,11.566,9.41,20.977,20.977,20.977s20.978-9.41,20.978-20.977
	S356.639,162.357,345.072,162.357z M345.072,189.311c-3.295,0-5.977-2.681-5.977-5.977s2.681-5.977,5.977-5.977
	s5.978,2.681,5.978,5.977C351.05,186.629,348.368,189.311,345.072,189.311z"/>
<path d="M240.027,162.357c-11.566,0-20.977,9.41-20.977,20.977c0,11.566,9.41,20.977,20.977,20.977s20.977-9.41,20.977-20.977
	S251.593,162.357,240.027,162.357z M240.027,189.311c-3.295,0-5.977-2.681-5.977-5.977s2.681-5.977,5.977-5.977
	s5.977,2.681,5.977,5.977C246.004,186.629,243.322,189.311,240.027,189.311z"/>
<path d="M368.595,140.661c-42.433-8.934-63.86,21.815-64.751,23.128c-2.326,3.428-1.433,8.092,1.995,10.417
	c1.29,0.875,2.755,1.295,4.205,1.295c2.402,0,4.762-1.152,6.213-3.29c0.162-0.239,16.556-23.759,49.249-16.872
	c4.055,0.852,8.031-1.742,8.884-5.794C375.242,145.492,372.648,141.514,368.595,140.661z"/>
<path d="M216.505,140.661c-4.053,0.854-6.648,4.831-5.795,8.884c0.854,4.053,4.833,6.646,8.884,5.794
	c32.302-6.8,48.536,15.848,49.268,16.9c1.452,2.12,3.802,3.262,6.194,3.262c1.449,0,2.915-0.42,4.205-1.295
	c3.427-2.326,4.32-6.99,1.995-10.417C280.365,162.476,258.941,131.733,216.505,140.661z"/>
<path d="M301.221,74.817c4.142,0,7.5-3.358,7.5-7.5s-3.358-7.5-7.5-7.5h-17.344c-4.142,0-7.5,3.358-7.5,7.5s3.358,7.5,7.5,7.5
	H301.221z"/>
<path d="M462.163,347.076h-97.007v-29.104c37.698-23.81,62.789-65.827,62.789-113.595V131.33c4.3-3.191,7.105-8.291,7.105-14.045
	v-14.506c0-7.049-4.199-13.124-10.219-15.893c-5.431-23.254-17.918-42.968-36.906-57.908C364.173,10.291,330.668,0,293.581,0h-2.063
	c-37.087,0-70.593,10.291-94.344,28.978c-18.989,14.94-31.476,34.654-36.906,57.908c-6.02,2.77-10.218,8.843-10.218,15.893v14.506
	c0,5.754,2.804,10.853,7.104,14.044v73.048c0,47.769,25.091,89.786,62.79,113.596v29.104H208.98l-19.935-19.935
	c2.958-4.815,2.366-11.211-1.801-15.378l-6.338-6.337c-2.357-2.357-5.496-3.655-8.838-3.655c-2.35,0-4.592,0.654-6.54,1.854
	l-69.891-69.891c1.2-1.948,1.854-4.19,1.854-6.54c0-3.343-1.298-6.482-3.655-8.839l-9.812-9.812
	c-2.357-2.357-5.496-3.655-8.839-3.655c-3.343,0-6.482,1.298-8.839,3.655l-35.354,35.352c-4.874,4.874-4.874,12.804,0,17.678
	l9.812,9.812c2.357,2.357,5.496,3.655,8.839,3.655c2.35,0,4.592-0.654,6.54-1.854l69.884,69.885
	c-0.768,1.25-1.284,2.608-1.571,4.005h-1.56c-12.407,0-22.5,10.093-22.5,22.5V499.5c0,6.893,5.607,12.5,12.5,12.5h359.228
	c6.893,0,12.5-5.607,12.5-12.5V369.576C484.663,357.169,474.57,347.076,462.163,347.076z M412.945,204.377
	c0,43.021-22.91,80.791-57.175,101.778c3.48-20.234,4.611-40.561,3.409-60.872c2.216,0.401,4.386,0.624,6.434,0.624h9.495
	c12.407,0,22.5-10.093,22.5-22.5V206c0-4.142-3.358-7.5-7.5-7.5s-7.5,3.358-7.5,7.5v17.408c0,4.136-3.364,7.5-7.5,7.5h-9.495
	c-6.246,0-15.995-3.984-20.454-8.359c-0.839-0.823-19.216-18.561-45.109-21.609v-15.03c0-4.142-3.358-7.5-7.5-7.5
	s-7.5,3.358-7.5,7.5v15.029c-25.894,3.048-44.271,20.786-45.11,21.609c-4.459,4.375-14.207,8.359-20.453,8.359h-9.496
	c-4.136,0-7.5-3.364-7.5-7.5v-88.623h180.117V164c0,4.142,3.358,7.5,7.5,7.5s7.5-3.358,7.5-7.5v-29.215h15.337L412.945,204.377
	L412.945,204.377z M234.943,347.076V326.16c17.205,8.015,36.374,12.502,56.575,12.502h2.063c20.201,0,39.37-4.487,56.576-12.503
	v20.917L234.943,347.076L234.943,347.076z M325.452,362.076l-32.667,32.667l-32.668-32.667H325.452z M241.371,239.766
	c3.467-1.882,6.609-4.093,9.074-6.512c0.181-0.178,18.382-17.769,42.103-17.769c23.539,0,41.935,17.605,42.105,17.769
	c2.465,2.419,5.608,4.63,9.075,6.512c2.122,25.039,0.486,50.11-4.925,74.996c-13.955,5.73-29.224,8.9-45.222,8.9h-2.063
	c-15.998,0-31.267-3.169-45.222-8.9C240.885,289.877,239.25,264.805,241.371,239.766z M282.212,111.828
	c2.068,3.778,6.029,6.125,10.337,6.125s8.269-2.347,10.337-6.126l6.32-11.548h46.586v19.506H229.307v-19.506h46.585L282.212,111.828
	z M260.38,67.316l18.128-9.908c1.742-0.951,3.165-2.372,4.12-4.114l9.92-18.13l9.925,18.137c0.954,1.737,2.376,3.157,4.112,4.106
	l18.132,9.91l-18.129,9.909c-1.742,0.952-3.166,2.375-4.119,4.116l-9.921,18.129l-9.918-18.124c-0.952-1.743-2.378-3.168-4.12-4.12
	L260.38,67.316z M420.05,102.779v14.506c0,1.355-1.145,2.5-2.5,2.5h-46.758v-19.506h46.758
	C418.905,100.279,420.05,101.424,420.05,102.779z M206.449,40.767C227.568,24.151,257.78,15,291.518,15h2.063
	c33.738,0,63.95,9.151,85.069,25.767c14.804,11.646,24.998,26.751,30.223,44.512H323.13l13.949-7.625
	c3.784-2.066,6.134-6.027,6.134-10.337c0-4.309-2.349-8.269-6.131-10.337l-22.107-12.083l-12.089-22.09
	c-2.068-3.779-6.029-6.126-10.337-6.126s-8.268,2.347-10.338,6.127l-12.086,22.089L248.018,56.98
	c-3.782,2.066-6.132,6.028-6.132,10.337c0,4.312,2.351,8.273,6.131,10.336l13.951,7.626h-85.742
	C181.451,67.518,191.645,52.413,206.449,40.767z M165.05,117.285v-14.506c0-1.355,1.145-2.5,2.5-2.5h46.757v19.506H167.55
	C166.195,119.785,165.05,118.64,165.05,117.285z M172.154,204.377v-69.592h15.337v88.623c0,12.407,10.093,22.5,22.5,22.5h9.496
	c2.049,0,4.218-0.223,6.435-0.625c-1.203,20.312-0.072,40.638,3.408,60.873C195.064,285.169,172.154,247.398,172.154,204.377z
	 M238.904,362.076l12.675,12.675l30.599,30.599l-13.347,13.347l-56.62-56.62L238.904,362.076L238.904,362.076z M187.767,347.076
	h-18.158l9.079-9.079L187.767,347.076z M172.068,317.8l2.802,2.802l-26.474,26.474h-5.604L172.068,317.8z M154.673,313.982
	l-18.241,18.241l-5.539-5.539l18.241-18.241L154.673,313.982z M49.643,259.011l-6.276-6.276l31.818-31.817l6.276,6.276
	L49.643,259.011z M67.038,262.829l18.241-18.241l5.918,5.918l-18.241,18.241L67.038,262.829z M83.562,279.353l18.241-18.241
	l5.275,5.275l-18.241,18.241L83.562,279.353z M99.444,295.235l18.241-18.241l4.96,4.96l-18.241,18.241L99.444,295.235z
	 M120.286,316.078l-5.275-5.275l18.241-18.241l5.275,5.275L120.286,316.078z M140.112,497h-24.677v-44.076h24.677V497z
	 M140.112,437.924h-24.677V425.5h24.677V437.924z M155.112,497v-90c0-4.142-3.358-7.5-7.5-7.5s-7.5,3.358-7.5,7.5v3.5h-24.677
	v-40.924c0-4.136,3.364-7.5,7.5-7.5h17.177V369c0,4.142,3.358,7.5,7.5,7.5s7.5-3.358,7.5-7.5v-6.924h35.887l67.227,67.227
	L190.528,497H155.112z M429.986,497H259.648l24.176-24.176c2.929-2.929,2.929-7.678,0-10.606c-2.929-2.929-7.678-2.929-10.606,0
	L238.435,497h-26.693l86.347-86.347l48.577-48.577h26.692l-70.62,70.621c-2.929,2.929-2.929,7.678,0,10.606
	c2.929,2.929,7.678,2.929,10.606,0l81.227-81.227h35.416L429.986,497L429.986,497z M469.663,497h-24.677v-44.076h24.677V497z
	 M469.663,437.924h-24.677V425.5h24.677V437.924z M469.663,410.5h-24.677v-48.424h17.177c4.136,0,7.5,3.364,7.5,7.5V410.5z"/>
<path d="M383.327,425.006c-0.453,0-0.756-0.045-0.771-0.046l-20.499-6.005c-3.84-1.123-7.785,0.112-10.002,3.074
	c-1.718,2.294-2.207,5.308-1.339,8.268l5.988,20.435c0.083,0.375,0.083,1.294,0.017,1.605l-6.005,20.5
	c-0.867,2.96-0.379,5.974,1.339,8.268c2.218,2.961,6.163,4.196,10.002,3.074l20.435-5.988c0.079-0.018,0.381-0.063,0.834-0.063
	s0.756,0.045,0.771,0.045l20.499,6.005c0.958,0.281,1.928,0.423,2.88,0.423c2.862,0,5.458-1.275,7.123-3.497
	c1.718-2.294,2.206-5.307,1.339-8.267l-5.987-20.436c-0.083-0.375-0.083-1.294-0.017-1.605l6.004-20.499
	c0.867-2.96,0.379-5.974-1.339-8.268c-2.218-2.961-6.165-4.196-10.002-3.074l-20.435,5.988
	C384.083,424.961,383.78,425.006,383.327,425.006z M398.532,436.363l-2.993,10.217c-0.874,2.983-0.874,6.992,0,9.974l2.993,10.217
	l-10.217-2.993c-1.835-0.537-3.725-0.65-4.987-0.65s-3.152,0.113-4.987,0.65l-10.217,2.993l2.993-10.217
	c0.874-2.983,0.874-6.992,0-9.975l-2.993-10.217l10.217,2.993c1.835,0.537,3.725,0.65,4.987,0.65s3.152-0.113,4.987-0.65
	L398.532,436.363z"/>
<g>
</g>
<g>
</g>
<g>
</g>
<g>
</g>
<g>
</g>
<g>
</g>
<g>
</g>
<g>
</g>
<g>
</g>
<g>
</g>
<g>
</g>
<g>
</g>
<g>
</g>
<g>
</g>
<g>
</g>
</svg>
