<svg id="Capa_1" enable-background="new 0 0 512.004 512.004" height="512" viewBox="0 0 512.004 512.004" width="512" xmlns="http://www.w3.org/2000/svg"><g><path d="m318.001 449.642-8.218 13.989c-5.042 8.581-17.45 8.581-22.492 0l-8.218-13.989c-3.424-5.828-8.281-10.685-14.109-14.109l-13.989-8.218c-8.581-5.042-8.581-17.45 0-22.492l13.989-8.219c5.829-3.424 10.685-8.281 14.109-14.109l8.218-13.989c5.042-8.581 17.45-8.581 22.492 0l8.218 13.989c3.424 5.828 8.281 10.685 14.109 14.109l13.989 8.219c8.581 5.042 8.581 17.45 0 22.492l-13.989 8.218c-5.827 3.423-10.684 8.28-14.109 14.109z" fill="#eba188"/><path d="m349.908 104.849h-216.15c-65.12 0-117.91 52.79-117.91 117.91v59.173c0 32.457 13.115 61.848 34.334 83.169 6.757 6.79 8.891 16.927 5.665 25.947-6.437 17.998-14.601 36.905-23.069 53.097-8.98 17.171 7.475 36.703 25.868 30.606 38.642-12.808 78.157-38.449 100.133-65.577 4.774-5.893 11.934-9.332 19.519-9.332h171.61c65.12 0 117.91-52.79 117.91-117.91v-59.173c.001-65.12-52.789-117.91-117.91-117.91z" fill="#f6ee86"/><path d="m158.78 409.174c.079-.098.165-.189.245-.286-86.578-72.234-97.335-209.912-69.752-295.349-43.066 17.56-73.424 59.841-73.424 109.22v59.173c0 32.457 13.115 61.848 34.334 83.169 6.757 6.79 8.891 16.927 5.665 25.947-6.437 17.998-14.601 36.905-23.069 53.097-8.98 17.171 7.475 36.703 25.868 30.606 38.641-12.808 78.157-38.449 100.133-65.577z" fill="#efd176"/><g><g><g><g><ellipse cx="158.593" cy="211.929" fill="#eda1ab" rx="30.718" ry="24.462"/></g><g><ellipse cx="325.094" cy="211.929" fill="#eda1ab" rx="30.718" ry="24.462"/></g></g></g></g><path d="m80.964 170.88-8.218 13.989c-5.042 8.581-17.45 8.581-22.492 0l-8.219-13.989c-3.424-5.828-8.281-10.685-14.109-14.109l-13.989-8.218c-8.581-5.042-8.581-17.45 0-22.492l13.989-8.218c5.829-3.424 10.685-8.281 14.109-14.109l8.219-13.989c5.042-8.581 17.45-8.581 22.492 0l8.218 13.989c3.424 5.829 8.281 10.685 14.109 14.109l13.989 8.218c8.582 5.041 8.582 17.45 0 22.492l-13.989 8.218c-5.827 3.423-10.684 8.28-14.109 14.109z" fill="#b39bdb"/><path d="m370.48 102.092-6.193 10.542c-3.799 6.467-13.151 6.467-16.95 0l-6.194-10.542c-2.581-4.392-6.241-8.052-10.633-10.633l-10.542-6.193c-6.467-3.799-6.467-13.15 0-16.95l10.542-6.193c4.392-2.58 8.052-6.241 10.633-10.633l6.194-10.542c3.799-6.467 13.15-6.467 16.95 0l6.193 10.542c2.581 4.392 6.241 8.053 10.633 10.633l10.542 6.193c6.467 3.799 6.467 13.15 0 16.95l-10.542 6.193c-4.393 2.581-8.053 6.241-10.633 10.633z" fill="#e7889d"/><path d="m469.968 211.573-8.218 13.989c-5.042 8.581-17.45 8.581-22.492 0l-8.218-13.989c-3.424-5.828-8.281-10.685-14.109-14.109l-13.989-8.218c-8.581-5.042-8.581-17.45 0-22.492l13.989-8.218c5.829-3.424 10.685-8.281 14.109-14.109l8.218-13.989c5.042-8.581 17.45-8.581 22.492 0l8.218 13.989c3.424 5.829 8.281 10.685 14.109 14.109l13.989 8.218c8.581 5.042 8.581 17.45 0 22.492l-13.989 8.218c-5.828 3.424-10.685 8.281-14.109 14.109z" fill="#a2ddfd"/><path d="m300.07 185.31c0-3.927 3.194-7.121 7.121-7.121s7.121 3.194 7.121 7.121c0 4.142 3.358 7.5 7.5 7.5s7.5-3.358 7.5-7.5c0-12.198-9.923-22.121-22.121-22.121s-22.121 9.923-22.121 22.121c0 4.142 3.358 7.5 7.5 7.5s7.5-3.358 7.5-7.5zm-130.696 0c0-3.927 3.194-7.121 7.121-7.121 3.926 0 7.121 3.194 7.121 7.121 0 4.142 3.358 7.5 7.5 7.5s7.5-3.358 7.5-7.5c0-12.198-9.923-22.121-22.121-22.121s-22.121 9.923-22.121 22.121c0 4.142 3.358 7.5 7.5 7.5s7.5-3.358 7.5-7.5zm-57.339 109.411c1.667 3.792 6.094 5.514 9.884 3.847 13.638-5.996 23.086-12.784 34.863-25.047 6.264-6.521 16.665-6.731 23.188-.468 6.536 6.277 6.747 16.649.468 23.187-14.673 15.278-27.802 24.651-45.317 32.353-3.792 1.668-5.514 6.093-3.847 9.884 1.672 3.804 6.103 5.509 9.884 3.847 19.448-8.551 33.962-18.892 50.099-35.694 12.02-12.516 11.62-32.375-.897-44.396-12.486-11.992-32.402-11.59-44.396.897-10.538 10.974-18.129 16.451-30.081 21.706-3.793 1.667-5.515 6.092-3.848 9.884zm301.233 77.645c-18.617 13.068-40.526 19.976-63.359 19.976h-171.61c-9.873 0-19.111 4.414-25.346 12.111-20.948 25.859-58.891 50.658-96.665 63.179-12.187 4.038-22.637-8.97-16.863-20.012 8.475-16.204 16.815-35.397 23.485-54.046 4.207-11.761 1.297-25.014-7.411-33.763-20.732-20.832-32.15-48.49-32.15-77.878v-59.173c0-17.15 3.981-33.944 11.549-49.146 1.061 1.652.188.288 8.891 15.054 7.937 13.511 27.478 13.527 35.425 0l8.218-13.988c2.771-4.715 6.727-8.672 11.442-11.442l13.99-8.219c13.507-7.936 13.528-27.476 0-35.425l-6.45-3.789c7.991-2.047 16.198-3.213 24.549-3.421 4.141-.103 7.414-3.544 7.311-7.685s-3.538-7.395-7.684-7.311c-13.61.339-26.907 2.85-39.6 7.461-3.306-3.767-3.917-5.821-11.774-18.904-7.936-13.509-27.477-13.529-35.424-.001l-8.219 13.988c-2.77 4.716-6.727 8.672-11.441 11.442l-13.989 8.218c-13.511 7.937-13.527 27.479 0 35.425l13.42 7.884c-9.96 18.31-15.211 38.854-15.211 59.856v59.173c0 33.381 12.969 64.797 36.518 88.46 4.649 4.671 6.187 11.788 3.918 18.13-6.444 18.018-14.489 36.537-22.653 52.147-12.137 23.209 10.119 49.406 34.874 41.201 40.308-13.361 80.974-40.043 103.602-67.975 3.374-4.165 8.364-6.553 13.691-6.553h60.665c-4.279 9.169-1.389 20.797 8.213 26.438l13.988 8.218c4.715 2.77 8.671 6.727 11.442 11.441l8.219 13.99c7.936 13.507 27.476 13.528 35.425 0l8.218-13.989c2.771-4.715 6.727-8.672 11.442-11.442l13.989-8.218c9.695-5.695 12.549-17.518 8.089-26.714 23.005-1.459 44.951-9.123 63.898-22.423 3.39-2.38 4.21-7.058 1.83-10.448-2.385-3.386-7.062-4.205-10.452-1.827zm-395.531-230.281c-3.651-2.145-3.645-7.417 0-9.558l13.989-8.218c6.913-4.062 12.714-9.863 16.776-16.777l8.219-13.989c2.145-3.651 7.416-3.645 9.558.001l8.218 13.988c4.062 6.914 9.863 12.715 16.777 16.777l13.989 8.218c3.656 2.148 3.639 7.421 0 9.559l-13.99 8.219c-6.914 4.062-12.714 9.863-16.776 16.776h-.001l-8.218 13.989c-2.145 3.651-7.416 3.645-9.558 0l-8.219-13.989c-4.062-6.914-9.863-12.715-16.776-16.777zm324.564 278.762-13.989 8.219c-6.914 4.062-12.714 9.863-16.777 16.777l-8.218 13.989c-2.148 3.656-7.421 3.639-9.559 0l-8.219-13.99c-4.062-6.914-9.863-12.715-16.776-16.777l-13.989-8.218c-3.651-2.145-3.645-7.416.001-9.558l6.716-3.946h74.093l6.717 3.947c3.651 2.144 3.645 7.415 0 9.557zm-100.458-203.882c8.111 0 15.825-3.513 21.163-9.639 2.721-3.122 2.396-7.86-.727-10.581-3.122-2.721-7.86-2.397-10.581.727-2.488 2.855-6.081 4.493-9.855 4.493s-7.367-1.638-9.855-4.493c-2.722-3.123-7.459-3.448-10.581-.727-3.123 2.722-3.448 7.459-.727 10.581 5.338 6.126 13.051 9.639 21.163 9.639zm50.587 89.666c16.135 16.801 30.65 27.142 50.099 35.693 3.775 1.66 8.21-.038 9.884-3.847 1.667-3.792-.055-8.217-3.847-9.884-17.515-7.701-30.645-17.074-45.317-32.352-6.264-6.523-6.054-16.924.467-23.188 6.522-6.263 16.924-6.052 23.188.468 11.776 12.263 21.225 19.051 34.862 25.047 3.792 1.668 8.217-.055 9.884-3.847s-.055-8.217-3.847-9.884c-11.952-5.255-19.542-10.732-30.082-21.706-11.993-12.486-31.908-12.888-44.396-.896-12.486 11.992-12.888 31.908-.895 44.396zm209.435-146.343-13.989-8.219c-4.715-2.77-8.672-6.727-11.442-11.442l-8.219-13.989c-7.936-13.509-27.476-13.528-35.424 0l-.777 1.323c-14.877-12.928-32.345-22.019-51.356-26.782 3.178-3.088 5.24-3.647 14.796-9.447 11.396-6.695 11.411-23.178 0-29.883l-10.542-6.193c-3.282-1.928-6.037-4.683-7.965-7.965l-6.193-10.542c-6.695-11.396-23.178-11.413-29.883 0l-6.193 10.542c-1.929 3.283-4.683 6.037-7.966 7.965l-10.542 6.193c-11.396 6.695-11.413 23.179 0 29.883l9.56 5.617h-158.46c-4.142 0-7.5 3.358-7.5 7.5s3.358 7.5 7.5 7.5h171.2l2.4 4.085c6.695 11.396 23.178 11.413 29.883.001l1.112-1.892c19.618 3.942 37.541 13.053 52.379 26.606-2.751 4.482-6.575 8.254-11.113 10.921l-13.989 8.219c-13.508 7.936-13.528 27.476 0 35.424l13.989 8.219c4.716 2.77 8.672 6.727 11.442 11.442l8.219 13.989c5.889 10.025 18.254 12.694 27.527 7.662v44.909c0 24.475-7.84 47.656-22.674 67.038-2.517 3.289-1.892 7.997 1.398 10.514 3.268 2.502 7.981 1.912 10.514-1.398 16.854-22.021 25.762-48.355 25.762-76.154v-64.661l1.115-1.898h.001c2.77-4.715 6.727-8.672 11.442-11.442l13.988-8.218c13.509-7.939 13.528-27.481 0-35.427zm-137.852-61.994-6.193 10.542c-.9 1.532-3.109 1.544-4.016 0l-6.193-10.542c-3.22-5.481-7.819-10.08-13.3-13.3l-10.543-6.194c-1.532-.9-1.544-3.109.001-4.016l10.542-6.194c5.481-3.22 10.08-7.819 13.3-13.3l6.193-10.542c.907-1.544 3.117-1.532 4.016 0l6.194 10.542c3.22 5.481 7.819 10.08 13.3 13.3l10.542 6.193c1.528.898 1.547 3.108 0 4.017l-10.542 6.193c-5.482 3.22-10.081 7.82-13.301 13.301zm130.254 84.485-13.989 8.218c-6.914 4.062-12.715 9.863-16.777 16.777l-8.219 13.989c-2.146 3.652-7.416 3.646-9.559 0l-8.218-13.988c-4.061-6.914-9.862-12.715-16.777-16.777l-13.989-8.219c-3.651-2.145-3.646-7.416 0-9.559l13.989-8.218c6.914-4.063 12.716-9.864 16.776-16.777l8.219-13.989c2.146-3.652 7.416-3.646 9.559 0l8.218 13.989c4.062 6.913 9.863 12.715 16.777 16.776l13.989 8.219c3.652 2.146 3.646 7.417.001 9.559z"/></g></svg>