<?xml version="1.0" encoding="iso-8859-1"?>
<!-- Generator: Adobe Illustrator 19.0.0, SVG Export Plug-In . SVG Version: 6.00 Build 0)  -->
<svg version="1.1" id="Capa_1" xmlns="http://www.w3.org/2000/svg" xmlns:xlink="http://www.w3.org/1999/xlink" x="0px" y="0px"
	 viewBox="0 0 512 512" style="enable-background:new 0 0 512 512;" xml:space="preserve">
<g>
	<path style="fill:#C5CCD3;" d="M99.534,163.933c0-12.904,1.573-25.438,4.52-37.433H87.589c-8.25,0-15,6.75-15,15v66
		c0,8.25,6.75,15,15,15h23.303C103.579,204.408,99.534,184.646,99.534,163.933z"/>
	<path style="fill:#C5CCD3;" d="M424.411,126.5h-16.529c2.946,11.995,4.52,24.529,4.52,37.433c0,20.713-4.045,40.475-11.357,58.567
		h23.367c8.25,0,15-6.75,15-15v-66C439.411,133.25,432.661,126.5,424.411,126.5z"/>
	<path style="fill:#C5CCD3;" d="M108.542,355.25h24.101h2.411v-26.071c0-5.5,4.5-10,10-10h6.452v-10.015c0-5.5,4.5-10,10-10h15.788
		c-10.472-6.105-20.162-13.402-28.905-21.688H115.9c-5.5,0-10,4.5-10,10v67.898C106.771,355.296,107.651,355.25,108.542,355.25z"/>
	<path style="fill:#C5CCD3;" d="M396.101,277.476h-32.555c-8.743,8.286-18.433,15.582-28.905,21.688h15.787c5.5,0,10,4.5,10,10
		v10.015h6.452c5.5,0,10,4.5,10,10v26.071h2.477h24.101c0.891,0,1.77,0.047,2.643,0.124v-67.898
		C406.101,281.976,401.601,277.476,396.101,277.476z"/>
</g>
<path style="fill:#E6E9ED;" d="M177.294,299.163h-15.788c-5.5,0-10,4.5-10,10v10.015h208.922v-10.015c0-5.5-4.5-10-10-10h-15.787
	c46.503-27.113,77.761-77.519,77.761-135.23c0-86.396-70.04-156.433-156.435-156.433S99.534,77.538,99.534,163.933
	C99.534,221.645,130.791,272.05,177.294,299.163z"/>
<g>
	<path style="fill:#C5CCD3;" d="M117.643,494.5v-36.516h-9.101c-7.583,0-14.526-2.856-19.823-7.54V494.5c0,5.5,4.5,10,10,10h28.924
		C122.143,504.5,117.643,500,117.643,494.5z"/>
	<path style="fill:#C5CCD3;" d="M403.458,457.984h-9.101V494.5c0,5.5-4.5,10-10,10h28.924c5.5,0,10-4.5,10-10v-44.056
		C417.984,455.127,411.041,457.984,403.458,457.984z"/>
</g>
<circle style="fill:#FFFFFF;" cx="255.97" cy="163.93" r="113.42"/>
<circle style="fill:#203A74;" cx="255.97" cy="163.93" r="90.19"/>
<path style="fill:#C5CCD3;" d="M199.08,233.914c15.52,12.631,35.317,20.207,56.887,20.207c21.585,0,41.397-7.587,56.921-20.234
	c-8.083-6.79-18.505-10.886-29.888-10.886h-54C217.602,223.001,207.168,227.107,199.08,233.914z"/>
<g style="opacity:0.15;">
	<path style="fill:#080011;" d="M194.623,163.933c0-44.9,32.813-82.131,75.766-89.035c-4.696-0.755-9.513-1.153-14.422-1.153
		c-49.809,0-90.188,40.378-90.188,90.188s40.379,90.188,90.188,90.188c4.909,0,9.726-0.398,14.422-1.153
		C227.436,246.064,194.623,208.833,194.623,163.933z"/>
</g>
<path style="fill:#9EA7AF;" d="M376.88,355.25v-26.071c0-5.5-4.5-10-10-10H145.054c-5.5,0-10,4.5-10,10v26.071H376.88z"/>
<path style="opacity:0.15;fill:#490089;enable-background:new    ;" d="M164.174,355.25v-26.071c0-5.5,4.5-10,10-10h-29.12
	c-5.5,0-10,4.5-10,10v26.071H164.174z"/>
<g>
	<path style="fill:#E6E9ED;" d="M403.458,355.25h-24.101c8.25,0,15,6.75,15,15v87.734h9.101c16.5,0,30-13.5,30-30V385.25
		C433.458,368.75,419.958,355.25,403.458,355.25z"/>
	<path style="fill:#E6E9ED;" d="M117.643,370.25c0-8.25,6.75-15,15-15h-24.101c-16.5,0-30,13.5-30,30v42.734c0,16.5,13.5,30,30,30
		h9.101C117.643,457.984,117.643,370.25,117.643,370.25z"/>
</g>
<path style="fill:#FFFFFF;" d="M379.357,355.25H132.643c-8.25,0-15,6.75-15,15V494.5c0,5.5,4.5,10,10,10h256.715c5.5,0,10-4.5,10-10
	V370.25C394.357,362,387.607,355.25,379.357,355.25z"/>
<g style="opacity:0.15;">
	<path style="fill:#3D0072;" d="M146.285,494.5V370.25c0-8.25,6.75-15,15-15h-28.643c-8.25,0-15,6.75-15,15V494.5
		c0,5.5,4.5,10,10,10h28.643C150.785,504.5,146.285,500,146.285,494.5z"/>
</g>
<path style="fill:#C5CCD3;" d="M335.685,504.5v-90.002c0-5.5-4.5-10-10-10H186.314c-5.5,0-10,4.5-10,10V504.5H335.685z"/>
<g style="opacity:0.15;">
	<path style="fill:#3D0072;" d="M215,404.498h-28.686c-5.5,0-10,4.5-10,10V504.5H205v-90.002C205,408.998,209.5,404.498,215,404.498
		z"/>
</g>
<path style="fill:#6BC1DD;" d="M305.073,476c0,1.65-1.351,3-3,3h-14.387c-1.649,0-3-1.35-3-3v-39c0-1.65,1.351-3,3-3h14.387
	c1.649,0,3,1.35,3,3V476z"/>
<path d="M406.004,230h18.407c12.406,0,22.5-10.093,22.5-22.5v-66c0-12.407-10.094-22.5-22.5-22.5H413.64
	C394.058,50.382,330.785,0,255.967,0S117.878,50.382,98.295,119H87.589c-12.406,0-22.5,10.093-22.5,22.5v66
	c0,12.407,10.094,22.5,22.5,22.5h18.342c2.532,5.754,5.381,11.377,8.577,16.82c4.815,8.199,10.338,15.941,16.467,23.155H115.9
	c-9.649,0-17.5,7.851-17.5,17.5v61.679c-15.764,4.436-27.357,18.933-27.357,36.095v42.734c0,9.913,3.873,18.933,10.177,25.645V494.5
	c0,9.649,7.85,17.5,17.5,17.5h314.563c9.649,0,17.5-7.851,17.5-17.5v-40.871c6.304-6.712,10.177-15.732,10.177-25.645V385.25
	c0-17.163-11.594-31.659-27.357-36.095v-61.679c0-9.649-7.851-17.5-17.5-17.5h-15.14c6.129-7.214,11.65-14.956,16.466-23.155
	C400.623,241.377,403.472,235.754,406.004,230z M419.901,163.933c0-10.222-0.949-20.225-2.748-29.933h7.258
	c4.136,0,7.5,3.364,7.5,7.5v66c0,4.136-3.364,7.5-7.5,7.5h-12.668C417.108,198.604,419.901,181.366,419.901,163.933z M87.589,215
	c-4.136,0-7.5-3.364-7.5-7.5v-66c0-4.136,3.364-7.5,7.5-7.5h7.193c-1.799,9.708-2.748,19.711-2.748,29.933
	c0,17.433,2.793,34.67,8.157,51.067H87.589z M98.719,497c-1.356,0-2.5-1.145-2.5-2.5v-31.106c3.862,1.348,8.007,2.09,12.323,2.09
	h1.601V494.5c0,0.851,0.082,1.681,0.199,2.5H98.719z M110.143,370.25v80.234h-1.601c-12.406,0-22.5-10.093-22.5-22.5V385.25
	c0-12.407,10.094-22.5,22.5-22.5h2.891C110.6,365.097,110.143,367.62,110.143,370.25z M113.399,287.476c0-1.355,1.145-2.5,2.5-2.5
	h29.539c3.042,2.779,6.183,5.45,9.427,7.996c-6.366,2.621-10.859,8.891-10.859,16.191v2.568
	c-9.161,0.546-16.452,8.151-16.452,17.447v18.571H113.4v-60.273H113.399z M386.857,494.5c0,1.355-1.145,2.5-2.5,2.5h-41.172v-19
	c0-4.142-3.357-7.5-7.5-7.5c-4.142,0-7.5,3.358-7.5,7.5v19H183.814v-82.502c0-1.355,1.145-2.5,2.5-2.5h139.371
	c1.355,0,2.5,1.145,2.5,2.5V442c0,4.142,3.358,7.5,7.5,7.5c4.143,0,7.5-3.358,7.5-7.5v-27.502c0-9.649-7.85-17.5-17.5-17.5H186.314
	c-9.65,0-17.5,7.851-17.5,17.5V497h-41.172c-1.355,0-2.5-1.145-2.5-2.5V370.25c0-4.136,3.364-7.5,7.5-7.5h246.715
	c4.136,0,7.5,3.364,7.5,7.5V494.5z M415.781,494.5c0,1.355-1.145,2.5-2.5,2.5h-11.623c0.117-0.819,0.199-1.649,0.199-2.5v-29.016
	h1.601c4.316,0,8.461-0.742,12.323-2.09L415.781,494.5L415.781,494.5z M403.458,362.75c12.406,0,22.5,10.093,22.5,22.5v42.734
	c0,12.407-10.094,22.5-22.5,22.5h-1.601V370.25c0-2.629-0.457-5.153-1.29-7.5H403.458z M396.101,284.976c1.355,0,2.5,1.145,2.5,2.5
	v60.274H384.38v-18.571c0-9.295-7.291-16.9-16.452-17.447v-2.568c0-7.3-4.493-13.57-10.859-16.191
	c3.244-2.546,6.386-5.217,9.428-7.997H396.101z M330.863,292.684c-2.928,1.706-4.347,5.164-3.463,8.435
	c0.884,3.272,3.852,5.543,7.24,5.543h15.787c1.355,0,2.5,1.145,2.5,2.5v2.515H254c-4.143,0-7.5,3.358-7.5,7.5s3.357,7.5,7.5,7.5
	h112.88c1.355,0,2.5,1.145,2.5,2.5v18.571H142.554v-18.571c0-1.355,1.145-2.5,2.5-2.5H208c4.143,0,7.5-3.358,7.5-7.5
	s-3.357-7.5-7.5-7.5h-48.994v-2.515c0-1.355,1.145-2.5,2.5-2.5h15.788c3.389,0,6.357-2.272,7.24-5.543
	c0.884-3.271-0.535-6.729-3.463-8.435c-22.119-12.897-40.664-31.383-53.629-53.46c-13.351-22.735-20.408-48.77-20.408-75.291
	C107.034,81.811,173.845,15,255.967,15c82.123,0,148.935,66.811,148.935,148.933c0,26.521-7.058,52.556-20.409,75.291
	C371.527,261.301,352.982,279.787,330.863,292.684z"/>
<path d="M255.967,43.015c-20.938,0-41.571,5.438-59.673,15.728c-3.602,2.047-4.861,6.626-2.814,10.226
	c2.047,3.602,6.627,4.861,10.227,2.815c15.847-9.007,33.918-13.769,52.261-13.769c58.404,0,105.92,47.515,105.92,105.919
	s-47.516,105.918-105.92,105.918c-58.403,0-105.918-47.515-105.918-105.918c0-24.895,8.807-49.083,24.797-68.108
	c2.665-3.171,2.255-7.902-0.916-10.567c-3.17-2.667-7.901-2.255-10.566,0.915c-18.259,21.724-28.314,49.339-28.314,77.759
	c0,66.675,54.243,120.918,120.918,120.918c66.676,0,120.92-54.244,120.92-120.918S322.643,43.015,255.967,43.015z"/>
<path d="M255.967,261.621c53.866,0,97.69-43.823,97.69-97.688s-43.823-97.688-97.69-97.688c-53.865,0-97.688,43.823-97.688,97.688
	S202.102,261.621,255.967,261.621z M255.967,246.621c-15.959,0-30.867-4.557-43.518-12.42c5.146-2.414,10.797-3.7,16.551-3.7h54
	c5.74,0,11.377,1.281,16.514,3.683C286.857,242.057,271.938,246.621,255.967,246.621z M255.967,81.245
	c45.595,0,82.69,37.094,82.69,82.688c0,23.773-10.099,45.22-26.214,60.318c-8.72-5.673-18.959-8.751-29.442-8.751h-54
	c-10.5,0-20.753,3.087-29.48,8.776c-16.131-15.1-26.24-36.558-26.24-60.343C173.279,118.339,210.373,81.245,255.967,81.245z"/>
<path d="M261.895,426.265h-55c-4.143,0-7.5,3.358-7.5,7.5s3.357,7.5,7.5,7.5h55c4.143,0,7.5-3.358,7.5-7.5
	C269.395,429.623,266.037,426.265,261.895,426.265z"/>
<path d="M261.895,448.5h-55c-4.143,0-7.5,3.358-7.5,7.5s3.357,7.5,7.5,7.5h55c4.143,0,7.5-3.358,7.5-7.5
	S266.037,448.5,261.895,448.5z"/>
<path d="M261.895,470.735h-55c-4.143,0-7.5,3.358-7.5,7.5s3.357,7.5,7.5,7.5h55c4.143,0,7.5-3.358,7.5-7.5
	S266.037,470.735,261.895,470.735z"/>
<path d="M302.073,426.5h-14.387c-5.79,0-10.5,4.71-10.5,10.5v39c0,5.79,4.71,10.5,10.5,10.5h14.387c5.79,0,10.5-4.71,10.5-10.5v-39
	C312.573,431.21,307.863,426.5,302.073,426.5z M297.573,471.5h-5.387v-30h5.387V471.5z"/>
<g>
</g>
<g>
</g>
<g>
</g>
<g>
</g>
<g>
</g>
<g>
</g>
<g>
</g>
<g>
</g>
<g>
</g>
<g>
</g>
<g>
</g>
<g>
</g>
<g>
</g>
<g>
</g>
<g>
</g>
</svg>
