<?xml version="1.0" encoding="iso-8859-1"?>
<!-- Generator: Adobe Illustrator 19.0.0, SVG Export Plug-In . SVG Version: 6.00 Build 0)  -->
<svg version="1.1" id="Capa_1" xmlns="http://www.w3.org/2000/svg" xmlns:xlink="http://www.w3.org/1999/xlink" x="0px" y="0px"
	 viewBox="0 0 512 512" style="enable-background:new 0 0 512 512;" xml:space="preserve">
<path style="fill:#FFC502;" d="M235.505,357.828c3.186-8.21,11.158-14.034,20.496-14.034c9.337,0,17.308,5.823,20.495,14.034
	l21.843-10.323v-24.589c-12.882,5.941-27.221,9.26-42.338,9.26c-15.116,0-29.456-3.319-42.338-9.26v24.589L235.505,357.828z"/>
<g>
	<path style="fill:#046699;" d="M172.579,104v-6c0-5.5,4.5-10,10-10h24.838V47.749c-0.979,1.637-1.813,3.363-2.477,5.163
		c-9.213-5.499-21.041-6.013-31.02-0.31c-9.898,5.659-15.447,15.99-15.475,26.629c-10.543-2.001-21.826,1.577-29.24,10.36
		c-7.353,8.714-9.018,20.322-5.391,30.323c-10.586,1.74-19.957,8.977-23.904,19.771c-3.914,10.709-1.49,22.183,5.352,30.331
		c-9.348,5.27-15.66,15.283-15.66,26.777c0,16.615,13.188,30.142,29.668,30.701v-20.349c0-13.059,10.588-23.645,23.646-23.645
		h11.865v-9.29c0-27.972,11.347-47.589,29.688-60.21h-1.891C177.079,114,172.579,109.5,172.579,104z"/>
	<path style="fill:#046699;" d="M407.304,173.242c7.074-8.066,9.721-19.605,5.916-30.448c-3.775-10.762-12.936-18.087-23.397-20.038
		c3.875-10.005,2.397-21.75-4.898-30.628c-7.244-8.81-18.359-12.545-28.852-10.785c0.201-10.727-5.219-21.251-15.121-27.083
		c-9.828-5.787-21.551-5.478-30.803-0.222c-1.236-3.592-3.138-6.908-5.564-9.798V88h24.838c5.5,0,10,4.5,10,10v6c0,5.5-4.5,10-10,10
		h-1.89c18.341,12.621,29.687,32.238,29.687,60.21v9.29h11.865c13.06,0,23.645,10.587,23.645,23.645v23.251
		c16.299-0.551,29.451-13.826,29.668-30.301C422.544,188.691,416.46,178.666,407.304,173.242z"/>
</g>
<path id="SVGCleanerId_0" style="fill:#FFC7A9;" d="M154.782,230.956V183.5h-11.865c-13.059,0-23.646,10.587-23.646,23.645v25.701
	c0,13.059,10.588,23.645,23.646,23.645h15.116C155.913,248.334,154.782,239.777,154.782,230.956z"/>
<path id="SVGCleanerId_1" style="fill:#FFC7A9;" d="M369.085,183.5H357.22v47.456c0,8.821-1.131,17.378-3.251,25.535h15.116
	c13.06,0,23.645-10.586,23.645-23.645v-25.701C392.729,194.087,382.145,183.5,369.085,183.5z"/>
<path style="fill:#FFC502;" d="M379.358,355.25h-51.332v34.417c0,5.5-4.068,8.077-9.041,5.727l-43.051-20.347
	c0.006-0.012,0.01-0.023,0.016-0.035c-3.49,7.527-11.107,12.75-19.949,12.75c-8.829,0-16.438-5.207-19.935-12.714l-43.05,20.346
	c-4.973,2.35-9.041-0.227-9.041-5.727V355.25h-51.332c-8.25,0-15,6.75-15,15V494.5c0,5.5,4.5,10,10,10h256.715c5.5,0,10-4.5,10-10
	V370.25C394.358,362,387.608,355.25,379.358,355.25z"/>
<g style="opacity:0.15;">
	<path style="fill:#3D0072;" d="M146.286,494.5V370.25c0-8.25,6.75-15,15-15h-28.643c-8.25,0-15,6.75-15,15V494.5
		c0,5.5,4.5,10,10,10h28.643C150.786,504.5,146.286,500,146.286,494.5z"/>
</g>
<g>
	<path style="fill:#EF5050;" d="M193.016,395.394c-4.973,2.35-9.041-0.227-9.041-5.727V355.25h-24.974V504.5h36.271V394.327
		L193.016,395.394z"/>
	<path style="fill:#EF5050;" d="M328.026,355.25v34.417c0,5.5-4.068,8.077-9.041,5.727l-7.984-3.774V504.5h36.272V355.25H328.026z"
		/>
</g>
<path style="fill:#5DC647;" d="M234.016,365.777c0-2.805,0.531-5.483,1.488-7.95l-42.488-20.081
	c-4.973-2.35-9.041,0.227-9.041,5.727v46.192c0,5.5,4.068,8.077,9.041,5.727l43.05-20.346
	C234.754,372.23,234.016,369.091,234.016,365.777z"/>
<g style="opacity:0.15;">
	<path style="fill:#3D0072;" d="M204.001,389.667v-46.192c0-0.18,0.016-0.35,0.024-0.524l-11.009-5.203
		c-4.973-2.35-9.041,0.227-9.041,5.727v46.192c0,5.5,4.068,8.077,9.041,5.727l11.009-5.203
		C204.016,390.016,204.001,389.847,204.001,389.667z"/>
</g>
<path style="fill:#5DC647;" d="M318.985,337.747l-42.489,20.081c0.957,2.466,1.487,5.145,1.487,7.949
	c0,3.313-0.737,6.452-2.049,9.27l43.051,20.347c4.973,2.35,9.041-0.227,9.041-5.727v-46.192
	C328.026,337.974,323.958,335.397,318.985,337.747z"/>
<g>
	<path id="SVGCleanerId_0_1_" style="fill:#FFC7A9;" d="M154.782,230.956V183.5h-11.865c-13.059,0-23.646,10.587-23.646,23.645
		v25.701c0,13.059,10.588,23.645,23.646,23.645h15.116C155.913,248.334,154.782,239.777,154.782,230.956z"/>
</g>
<g>
	<path id="SVGCleanerId_1_1_" style="fill:#FFC7A9;" d="M369.085,183.5H357.22v47.456c0,8.821-1.131,17.378-3.251,25.535h15.116
		c13.06,0,23.645-10.586,23.645-23.645v-25.701C392.729,194.087,382.145,183.5,369.085,183.5z"/>
</g>
<path style="fill:#FFFFFF;" d="M327.533,114H184.47c-18.341,12.621-29.688,32.238-29.688,60.21v56.747
	c0,55.902,45.318,101.22,101.219,101.22c55.902,0,101.219-45.317,101.219-101.22V174.21C357.22,146.238,345.874,126.621,327.533,114
	z"/>
<path style="opacity:0.15;fill:#490089;enable-background:new    ;" d="M183.563,230.956V174.21c0-27.985,11.375-47.59,29.732-60.21
	h-28.826c-18.341,12.621-29.688,32.238-29.688,60.21v56.747c0,55.902,45.318,101.22,101.219,101.22c4.887,0,9.69-0.354,14.391-1.023
	C221.307,324.165,183.563,281.973,183.563,230.956z"/>
<g>
	<path style="fill:#FB8276;" d="M156.899,216.5c-0.713,0-1.418,0.037-2.117,0.095v14.362c0,12.732,2.357,24.911,6.648,36.134
		c11.92-2.139,20.969-12.555,20.969-25.091C182.399,227.917,170.983,216.5,156.899,216.5z"/>
	<path style="fill:#FB8276;" d="M355.1,216.5c0.715,0,1.42,0.037,2.119,0.095v14.362c0,12.732-2.358,24.911-6.648,36.134
		C338.649,264.952,329.6,254.536,329.6,242C329.6,227.917,341.018,216.5,355.1,216.5z"/>
</g>
<g>
	<circle style="fill:#368C0E;" cx="201.241" cy="196.08" r="13.477"/>
	<circle style="fill:#368C0E;" cx="310.761" cy="196.08" r="13.477"/>
</g>
<g>
	<circle style="fill:#EF5050;" cx="256.001" cy="220.56" r="25.5"/>
	<path style="fill:#EF5050;" d="M256.001,311.5c-21.531,0-43.057-8.193-59.449-24.585c-7.811-7.811-7.811-20.474,0-28.284
		c7.811-7.811,20.475-7.811,28.285,0c17.184,17.184,45.143,17.184,62.328,0c7.811-7.81,20.473-7.811,28.285,0
		c7.811,7.811,7.809,20.474-0.002,28.284C299.061,303.303,277.528,311.5,256.001,311.5z"/>
</g>
<path style="fill:#C0272D;" d="M294.585,7.5h-77.168c-5.5,0-10,4.5-10,10V62h97.168V17.5C304.585,12,300.085,7.5,294.585,7.5z"/>
<rect x="207.421" y="62" style="fill:#FFFFFF;" width="97.17" height="26"/>
<path style="opacity:0.15;fill:#490089;enable-background:new    ;" d="M236.833,88V17.5c0-5.5,4.5-10,10-10h-29.416
	c-5.5,0-10,4.5-10,10V88H236.833z"/>
<path style="fill:#C0272D;" d="M339.423,104c0,5.5-4.5,10-10,10H182.579c-5.5,0-10-4.5-10-10v-6c0-5.5,4.5-10,10-10h146.844
	c5.5,0,10,4.5,10,10V104z"/>
<g style="opacity:0.15;">
	<path style="fill:#3D0072;" d="M217.001,104v-6c0-5.5,4.5-10,10-10h-44.422c-5.5,0-10,4.5-10,10v6c0,5.5,4.5,10,10,10h44.422
		C221.501,114,217.001,109.5,217.001,104z"/>
</g>
<circle style="fill:#368C0E;" cx="256.001" cy="365.78" r="21.983"/>
<g style="opacity:0.15;">
	<path style="fill:#3D0072;" d="M253.001,365.777c0-8.742,5.103-16.291,12.491-19.833c-2.873-1.378-6.092-2.15-9.491-2.15
		c-12.143,0-21.984,9.842-21.984,21.983s9.842,21.984,21.984,21.984c3.399,0,6.618-0.772,9.491-2.15
		C258.103,382.068,253.001,374.52,253.001,365.777z"/>
</g>
<path d="M359.583,263.992h9.502c15.768,0,28.826-11.781,30.86-27.001c16.892-3.775,29.716-18.835,29.951-36.8
	c0.141-10.923-4.443-21.306-12.311-28.585c5.276-9.459,6.37-20.867,2.711-31.295c-3.616-10.307-11.487-18.486-21.379-22.622
	c1.708-10.694-1.183-21.784-8.2-30.325c-6.928-8.425-16.999-13.434-27.845-13.909c-2.071-10.631-8.594-20.051-18.115-25.659
	c-5.877-3.46-12.571-5.289-19.36-5.289c-3.932,0-7.837,0.609-11.568,1.788c-0.545-0.902-1.13-1.776-1.744-2.626V17.5
	c0-9.649-7.851-17.5-17.5-17.5h-77.168c-9.649,0-17.5,7.851-17.5,17.5v25.102c-3.49-1.023-7.122-1.551-10.789-1.551
	c-6.614,0-13.159,1.743-18.93,5.041c-9.48,5.42-16.1,14.638-18.379,25.11c-10.968,0.248-21.257,5.156-28.345,13.554
	c-7.044,8.347-10.096,19.278-8.641,29.896c-10.081,3.958-18.171,12.079-21.967,22.461c-3.749,10.257-2.861,21.572,2.152,31.045
	c-8.11,7.178-12.917,17.582-12.917,28.637c0,18.147,12.713,33.371,29.698,37.255c0.636,16.618,14.346,29.943,31.116,29.943h9.502
	c0.57,1.783,1.186,3.545,1.844,5.288c0.108,0.355,0.236,0.7,0.393,1.028c9.644,24.753,28.105,45.131,51.508,57.253v8.105
	l-9.941-4.699c-2.231-1.055-4.497-1.589-6.732-1.589c-7.541,0-13.014,5.929-13.014,14.097v4.275h-43.832
	c-12.406,0-22.5,10.093-22.5,22.5V494.5c0,9.649,7.851,17.5,17.5,17.5h256.715c9.649,0,17.5-7.851,17.5-17.5V370.25
	c0-12.407-10.094-22.5-22.5-22.5h-43.832v-4.275c0-8.168-5.473-14.097-13.014-14.097c-2.235,0-4.501,0.535-6.732,1.589l-9.941,4.699
	v-8.105C331.202,314.422,350.762,291.586,359.583,263.992z M349.72,230.956c0,9.206-1.341,18.104-3.826,26.515
	c-5.323-3.162-8.793-8.96-8.793-15.472c0-8.052,5.314-14.884,12.619-17.177V230.956z M385.229,232.847
	c0,8.902-7.242,16.145-16.145,16.145h-5.869c0.983-5.868,1.504-11.892,1.504-18.035v-4.006h5.291c4.143,0,7.5-3.358,7.5-7.5
	s-3.357-7.5-7.5-7.5h-5.291V191h4.365c8.902,0,16.145,7.243,16.145,16.145V232.847z M312.085,62v-0.728
	c0.611-0.164,1.207-0.396,1.768-0.714c3.515-1.996,7.506-3.051,11.544-3.051c4.114,0,8.178,1.111,11.749,3.214
	c7.206,4.245,11.585,12.092,11.428,20.48c-0.042,2.23,0.911,4.363,2.601,5.82c1.689,1.456,3.937,2.083,6.139,1.717
	c1.271-0.213,2.569-0.321,3.861-0.321c6.984,0,13.529,3.088,17.955,8.471c5.311,6.464,6.728,15.338,3.699,23.158
	c-0.806,2.081-0.643,4.412,0.442,6.36c1.087,1.949,2.983,3.313,5.177,3.722c8.171,1.524,14.951,7.328,17.694,15.148
	c2.77,7.892,1.054,16.712-4.478,23.02c-1.471,1.677-2.119,3.922-1.768,6.125c0.351,2.203,1.664,4.136,3.584,5.272
	c7.148,4.235,11.523,12.015,11.417,20.301c-0.126,9.624-6.199,17.879-14.669,21.27v-14.12c0-17.174-13.972-31.145-31.145-31.145
	h-4.365v-1.79c0-23.693-7.824-43.503-22.752-58.035c3.061-3.152,4.955-7.444,4.955-12.175v-6c0-9.649-7.851-17.5-17.5-17.5h-17.338
	V62H312.085z M214.917,17.5c0-1.355,1.145-2.5,2.5-2.5h77.168c1.355,0,2.5,1.145,2.5,2.5v37h-82.168L214.917,17.5L214.917,17.5z
	 M214.917,69.5h82.168v11h-82.168L214.917,69.5L214.917,69.5z M142.917,248.992c-8.903,0-16.146-7.243-16.146-16.145v-25.701
	c0-8.903,7.243-16.145,16.146-16.145h4.365v20.951h-5.291c-4.143,0-7.5,3.358-7.5,7.5s3.357,7.5,7.5,7.5h5.291v4.006
	c0,6.144,0.521,12.167,1.504,18.035L142.917,248.992L142.917,248.992z M147.282,174.21V176h-4.365
	c-17.174,0-31.146,13.972-31.146,31.145v11.236c-8.584-3.414-14.668-11.801-14.668-21.587c0-8.369,4.538-16.125,11.843-20.244
	c1.943-1.095,3.299-2.999,3.697-5.194c0.397-2.195-0.201-4.453-1.636-6.162c-5.344-6.363-6.896-15.15-4.052-22.932
	c2.873-7.859,9.8-13.586,18.077-14.947c2.201-0.362,4.127-1.685,5.254-3.609c1.128-1.925,1.341-4.251,0.58-6.349
	c-2.833-7.811-1.272-16.596,4.071-22.928c4.419-5.236,10.892-8.239,17.757-8.239c1.459,0,2.924,0.138,4.354,0.409
	c2.189,0.414,4.454-0.165,6.175-1.586c1.72-1.421,2.718-3.533,2.724-5.764c0.021-8.308,4.504-16.024,11.696-20.136
	c3.506-2.004,7.477-3.063,11.485-3.063c3.762,0,7.463,0.917,10.789,2.65V62v18.5h-17.338c-9.649,0-17.5,7.851-17.5,17.5v6
	c0,4.731,1.895,9.022,4.956,12.175C155.107,130.707,147.282,150.517,147.282,174.21z M166.108,257.472
	c-2.485-8.412-3.826-17.309-3.826-26.515v-6.133c7.304,2.294,12.617,9.126,12.617,17.176
	C174.899,248.511,171.431,254.309,166.108,257.472z M191.475,345.314l35.292,16.68c-0.159,1.24-0.251,2.501-0.251,3.784
	c0,1.796,0.17,3.553,0.48,5.261l-35.521,16.788L191.475,345.314L191.475,345.314z M270.483,365.777
	c0,7.986-6.497,14.484-14.482,14.484c-7.986,0-14.484-6.497-14.484-14.484c0-7.986,6.498-14.483,14.484-14.483
	C263.986,351.294,270.483,357.791,270.483,365.777z M268.272,338.979c7.799-0.88,15.352-2.58,22.566-5.027v8.802l-11.272,5.328
	C276.632,344.183,272.751,341.039,268.272,338.979z M232.434,348.081l-11.271-5.327v-8.802c7.214,2.447,14.768,4.148,22.566,5.027
	C239.25,341.039,235.369,344.183,232.434,348.081z M151.501,497h-23.857c-1.355,0-2.5-1.145-2.5-2.5V370.25
	c0-4.136,3.364-7.5,7.5-7.5h18.857V497z M303.501,497H202.772v-53c0-4.142-3.357-7.5-7.5-7.5s-7.5,3.358-7.5,7.5v53h-21.271V362.75
	h9.975v26.917c0,7.533,4.659,13.148,11.297,13.979V408c0,4.142,3.357,7.5,7.5,7.5s7.5-3.358,7.5-7.5v-8.922l30.577-14.451
	c5.413,6.493,13.557,10.634,22.651,10.634c9.094,0,17.238-4.141,22.65-10.635l24.85,11.745V497z M335.526,389.667V362.75h4.246V451
	c0,4.142,3.357,7.5,7.5,7.5s7.5-3.358,7.5-7.5v-88.25h24.586c4.136,0,7.5,3.364,7.5,7.5V494.5c0,1.355-1.145,2.5-2.5,2.5h-29.586
	v-11c0-4.142-3.357-7.5-7.5-7.5s-7.5,3.358-7.5,7.5v11h-21.271v-93.825c1.339,0.376,2.681,0.589,4.012,0.589
	C330.054,403.764,335.526,397.835,335.526,389.667z M320.526,345.315v42.513l-35.522-16.789c0.31-1.708,0.479-3.465,0.479-5.261
	c0-1.282-0.092-2.543-0.251-3.783L320.526,345.315z M256.001,324.676c-37.134,0-69.293-21.71-84.452-53.103
	c11.012-5.441,18.351-16.753,18.351-29.574c0-16.363-11.973-29.976-27.617-32.554V174.21c0-22.939,8.302-40.649,24.634-52.71h71.084
	c4.143,0,7.5-3.358,7.5-7.5s-3.357-7.5-7.5-7.5H182.58c-1.355,0-2.5-1.145-2.5-2.5v-6c0-1.355,1.145-2.5,2.5-2.5h146.844
	c1.355,0,2.5,1.145,2.5,2.5v6c0,1.355-1.145,2.5-2.5,2.5h-27.423c-4.143,0-7.5,3.358-7.5,7.5s3.357,7.5,7.5,7.5h23.086
	c16.331,12.061,24.633,29.77,24.633,52.71v35.236c-15.645,2.578-27.619,16.191-27.619,32.554c0,12.821,7.34,24.134,18.352,29.574
	C325.294,302.967,293.135,324.676,256.001,324.676z"/>
<path d="M222.216,196.078c0-11.567-9.41-20.977-20.977-20.977c-11.566,0-20.977,9.41-20.977,20.977
	c0,11.566,9.41,20.977,20.977,20.977C212.806,217.055,222.216,207.645,222.216,196.078z M195.263,196.078
	c0-3.296,2.681-5.977,5.977-5.977s5.977,2.681,5.977,5.977c0,3.295-2.681,5.977-5.977,5.977S195.263,199.374,195.263,196.078z"/>
<path d="M310.763,175.101c-11.566,0-20.977,9.41-20.977,20.977c0,11.566,9.41,20.977,20.977,20.977
	c11.566,0,20.977-9.41,20.977-20.977C331.739,184.511,322.329,175.101,310.763,175.101z M310.763,202.055
	c-3.296,0-5.977-2.681-5.977-5.977s2.681-5.977,5.977-5.977s5.977,2.681,5.977,5.977
	C316.739,199.374,314.058,202.055,310.763,202.055z"/>
<path d="M256.001,253.555c18.196,0,33-14.804,33-33s-14.804-33-33-33s-33,14.804-33,33S237.805,253.555,256.001,253.555z
	 M256.001,202.555c9.925,0,18,8.075,18,18s-8.075,18-18,18c-9.925,0-18-8.075-18-18
	C238.001,210.629,246.076,202.555,256.001,202.555z"/>
<path d="M320.753,253.327c-5.195-5.194-12.101-8.054-19.446-8.054c-7.345,0-14.251,2.86-19.444,8.054
	c-6.896,6.895-16.08,10.691-25.861,10.691c-9.782,0-18.967-3.797-25.86-10.691c-5.194-5.194-12.101-8.055-19.446-8.055
	c-7.346,0-14.252,2.86-19.446,8.055c-10.722,10.722-10.722,28.169,0.001,38.891C208.519,309.489,231.515,319,256.001,319
	s47.481-9.511,64.75-26.781c5.194-5.194,8.056-12.1,8.056-19.445C328.807,265.428,325.947,258.522,320.753,253.327z
	 M310.144,281.612C295.709,296.049,276.48,304,256.001,304s-39.708-7.951-54.145-22.389c-4.874-4.874-4.874-12.804,0-17.678
	c2.36-2.361,5.5-3.661,8.839-3.661s6.479,1.3,8.839,3.661c9.728,9.728,22.679,15.085,36.468,15.085
	c13.788,0,26.739-5.357,36.467-15.083c2.361-2.361,5.501-3.662,8.839-3.662c3.34,0,6.479,1.301,8.84,3.661
	c2.361,2.361,3.661,5.499,3.66,8.838C313.807,276.111,312.506,279.25,310.144,281.612z"/>
<path d="M296.004,267.47c-22.057,22.058-57.949,22.057-80.006,0c-2.93-2.929-7.678-2.929-10.607,0s-2.929,7.678,0,10.607
	c13.955,13.955,32.28,20.93,50.61,20.93c18.326,0,36.658-6.979,50.61-20.93c2.929-2.929,2.929-7.678,0-10.607
	C303.682,264.54,298.934,264.54,296.004,267.47z"/>
<path d="M187.073,167.964c7.857-7.856,20.643-7.856,28.5,0c1.465,1.464,3.384,2.196,5.303,2.196s3.839-0.732,5.304-2.197
	c2.929-2.929,2.929-7.678-0.001-10.607c-13.705-13.703-36.006-13.703-49.711,0c-2.93,2.929-2.93,7.678-0.001,10.607
	C179.396,170.892,184.145,170.894,187.073,167.964z"/>
<path d="M296.198,167.964c7.857-7.856,20.643-7.856,28.5,0c1.465,1.464,3.384,2.196,5.303,2.196s3.839-0.732,5.304-2.197
	c2.929-2.929,2.929-7.678-0.001-10.607c-13.705-13.703-36.006-13.703-49.711,0c-2.93,2.929-2.93,7.678-0.001,10.607
	C288.52,170.892,293.269,170.894,296.198,167.964z"/>
<g>
</g>
<g>
</g>
<g>
</g>
<g>
</g>
<g>
</g>
<g>
</g>
<g>
</g>
<g>
</g>
<g>
</g>
<g>
</g>
<g>
</g>
<g>
</g>
<g>
</g>
<g>
</g>
<g>
</g>
</svg>
