<?xml version="1.0" encoding="iso-8859-1"?>
<!-- Generator: Adobe Illustrator 19.0.0, SVG Export Plug-In . SVG Version: 6.00 Build 0)  -->
<svg xmlns="http://www.w3.org/2000/svg" xmlns:xlink="http://www.w3.org/1999/xlink" version="1.1" id="Layer_1" x="0px" y="0px" viewBox="0 0 511.997 511.997" style="enable-background:new 0 0 511.997 511.997;" xml:space="preserve" width="512" height="512">
<g id="coffee">
	<g id="fill_10_">
		<path style="fill:#92D8FF;" d="M430.048,280.085c15.312,0,27.25,5.304,31.936,14.189c5.001,9.482,0.983,20.788-1.856,26.684    c-6.278,13.035-18.663,25.143-33.979,33.22c-12.315,6.495-25.363,9.928-37.731,9.928c-15.316,0-27.257-5.304-31.942-14.189    c-5.001-9.482-0.983-20.788,1.856-26.684c6.278-13.035,18.663-25.143,33.979-33.22c12.314-6.494,25.362-9.927,37.734-9.928    H430.048L430.048,280.085 M430.042,250.085c-16.577,0.001-34.58,4.35-51.726,13.392c-43.791,23.094-65.449,68.06-48.376,100.434    c10.388,19.698,32.717,30.194,58.478,30.194c16.577,0,34.58-4.35,51.726-13.392c43.791-23.094,65.449-68.06,48.376-100.434    C478.132,260.581,455.804,250.083,430.042,250.085L430.042,250.085z"/>
		<path style="fill:#72CEF7;" d="M378.316,263.477c-43.791,23.094-65.449,68.06-48.376,100.434    c10.388,19.698,32.717,30.194,58.478,30.194c7.354,0,14.99-0.861,22.706-2.603c10.821-13.852,19.345-28.901,26.053-44.196    c-3.454,2.515-7.145,4.823-11.028,6.871c-12.315,6.495-25.363,9.928-37.731,9.928c-15.316,0-27.257-5.304-31.942-14.189    c-5.001-9.482-0.983-20.788,1.856-26.684c6.278-13.035,18.663-25.143,33.979-33.22c12.314-6.494,25.362-9.927,37.734-9.928h0.003    h0.001c10.477,0,19.371,2.486,25.447,6.9c2.157-11.294,3.578-21.937,4.503-31.456c-8.966-3.594-19.157-5.445-29.956-5.444    C413.465,250.086,395.462,254.435,378.316,263.477z"/>
		<path style="fill:#D8D7DA;" d="M386.566,118.922c-8.655,14.84-92.428,130.843-107.269,122.188    c-14.84-8.655,44.872-138.689,53.527-153.529c8.655-14.84,27.701-19.855,42.542-11.2    C390.206,85.035,395.221,104.082,386.566,118.922z"/>
		<path style="fill:#C6C5CA;" d="M364.151,151.095c-26.709-10.534-35.069-32.876-36.386-53.693    c-16.768,34.289-61.54,136.085-48.467,143.709C289.903,247.295,335.711,189.819,364.151,151.095z"/>
		<path style="fill:#EAB9A4;" d="M235.622,236.107c-12.475,0-22.587-10.113-22.587-22.587c0-45.858-10.905-57.327-22.449-69.47    c-10.406-10.944-23.356-24.565-25.672-53.13c-3.926-48.418,31.469-74.83,62.973-82.737c12.105-3.037,24.37,4.311,27.406,16.41    c3.037,12.1-4.31,24.37-16.41,27.406c-27.119,6.806-29.773,25.019-28.941,35.27c1.026,12.657,4.898,16.73,13.383,25.654    c18.383,19.336,34.885,41.579,34.885,100.597C258.21,225.994,248.097,236.107,235.622,236.107z"/>
		<path style="fill:#BDEBFF;" d="M364.125,172.457H78.255c-34.933,0-62.509,29.442-60.494,64.317    C20.753,288.53,36.189,361,92.644,413.282c25.83,23.921,59.98,36.83,95.186,36.83l66.718,0c35.206,0,69.355-12.909,95.186-36.83    c56.69-52.5,72.019-125.356,74.919-177.153C426.59,201.508,398.8,172.457,364.125,172.457z"/>
		<path style="fill:#92D8FF;" d="M143.007,255.997c-0.951-80.866,75.93-83.477,83.411-83.54H78.255    c-34.933,0-62.509,29.442-60.494,64.317C20.753,288.53,36.189,361,92.644,413.282c25.83,23.921,59.98,36.83,95.186,36.83h66.718    c5.084,0,10.145-0.278,15.164-0.811C251.973,300.282,143.944,335.635,143.007,255.997z"/>
		<path style="fill:#DD9F80;" d="M180.611,472.994H61.649v-69.937c0-27.075,21.949-49.024,49.024-49.024h20.912    c27.075,0,49.024,21.949,49.024,49.024V472.994z"/>
		<path style="fill:#C68D6D;" d="M146.082,356.213c-4.581-1.416-9.449-2.181-14.496-2.181h-20.912    c-27.075,0-49.024,21.949-49.024,49.024v69.937h49.904v-69.937C111.554,381.028,126.084,362.395,146.082,356.213z"/>
		<path style="fill:#D7F3FF;" d="M397.379,427.965H45.026c-16.973,0-25.088,23.679-12.576,36.698l20.135,20.951    c11.673,12.146,26.933,18.884,42.768,18.884h251.7c15.835,0,31.095-6.738,42.768-18.884l20.134-20.951    C422.467,451.644,414.352,427.965,397.379,427.965z"/>
		<path style="fill:#BDEBFF;" d="M145.12,464.663c-12.512-13.019-4.397-36.698,12.576-36.698H45.025    c-16.973,0-25.087,23.679-12.576,36.698l20.135,20.951c11.673,12.146,26.933,18.884,42.768,18.884h112.67    c-15.835,0-31.095-6.738-42.768-18.884L145.12,464.663z"/>
		<path style="fill:#EAB9A4;" d="M89.458,113.572c-6.57-23.101-5.028-48.638,4.459-73.85c4.394-11.675,17.42-17.579,29.096-13.185    c11.675,4.394,17.578,17.421,13.185,29.096c-6.142,16.321-7.248,31.657-3.289,45.582c3.412,11.999-3.632,24.212-15.547,27.904    C101.094,134.16,92.283,123.507,89.458,113.572z"/>
		<path style="fill:#57565C;" d="M221.202,321.303L221.202,321.303c-15.52,0-28.1-12.581-28.1-28.1v-20.43    c0-4.237,3.434-7.671,7.671-7.671h40.859c4.237,0,7.671,3.434,7.671,7.671v20.43C249.302,308.722,236.722,321.303,221.202,321.303    z"/>
		<ellipse style="fill:#FFA6BB;" cx="127.207" cy="293.202" rx="29.973" ry="23.869"/>
		<ellipse style="fill:#FFA6BB;" cx="315.198" cy="293.202" rx="29.973" ry="23.869"/>
	</g>
	<g id="stroke_10_">
		<path d="M301.859,252.649c-4.143,0-7.5,3.358-7.5,7.5V272.6c0,4.142,3.357,7.5,7.5,7.5s7.5-3.358,7.5-7.5v-12.451    C309.359,256.007,306.002,252.649,301.859,252.649z"/>
		<path d="M140.546,252.649c-4.143,0-7.5,3.358-7.5,7.5V272.6c0,4.142,3.357,7.5,7.5,7.5c4.143,0,7.5-3.358,7.5-7.5v-12.451    C148.046,256.007,144.688,252.649,140.546,252.649z"/>
		<path d="M495.154,276.781c-11.074-20.998-34.697-33.689-63.406-34.173c0.149-2.047,2.474-33.232-18.027-56.29    c-20.145-22.657-50.515-21.361-50.515-21.361c15.169-20.242,26.847-37.128,29.839-42.257    c10.724-18.389,4.488-42.074-13.901-52.798c-18.388-10.727-42.074-4.489-52.799,13.9c-4.779,8.195-22.22,45.289-36.486,81.155    H260.83c-6.794-28.753-20.076-44.587-32.07-57.203c-8.09-8.508-10.532-11.076-11.343-21.092    c-1.137-14.01,6.7-23.225,23.292-27.389c16.091-4.039,25.897-20.415,21.858-36.506c-4.038-16.09-20.416-25.896-36.506-21.858    c-19.08,4.789-36.311,14.886-48.518,28.43c-15.093,16.748-22.045,38.252-20.105,62.188c2.531,31.206,17.084,46.514,27.712,57.692    c4.604,4.843,8.785,9.258,12.164,15.74H78.255c-18.912,0-36.475,7.573-49.455,21.325c-13.045,13.821-19.625,31.907-18.525,50.925    c2.307,39.915,12.406,97.522,47.124,146.988c-2.096,5.903-3.248,12.249-3.248,18.862v17.408h-9.124    c-10.26,0-19.317,6.298-23.634,16.435c-4.854,11.399-2.636,24.336,5.651,32.959l20.135,20.951    c13.13,13.663,30.24,21.187,48.176,21.187h251.7c17.936,0,35.045-7.524,48.176-21.187l20.135-20.95    c8.287-8.624,10.505-21.561,5.651-32.96c-4.318-10.138-13.374-16.435-23.634-16.435h-44.41    c0.623-0.557,14.157-13.791,19.578-20.162c5.118,0.859,32.48,3.417,66.538-10.665c3.828-1.583,5.316-6.266,3.529-10.002    c-1.788-3.736-6.294-5.374-10.002-3.529c-23.382,11.631-47.549,10.432-49.203,10.335c3.549-4.924,6.849-9.934,9.922-15.005    c12.056-0.782,24.592-4.442,36.317-10.626c16.705-8.81,30.277-22.149,37.237-36.599c3.453-7.168,8.983-21.448,1.733-33.437    c-11.595-19.175-38.573-18.19-38.575-18.19c-0.587,0-1.18,0.02-1.772,0.035c0.82-5.109,1.507-10.129,2.072-15.031    c23.672,0.081,42.929,9.857,51.542,26.189c11.883,22.533,2.19,53.034-24.121,75.899c-3.127,2.717-3.458,7.454-0.742,10.581    c1.483,1.707,6.605,4.269,10.581,0.742C499.001,343.146,510.356,305.604,495.154,276.781z M339.303,91.359    c6.557-11.245,21.04-15.058,32.285-8.5c11.244,6.558,15.057,21.04,8.5,32.284c-3.305,5.667-18.251,26.985-35.691,49.814h-38.375    C319.79,130.988,335.431,97.999,339.303,91.359z M196.021,138.881c-10.091-10.614-21.529-22.645-23.631-48.567    c-3.546-43.743,28.663-67.664,57.323-74.857c8.069-2.024,16.281,2.893,18.306,10.961c0.981,3.909,1.473,15.48-10.961,18.306    c-33.875,7.698-35.415,32.994-34.591,43.15c1.24,15.298,6.579,20.914,15.423,30.215c10.588,11.138,21.349,23.946,27.471,46.868    h-31.634C208.995,152.56,202.421,145.613,196.021,138.881z M397.38,435.465c6.064,0,8.897,5.114,9.834,7.313    c1.895,4.447,2.333,11.487-2.666,16.688l-20.135,20.951c-10.275,10.692-23.544,16.581-37.36,16.581h-251.7    c-13.816,0-27.085-5.889-37.36-16.581l-20.135-20.951c-4.998-5.201-4.56-12.24-2.665-16.688c0.936-2.199,3.769-7.313,9.833-7.313    H397.38z M344.636,407.78c-5.004,4.634-10.418,8.885-16.127,12.686H69.15v-17.408c0-22.897,18.628-41.524,41.524-41.524h20.912    c21.046,0,38.774,15.733,41.236,36.596c0.485,4.113,4.21,7.056,8.327,6.569c4.114-0.485,7.055-4.213,6.569-8.327    c-3.352-28.413-27.484-49.838-56.132-49.838h-20.912c-18.505,0-34.962,8.939-45.28,22.726    c-29.268-45.14-38.05-96.661-40.145-132.916c-0.858-14.854,4.277-28.976,14.459-39.764c10.117-10.718,23.807-16.621,38.547-16.621    h285.87c14.792,0,28.534,5.919,38.697,16.667c10.064,10.643,15.157,24.524,14.342,39.086    C414.338,286.183,399.461,357.007,344.636,407.78z M430.048,287.585C430.048,287.585,430.048,287.585,430.048,287.585    c12.293,0,21.988,3.903,25.302,10.188c3.595,6.816-0.187,16.208-1.979,19.93c-5.597,11.619-16.794,22.496-30.72,29.84    c-6.598,3.479-13.457,6.003-20.255,7.491c11.226-22.342,18.487-45.379,23.078-67.274    C427.014,287.645,428.543,287.585,430.048,287.585z"/>
		<path d="M241.632,257.602h-40.859c-8.366,0-15.171,6.806-15.171,15.171v20.43c0,19.63,15.97,35.6,35.6,35.6    c19.629,0,35.6-15.97,35.601-35.6v-20.43C256.803,264.408,249.997,257.602,241.632,257.602z M241.803,293.203    c0,11.359-9.242,20.601-20.601,20.601c-11.359,0-20.6-9.241-20.6-20.6v-20.43c0-0.094,41.201-0.094,41.201,0V293.203z"/>
		<path d="M96.739,134.771c2.969,1.609,10.893,5.097,22.842,1.513c16.071-4.82,25.049-21.27,20.541-37.119    c-3.511-12.348-2.47-26.105,3.095-40.89c5.842-15.527-2.036-32.913-17.563-38.757c-15.526-5.843-32.913,2.036-38.756,17.563    c-1.837,4.88-3.416,9.854-4.693,14.78c-1.039,4.01,1.369,8.103,5.379,9.142c4.008,1.039,8.103-1.369,9.142-5.379    c1.144-4.414,2.561-8.874,4.211-13.259c2.93-7.787,11.648-11.739,19.434-8.808c7.786,2.93,11.737,11.649,8.808,19.435    c-6.721,17.855-7.893,34.771-3.484,50.276c2.26,7.946-2.375,16.154-10.553,18.688c-4.462,1.382-15.208,1.553-18.47-10.435    c-2.441-8.971-3.792-18.373-3.712-28.03c0.035-4.142-3.295-7.528-7.437-7.562c-4.143-0.027-7.528,3.296-7.562,7.437    c-0.092,11.087,1.349,21.941,4.284,32.258C84.656,124.106,89.94,131.085,96.739,134.771z"/>
	</g>
</g>















</svg>
