<?xml version="1.0" encoding="iso-8859-1"?>
<!-- Generator: Adobe Illustrator 19.0.0, SVG Export Plug-In . SVG Version: 6.00 Build 0)  -->
<svg version="1.1" id="Capa_1" xmlns="http://www.w3.org/2000/svg" xmlns:xlink="http://www.w3.org/1999/xlink" x="0px" y="0px"
	 viewBox="0 0 512 512" style="enable-background:new 0 0 512 512;" xml:space="preserve">
<path style="fill:#D19546;" d="M154.973,168.174c-0.122,1.969-0.19,62.784-0.19,62.784c0,55.902,45.318,101.22,101.22,101.22
	c55.901,0,101.218-45.317,101.218-101.22c0,0-0.068-60.815-0.19-62.784L154.973,168.174L154.973,168.174z"/>
<g>
	<path style="fill:#F7931E;" d="M154.782,230.958c0,0,0.069-60.815,0.19-62.784h-21.561v55.62c0,8.25,6.75,15,15,15h6.67
		C154.884,236.208,154.782,233.595,154.782,230.958z"/>
	<path style="fill:#F7931E;" d="M357.029,168.174c0.122,1.969,0.19,62.784,0.19,62.784c0,2.637-0.102,5.25-0.3,7.836h6.671
		c8.25,0,15-6.75,15-15v-55.62H357.029z"/>
</g>
<g>
	<path style="fill:#B2762F;" d="M103.659,433.623c-2.414,0-4.761-0.297-7.014-0.842V494.5c0,5.5,4.5,10,10,10h25.275v-70.877
		H103.659z"/>
	<path style="fill:#B2762F;" d="M408.343,433.623h-28.262V504.5h25.275c5.5,0,10-4.5,10-10v-61.719
		C413.104,433.326,410.757,433.623,408.343,433.623z"/>
</g>
<path style="opacity:0.15;fill:#490089;enable-background:new    ;" d="M111.001,494.5v-60.877h-7.342
	c-2.414,0-4.761-0.297-7.014-0.842V494.5c0,5.5,4.5,10,10,10h14.356C115.501,504.5,111.001,500,111.001,494.5z"/>
<g>
	<path style="fill:#368C0E;" d="M408.343,355.25h-28.262v78.373h28.262c16.5,0,30-13.5,30-30V385.25
		C438.343,368.75,424.843,355.25,408.343,355.25z"/>
	<path style="fill:#368C0E;" d="M131.921,355.25h-28.262c-16.5,0-30,13.5-30,30v18.373c0,16.5,13.5,30,30,30h28.262V355.25z"/>
</g>
<g>
	<path style="fill:#FFC502;" d="M100.776,386.941v14.117c0,4.874-3.951,8.824-8.823,8.824H74.325
		c-0.434-2.021-0.666-4.114-0.666-6.259V385.25c0-2.456,0.306-4.843,0.869-7.132h17.425
		C96.825,378.118,100.776,382.068,100.776,386.941z"/>
	<path style="fill:#FFC502;" d="M411.226,386.941v14.117c0,4.874,3.951,8.824,8.822,8.824h17.629
		c0.434-2.021,0.666-4.114,0.666-6.259V385.25c0-2.456-0.307-4.843-0.869-7.132h-17.426
		C415.177,378.118,411.226,382.068,411.226,386.941z"/>
</g>
<rect x="131.921" y="355.25" style="fill:#FFFFFF;" width="248.16" height="149.25"/>
<rect x="131.921" y="355.25" style="opacity:0.15;fill:#490089;enable-background:new    ;" width="25.08" height="149.25"/>
<path style="fill:#FFC502;" d="M311.646,355.25l-51.525,35.451c-2.266,1.559-5.973,1.559-8.238,0l-51.525-35.451h-38.637
	l1.736,10.323c0.456,2.712,2.693,6.192,4.971,7.733l83.546,56.539c2.277,1.541,6.004,1.541,8.281,0l83.546-56.539
	c2.277-1.541,4.482-5.026,4.899-7.744l1.581-10.311h-38.635V355.25z"/>
<path style="fill:#B2762F;" d="M291.853,325.637c-11.145,4.223-23.226,6.541-35.851,6.541c-12.626,0-24.709-2.318-35.855-6.542
	v29.614h-19.791l51.525,35.451c2.266,1.559,5.973,1.559,8.238,0l51.525-35.451h-19.792v-29.613H291.853z"/>
<path style="opacity:0.15;fill:#490089;enable-background:new    ;" d="M220.147,325.636v29.614h-19.791l34.147,23.494v-48.861
	C229.574,328.815,224.78,327.391,220.147,325.636z"/>
<g style="opacity:0.15;">
	<path style="fill:#330068;" d="M177.563,230.958v-56.747c0-2.059,0.068-4.068,0.19-6.037h-22.78
		c-0.122,1.969-0.19,3.978-0.19,6.037v56.747c0,55.902,45.318,101.22,101.22,101.22c3.851,0,7.65-0.223,11.391-0.642
		C216.854,325.875,177.563,283.009,177.563,230.958z"/>
</g>
<path style="fill:#368C0E;" d="M123.109,144.396h265.783c0.035,0,0.069,0.005,0.105,0.006v-3.907
	C388.997,67.044,329.453,7.5,256.001,7.5c-73.451,0-132.996,59.544-132.996,132.995v3.907
	C123.04,144.401,123.074,144.396,123.109,144.396z"/>
<g style="opacity:0.15;">
	<path style="fill:#330068;" d="M123.109,144.396h22.892v-3.901C146.001,70.919,199.433,13.83,267.499,8
		c-3.79-0.324-7.623-0.5-11.498-0.5c-73.451,0-132.996,59.544-132.996,132.995v3.907
		C123.04,144.401,123.074,144.396,123.109,144.396z"/>
</g>
<path style="fill:#FFC502;" d="M296.501,144.396V13.788C283.73,9.71,270.124,7.5,256.001,7.5c-14.123,0-27.73,2.21-40.5,6.288
	v130.608H296.501z"/>
<path style="fill:#C5CCD3;" d="M398.893,158.174c0,5.5-4.5,10-10,10H123.109c-5.5,0-10-4.5-10-10v-3.777c0-5.5,4.5-10,10-10h265.783
	c5.5,0,10,4.5,10,10v3.777H398.893z"/>
<g style="opacity:0.15;">
	<path style="fill:#3D0072;" d="M142.218,158.174v-3.777c0-5.5,4.5-10,10-10H123.11c-5.5,0-10,4.5-10,10v3.777c0,5.5,4.5,10,10,10
		h29.108C146.718,168.174,142.218,163.674,142.218,158.174z"/>
</g>
<g>
	<ellipse style="fill:#775436;" cx="207.001" cy="223.53" rx="13.477" ry="13.529"/>
	<ellipse style="fill:#775436;" cx="304.951" cy="223.53" rx="13.529" ry="13.477"/>
</g>
<path style="fill:#368C0E;" d="M317.501,468c0,5.523-4.477,10-10,10h-103c-5.523,0-10-4.477-10-10v-5c0-5.523,4.477-10,10-10h103
	c5.523,0,10,4.477,10,10V468z"/>
<g style="opacity:0.15;">
	<path style="fill:#3D0072;" d="M224.001,468v-5c0-5.523,4.477-10,10-10h-29.5c-5.523,0-10,4.477-10,10v5c0,5.523,4.477,10,10,10
		h29.5C228.478,478,224.001,473.523,224.001,468z"/>
</g>
<g>
	<path style="fill:#F7931E;" d="M190.587,105.06c0,2.75-2.25,5-5,5h-20.001c-2.75,0-3.716-1.848-2.146-4.105l24.293-34.944
		c1.57-2.258,2.854-1.856,2.854,0.894V105.06z"/>
	<path style="fill:#F7931E;" d="M321.415,105.06c0,2.75,2.25,5,5,5h20.001c2.75,0,3.716-1.848,2.146-4.105L324.269,71.01
		c-1.569-2.258-2.853-1.856-2.853,0.894v33.156H321.415z"/>
</g>
<path d="M408.343,347.75h-96.697h-12.292v-17.114c5.095-2.225,9.995-4.815,14.65-7.763h31.049c5.567,0,11.435-3.604,13.95-8.569
	l24.629-48.59h4.011c9.649,0,17.5-7.851,17.5-17.5v-69.436c0-3.479-1.024-6.718-2.783-9.441c2.518-3.032,4.034-6.923,4.034-11.162
	v-3.777c0-6.931-4.06-12.916-9.919-15.748C395.48,62.028,332.854,0,256.001,0c-76.852,0-139.479,62.028-140.473,138.648
	c-5.858,2.832-9.919,8.817-9.919,15.748v3.777c0,4.239,1.517,8.13,4.035,11.162c-1.76,2.724-2.784,5.963-2.784,9.441v69.436
	c0,9.649,7.851,17.5,17.5,17.5h4.01l24.629,48.592c2.518,4.964,8.385,8.567,13.951,8.567H198c4.654,2.947,9.554,5.538,14.647,7.762
	v17.115H103.659c-20.678,0-37.5,16.822-37.5,37.5v18.373c0,15.535,9.495,28.892,22.986,34.576V494.5c0,9.649,7.851,17.5,17.5,17.5
	h298.711c9.649,0,17.5-7.851,17.5-17.5v-56.301c13.491-5.684,22.986-19.041,22.986-34.576V385.25
	C445.843,364.572,429.021,347.75,408.343,347.75z M420.048,402.382c-0.729,0-1.322-0.594-1.322-1.324v-14.117
	c0-0.73,0.593-1.324,1.322-1.324h10.795v16.765L420.048,402.382L420.048,402.382z M225.87,307.873l-8.775-23.373h78.388
	l-8.31,23.373H225.87z M274.333,322.873c-5.931,1.181-12.059,1.805-18.331,1.805c-6.273,0-12.401-0.625-18.332-1.805H274.333z
	 M309.484,307.873h-6.393l8.31-23.373h21.473C326.518,293.6,318.589,301.522,309.484,307.873z M256.001,214.455
	c-4.142,0-7.5,3.358-7.5,7.5v28.758h-84.117c-1.373-6.372-2.102-12.979-2.102-19.755v-31.476H349.72v31.476
	c0,6.776-0.729,13.383-2.102,19.755h-84.117v-28.758C263.501,217.813,260.144,214.455,256.001,214.455z M195.44,269.5h-24.862
	c-0.565-1.248-1.1-2.511-1.611-3.787h25.052L195.44,269.5z M162.282,184.482v-8.808H349.72v8.808H162.282z M343.035,265.713
	c-0.512,1.276-1.046,2.54-1.611,3.787h-24.69l1.347-3.787H343.035z M345.689,307.392c-0.17,0.178-0.548,0.409-0.783,0.481h-12.141
	c6.941-6.928,12.95-14.789,17.828-23.373h6.699L345.689,307.392z M364.895,269.5h-7.239c0.477-1.253,0.938-2.513,1.368-3.787h7.791
	L364.895,269.5z M390.142,248.213c0,1.355-1.144,2.5-2.5,2.5h-24.726c0.27-1.463,0.507-2.938,0.717-4.42
	c12.387-0.023,22.458-10.107,22.458-22.499v-24.312h4.051V248.213z M371.091,199.482v24.312c0,3.752-2.772,6.86-6.374,7.406
	c0-0.081,0.003-0.161,0.003-0.242v-31.476H371.091z M364.72,184.482v-8.808h6.371v8.808H364.72z M390.142,184.482h-4.051v-8.367
	c0.5,0.105,1.019,0.163,1.551,0.163c1.356,0,2.5,1.145,2.5,2.5V184.482z M289.001,19.412V64c0,4.142,3.357,7.5,7.5,7.5
	s7.5-3.358,7.5-7.5V24.55c44.402,18.45,76.007,61.686,77.441,112.346h-77.441V106c0-4.142-3.357-7.5-7.5-7.5s-7.5,3.358-7.5,7.5
	v30.896h-66V19.412c10.52-2.87,21.582-4.412,33-4.412C267.418,15,278.481,16.542,289.001,19.412z M208.001,24.549v112.347H130.56
	C131.994,86.236,163.599,43,208.001,24.549z M120.609,158.174v-3.777c0-1.355,1.145-2.5,2.5-2.5h265.783c1.355,0,2.5,1.145,2.5,2.5
	v3.777c0,1.355-1.145,2.5-2.5,2.5H123.109C121.754,160.674,120.609,159.529,120.609,158.174z M147.282,199.482v31.476
	c0,0.081,0.003,0.161,0.003,0.242c-3.602-0.546-6.374-3.654-6.374-7.406v-24.312H147.282z M140.911,184.482v-8.808h6.371v8.808
	H140.911z M125.911,176.115v8.367h-4.051v-5.705c0-1.355,1.145-2.5,2.5-2.5C124.892,176.277,125.411,176.22,125.911,176.115z
	 M124.36,250.713c-1.355,0-2.5-1.145-2.5-2.5v-48.731h4.051v24.312c0,12.393,10.07,22.476,22.458,22.499
	c0.21,1.482,0.448,2.957,0.717,4.42H124.36z M147.106,269.5l-1.919-3.787h7.792c0.431,1.274,0.891,2.534,1.368,3.787H147.106z
	 M167.097,307.873c-0.236-0.072-0.615-0.304-0.785-0.482l-11.602-22.89h6.7c4.878,8.584,10.886,16.444,17.828,23.373
	L167.097,307.873L167.097,307.873z M202.518,307.873c-9.105-6.35-17.033-14.273-23.39-23.373h21.944l8.775,23.373H202.518z
	 M210.041,265.713h92.121l-1.347,3.787h-89.353L210.041,265.713z M256.002,339.678c9.807,0,19.308-1.321,28.351-3.768v19.34
	c0,2.974,1.732,5.543,4.24,6.756l-32.497,22.359c-0.055,0.005-0.137,0.005-0.191,0l-32.498-22.359
	c2.509-1.213,4.24-3.783,4.24-6.756v-19.34C236.692,338.356,246.194,339.678,256.002,339.678z M91.953,385.618
	c0.729,0,1.323,0.594,1.323,1.324v14.117c0,0.73-0.594,1.324-1.323,1.324H81.159v-16.765L91.953,385.618L91.953,385.618z
	 M85.875,417.382h6.078c9.001,0,16.323-7.323,16.323-16.324v-14.117c0-9.001-7.323-16.324-16.323-16.324h-5.365
	c4.129-4.811,10.248-7.868,17.071-7.868h20.762v63.373h-20.762C96.432,426.123,89.995,422.694,85.875,417.382z M104.145,494.5
	v-53.377h20.275V497h-17.775C105.291,497,104.145,495.855,104.145,494.5z M405.356,497h-17.775v-10c0-4.142-3.357-7.5-7.5-7.5
	s-7.5,3.358-7.5,7.5v10h-233.16V362.75h15.956l0.684,4.066c0.802,4.768,4.159,9.991,8.163,12.701l21.569,14.597
	c3.431,2.32,8.094,1.423,10.415-2.008s1.422-8.093-2.008-10.415l-21.564-14.593c-0.62-0.445-1.638-2.029-1.784-2.77l-0.266-1.579
	h27.439l49.605,34.13c2.334,1.605,5.307,2.49,8.37,2.49c3.063,0,6.036-0.884,8.37-2.49l49.605-34.13h27.568l-0.255,1.661
	c-0.137,0.723-1.107,2.256-1.691,2.683l-83.338,56.398c-0.088,0.011-0.202,0.011-0.29,0l-28.765-19.467
	c-3.431-2.321-8.093-1.423-10.415,2.008c-2.321,3.431-1.422,8.093,2.008,10.415l28.974,19.607c2.418,1.636,5.38,2.454,8.344,2.454
	c2.963,0,5.927-0.818,8.344-2.454l83.546-56.539c4.034-2.729,7.368-8,8.109-12.819l0.605-3.948h15.862V447
	c0,4.142,3.357,7.5,7.5,7.5s7.5-3.358,7.5-7.5v-5.877h20.275V494.5C407.856,495.855,406.712,497,405.356,497z M408.343,426.123
	h-20.762V362.75h20.762c6.823,0,12.941,3.057,17.071,7.868h-5.366c-9,0-16.322,7.323-16.322,16.324v14.117
	c0,9.001,7.322,16.324,16.322,16.324h6.079C422.007,422.694,415.569,426.123,408.343,426.123z"/>
<path d="M207.002,202.5c-11.567,0-20.978,9.434-20.978,21.029c0,11.596,9.411,21.029,20.978,21.029
	c11.566,0,20.976-9.434,20.976-21.029S218.568,202.5,207.002,202.5z M207.002,229.558c-3.296,0-5.978-2.705-5.978-6.029
	s2.682-6.029,5.978-6.029c3.295,0,5.976,2.705,5.976,6.029C212.978,226.854,210.297,229.558,207.002,229.558z"/>
<path d="M304.948,244.506c11.596,0,21.029-9.411,21.029-20.978c0-11.566-9.434-20.977-21.029-20.977s-21.029,9.41-21.029,20.977
	C283.919,235.096,293.353,244.506,304.948,244.506z M304.948,217.552c3.324,0,6.029,2.681,6.029,5.977s-2.705,5.978-6.029,5.978
	s-6.029-2.682-6.029-5.978C298.919,220.233,301.624,217.552,304.948,217.552z"/>
<path d="M307.501,445.5h-103c-9.649,0-17.5,7.851-17.5,17.5v5c0,9.649,7.851,17.5,17.5,17.5h103c9.649,0,17.5-7.851,17.5-17.5v-5
	C325.001,453.351,317.15,445.5,307.501,445.5z M310.001,468c0,1.378-1.121,2.5-2.5,2.5h-103c-1.378,0-2.5-1.122-2.5-2.5v-5
	c0-1.378,1.122-2.5,2.5-2.5h103c1.379,0,2.5,1.122,2.5,2.5V468z"/>
<path d="M156.246,112.328c1.712,3.276,5.204,5.232,9.34,5.232h20.001c6.893,0,12.5-5.607,12.5-12.5V71.904
	c0-6.772-4.431-9.856-8.548-9.856c-2.148,0-5.274,0.813-7.964,4.681l-24.292,34.944
	C154.921,105.068,154.534,109.051,156.246,112.328z M183.087,90.832v11.727h-8.153L183.087,90.832z"/>
<path d="M326.415,117.56h20.001c4.136,0,7.628-1.956,9.34-5.232s1.324-7.26-1.036-10.654L330.427,66.73
	c-2.69-3.869-5.815-4.681-7.964-4.681c-4.117,0-8.548,3.084-8.548,9.856v33.155C313.915,111.952,319.523,117.56,326.415,117.56z
	 M328.915,90.833l8.152,11.727h-8.152V90.833z"/>
<path d="M276.62,287.5h-40.17c-4.142,0-7.5,3.358-7.5,7.5s3.358,7.5,7.5,7.5h40.17c4.143,0,7.5-3.358,7.5-7.5
	S280.763,287.5,276.62,287.5z"/>
<g>
</g>
<g>
</g>
<g>
</g>
<g>
</g>
<g>
</g>
<g>
</g>
<g>
</g>
<g>
</g>
<g>
</g>
<g>
</g>
<g>
</g>
<g>
</g>
<g>
</g>
<g>
</g>
<g>
</g>
</svg>
