<?xml version="1.0" encoding="iso-8859-1"?>
<!-- Generator: Adobe Illustrator 19.0.0, SVG Export Plug-In . SVG Version: 6.00 Build 0)  -->
<svg version="1.1" id="Capa_1" xmlns="http://www.w3.org/2000/svg" xmlns:xlink="http://www.w3.org/1999/xlink" x="0px" y="0px"
	 viewBox="0 0 512 512" style="enable-background:new 0 0 512 512;" xml:space="preserve">
<g>
	<path style="fill:#135693;" d="M234.567,475.83l-4.671-17.998l-68.164-42.918c-2.327-1.465-4.231-4.914-4.231-7.664v-52h-24.857
		c-8.25,0-15,6.75-15,15V494.5c0,5.5,4.5,10,10,10h104.259c-1.865-3.671-2.924-7.821-2.924-12.221
		C228.978,486.088,231.065,480.387,234.567,475.83z"/>
	<path style="fill:#135693;" d="M289.234,23.366c-9.794,0-19.192,1.67-27.955,4.701C247.997,15.337,229.988,7.5,210.138,7.5
		c-40.837,0-73.942,33.105-73.942,73.942v83.337c5.675,3.458,11.934,6.293,18.586,8.456v-31.431c0-15.19,5.786-28.202,16.732-37.629
		c10.48-9.025,25.034-13.996,40.979-13.996c14.679,0,29.73,6.811,41.296,18.684c0.581,0.598,1.379,0.934,2.212,0.934
		s1.631-0.336,2.213-0.934c11.565-11.873,26.617-18.684,41.296-18.684c15.944,0,30.497,4.971,40.979,13.996
		c10.946,9.427,16.731,22.438,16.731,37.629v31.431c6.229-2.025,12.116-4.637,17.499-7.799V108.85
		C374.718,61.639,336.445,23.366,289.234,23.366z"/>
</g>
<path style="opacity:0.15;fill:#0C0119;enable-background:new    ;" d="M154.781,141.804c0-11.813,3.515-22.299,10.219-30.815
	V81.442c0-35.914,25.608-65.837,59.558-72.532c-4.664-0.924-9.484-1.41-14.42-1.41c-40.837,0-73.942,33.105-73.942,73.942v83.337
	c5.675,3.458,11.934,6.293,18.586,8.456L154.781,141.804L154.781,141.804z"/>
<path style="fill:#135693;" d="M379.357,355.25H354.5v52c0,2.75-1.904,6.199-4.231,7.664l-68.152,42.91l-4.674,18.018
	c-0.001-0.002-0.003-0.004-0.004-0.006c3.499,4.556,5.584,10.254,5.584,16.443c0,4.4-1.058,8.55-2.924,12.221h104.259
	c5.5,0,10-4.5,10-10V370.25C394.357,362,387.607,355.25,379.357,355.25z"/>
<g style="opacity:0.15;">
	<path style="fill:#0C0119;" d="M142.285,494.5V370.25c0-8.25,6.75-15,15-15h-24.643c-8.25,0-15,6.75-15,15V494.5
		c0,5.5,4.5,10,10,10h24.643C146.785,504.5,142.285,500,142.285,494.5z"/>
</g>
<g>
	<path style="fill:#203A74;" d="M319.229,362.203v42.408c0,1.65-1.271,2.544-2.824,1.988l-19.211-6.886l-15.076,58.111l68.152-42.91
		c2.327-1.465,4.231-4.914,4.231-7.664v-76.433C341.779,340.399,329.965,350.897,319.229,362.203z"/>
	<path style="fill:#203A74;" d="M214.811,399.711l-19.214,6.888c-1.553,0.557-2.824-0.338-2.824-1.988v-38.755
		c-10.705-11.702-22.522-22.612-35.272-32.611v74.004c0,2.75,1.904,6.199,4.231,7.664l68.164,42.918L214.811,399.711z"/>
</g>
<g>
	<path style="fill:#C0272D;" d="M161.231,281.505c-3.437-3.35-6.45-10.502-6.45-15.306v-7.251
		c-5.655-3.021-10.835-6.817-15.408-11.236c-23.791,8.27-46.741,19.076-68.438,32.32c-0.982,0.599-1.535,1.707-1.424,2.852
		c0.112,1.145,0.869,2.125,1.948,2.523c47.317,17.449,89.275,45.427,121.312,80.449v-20.467c0-1.65,1.271-2.544,2.824-1.988
		l4.975,1.783v-25.326l6.992,6.817L161.231,281.505z"/>
	<path style="fill:#C0272D;" d="M441.065,279.939c-21.686-13.223-44.624-24.009-68.398-32.265
		c-4.583,4.436-9.776,8.245-15.448,11.274v7.251c0,4.804-3.014,11.956-6.45,15.306l-39.34,38.354v25.325l4.976-1.783
		c1.553-0.557,2.824,0.338,2.824,1.988v16.814c32.203-33.909,74.042-60.603,121.25-76.867c1.1-0.378,1.881-1.358,2.006-2.513
		C442.609,281.668,442.057,280.544,441.065,279.939z"/>
</g>
<g style="opacity:0.15;">
	<path style="fill:#330068;" d="M192.773,345.389c0-1.65,1.271-2.544,2.824-1.988l4.749,1.702
		c-27.395-32.747-63.221-59.979-104.113-79.122c-8.597,4.331-17.04,9.011-25.297,14.051c-0.982,0.599-1.535,1.707-1.424,2.852
		c0.112,1.145,0.869,2.125,1.948,2.523c47.317,17.449,89.275,45.427,121.312,80.449v-20.467H192.773z"/>
</g>
<g>
	<path style="fill:#FFFFFF;" d="M223.099,332.999c-4.821,0-12.08-2.955-15.535-6.323l-46.332-45.171
		c-3.437-3.35-6.45-10.502-6.45-15.306V141.804c0-15.19,5.786-28.202,16.732-37.629c10.48-9.025,25.034-13.996,40.979-13.996
		c14.679,0,29.73,6.811,41.296,18.684c0.581,0.598,1.379,0.934,2.212,0.934s1.631-0.336,2.213-0.934
		c11.565-11.873,26.617-18.684,41.296-18.684c15.944,0,30.497,4.971,40.979,13.996c10.946,9.427,16.731,22.438,16.731,37.629
		v124.395c0,4.804-3.014,11.956-6.45,15.306l-46.331,45.171c-3.455,3.368-10.715,6.323-15.535,6.323H223.099z"/>
	<path style="fill:#FFFFFF;" d="M256,465.256c8.739,0,16.503,4.152,21.443,10.586l19.75-76.129l-24.766-8.878
		c-0.554-0.198-1.068-0.56-1.505-1.012h-29.846c-0.437,0.452-0.951,0.814-1.505,1.012l-24.761,8.876l19.756,76.119
		C239.507,469.403,247.268,465.256,256,465.256z"/>
</g>
<path style="opacity:0.15;fill:#490089;enable-background:new    ;" d="M253.581,465.37l-18.891-72.785l-19.879,7.126l19.756,76.119
	C239.045,470.003,245.843,466.057,253.581,465.37z"/>
<g>
	<path style="fill:#E6E9ED;" d="M154.781,173.235c-7.265-2.361-14.068-5.516-20.145-9.418c-0.914-0.586-1.969-0.891-3.035-0.891
		c-0.468,0-0.938,0.059-1.399,0.178c-1.514,0.389-2.796,1.391-3.54,2.765c-5.388,9.948-8.236,21.219-8.236,32.595
		c0,26.164,14.744,48.942,36.355,60.485L154.781,173.235L154.781,173.235z"/>
	<path style="fill:#E6E9ED;" d="M385.339,165.868c-0.743-1.374-2.026-2.375-3.54-2.765c-0.461-0.119-0.931-0.178-1.399-0.178
		c-1.066,0-2.121,0.304-3.035,0.891c-6.076,3.902-12.88,7.057-20.145,9.418v85.713c21.611-11.543,36.355-34.321,36.355-60.485
		C393.574,187.087,390.727,175.816,385.339,165.868z"/>
	<path style="fill:#E6E9ED;" d="M239.572,359.165c0.554,0.198,1.068,0.56,1.505,1.012h29.846c0.437-0.452,0.951-0.814,1.505-1.012
		l39.001-13.98V319.86l-6.991,6.816c-3.455,3.368-10.715,6.323-15.535,6.323H223.1c-4.821,0-12.08-2.955-15.535-6.323l-6.992-6.817
		v25.326L239.572,359.165z"/>
</g>
<path style="opacity:0.15;fill:#490089;enable-background:new    ;" d="M230,355.733v-22.734h-6.901
	c-4.821,0-12.08-2.955-15.535-6.323l-6.992-6.817v25.326L230,355.733z"/>
<g style="opacity:0.15;">
	<path style="fill:#3D0072;" d="M185.013,281.505c-3.436-3.35-6.45-10.502-6.45-15.306V141.804c0-15.19,5.786-28.202,16.732-37.629
		c7.521-6.477,17.147-10.852,27.873-12.814c-3.544-0.774-7.12-1.182-10.675-1.182c-15.944,0-30.498,4.971-40.979,13.996
		c-10.946,9.427-16.732,22.438-16.732,37.629v124.395c0,4.804,3.014,11.956,6.45,15.306l46.332,45.171
		c3.455,3.368,10.714,6.323,15.535,6.323h23.781c-4.821,0-12.08-2.955-15.535-6.323L185.013,281.505z"/>
</g>
<g>
	<path style="fill:#C0272D;" d="M316.404,343.401l-43.977,15.763c-0.554,0.198-1.068,0.56-1.505,1.012h5.773v29.646h-5.773
		c0.437,0.452,0.951,0.814,1.505,1.012l43.977,15.764c1.553,0.557,2.824-0.338,2.824-1.988v-59.222
		C319.229,343.739,317.958,342.845,316.404,343.401z"/>
	<path style="fill:#C0272D;" d="M234.394,389.823v-29.646h6.684c-0.437-0.452-0.951-0.814-1.505-1.012l-43.976-15.763
		c-1.553-0.557-2.824,0.338-2.824,1.988v59.222c0,1.65,1.271,2.544,2.824,1.988l43.976-15.764c0.554-0.198,1.068-0.56,1.505-1.012
		h-6.684V389.823z"/>
</g>
<rect x="234.39" y="360.18" style="fill:#EF5050;" width="42.3" height="29.646"/>
<g>
	<polygon style="fill:#FFFFFF;" points="242.163,278 227.984,303.934 213.804,278 	"/>
	<polygon style="fill:#FFFFFF;" points="298.197,278 284.017,303.934 269.837,278 	"/>
</g>
<g>
	<circle style="fill:#FFC502;" cx="204.02" cy="188.08" r="13.477"/>
	<circle style="fill:#FFC502;" cx="306.02" cy="188.08" r="13.477"/>
	<path style="fill:#FFC502;" d="M283.023,492.279c0-14.924-12.098-27.023-27.022-27.023c-14.924,0-27.023,12.099-27.023,27.023
		c0,4.4,1.059,8.55,2.924,12.221h48.197C281.965,500.829,283.023,496.679,283.023,492.279z"/>
</g>
<g style="opacity:0.15;">
	<path style="fill:#3D0072;" d="M263.49,466.316c-2.379-0.685-4.889-1.06-7.489-1.06c-14.924,0-27.023,12.099-27.023,27.023
		c0,4.4,1.059,8.55,2.924,12.221h14.977c-1.865-3.671-2.924-7.821-2.924-12.221C243.955,479.954,252.21,469.564,263.49,466.316z"/>
</g>
<path d="M444.969,273.535c-18.952-11.556-38.844-21.28-59.403-29.134c9.724-12.767,15.508-28.686,15.508-45.938
	c0-12.62-3.161-25.126-9.14-36.163c-1.73-3.2-4.745-5.554-8.26-6.458c-0.48-0.124-0.968-0.214-1.457-0.281V108.85
	c0-51.272-41.712-92.984-92.983-92.984c-8.868,0-17.633,1.258-26.119,3.745C248.352,6.932,229.709,0,210.138,0
	c-44.908,0-81.442,36.535-81.442,81.442v74.324c-0.12,0.027-0.242,0.042-0.361,0.073c-3.522,0.905-6.536,3.259-8.267,6.457
	c-5.98,11.042-9.142,23.549-9.142,36.167c0,17.273,5.798,33.208,15.543,45.983c-20.573,7.867-40.476,17.608-59.438,29.184
	c-3.415,2.083-5.371,6.001-4.983,9.987c0.391,3.979,3.066,7.444,6.818,8.828c29.598,10.915,57.027,26.046,81.135,44.484v10.821
	h-17.357c-12.407,0-22.5,10.093-22.5,22.5V494.5c0,9.649,7.851,17.5,17.5,17.5h256.715c9.649,0,17.5-7.851,17.5-17.5V469
	c0-4.142-3.358-7.5-7.5-7.5s-7.5,3.358-7.5,7.5v25.5c0,1.355-1.145,2.5-2.5,2.5h-94.156c0.213-1.552,0.321-3.126,0.321-4.721
	c0-6.519-1.817-12.621-4.971-17.828l3.079-11.865l65.635-41.325c4.482-2.823,7.735-8.715,7.735-14.011v-44.5h17.357
	c4.136,0,7.5,3.364,7.5,7.5V428c0,4.142,3.358,7.5,7.5,7.5s7.5-3.358,7.5-7.5v-57.75c0-12.407-10.093-22.5-22.5-22.5H362v-13.162
	c4.891-3.594,9.909-7.05,15.049-10.348c3.487-2.237,4.5-6.876,2.264-10.363c-2.236-3.486-6.876-4.5-10.363-2.263
	c-15.163,9.727-29.334,20.753-42.271,32.767c-0.424-4.368-3.584-7.781-7.751-8.497v-12.861l37.075-36.147
	c4.887-4.763,8.715-13.845,8.715-20.676v-2.928c3.408-2.093,6.639-4.447,9.665-7.034c18.832,6.809,37.107,15.249,54.605,25.274
	c-8.573,3.238-17.022,6.838-25.219,10.748c-3.739,1.783-5.324,6.26-3.541,9.998c1.783,3.739,6.258,5.325,9.998,3.541
	c10.558-5.036,21.558-9.534,32.691-13.37c3.83-1.318,6.587-4.771,7.022-8.798C450.376,279.606,448.425,275.644,444.969,273.535z
	 M132.332,171.22c4.654,2.833,9.673,5.264,14.95,7.295V198.5h-7.168c-4.142,0-7.5,3.358-7.5,7.5s3.358,7.5,7.5,7.5h7.168v31.285
	c-13.062-11.2-21.355-27.808-21.355-46.322C125.926,189.004,128.135,179.629,132.332,171.22z M137.663,256.276
	c3.013,2.571,6.228,4.912,9.619,6.995v2.928c0,6.831,3.828,15.913,8.715,20.676l37.075,36.146v12.863
	c-4.482,0.771-7.799,4.664-7.799,9.505v2.096c-28.712-27.625-63.691-50.194-102.488-65.755
	C100.365,271.627,118.732,263.127,137.663,256.276z M273.191,462.361c-5.066-2.922-10.934-4.605-17.191-4.605
	c-6.253,0-12.118,1.68-17.182,4.599l-15.026-57.896l18.31-6.564c0.45-0.161,0.887-0.353,1.31-0.572h25.174
	c0.423,0.219,0.86,0.411,1.31,0.572l18.316,6.566L273.191,462.361z M200.273,353.045l26.621,9.542v24.826l-26.621,9.543V353.045z
	 M269.197,367.677v14.646h-27.303v-14.646H269.197z M284.197,387.086v-24.173l27.532-9.869v43.911L284.197,387.086z
	 M303.929,339.906l-34.031,12.198c-0.45,0.162-0.888,0.354-1.311,0.573h-25.174c-0.423-0.219-0.86-0.411-1.31-0.572l-34.032-12.199
	v-3.726c4.705,2.596,10.407,4.319,15.027,4.319h65.804c4.62,0,10.321-1.724,15.026-4.318v3.725H303.929z M125.143,494.5V370.25
	c0-4.136,3.364-7.5,7.5-7.5H150v44.5c0,5.296,3.253,11.188,7.735,14.011l11.275,7.098c3.504,2.207,8.136,1.153,10.343-2.352
	s1.154-8.136-2.352-10.343l-11.209-7.057c-0.304-0.275-0.721-1.03-0.792-1.434v-57.966c7.124,6.238,13.894,12.785,20.272,19.613
	v35.791c0,5.413,4.141,9.653,9.427,9.653h0.001c1.153,0,2.306-0.204,3.427-0.605l11.487-4.118l8.27,31.864l-7.889-4.967
	c-3.506-2.208-8.137-1.155-10.343,2.351c-2.207,3.505-1.155,8.136,2.351,10.343l21.38,13.462l3.074,11.842
	c-3.159,5.211-4.98,11.318-4.98,17.843c0,1.594,0.108,3.169,0.321,4.721h-94.156C126.288,497,125.143,495.855,125.143,494.5z
	 M237.052,497c-0.382-1.531-0.574-3.108-0.574-4.721c0-10.765,8.758-19.523,19.523-19.523s19.522,8.758,19.522,19.523
	c0,1.613-0.192,3.191-0.574,4.721H237.052z M347,346.397v60.777c-0.071,0.404-0.488,1.159-0.792,1.435l-52.081,32.792l8.264-31.855
	l11.483,4.116c1.121,0.401,2.273,0.605,3.427,0.605c5.287,0,9.428-4.24,9.428-9.653v-39.336
	C333.112,358.704,339.883,352.396,347,346.397z M349.719,266.199c0,2.791-2.19,7.991-4.186,9.936l-46.331,45.17
	c-2.05,1.999-7.441,4.194-10.3,4.194h-65.804c-2.859,0-8.25-2.195-10.299-4.193l-46.333-45.171
	c-1.995-1.944-4.185-7.144-4.185-9.935V141.804c0-12.94,4.885-23.987,14.126-31.946c9.12-7.854,21.935-12.179,36.085-12.179
	c12.667,0,25.761,5.984,35.918,16.412c1.981,2.038,4.747,3.206,7.589,3.206c2.839,0,5.604-1.167,7.585-3.201
	c10.163-10.433,23.256-16.417,35.923-16.417c14.148,0,26.963,4.325,36.085,12.179c9.241,7.958,14.125,19.005,14.125,31.946v124.395
	H349.719z M345.382,98.492c-11.842-10.197-28.133-15.813-45.872-15.813c-15.365,0-31.003,6.474-43.508,17.891
	c-12.506-11.418-28.143-17.891-43.508-17.891c-17.74,0-34.031,5.616-45.873,15.813c-12.651,10.895-19.338,25.872-19.338,43.312
	v20.414c-1.22-0.574-2.412-1.179-3.586-1.808V81.442c0-36.636,29.806-66.442,66.442-66.442c17.198,0,33.517,6.563,45.952,18.481
	c2.032,1.947,4.983,2.594,7.642,1.673c8.226-2.846,16.806-4.289,25.503-4.289c43,0,77.983,34.983,77.983,77.984v52.127
	c-0.825,0.424-1.653,0.843-2.499,1.241v-20.414C364.719,124.363,358.033,109.386,345.382,98.492z M364.719,213.5h7.169
	c4.142,0,7.5-3.358,7.5-7.5s-3.358-7.5-7.5-7.5h-7.169v-19.985c5.277-2.032,10.296-4.463,14.95-7.295
	c4.196,8.408,6.406,17.783,6.406,27.243c0,18.515-8.294,35.122-21.355,46.322V213.5H364.719z"/>
<path d="M256,403.5c-1.98,0-3.91,0.8-5.3,2.2c-1.4,1.39-2.2,3.33-2.2,5.3s0.8,3.91,2.2,5.3c1.39,1.4,3.32,2.2,5.3,2.2
	c1.97,0,3.91-0.8,5.3-2.2c1.4-1.39,2.2-3.33,2.2-5.3s-0.8-3.91-2.2-5.3C259.91,404.3,257.97,403.5,256,403.5z"/>
<path d="M256,436.5c-1.98,0-3.91,0.8-5.3,2.2c-1.4,1.39-2.2,3.33-2.2,5.3s0.8,3.91,2.2,5.3c1.39,1.4,3.32,2.2,5.3,2.2
	c1.97,0,3.91-0.8,5.3-2.2c1.4-1.39,2.2-3.33,2.2-5.3s-0.8-3.91-2.2-5.3C259.91,437.3,257.97,436.5,256,436.5z"/>
<path d="M298.197,270.5h-84.393c-2.648,0-5.101,1.397-6.451,3.675c-1.35,2.278-1.4,5.1-0.129,7.423l14.181,25.934
	c1.315,2.406,3.839,3.902,6.581,3.902c2.742,0,5.266-1.497,6.581-3.902L246.61,285.5h18.779l12.046,22.032
	c1.315,2.406,3.839,3.902,6.581,3.902s5.265-1.496,6.581-3.902l14.18-25.934c1.271-2.324,1.221-5.146-0.129-7.423
	C303.297,271.897,300.845,270.5,298.197,270.5z M227.984,288.3l-1.531-2.8h3.063L227.984,288.3z M284.017,288.3l-1.531-2.8h3.063
	L284.017,288.3z"/>
<path d="M264.681,171.478c-1.117,3.989,1.211,8.128,5.2,9.244c0.676,0.189,1.357,0.28,2.026,0.28c3.279,0,6.291-2.167,7.218-5.48
	c3.606-12.881,15.474-21.877,28.86-21.877c8.861,0,17.223,3.896,22.941,10.69c2.667,3.169,7.399,3.577,10.567,0.908
	c3.169-2.667,3.576-7.398,0.908-10.567c-8.575-10.188-21.119-16.031-34.417-16.031C287.9,138.645,270.093,152.146,264.681,171.478z"
	/>
<path d="M225,188.077c0-11.566-9.41-20.977-20.977-20.977s-20.977,9.411-20.977,20.977c0,11.566,9.411,20.977,20.977,20.977
	C215.59,209.054,225,199.644,225,188.077z M204.023,194.054c-3.296,0-5.977-2.681-5.977-5.977s2.682-5.977,5.977-5.977
	s5.977,2.681,5.977,5.977S207.319,194.054,204.023,194.054z"/>
<path d="M306.023,167.1c-11.566,0-20.977,9.411-20.977,20.977c0,11.566,9.41,20.977,20.977,20.977s20.978-9.41,20.978-20.977
	C327,176.511,317.589,167.1,306.023,167.1z M306.023,194.054c-3.295,0-5.977-2.681-5.977-5.977s2.681-5.977,5.977-5.977
	s5.978,2.681,5.978,5.977C312,191.373,309.318,194.054,306.023,194.054z"/>
<path d="M204.015,153.645c22.608,0,28.582,16.585,28.582,25.355v66.064c0,6.893,5.607,12.5,12.5,12.5h18.239
	c4.142,0,7.5-3.358,7.5-7.5s-3.358-7.5-7.5-7.5h-15.739V179c0-26.211-22.455-40.355-43.582-40.355
	c-13.297,0-25.842,5.843-34.417,16.031c-2.667,3.169-2.26,7.9,0.909,10.567c3.169,2.668,7.901,2.261,10.567-0.908
	C186.792,157.542,195.154,153.645,204.015,153.645z"/>
<path d="M316.913,460.779c-4.142,0-7.5,3.358-7.5,7.5s3.358,7.5,7.5,7.5h47c4.142,0,7.5-3.358,7.5-7.5s-3.358-7.5-7.5-7.5H316.913z"
	/>
<g>
</g>
<g>
</g>
<g>
</g>
<g>
</g>
<g>
</g>
<g>
</g>
<g>
</g>
<g>
</g>
<g>
</g>
<g>
</g>
<g>
</g>
<g>
</g>
<g>
</g>
<g>
</g>
<g>
</g>
</svg>
