<?xml version="1.0" encoding="iso-8859-1"?>
<!-- Generator: Adobe Illustrator 19.0.0, SVG Export Plug-In . SVG Version: 6.00 Build 0)  -->
<svg version="1.1" id="Capa_1" xmlns="http://www.w3.org/2000/svg" xmlns:xlink="http://www.w3.org/1999/xlink" x="0px" y="0px"
	 viewBox="0 0 512 512" style="enable-background:new 0 0 512 512;" xml:space="preserve">
<path style="fill:#9EA7AF;" d="M379.359,355.25h-11.636c-0.317,12.684-11.626,22.878-25.541,22.878h-58.944V355.25h-0.879
	c-2.514,8.175-10.15,14.163-19.121,14.163h-14.471c-8.971,0-16.607-5.987-19.121-14.163h-0.879v22.878h-58.944
	c-13.915,0-25.226-10.194-25.542-22.878h-11.636c-8.25,0-15,6.75-15,15V494.5c0,5.5,4.5,10,10,10h256.715c5.5,0,10-4.5,10-10V370.25
	C394.359,362,387.609,355.25,379.359,355.25z"/>
<path id="SVGCleanerId_0" style="fill:#E6E9ED;" d="M345.661,331.504c-0.748-12.57-6.761-23.716-15.857-31.283
	c-12.478,13.29-28.505,23.203-46.565,28.24v49.666h58.944c14.114,0,25.557-10.486,25.557-23.422
	C367.739,342.851,358.129,333.06,345.661,331.504z"/>
<path id="SVGCleanerId_1" style="fill:#E6E9ED;" d="M228.767,328.462c-18.061-5.037-34.088-14.95-46.566-28.24
	c-9.096,7.567-15.109,18.712-15.857,31.282c-12.468,1.556-22.079,11.346-22.079,23.2c0,12.936,11.443,23.422,25.558,23.422h58.944
	L228.767,328.462L228.767,328.462z"/>
<path style="fill:#203A74;" d="M155.153,123.538c0-3.304-3.21-14.717-8.589-30.531c-0.336-0.991-0.15-2.085,0.497-2.908
	c0.589-0.75,1.488-1.182,2.431-1.182c0.092,0,0.185,0.004,0.277,0.013c7.853,0.704,13.518,1.092,15.953,1.092
	c0.378,0,1.266,0,1.441-0.129l0.017-0.021l-6.995-13.986c-0.523-1.045-0.412-2.294,0.286-3.231c0.589-0.792,1.514-1.246,2.48-1.246
	c0.177,0,0.355,0.015,0.534,0.046l19.357,3.387l-6.828-13.655c-0.522-1.044-0.412-2.295,0.286-3.231
	c0.589-0.791,1.514-1.245,2.48-1.245c0.177,0,0.355,0.015,0.534,0.046l78.56,13.747c6.115,0.366,11.935,1.771,17.304,4.025
	c-13.602-16.545-23.364-28.451-23.395-28.489l-18.908-18.91c-26.173-26.174-68.61-26.174-94.784,0s-26.174,68.611,0,94.785
	l17.062,17.062V123.538z"/>
<path style="opacity:0.15;fill:#0C0019;enable-background:new    ;" d="M155.153,123.538c0-3.304-3.21-14.717-8.589-30.531
	c-0.282-0.832-0.176-1.727,0.241-2.482c-7.357-23.118-1.885-49.433,16.452-67.771c6.9-6.9,14.937-11.962,23.501-15.225
	c-17.575-0.332-35.256,6.189-48.667,19.6c-26.174,26.174-26.174,68.611,0,94.785l17.062,17.062L155.153,123.538L155.153,123.538z"/>
<path style="fill:#FFC502;" d="M275.177,74.528c-5.369-2.254-11.19-3.66-17.304-4.025l-78.56-13.747
	c-0.178-0.031-0.356-0.046-0.534-0.046c-0.966,0-1.891,0.454-2.48,1.245c-0.698,0.937-0.809,2.187-0.286,3.231l6.828,13.655
	l-19.357-3.387c-0.178-0.031-0.356-0.046-0.534-0.046c-0.966,0-1.891,0.454-2.48,1.246c-0.698,0.937-0.809,2.187-0.286,3.231
	l6.995,13.986l-0.017,0.021c-0.175,0.129-1.063,0.129-1.441,0.129c-2.434,0-8.1-0.388-15.953-1.092
	c-0.093-0.008-0.185-0.013-0.277-0.013c-0.943,0-1.842,0.432-2.431,1.182c-0.647,0.823-0.833,1.917-0.497,2.908
	c5.379,15.813,8.589,27.227,8.589,30.531v42.223c4.381-49.73,47.856-69.988,100.849-69.988c14.412,0,28.112,1.508,40.522,4.69
	C288.96,91.285,281.638,82.385,275.177,74.528z"/>
<g>
	<path style="fill:#046699;" d="M228.767,504.5V378.127h-54.552v45.982c2.581,0.189,4.64,2.337,4.64,4.963v38.462
		c0,2.627-2.059,4.774-4.64,4.963V504.5H228.767L228.767,504.5z"/>
	<path style="fill:#046699;" d="M336.542,424.109v-45.982h-53.304V504.5l0,0h53.304v-32.001c-2.581-0.189-4.64-2.336-4.64-4.963
		v-38.462C331.901,426.446,333.961,424.299,336.542,424.109z"/>
</g>
<g>
	<path style="fill:#D19546;" d="M148.797,424.073h25.058c0.124,0,0.239,0.028,0.36,0.037v-45.982h-4.393
		c-8.95,0-16.82-4.219-21.386-10.603v56.585C148.558,424.101,148.674,424.073,148.797,424.073z"/>
	<path style="fill:#D19546;" d="M173.855,472.535h-25.058c-0.123,0-0.239-0.028-0.36-0.037V504.5h25.778v-32.001
		C174.094,472.507,173.979,472.535,173.855,472.535z"/>
</g>
<path style="fill:#B2762F;" d="M178.855,467.535c0,2.75-2.25,5-5,5h-25.058c-2.75,0-5-2.25-5-5v-38.462c0-2.75,2.25-5,5-5h25.058
	c2.75,0,5,2.25,5,5V467.535z"/>
<g>
	<path style="fill:#D19546;" d="M336.901,424.073h25.058c0.123,0,0.239,0.028,0.36,0.037v-54.993
		c-4.678,5.482-11.956,9.011-20.138,9.011h-5.64v45.982C336.663,424.101,336.779,424.073,336.901,424.073z"/>
	<path style="fill:#D19546;" d="M361.96,472.535h-25.058c-0.124,0-0.239-0.028-0.36-0.037V504.5h25.778v-32.001
		C362.198,472.507,362.083,472.535,361.96,472.535z"/>
</g>
<path style="fill:#B2762F;" d="M366.96,467.535c0,2.75-2.25,5-5,5h-25.058c-2.75,0-5-2.25-5-5v-38.462c0-2.75,2.25-5,5-5h25.058
	c2.75,0,5,2.25,5,5V467.535z"/>
<g>
	<path id="SVGCleanerId_0_1_" style="fill:#E6E9ED;" d="M345.661,331.504c-0.748-12.57-6.761-23.716-15.857-31.283
		c-12.478,13.29-28.505,23.203-46.565,28.24v49.666h58.944c14.114,0,25.557-10.486,25.557-23.422
		C367.739,342.851,358.129,333.06,345.661,331.504z"/>
</g>
<g>
	<path id="SVGCleanerId_1_1_" style="fill:#E6E9ED;" d="M228.767,328.462c-18.061-5.037-34.088-14.95-46.566-28.24
		c-9.096,7.567-15.109,18.712-15.857,31.282c-12.468,1.556-22.079,11.346-22.079,23.2c0,12.936,11.443,23.422,25.558,23.422h58.944
		L228.767,328.462L228.767,328.462z"/>
</g>
<g style="opacity:0.15;">
	<path style="fill:#330068;" d="M182.201,300.222c-9.096,7.567-15.109,18.712-15.857,31.282
		c-12.468,1.556-22.079,11.346-22.079,23.2c0,12.936,11.443,23.422,25.558,23.422h1.551c-4.77-3.377-7.846-8.593-7.846-14.45
		c0-9.139,7.608-16.98,17.698-18.239c2.391-0.298,4.229-2.259,4.372-4.665c0.629-10.567,5.448-19.954,12.773-26.602
		C192.5,310.097,187.079,305.418,182.201,300.222z"/>
</g>
<path style="fill:#FFFFFF;" d="M263.237,369.412h-14.471c-11,0-20-9-20-20V504.5h54.471V349.412
	C283.237,360.412,274.237,369.412,263.237,369.412z"/>
<g style="opacity:0.15;">
	<path style="fill:#3D0072;" d="M248.767,369.412c-11,0-20-9-20-20V504.5h21.235V369.412H248.767z"/>
</g>
<path style="fill:#FFB98A;" d="M256.002,332.178c-9.436,0-18.569-1.296-27.235-3.711v20.946c0,11,9,20,20,20h14.471c11,0,20-9,20-20
	v-20.946C274.572,330.882,265.438,332.178,256.002,332.178z"/>
<path style="opacity:0.15;fill:#490089;enable-background:new    ;" d="M248.002,349.412v-17.548
	c-6.611-0.517-13.042-1.671-19.235-3.397v20.946c0,11,9,20,20,20h14.471c0.807,0,1.599-0.063,2.382-0.157
	C255.734,368.066,248.002,359.605,248.002,349.412z"/>
<g>
	<path style="fill:#FFB98A;" d="M154.783,230.958v-44.569h-11.865c-13.059,0-23.646,10.587-23.646,23.645v25.701
		c0,13.059,10.586,23.645,23.646,23.645h15.917C156.201,250.363,154.783,240.827,154.783,230.958z"/>
	<path style="fill:#FFB98A;" d="M369.086,186.389h-11.866v44.569c0,7.263-0.774,14.343-2.229,21.172
		c0.031-0.145,0.068-0.286,0.098-0.43c2.29-1.822,5.183-2.918,8.336-2.918c6.042,0,11.146,3.998,12.821,9.492
		c9.558-3.034,16.485-11.976,16.485-22.538v-25.701C392.731,196.976,382.146,186.389,369.086,186.389z"/>
</g>
<path style="fill:#FCDB67;" d="M363.426,248.782c-3.153,0-6.046,1.096-8.336,2.918c-1.064,5.11-2.516,10.077-4.319,14.873
	c1.818,5.246,6.791,9.018,12.655,9.018c7.403,0,13.405-6.001,13.405-13.405C376.831,254.784,370.828,248.782,363.426,248.782z"/>
<path style="fill:#FFC7A9;" d="M298.171,100.888c-12.838-3.479-27.119-5.115-42.169-5.115c-55.901,0-101.219,22.536-101.219,78.438
	v56.747c0,55.902,45.318,101.22,101.219,101.22c55.902,0,101.219-45.317,101.219-101.22v-56.747c0-0.819-0.012-1.631-0.031-2.436
	C349.771,163.357,322.854,130.837,298.171,100.888z"/>
<path style="fill:#046699;" d="M382.422,129.165c0-50.682-41.085-91.766-91.766-91.766c-13.9,0-27.07,3.106-38.876,8.637
	c0,0,93.525,114.069,105.44,127.279v19.016C372.839,175.878,382.422,153.642,382.422,129.165z"/>
<g style="opacity:0.15;">
	<path style="fill:#3D0072;" d="M183.563,230.958v-56.747c0-51.016,37.745-74.239,86.829-77.91
		c-4.701-0.352-9.504-0.528-14.391-0.528c-55.901,0-101.219,22.536-101.219,78.438v56.747c0,55.902,45.318,101.22,101.219,101.22
		c4.886,0,9.69-0.354,14.391-1.023C221.308,324.167,183.563,281.974,183.563,230.958z"/>
</g>
<g style="opacity:0.15;">
	<path style="fill:#3D0072;" d="M291.878,57.068c45.374,0,83.052,32.934,90.445,76.2c0.06-1.361,0.1-2.727,0.1-4.103
		c0-50.682-41.085-91.766-91.766-91.766c-13.9,0-27.07,3.106-38.876,8.637c0,0,4.874,5.945,12.526,15.262
		C273.008,58.554,282.268,57.068,291.878,57.068z"/>
</g>
<g>
	<circle style="fill:#FFFFFF;" cx="206.692" cy="442.4" r="10.894"/>
	<circle style="fill:#FFFFFF;" cx="305.542" cy="442.4" r="10.895"/>
</g>
<g>
	<circle style="fill:#775436;" cx="211.152" cy="220.9" r="13.384"/>
	<circle style="fill:#775436;" cx="296.742" cy="220.9" r="13.384"/>
</g>
<path d="M394.359,433.5c4.142,0,7.5-3.358,7.5-7.5v-55.75c0-12.407-10.093-22.5-22.5-22.5h-4.987
	c-2.602-10.47-10.925-19.058-21.888-22.426c-1.681-9.737-6.094-18.505-12.388-25.538c4.934-6.017,9.237-12.57,12.805-19.559
	c3.092,1.816,6.685,2.865,10.524,2.865c11.289,0,20.493-9.001,20.869-20.199c9.5-5.338,15.936-15.505,15.936-27.157v-25.701
	c0-14.769-10.335-27.16-24.15-30.344c9.003-15.167,13.842-32.52,13.842-50.525c0-54.735-44.531-99.266-99.266-99.266
	c-12.887,0-25.371,2.428-37.187,7.22l-15.292-15.292C224.103,7.752,205.389,0,185.483,0s-38.62,7.752-52.696,21.827
	c-29.056,29.057-29.056,76.335,0,105.392l14.865,14.865v23.451c-0.242,2.831-0.37,5.722-0.37,8.676v4.678h-4.365
	c-17.174,0-31.146,13.972-31.146,31.145v25.701c0,17.173,13.972,31.145,31.146,31.145h10.471
	c4.241,12.08,10.555,23.193,18.519,32.906c-6.294,7.033-10.707,15.8-12.388,25.537c-10.963,3.369-19.287,11.956-21.889,22.426
	h-4.987c-12.407,0-22.5,10.093-22.5,22.5V390c0,4.142,3.358,7.5,7.5,7.5s7.5-3.358,7.5-7.5v-19.75c0-4.136,3.364-7.5,7.5-7.5h5.262
	c0.708,2.457,1.732,4.793,3.03,6.969v49.647c-2.827,2.294-4.64,5.791-4.64,9.707v38.462c0,3.916,1.813,7.413,4.64,9.707V497h-13.293
	c-1.355,0-2.5-1.145-2.5-2.5V427c0-4.142-3.358-7.5-7.5-7.5s-7.5,3.358-7.5,7.5v67.5c0,9.649,7.851,17.5,17.5,17.5h256.715
	c9.649,0,17.5-7.851,17.5-17.5V466c0-4.142-3.358-7.5-7.5-7.5c-4.142,0-7.5,3.358-7.5,7.5v28.5c0,1.355-1.145,2.5-2.5,2.5h-14.539
	v-19.758c2.827-2.294,4.64-5.791,4.64-9.707v-38.462c0-3.916-1.813-7.414-4.64-9.707V371.64c1.897-2.701,3.355-5.693,4.277-8.89
	h5.262c4.136,0,7.5,3.364,7.5,7.5V426C386.859,430.142,390.216,433.5,394.359,433.5z M339.401,465.035v-33.462h20.058v33.462
	H339.401z M344.042,416.573v-30.998c3.798-0.198,7.426-0.999,10.778-2.302v33.299L344.042,416.573L344.042,416.573z
	 M344.732,338.947c8.84,1.103,15.507,7.877,15.507,15.758c0,8.78-8.1,15.922-18.057,15.922h-51.444v-36.64
	c14.653-4.953,27.911-12.955,39.028-23.24c4.841,5.806,7.928,13.138,8.408,21.203C338.388,335.558,341.146,338.499,344.732,338.947z
	 M308.935,442.403c0,1.872-1.523,3.394-3.396,3.394c-1.872,0-3.394-1.522-3.394-3.394s1.522-3.395,3.394-3.395
	C307.411,439.009,308.935,440.532,308.935,442.403z M298.039,425.624c-2.917,1.31-5.425,3.357-7.302,5.905v-45.902h7.302V425.624z
	 M236.267,349.412v-11.534c6.402,1.179,12.997,1.8,19.735,1.8c6.738,0,13.334-0.621,19.736-1.8v11.535c0,6.893-5.607,12.5-12.5,12.5
	h-14.471C241.875,361.912,236.267,356.305,236.267,349.412z M363.426,268.091c-1.803,0-3.417-0.814-4.5-2.091
	c1.055-3.09,1.969-6.244,2.746-9.452c0.554-0.173,1.144-0.266,1.754-0.266c3.256,0,5.905,2.648,5.905,5.904
	S366.682,268.091,363.426,268.091z M369.086,193.889c8.902,0,16.145,7.243,16.145,16.145v25.701c0,5.127-2.412,9.688-6.152,12.643
	c-3.668-4.152-8.946-6.831-14.855-7.055c0.325-3.413,0.497-6.869,0.497-10.365v-1.119h5.291c4.142,0,7.5-3.358,7.5-7.5
	s-3.358-7.5-7.5-7.5h-5.291v-19.621c0.389-0.436,0.753-0.889,1.134-1.33L369.086,193.889L369.086,193.889z M139.463,95.422
	c4.41,12.963,6.619,20.769,7.575,24.833l-3.644-3.644c-23.208-23.208-23.208-60.97,0-84.178C154.637,21.191,169.584,15,185.483,15
	s30.846,6.191,42.088,17.434c0,0,23.362,24.396,29.005,31.269l-75.968-14.334c-0.6-0.105-1.215-0.158-1.828-0.158
	c-3.33,0-6.505,1.594-8.493,4.262c-2.406,3.227-2.782,7.469-0.981,11.068l0.175,0.35l-4.702-0.822
	c-0.602-0.106-1.217-0.159-1.828-0.159c-3.331,0-6.508,1.596-8.495,4.266c-2.403,3.228-2.778,7.467-0.979,11.065l1.298,2.596
	c-1.296-0.107-2.736-0.232-4.336-0.375c-3.607-0.319-7.057,1.185-9.274,4.003C138.942,88.291,138.305,92.012,139.463,95.422z
	 M155.796,96.967c3.957,0.31,7.77,0.556,9.925,0.556c1.394,0,3.726,0,5.884-1.587c0.535-0.393,1.032-0.877,1.445-1.397
	c1.816-2.284,2.142-5.413,0.837-8.021l-3.085-6.169l10.747,1.88c2.789,0.489,5.615-0.637,7.308-2.908
	c1.691-2.271,1.959-5.301,0.693-7.834l-2.853-5.707l84.725,15.987c2.043,2.484,4.163,5.062,6.338,7.705
	c-6.942-0.792-14.205-1.201-21.758-1.201c-31.018,0-57.239,6.771-75.828,19.58c-6.898,4.754-12.749,10.346-17.521,16.687v-1.001
	C162.653,119.762,160.349,110.836,155.796,96.967z M142.918,251.88c-8.903,0-16.146-7.243-16.146-16.145v-25.701
	c0-8.903,7.243-16.145,16.146-16.145h4.365v20.951h-5.291c-4.142,0-7.5,3.358-7.5,7.5s3.358,7.5,7.5,7.5h5.291v1.119
	c0,7.155,0.702,14.149,2.028,20.922L142.918,251.88L142.918,251.88z M162.283,174.211c0-23.764,8.883-41.935,26.402-54.007
	c16.075-11.076,39.352-16.931,67.317-16.931c13.259,0,25.45,1.329,36.33,3.897c4.275,5.187,8.605,10.437,12.876,15.608
	c2.637,3.193,7.364,3.645,10.559,1.007c3.194-2.637,3.645-7.365,1.007-10.559c-20.394-24.694-42.153-51.182-52.706-64.04
	c8.534-2.849,17.442-4.288,26.59-4.288c46.464,0,84.266,37.802,84.266,84.266c0,14.641-3.748,28.789-10.776,41.273
	c-0.325-0.781-0.781-1.507-1.357-2.146c-2.216-2.456-7.664-8.882-16.194-19.1c-2.654-3.18-7.383-3.606-10.564-0.951
	c-3.18,2.654-3.606,7.384-0.951,10.563c6.909,8.277,11.738,13.998,14.639,17.342v16.185v38.627c0,51.677-42.042,93.72-93.719,93.72
	s-93.719-42.042-93.719-93.72L162.283,174.211L162.283,174.211z M167.273,338.947c3.586-0.448,6.343-3.389,6.558-6.997
	c0.48-8.065,3.567-15.397,8.407-21.202c11.117,10.285,24.376,18.286,39.029,23.24v36.639h-51.444
	c-9.957,0-18.058-7.143-18.058-15.922C151.765,346.824,158.432,340.05,167.273,338.947z M210.083,442.403
	c0,1.872-1.522,3.394-3.394,3.394s-3.394-1.522-3.394-3.394s1.523-3.395,3.394-3.395
	C208.56,439.009,210.083,440.532,210.083,442.403z M214.188,385.627h7.079v45.604c-1.851-2.41-4.276-4.349-7.079-5.607V385.627z
	 M166.715,385.486v31.087h-10.778v-33.816C159.269,384.206,162.897,385.151,166.715,385.486z M151.297,465.035v-33.462h20.058
	v33.462H151.297z M155.937,480.035h10.778V497h-10.778V480.035z M181.715,497v-19.758c2.827-2.293,4.64-5.791,4.64-9.707v-38.462
	c0-3.916-1.813-7.413-4.64-9.707v-33.739h17.473v39.997c-6.411,2.878-10.894,9.309-10.894,16.779
	c0,10.143,8.252,18.394,18.394,18.394c5.939,0,11.213-2.841,14.579-7.222V497H181.715z M236.267,497V373.895
	c3.753,1.924,8,3.018,12.5,3.018h14.471c4.5,0,8.747-1.093,12.5-3.018V497H236.267z M290.737,453.277
	c3.352,4.55,8.73,7.52,14.802,7.52c10.144,0,18.396-8.251,18.396-18.394c0-7.47-4.484-13.902-10.896-16.779v-39.997h16.002v33.739
	c-2.827,2.293-4.64,5.791-4.64,9.707v38.462c0,3.916,1.813,7.413,4.64,9.707V497h-38.304L290.737,453.277L290.737,453.277z
	 M344.042,497v-16.965h10.778V497H344.042z"/>
<path d="M256.145,273.417h8.735c4.142,0,7.5-3.358,7.5-7.5s-3.358-7.5-7.5-7.5h-8.735c-0.298,0-1.235-0.914-1.235-2.5V222.34
	c0-4.142-3.358-7.5-7.5-7.5s-7.5,3.358-7.5,7.5v33.577C239.91,265.566,247.192,273.417,256.145,273.417z"/>
<path d="M190.264,220.895c0,11.516,9.369,20.884,20.885,20.884c11.515,0,20.883-9.369,20.883-20.884
	c0-4.96-1.745-9.516-4.644-13.102c-0.302-0.493-0.66-0.962-1.086-1.389c-7.206-7.206-16.78-11.174-26.959-11.174
	c-10.18,0-19.753,3.968-26.959,11.174c-2.929,2.929-2.928,7.678,0.001,10.607c2.93,2.929,7.678,2.928,10.607-0.001
	c2.746-2.746,6.059-4.715,9.671-5.801C191.137,214.107,190.264,217.399,190.264,220.895z M211.148,226.779
	c-3.245,0-5.885-2.64-5.885-5.884s2.64-5.884,5.885-5.884c3.244,0,5.883,2.64,5.883,5.884
	C217.032,224.139,214.393,226.779,211.148,226.779z"/>
<path d="M308.549,195.23c-10.179,0-19.754,3.968-26.959,11.174c-0.427,0.427-0.784,0.896-1.087,1.39
	c-2.898,3.586-4.644,8.142-4.644,13.101c0,11.516,9.369,20.884,20.884,20.884s20.884-9.369,20.884-20.884
	c0-3.496-0.874-6.787-2.399-9.685c3.613,1.086,6.927,3.055,9.673,5.801c1.464,1.464,3.384,2.197,5.303,2.197
	s3.839-0.732,5.303-2.197c2.929-2.929,2.929-7.678,0-10.606C328.304,199.199,318.729,195.23,308.549,195.23z M296.745,226.779
	c-3.245,0-5.884-2.64-5.884-5.884s2.64-5.884,5.884-5.884c3.244,0,5.884,2.64,5.884,5.884S299.989,226.779,296.745,226.779z"/>
<path d="M281.377,285.62h-48.462c-4.142,0-7.5,3.358-7.5,7.5s3.358,7.5,7.5,7.5h48.462c4.142,0,7.5-3.358,7.5-7.5
	S285.518,285.62,281.377,285.62z"/>
<path d="M175.31,179.724l53.258,14.137c0.645,0.171,1.292,0.253,1.929,0.253c3.318,0,6.353-2.219,7.244-5.578
	c1.063-4.003-1.321-8.111-5.325-9.173l-53.258-14.137c-4.004-1.061-8.11,1.321-9.173,5.325
	C168.922,174.554,171.306,178.662,175.31,179.724z"/>
<path d="M278.279,194.114c0.637,0,1.285-0.082,1.929-0.253l53.258-14.137c4.003-1.063,6.387-5.17,5.325-9.173
	c-1.062-4.003-5.168-6.387-9.173-5.325l-53.258,14.137c-4.003,1.063-6.387,5.17-5.325,9.173
	C271.926,191.895,274.96,194.114,278.279,194.114z"/>
<g>
</g>
<g>
</g>
<g>
</g>
<g>
</g>
<g>
</g>
<g>
</g>
<g>
</g>
<g>
</g>
<g>
</g>
<g>
</g>
<g>
</g>
<g>
</g>
<g>
</g>
<g>
</g>
<g>
</g>
</svg>
