<?xml version="1.0" encoding="iso-8859-1"?>
<!-- Generator: Adobe Illustrator 19.0.0, SVG Export Plug-In . SVG Version: 6.00 Build 0)  -->
<svg version="1.1" id="Capa_1" xmlns="http://www.w3.org/2000/svg" xmlns:xlink="http://www.w3.org/1999/xlink" x="0px" y="0px"
	 viewBox="0 0 512 512" style="enable-background:new 0 0 512 512;" xml:space="preserve">
<g>
	<path style="fill:#B38A82;" d="M129.232,365.1c-6.292,0-12.583-2.4-17.383-7.201l-95.664-95.663
		c-9.601-9.601-9.601-25.167,0-34.768s25.167-9.599,34.768,0l95.664,95.663c9.601,9.601,9.601,25.167,0,34.768
		C141.815,362.699,135.524,365.1,129.232,365.1z"/>
	<path style="fill:#B38A82;" d="M384.266,281.657c-6.292,0-12.582-2.4-17.383-7.2c-9.601-9.601-9.601-25.167,0-34.768l95.664-95.663
		c9.6-9.601,25.166-9.601,34.768,0c9.601,9.601,9.601,25.167,0,34.768l-95.664,95.663
		C396.851,279.257,390.557,281.657,384.266,281.657z"/>
	<path style="fill:#B38A82;" d="M410.402,411.961c0,33.893-68.793,61.369-153.652,61.369s-153.653-27.476-153.653-61.369V100.041
		h307.305V411.961z"/>
</g>
<g style="opacity:0.1;">
	<path d="M344.443,427.108c-4.142,0-7.5-3.358-7.5-7.5c0-7.674,0.766-14.822,1.577-22.391c0.941-8.778,1.914-17.856,1.914-29.277
		c0-4.142,3.358-7.5,7.5-7.5s7.5,3.358,7.5,7.5c0,12.223-1.062,22.133-2,30.876c-0.767,7.157-1.492,13.917-1.492,20.791
		C351.943,423.751,348.585,427.108,344.443,427.108z"/>
	<path d="M162.709,405.696c-0.015,0-0.03,0-0.044,0c-4.142-0.024-7.48-3.401-7.457-7.543c0.05-8.648-1.299-17.837-2.603-26.723
		c-1.189-8.101-2.313-15.752-2.313-22.574c0-4.142,3.358-7.5,7.5-7.5s7.5,3.358,7.5,7.5c0,5.726,1.046,12.851,2.154,20.395
		c1.321,9,2.819,19.201,2.762,28.988C170.184,402.367,166.83,405.696,162.709,405.696z"/>
	<path d="M290.036,444.76c-3.688,0-6.902-2.72-7.42-6.476c-0.9-6.522-0.055-17.04,0.691-26.321c0.376-4.677,0.73-9.095,0.73-11.63
		c0-4.142,3.358-7.5,7.5-7.5s7.5,3.358,7.5,7.5c0,3.136-0.361,7.629-0.779,12.831c-0.65,8.094-1.459,18.169-0.783,23.069
		c0.566,4.104-2.301,7.889-6.404,8.455C290.723,444.737,290.377,444.76,290.036,444.76z"/>
	<path d="M305.486,216.742c-0.156,0-0.312-0.005-0.469-0.015c-4.134-0.255-7.279-3.813-7.024-7.948
		c0.261-4.226,0.965-7.832,1.586-11.013c0.768-3.933,1.432-7.33,1.297-11.563c-0.131-4.14,3.119-7.603,7.258-7.734
		c4.153-0.146,7.603,3.118,7.734,7.258c0.188,5.924-0.705,10.494-1.568,14.914c-0.585,2.993-1.136,5.82-1.336,9.061
		C312.719,213.681,309.417,216.742,305.486,216.742z"/>
	<path d="M154.638,221.361c-4.142,0-7.5-3.358-7.5-7.5c0-4.917-0.703-11.562-2.28-21.547c-0.646-4.091,2.146-7.932,6.238-8.578
		c4.089-0.643,7.932,2.147,8.578,6.238c1.704,10.788,2.464,18.156,2.464,23.887C162.138,218.003,158.78,221.361,154.638,221.361z"/>
</g>
<g>
	<ellipse style="fill:#F27281;" cx="182.605" cy="294.049" rx="27.081" ry="21.567"/>
	<ellipse style="fill:#F27281;" cx="329.41" cy="294.049" rx="27.081" ry="21.567"/>
</g>
<path style="fill:#464D59;" d="M256.008,297.094L256.008,297.094c-10.836,0-19.622-8.784-19.622-19.622v-14.264
	c0-2.958,2.398-5.356,5.356-5.356h28.53c2.958,0,5.356,2.398,5.356,5.356v14.265C275.629,288.31,266.844,297.094,256.008,297.094z"
	/>
<path style="opacity:0.1;enable-background:new    ;" d="M103.096,411.961c0,33.893,68.793,61.369,153.653,61.369
	c10.996,0,21.719-0.465,32.06-1.342c-113.672-49.646-129.462-211.17-123.654-371.947h-62.058L103.096,411.961L103.096,411.961z"/>
<ellipse style="fill:#F5D7B7;" cx="256.748" cy="100.043" rx="153.654" ry="61.372"/>
<g>
	<path style="fill:#F2CAA7;" d="M256.75,132.033c-16.678,0-32.855-1.128-48.082-3.354c-14.244-2.082-27.505-5.087-39.414-8.932
		c-3.941-1.272-6.105-5.499-4.833-9.441c1.272-3.941,5.496-6.109,9.441-4.833c11.115,3.588,23.556,6.402,36.975,8.364
		c14.51,2.121,29.958,3.196,45.912,3.196c4.142,0,7.5,3.358,7.5,7.5C264.25,128.675,260.892,132.033,256.75,132.033z"/>
	<path style="fill:#F2CAA7;" d="M340.778,94.601c-0.748,0-1.507-0.113-2.259-0.35c-13.811-4.357-29.415-7.501-46.376-9.344
		c-4.118-0.447-7.093-4.148-6.646-8.266c0.447-4.118,4.154-7.089,8.266-6.646c17.941,1.949,34.517,5.297,49.269,9.952
		c3.95,1.246,6.142,5.459,4.896,9.409C346.919,92.555,343.964,94.601,340.778,94.601z"/>
	<path style="fill:#F2CAA7;" d="M235.249,83.703c-3.931,0-7.232-3.061-7.479-7.037c-0.256-4.134,2.888-7.693,7.022-7.949
		c7.163-0.443,14.55-0.668,21.957-0.668c4.142,0,7.5,3.358,7.5,7.5s-3.358,7.5-7.5,7.5c-7.098,0-14.173,0.215-21.03,0.64
		C235.562,83.698,235.405,83.703,235.249,83.703z"/>
</g>
<path style="fill:#A8EFBB;" d="M30.892,126.717c4.111-4.921,11.692-4.921,15.803,0c9.27,11.095,23.392,32.467,23.392,59.706
	c0,20.785-14.01,41.245-31.293,41.245S7.501,207.207,7.501,186.423C7.5,159.184,21.622,137.812,30.892,126.717z"/>
<path style="opacity:0.1;enable-background:new    ;" d="M38.793,208.466c-4.142,0-7.5-3.358-7.5-7.5v-40.6
	c0-4.142,3.358-7.5,7.5-7.5s7.5,3.358,7.5,7.5v40.6C46.293,205.107,42.936,208.466,38.793,208.466z"/>
<path d="M194.637,268.578v-11.624c0-4.142-3.358-7.5-7.5-7.5s-7.5,3.358-7.5,7.5v11.624c0,4.142,3.358,7.5,7.5,7.5
	S194.637,272.72,194.637,268.578z M332.379,268.578v-11.624c0-4.142-3.358-7.5-7.5-7.5s-7.5,3.358-7.5,7.5v11.624
	c0,4.142,3.358,7.5,7.5,7.5S332.379,272.72,332.379,268.578z M283.129,277.474v-14.265c0-7.089-5.767-12.856-12.856-12.856h-28.53
	c-7.089,0-12.856,5.767-12.856,12.856v14.265c0,14.954,12.166,27.122,27.122,27.122
	C270.963,304.594,283.129,292.428,283.129,277.474z M243.886,277.474v-12.121h24.242v12.121c0,6.683-5.438,12.121-12.121,12.121
	C249.323,289.595,243.886,284.157,243.886,277.474z M502.618,138.722c-6.06-6.06-14.118-9.397-22.688-9.397l0,0
	c-8.57,0-16.628,3.338-22.686,9.397l-39.341,39.341v-78.022c0-19.669-17.659-37.553-49.722-50.359
	c-29.886-11.937-69.46-18.511-111.431-18.511s-81.546,6.573-111.43,18.51c-32.064,12.806-49.722,30.691-49.722,50.359v161.465
	L60.43,226.338c10.202-8.982,17.158-23.834,17.158-39.915c0-29.959-15.749-53.28-25.137-64.515
	c-3.388-4.056-8.366-6.382-13.657-6.382s-10.269,2.326-13.657,6.381C15.748,133.143,0,156.465,0,186.424
	c0,13.234,4.715,25.632,12.068,34.616c-0.404,0.365-0.801,0.739-1.187,1.125c-6.06,6.06-9.398,14.117-9.398,22.688
	c0,8.569,3.337,16.626,9.398,22.688l84.715,84.714v18.318c0,4.142,3.358,7.5,7.5,7.5s7.5-3.358,7.5-7.5V129.873
	c8.333,7.699,20.005,14.648,34.722,20.527c29.885,11.936,69.458,18.51,111.43,18.51s81.545-6.573,111.43-18.51
	c14.716-5.878,26.389-12.827,34.722-20.527V411.96c0,12.925-14.683,26.204-40.285,36.429c-28.158,11.246-65.755,17.44-105.867,17.44
	s-77.709-6.193-105.867-17.44c-25.602-10.225-40.285-23.504-40.285-36.429v-3.72c0-4.142-3.358-7.5-7.5-7.5s-7.5,3.358-7.5,7.5v3.72
	c0,19.669,17.659,37.553,49.722,50.359c29.885,11.936,69.458,18.51,111.43,18.51s81.545-6.573,111.43-18.51
	c32.064-12.806,49.722-30.691,49.722-50.359V268.811l54.627-54.626c2.929-2.929,2.929-7.678,0-10.606
	c-2.929-2.93-7.678-2.929-10.607,0l-44.019,44.018v-48.321l49.948-49.947c3.226-3.227,7.516-5.003,12.079-5.003
	c4.564,0,8.854,1.777,12.081,5.004s5.003,7.517,5.003,12.08s-1.777,8.853-5.003,12.08l-5.344,5.344
	c-2.929,2.929-2.929,7.678,0,10.607c2.929,2.929,7.678,2.929,10.607,0l5.344-5.344C515.127,171.586,515.127,151.232,502.618,138.722
	z M36.647,131.526L36.647,131.526c0.727-0.87,1.656-1,2.146-1s1.419,0.129,2.146,1c8.084,9.675,21.647,29.674,21.647,54.897
	c0,17.346-11.563,33.745-23.793,33.745S15,203.768,15,186.424C15,161.2,28.563,141.203,36.647,131.526z M95.597,331.04
	l-74.108-74.108c-3.227-3.227-5.004-7.517-5.004-12.08c0-4.563,1.777-8.853,5.004-12.081c0.661-0.661,1.383-1.252,2.142-1.793
	c4.711,2.676,9.852,4.19,15.163,4.19c2.75,0,5.453-0.415,8.076-1.175l48.726,48.725C95.597,282.718,95.597,331.04,95.597,331.04z
	 M362.616,136.469c-28.157,11.246-65.755,17.44-105.867,17.44s-77.71-6.193-105.867-17.44
	c-25.602-10.225-40.285-23.503-40.285-36.429s14.683-26.204,40.285-36.429c28.158-11.246,65.755-17.44,105.867-17.44
	s77.709,6.193,105.867,17.44c25.602,10.225,40.285,23.504,40.285,36.429S388.218,126.244,362.616,136.469z"/>
<g>
</g>
<g>
</g>
<g>
</g>
<g>
</g>
<g>
</g>
<g>
</g>
<g>
</g>
<g>
</g>
<g>
</g>
<g>
</g>
<g>
</g>
<g>
</g>
<g>
</g>
<g>
</g>
<g>
</g>
</svg>
