<svg height="512" viewBox="0 0 58 60" width="512" xmlns="http://www.w3.org/2000/svg"><g id="Page-1" fill="none" fill-rule="evenodd"><g id="002---Sleepy-Moon" fill-rule="nonzero"><path id="Shape" d="m56.92 40.9c-4.5383727 11.1877573-15.5333311 18.3933645-27.6027333 18.0896051s-22.68797269-8.0533301-26.65781534-19.4552197c-3.96984265-11.4018897-.46034907-24.0704863 8.81054864-31.8043854 3.054543.98573601 5.9435051 2.4251605 8.57 4.27 3.46 2.59 6.17 5.19 7.49 7.78.0500424.1067562.1215259.2020676.21.28-2.1025888 7.3416689.6586495 15.2108083 6.8876931 19.6289526 6.2290435 4.4181443 14.5685742 4.4225731 20.8023069.0110474.3638957-.2473501.8467128-.2277815 1.1893976.0482063.3426849.2759878.4647096.7435401.3006024 1.1517937z" fill="#ffeb3a"/><path id="Shape" d="m17.04 12c3.46 2.59 6.17 5.19 7.49 7.78.0500424.1067562.1215259.2020676.21.28-1.4400862 4.9827166-.6550009 10.3447558 2.153108 14.7054711 2.808109 4.3607152 7.3648365 7.2939827 12.496892 8.0445289 1.3767224.1937588 2.7710138.2303271 4.156.109-.384-.031-.767-.053-1.156-.109-5.1320555-.7505462-9.688783-3.6838137-12.496892-8.0445289-2.8081089-4.3607153-3.5931942-9.7227545-2.153108-14.7054711-.0884741-.0779324-.1599576-.1732438-.21-.28-1.32-2.59-4.03-5.19-7.49-7.78-2.6264949-1.8448395-5.515457-3.28426399-8.57-4.27-.3.253-.6.518-.889.783 2.2928724.88217883 4.4634862 2.0540213 6.459 3.487z" fill="#fdd834"/><path id="Shape" d="m55.43 39.7c-.466.329-.949.634-1.445.918-.0081133.0966179-.0300016.191579-.065.282-4.2496304 10.4627033-14.1864017 17.50694-25.466 18.053.082 0 .163.013.246.017 12.2869216.5708556 23.5973602-6.6715123 28.22-18.07.1641072-.4082536.0420825-.8758059-.3006024-1.1517937-.3426848-.2759878-.8255019-.2955564-1.1893976-.0482063z" fill="#fdd834"/><path id="Shape" d="m45.47 5.45c-.2817566.46789112-.4304346 1.00382357-.43 1.55-5.7344335-.00437395-11.126059 2.7304547-14.51 7.36-1.77-3.42-7.91-8.95-13.63-10.2 9.0853647-4.63415939 19.9392392-4.14408245 28.57 1.29z" fill="#02a9f4"/><path id="Shape" d="m30.04 1c-.549 0-1.094.019-1.635.049 4.9916546.21677574 9.8400729 1.73386701 14.065 4.401-.2817566.46789112-.4304346 1.00382357-.43 1.55-4.8283074-.00435875-9.4540091 1.94017392-12.829 5.393.5009284.6124446.9425768 1.2710666 1.319 1.967 3.383941-4.6295453 8.7755665-7.36437395 14.51-7.36-.0004346-.54617643.1482434-1.08210888.43-1.55-4.615854-2.91970224-9.9682611-4.46333231-15.43-4.45z" fill="#0377bc"/><path id="Shape" d="m51.04 7c0 1.65685425-1.3431458 3-3 3s-3-1.34314575-3-3 1.3431458-3 3-3 3 1.34314575 3 3z" fill="#f5f5f5"/><path id="Shape" d="m48.04 4c-.5305867-.00053033-1.0516347.14104002-1.509.41.9311841.5276674 1.5074432 1.51458709 1.5093046 2.58488295s-.5709615 2.05921396-1.5003046 2.59011705c1.0918276.642947 2.4698733.5306101 3.4431528-.28068233.9732795-.81129245 1.3319086-2.14658811.8960623-3.33633869s-1.5721792-1.97739058-2.8392151-1.96797898z" fill="#cfd8dc"/><path id="Shape" d="m31.04 16c-.0807796 1.5490407-.7623903 3.005535-1.9 4.06-.387292.3849234-1.012708.3849234-1.4 0-.0884741-.0779324-.1599576-.1732438-.21-.28-1.32-2.59-4.03-5.19-7.49-7.78-2.6264949-1.8448395-5.515457-3.28426399-8.57-4.27-.25-.08-.49-.16-.71-.23-.3558494-.11342106-.6188356-.41569212-.6819415-.78381003s.0841872-.74072256.3819415-.96618997c1.5442569-1.31854725 3.5593344-1.950516 5.58-1.75.285875.03881224.5695787.09221528.85.16h.01c5.72 1.25 11.86 6.78 13.63 10.2.2943803.4999411.4689434 1.0612814.51 1.64z" fill="#ef314c"/><path id="Shape" d="m30.53 14.36c-1.77-3.42-7.91-8.95-13.63-10.2h-.01c-.2804213-.06778472-.564125-.12118776-.85-.16-.7680179-.10308371-1.5486535-.05862142-2.3.131.052.011.1.016.155.029h.01c5.72 1.25 11.86 6.78 13.63 10.2.292628.5003747.4654718 1.0616891.505 1.64-.0232385 1.0609545-.3669667 2.0900474-.986 2.952.171.276.335.552.476.828.0500424.1067562.1215259.2020676.21.28.387292.3849234 1.012708.3849234 1.4 0 1.1376097-1.054465 1.8192204-2.5109593 1.9-4.06-.0410566-.5787186-.2156197-1.1400589-.51-1.64z" fill="#bb193b"/><path id="Shape" d="m17.04 42c1.0898935.1058737 2.1699948-.2814076 2.9442936-1.0557064s1.1615801-1.8544001 1.0557064-2.9442936c0-3-2-1-4-1s-4-2-4 1c-.1058737 1.0898935.2814076 2.1699948 1.0557064 2.9442936s1.8544001 1.1615801 2.9442936 1.0557064z" fill="#f5f5f5"/><ellipse id="Oval" cx="19.557" cy="51.207" fill="#fec108" rx="2" ry="3" transform="matrix(.358 -.934 .934 .358 -35.257 51.123)"/><ellipse id="Oval" cx="28.922" cy="53.166" fill="#fec108" rx="2" ry="3" transform="matrix(.056 -.998 .998 .056 -25.79 79.045)"/><path id="Shape" d="m5.048 31.683c-.54228841.0001833-.98590053-.4318949-1-.974-.11413684-4.2020045.78701648-8.3695385 2.627-12.149.15719686-.321539.47399178-.5347898.83105118-.5594229.3570594-.024633.70013746.143094.9.44s.22614568.6778839.06894882.9994229c-1.69891427 3.4895453-2.53143815 7.3372669-2.427 11.217.01455254.5519768-.42102758 1.0112832-.973 1.026z" fill="#f5f5f5"/><path id="Shape" d="m10.027 16c-.37877206 0-.72503518-.2140024-.89442719-.5527864-.16939202-.338784-.13283605-.744196.09442719-1.0472136.59336771-.7866925 1.2307171-1.5392255 1.909-2.254.2441606-.2668282.6133722-.3810222.9655424-.298634.3521703.0823882.6324075.3485169.7328616.6959657.100454.3474489.0054674.722062-.248404.9796683-.6251698.6584848-1.2124482 1.3519341-1.759 2.077-.1888544.2518058-.4852427.4-.8.4z" fill="#f5f5f5"/><circle id="Oval" cx="26.04" cy="5" fill="#f5f5f5" r="1"/><circle id="Oval" cx="36.04" cy="5" fill="#f5f5f5" r="1"/><circle id="Oval" cx="32.04" cy="8" fill="#f5f5f5" r="1"/><circle id="Oval" cx="30.04" cy="4" fill="#f5f5f5" r="1"/><g fill="#000"><circle id="Oval" cx="25.04" cy="48" r="1"/><circle id="Oval" cx="37.04" cy="54" r="1"/><circle id="Oval" cx="13.04" cy="47" r="1"/><path id="Shape" d="m28.659 59.969c.451.02.9.031 1.347.031 12.2236951-.0087307 23.2277231-7.4104848 27.844-18.729.3304808-.8207714.0823743-1.7611495-.610005-2.3120526s-1.6644587-.5813864-2.389995-.0749474c-5.7224263 4.0898113-13.3761926 4.2202729-19.2346792.327863-5.8584865-3.8924099-8.7041039-10.9987184-7.1513208-17.858863.52428-.0048043 1.0249697-.2186143 1.391-.594 1.3220177-1.2400147 2.106275-2.9481523 2.185-4.759-.0225793-.5154748-.1444771-1.021741-.359-1.491 3.0406627-3.8625752 7.599946-6.22550056 12.509-6.483.4691109 1.74059532 2.0475554 2.9500607 3.8502582 2.950217 1.8027027.0001563 3.3813569-1.20903538 3.8507696-2.94954934.4694127-1.74051395-.2871524-3.57950901-1.8454694-4.48581217-1.5583169-.90630316-3.5308543-.65452964-4.8115584.61414451-4.6003212-2.7227166-9.8483351-4.15785533-15.194-4.155-4.614096-.01605899-9.1671939 1.05412968-13.291 3.124-.189-.036-.38-.087-.567-.114-2.2840385-.24529769-4.568671.45744371-6.32 1.944-.5957356.45185169-.88967422 1.19827064-.762 1.935.07418497.4145518.27920021.79444328.585 1.084-8.88888645 8.2083775-11.97581538 20.9535484-7.82790309 32.3194881 4.14791228 11.3659398 14.71840989 19.1269379 26.80490309 19.6805119zm19.381-54.969c1.1045695 0 2 .8954305 2 2s-.8954305 2-2 2-2-.8954305-2-2 .8954305-2 2-2zm-18-3c4.9890856-.00367083 9.8871495 1.3358702 14.18 3.878-.015.049-.033.1-.046.148-5.232985.25104403-10.1323088 2.64356885-13.548 6.616-2.832495-3.79133099-6.6131936-6.77015734-10.962-8.637 3.2964368-1.33312973 6.8202091-2.01404371 10.376-2.005zm-14.806 2.943c.2225078-.00032602.4447499.01538132.665.047 6.789.97 14.141 8.76 14.141 11.01-.0780638 1.2810737-.6614484 2.4787747-1.622 3.33-1.266-2.495-3.81-5.154-7.778-8.13-2.9291988-2.03923546-6.1587315-3.60879106-9.572-4.652 1.1729402-.98102379 2.6380429-1.54547168 4.166-1.605zm-3.548 3.929c2.7604366.92886286 5.3721086 2.2518765 7.754 3.928 3.717 2.788 6.07 5.22 7.2 7.435.008.016.02.028.029.044-1.9918985 7.7098138 1.0413406 15.8431797 7.5952301 20.3659467s15.2343095 4.4728681 21.7357699-.1249467c-4.350155 10.7439468-14.8705472 17.6967787-26.4598642 17.4870845-11.5893171-.2096942-21.85129987-7.5385571-25.80993815-18.4328411-3.95863827-10.8942841-.79542624-23.1014382 7.95580235-30.7022434z"/><path id="Shape" d="m12.04 34c.8026156.0234737 1.5793921-.2850527 2.1471697-.8528303s.876304-1.3445541.8528303-2.1471697c-.0005356-.545859-.4411543-.9891562-.987-.993h-.013c-.5436474.0030748-.9864984.4375116-1 .981.0291128.2741498-.0663894.5468874-.2601664.7429897-.193777.1961024-.465356.294851-.7398336.2690103-.2741851.0261168-.5456088-.0722548-.7393932-.267977-.1937844-.1957223-.2894505-.4681113-.2606068-.742023-.0027614-.5522847-.4527153-.9977614-1.005-.995-.55228474.0027615-.9977614.4527153-.995 1.005-.02347369.8026156.28505273 1.5793921.85283031 2.1471697.56777759.5677776 1.34455409.876304 2.14716969.8528303z"/><path id="Shape" d="m22.04 34c.8026156.0234737 1.5793921-.2850527 2.1471697-.8528303s.876304-1.3445541.8528303-2.1471697c-.0005356-.545859-.4411543-.9891562-.987-.993h-.013c-.5436474.0030748-.9864984.4375116-1 .981 0 .5522847-.4477153 1-1 1s-1-.4477153-1-1c-.0017863-.3572656-.1940359-.6864396-.5043301-.8635254-.3102943-.1770858-.6914921-.1751798-1 .005s-.4974562.5112598-.4956699.8685254c-.0240356.8029574.2842425 1.580264.8520841 2.1484842.5678417.5682202 1.3449426.8770163 2.1479159.8535158z"/><path id="Shape" d="m12.89 35.685c-.6308263.5955836-.9455401 1.452716-.85 2.315 0 3.687 2.583 5 5 5s5-1.313 5-5c.0955401-.862284-.2191737-1.7194164-.85-2.315-.8212745-.4330556-1.8021583-.438281-2.628-.014-.4888295.1824335-1.0014638.293246-1.522.329-.5205362-.035754-1.0331705-.1465665-1.522-.329-.8259634-.4237716-1.8065984-.4185475-2.628.014zm1.206 1.67c.2786415.0582441.5534823.1333829.823.225.6815506.2469636 1.3967655.3885903 2.121.42.7242345-.0314097 1.4394494-.1730364 2.121-.42.2695564-.0914906.5443895-.1666272.823-.225.0432618.2121524.0620512.4285662.056.645.102214.8227614-.1808237 1.6466712-.7670763 2.2329237-.5862525.5862526-1.4101623.8692903-2.2329237.7670763-.8227614.102214-1.6466712-.1808237-2.2329237-.7670763-.5862526-.5862525-.8692903-1.4101623-.7670763-2.2329237-.0047361-.2165872.0153956-.4330026.06-.645z"/><path id="Shape" d="m20.631 48.406c-2.093-.8-4.205-.2-4.808 1.368-.3010127.8750138-.1388178 1.8429146.431 2.572.565458.7590832 1.3401127 1.3366857 2.229 1.662.5889747.2309263 1.2153874.3515989 1.848.356 1.2503691.1009156 2.4315128-.5867884 2.961-1.724.602-1.57-.566-3.43-2.661-4.234zm.793 3.518c-.146.38-1.083.655-2.225.217-.5192992-.1860032-.9747797-.5162526-1.313-.952-.1726867-.1890946-.2467217-.4482173-.2-.7.093-.242.507-.441 1.09-.441.3887176.0049708.7732973.0805314 1.135.223 1.144.44 1.659 1.272 1.513 1.653z"/><path id="Shape" d="m26.124 55.258c.7701441.5493181 1.6837831.8620891 2.629.9.105.006.209.009.313.009.8397167.0112058 1.6675431-.1992001 2.4-.61.8411725-.4056822 1.395799-1.2360412 1.4483846-2.1684488.0525857-.9324076-.4051602-1.819862-1.1953846-2.3175512-1.5835548-1.0959038-3.6477383-1.2117824-5.344-.3-.8411725.4056822-1.395799 1.2360412-1.4483846 2.1684488-.0525857.9324076.4051602 1.819862 1.1953846 2.3175512zm1.267-2.758c.4266284-.2297298.9055718-.3448141 1.39-.334.066 0 .132 0 .2.005.5513383.0186647 1.0859158.1941977 1.541.506.2187315.1276079.3663356.349014.4.6-.0602308.2474963-.2320568.4529485-.465.556-.4863837.2609145-1.0379896.3751955-1.588.329-.5511794-.0186987-1.0856588-.1938525-1.541-.505-.2525238-.0915217-.4150721-.3378985-.3998537-.6060644.0152184-.2681658.2045968-.4945708.4658537-.5569356z"/></g></g></g></svg>