<svg height="512" viewBox="0 0 60 52" width="512" xmlns="http://www.w3.org/2000/svg"><g id="Page-1" fill="none" fill-rule="evenodd"><g id="010---Sleepy-Sloth" fill-rule="nonzero"><path id="Shape" d="m46.97 23.28c-.35 1.9-4.25 3.72-9.97 3.72-5.33 0-5.14-2.37-8.53-2.89-.0080001-.007654-.0190075-.0113232-.03-.01-.472316-.1050356-.9576994-.1387428-1.44-.1-.4823006-.0387428-.967684-.0050356-1.44.1-.0109925-.0013232-.0219999.002346-.03.01-3.39.52-3.2 2.89-8.53 2.89-.17 0-.33 0-.5-.01-.4781376-.3619878-.9791831-.6926778-1.5-.99-1.1518353-.6573216-2.3813837-1.1679537-3.66-1.52-1.3214446-.3531906-2.68222258-.5379877-4.05-.55v-.01h-.29c.02-2.88 1.03-.96 4-4.92.39-.52.78-1.07 1.19-1.64-1.1041871-1.6098842-1.8509208-3.4375064-2.19-5.36-.73-2.91 0-11 3-11s5 4 6 6c.5579507 1.04279688 1.232251 2.01902256 2.01 2.91 1.9325243-.63283311 3.9567251-.94034942 5.99-.91 2.0332749-.03034942 4.0574757.27716689 5.99.91.777749-.89097744 1.4520493-1.86720312 2.01-2.91 1-2 3-6 6-6 2.54 0 3.45 5.8 3.22 9.35-.0203842.5557711-.0940552 1.1083036-.22 1.65-.3390792 1.9224936-1.0858129 3.7501158-2.19 5.36.41.57.8 1.12 1.19 1.64 2.72 3.62 3.79 2.32 3.97 4.28z" fill="#ff9801"/><path id="Shape" d="m16 7c.5579507 1.04279688 1.232251 2.01902256 2.01 2.91.8136457-.27223904 1.6475908-.47955497 2.494-.62-.5754527-.71199317-1.0792279-1.47904452-1.504-2.29-1-2-3-6-6-6-.4468654.01353527-.8717423.19700484-1.188.513 2.007 1.139 3.405 3.922 4.188 5.487z" fill="#f57c00"/><path id="Shape" d="m43 19c-.39-.52-.78-1.07-1.19-1.64 1.1041871-1.6098842 1.8509208-3.4375064 2.19-5.36.1259448-.5416964.1996158-1.0942289.22-1.65.23-3.55-.68-9.35-3.22-9.35-.6341566.00955146-1.2547507.18504168-1.8.509 1.627 1.483 2.212 5.92 2.023 8.841-.0213691.5558682-.0960448 1.1084019-.223 1.65-.3390792 1.9224936-1.0858129 3.7501158-2.19 5.36.41.57.8 1.12 1.19 1.64 2.72 3.62 3.79 2.32 3.97 4.28-.314 1.7-3.49 3.34-8.269 3.66.4.035.819.06 1.3.06 5.72 0 9.62-1.82 9.97-3.72-.181-1.96-1.251-.66-3.971-4.28z" fill="#f57c00"/><path id="Shape" d="m29 25c0 1.1-.9 3-2 3s-2-1.9-2-3c-.0588284-.3852239.1632774-.7581941.53-.89.0080001-.007654.0190075-.0113232.03-.01.9553704-.1333333 1.9246296-.1333333 2.88 0 .0109925-.0013232.0219999.002346.03.01.3667226.1318059.5888284.5047761.53.89z" fill="#37474f"/><path id="Shape" d="m27 24c-.4817757-.0012045-.9630152.0322149-1.44.1.472316-.1050356.9576994-.1387428 1.44-.1z" fill="#37474f"/><path id="Shape" d="m28.44 24.1c-.4769848-.0677851-.9582243-.1012045-1.44-.1.4823006-.0387428.967684-.0050356 1.44.1z" fill="#37474f"/><path id="Shape" d="m47 24c0 3-2 13-20 13-1.07 0-2.08-.04-3.03-.1-2.36-2.98-3.65-7.03-7.47-9.91.17.01.33.01.5.01 5.33 0 5.14-2.37 8.53-2.89-.3667226.1318059-.5888284.5047761-.53.89 0 1.1.9 3 2 3s2-1.9 2-3c.0588284-.3852239-.1632774-.7581941-.53-.89 3.39.52 3.2 2.89 8.53 2.89 5.72 0 9.62-1.82 9.97-3.72.02.2.03.44.03.72z" fill="#ff5722"/><path id="Shape" d="m46.97 23.28c-.182.988-1.33 1.951-3.187 2.651-.819 3.9-4.434 10.59-18.279 11.043.485.016.983.026 1.5.026 18 0 20-10 20-13-.0026667-.28-.014-.52-.034-.72z" fill="#d84315"/><path id="Shape" d="m59 30c0 14-11 21-29 21s-21-5-25-10c-1.34600493-1.8666436-2.29239997-3.990926-2.78-6.24 2.13920187.9139301 4.45579597 1.337614 6.78 1.24v-4h5c-.1652471-2.706245-1.0868765-5.3117539-2.66-7.52 1.2786163.3520463 2.5081647.8626784 3.66 1.52.5208169.2973222 1.0218624.6280122 1.5.99 3.82 2.88 5.11 6.93 7.47 9.91.95.06 1.96.1 3.03.1 18 0 20-10 20-13 0-.28-.01-.52-.03-.72-.18-1.96-1.25-.66-3.97-4.28-.39-.52-.78-1.07-1.19-1.64 1.1041871-1.6098842 1.8509208-3.4375064 2.19-5.36.1259448-.5416964.1996158-1.0942289.22-1.65 11.79 1.42 14.78 7.55 14.78 19.65z" fill="#ff9801"/><path id="Shape" d="m13.5 26.99c3.82 2.88 5.11 6.93 7.47 9.91.95.06 1.96.1 3.03.1.515 0 1.014-.01 1.5-.026-.527-.018-1.04-.043-1.534-.074-2.36-2.98-3.65-7.03-7.47-9.91-.4768473-.3618429-.9765528-.6925303-1.496-.99-1.1518353-.6573216-2.3813837-1.1679537-3.66-1.52.389655.5626206.7407905 1.1509647 1.051 1.761.39.24.764.487 1.109.749z" fill="#f57c00"/><path id="Shape" d="m6 36v-.2c-1.30632752-.1484463-2.58159074-.4993124-3.78-1.04.082.325.172.648.266.969 1.16185406.187098 2.33719708.2777406 3.514.271z" fill="#f57c00"/><path id="Shape" d="m44.22 10.35c-.009.183-.029.344-.046.514 9.326 2.074 11.826 8.127 11.826 19.136 0 13.658-10.473 20.651-27.7 20.984.551.01 1.116.016 1.7.016 18 0 29-7 29-21 0-12.1-2.99-18.23-14.78-19.65z" fill="#f57c00"/><path id="Shape" d="m14 32h-5v4c-2.32420403.097614-4.64079813-.3260699-6.78-1.24-.76135347-3.1991117-1.17045355-6.4719124-1.22-9.76 1.91749952-.7225366 3.95090496-1.0885496 6-1.08h.29v.01c1.36777742.0120123 2.7285554.1968094 4.05.55 1.5731235 2.2082461 2.4947529 4.813755 2.66 7.52z" fill="#f5f5f5"/><g fill="#000"><circle id="Oval" cx="19" cy="16" r="1"/><circle id="Oval" cx="35" cy="16" r="1"/><path id="Shape" d="m20 23c.8026156.0234737 1.5793921-.2850527 2.1471697-.8528303s.876304-1.3445541.8528303-2.1471697c-.0005356-.545859-.4411543-.9891562-.987-.993h-.013c-.5436474.0030748-.9864984.4375116-1 .981.0033137.5522847-.4417153 1.0026863-.994 1.006s-1.0026863-.4417153-1.006-.994c0-.5522847-.4477153-1-1-1s-1 .4477153-1 1c-.0234737.8026156.2850527 1.5793921.8528303 2.1471697s1.3445541.876304 2.1471697.8528303z"/><path id="Shape" d="m34 23c.8026156.0234737 1.5793921-.2850527 2.1471697-.8528303s.876304-1.3445541.8528303-2.1471697c-.0005356-.545859-.4411543-.9891562-.987-.993h-.013c-.5436474.0030748-.9864984.4375116-1 .981.0033137.5522847-.4417153 1.0026863-.994 1.006s-1.0026863-.4417153-1.006-.994c0-.5522847-.4477153-1-1-1s-1 .4477153-1 1c-.0234737.8026156.2850527 1.5793921.8528303 2.1471697s1.3445541.876304 2.1471697.8528303z"/><path id="Shape" d="m4.812 42.371c3.911 4.952 7.606 9.629 25.188 9.629 19.346 0 30-7.813 30-22 0-11.3-2.5-18.709-14.75-20.517.033-2.748-.484-6.717-2.17-8.516-.525463-.60187269-1.2811436-.95319151-2.08-.967-3.618 0-5.831 4.426-6.9 6.553-.4099677.78120992-.8988507 1.51838777-1.459 2.2-1.8342199-.52153482-3.7342042-.77515796-5.641-.753-1.9084198-.02296581-3.8101218.230325-5.646.752-.5601493-.68161223-1.0490323-1.41879008-1.459-2.2-1.064-2.126-3.277-6.552-6.895-6.552-.933917.02063425-1.8009327.48912041-2.33 1.259-1.9 2.433-2.3 8.341-1.64 10.984.35256601 1.8019498 1.0042348 3.5321844 1.928 5.119-.257.357-.508.7-.758 1.038-.69171875 1.0360796-1.61070447 1.9006854-2.687 2.528-.81301838.3609743-1.36597058 1.1348777-1.444 2.021-1.86993615.0818193-3.71451946.4640394-5.463 1.132-.36760381.1575827-.60595583.5190439-.606.919 0 .463.048 11.411 4.219 16.625zm53.188-12.371c0 12.9-9.944 20-28 20-16.613 0-20.017-4.308-23.619-8.869l-.6-.756c-.90275471-1.2077755-1.59328781-2.5604358-2.042-4 1.7180426.4415089 3.48733497.6516985 5.261.625.55228475 0 1-.4477153 1-1v-3h4c.5522847 0 1-.4477153 1-1-.0964668-1.9489436-.581286-3.8589817-1.426-5.618.313.151.624.311.929.486 3.253 1.862 4.853 4.559 6.4 7.167.6815154 1.2105226 1.4432146 2.3741183 2.28 3.483 1.1415032 1.5224436 2.6790361 2.7023142 4.445 3.411.431.172.875.317 1.325.448.129.038.258.072.387.106.356.094.7146667.1763333 1.076.247.112.022.221.047.333.067.458.079.919.141 1.381.183.106.01.211.014.317.022.372.027.743.044 1.113.048.074 0 .149.01.223.01s.129-.007.2-.008c.345 0 .686-.018 1.026-.042.095-.006.191-.008.286-.016.427-.037.848-.09 1.26-.157.1-.017.2-.04.309-.059.311-.057.617-.122.916-.2.127-.031.252-.065.377-.1.287-.081.566-.17.839-.267.1-.035.2-.066.3-.1.3483724-.1322278.6895146-.282771 1.022-.451.054-.028.1-.06.155-.088.2584377-.1380712.5094497-.289613.752-.454.09-.061.173-.124.259-.188.1914692-.1422185.3747606-.2951283.549-.458.071-.066.145-.131.212-.2.2214754-.220537.4223122-.4608717.6-.718.306518-.4595009.1825009-1.080482-.277-1.387s-1.080482-.1825009-1.387.277c-1.565 2.348-7.906 3.584-12.8 1.626-.6824883-.2702128-1.3242545-.6336672-1.907-1.08.178 0 .36.009.537.009 20.411 0 21-12.567 21-14 0-.319-.012-.594-.034-.812-.0093517-.9793646-.5881719-1.8636081-1.482-2.264-1.0780914-.6256745-1.9996869-1.4884521-2.695-2.523-.25-.334-.5-.681-.758-1.038.9237652-1.5868156 1.575434-3.3170502 1.928-5.119.057-.228.1-.486.141-.751 9.595 1.441 12.889 6.239 12.889 18.508zm-31-5c.334119-.0000746.6679784.0186215 1 .056-.029.815-.682 1.9-.993 1.944-.316-.043-.97-1.129-1-1.944.3297011-.0371176.6612162-.0558134.993-.056zm-2.945.629c.254 1.528 1.367 3.371 2.945 3.371s2.691-1.843 2.945-3.371c.333216.1835633.6569607.3838177.97.6 1.7584325 1.2845446 3.9118782 1.9112911 6.085 1.771 3.0118239.1121655 6.0035153-.5346588 8.7-1.881-.9 3.499-4.482 9.881-18.7 9.881-.8 0-1.631-.028-2.5-.075-.6761956-.9373012-1.3040154-1.9085696-1.881-2.91-1.0129175-1.8501346-2.2363763-3.5769363-3.646-5.146 1.4869087-.1857268 2.9011388-.7504547 4.107-1.64.3146657-.2163266.6400822-.416583.975-.6zm-15.526-2.979c1.30269881-.7619527 2.419927-1.8036971 3.271-3.05.319-.426.639-.872.97-1.332l.23-.324c.2626513-.3645028.2499715-.8594247-.031-1.21-1.0081477-1.5008429-1.689547-3.1968459-2-4.978-.545-2.171-.128-7.465 1.277-9.267.1317614-.19228507.3136773-.34480387.526-.441.9 1.092 3.076 6.61 2.247 10.756-.1080429.5402076.2411773 1.06605.781 1.176.0657696.0137352.132813.0204396.2.02.4748929-.000378.8840215-.3347017.979-.8.4441218-3.21944479.0408485-6.49905654-1.17-9.515.9065944 1.16433152 1.6781933 2.4277408 2.3 3.766.5895605 1.11598701 1.3077855 2.15909137 2.14 3.108.2661923.3146528.6981638.4337626 1.088.3 1.8269452-.5984955 3.7407518-.88879391 5.663-.859 1.9234191-.03120644 3.83861.258083 5.667.856.3898362.1337626.8218077.0146528 1.088-.3.8322145-.94890863 1.5504395-1.99201299 2.14-3.108.6205528-1.33816459 1.3904446-2.60186061 2.295-3.767-1.2115453 3.01716422-1.61483 6.29824725-1.17 9.519.0950537.4656663.5047314.800097.98.8.0671846.000387.1342224-.0063167.2-.02.2599387-.0529946.4881678-.2071045.6344551-.428411.1462874-.2213065.1986434-.4916715.1455449-.751589-.829-4.148 1.346-9.669 2.249-10.757.1507271.0651862.2847427.16364664.392.288 1.185 1.264 1.784 5.131 1.6 7.969-.0178721.4892587-.0818216.9757437-.191 1.453-.3105873 1.7808062-.9919815 3.4764555-2 4.977-.2826913.3515738-.2949809.8488923-.03 1.214l.232.324c.331.46.651.906.97 1.333.851386 1.2436344 1.9673917 2.2834867 3.268 3.045.385.228.45.281.485.551-.376 1.18-3.655 2.803-8.955 2.803-1.775591.1344042-3.540304-.3742108-4.972-1.433-1.0004-.7483051-2.1668565-1.243706-3.4-1.444-.4497745-.1000094-.9106065-.1413532-1.371-.123h-.514c-.4608645-.0198354-.9223081.0222058-1.372.125-1.2329325.2004172-2.3992852.695431-3.4 1.443-1.4315647 1.0582023-3.1958679 1.5664466-4.971 1.432-.057 0-.109 0-.163 0-.4316262-.3118047-.8792353-.6008647-1.341-.866-2.2544525-1.2897219-4.778655-2.0358203-7.372-2.179.11404082-.1268626.25157341-.2304365.405-.305zm-1.529 2.27h.067c1.22860318-.0014585 2.45285751.145949 3.646.439 1.1224557 1.7031035 1.8680973 3.6263612 2.187 5.641h-3.9c-.55228475 0-1 .4477153-1 1v2.98c-1.68310446-.0222558-3.34942112-.3379897-4.924-.933-.61302176-2.7431611-.96790329-5.5376857-1.06-8.347 1.61223119-.5109626 3.29274728-.7739647 4.984-.78z"/></g></g></g></svg>