<svg height="512" viewBox="0 0 56 60" width="512" xmlns="http://www.w3.org/2000/svg"><g id="Page-1" fill="none" fill-rule="evenodd"><g id="025---Cat" fill-rule="nonzero"><path id="Shape" d="m30 54c.0245958 1.0805655.4736489 2.1079989 1.25 2.86-1.08.09-2.17.14-3.25.14-1.3902681.0050799-2.7795402-.0750704-4.16-.24.7278661-.7361555 1.1434239-1.7248965 1.16-2.76 0-2.76-3.13-5-7-5-.9951412-.0064592-1.9847145.1489004-2.93.46.67-7.56 6.2-13.46 12.93-13.46 6.85 0 12.47 6.12 12.96 13.88-1.2348129-.5938148-2.5899067-.8949468-3.96-.88-3.87 0-7 2.24-7 5z" fill="#cfd8dc"/><path id="Shape" d="m37.872 49.047c1.071998.0842649 2.1190541.3667124 3.088.833-.49-7.76-6.11-13.88-12.96-13.88-.5018922.0032101-1.0030088.0399587-1.5.11 5.912.79 10.61 6.146 11.372 12.937z" fill="#9e9e9e"/><path id="Shape" d="m35.471 49.123c-.4865212-.0781084-.9782632-.1192262-1.471-.123-3.87 0-7 2.24-7 5 .0245958 1.0805655.4736489 2.1079989 1.25 2.86-.5366667.0453333-1.075.0786667-1.615.1.455.016.91.037 1.365.037 1.08 0 2.17-.05 3.25-.14-.7756303-.7512668-1.2246217-1.7774816-1.25-2.857 0-2.385 2.339-4.378 5.471-4.877z" fill="#9e9e9e"/><path id="Shape" d="m21.78 4.84c-3.9987494 2.15098867-7.3508108 5.3304413-9.71 9.21l.6-10.22c.0654814-1.10366008.7315191-2.08229619 1.7341951-2.54812272 1.0026759-.46582653 2.1801339-.3436478 3.0658049.31812272z" fill="#e91e63"/><path id="Shape" d="m43.93 14.05c-2.3591892-3.8795587-5.7112506-7.05901133-9.71-9.21l4.31-3.24c.885671-.66177052 2.063129-.78394925 3.0658049-.31812272 1.002676.46582653 1.6687137 1.44446264 1.7341951 2.54812272z" fill="#e91e63"/><path id="Shape" d="m25 54c-.0165761 1.0351035-.4321339 2.0238445-1.16 2.76-1.5625163 1.5074752-3.670166 2.3158888-5.84 2.24-3.87 0-7-2.24-7-5 .0004543-.6302821.1622575-1.2499542.47-1.8.8106178-1.3354582 2.0968569-2.3144291 3.6-2.74.9452855-.3110996 1.9348588-.4664592 2.93-.46 3.87 0 7 2.24 7 5z" fill="#fec108"/><path id="Shape" d="m44 54c0 2.76-3.13 5-7 5-2.1231259.0682302-4.1880883-.7002949-5.75-2.14-.7763511-.7520011-1.2254042-1.7794345-1.25-2.86 0-2.76 3.13-5 7-5 1.3700933-.0149468 2.7251871.2861852 3.96.88 1.2716257.5535646 2.278947 1.5788098 2.81 2.86.1513655.4028756.2292648.8296284.23 1.26z" fill="#fec108"/><path id="Shape" d="m51 37.93c.039597 2.2436574-.2673498 4.4799844-.91 6.63-1.1127205 3.3673233-3.3425484 6.253398-6.32 8.18-.531053-1.2811902-1.5383743-2.3064354-2.81-2.86-.49-7.76-6.11-13.88-12.96-13.88-6.73 0-12.26 5.9-12.93 13.46-1.5031431.4255709-2.7893822 1.4045418-3.6 2.74-2.60890084-1.9003515-4.55401233-4.5731306-5.56-7.64-.64265018-2.1500156-.94959703-4.3863426-.91-6.63-1.87-.49-3.34-2.02-2.93-4.93.53389833-3.5615135 2.44867913-6.7695797 5.33-8.93.26-.81.53-1.61.83-2.4 1.0007963-2.6713375 2.2883224-5.226272 3.84-7.62 2.3591892-3.8795587 5.7112506-7.05901133 9.71-9.21 1.0368746-.52603142 2.1218506-.95131522 3.24-1.27 1.9485977-.55001934 4.0114023-.55001934 5.96 0 1.1181494.31868478 2.2031254.74396858 3.24 1.27 3.9987494 2.15098867 7.3508108 5.3304413 9.71 9.21 1.5516776 2.393728 2.8392037 4.9486625 3.84 7.62.3.79.57 1.59.83 2.4 2.8813209 2.1604203 4.7961017 5.3684865 5.33 8.93.41 2.91-1.06 4.44-2.93 4.93z" fill="#ffdc00"/><path id="Shape" d="m53.93 33c-.5338983-3.5615135-2.4486791-6.7695797-5.33-8.93-.26-.81-.53-1.61-.83-2.4-1.0007963-2.6713375-2.2883224-5.226272-3.84-7.62-2.3591892-3.8795587-5.7112506-7.05901133-9.71-9.21-1.0368746-.52603142-2.1218506-.95131522-3.24-1.27-1.4560737-.41061398-2.9812484-.51615062-4.48-.31.4999312.06885283.9944608.17243673 1.48.31 1.1181494.31868478 2.2031254.74396858 3.24 1.27 3.9987494 2.15098867 7.3508108 5.3304413 9.71 9.21 1.5516776 2.393728 2.8392037 4.9486625 3.84 7.62.3.79.57 1.59.83 2.4 2.8813209 2.1604203 4.7961017 5.3684865 5.33 8.93.41 2.91-1.06 4.44-2.93 4.93.039597 2.2436574-.2673498 4.4799844-.91 6.63-.8216899 2.5527477-2.3152545 4.8373075-4.324 6.614.4410059.4448656.7819398.9787681 1 1.566 2.9774516-1.926602 5.2072795-4.8126767 6.32-8.18.6440034-2.1498038.9523001-4.3861351.914-6.63 1.87-.49 3.34-2.02 2.93-4.93z" fill="#fec108"/><path id="Shape" d="m37 24c0 3.87-4.03 7-9 7s-9-3.13-9-7c.137538-2.4290565 1.3790792-4.6616201 3.37-6.06h.01c.8233137-.6338025 1.7457526-1.1271215 2.73-1.46-.0718142.1639958-.1092513.3409711-.11.52.0012038.0671004.0078927.13399.02.2v.01c.16 1 1.43 1.79 2.98 1.79 1.66 0 3-.9 3-2-.0007487-.1790289-.0381858-.3560042-.11-.52.9833083.3350441 1.9054066.8281809 2.73 1.46h.01c1.9909208 1.3983799 3.232462 3.6309435 3.37 6.06z" fill="#cfd8dc"/><path id="Shape" d="m33.63 17.94h-.01c-.8245934-.6318191-1.7466917-1.1249559-2.73-1.46.0718142.1639958.1092513.3409711.11.52-.0104326.3469102-.1408407.6794683-.369.941 1.990276 1.3983756 3.2313972 3.6304782 3.369 6.059 0 3.471-3.245 6.339-7.5 6.9.4972914.0659371.9983567.0993414 1.5.1 4.97 0 9-3.13 9-7-.137538-2.4290565-1.3790792-4.6616201-3.37-6.06z" fill="#9e9e9e"/><path id="Shape" d="m31 17c0 1.1-1.34 2-3 2-1.55 0-2.82-.79-2.98-1.79v-.01c-.0121073-.06601-.0187962-.1328996-.02-.2.0007487-.1790289.0381858-.3560042.11-.52.1679698-.3953098.4637666-.7227992.84-.93 1.2685444-.7323945 2.8314556-.7323945 4.1 0 .3762334.2072008.6720302.5346902.84.93.0718142.1639958.1092513.3409711.11.52z" fill="#37474f"/><path id="Shape" d="m26 15c-.0013071.1844065-.018032.3683808-.05.55-.3762334.2072008-.6720302.5346902-.84.93-.9842474.3328785-1.9066863.8261975-2.73 1.46h-.01c-1.5388361-.3305302-2.5605968-1.7941081-2.3405205-3.3525795.2200764-1.5584715 1.6071545-2.6818901 3.1773436-2.5733857 1.570189.1085044 2.7895581 1.4120358 2.7931769 2.9859652z" fill="#02a9f4"/><path id="Shape" d="m36 15c.0032556 1.4166566-.9849284 2.6425051-2.37 2.94h-.01c-.8245934-.6318191-1.7466917-1.1249559-2.73-1.46-.1679698-.3953098-.4637666-.7227992-.84-.93-.031968-.1816192-.0486929-.3655935-.05-.55 0-1.6568542 1.3431458-3 3-3s3 1.3431458 3 3z" fill="#02a9f4"/><g fill="#000"><path id="Shape" d="m37 15c-.006973-2.0334772-1.5385016-3.7381126-3.5596313-3.9619719s-3.88857 1.104308-4.3403687 3.0869719c-.7258896-.1666644-1.4801104-.1666644-2.206 0-.3807221-1.7308414-1.8549695-3.0048239-3.6227197-3.1306018-1.7677503-.1257779-3.4075242.9266375-4.0294739 2.5861374-.6219496 1.6594998-.0777855 3.5304146 1.3371936 4.5974644-1.5815624 1.5331907-2.5061772 3.6204755-2.579 5.822 0 4.411 4.486 8 10 8s10-3.589 10-8c-.0736163-2.2019519-.9993335-4.2892971-2.582-5.822.9977235-.7516349 1.5837324-1.9288386 1.582-3.178zm-6 0c.0016223-.9968161.7370283-1.8402618 1.7243316-1.977656s1.9250568.4732127 2.1987829 1.4317111c.273726.9584983-.2001505 1.9722357-1.1111145 2.3769449-.6941928-.4719996-1.441704-.8603563-2.227-1.157-.1617403-.2467861-.3588428-.4684843-.585-.658zm-1.552 1.342c.02.015.04.027.061.04.312.193.491.425.491.618 0 .408-.779 1-2 1s-2-.592-2-1c0-.193.18-.426.493-.62.02-.012.039-.023.057-.036.9124114-.458025 1.9875886-.458025 2.9 0zm-6.448-3.342c1.1045695 0 2 .8954305 2 2v.016c-.2258027.1895883-.4225651.4112828-.584.658-.785067.2960315-1.5322792.6840717-2.226 1.156-.865816-.3817639-1.3456063-1.3180569-1.1498171-2.2438255.1957892-.9257687 1.0135725-1.5876401 1.9598171-1.5861745zm5 17c-4.411 0-8-2.691-8-6 0-2.342 1.747-4.764 4.217-6.05.5511388 1.0675915 1.5913892 1.796477 2.783 1.95v3.1c-.5522847 0-1 .4477153-1 1s.4477153 1 1 1h2c.5522847 0 1-.4477153 1-1s-.4477153-1-1-1v-3.1c1.1912033-.1531011 2.2313679-.8811789 2.783-1.948 2.47 1.284 4.217 3.706 4.217 6.048 0 3.309-3.589 6-8 6z"/><path id="Shape" d="m49.452 23.46c-.268-.826-.509-1.519-.748-2.145-1.0082417-2.6431824-2.2778722-5.1790934-3.79-7.57l-.586-9.974c-.0863575-1.47178369-.974342-2.77711474-2.3115561-3.39797162-1.3372141-.62085687-2.907406-.45683569-4.0874439.42697162l-3.836 2.885c-.9170638-.43348269-1.8670373-.79360994-2.841-1.077-2.1248153-.60225572-4.3751847-.60225572-6.5 0-.9738131.28383712-1.9237519.64395118-2.841 1.077l-3.844-2.885c-1.1802794-.8817245-2.7493516-1.04426003-4.0853016-.42318427-1.3359501.62107576-2.2230531 1.92547349-2.3096984 3.39618427l-.586 9.974c-1.51050507 2.3905023-2.77878399 4.9257202-3.786 7.568-.239.631-.48 1.324-.748 2.145-2.96474577 2.3124784-4.92304823 5.6795981-5.467 9.4-.43583004 1.9705045.31129591 4.0148596 1.915 5.24.31796423.2187628.65942503.401233 1.018.544.01528387 2.1050212.33079573 4.1970972.937 6.213.97464493 3.0149622 2.81852307 5.6746695 5.3 7.645-.1676919.4816837-.2538741.9879623-.255 1.498 0 3.309 3.589 6 8 6 2.2636446.0526734 4.4673378-.7305455 6.19-2.2 1.2654521.1354749 2.5373188.2022395 3.81.2.939 0 1.919-.044 2.912-.117 1.710243 1.4121192 3.8705998 2.1633471 6.088 2.117 4.411 0 8-2.691 8-6-.0029892-.2875811-.0334611-.574218-.091-.856 2.8791944-2.0336928 5.0296561-4.93778 6.135-8.285.6051179-2.0150928.9202798-4.1060704.936-6.21 2.3094524-.9014164 3.5748876-3.3922713 2.941-5.789-.5451547-3.7204634-2.5040602-7.0873882-5.469-9.4zm-10.325-21.06c.5910006-.43903913 1.3749458-.51925004 2.042612-.20899389.6676662.31025614 1.1118665.96117089 1.157388 1.69599389l.4 6.806c-1.8570022-2.37211417-4.1196463-4.39640697-6.683-5.979zm-25.459 1.489c.0444977-.73536278.4883026-1.38723932 1.1561611-1.69821098.6678586-.31097165 1.4524081-.23104763 2.0438389.20821098l3.082 2.317c-2.5634118 1.58418071-4.8257378 3.61018472-6.682 5.984zm-1.668 50.111c0-2.168 2.748-4 6-4s6 1.832 6 4-2.748 4-6 4-6-1.832-6-4zm13.572 1.92c.2782796-.6020452.424227-1.2567627.428-1.92 0-3.309-3.589-6-8-6-.5850889.0010206-1.1690872.0505233-1.746.148 1.135-6.448 5.987-11.148 11.746-11.148 5.793 0 10.723 4.887 11.779 11.381-.9047144-.2527009-1.8396567-.3808811-2.779-.381-4.411 0-8 2.691-8 6 .0044932.6803479.1580996 1.3514371.45 1.966-1.2925364.0555168-2.5871441.0401605-3.878-.046zm11.428 2.08c-3.252 0-6-1.832-6-4s2.748-4 6-4 6 1.832 6 4-2.748 4-6 4zm14.84-21.526c-1.4037768.8371141-3.1404876.8893061-4.592.138-.6778484-.2708558-1.1555721-.8879155-1.248-1.612 0-.5522847-.4477153-1-1-1s-1 .4477153-1 1c.0615214 1.4833401.9670401 2.8004229 2.33 3.389.9945529.4921981 2.0903355.7452554 3.2.739.147 0 .293-.019.44-.028-.0474652 1.7488649-.3269065 3.4836878-.831 5.159-.9093336 2.7991938-2.6677258 5.2457741-5.031 7-.5811773-.8177406-1.3349531-1.4977774-2.208-1.992-.756-8.041-6.761-14.267-13.9-14.267-7.025 0-12.872 5.866-13.844 13.741-1.1040399.4381686-2.0898124 1.129374-2.878 2.018-2.05975114-1.7026165-3.59100949-3.9575279-4.414-6.5-.50410998-1.6753405-.78388076-3.4101211-.832-5.159.147.009.293.028.44.028 1.10955804.0052991 2.20512346-.247708 3.2-.739 1.3621788-.5891674 2.2668365-1.9061284 2.328-3.389 0-.5522847-.4477153-1-1-1s-1 .4477153-1 1c-.09242792.7240845-.57015158 1.3411442-1.248 1.612-1.45137896.7503532-3.18731014.6981732-4.591-.138-.99509136-.7950616-1.42658289-2.1028732-1.1-3.334.63603846-3.8896778 2.98955804-7.2862679 6.408-9.248.49184634-.2492473.6891265-.8495873.441-1.342-.14841771-.2848491-.4265182-.4793328-.745-.521 1.653-4.361 6.535-14.786 16.127-17.497 1.7705093-.50147391 3.6454907-.50147391 5.416 0 9.592 2.712 14.474 13.136 16.127 17.494-.3184303.0411558-.5964401.2358374-.744.521-.2486572.4929251-.0508024 1.0940995.442 1.343 3.4270452 1.9531197 5.7834047 5.3550745 6.407 9.25.326044 1.2311108-.1053513 2.5386307-1.1 3.334z"/></g></g></g></svg>